<?xml version="1.0" encoding="UTF-8" ?>
<!DOCTYPE svg PUBLIC "-//W3C//DTD SVG 1.1//EN" "http://www.w3.org/Graphics/SVG/1.1/DTD/svg11.dtd">
<svg width="96pt" height="96pt" viewBox="0 0 96 96" version="1.1" xmlns="http://www.w3.org/2000/svg">
<g id="#ef9c4bff">
<path fill="#ef9c4b" opacity="1.00" d=" M 44.33 5.27 C 54.87 4.30 65.73 7.42 74.12 13.88 C 85.22 22.20 91.83 36.19 90.92 50.07 C 90.61 70.04 74.19 88.05 54.45 90.59 C 44.45 91.93 33.94 90.10 25.38 84.62 C 14.68 78.05 7.14 66.56 5.51 54.09 C 3.77 42.36 7.23 29.97 14.82 20.85 C 22.03 11.97 32.91 6.18 44.33 5.27 M 33.22 10.12 C 32.18 10.70 30.63 10.81 30.11 12.02 C 25.74 13.04 22.29 16.12 19.10 19.09 C 13.18 25.36 8.79 33.32 7.64 41.94 C 5.55 55.00 10.35 68.97 20.07 77.95 C 27.31 84.77 37.08 88.60 46.97 89.15 C 57.59 89.33 68.20 85.21 75.96 77.95 C 78.90 75.09 82.00 72.06 83.10 67.97 C 85.55 66.21 85.98 62.82 87.11 60.19 C 88.91 53.65 89.69 46.72 88.09 40.06 C 85.66 27.13 76.36 15.70 64.22 10.64 C 54.50 6.33 43.09 6.30 33.22 10.12 Z" />
<path fill="#ef9c4b" opacity="1.00" d=" M 65.28 34.40 C 72.27 33.59 80.18 37.15 83.06 43.78 C 78.83 45.97 73.85 44.22 70.03 41.96 C 67.44 40.35 64.16 37.91 65.28 34.40 Z" />
</g>
<g id="#fde877ff">
<path fill="#fde877" opacity="1.00" d=" M 33.22 10.12 C 43.09 6.30 54.50 6.33 64.22 10.64 C 76.36 15.70 85.66 27.13 88.09 40.06 C 89.69 46.72 88.91 53.65 87.11 60.19 C 76.94 64.04 64.72 66.32 54.91 60.27 C 55.68 58.61 56.45 56.95 57.20 55.27 C 57.43 54.68 57.91 53.49 58.15 52.90 C 59.31 47.42 58.89 41.21 55.41 36.62 C 53.84 34.50 50.94 33.04 48.35 34.19 C 44.61 35.89 42.97 40.07 41.96 43.79 C 41.42 45.85 40.91 47.91 40.40 49.98 C 36.87 46.18 35.19 41.21 35.46 36.06 C 33.11 35.60 30.76 35.11 28.38 34.88 C 26.13 34.63 23.87 34.38 21.61 34.22 C 26.54 31.97 31.45 29.66 36.40 27.46 C 38.75 26.31 41.78 25.50 42.46 22.58 C 36.58 23.98 31.38 27.18 25.82 29.43 C 27.08 23.58 28.97 17.89 30.11 12.02 C 30.63 10.81 32.18 10.70 33.22 10.12 M 58.05 23.03 C 58.09 23.48 58.18 24.37 58.23 24.82 C 62.11 27.50 66.67 29.02 70.85 31.17 C 74.26 32.55 77.44 34.76 81.15 35.17 L 81.50 34.16 C 79.90 32.04 76.98 31.50 74.73 30.23 C 69.14 27.89 63.99 24.42 58.05 23.03 M 65.28 34.40 C 64.16 37.91 67.44 40.35 70.03 41.96 C 73.85 44.22 78.83 45.97 83.06 43.78 C 80.18 37.15 72.27 33.59 65.28 34.40 Z" />
</g>
<g id="#ffca73ff">
<path fill="#ffca73" opacity="1.00" d=" M 19.10 19.09 C 22.29 16.12 25.74 13.04 30.11 12.02 C 28.97 17.89 27.08 23.58 25.82 29.43 C 23.17 30.58 20.56 31.94 18.51 34.01 C 19.28 34.07 20.83 34.17 21.61 34.22 C 23.87 34.38 26.13 34.63 28.38 34.88 C 23.80 36.97 16.64 38.25 16.21 44.39 C 19.01 44.67 21.82 44.97 24.65 44.94 C 22.71 48.83 24.41 52.95 26.83 56.17 C 34.03 67.02 46.67 75.13 60.03 74.13 C 68.20 74.43 75.73 71.02 83.10 67.97 C 82.00 72.06 78.90 75.09 75.96 77.95 C 68.20 85.21 57.59 89.33 46.97 89.15 C 37.08 88.60 27.31 84.77 20.07 77.95 C 10.35 68.97 5.55 55.00 7.64 41.94 C 8.79 33.32 13.18 25.36 19.10 19.09 Z" />
</g>
<g id="#373328ff">
<path fill="#373328" opacity="1.00" d=" M 25.82 29.43 C 31.38 27.18 36.58 23.98 42.46 22.58 C 41.78 25.50 38.75 26.31 36.40 27.46 C 31.45 29.66 26.54 31.97 21.61 34.22 C 20.83 34.17 19.28 34.07 18.51 34.01 C 20.56 31.94 23.17 30.58 25.82 29.43 Z" />
</g>
<g id="#3a382aff">
<path fill="#3a382a" opacity="1.00" d=" M 58.05 23.03 C 63.99 24.42 69.14 27.89 74.73 30.23 C 76.98 31.50 79.90 32.04 81.50 34.16 L 81.15 35.17 C 77.44 34.76 74.26 32.55 70.85 31.17 C 66.67 29.02 62.11 27.50 58.23 24.82 C 58.18 24.37 58.09 23.48 58.05 23.03 Z" />
</g>
<g id="#7d180fff">
<path fill="#7d180f" opacity="1.00" d=" M 48.35 34.19 C 50.94 33.04 53.84 34.50 55.41 36.62 C 58.89 41.21 59.31 47.42 58.15 52.90 C 53.22 50.39 47.37 50.19 42.55 53.08 C 41.92 50.03 41.76 46.89 41.96 43.79 C 42.97 40.07 44.61 35.89 48.35 34.19 Z" />
</g>
<g id="#f0934aff">
<path fill="#f0934a" opacity="1.00" d=" M 28.38 34.88 C 30.76 35.11 33.11 35.60 35.46 36.06 C 34.29 41.24 29.30 43.61 24.65 44.94 C 21.82 44.97 19.01 44.67 16.21 44.39 C 16.64 38.25 23.80 36.97 28.38 34.88 Z" />
</g>
<g id="#fed675ff">
<path fill="#fed675" opacity="1.00" d=" M 35.46 36.06 C 35.19 41.21 36.87 46.18 40.40 49.98 C 40.91 47.91 41.42 45.85 41.96 43.79 C 41.76 46.89 41.92 50.03 42.55 53.08 C 42.83 54.04 43.16 54.99 43.53 55.93 C 44.76 58.19 46.28 60.83 49.06 61.30 C 51.06 61.31 52.98 60.71 54.91 60.27 C 64.72 66.32 76.94 64.04 87.11 60.19 C 85.98 62.82 85.55 66.21 83.10 67.97 C 75.73 71.02 68.20 74.43 60.03 74.13 C 46.67 75.13 34.03 67.02 26.83 56.17 C 24.41 52.95 22.71 48.83 24.65 44.94 C 29.30 43.61 34.29 41.24 35.46 36.06 Z" />
</g>
<g id="#ea6a54ff">
<path fill="#ea6a54" opacity="1.00" d=" M 42.55 53.08 C 47.37 50.19 53.22 50.39 58.15 52.90 C 57.91 53.49 57.43 54.68 57.20 55.27 C 52.63 55.10 48.05 55.19 43.53 55.93 C 43.16 54.99 42.83 54.04 42.55 53.08 Z" />
</g>
<g id="#e2552aff">
<path fill="#e2552a" opacity="1.00" d=" M 43.53 55.93 C 48.05 55.19 52.63 55.10 57.20 55.27 C 56.45 56.95 55.68 58.61 54.91 60.27 C 52.98 60.71 51.06 61.31 49.06 61.30 C 46.28 60.83 44.76 58.19 43.53 55.93 Z" />
</g>
</svg>
