<?xml version="1.0" encoding="UTF-8" ?>
<!DOCTYPE svg PUBLIC "-//W3C//DTD SVG 1.1//EN" "http://www.w3.org/Graphics/SVG/1.1/DTD/svg11.dtd">
<svg width="96pt" height="96pt" viewBox="0 0 96 96" version="1.1" xmlns="http://www.w3.org/2000/svg">
<g id="#d72f01ff">
<path fill="#d72f01" opacity="1.00" d=" M 14.25 21.55 C 21.31 12.34 32.35 6.29 43.91 5.27 C 55.03 4.13 66.55 7.53 75.16 14.68 C 74.31 15.03 73.47 15.38 72.63 15.75 C 59.48 5.57 39.86 4.69 26.07 14.08 C 22.75 16.18 21.35 19.97 20.01 23.46 C 18.10 22.80 16.17 22.18 14.25 21.55 Z" />
<path fill="#d72f01" opacity="1.00" d=" M 85.18 31.93 C 85.24 30.26 85.33 28.59 85.39 26.92 C 90.71 35.25 91.76 45.56 90.51 55.18 C 88.35 69.22 78.57 81.74 65.57 87.42 C 57.65 91.12 48.61 91.62 40.07 90.37 C 26.56 87.92 14.59 78.52 8.95 66.01 C 4.43 56.30 3.93 44.96 7.10 34.77 C 7.61 35.92 8.18 37.04 8.79 38.14 L 8.67 38.91 C 6.51 46.53 7.20 54.76 9.85 62.16 C 14.31 74.39 24.96 84.18 37.61 87.40 C 54.83 92.38 75.17 84.07 83.30 67.95 C 89.78 57.25 90.43 43.26 85.18 31.93 Z" />
</g>
<g id="#f6784bff">
<path fill="#f6784b" opacity="1.00" d=" M 26.07 14.08 C 39.86 4.69 59.48 5.57 72.63 15.75 C 63.87 19.84 55.09 23.91 46.36 28.08 C 49.24 34.80 54.42 40.70 61.02 43.94 C 66.55 46.67 73.66 46.54 78.55 42.53 C 82.01 39.95 83.91 35.94 85.18 31.93 C 90.43 43.26 89.78 57.25 83.30 67.95 C 78.43 70.27 73.75 73.12 68.47 74.46 C 63.72 75.65 58.83 76.31 53.93 76.47 C 52.34 64.70 50.59 52.95 48.97 41.18 C 45.20 40.87 41.40 40.51 37.63 41.06 C 37.50 50.58 37.37 60.10 37.23 69.62 C 33.78 67.12 29.81 65.30 26.67 62.39 C 22.92 57.59 21.86 51.34 20.58 45.53 C 28.81 44.72 34.85 37.57 37.32 30.12 C 31.60 27.78 25.80 25.62 20.01 23.46 C 21.35 19.97 22.75 16.18 26.07 14.08 M 52.16 18.22 C 50.47 19.34 48.44 18.04 46.61 18.53 C 45.23 19.23 44.56 20.62 44.09 22.01 C 50.47 25.17 56.32 19.74 59.94 15.00 C 61.18 14.08 60.96 12.56 60.15 11.42 C 56.51 12.43 55.20 16.36 52.16 18.22 M 25.39 17.96 C 27.16 21.49 30.55 25.76 35.05 24.23 C 36.55 23.53 39.71 22.00 37.95 19.98 C 36.18 17.92 33.81 22.06 31.77 20.30 C 30.55 19.11 29.59 17.69 28.40 16.47 C 27.12 15.96 26.21 17.25 25.39 17.96 Z" />
<path fill="#f6784b" opacity="1.00" d=" M 40.04 49.16 C 42.63 49.21 45.23 49.25 47.82 49.27 C 48.18 51.78 48.54 54.29 48.88 56.80 C 45.25 56.77 41.98 58.22 39.71 61.07 C 39.72 57.10 39.78 53.12 40.04 49.16 Z" />
</g>
<g id="#a4400fff">
<path fill="#a4400f" opacity="1.00" d=" M 52.16 18.22 C 55.20 16.36 56.51 12.43 60.15 11.42 C 60.96 12.56 61.18 14.08 59.94 15.00 C 56.32 19.74 50.47 25.17 44.09 22.01 C 44.56 20.62 45.23 19.23 46.61 18.53 C 48.44 18.04 50.47 19.34 52.16 18.22 Z" />
</g>
<g id="#4f413cf4">
<path fill="#4f413c" opacity="0.96" d=" M 75.16 14.68 C 77.46 13.76 79.70 12.72 81.91 11.62 C 83.92 16.47 85.45 21.62 85.39 26.92 C 85.33 28.59 85.24 30.26 85.18 31.93 C 83.91 35.94 82.01 39.95 78.55 42.53 C 73.66 46.54 66.55 46.67 61.02 43.94 C 54.42 40.70 49.24 34.80 46.36 28.08 C 55.09 23.91 63.87 19.84 72.63 15.75 C 73.47 15.38 74.31 15.03 75.16 14.68 M 48.27 29.09 C 52.08 36.27 58.62 42.77 66.96 43.92 C 73.26 44.82 79.62 40.94 82.14 35.20 C 85.24 28.29 84.25 20.26 81.42 13.44 C 70.43 18.79 59.29 23.80 48.27 29.09 Z" />
</g>
<g id="#ffffffff">
<path fill="#ffffff" opacity="1.00" d=" M 48.27 29.09 C 59.29 23.80 70.43 18.79 81.42 13.44 C 84.25 20.26 85.24 28.29 82.14 35.20 C 79.62 40.94 73.26 44.82 66.96 43.92 C 58.62 42.77 52.08 36.27 48.27 29.09 Z" />
<path fill="#ffffff" opacity="1.00" d=" M 8.58 20.81 C 17.70 24.03 26.70 27.62 35.73 31.10 C 33.06 37.18 28.03 43.01 21.09 43.86 C 16.68 44.44 12.87 41.72 10.11 38.59 C 8.74 36.17 7.83 33.51 7.65 30.72 C 7.65 30.57 7.63 30.28 7.62 30.13 C 7.38 26.99 7.94 23.87 8.58 20.81 Z" />
<path fill="#ffffff" opacity="1.00" d=" M 40.12 42.26 C 42.34 42.37 44.56 42.54 46.77 42.75 C 47.21 44.91 47.58 47.08 47.82 49.27 C 45.23 49.25 42.63 49.21 40.04 49.16 C 40.12 46.86 40.14 44.56 40.12 42.26 Z" />
</g>
<g id="#a5400fff">
<path fill="#a5400f" opacity="1.00" d=" M 25.39 17.96 C 26.21 17.25 27.12 15.96 28.40 16.47 C 29.59 17.69 30.55 19.11 31.77 20.30 C 33.81 22.06 36.18 17.92 37.95 19.98 C 39.71 22.00 36.55 23.53 35.05 24.23 C 30.55 25.76 27.16 21.49 25.39 17.96 Z" />
</g>
<g id="#604a42f7">
<path fill="#604a42" opacity="0.97" d=" M 8.27 19.31 C 10.25 20.09 12.23 20.89 14.25 21.55 C 16.17 22.18 18.10 22.80 20.01 23.46 C 25.80 25.62 31.60 27.78 37.32 30.12 C 34.85 37.57 28.81 44.72 20.58 45.53 C 15.74 45.57 11.29 42.92 8.67 38.91 L 8.79 38.14 L 10.11 38.59 C 12.87 41.72 16.68 44.44 21.09 43.86 C 28.03 43.01 33.06 37.18 35.73 31.10 C 26.70 27.62 17.70 24.03 8.58 20.81 C 7.94 23.87 7.38 26.99 7.62 30.13 C 7.63 30.28 7.65 30.57 7.65 30.72 C 7.43 30.56 6.99 30.25 6.77 30.09 C 6.89 27.95 6.97 25.82 7.08 23.68 C 7.30 22.18 7.81 20.75 8.27 19.31 Z" />
</g>
<g id="#302826b3">
<path fill="#302826" opacity="0.70" d=" M 7.10 34.77 C 6.32 31.16 5.94 27.25 7.08 23.68 C 6.97 25.82 6.89 27.95 6.77 30.09 C 6.99 30.25 7.43 30.56 7.65 30.72 C 7.83 33.51 8.74 36.17 10.11 38.59 L 8.79 38.14 C 8.18 37.04 7.61 35.92 7.10 34.77 Z" />
</g>
<g id="#ec4517ff">
<path fill="#ec4517" opacity="1.00" d=" M 9.85 62.16 C 7.20 54.76 6.51 46.53 8.67 38.91 C 11.29 42.92 15.74 45.57 20.58 45.53 C 21.86 51.34 22.92 57.59 26.67 62.39 C 29.81 65.30 33.78 67.12 37.23 69.62 C 37.28 74.75 37.06 79.87 37.15 85.00 C 43.06 85.49 49.00 85.53 54.93 85.67 C 54.66 82.60 54.32 79.53 53.93 76.47 C 58.83 76.31 63.72 75.65 68.47 74.46 C 73.75 73.12 78.43 70.27 83.30 67.95 C 75.17 84.07 54.83 92.38 37.61 87.40 C 24.96 84.18 14.31 74.39 9.85 62.16 Z" />
</g>
<g id="#d52b00ff">
<path fill="#d52b00" opacity="1.00" d=" M 37.63 41.06 C 41.40 40.51 45.20 40.87 48.97 41.18 C 50.59 52.95 52.34 64.70 53.93 76.47 C 54.32 79.53 54.66 82.60 54.93 85.67 C 49.00 85.53 43.06 85.49 37.15 85.00 C 37.06 79.87 37.28 74.75 37.23 69.62 C 37.37 60.10 37.50 50.58 37.63 41.06 M 40.12 42.26 C 40.14 44.56 40.12 46.86 40.04 49.16 C 39.78 53.12 39.72 57.10 39.71 61.07 C 39.61 68.43 39.53 75.79 39.19 83.14 C 43.78 83.25 48.37 83.22 52.97 83.17 C 51.69 74.37 50.42 65.56 48.88 56.80 C 48.54 54.29 48.18 51.78 47.82 49.27 C 47.58 47.08 47.21 44.91 46.77 42.75 C 44.56 42.54 42.34 42.37 40.12 42.26 Z" />
</g>
<g id="#ff5a70ff">
<path fill="#ff5a70" opacity="1.00" d=" M 39.71 61.07 C 41.98 58.22 45.25 56.77 48.88 56.80 C 50.42 65.56 51.69 74.37 52.97 83.17 C 48.37 83.22 43.78 83.25 39.19 83.14 C 39.53 75.79 39.61 68.43 39.71 61.07 Z" />
</g>
</svg>
