<?xml version="1.0" encoding="UTF-8" ?>
<!DOCTYPE svg PUBLIC "-//W3C//DTD SVG 1.1//EN" "http://www.w3.org/Graphics/SVG/1.1/DTD/svg11.dtd">
<svg width="96pt" height="96pt" viewBox="0 0 96 96" version="1.1" xmlns="http://www.w3.org/2000/svg">
<g id="#ffffffff">
<path fill="#ffffff" opacity="1.00" d=" M 7.06 5.08 C 13.46 5.06 19.85 5.08 26.25 5.07 C 26.26 33.69 26.26 62.31 26.25 90.93 C 19.85 90.92 13.46 90.94 7.06 90.92 C 7.08 62.31 7.08 33.69 7.06 5.08 Z" />
<path fill="#ffffff" opacity="1.00" d=" M 53.81 33.44 C 56.10 33.33 58.39 33.39 60.68 33.33 C 61.82 35.47 63.18 37.87 65.85 38.23 C 68.91 38.45 70.82 35.81 71.93 33.35 C 74.28 33.36 76.64 33.35 78.99 33.45 C 77.78 38.86 73.75 43.95 67.90 44.44 C 61.07 45.53 54.75 40.08 53.81 33.44 Z" />
</g>
<g id="#504d41fd">
<path fill="#504d41" opacity="1.00" d=" M 26.25 5.07 C 26.96 5.09 28.39 5.13 29.10 5.15 C 29.09 8.74 28.92 12.33 28.95 15.93 C 28.96 16.59 28.98 17.92 28.99 18.58 C 29.12 22.83 29.10 27.09 28.92 31.34 C 28.88 32.73 28.86 34.11 28.87 35.50 C 28.89 38.36 28.90 41.22 28.98 44.08 C 29.00 44.61 29.04 45.67 29.07 46.21 C 29.20 56.80 29.16 67.41 29.00 78.01 C 29.00 78.50 28.99 79.50 28.99 80.00 C 28.95 83.62 29.06 87.23 29.10 90.85 C 28.39 90.87 26.96 90.91 26.25 90.93 C 26.26 62.31 26.26 33.69 26.25 5.07 Z" />
</g>
<g id="#bf8d47ec">
<path fill="#bf8d47" opacity="0.93" d=" M 28.95 15.93 C 34.53 12.48 40.85 10.38 47.38 9.79 C 46.93 10.26 46.01 11.20 45.56 11.67 C 39.61 12.79 33.74 14.69 28.99 18.58 C 28.98 17.92 28.96 16.59 28.95 15.93 Z" />
<path fill="#bf8d47" opacity="0.93" d=" M 29.00 78.01 C 34.20 81.23 39.98 83.26 45.99 84.30 C 46.17 84.79 46.53 85.75 46.71 86.24 C 40.46 85.54 34.11 83.78 28.99 80.00 C 28.99 79.50 29.00 78.50 29.00 78.01 Z" />
</g>
<g id="#e2bd68ff">
<path fill="#e2bd68" opacity="1.00" d=" M 47.38 9.79 C 56.82 9.39 66.42 12.19 73.79 18.19 C 82.67 25.31 88.31 36.58 87.93 48.04 C 88.34 59.67 82.55 71.11 73.45 78.23 C 65.95 84.18 56.22 86.94 46.71 86.24 C 46.53 85.75 46.17 84.79 45.99 84.30 C 52.33 83.50 59.03 83.69 64.88 80.71 C 75.90 75.61 83.99 64.85 85.73 52.81 C 80.92 54.41 75.33 56.45 70.70 53.19 C 68.04 52.07 67.66 49.16 67.44 46.64 C 71.68 46.06 75.51 43.82 78.23 40.54 C 80.72 41.59 83.19 42.66 85.65 43.75 C 84.41 32.16 77.11 21.53 66.80 16.13 C 60.34 12.49 52.81 11.92 45.56 11.67 C 46.01 11.20 46.93 10.26 47.38 9.79 Z" />
<path fill="#e2bd68" opacity="1.00" d=" M 28.99 18.58 C 33.74 14.69 39.61 12.79 45.56 11.67 C 45.59 18.26 45.60 24.85 45.28 31.43 C 39.83 31.27 34.37 31.37 28.92 31.34 C 29.10 27.09 29.12 22.83 28.99 18.58 Z" />
<path fill="#e2bd68" opacity="1.00" d=" M 29.07 46.21 C 34.96 47.51 41.16 45.64 45.12 41.03 C 45.63 45.12 45.69 49.24 45.38 53.35 C 43.04 52.69 40.29 49.23 38.19 51.99 C 40.32 53.94 42.79 55.50 45.49 56.53 C 46.34 65.75 46.80 75.06 45.99 84.30 C 39.98 83.26 34.20 81.23 29.00 78.01 C 29.16 67.41 29.20 56.80 29.07 46.21 Z" />
</g>
<g id="#fedf76ff">
<path fill="#fedf76" opacity="1.00" d=" M 45.56 11.67 C 52.81 11.92 60.34 12.49 66.80 16.13 C 77.11 21.53 84.41 32.16 85.65 43.75 C 83.19 42.66 80.72 41.59 78.23 40.54 C 79.80 37.78 80.43 34.66 80.91 31.55 C 71.21 31.23 61.49 31.31 51.79 31.50 C 52.25 34.81 52.66 38.37 54.98 40.99 C 57.85 44.87 62.71 46.73 67.44 46.64 C 67.66 49.16 68.04 52.07 70.70 53.19 C 75.33 56.45 80.92 54.41 85.73 52.81 C 83.99 64.85 75.90 75.61 64.88 80.71 C 59.03 83.69 52.33 83.50 45.99 84.30 C 46.80 75.06 46.34 65.75 45.49 56.53 C 51.86 57.96 58.60 56.26 63.24 51.61 C 60.51 49.77 58.09 52.38 55.59 53.27 C 52.38 54.80 48.66 54.46 45.38 53.35 C 45.69 49.24 45.63 45.12 45.12 41.03 C 46.83 38.14 47.58 34.84 48.16 31.57 C 47.44 31.54 46.00 31.46 45.28 31.43 C 45.60 24.85 45.59 18.26 45.56 11.67 Z" />
</g>
<g id="#1b1b1bff">
<path fill="#1b1b1b" opacity="1.00" d=" M 28.92 31.34 C 34.37 31.37 39.83 31.27 45.28 31.43 C 46.00 31.46 47.44 31.54 48.16 31.57 C 47.58 34.84 46.83 38.14 45.12 41.03 C 41.16 45.64 34.96 47.51 29.07 46.21 C 29.04 45.67 29.00 44.61 28.98 44.08 C 32.61 44.54 36.61 44.93 39.83 42.81 C 43.38 40.92 44.96 37.06 46.11 33.44 C 43.87 33.39 41.62 33.37 39.38 33.36 C 37.95 35.32 36.66 38.02 33.90 38.21 C 31.80 38.43 30.31 36.72 28.87 35.50 C 28.86 34.11 28.88 32.73 28.92 31.34 Z" />
<path fill="#1b1b1b" opacity="1.00" d=" M 51.79 31.50 C 61.49 31.31 71.21 31.23 80.91 31.55 C 80.43 34.66 79.80 37.78 78.23 40.54 C 75.51 43.82 71.68 46.06 67.44 46.64 C 62.71 46.73 57.85 44.87 54.98 40.99 C 52.66 38.37 52.25 34.81 51.79 31.50 M 53.81 33.44 C 54.75 40.08 61.07 45.53 67.90 44.44 C 73.75 43.95 77.78 38.86 78.99 33.45 C 76.64 33.35 74.28 33.36 71.93 33.35 C 70.82 35.81 68.91 38.45 65.85 38.23 C 63.18 37.87 61.82 35.47 60.68 33.33 C 58.39 33.39 56.10 33.33 53.81 33.44 Z" />
</g>
<g id="#e1e1e1ff">
<path fill="#e1e1e1" opacity="1.00" d=" M 39.38 33.36 C 41.62 33.37 43.87 33.39 46.11 33.44 C 44.96 37.06 43.38 40.92 39.83 42.81 C 36.61 44.93 32.61 44.54 28.98 44.08 C 28.90 41.22 28.89 38.36 28.87 35.50 C 30.31 36.72 31.80 38.43 33.90 38.21 C 36.66 38.02 37.95 35.32 39.38 33.36 Z" />
</g>
<g id="#741a10ef">
<path fill="#741a10" opacity="0.94" d=" M 38.19 51.99 C 40.29 49.23 43.04 52.69 45.38 53.35 C 48.66 54.46 52.38 54.80 55.59 53.27 C 58.09 52.38 60.51 49.77 63.24 51.61 C 58.60 56.26 51.86 57.96 45.49 56.53 C 42.79 55.50 40.32 53.94 38.19 51.99 Z" />
</g>
</svg>
