<?xml version="1.0" encoding="UTF-8" ?>
<!DOCTYPE svg PUBLIC "-//W3C//DTD SVG 1.1//EN" "http://www.w3.org/Graphics/SVG/1.1/DTD/svg11.dtd">
<svg width="96pt" height="96pt" viewBox="0 0 96 96" version="1.1" xmlns="http://www.w3.org/2000/svg">
<g id="#edaa53fe">
<path fill="#edaa53" opacity="1.00" d=" M 34.92 7.09 C 46.67 3.32 60.04 4.83 70.54 11.37 C 83.06 18.92 91.39 33.28 90.96 47.99 C 91.23 56.26 88.75 64.50 84.25 71.42 C 76.55 83.50 62.44 91.43 48.02 90.96 C 33.15 91.37 18.42 82.91 11.15 69.97 C 11.69 69.70 12.77 69.16 13.31 68.89 C 21.80 84.04 40.88 91.97 57.65 87.60 C 70.02 84.63 80.87 75.59 85.63 63.74 C 90.02 53.41 89.92 41.15 84.85 31.08 C 84.60 30.55 84.34 30.02 84.09 29.49 C 80.37 21.51 73.53 15.23 65.68 11.40 C 53.95 5.78 39.45 6.08 28.15 12.64 C 21.43 16.34 15.60 21.93 12.36 28.96 C 12.42 29.47 12.53 30.48 12.58 30.99 L 12.61 31.26 C 12.04 31.53 10.88 32.09 10.30 32.37 C 9.62 31.98 8.95 31.58 8.28 31.18 C 13.47 20.00 23.03 10.77 34.92 7.09 Z" />
<path fill="#edaa53" opacity="1.00" d=" M 7.23 34.66 C 7.74 35.59 8.28 36.50 8.87 37.38 C 7.49 43.15 7.11 49.15 8.05 55.02 L 8.26 56.17 C 9.55 56.41 10.85 56.61 12.15 56.80 C 10.35 57.93 8.55 59.09 6.94 60.49 C 4.30 52.14 4.44 42.95 7.23 34.66 Z" />
<path fill="#edaa53" opacity="1.00" d=" M 8.62 65.09 C 10.12 64.91 11.61 64.69 13.11 64.47 C 12.19 66.08 11.18 67.69 10.86 69.56 L 10.50 69.75 C 9.86 68.21 9.27 66.63 8.62 65.09 Z" />
</g>
<g id="#fde777ff">
<path fill="#fde777" opacity="1.00" d=" M 28.15 12.64 C 39.45 6.08 53.95 5.78 65.68 11.40 C 73.53 15.23 80.37 21.51 84.09 29.49 C 81.19 28.31 78.15 27.57 75.05 27.18 C 75.12 26.38 75.25 24.79 75.32 23.99 C 64.48 23.07 53.64 22.15 42.77 21.69 C 43.12 25.31 43.54 29.12 45.76 32.14 C 47.72 35.28 51.05 37.07 54.23 38.73 C 50.18 43.68 47.11 49.46 45.87 55.77 C 45.55 57.07 45.22 58.37 44.89 59.68 C 43.26 57.85 41.47 56.18 39.50 54.73 C 40.81 54.02 43.56 53.56 41.41 51.90 C 39.31 49.70 36.42 48.60 33.58 47.69 C 34.94 47.27 36.29 46.83 37.64 46.39 C 35.29 42.24 33.47 37.82 32.34 33.19 C 31.61 33.94 30.88 34.68 30.16 35.43 C 30.04 35.09 29.81 34.42 29.70 34.08 C 29.13 30.90 30.69 26.38 27.81 24.17 C 26.91 23.49 25.97 22.89 25.03 22.30 C 26.06 20.45 26.75 18.45 27.40 16.46 C 27.76 15.90 28.12 15.35 28.48 14.80 C 28.40 14.26 28.23 13.18 28.15 12.64 M 48.27 12.82 C 49.64 16.10 51.73 19.58 55.50 20.36 C 57.50 20.65 60.91 21.85 61.47 19.00 C 60.40 16.27 56.30 17.70 54.40 15.77 C 53.18 14.44 52.21 12.89 51.02 11.54 C 50.33 11.86 48.96 12.50 48.27 12.82 Z" />
<path fill="#fde777" opacity="1.00" d=" M 68.90 36.39 C 72.05 34.16 73.37 28.48 78.00 29.32 C 80.36 29.56 82.60 30.39 84.85 31.08 C 89.92 41.15 90.02 53.41 85.63 63.74 C 82.15 63.49 78.78 64.47 75.48 65.43 C 76.64 63.61 77.25 61.21 75.68 59.42 C 72.37 54.98 67.06 52.43 61.67 51.57 C 60.94 49.28 60.51 46.82 59.10 44.82 C 58.03 42.72 55.38 43.73 53.52 43.44 C 54.70 42.01 55.93 40.64 57.16 39.26 C 59.67 39.14 62.18 38.98 64.67 38.62 C 63.91 41.76 62.90 44.87 62.59 48.10 C 62.75 49.73 64.95 49.85 65.99 50.75 C 67.73 46.15 68.93 41.33 68.90 36.39 M 74.19 38.19 C 71.98 41.97 69.88 45.89 68.51 50.07 C 69.25 51.59 70.40 52.00 71.95 51.29 C 74.15 47.66 76.20 43.86 77.64 39.86 C 78.54 37.89 74.90 36.22 74.19 38.19 M 81.28 43.07 C 78.79 45.96 76.21 48.84 74.15 52.06 C 74.17 52.53 74.20 53.45 74.21 53.92 C 76.14 56.09 78.19 52.79 79.46 51.47 C 81.38 48.53 85.40 46.24 84.65 42.26 C 83.56 42.54 82.07 42.06 81.28 43.07 M 77.13 57.87 C 77.57 58.62 78.45 60.12 78.89 60.87 C 81.85 59.38 84.55 57.42 86.84 55.00 C 85.93 54.06 85.03 53.12 84.12 52.18 C 81.88 54.19 79.55 56.09 77.13 57.87 Z" />
<path fill="#fde777" opacity="1.00" d=" M 51.26 69.57 C 45.47 61.55 48.67 51.04 53.52 43.44 C 53.53 46.81 55.09 49.83 55.88 53.03 C 56.14 56.33 55.08 59.60 55.47 62.90 C 56.46 65.52 58.84 67.26 60.85 69.07 C 57.65 69.16 54.46 69.39 51.26 69.57 Z" />
</g>
<g id="#98431af8">
<path fill="#98431a" opacity="0.97" d=" M 48.27 12.82 C 48.96 12.50 50.33 11.86 51.02 11.54 C 52.21 12.89 53.18 14.44 54.40 15.77 C 56.30 17.70 60.40 16.27 61.47 19.00 C 60.91 21.85 57.50 20.65 55.50 20.36 C 51.73 19.58 49.64 16.10 48.27 12.82 Z" />
<path fill="#98431a" opacity="0.97" d=" M 17.17 23.32 C 20.13 20.43 24.26 19.16 27.40 16.46 C 26.75 18.45 26.06 20.45 25.03 22.30 C 22.52 23.24 19.84 23.58 17.17 23.32 Z" />
<path fill="#98431a" opacity="0.97" d=" M 42.77 21.69 C 53.64 22.15 64.48 23.07 75.32 23.99 C 75.25 24.79 75.12 26.38 75.05 27.18 C 78.15 27.57 81.19 28.31 84.09 29.49 C 84.34 30.02 84.60 30.55 84.85 31.08 C 82.60 30.39 80.36 29.56 78.00 29.32 C 73.37 28.48 72.05 34.16 68.90 36.39 C 67.53 37.21 66.12 37.96 64.67 38.62 C 62.18 38.98 59.67 39.14 57.16 39.26 C 55.93 40.64 54.70 42.01 53.52 43.44 C 48.67 51.04 45.47 61.55 51.26 69.57 C 50.98 69.57 50.41 69.58 50.13 69.58 C 46.27 66.08 45.65 60.68 45.87 55.77 C 47.11 49.46 50.18 43.68 54.23 38.73 C 51.05 37.07 47.72 35.28 45.76 32.14 C 43.54 29.12 43.12 25.31 42.77 21.69 M 44.01 22.85 C 44.45 25.77 44.95 28.81 46.71 31.26 C 50.26 36.84 57.69 39.19 63.93 37.22 C 69.43 35.68 73.26 30.60 74.27 25.11 C 64.19 24.28 54.11 23.35 44.01 22.85 Z" />
<path fill="#98431a" opacity="0.97" d=" M 7.48 33.05 C 7.82 33.09 8.50 33.17 8.84 33.21 L 8.53 33.54 L 8.08 33.88 C 9.63 36.95 12.30 39.56 15.72 40.36 C 21.03 41.91 27.44 38.71 28.47 33.05 C 28.60 33.08 28.88 33.13 29.01 33.16 L 29.31 33.82 C 28.04 39.78 21.04 43.31 15.39 41.49 C 12.89 40.73 10.79 39.09 8.87 37.38 C 8.28 36.50 7.74 35.59 7.23 34.66 C 7.29 34.26 7.42 33.46 7.48 33.05 Z" />
<path fill="#98431a" opacity="0.97" d=" M 26.44 52.21 C 28.20 49.84 30.68 48.25 33.58 47.69 C 36.42 48.60 39.31 49.70 41.41 51.90 C 41.24 52.13 40.89 52.59 40.71 52.82 C 37.56 51.97 34.71 48.95 31.20 50.30 C 29.09 50.83 28.34 53.59 29.77 55.19 C 31.24 56.61 33.23 57.29 35.02 58.23 C 33.23 59.58 28.91 60.70 30.35 63.60 C 33.00 64.76 35.77 62.72 38.36 62.15 C 36.88 66.34 31.91 66.33 28.32 65.33 C 28.06 62.82 28.51 60.38 30.07 58.37 C 28.53 56.52 27.35 54.43 26.44 52.21 Z" />
</g>
<g id="#ffce74ff">
<path fill="#ffce74" opacity="1.00" d=" M 12.36 28.96 C 15.60 21.93 21.43 16.34 28.15 12.64 C 28.23 13.18 28.40 14.26 28.48 14.80 C 28.12 15.35 27.76 15.90 27.40 16.46 C 24.26 19.16 20.13 20.43 17.17 23.32 C 19.84 23.58 22.52 23.24 25.03 22.30 C 25.97 22.89 26.91 23.49 27.81 24.17 L 27.85 24.72 C 22.93 27.17 17.69 28.97 12.58 30.99 C 12.53 30.48 12.42 29.47 12.36 28.96 Z" />
<path fill="#ffce74" opacity="1.00" d=" M 30.16 35.43 C 30.88 34.68 31.61 33.94 32.34 33.19 C 33.47 37.82 35.29 42.24 37.64 46.39 C 36.29 46.83 34.94 47.27 33.58 47.69 C 30.68 48.25 28.20 49.84 26.44 52.21 C 25.56 51.80 24.69 51.40 23.82 50.99 C 23.37 51.21 22.48 51.64 22.03 51.86 C 20.43 50.99 18.82 50.13 17.21 49.27 C 17.30 49.97 17.48 51.37 17.57 52.06 C 15.28 51.15 12.97 50.26 10.63 49.46 C 12.07 50.77 13.54 52.04 15.01 53.31 C 12.68 53.85 10.36 54.42 8.05 55.02 C 7.11 49.15 7.49 43.15 8.87 37.38 C 10.79 39.09 12.89 40.73 15.39 41.49 C 21.04 43.31 28.04 39.78 29.31 33.82 L 29.70 34.08 C 29.81 34.42 30.04 35.09 30.16 35.43 Z" />
<path fill="#ffce74" opacity="1.00" d=" M 31.20 50.30 C 34.71 48.95 37.56 51.97 40.71 52.82 C 40.89 52.59 41.24 52.13 41.41 51.90 C 43.56 53.56 40.81 54.02 39.50 54.73 C 41.47 56.18 43.26 57.85 44.89 59.68 C 45.22 58.37 45.55 57.07 45.87 55.77 C 45.65 60.68 46.27 66.08 50.13 69.58 C 50.41 69.58 50.98 69.57 51.26 69.57 C 54.46 69.39 57.65 69.16 60.85 69.07 C 63.09 69.98 65.54 71.02 67.99 70.36 C 70.94 69.54 73.31 67.48 75.48 65.43 C 78.78 64.47 82.15 63.49 85.63 63.74 C 80.87 75.59 70.02 84.63 57.65 87.60 C 40.88 91.97 21.80 84.04 13.31 68.89 C 16.01 67.65 18.99 67.32 21.93 67.37 C 22.93 66.69 23.93 66.01 24.93 65.33 C 26.06 65.33 27.19 65.33 28.32 65.33 C 31.91 66.33 36.88 66.34 38.36 62.15 C 35.77 62.72 33.00 64.76 30.35 63.60 C 28.91 60.70 33.23 59.58 35.02 58.23 C 33.23 57.29 31.24 56.61 29.77 55.19 C 28.34 53.59 29.09 50.83 31.20 50.30 Z" />
<path fill="#ffce74" opacity="1.00" d=" M 7.70 61.19 C 9.17 60.99 10.63 60.79 12.09 60.57 C 10.71 61.58 9.32 62.58 7.98 63.65 L 7.27 61.27 L 7.70 61.19 Z" />
</g>
<g id="#ffffffff">
<path fill="#ffffff" opacity="1.00" d=" M 44.01 22.85 C 54.11 23.35 64.19 24.28 74.27 25.11 C 73.26 30.60 69.43 35.68 63.93 37.22 C 57.69 39.19 50.26 36.84 46.71 31.26 C 44.95 28.81 44.45 25.77 44.01 22.85 Z" />
<path fill="#ffffff" opacity="1.00" d=" M 9.62 32.82 C 15.90 30.14 22.25 27.62 28.59 25.06 C 28.90 27.72 29.74 30.51 29.01 33.16 C 28.88 33.13 28.60 33.08 28.47 33.05 C 27.44 38.71 21.03 41.91 15.72 40.36 C 12.30 39.56 9.63 36.95 8.08 33.88 L 8.53 33.54 L 8.84 33.21 L 9.62 32.82 Z" />
</g>
<g id="#ff5927ff">
<path fill="#ff5927" opacity="1.00" d=" M 64.67 38.62 C 66.12 37.96 67.53 37.21 68.90 36.39 C 68.93 41.33 67.73 46.15 65.99 50.75 C 64.95 49.85 62.75 49.73 62.59 48.10 C 62.90 44.87 63.91 41.76 64.67 38.62 Z" />
<path fill="#ff5927" opacity="1.00" d=" M 74.19 38.19 C 74.90 36.22 78.54 37.89 77.64 39.86 C 76.20 43.86 74.15 47.66 71.95 51.29 C 70.40 52.00 69.25 51.59 68.51 50.07 C 69.88 45.89 71.98 41.97 74.19 38.19 Z" />
<path fill="#ff5927" opacity="1.00" d=" M 81.28 43.07 C 82.07 42.06 83.56 42.54 84.65 42.26 C 85.40 46.24 81.38 48.53 79.46 51.47 C 78.19 52.79 76.14 56.09 74.21 53.92 C 74.20 53.45 74.17 52.53 74.15 52.06 C 76.21 48.84 78.79 45.96 81.28 43.07 Z" />
<path fill="#ff5927" opacity="1.00" d=" M 53.52 43.44 C 55.38 43.73 58.03 42.72 59.10 44.82 C 60.51 46.82 60.94 49.28 61.67 51.57 C 67.06 52.43 72.37 54.98 75.68 59.42 C 77.25 61.21 76.64 63.61 75.48 65.43 C 73.31 67.48 70.94 69.54 67.99 70.36 C 65.54 71.02 63.09 69.98 60.85 69.07 C 58.84 67.26 56.46 65.52 55.47 62.90 C 55.08 59.60 56.14 56.33 55.88 53.03 C 55.09 49.83 53.53 46.81 53.52 43.44 Z" />
<path fill="#ff5927" opacity="1.00" d=" M 77.13 57.87 C 79.55 56.09 81.88 54.19 84.12 52.18 C 85.03 53.12 85.93 54.06 86.84 55.00 C 84.55 57.42 81.85 59.38 78.89 60.87 C 78.45 60.12 77.57 58.62 77.13 57.87 Z" />
</g>
<g id="#4ca3e7ff">
<path fill="#4ca3e7" opacity="1.00" d=" M 10.63 49.46 C 12.97 50.26 15.28 51.15 17.57 52.06 C 17.48 51.37 17.30 49.97 17.21 49.27 C 18.82 50.13 20.43 50.99 22.03 51.86 C 22.48 51.64 23.37 51.21 23.82 50.99 C 24.69 51.40 25.56 51.80 26.44 52.21 C 27.35 54.43 28.53 56.52 30.07 58.37 C 28.51 60.38 28.06 62.82 28.32 65.33 C 27.19 65.33 26.06 65.33 24.93 65.33 C 23.93 66.01 22.93 66.69 21.93 67.37 C 18.99 67.32 16.01 67.65 13.31 68.89 C 12.77 69.16 11.69 69.70 11.15 69.97 L 10.86 69.56 C 11.18 67.69 12.19 66.08 13.11 64.47 C 11.61 64.69 10.12 64.91 8.62 65.09 C 8.04 65.14 6.88 65.23 6.30 65.28 C 6.72 64.87 7.56 64.06 7.98 63.65 C 9.32 62.58 10.71 61.58 12.09 60.57 C 10.63 60.79 9.17 60.99 7.70 61.19 L 6.02 61.36 L 6.94 60.49 C 8.55 59.09 10.35 57.93 12.15 56.80 C 10.85 56.61 9.55 56.41 8.26 56.17 L 8.05 55.02 C 10.36 54.42 12.68 53.85 15.01 53.31 C 13.54 52.04 12.07 50.77 10.63 49.46 Z" />
</g>
</svg>
