<?xml version="1.0" encoding="UTF-8" ?>
<!DOCTYPE svg PUBLIC "-//W3C//DTD SVG 1.1//EN" "http://www.w3.org/Graphics/SVG/1.1/DTD/svg11.dtd">
<svg width="96pt" height="96pt" viewBox="0 0 96 96" version="1.1" xmlns="http://www.w3.org/2000/svg">
<g id="#e4a651f2">
<path fill="#e4a651" opacity="0.95" d=" M 44.29 5.19 C 54.62 4.24 65.25 7.22 73.59 13.39 C 84.44 21.28 91.32 34.52 91.01 48.00 C 91.31 59.33 86.54 70.57 78.53 78.53 C 70.57 86.54 59.34 91.31 48.00 91.01 C 34.05 91.35 20.35 83.93 12.57 72.42 C 5.71 62.55 3.36 49.74 6.20 38.07 C 10.15 20.44 26.26 6.51 44.29 5.19 M 35.30 9.14 L 35.18 10.00 C 32.46 10.05 29.84 11.04 27.77 12.80 C 17.69 17.98 10.72 28.29 8.19 39.18 C 5.23 52.29 9.16 66.79 18.59 76.40 C 25.90 84.14 36.38 88.55 46.96 89.04 C 58.05 89.31 69.13 84.82 76.93 76.94 C 79.48 74.34 82.21 71.64 83.11 67.99 C 85.46 66.06 86.05 62.84 87.14 60.15 C 90.11 50.09 89.20 38.96 84.41 29.62 C 80.16 20.91 72.45 14.18 63.62 10.39 C 54.70 6.61 44.55 6.63 35.30 9.14 Z" />
</g>
<g id="#fded78ff">
<path fill="#fded78" opacity="1.00" d=" M 35.30 9.14 C 44.55 6.63 54.70 6.61 63.62 10.39 C 72.45 14.18 80.16 20.91 84.41 29.62 C 89.20 38.96 90.11 50.09 87.14 60.15 C 80.92 61.95 74.49 63.60 67.96 62.96 C 63.72 62.50 59.48 62.01 55.23 61.62 C 53.41 58.82 51.81 55.85 49.66 53.27 C 47.74 52.59 47.17 55.07 46.15 56.18 C 44.28 52.36 41.17 49.19 39.93 45.07 C 39.88 44.38 39.78 43.00 39.73 42.31 C 37.83 42.32 35.93 42.27 34.04 42.30 C 35.03 41.19 36.03 40.07 37.04 38.97 C 35.70 33.91 33.93 28.93 33.28 23.72 C 33.03 19.07 34.75 14.60 35.18 10.00 L 35.30 9.14 M 53.24 44.89 C 56.65 45.74 60.22 45.23 63.70 45.23 C 63.76 47.47 63.17 50.25 65.28 51.78 C 66.88 53.24 69.21 52.57 70.99 51.85 C 72.45 49.93 72.53 47.59 72.17 45.30 C 73.58 45.21 74.99 45.14 76.39 45.09 C 76.30 44.41 76.11 43.04 76.02 42.35 C 69.08 42.50 62.13 42.31 55.19 42.42 C 53.64 42.25 52.54 43.36 53.24 44.89 M 78.45 46.51 C 75.93 47.78 75.25 51.14 76.44 53.56 C 77.62 55.37 79.91 55.86 81.93 55.73 C 85.46 55.88 88.34 51.04 85.73 48.28 C 84.14 45.84 80.96 46.05 78.45 46.51 Z" />
</g>
<g id="#fedb76ff">
<path fill="#fedb76" opacity="1.00" d=" M 27.77 12.80 C 29.84 11.04 32.46 10.05 35.18 10.00 C 34.75 14.60 33.03 19.07 33.28 23.72 C 33.93 28.93 35.70 33.91 37.04 38.97 C 36.03 40.07 35.03 41.19 34.04 42.30 C 28.98 42.33 23.92 42.36 18.86 42.08 C 22.22 39.34 22.10 34.91 22.11 30.98 C 22.16 24.51 24.65 18.36 27.77 12.80 Z" />
</g>
<g id="#ffca73ff">
<path fill="#ffca73" opacity="1.00" d=" M 8.19 39.18 C 10.72 28.29 17.69 17.98 27.77 12.80 C 24.65 18.36 22.16 24.51 22.11 30.98 C 22.10 34.91 22.22 39.34 18.86 42.08 C 17.22 42.42 15.79 44.24 17.91 45.10 C 19.43 45.65 20.95 46.21 22.50 46.67 C 24.05 53.93 27.55 60.89 33.38 65.62 C 39.13 70.10 45.75 73.94 53.10 74.85 C 63.58 76.18 73.99 72.98 83.11 67.99 C 82.21 71.64 79.48 74.34 76.93 76.94 C 69.13 84.82 58.05 89.31 46.96 89.04 C 36.38 88.55 25.90 84.14 18.59 76.40 C 9.16 66.79 5.23 52.29 8.19 39.18 M 13.47 47.51 C 10.11 49.05 10.52 54.94 14.21 55.80 C 17.45 57.15 22.56 55.19 21.74 51.07 C 21.82 46.98 16.45 46.05 13.47 47.51 Z" />
</g>
<g id="#1b1b1dff">
<path fill="#1b1b1d" opacity="1.00" d=" M 17.91 45.10 C 15.79 44.24 17.22 42.42 18.86 42.08 C 23.92 42.36 28.98 42.33 34.04 42.30 C 35.93 42.27 37.83 42.32 39.73 42.31 C 39.78 43.00 39.88 44.38 39.93 45.07 C 38.72 45.12 37.52 45.20 36.32 45.29 C 35.20 45.58 34.09 45.89 32.99 46.20 C 33.29 48.32 33.65 50.44 34.08 52.55 C 32.01 52.29 29.37 52.68 28.06 50.65 C 27.38 48.93 27.56 47.04 27.45 45.24 C 24.27 45.25 21.08 45.32 17.91 45.10 Z" />
<path fill="#1b1b1d" opacity="1.00" d=" M 53.24 44.89 C 52.54 43.36 53.64 42.25 55.19 42.42 C 62.13 42.31 69.08 42.50 76.02 42.35 C 76.11 43.04 76.30 44.41 76.39 45.09 C 74.99 45.14 73.58 45.21 72.17 45.30 C 71.64 45.52 70.57 45.96 70.04 46.18 C 68.20 47.93 70.24 50.13 70.99 51.85 C 69.21 52.57 66.88 53.24 65.28 51.78 C 63.17 50.25 63.76 47.47 63.70 45.23 C 60.22 45.23 56.65 45.74 53.24 44.89 Z" />
<path fill="#1b1b1d" opacity="1.00" d=" M 46.15 56.18 C 47.17 55.07 47.74 52.59 49.66 53.27 C 51.81 55.85 53.41 58.82 55.23 61.62 C 54.92 61.98 54.31 62.70 54.00 63.06 C 52.32 60.72 50.67 58.36 48.96 56.04 C 47.43 58.20 45.94 60.38 44.56 62.64 C 44.12 62.46 43.24 62.10 42.80 61.92 C 43.87 59.98 44.96 58.05 46.15 56.18 Z" />
</g>
<g id="#fed775ff">
<path fill="#fed775" opacity="1.00" d=" M 17.91 45.10 C 21.08 45.32 24.27 45.25 27.45 45.24 C 27.56 47.04 27.38 48.93 28.06 50.65 C 29.37 52.68 32.01 52.29 34.08 52.55 C 35.88 50.53 36.25 47.89 36.32 45.29 C 37.52 45.20 38.72 45.12 39.93 45.07 C 41.17 49.19 44.28 52.36 46.15 56.18 C 44.96 58.05 43.87 59.98 42.80 61.92 C 43.24 62.10 44.12 62.46 44.56 62.64 C 45.94 60.38 47.43 58.20 48.96 56.04 C 50.67 58.36 52.32 60.72 54.00 63.06 C 54.31 62.70 54.92 61.98 55.23 61.62 C 59.48 62.01 63.72 62.50 67.96 62.96 C 74.49 63.60 80.92 61.95 87.14 60.15 C 86.05 62.84 85.46 66.06 83.11 67.99 C 73.99 72.98 63.58 76.18 53.10 74.85 C 45.75 73.94 39.13 70.10 33.38 65.62 C 27.55 60.89 24.05 53.93 22.50 46.67 C 20.95 46.21 19.43 45.65 17.91 45.10 Z" />
</g>
<g id="#7e7b71ff">
<path fill="#7e7b71" opacity="1.00" d=" M 32.99 46.20 C 34.09 45.89 35.20 45.58 36.32 45.29 C 36.25 47.89 35.88 50.53 34.08 52.55 C 33.65 50.44 33.29 48.32 32.99 46.20 Z" />
</g>
<g id="#737372ff">
<path fill="#737372" opacity="1.00" d=" M 70.04 46.18 C 70.57 45.96 71.64 45.52 72.17 45.30 C 72.53 47.59 72.45 49.93 70.99 51.85 C 70.24 50.13 68.20 47.93 70.04 46.18 Z" />
</g>
<g id="#e87d34ff">
<path fill="#e87d34" opacity="1.00" d=" M 78.45 46.51 C 80.96 46.05 84.14 45.84 85.73 48.28 C 88.34 51.04 85.46 55.88 81.93 55.73 C 79.91 55.86 77.62 55.37 76.44 53.56 C 75.25 51.14 75.93 47.78 78.45 46.51 Z" />
</g>
<g id="#e97335ff">
<path fill="#e97335" opacity="1.00" d=" M 13.47 47.51 C 16.45 46.05 21.82 46.98 21.74 51.07 C 22.56 55.19 17.45 57.15 14.21 55.80 C 10.52 54.94 10.11 49.05 13.47 47.51 Z" />
</g>
</svg>
