<?xml version="1.0" encoding="UTF-8" ?>
<!DOCTYPE svg PUBLIC "-//W3C//DTD SVG 1.1//EN" "http://www.w3.org/Graphics/SVG/1.1/DTD/svg11.dtd">
<svg width="96pt" height="96pt" viewBox="0 0 96 96" version="1.1" xmlns="http://www.w3.org/2000/svg">
<g id="#f0ac53ff">
<path fill="#f0ac53" opacity="1.00" d=" M 37.45 6.76 C 45.57 4.82 54.30 5.05 62.18 7.93 C 74.14 12.05 83.97 21.89 88.08 33.86 C 91.95 44.62 91.17 56.96 85.95 67.14 C 80.05 79.07 68.18 87.87 55.02 89.90 C 45.48 91.57 35.40 89.78 26.99 84.97 C 15.90 78.74 7.93 67.27 6.01 54.68 C 4.61 45.70 6.06 36.23 10.40 28.21 C 15.82 17.62 25.99 9.76 37.45 6.76 M 35.87 9.76 C 31.77 11.07 27.40 12.86 24.37 15.87 C 10.18 25.29 4.32 44.96 10.04 60.89 C 14.15 73.58 25.19 83.77 38.16 86.90 C 51.77 90.45 67.18 86.18 76.80 75.86 C 80.32 72.15 84.22 67.89 84.97 62.68 C 87.84 58.10 87.97 52.23 88.12 46.94 C 87.84 34.40 81.29 22.20 70.94 15.12 C 60.96 7.95 47.52 6.00 35.87 9.76 Z" />
</g>
<g id="#fded78ff">
<path fill="#fded78" opacity="1.00" d=" M 35.87 9.76 C 47.52 6.00 60.96 7.95 70.94 15.12 C 81.29 22.20 87.84 34.40 88.12 46.94 C 87.97 52.23 87.84 58.10 84.97 62.68 C 80.67 63.43 76.67 65.52 72.24 65.61 C 66.43 65.88 60.12 67.04 54.72 64.27 C 54.27 63.23 54.76 62.06 54.86 60.99 C 56.09 59.21 56.44 57.13 56.09 55.02 C 58.90 56.05 62.54 56.06 64.59 53.54 C 67.17 51.33 67.34 47.44 66.47 44.39 C 65.92 43.21 65.48 40.58 63.53 41.63 C 63.02 43.56 64.82 45.10 64.81 47.00 C 65.56 50.71 61.80 54.68 58.05 53.40 C 56.65 52.55 55.31 52.60 54.02 53.56 C 53.88 50.71 51.13 49.46 49.23 47.84 C 40.39 38.75 35.02 25.45 37.64 12.75 C 38.02 11.42 36.52 10.67 35.87 9.76 M 45.80 16.51 C 44.87 21.23 43.88 25.96 43.31 30.73 C 43.62 30.76 44.23 30.81 44.54 30.83 C 45.04 26.87 45.99 22.98 46.64 19.04 C 46.91 18.35 47.14 16.21 45.80 16.51 M 47.19 35.23 C 47.16 35.70 47.11 36.63 47.08 37.10 L 48.16 37.41 C 52.56 33.94 57.24 30.81 61.47 27.13 C 62.47 28.29 63.15 30.21 64.90 30.28 C 66.92 30.87 68.51 28.97 69.23 27.32 C 69.06 25.74 68.36 23.98 66.83 23.25 C 68.16 22.50 71.16 20.07 67.92 19.67 C 60.94 24.77 54.13 30.09 47.19 35.23 M 80.15 33.25 C 76.91 33.06 73.60 36.03 73.23 39.16 C 75.83 44.84 84.61 39.86 83.78 34.78 C 83.04 33.35 81.59 33.12 80.15 33.25 Z" />
</g>
<g id="#fedf76ff">
<path fill="#fedf76" opacity="1.00" d=" M 24.37 15.87 C 27.40 12.86 31.77 11.07 35.87 9.76 C 36.52 10.67 38.02 11.42 37.64 12.75 C 35.02 25.45 40.39 38.75 49.23 47.84 C 51.13 49.46 53.88 50.71 54.02 53.56 C 53.65 56.08 54.44 59.18 52.02 60.91 C 48.94 63.05 45.32 60.76 42.52 59.23 C 43.31 54.51 36.77 55.10 36.14 51.20 C 38.20 52.24 40.55 51.40 41.69 49.43 C 41.80 49.14 42.01 48.55 42.12 48.26 C 41.47 46.86 40.62 45.57 39.87 44.23 C 41.04 43.37 41.08 42.44 39.99 41.46 C 37.17 43.35 34.65 45.64 32.07 47.83 C 32.09 44.14 30.06 41.05 26.60 39.67 C 29.00 39.14 31.94 39.97 33.80 38.00 C 29.43 36.82 24.63 38.86 20.08 38.88 C 19.18 35.22 20.87 31.66 21.18 28.03 C 21.63 23.79 25.05 20.23 24.37 15.87 Z" />
</g>
<g id="#ffcc73ff">
<path fill="#ffcc73" opacity="1.00" d=" M 10.04 60.89 C 4.32 44.96 10.18 25.29 24.37 15.87 C 25.05 20.23 21.63 23.79 21.18 28.03 C 20.87 31.66 19.18 35.22 20.08 38.88 C 18.52 39.42 15.95 38.55 15.61 40.77 C 19.29 40.73 22.94 40.08 26.60 39.67 C 30.06 41.05 32.09 44.14 32.07 47.83 C 28.18 51.05 24.31 54.29 20.43 57.51 C 19.39 58.08 18.06 60.33 20.08 60.70 C 24.94 56.98 29.59 52.99 34.19 48.96 C 35.03 49.53 35.55 50.40 36.14 51.20 C 36.77 55.10 43.31 54.51 42.52 59.23 C 42.32 59.65 41.92 60.48 41.72 60.90 C 45.30 63.99 51.74 65.47 54.86 60.99 C 54.76 62.06 54.27 63.23 54.72 64.27 C 60.12 67.04 66.43 65.88 72.24 65.61 C 76.67 65.52 80.67 63.43 84.97 62.68 C 84.22 67.89 80.32 72.15 76.80 75.86 C 67.18 86.18 51.77 90.45 38.16 86.90 C 25.19 83.77 14.15 73.58 10.04 60.89 M 24.76 77.26 C 27.52 78.00 30.94 78.13 33.10 75.92 C 35.16 74.70 34.96 71.68 34.29 69.75 C 32.68 69.01 30.79 69.34 29.07 69.44 C 25.54 69.92 23.30 73.98 24.76 77.26 Z" />
</g>
<g id="#1b1b1dff">
<path fill="#1b1b1d" opacity="1.00" d=" M 45.80 16.51 C 47.14 16.21 46.91 18.35 46.64 19.04 C 45.99 22.98 45.04 26.87 44.54 30.83 C 44.23 30.81 43.62 30.76 43.31 30.73 C 43.88 25.96 44.87 21.23 45.80 16.51 Z" />
<path fill="#1b1b1d" opacity="1.00" d=" M 47.19 35.23 C 54.13 30.09 60.94 24.77 67.92 19.67 C 71.16 20.07 68.16 22.50 66.83 23.25 C 65.13 24.08 64.33 26.34 65.91 27.73 C 66.74 27.62 68.40 27.42 69.23 27.32 C 68.51 28.97 66.92 30.87 64.90 30.28 C 63.15 30.21 62.47 28.29 61.47 27.13 C 57.24 30.81 52.56 33.94 48.16 37.41 L 47.08 37.10 C 47.11 36.63 47.16 35.70 47.19 35.23 Z" />
<path fill="#1b1b1d" opacity="1.00" d=" M 20.08 38.88 C 24.63 38.86 29.43 36.82 33.80 38.00 C 31.94 39.97 29.00 39.14 26.60 39.67 C 22.94 40.08 19.29 40.73 15.61 40.77 C 15.95 38.55 18.52 39.42 20.08 38.88 Z" />
</g>
<g id="#82827dff">
<path fill="#82827d" opacity="1.00" d=" M 65.91 27.73 C 64.33 26.34 65.13 24.08 66.83 23.25 C 68.36 23.98 69.06 25.74 69.23 27.32 C 68.40 27.42 66.74 27.62 65.91 27.73 Z" />
</g>
<g id="#ec973dff">
<path fill="#ec973d" opacity="1.00" d=" M 80.15 33.25 C 81.59 33.12 83.04 33.35 83.78 34.78 C 84.61 39.86 75.83 44.84 73.23 39.16 C 73.60 36.03 76.91 33.06 80.15 33.25 Z" />
</g>
<g id="#1b1b1bff">
<path fill="#1b1b1b" opacity="1.00" d=" M 32.07 47.83 C 34.65 45.64 37.17 43.35 39.99 41.46 C 41.08 42.44 41.04 43.37 39.87 44.23 C 38.82 45.20 36.99 46.24 37.66 47.94 C 38.42 49.34 40.40 48.88 41.69 49.43 C 40.55 51.40 38.20 52.24 36.14 51.20 C 35.55 50.40 35.03 49.53 34.19 48.96 C 29.59 52.99 24.94 56.98 20.08 60.70 C 18.06 60.33 19.39 58.08 20.43 57.51 C 24.31 54.29 28.18 51.05 32.07 47.83 Z" />
</g>
<g id="#923c21ff">
<path fill="#923c21" opacity="1.00" d=" M 63.53 41.63 C 65.48 40.58 65.92 43.21 66.47 44.39 C 67.34 47.44 67.17 51.33 64.59 53.54 C 62.54 56.06 58.90 56.05 56.09 55.02 C 56.44 57.13 56.09 59.21 54.86 60.99 C 51.74 65.47 45.30 63.99 41.72 60.90 C 41.92 60.48 42.32 59.65 42.52 59.23 C 45.32 60.76 48.94 63.05 52.02 60.91 C 54.44 59.18 53.65 56.08 54.02 53.56 C 55.31 52.60 56.65 52.55 58.05 53.40 C 61.80 54.68 65.56 50.71 64.81 47.00 C 64.82 45.10 63.02 43.56 63.53 41.63 Z" />
</g>
<g id="#7a776eff">
<path fill="#7a776e" opacity="1.00" d=" M 37.66 47.94 C 36.99 46.24 38.82 45.20 39.87 44.23 C 40.62 45.57 41.47 46.86 42.12 48.26 C 42.01 48.55 41.80 49.14 41.69 49.43 C 40.40 48.88 38.42 49.34 37.66 47.94 Z" />
</g>
<g id="#ed8942ff">
<path fill="#ed8942" opacity="1.00" d=" M 24.76 77.26 C 23.30 73.98 25.54 69.92 29.07 69.44 C 30.79 69.34 32.68 69.01 34.29 69.75 C 34.96 71.68 35.16 74.70 33.10 75.92 C 30.94 78.13 27.52 78.00 24.76 77.26 Z" />
</g>
</svg>
