<?xml version="1.0" encoding="UTF-8" ?>
<!DOCTYPE svg PUBLIC "-//W3C//DTD SVG 1.1//EN" "http://www.w3.org/Graphics/SVG/1.1/DTD/svg11.dtd">
<svg width="96pt" height="96pt" viewBox="0 0 96 96" version="1.1" xmlns="http://www.w3.org/2000/svg">
<path fill="#359e69" opacity="1.00" d=" M 77.32 5.34 C 80.42 4.32 83.23 7.81 81.68 10.66 C 78.97 16.16 75.86 21.49 72.74 26.77 C 72.01 28.96 69.54 27.87 68.32 26.76 C 69.48 21.25 72.00 16.14 73.61 10.75 C 74.46 8.79 74.88 5.92 77.32 5.34 Z" />
<path fill="#020403" opacity="0.92" d=" M 14.23 5.95 C 19.66 11.58 21.23 20.01 27.85 24.58 C 26.65 25.44 25.45 26.30 24.25 27.17 C 23.06 26.08 22.47 24.56 22.01 23.05 C 20.19 17.03 16.78 11.68 14.23 5.95 M 24.16 23.37 C 22.58 26.32 27.50 23.56 24.16 23.37 Z" />
<path fill="#3a825d" opacity="1.00" d=" M 27.85 24.58 C 31.64 21.85 36.57 21.28 41.10 21.78 C 48.34 22.69 54.36 28.01 57.53 34.38 C 59.78 38.66 60.01 43.57 61.26 48.16 C 66.06 48.98 71.86 42.19 75.76 47.35 C 76.43 53.46 74.47 59.44 73.32 65.37 C 71.89 71.47 71.28 77.74 69.69 83.80 C 69.11 85.99 67.70 88.91 65.00 88.65 C 63.17 88.79 61.92 87.20 61.36 85.65 C 58.62 77.22 57.74 68.18 55.02 59.81 C 49.76 61.09 44.42 62.42 38.95 61.97 C 32.53 61.91 26.71 58.21 22.54 53.55 C 16.07 46.15 17.10 33.72 24.25 27.17 C 25.45 26.30 26.65 25.44 27.85 24.58 M 23.95 29.11 C 23.97 29.45 24.01 30.13 24.03 30.48 C 22.90 31.56 22.21 32.99 21.87 34.50 C 18.63 38.17 19.57 43.53 21.09 47.75 C 22.93 53.53 28.37 57.25 33.71 59.50 C 42.52 62.09 51.52 59.17 60.10 57.12 C 59.91 57.42 59.53 58.02 59.33 58.32 C 61.56 59.36 63.66 60.63 65.45 62.32 C 65.84 60.38 66.18 58.42 66.32 56.44 C 64.72 56.40 63.11 56.47 61.52 56.63 C 63.77 55.60 65.92 54.17 68.47 54.04 C 67.69 58.85 67.04 63.73 65.61 68.40 C 65.39 68.46 64.94 68.57 64.71 68.62 C 63.70 66.08 63.12 63.38 61.92 60.92 C 60.52 60.72 59.11 60.63 57.70 60.67 C 57.91 67.06 60.23 73.09 61.35 79.32 C 62.12 82.39 62.26 86.58 66.02 87.46 C 66.28 86.81 66.81 85.53 67.07 84.89 C 67.05 84.45 67.03 83.59 67.02 83.15 C 67.26 82.59 67.76 81.48 68.01 80.92 C 68.79 70.95 71.78 61.34 73.38 51.49 L 74.18 52.65 C 74.11 50.64 74.95 48.03 72.93 46.69 C 68.37 47.02 64.37 49.50 60.11 50.92 C 52.82 53.47 45.04 55.63 37.26 54.47 C 33.39 53.93 29.82 51.66 27.65 48.41 C 26.42 46.23 25.70 43.81 24.56 41.59 C 25.25 41.60 26.61 41.63 27.30 41.65 L 26.87 42.24 C 27.44 47.63 32.10 51.86 37.29 52.85 C 43.05 53.92 49.06 53.06 54.56 51.17 C 51.00 46.39 51.48 39.87 47.78 35.20 C 44.69 31.54 39.54 28.68 34.73 30.60 C 33.54 31.19 31.40 31.36 31.18 32.92 C 29.82 32.95 29.15 33.83 29.17 35.57 C 27.67 34.83 26.11 37.45 27.21 38.60 C 25.63 38.55 24.56 37.42 24.77 35.82 C 28.62 34.79 30.23 30.34 34.06 29.26 C 39.17 27.37 44.86 29.78 48.48 33.50 C 52.14 37.40 52.42 42.97 54.13 47.78 C 54.49 49.62 56.74 49.20 58.10 49.35 C 59.91 50.43 59.94 45.67 58.28 46.36 C 57.89 43.98 57.50 41.60 56.93 39.26 C 55.74 29.46 45.66 22.13 36.01 22.73 C 31.50 23.53 26.92 25.53 23.95 29.11 Z" />
<path fill="#0a1711" opacity="0.44" d=" M 24.16 23.37 C 27.50 23.56 22.58 26.32 24.16 23.37 Z" />
<path fill="#359e69" opacity="1.00" d=" M 23.95 29.11 C 26.92 25.53 31.50 23.53 36.01 22.73 C 45.66 22.13 55.74 29.46 56.93 39.26 C 56.48 38.94 55.58 38.29 55.13 37.97 C 55.64 40.74 56.09 43.56 57.11 46.21 C 57.40 46.25 57.99 46.32 58.28 46.36 C 59.94 45.67 59.91 50.43 58.10 49.35 C 56.74 49.20 54.49 49.62 54.13 47.78 C 52.42 42.97 52.14 37.40 48.48 33.50 C 44.86 29.78 39.17 27.37 34.06 29.26 C 30.23 30.34 28.62 34.79 24.77 35.82 C 24.50 34.04 24.27 32.26 24.03 30.48 C 24.01 30.13 23.97 29.45 23.95 29.11 Z" />
<path fill="#359e69" opacity="1.00" d=" M 67.26 29.16 C 68.57 28.60 69.90 29.44 70.80 30.33 C 71.02 31.97 69.99 33.98 68.11 33.81 C 65.53 34.13 64.69 29.61 67.26 29.16 Z" />
<path fill="#020403" opacity="0.92" d=" M 21.87 34.50 C 22.21 32.99 22.90 31.56 24.03 30.48 C 24.27 32.26 24.50 34.04 24.77 35.82 C 24.56 37.42 25.63 38.55 27.21 38.60 C 28.84 39.02 28.86 36.62 29.17 35.57 C 29.15 33.83 29.82 32.95 31.18 32.92 C 31.00 36.25 29.64 39.29 27.30 41.65 C 26.61 41.63 25.25 41.60 24.56 41.59 C 23.40 39.33 22.52 36.95 21.87 34.50 Z" />
<path fill="#020403" opacity="0.92" d=" M 36.37 36.62 C 33.27 35.35 35.16 30.83 38.17 31.19 C 44.12 31.95 50.13 38.45 46.74 44.53 L 46.21 44.39 C 45.26 43.97 44.36 44.07 43.53 44.69 C 41.75 41.48 39.80 38.29 36.37 36.62 M 38.15 32.14 C 36.82 31.99 34.66 33.54 35.60 34.95 C 37.92 36.84 41.08 37.84 42.32 40.82 C 42.93 42.86 45.16 42.82 46.79 42.12 C 47.50 37.11 42.85 32.69 38.15 32.14 Z" />
<path fill="#ffffff" opacity="1.00" d=" M 38.15 32.14 C 42.85 32.69 47.50 37.11 46.79 42.12 C 45.16 42.82 42.93 42.86 42.32 40.82 C 41.08 37.84 37.92 36.84 35.60 34.95 C 34.66 33.54 36.82 31.99 38.15 32.14 M 41.50 36.01 C 41.10 37.42 41.58 37.88 42.95 37.40 C 43.37 35.96 42.89 35.50 41.50 36.01 Z" />
<path fill="#359e69" opacity="1.00" d=" M 21.09 47.75 C 19.57 43.53 18.63 38.17 21.87 34.50 C 22.52 36.95 23.40 39.33 24.56 41.59 C 25.70 43.81 26.42 46.23 27.65 48.41 C 29.82 51.66 33.39 53.93 37.26 54.47 C 45.04 55.63 52.82 53.47 60.11 50.92 C 64.37 49.50 68.37 47.02 72.93 46.69 C 74.95 48.03 74.11 50.64 74.18 52.65 L 73.38 51.49 C 73.14 51.08 72.64 50.28 72.40 49.87 C 70.02 60.48 68.28 71.22 66.11 81.86 C 66.59 81.63 67.53 81.15 68.01 80.92 C 67.76 81.48 67.26 82.59 67.02 83.15 C 65.63 83.81 65.65 84.39 67.07 84.89 C 66.81 85.53 66.28 86.81 66.02 87.46 C 62.26 86.58 62.12 82.39 61.35 79.32 C 60.23 73.09 57.91 67.06 57.70 60.67 C 59.11 60.63 60.52 60.72 61.92 60.92 C 63.12 63.38 63.70 66.08 64.71 68.62 C 64.94 68.57 65.39 68.46 65.61 68.40 C 67.04 63.73 67.69 58.85 68.47 54.04 C 65.92 54.17 63.77 55.60 61.52 56.63 C 61.17 56.76 60.46 57.00 60.10 57.12 C 51.52 59.17 42.52 62.09 33.71 59.50 C 28.37 57.25 22.93 53.53 21.09 47.75 Z" />
<path fill="#0a1711" opacity="0.44" d=" M 27.21 38.60 C 26.11 37.45 27.67 34.83 29.17 35.57 C 28.86 36.62 28.84 39.02 27.21 38.60 Z" />
<path fill="#020403" opacity="0.92" d=" M 41.50 36.01 C 42.89 35.50 43.37 35.96 42.95 37.40 C 41.58 37.88 41.10 37.42 41.50 36.01 Z" />
<path fill="#ffffff" opacity="1.00" d=" M 55.13 37.97 C 55.58 38.29 56.48 38.94 56.93 39.26 C 57.50 41.60 57.89 43.98 58.28 46.36 C 57.99 46.32 57.40 46.25 57.11 46.21 C 56.09 43.56 55.64 40.74 55.13 37.97 Z" />
<path fill="#a0def7" opacity="1.00" d=" M 43.53 44.69 C 44.36 44.07 45.26 43.97 46.21 44.39 C 45.46 46.00 44.57 46.10 43.53 44.69 Z" />
<path fill="#ffffff" opacity="1.00" d=" M 66.11 81.86 C 68.28 71.22 70.02 60.48 72.40 49.87 C 72.64 50.28 73.14 51.08 73.38 51.49 C 71.78 61.34 68.79 70.95 68.01 80.92 C 67.53 81.15 66.59 81.63 66.11 81.86 Z" />
<path fill="#a6d3bc" opacity="1.00" d=" M 67.07 84.89 C 65.65 84.39 65.63 83.81 67.02 83.15 C 67.03 83.59 67.05 84.45 67.07 84.89 Z" />
</svg>
