<?xml version="1.0" encoding="UTF-8" ?>
<!DOCTYPE svg PUBLIC "-//W3C//DTD SVG 1.1//EN" "http://www.w3.org/Graphics/SVG/1.1/DTD/svg11.dtd">
<svg width="96pt" height="96pt" viewBox="0 0 96 96" version="1.1" xmlns="http://www.w3.org/2000/svg">
<g id="#d73002ff">
<path fill="#d73002" opacity="1.00" d=" M 34.77 7.17 C 47.03 3.12 61.07 4.96 71.79 12.17 C 84.57 20.43 92.26 35.85 90.90 51.04 C 90.16 72.56 70.56 91.30 49.01 90.97 C 29.40 92.03 10.68 77.45 6.30 58.43 C 1.77 41.08 9.49 21.37 24.80 11.97 C 25.43 12.28 26.68 12.92 27.31 13.23 C 25.54 14.52 23.85 15.91 22.09 17.21 C 14.60 21.85 10.48 30.21 8.25 38.44 C 3.28 57.51 14.26 79.46 32.95 86.20 C 50.35 93.68 73.87 86.66 82.44 69.31 C 95.08 50.27 87.17 22.14 66.73 12.19 C 57.60 7.13 46.76 7.33 36.74 8.89 C 36.25 8.46 35.26 7.60 34.77 7.17 Z" />
</g>
<g id="#a43f0ffe">
<path fill="#a43f0f" opacity="1.00" d=" M 24.83 8.85 C 28.12 8.18 31.47 7.83 34.77 7.17 C 35.26 7.60 36.25 8.46 36.74 8.89 C 39.64 11.17 41.79 14.26 42.77 17.84 C 37.55 16.42 33.09 10.21 27.31 13.23 C 26.68 12.92 25.43 12.28 24.80 11.97 C 24.81 11.19 24.82 9.63 24.83 8.85 Z" />
<path fill="#a43f0f" opacity="1.00" d=" M 54.54 16.95 C 60.41 13.37 67.87 13.08 73.10 18.01 C 73.10 18.91 73.11 20.71 73.12 21.60 C 67.61 19.32 61.64 18.31 55.87 20.30 C 55.42 19.18 54.98 18.07 54.54 16.95 Z" />
</g>
<g id="#f6784bff">
<path fill="#f6784b" opacity="1.00" d=" M 36.74 8.89 C 46.76 7.33 57.60 7.13 66.73 12.19 C 87.17 22.14 95.08 50.27 82.44 69.31 C 75.52 70.84 69.35 75.43 61.99 74.77 C 54.80 74.22 46.65 76.50 40.36 71.94 C 52.86 68.76 65.73 65.24 76.56 57.99 C 64.35 60.34 53.64 67.58 41.29 69.72 C 34.47 64.17 23.43 57.41 26.83 47.08 C 23.94 44.05 20.72 41.10 19.96 36.73 C 20.45 36.77 21.41 36.85 21.90 36.89 C 23.66 36.93 25.42 36.92 27.19 36.90 C 32.32 36.70 37.51 37.28 42.60 36.51 C 46.10 35.91 46.21 29.95 42.80 29.20 C 37.59 28.11 32.21 28.81 26.95 29.07 C 25.28 29.19 23.61 29.20 21.94 29.12 C 21.10 29.07 19.42 28.98 18.59 28.93 C 20.10 25.14 21.32 21.23 22.09 17.21 C 23.85 15.91 25.54 14.52 27.31 13.23 C 33.09 10.21 37.55 16.42 42.77 17.84 C 41.79 14.26 39.64 11.17 36.74 8.89 M 54.54 16.95 C 54.98 18.07 55.42 19.18 55.87 20.30 C 61.64 18.31 67.61 19.32 73.12 21.60 C 73.11 20.71 73.10 18.91 73.10 18.01 C 67.87 13.08 60.41 13.37 54.54 16.95 M 54.51 29.04 C 52.24 28.94 49.10 29.19 48.84 32.09 C 48.01 35.63 51.89 36.80 54.51 37.48 C 56.04 37.23 57.58 37.00 59.12 36.79 C 64.03 36.76 68.96 37.14 73.85 36.66 C 77.56 36.34 78.38 30.40 74.77 29.18 C 69.35 28.28 63.79 28.77 58.34 29.17 C 57.07 29.02 55.79 28.99 54.51 29.04 M 70.14 47.96 C 73.35 52.23 78.94 51.94 83.01 49.08 C 80.63 43.40 73.86 44.03 70.14 47.96 Z" />
</g>
<g id="#ec4517ff">
<path fill="#ec4517" opacity="1.00" d=" M 8.25 38.44 C 10.48 30.21 14.60 21.85 22.09 17.21 C 21.32 21.23 20.10 25.14 18.59 28.93 C 17.84 30.83 17.31 32.82 17.09 34.85 C 16.81 36.89 16.65 38.97 16.09 40.96 C 14.75 44.39 8.84 45.20 9.45 49.49 C 12.73 52.52 17.84 52.79 20.63 56.44 C 24.28 61.16 27.83 65.97 31.47 70.70 C 25.55 69.94 22.91 64.34 20.23 59.79 C 21.55 64.38 22.77 70.22 27.77 72.14 C 31.90 73.03 36.20 72.43 40.36 71.94 C 46.65 76.50 54.80 74.22 61.99 74.77 C 69.35 75.43 75.52 70.84 82.44 69.31 C 73.87 86.66 50.35 93.68 32.95 86.20 C 14.26 79.46 3.28 57.51 8.25 38.44 Z" />
<path fill="#ec4517" opacity="1.00" d=" M 14.02 45.61 C 16.71 45.69 19.40 45.80 22.08 45.93 C 22.08 47.65 22.09 49.37 22.09 51.09 C 18.77 51.55 15.28 51.64 12.62 49.28 C 13.09 48.06 13.55 46.83 14.02 45.61 Z" />
</g>
<g id="#201f1fff">
<path fill="#201f1f" opacity="1.00" d=" M 21.94 29.12 C 23.61 29.20 25.28 29.19 26.95 29.07 C 28.67 31.54 28.63 34.32 27.19 36.90 C 25.42 36.92 23.66 36.93 21.90 36.89 C 20.28 34.36 20.16 31.60 21.94 29.12 Z" />
<path fill="#201f1f" opacity="1.00" d=" M 54.51 29.04 C 55.79 28.99 57.07 29.02 58.34 29.17 C 61.27 31.05 60.52 34.19 59.12 36.79 C 57.58 37.00 56.04 37.23 54.51 37.48 C 52.41 34.92 51.19 31.26 54.51 29.04 Z" />
<path fill="#201f1f" opacity="1.00" d=" M 41.29 69.72 C 53.64 67.58 64.35 60.34 76.56 57.99 C 65.73 65.24 52.86 68.76 40.36 71.94 C 36.20 72.43 31.90 73.03 27.77 72.14 C 22.77 70.22 21.55 64.38 20.23 59.79 C 22.91 64.34 25.55 69.94 31.47 70.70 C 34.76 70.68 38.06 70.38 41.29 69.72 Z" />
</g>
<g id="#ffffffff">
<path fill="#ffffff" opacity="1.00" d=" M 18.59 28.93 C 19.42 28.98 21.10 29.07 21.94 29.12 C 20.16 31.60 20.28 34.36 21.90 36.89 C 21.41 36.85 20.45 36.77 19.96 36.73 C 18.99 36.13 18.04 35.49 17.09 34.85 C 17.31 32.82 17.84 30.83 18.59 28.93 Z" />
<path fill="#ffffff" opacity="1.00" d=" M 26.95 29.07 C 32.21 28.81 37.59 28.11 42.80 29.20 C 46.21 29.95 46.10 35.91 42.60 36.51 C 37.51 37.28 32.32 36.70 27.19 36.90 C 28.63 34.32 28.67 31.54 26.95 29.07 Z" />
<path fill="#ffffff" opacity="1.00" d=" M 48.84 32.09 C 49.10 29.19 52.24 28.94 54.51 29.04 C 51.19 31.26 52.41 34.92 54.51 37.48 C 51.89 36.80 48.01 35.63 48.84 32.09 Z" />
<path fill="#ffffff" opacity="1.00" d=" M 58.34 29.17 C 63.79 28.77 69.35 28.28 74.77 29.18 C 78.38 30.40 77.56 36.34 73.85 36.66 C 68.96 37.14 64.03 36.76 59.12 36.79 C 60.52 34.19 61.27 31.05 58.34 29.17 Z" />
</g>
<g id="#f16437ff">
<path fill="#f16437" opacity="1.00" d=" M 17.09 34.85 C 18.04 35.49 18.99 36.13 19.96 36.73 C 20.72 41.10 23.94 44.05 26.83 47.08 C 23.43 57.41 34.47 64.17 41.29 69.72 C 38.06 70.38 34.76 70.68 31.47 70.70 C 27.83 65.97 24.28 61.16 20.63 56.44 C 17.84 52.79 12.73 52.52 9.45 49.49 C 8.84 45.20 14.75 44.39 16.09 40.96 C 16.65 38.97 16.81 36.89 17.09 34.85 M 14.02 45.61 C 13.55 46.83 13.09 48.06 12.62 49.28 C 15.28 51.64 18.77 51.55 22.09 51.09 C 22.09 49.37 22.08 47.65 22.08 45.93 C 19.40 45.80 16.71 45.69 14.02 45.61 Z" />
</g>
<g id="#ed5728ff">
<path fill="#ed5728" opacity="1.00" d=" M 70.14 47.96 C 73.86 44.03 80.63 43.40 83.01 49.08 C 78.94 51.94 73.35 52.23 70.14 47.96 Z" />
</g>
</svg>
