<?xml version="1.0" encoding="UTF-8" ?>
<!DOCTYPE svg PUBLIC "-//W3C//DTD SVG 1.1//EN" "http://www.w3.org/Graphics/SVG/1.1/DTD/svg11.dtd">
<svg width="96pt" height="96pt" viewBox="0 0 96 96" version="1.1" xmlns="http://www.w3.org/2000/svg">
<g id="#eea750ff">
<path fill="#eea750" opacity="1.00" d=" M 40.56 5.71 C 51.54 3.71 63.25 6.22 72.42 12.59 C 83.90 20.37 91.35 34.03 90.98 47.98 C 91.26 57.17 88.16 66.29 82.71 73.65 C 74.78 84.49 61.50 91.39 48.00 90.98 C 34.77 91.33 21.77 84.65 13.83 74.15 C 6.00 64.01 3.17 50.29 6.27 37.87 C 10.04 21.63 24.10 8.40 40.56 5.71 M 27.90 12.66 C 18.55 18.15 11.27 27.33 8.70 37.92 C 6.56 46.14 7.05 55.02 10.17 62.92 C 14.48 74.04 23.95 83.01 35.29 86.71 C 45.15 90.01 56.28 89.35 65.64 84.79 C 75.10 80.31 82.58 72.07 86.37 62.34 C 89.06 54.14 89.66 45.19 87.18 36.87 C 82.83 21.17 68.24 8.92 51.96 7.62 C 43.62 6.66 35.26 8.77 27.90 12.66 Z" />
</g>
<g id="#fded78ff">
<path fill="#fded78" opacity="1.00" d=" M 27.90 12.66 C 35.26 8.77 43.62 6.66 51.96 7.62 C 68.24 8.92 82.83 21.17 87.18 36.87 C 89.66 45.19 89.06 54.14 86.37 62.34 C 85.49 61.64 84.61 60.95 83.74 60.25 C 79.52 60.97 75.30 61.83 71.00 61.85 C 68.10 61.86 65.15 61.88 62.37 62.84 C 63.04 61.77 63.69 60.69 64.32 59.60 C 61.93 61.11 59.68 63.03 56.87 63.72 C 53.97 64.34 50.98 64.18 48.05 63.93 C 52.15 62.96 56.22 61.85 60.30 60.77 C 55.76 58.04 50.81 55.80 47.00 52.03 C 44.16 49.31 41.93 46.05 39.72 42.82 C 37.24 43.56 34.06 45.56 31.95 43.02 C 29.61 41.16 31.52 38.40 32.10 36.16 C 29.89 35.48 27.69 34.75 25.62 33.72 C 32.67 33.45 39.74 33.79 46.80 33.47 C 46.38 31.83 45.95 30.20 45.46 28.59 C 44.93 29.25 43.85 30.56 43.31 31.22 C 37.63 31.83 31.87 31.26 26.16 31.47 C 27.70 26.08 28.76 20.56 29.86 15.07 C 29.20 14.27 28.55 13.46 27.90 12.66 M 60.30 30.10 C 60.27 31.47 60.37 32.84 60.47 34.21 C 65.48 34.08 70.52 34.45 75.52 34.05 L 76.37 33.17 L 75.98 31.90 C 71.72 31.54 67.44 31.85 63.17 31.76 C 62.31 31.03 61.53 30.08 60.30 30.10 M 31.73 39.98 C 32.80 41.64 34.90 43.96 36.88 42.07 C 38.96 40.74 37.67 37.86 35.65 37.46 C 33.83 36.97 32.90 39.00 31.73 39.98 M 67.48 42.53 C 69.48 43.61 70.67 41.15 71.82 40.00 C 70.61 38.84 69.06 36.32 67.11 37.82 C 65.00 38.78 65.36 41.84 67.48 42.53 M 73.40 44.44 C 70.14 45.96 68.33 50.41 70.53 53.52 C 73.13 58.50 81.80 57.62 83.08 52.02 C 84.89 46.68 78.09 41.63 73.40 44.44 Z" />
</g>
<g id="#ffce74ff">
<path fill="#ffce74" opacity="1.00" d=" M 8.70 37.92 C 11.27 27.33 18.55 18.15 27.90 12.66 C 28.55 13.46 29.20 14.27 29.86 15.07 C 28.76 20.56 27.70 26.08 26.16 31.47 C 26.02 32.03 25.75 33.15 25.62 33.72 C 27.69 34.75 29.89 35.48 32.10 36.16 C 31.52 38.40 29.61 41.16 31.95 43.02 C 34.06 45.56 37.24 43.56 39.72 42.82 C 41.93 46.05 44.16 49.31 47.00 52.03 C 50.81 55.80 55.76 58.04 60.30 60.77 C 56.22 61.85 52.15 62.96 48.05 63.93 C 44.78 63.52 42.13 61.37 39.33 59.83 C 43.92 67.70 55.56 67.66 62.37 62.84 C 65.15 61.88 68.10 61.86 71.00 61.85 C 75.30 61.83 79.52 60.97 83.74 60.25 C 84.61 60.95 85.49 61.64 86.37 62.34 C 82.58 72.07 75.10 80.31 65.64 84.79 C 56.28 89.35 45.15 90.01 35.29 86.71 C 23.95 83.01 14.48 74.04 10.17 62.92 C 7.05 55.02 6.56 46.14 8.70 37.92 M 23.44 44.67 C 20.61 46.11 18.41 49.83 20.22 52.88 C 22.30 58.56 31.55 57.97 33.10 52.17 C 34.85 46.83 28.20 42.45 23.44 44.67 Z" />
</g>
<g id="#000004ff">
<path fill="#000004" opacity="1.00" d=" M 45.46 28.59 C 45.95 30.20 46.38 31.83 46.80 33.47 C 39.74 33.79 32.67 33.45 25.62 33.72 C 25.75 33.15 26.02 32.03 26.16 31.47 C 31.87 31.26 37.63 31.83 43.31 31.22 C 43.85 30.56 44.93 29.25 45.46 28.59 Z" />
<path fill="#000004" opacity="1.00" d=" M 60.30 30.10 C 61.53 30.08 62.31 31.03 63.17 31.76 C 67.44 31.85 71.72 31.54 75.98 31.90 L 76.37 33.17 L 75.52 34.05 C 70.52 34.45 65.48 34.08 60.47 34.21 C 60.37 32.84 60.27 31.47 60.30 30.10 Z" />
</g>
<g id="#000000ff">
<path fill="#000000" opacity="1.00" d=" M 31.73 39.98 C 32.90 39.00 33.83 36.97 35.65 37.46 C 37.67 37.86 38.96 40.74 36.88 42.07 C 34.90 43.96 32.80 41.64 31.73 39.98 Z" />
<path fill="#000000" opacity="1.00" d=" M 67.48 42.53 C 65.36 41.84 65.00 38.78 67.11 37.82 C 69.06 36.32 70.61 38.84 71.82 40.00 C 70.67 41.15 69.48 43.61 67.48 42.53 Z" />
</g>
<g id="#f29c59ff">
<path fill="#f29c59" opacity="1.00" d=" M 23.44 44.67 C 28.20 42.45 34.85 46.83 33.10 52.17 C 31.55 57.97 22.30 58.56 20.22 52.88 C 18.41 49.83 20.61 46.11 23.44 44.67 M 22.83 52.44 C 25.56 51.12 27.38 48.59 27.43 45.51 C 24.78 46.94 22.70 49.24 22.83 52.44 M 26.78 50.89 C 26.13 52.16 24.02 54.09 26.30 54.87 C 29.24 53.62 30.34 50.44 31.19 47.62 C 29.53 48.41 27.75 49.24 26.78 50.89 Z" />
</g>
<g id="#f1ab5bff">
<path fill="#f1ab5b" opacity="1.00" d=" M 73.40 44.44 C 78.09 41.63 84.89 46.68 83.08 52.02 C 81.80 57.62 73.13 58.50 70.53 53.52 C 68.33 50.41 70.14 45.96 73.40 44.44 M 72.98 53.46 C 74.95 51.67 79.21 48.41 76.17 45.78 C 74.39 47.99 72.88 50.51 72.98 53.46 M 76.02 56.35 C 78.77 53.92 81.64 50.26 81.25 46.43 C 77.46 48.12 76.29 52.57 76.02 56.35 Z" />
</g>
<g id="#f97a3fff">
<path fill="#f97a3f" opacity="1.00" d=" M 22.83 52.44 C 22.70 49.24 24.78 46.94 27.43 45.51 C 27.38 48.59 25.56 51.12 22.83 52.44 Z" />
</g>
<g id="#fc8254ff">
<path fill="#fc8254" opacity="1.00" d=" M 72.98 53.46 C 72.88 50.51 74.39 47.99 76.17 45.78 C 79.21 48.41 74.95 51.67 72.98 53.46 Z" />
</g>
<g id="#fb8455ff">
<path fill="#fb8455" opacity="1.00" d=" M 76.02 56.35 C 76.29 52.57 77.46 48.12 81.25 46.43 C 81.64 50.26 78.77 53.92 76.02 56.35 Z" />
</g>
<g id="#f87c40ff">
<path fill="#f87c40" opacity="1.00" d=" M 26.78 50.89 C 27.75 49.24 29.53 48.41 31.19 47.62 C 30.34 50.44 29.24 53.62 26.30 54.87 C 24.02 54.09 26.13 52.16 26.78 50.89 Z" />
</g>
<g id="#923f23ff">
<path fill="#923f23" opacity="1.00" d=" M 39.33 59.83 C 42.13 61.37 44.78 63.52 48.05 63.93 C 50.98 64.18 53.97 64.34 56.87 63.72 C 59.68 63.03 61.93 61.11 64.32 59.60 C 63.69 60.69 63.04 61.77 62.37 62.84 C 55.56 67.66 43.92 67.70 39.33 59.83 Z" />
</g>
</svg>
