<?xml version="1.0" encoding="UTF-8" ?>
<!DOCTYPE svg PUBLIC "-//W3C//DTD SVG 1.1//EN" "http://www.w3.org/Graphics/SVG/1.1/DTD/svg11.dtd">
<svg width="96pt" height="96pt" viewBox="0 0 96 96" version="1.1" xmlns="http://www.w3.org/2000/svg">
<path fill="#f09750" opacity="1.00" d=" M 31.58 8.64 C 44.56 1.99 61.05 4.91 72.34 13.68 C 71.84 13.87 70.85 14.24 70.35 14.43 C 60.20 7.76 46.98 3.71 35.37 9.14 C 34.10 8.97 32.84 8.80 31.58 8.64 Z" />
<path fill="#fde877" opacity="1.00" d=" M 35.37 9.14 C 46.98 3.71 60.20 7.76 70.35 14.43 C 69.00 16.10 62.81 20.32 67.74 20.76 C 69.54 19.61 71.04 18.09 72.82 16.92 C 75.64 20.32 79.41 22.99 81.24 27.13 C 74.00 27.11 64.96 26.61 60.14 33.12 C 57.71 35.67 60.43 40.91 63.81 38.81 C 69.83 34.72 77.68 34.79 84.04 38.10 C 85.60 40.79 86.72 43.80 86.38 46.97 C 83.74 46.05 81.04 44.61 78.15 45.31 C 75.25 45.36 74.23 49.80 76.76 51.15 C 79.94 52.74 83.42 51.35 86.37 49.95 C 85.86 51.44 85.28 52.91 84.74 54.39 C 84.71 54.48 84.65 54.67 84.61 54.76 C 84.11 56.24 83.66 57.75 83.06 59.19 C 79.58 61.39 74.88 64.58 70.82 62.20 C 70.99 61.58 71.32 60.35 71.48 59.74 C 71.50 59.63 71.55 59.43 71.57 59.32 C 71.44 58.33 72.82 53.63 70.63 55.49 C 70.60 55.53 70.52 55.60 70.48 55.64 C 68.86 58.89 68.60 63.38 64.99 65.20 C 62.88 66.48 61.01 64.29 59.67 62.94 C 59.65 62.83 59.62 62.61 59.60 62.49 C 59.28 61.23 59.93 58.80 57.84 59.43 C 56.77 59.42 55.71 59.52 54.67 59.71 C 53.89 60.72 53.48 61.93 53.06 63.12 C 51.56 63.99 50.02 64.78 48.50 65.62 C 48.65 63.24 48.56 60.84 48.15 58.49 C 47.88 60.29 47.62 62.09 47.23 63.86 C 45.00 60.77 45.18 56.02 41.92 53.82 C 41.80 57.45 42.85 60.95 44.04 64.33 C 38.92 64.19 35.47 59.96 32.44 56.36 C 30.98 54.56 33.41 52.65 33.85 50.85 C 34.65 47.39 31.39 45.44 28.91 43.93 C 27.37 42.96 25.82 42.00 24.26 41.08 C 28.50 36.39 35.27 36.64 41.04 37.06 C 44.83 37.31 48.31 41.13 52.16 39.15 C 54.61 36.78 54.23 32.58 51.45 30.64 C 45.33 24.99 36.32 25.45 28.77 27.28 C 26.52 22.91 29.52 18.26 30.05 13.81 C 32.65 13.99 35.91 12.85 37.94 15.01 C 40.33 16.85 42.89 21.98 45.59 17.75 C 43.89 13.33 39.32 11.15 35.37 9.14 Z" />
<path fill="#b54b13" opacity="1.00" d=" M 27.26 11.06 C 27.66 9.49 30.07 8.95 31.58 8.64 C 32.84 8.80 34.10 8.97 35.37 9.14 C 39.32 11.15 43.89 13.33 45.59 17.75 C 42.89 21.98 40.33 16.85 37.94 15.01 C 35.91 12.85 32.65 13.99 30.05 13.81 C 29.08 13.58 28.11 13.35 27.15 13.11 C 27.17 12.60 27.23 11.57 27.26 11.06 Z" />
<path fill="#f09750" opacity="1.00" d=" M 9.82 60.08 C 2.49 42.62 10.03 19.44 27.26 11.06 C 27.23 11.57 27.17 12.60 27.15 13.11 C 20.70 18.38 14.06 24.26 11.71 32.58 C 4.91 48.98 12.50 69.36 27.87 77.96 C 27.09 78.58 26.31 79.22 25.55 79.86 C 18.78 74.71 12.70 68.23 9.82 60.08 Z" />
<path fill="#ffce74" opacity="1.00" d=" M 11.71 32.58 C 14.06 24.26 20.70 18.38 27.15 13.11 C 28.11 13.35 29.08 13.58 30.05 13.81 C 29.52 18.26 26.52 22.91 28.77 27.28 C 24.28 29.08 18.01 31.96 18.95 37.84 C 19.23 40.69 21.90 41.15 24.26 41.08 C 25.82 42.00 27.37 42.96 28.91 43.93 C 26.07 43.74 22.86 43.47 20.52 45.44 C 18.03 46.96 18.00 51.05 20.50 52.58 C 24.56 55.61 30.71 54.87 33.85 50.85 C 33.41 52.65 30.98 54.56 32.44 56.36 C 35.47 59.96 38.92 64.19 44.04 64.33 C 44.93 65.02 45.80 65.72 46.68 66.42 C 47.09 66.75 47.90 67.41 48.31 67.73 C 49.46 68.59 50.69 68.69 52.02 68.01 C 52.90 67.69 53.77 67.37 54.65 67.05 C 55.53 67.13 57.29 67.27 58.17 67.34 C 59.00 67.46 59.65 66.91 60.33 66.56 C 64.13 71.17 69.01 65.93 70.82 62.20 C 74.88 64.58 79.58 61.39 83.06 59.19 C 80.72 64.78 77.15 69.72 73.18 74.25 C 71.00 72.04 68.18 70.65 65.01 71.17 C 61.37 71.20 57.73 71.32 54.09 71.33 C 50.27 71.31 46.43 70.98 42.63 71.48 C 42.22 72.60 41.86 73.75 41.54 74.90 C 36.85 75.20 32.15 75.91 27.87 77.96 C 12.50 69.36 4.91 48.98 11.71 32.58 Z" />
<path fill="#b54b13" opacity="1.00" d=" M 72.34 13.68 C 75.08 12.90 78.77 12.63 80.69 15.19 C 80.15 18.00 76.64 15.64 74.74 16.33 C 74.26 16.47 73.30 16.77 72.82 16.92 C 71.04 18.09 69.54 19.61 67.74 20.76 C 62.81 20.32 69.00 16.10 70.35 14.43 C 70.85 14.24 71.84 13.87 72.34 13.68 Z" />
<path fill="#f09750" opacity="1.00" d=" M 72.82 16.92 C 73.30 16.77 74.26 16.47 74.74 16.33 C 78.67 19.21 81.82 23.46 83.24 28.14 C 82.74 27.89 81.74 27.38 81.24 27.13 C 79.41 22.99 75.64 20.32 72.82 16.92 Z" />
<path fill="#1f1f1f" opacity="1.00" d=" M 28.77 27.28 C 36.32 25.45 45.33 24.99 51.45 30.64 C 54.23 32.58 54.61 36.78 52.16 39.15 C 48.31 41.13 44.83 37.31 41.04 37.06 C 35.27 36.64 28.50 36.39 24.26 41.08 C 21.90 41.15 19.23 40.69 18.95 37.84 C 18.01 31.96 24.28 29.08 28.77 27.28 M 33.41 27.33 C 29.39 28.12 25.36 29.55 22.14 32.15 C 19.82 34.11 19.21 37.66 21.22 40.07 C 24.42 40.41 26.49 37.06 29.55 36.55 C 34.75 35.69 40.14 35.82 45.32 36.76 C 44.45 33.48 46.38 31.15 49.42 30.20 C 44.69 27.19 38.89 26.16 33.41 27.33 Z" />
<path fill="#fffcfc" opacity="1.00" d=" M 33.41 27.33 C 38.89 26.16 44.69 27.19 49.42 30.20 C 46.38 31.15 44.45 33.48 45.32 36.76 C 40.14 35.82 34.75 35.69 29.55 36.55 C 26.49 37.06 24.42 40.41 21.22 40.07 C 19.21 37.66 19.82 34.11 22.14 32.15 C 25.36 29.55 29.39 28.12 33.41 27.33 Z" />
<path fill="#1f1f1f" opacity="1.00" d=" M 60.14 33.12 C 64.96 26.61 74.00 27.11 81.24 27.13 C 81.74 27.38 82.74 27.89 83.24 28.14 C 87.11 29.57 91.28 34.97 86.75 38.19 C 86.07 38.17 84.72 38.12 84.04 38.10 C 77.68 34.79 69.83 34.72 63.81 38.81 C 60.43 40.91 57.71 35.67 60.14 33.12 M 70.31 28.28 C 66.17 29.37 60.86 31.19 59.98 36.00 C 60.09 38.40 62.81 38.90 64.41 37.47 C 69.39 34.01 75.70 34.76 81.34 35.66 C 81.21 33.03 82.27 31.13 85.01 30.62 C 81.06 26.92 75.21 27.80 70.31 28.28 Z" />
<path fill="#fffcfc" opacity="1.00" d=" M 70.31 28.28 C 75.21 27.80 81.06 26.92 85.01 30.62 C 82.27 31.13 81.21 33.03 81.34 35.66 C 75.70 34.76 69.39 34.01 64.41 37.47 C 62.81 38.90 60.09 38.40 59.98 36.00 C 60.86 31.19 66.17 29.37 70.31 28.28 Z" />
<path fill="#f09750" opacity="1.00" d=" M 84.04 38.10 C 84.72 38.12 86.07 38.17 86.75 38.19 C 90.05 51.94 84.30 67.95 72.90 76.41 C 72.97 75.87 73.11 74.79 73.18 74.25 C 77.15 69.72 80.72 64.78 83.06 59.19 C 83.66 57.75 84.11 56.24 84.61 54.76 C 84.65 54.67 84.71 54.48 84.74 54.39 C 85.28 52.91 85.86 51.44 86.37 49.95 C 83.42 51.35 79.94 52.74 76.76 51.15 C 74.23 49.80 75.25 45.36 78.15 45.31 C 81.04 44.61 83.74 46.05 86.38 46.97 C 86.72 43.80 85.60 40.79 84.04 38.10 Z" />
<path fill="#ec8d3c" opacity="1.00" d=" M 20.52 45.44 C 22.86 43.47 26.07 43.74 28.91 43.93 C 31.39 45.44 34.65 47.39 33.85 50.85 C 30.71 54.87 24.56 55.61 20.50 52.58 C 18.00 51.05 18.03 46.96 20.52 45.44 Z" />
<path fill="#922415" opacity="1.00" d=" M 41.92 53.82 C 45.18 56.02 45.00 60.77 47.23 63.86 C 47.09 64.50 46.81 65.78 46.68 66.42 C 45.80 65.72 44.93 65.02 44.04 64.33 C 42.85 60.95 41.80 57.45 41.92 53.82 Z" />
<path fill="#ffce74" opacity="1.00" d=" M 84.61 54.76 C 84.65 54.67 84.71 54.48 84.74 54.39 C 84.71 54.48 84.65 54.67 84.61 54.76 Z" />
<path fill="#ffce74" opacity="1.00" d=" M 70.48 55.64 C 70.52 55.60 70.60 55.53 70.63 55.49 C 70.60 55.53 70.52 55.60 70.48 55.64 Z" />
<path fill="#922415" opacity="1.00" d=" M 70.63 55.49 C 72.82 53.63 71.44 58.33 71.57 59.32 C 71.55 59.43 71.50 59.63 71.48 59.74 C 71.32 60.35 70.99 61.58 70.82 62.20 C 69.01 65.93 64.13 71.17 60.33 66.56 C 60.17 65.65 59.84 63.85 59.67 62.94 C 61.01 64.29 62.88 66.48 64.99 65.20 C 68.60 63.38 68.86 58.89 70.48 55.64 C 70.52 55.60 70.60 55.53 70.63 55.49 Z" />
<path fill="#efe2dd" opacity="1.00" d=" M 48.15 58.49 C 48.56 60.84 48.65 63.24 48.50 65.62 C 48.47 66.03 48.39 66.85 48.36 67.26 L 48.31 67.73 C 47.90 67.41 47.09 66.75 46.68 66.42 C 46.81 65.78 47.09 64.50 47.23 63.86 C 47.62 62.09 47.88 60.29 48.15 58.49 Z" />
<path fill="#922415" opacity="1.00" d=" M 54.67 59.71 C 55.71 59.52 56.77 59.42 57.84 59.43 C 57.99 60.97 58.12 62.51 58.25 64.05 C 56.61 61.59 55.39 62.79 54.56 64.96 C 54.49 63.21 54.58 61.45 54.67 59.71 Z" />
<path fill="#efe2dd" opacity="1.00" d=" M 57.84 59.43 C 59.93 58.80 59.28 61.23 59.60 62.49 C 59.62 62.61 59.65 62.83 59.67 62.94 C 59.84 63.85 60.17 65.65 60.33 66.56 C 59.65 66.91 59.00 67.46 58.17 67.34 C 58.20 66.62 58.24 65.18 58.26 64.46 C 58.26 64.35 58.25 64.15 58.25 64.05 C 58.12 62.51 57.99 60.97 57.84 59.43 Z" />
<path fill="#ffce74" opacity="1.00" d=" M 71.48 59.74 C 71.50 59.63 71.55 59.43 71.57 59.32 C 71.55 59.43 71.50 59.63 71.48 59.74 Z" />
<path fill="#efe2dd" opacity="1.00" d=" M 53.06 63.12 C 53.48 61.93 53.89 60.72 54.67 59.71 C 54.58 61.45 54.49 63.21 54.56 64.96 C 54.59 65.48 54.63 66.53 54.65 67.05 C 53.77 67.37 52.90 67.69 52.02 68.01 C 52.15 67.54 52.41 66.60 52.54 66.13 C 52.67 65.38 52.93 63.87 53.06 63.12 Z" />
<path fill="#fde877" opacity="1.00" d=" M 54.56 64.96 C 55.39 62.79 56.61 61.59 58.25 64.05 C 58.25 64.15 58.26 64.35 58.26 64.46 C 58.24 65.18 58.20 66.62 58.17 67.34 C 57.29 67.27 55.53 67.13 54.65 67.05 C 54.63 66.53 54.59 65.48 54.56 64.96 Z" />
<path fill="#922415" opacity="1.00" d=" M 59.60 62.49 C 59.62 62.61 59.65 62.83 59.67 62.94 C 59.65 62.83 59.62 62.61 59.60 62.49 Z" />
<path fill="#922415" opacity="1.00" d=" M 48.50 65.62 C 50.02 64.78 51.56 63.99 53.06 63.12 C 52.93 63.87 52.67 65.38 52.54 66.13 C 51.15 66.52 49.74 66.85 48.36 67.26 C 48.39 66.85 48.47 66.03 48.50 65.62 Z" />
<path fill="#922415" opacity="1.00" d=" M 58.25 64.05 C 58.25 64.15 58.26 64.35 58.26 64.46 C 58.26 64.35 58.25 64.15 58.25 64.05 Z" />
<path fill="#fde877" opacity="1.00" d=" M 48.36 67.26 C 49.74 66.85 51.15 66.52 52.54 66.13 C 52.41 66.60 52.15 67.54 52.02 68.01 C 50.69 68.69 49.46 68.59 48.31 67.73 L 48.36 67.26 Z" />
<path fill="#fffcfc" opacity="1.00" d=" M 42.63 71.48 C 46.43 70.98 50.27 71.31 54.09 71.33 C 54.23 77.08 54.22 82.82 54.00 88.57 C 51.09 88.69 48.30 87.59 45.97 85.92 C 42.49 84.06 45.82 81.35 46.75 78.93 C 45.53 77.03 43.37 76.08 41.54 74.90 C 41.86 73.75 42.22 72.60 42.63 71.48 Z" />
<path fill="#efe2dd" opacity="1.00" d=" M 54.09 71.33 C 57.73 71.32 61.37 71.20 65.01 71.17 C 65.04 71.74 65.09 72.87 65.12 73.44 C 65.12 75.10 65.11 76.76 65.10 78.42 C 64.86 79.76 64.63 81.11 64.38 82.46 C 61.87 85.72 58.37 88.68 54.00 88.57 C 54.22 82.82 54.23 77.08 54.09 71.33 Z" />
<path fill="#b4aaaa" opacity="1.00" d=" M 65.01 71.17 C 68.18 70.65 71.00 72.04 73.18 74.25 C 73.11 74.79 72.97 75.87 72.90 76.41 L 72.67 77.10 C 70.61 77.16 68.06 77.00 66.81 79.02 C 66.12 80.32 66.51 82.79 64.38 82.46 C 64.63 81.11 64.86 79.76 65.10 78.42 C 67.24 76.56 69.66 73.83 65.12 73.44 C 65.09 72.87 65.04 71.74 65.01 71.17 Z" />
<path fill="#ffce74" opacity="1.00" d=" M 65.12 73.44 C 69.66 73.83 67.24 76.56 65.10 78.42 C 65.11 76.76 65.12 75.10 65.12 73.44 Z" />
<path fill="#fca81a" opacity="1.00" d=" M 27.87 77.96 C 32.15 75.91 36.85 75.20 41.54 74.90 C 43.37 76.08 45.53 77.03 46.75 78.93 C 45.82 81.35 42.49 84.06 45.97 85.92 C 39.01 84.17 33.16 91.02 26.25 88.87 C 22.42 87.37 22.99 82.29 25.55 79.86 C 26.31 79.22 27.09 78.58 27.87 77.96 M 33.24 78.08 C 29.58 78.93 24.36 81.20 25.81 85.91 C 30.21 89.52 36.32 85.95 40.62 83.68 C 42.56 82.70 46.11 79.59 42.89 77.93 C 39.71 77.44 36.41 77.44 33.24 78.08 Z" />
<path fill="#fca81a" opacity="1.00" d=" M 66.81 79.02 C 68.06 77.00 70.61 77.16 72.67 77.10 C 75.66 77.93 79.98 78.69 80.62 82.36 C 81.55 86.39 76.73 89.66 73.11 88.06 C 69.66 86.73 64.97 83.25 66.81 79.02 M 69.20 79.07 C 65.69 81.28 70.12 85.44 72.77 86.31 C 75.66 88.79 80.39 85.76 79.15 82.12 C 76.88 79.20 72.71 77.83 69.20 79.07 Z" />
<path fill="#fde877" opacity="1.00" d=" M 33.24 78.08 C 36.41 77.44 39.71 77.44 42.89 77.93 C 46.11 79.59 42.56 82.70 40.62 83.68 C 36.32 85.95 30.21 89.52 25.81 85.91 C 24.36 81.20 29.58 78.93 33.24 78.08 Z" />
<path fill="#fde877" opacity="1.00" d=" M 69.20 79.07 C 72.71 77.83 76.88 79.20 79.15 82.12 C 80.39 85.76 75.66 88.79 72.77 86.31 C 70.12 85.44 65.69 81.28 69.20 79.07 Z" />
</svg>
