<?xml version="1.0" encoding="UTF-8" ?>
<!DOCTYPE svg PUBLIC "-//W3C//DTD SVG 1.1//EN" "http://www.w3.org/Graphics/SVG/1.1/DTD/svg11.dtd">
<svg width="96pt" height="96pt" viewBox="0 0 96 96" version="1.1" xmlns="http://www.w3.org/2000/svg">
<g id="#86612f8f">
<path fill="#86612f" opacity="0.56" d=" M 41.98 8.97 C 45.35 7.15 48.69 7.14 52.00 8.96 C 48.66 8.99 45.32 9.03 41.98 8.97 Z" />
</g>
<g id="#e8aa51f7">
<path fill="#e8aa51" opacity="0.97" d=" M 26.99 13.02 C 31.99 11.76 36.60 8.46 41.98 8.97 C 45.32 9.03 48.66 8.99 52.00 8.96 C 62.33 8.78 70.30 16.31 78.35 21.57 C 91.93 19.97 87.00 34.92 86.98 43.00 C 86.95 46.37 87.02 49.75 86.97 53.13 C 86.88 53.62 86.68 54.61 86.58 55.10 C 86.30 56.04 86.03 56.99 85.78 57.94 C 80.98 58.03 78.54 52.87 73.82 52.61 C 74.92 52.23 76.03 51.90 77.16 51.62 C 79.78 53.20 85.63 59.38 83.16 50.10 C 83.11 41.81 88.50 33.17 85.79 25.15 C 67.16 20.88 48.04 18.87 29.18 15.72 C 24.04 15.78 15.85 10.80 12.40 16.41 C 10.95 26.45 9.13 36.43 7.54 46.44 C 5.11 49.59 8.12 52.78 10.97 53.07 C 29.63 55.90 48.33 58.58 66.89 61.99 C 66.91 60.62 66.89 59.25 66.84 57.88 C 68.01 56.68 69.26 55.55 70.61 54.57 C 68.06 58.95 68.77 63.90 73.03 66.74 C 72.09 67.10 71.16 67.46 70.23 67.84 C 69.45 66.30 68.61 64.78 67.55 63.41 C 50.30 60.66 32.95 58.50 15.82 55.00 C 15.53 55.52 14.93 56.55 14.63 57.06 C 13.71 55.31 10.74 52.53 9.24 55.10 C 13.11 75.86 36.20 90.72 56.66 84.61 C 63.83 82.27 70.68 78.43 75.81 72.82 C 78.60 70.69 75.92 69.47 74.21 68.60 C 73.91 68.13 73.32 67.21 73.03 66.74 C 77.38 68.49 81.49 71.00 84.07 75.00 C 84.19 77.96 78.92 68.93 77.73 73.72 C 71.42 80.73 62.66 86.54 53.02 87.03 C 49.00 87.02 44.98 87.02 40.96 87.02 C 22.33 85.33 8.57 68.60 5.98 50.78 C 6.04 49.59 6.03 48.40 5.95 47.21 C 6.58 36.94 9.23 26.84 10.55 16.64 C 11.89 9.10 21.98 13.05 26.99 13.02 M 45.35 10.41 C 41.77 11.41 34.97 11.10 33.35 13.80 C 45.76 17.68 60.05 18.30 73.17 20.90 C 66.08 13.65 55.33 10.28 45.35 10.41 Z" />
</g>
<g id="#fde776ff">
<path fill="#fde776" opacity="1.00" d=" M 45.35 10.41 C 55.33 10.28 66.08 13.65 73.17 20.90 C 60.05 18.30 45.76 17.68 33.35 13.80 C 34.97 11.10 41.77 11.41 45.35 10.41 Z" />
</g>
<g id="#fcd073ff">
<path fill="#fcd073" opacity="1.00" d=" M 12.40 16.41 C 15.85 10.80 24.04 15.78 29.18 15.72 C 28.43 19.20 27.00 23.13 29.82 25.99 C 27.79 28.57 25.38 30.89 23.78 33.78 C 21.16 36.73 19.09 41.64 14.41 40.69 C 16.16 45.23 22.16 52.89 27.09 51.02 C 28.17 50.35 29.05 49.41 30.00 48.59 C 30.43 48.65 31.27 48.77 31.69 48.83 C 41.18 50.51 50.61 52.57 60.16 53.88 C 60.60 53.95 61.48 54.07 61.92 54.13 C 61.32 57.75 63.53 60.18 66.84 57.88 C 66.89 59.25 66.91 60.62 66.89 61.99 C 48.33 58.58 29.63 55.90 10.97 53.07 C 8.12 52.78 5.11 49.59 7.54 46.44 C 9.13 36.43 10.95 26.45 12.40 16.41 Z" />
</g>
<g id="#fae676ff">
<path fill="#fae676" opacity="1.00" d=" M 29.18 15.72 C 48.04 18.87 67.16 20.88 85.79 25.15 C 88.50 33.17 83.11 41.81 83.16 50.10 C 85.63 59.38 79.78 53.20 77.16 51.62 C 73.74 49.23 71.59 45.74 70.35 41.78 C 69.10 38.42 67.57 35.18 66.13 31.91 C 65.85 29.44 65.63 24.77 62.11 25.23 C 60.65 25.20 59.17 25.28 57.83 25.91 C 54.08 27.56 56.08 32.63 58.88 34.32 C 59.86 37.82 60.87 41.32 61.31 44.93 C 56.73 42.69 52.46 39.27 47.25 38.70 C 43.74 37.94 40.25 37.98 36.77 38.81 C 34.40 39.21 32.21 40.25 29.99 41.12 C 32.03 37.21 34.23 33.30 37.32 30.12 C 42.53 27.56 41.60 18.13 34.87 20.17 L 34.02 20.22 C 30.75 19.75 30.30 23.65 29.82 25.99 C 27.00 23.13 28.43 19.20 29.18 15.72 Z" />
</g>
<g id="#4d4b3eff">
<path fill="#4d4b3e" opacity="1.00" d=" M 29.82 25.99 C 30.30 23.65 30.75 19.75 34.02 20.22 C 30.90 22.24 31.79 26.53 35.75 25.85 C 38.89 24.15 38.14 21.09 34.87 20.17 C 41.60 18.13 42.53 27.56 37.32 30.12 C 34.72 28.92 32.41 27.20 29.82 25.99 Z" />
</g>
<g id="#ecececff">
<path fill="#ececec" opacity="1.00" d=" M 35.75 25.85 C 31.79 26.53 30.90 22.24 34.02 20.22 L 34.87 20.17 C 38.14 21.09 38.89 24.15 35.75 25.85 Z" />
</g>
<g id="#eeeeeeff">
<path fill="#eeeeee" opacity="1.00" d=" M 57.83 25.91 C 59.17 25.28 60.65 25.20 62.11 25.23 C 66.53 31.10 55.94 32.73 57.83 25.91 Z" />
</g>
<g id="#32332fff">
<path fill="#32332f" opacity="1.00" d=" M 62.11 25.23 C 65.63 24.77 65.85 29.44 66.13 31.91 C 63.31 30.79 61.46 32.27 59.92 34.49 L 58.88 34.32 C 56.08 32.63 54.08 27.56 57.83 25.91 C 55.94 32.73 66.53 31.10 62.11 25.23 Z" />
</g>
<g id="#7cc2ddff">
<path fill="#7cc2dd" opacity="1.00" d=" M 29.82 25.99 C 32.41 27.20 34.72 28.92 37.32 30.12 C 34.23 33.30 32.03 37.21 29.99 41.12 C 29.80 41.47 29.40 42.17 29.20 42.52 C 23.70 42.95 20.15 38.55 23.78 33.78 C 25.38 30.89 27.79 28.57 29.82 25.99 Z" />
</g>
<g id="#87c9e4ff">
<path fill="#87c9e4" opacity="1.00" d=" M 59.92 34.49 C 61.46 32.27 63.31 30.79 66.13 31.91 C 67.57 35.18 69.10 38.42 70.35 41.78 C 71.10 45.95 67.12 48.79 63.27 47.95 C 62.56 43.38 61.67 38.80 59.92 34.49 Z" />
</g>
<g id="#46b1dcff">
<path fill="#46b1dc" opacity="1.00" d=" M 14.41 40.69 C 19.09 41.64 21.16 36.73 23.78 33.78 C 20.15 38.55 23.70 42.95 29.20 42.52 C 28.72 44.23 28.24 45.93 27.76 47.64 C 27.19 48.69 26.96 49.81 27.09 51.02 C 22.16 52.89 16.16 45.23 14.41 40.69 Z" />
</g>
<g id="#4ab2d9ff">
<path fill="#4ab2d9" opacity="1.00" d=" M 58.88 34.32 L 59.92 34.49 C 61.67 38.80 62.56 43.38 63.27 47.95 C 67.12 48.79 71.10 45.95 70.35 41.78 C 71.59 45.74 73.74 49.23 77.16 51.62 C 76.03 51.90 74.92 52.23 73.82 52.61 C 72.64 53.08 71.61 53.81 70.61 54.57 C 69.26 55.55 68.01 56.68 66.84 57.88 C 63.53 60.18 61.32 57.75 61.92 54.13 C 61.86 51.05 62.02 47.95 61.31 44.93 C 60.87 41.32 59.86 37.82 58.88 34.32 Z" />
</g>
<g id="#a98144ff">
<path fill="#a98144" opacity="1.00" d=" M 36.77 38.81 C 40.25 37.98 43.74 37.94 47.25 38.70 C 43.75 38.75 40.26 38.86 36.77 38.81 Z" />
</g>
<g id="#7e1d12ff">
<path fill="#7e1d12" opacity="1.00" d=" M 29.99 41.12 C 32.21 40.25 34.40 39.21 36.77 38.81 C 40.26 38.86 43.75 38.75 47.25 38.70 C 52.46 39.27 56.73 42.69 61.31 44.93 C 62.02 47.95 61.86 51.05 61.92 54.13 C 61.48 54.07 60.60 53.95 60.16 53.88 C 53.01 46.75 40.59 42.25 31.69 48.83 C 31.27 48.77 30.43 48.65 30.00 48.59 C 29.44 48.35 28.32 47.88 27.76 47.64 C 28.24 45.93 28.72 44.23 29.20 42.52 C 29.40 42.17 29.80 41.47 29.99 41.12 Z" />
</g>
<g id="#543c1d5a">
<path fill="#543c1d" opacity="0.35" d=" M 86.98 43.00 C 88.87 46.23 88.87 49.61 86.97 53.13 C 87.02 49.75 86.95 46.37 86.98 43.00 Z" />
</g>
<g id="#d85c33ff">
<path fill="#d85c33" opacity="1.00" d=" M 31.69 48.83 C 40.59 42.25 53.01 46.75 60.16 53.88 C 50.61 52.57 41.18 50.51 31.69 48.83 Z" />
</g>
<g id="#7c592b84">
<path fill="#7c592b" opacity="0.52" d=" M 5.98 50.78 C 4.18 51.08 4.15 46.94 5.95 47.21 C 6.03 48.40 6.04 49.59 5.98 50.78 Z" />
</g>
<g id="#939169ff">
<path fill="#939169" opacity="1.00" d=" M 27.09 51.02 C 26.96 49.81 27.19 48.69 27.76 47.64 C 28.32 47.88 29.44 48.35 30.00 48.59 C 29.05 49.41 28.17 50.35 27.09 51.02 Z" />
</g>
<g id="#fddb67fe">
<path fill="#fddb67" opacity="1.00" d=" M 70.61 54.57 C 71.61 53.81 72.64 53.08 73.82 52.61 C 78.54 52.87 80.98 58.03 85.78 57.94 C 85.84 58.64 85.96 60.05 86.02 60.76 C 85.45 64.90 88.17 68.12 89.87 71.64 C 87.96 72.80 86.10 74.05 84.07 75.00 C 81.49 71.00 77.38 68.49 73.03 66.74 C 68.77 63.90 68.06 58.95 70.61 54.57 Z" />
</g>
<g id="#fcc871ff">
<path fill="#fcc871" opacity="1.00" d=" M 9.24 55.10 C 10.74 52.53 13.71 55.31 14.63 57.06 C 21.80 82.10 57.10 85.25 74.21 68.60 C 75.92 69.47 78.60 70.69 75.81 72.82 C 70.68 78.43 63.83 82.27 56.66 84.61 C 36.20 90.72 13.11 75.86 9.24 55.10 Z" />
</g>
<g id="#92321dff">
<path fill="#92321d" opacity="1.00" d=" M 14.63 57.06 C 14.93 56.55 15.53 55.52 15.82 55.00 C 22.54 77.02 53.59 81.54 70.23 67.84 C 71.16 67.46 72.09 67.10 73.03 66.74 C 73.32 67.21 73.91 68.13 74.21 68.60 C 57.10 85.25 21.80 82.10 14.63 57.06 Z" />
</g>
<g id="#fdd273ff">
<path fill="#fdd273" opacity="1.00" d=" M 15.82 55.00 C 32.95 58.50 50.30 60.66 67.55 63.41 C 68.61 64.78 69.45 66.30 70.23 67.84 C 53.59 81.54 22.54 77.02 15.82 55.00 Z" />
</g>
<g id="#825718a7">
<path fill="#825718" opacity="0.65" d=" M 85.78 57.94 C 86.03 56.99 86.30 56.04 86.58 55.10 C 87.41 56.59 88.05 60.29 86.02 60.76 C 85.96 60.05 85.84 58.64 85.78 57.94 Z" />
</g>
<g id="#9d7136a7">
<path fill="#9d7136" opacity="0.65" d=" M 40.96 87.02 C 44.98 87.02 49.00 87.02 53.02 87.03 C 51.85 88.33 42.36 89.57 40.96 87.02 Z" />
</g>
</svg>
