<?xml version="1.0" encoding="UTF-8" ?>
<!DOCTYPE svg PUBLIC "-//W3C//DTD SVG 1.1//EN" "http://www.w3.org/Graphics/SVG/1.1/DTD/svg11.dtd">
<svg width="96pt" height="96pt" viewBox="0 0 96 96" version="1.1" xmlns="http://www.w3.org/2000/svg">
<g id="#7353287b">
<path fill="#735328" opacity="0.48" d=" M 40.16 6.01 C 40.01 4.17 43.14 4.32 43.98 5.44 C 42.81 6.08 41.46 6.20 40.16 6.01 Z" />
</g>
<g id="#e4a551f1">
<path fill="#e4a551" opacity="0.95" d=" M 43.98 5.44 C 67.24 2.10 90.71 22.45 90.99 46.00 C 92.36 63.91 80.76 81.73 64.02 88.05 C 40.13 98.86 9.47 81.53 6.01 55.84 C 6.20 54.54 6.08 53.19 5.44 52.02 C 4.55 49.31 4.55 46.63 5.44 43.99 C 6.08 42.81 6.20 41.47 6.01 40.16 C 8.40 23.18 23.19 8.41 40.16 6.01 C 41.46 6.20 42.81 6.08 43.98 5.44 M 31.19 11.13 C 17.35 16.91 8.16 31.34 7.16 46.11 C 6.76 47.28 7.38 48.91 8.78 48.83 C 8.74 49.71 8.67 51.48 8.64 52.37 C 6.67 51.61 8.49 57.77 9.08 59.92 C 12.97 73.53 24.61 84.46 38.38 87.59 C 56.84 92.80 78.39 82.10 85.11 64.10 C 94.19 47.61 86.39 23.39 69.98 14.00 C 58.89 6.09 43.30 5.48 31.19 11.13 Z" />
</g>
<g id="#fce676ff">
<path fill="#fce676" opacity="1.00" d=" M 31.19 11.13 C 43.30 5.48 58.89 6.09 69.98 14.00 C 86.39 23.39 94.19 47.61 85.11 64.10 C 75.29 70.26 62.59 66.50 52.83 71.12 C 51.47 67.93 53.69 64.99 54.11 61.87 C 51.25 62.00 51.46 66.17 49.10 66.77 C 41.76 63.95 36.33 57.17 32.28 50.68 C 30.94 47.61 35.71 46.77 36.38 44.10 C 40.51 35.80 30.90 32.21 24.71 31.55 C 26.05 28.88 28.06 26.77 31.06 26.10 C 33.60 24.69 37.89 23.71 37.05 19.94 C 33.27 20.49 29.11 22.98 25.41 20.90 C 28.12 18.15 29.54 14.53 31.19 11.13 M 50.99 19.93 C 49.02 27.00 68.39 29.08 63.80 22.10 C 59.21 23.83 55.38 20.75 50.99 19.93 M 50.02 35.93 C 48.04 43.72 57.67 49.05 64.05 46.53 C 65.23 48.27 61.54 49.17 63.15 51.77 C 68.04 56.61 78.93 56.98 82.73 50.81 C 81.02 43.59 71.87 46.47 66.61 45.22 C 68.91 43.32 73.65 36.51 68.34 36.10 C 67.88 42.69 60.24 47.31 54.78 42.22 C 52.79 40.42 53.55 35.54 50.02 35.93 Z" />
</g>
<g id="#fccb72ff">
<path fill="#fccb72" opacity="1.00" d=" M 7.16 46.11 C 8.16 31.34 17.35 16.91 31.19 11.13 C 29.54 14.53 28.12 18.15 25.41 20.90 C 19.30 23.51 27.66 27.10 31.06 26.10 C 28.06 26.77 26.05 28.88 24.71 31.55 C 22.67 31.98 20.65 32.63 19.01 33.95 C 17.96 34.65 16.92 35.36 15.91 36.11 C 14.90 36.78 14.26 37.83 13.57 38.80 C 12.29 39.97 12.39 42.03 13.77 43.08 C 14.15 43.59 14.91 44.62 15.29 45.13 C 12.81 45.77 10.42 46.76 8.78 48.83 C 7.38 48.91 6.76 47.28 7.16 46.11 Z" />
</g>
<g id="#ab4d18ff">
<path fill="#ab4d18" opacity="1.00" d=" M 25.41 20.90 C 29.11 22.98 33.27 20.49 37.05 19.94 C 37.89 23.71 33.60 24.69 31.06 26.10 C 27.66 27.10 19.30 23.51 25.41 20.90 Z" />
</g>
<g id="#aa4c17ff">
<path fill="#aa4c17" opacity="1.00" d=" M 50.99 19.93 C 55.38 20.75 59.21 23.83 63.80 22.10 C 68.39 29.08 49.02 27.00 50.99 19.93 Z" />
</g>
<g id="#c1b386ff">
<path fill="#c1b386" opacity="1.00" d=" M 19.01 33.95 C 20.65 32.63 22.67 31.98 24.71 31.55 C 30.90 32.21 40.51 35.80 36.38 44.10 C 38.04 34.23 26.11 31.70 19.01 33.95 Z" />
</g>
<g id="#fafafaff">
<path fill="#fafafa" opacity="1.00" d=" M 19.01 33.95 C 26.11 31.70 38.04 34.23 36.38 44.10 C 34.18 45.30 31.98 46.52 29.89 47.92 C 25.05 48.63 20.08 48.25 15.98 45.47 C 22.60 44.67 22.16 37.14 15.91 36.11 C 16.92 35.36 17.96 34.65 19.01 33.95 Z" />
</g>
<g id="#272625ff">
<path fill="#272625" opacity="1.00" d=" M 13.57 38.80 C 14.26 37.83 14.90 36.78 15.91 36.11 C 22.16 37.14 22.60 44.67 15.98 45.47 L 15.29 45.13 C 14.91 44.62 14.15 43.59 13.77 43.08 C 14.23 41.63 14.16 40.20 13.57 38.80 Z" />
</g>
<g id="#862817ff">
<path fill="#862817" opacity="1.00" d=" M 50.02 35.93 C 53.55 35.54 52.79 40.42 54.78 42.22 C 60.24 47.31 67.88 42.69 68.34 36.10 C 73.65 36.51 68.91 43.32 66.61 45.22 C 65.76 45.65 64.91 46.09 64.05 46.53 C 57.67 49.05 48.04 43.72 50.02 35.93 Z" />
</g>
<g id="#8e7449ff">
<path fill="#8e7449" opacity="1.00" d=" M 13.77 43.08 C 12.39 42.03 12.29 39.97 13.57 38.80 C 14.16 40.20 14.23 41.63 13.77 43.08 Z" />
</g>
<g id="#7353287a">
<path fill="#735328" opacity="0.48" d=" M 5.44 43.99 C 4.33 43.14 4.17 40.02 6.01 40.16 C 6.20 41.47 6.08 42.81 5.44 43.99 Z" />
</g>
<g id="#fecc73ff">
<path fill="#fecc73" opacity="1.00" d=" M 29.89 47.92 C 31.98 46.52 34.18 45.30 36.38 44.10 C 35.71 46.77 30.94 47.61 32.28 50.68 C 36.33 57.17 41.76 63.95 49.10 66.77 C 45.60 66.87 41.81 66.78 38.99 69.16 C 41.09 73.31 49.36 65.07 50.11 71.89 C 50.95 76.03 54.17 75.33 52.83 71.12 C 62.59 66.50 75.29 70.26 85.11 64.10 C 78.39 82.10 56.84 92.80 38.38 87.59 C 24.61 84.46 12.97 73.53 9.08 59.92 C 8.49 57.77 6.67 51.61 8.64 52.37 C 15.45 57.46 25.94 55.57 29.89 47.92 Z" />
</g>
<g id="#e99150ff">
<path fill="#e99150" opacity="1.00" d=" M 15.29 45.13 L 15.98 45.47 C 20.08 48.25 25.05 48.63 29.89 47.92 C 25.94 55.57 15.45 57.46 8.64 52.37 C 8.67 51.48 8.74 49.71 8.78 48.83 C 10.42 46.76 12.81 45.77 15.29 45.13 Z" />
</g>
<g id="#f0a553ff">
<path fill="#f0a553" opacity="1.00" d=" M 64.05 46.53 C 64.91 46.09 65.76 45.65 66.61 45.22 C 71.87 46.47 81.02 43.59 82.73 50.81 C 78.93 56.98 68.04 56.61 63.15 51.77 C 61.54 49.17 65.23 48.27 64.05 46.53 Z" />
</g>
<g id="#78562a80">
<path fill="#78562a" opacity="0.50" d=" M 5.44 52.02 C 6.08 53.19 6.20 54.54 6.01 55.84 C 4.18 55.99 4.32 52.86 5.44 52.02 Z" />
</g>
<g id="#892b19ff">
<path fill="#892b19" opacity="1.00" d=" M 49.10 66.77 C 51.46 66.17 51.25 62.00 54.11 61.87 C 53.69 64.99 51.47 67.93 52.83 71.12 C 54.17 75.33 50.95 76.03 50.11 71.89 C 49.36 65.07 41.09 73.31 38.99 69.16 C 41.81 66.78 45.60 66.87 49.10 66.77 Z" />
</g>
</svg>
