<?xml version="1.0" encoding="UTF-8" ?>
<!DOCTYPE svg PUBLIC "-//W3C//DTD SVG 1.1//EN" "http://www.w3.org/Graphics/SVG/1.1/DTD/svg11.dtd">
<svg width="96pt" height="96pt" viewBox="0 0 96 96" version="1.1" xmlns="http://www.w3.org/2000/svg">
<path fill="#efa354" opacity="1.00" d=" M 23.62 15.38 C 35.08 5.76 51.96 3.23 65.66 9.34 C 80.29 15.48 90.95 30.95 90.00 47.00 C 90.83 66.60 74.39 84.65 55.09 86.76 C 50.41 87.26 45.70 86.93 41.03 86.48 C 41.25 86.01 41.70 85.07 41.92 84.60 C 52.24 85.48 63.16 83.83 71.80 77.80 C 78.27 72.50 84.03 65.69 86.32 57.50 C 91.79 40.08 82.41 20.82 66.96 12.01 C 64.49 10.00 61.39 8.98 58.20 9.24 C 52.84 9.35 47.47 8.92 42.13 9.41 C 36.12 9.93 31.10 13.54 25.98 16.37 C 25.39 16.12 24.21 15.63 23.62 15.38 Z" />
<path fill="#fee076" opacity="1.00" d=" M 25.98 16.37 C 31.10 13.54 36.12 9.93 42.13 9.41 C 47.47 8.92 52.84 9.35 58.20 9.24 C 52.60 9.91 47.94 13.93 46.40 19.34 C 50.71 20.26 53.01 16.12 56.40 14.50 C 59.97 13.84 63.95 14.50 66.96 12.01 C 82.41 20.82 91.79 40.08 86.32 57.50 C 84.03 65.69 78.27 72.50 71.80 77.80 C 63.16 83.83 52.24 85.48 41.92 84.60 C 43.17 81.13 44.20 77.59 45.55 74.16 C 47.33 69.80 47.82 65.09 48.24 60.44 C 50.73 58.84 52.82 56.70 53.62 53.77 C 51.38 55.23 49.36 57.09 46.84 58.07 C 42.35 59.50 38.32 55.60 33.79 56.45 L 33.14 56.47 C 26.46 51.90 17.56 50.99 10.22 54.55 C 10.29 52.50 10.25 50.45 10.17 48.40 C 14.28 49.75 18.62 49.53 22.34 47.18 C 20.20 41.77 14.49 42.35 9.88 43.72 C 9.80 42.97 9.65 41.45 9.58 40.70 C 14.03 35.65 21.60 36.87 27.20 39.06 C 30.36 40.97 33.60 36.34 31.30 33.74 C 27.49 28.59 20.47 28.46 14.67 28.92 C 17.48 25.69 19.97 22.20 22.51 18.76 C 24.80 20.63 29.41 25.92 31.22 21.02 C 29.85 19.09 27.95 17.63 25.98 16.37 M 51.44 24.68 C 46.34 25.81 40.16 27.84 38.19 33.21 C 36.99 36.29 40.20 40.73 43.47 38.38 C 50.52 33.75 60.05 33.52 67.47 37.38 C 71.32 39.53 75.73 34.24 73.16 30.76 C 68.36 24.04 58.95 23.22 51.44 24.68 M 63.20 42.05 C 58.49 42.34 58.51 49.61 63.00 50.17 C 66.73 50.30 72.98 51.76 74.30 46.98 C 75.25 41.12 67.09 41.05 63.20 42.05 Z" />
<path fill="#b05821" opacity="1.00" d=" M 46.40 19.34 C 47.94 13.93 52.60 9.91 58.20 9.24 C 61.39 8.98 64.49 10.00 66.96 12.01 C 63.95 14.50 59.97 13.84 56.40 14.50 C 53.01 16.12 50.71 20.26 46.40 19.34 Z" />
<path fill="#b05821" opacity="1.00" d=" M 15.41 17.00 C 17.33 14.59 20.90 15.12 23.62 15.38 C 24.21 15.63 25.39 16.12 25.98 16.37 C 27.95 17.63 29.85 19.09 31.22 21.02 C 29.41 25.92 24.80 20.63 22.51 18.76 L 21.48 18.80 C 19.44 18.41 15.71 20.01 15.41 17.00 Z" />
<path fill="#efa354" opacity="1.00" d=" M 12.77 29.73 C 14.87 25.74 16.84 20.20 21.48 18.80 L 22.51 18.76 C 19.97 22.20 17.48 25.69 14.67 28.92 C 14.20 29.12 13.24 29.53 12.77 29.73 Z" />
<path fill="#1f1f1f" opacity="1.00" d=" M 51.44 24.68 C 58.95 23.22 68.36 24.04 73.16 30.76 C 75.73 34.24 71.32 39.53 67.47 37.38 C 60.05 33.52 50.52 33.75 43.47 38.38 C 40.20 40.73 36.99 36.29 38.19 33.21 C 40.16 27.84 46.34 25.81 51.44 24.68 M 43.56 28.60 C 41.22 29.85 38.89 32.04 39.11 34.94 C 38.80 37.20 41.55 39.12 43.32 37.36 C 49.48 32.96 57.63 32.96 64.69 34.83 C 64.09 31.32 66.71 29.21 69.73 28.24 C 61.74 23.69 51.49 24.16 43.56 28.60 Z" />
<path fill="#ffffff" opacity="1.00" d=" M 43.56 28.60 C 51.49 24.16 61.74 23.69 69.73 28.24 C 66.71 29.21 64.09 31.32 64.69 34.83 C 57.63 32.96 49.48 32.96 43.32 37.36 C 41.55 39.12 38.80 37.20 39.11 34.94 C 38.89 32.04 41.22 29.85 43.56 28.60 Z" />
<path fill="#1f1f1f" opacity="1.00" d=" M 14.67 28.92 C 20.47 28.46 27.49 28.59 31.30 33.74 C 33.60 36.34 30.36 40.97 27.20 39.06 C 21.60 36.87 14.03 35.65 9.58 40.70 C 9.47 40.67 9.24 40.61 9.13 40.59 C 7.51 40.26 5.35 39.83 5.29 37.77 C 4.83 33.41 9.49 31.30 12.77 29.73 C 13.24 29.53 14.20 29.12 14.67 28.92 M 13.10 30.73 C 9.91 31.64 5.44 33.86 6.10 37.86 C 5.95 39.91 8.62 39.88 9.70 38.81 C 14.25 35.76 19.99 35.87 25.13 37.10 C 25.27 35.99 25.42 34.88 25.57 33.77 C 26.43 33.40 28.15 32.67 29.00 32.30 C 24.84 29.27 19.64 29.57 14.76 29.67 C 14.35 29.94 13.51 30.47 13.10 30.73 Z" />
<path fill="#ffffff" opacity="1.00" d=" M 14.76 29.67 C 19.64 29.57 24.84 29.27 29.00 32.30 C 28.15 32.67 26.43 33.40 25.57 33.77 C 25.42 34.88 25.27 35.99 25.13 37.10 C 19.99 35.87 14.25 35.76 9.70 38.81 C 8.62 39.88 5.95 39.91 6.10 37.86 C 5.44 33.86 9.91 31.64 13.10 30.73 C 13.51 30.47 14.35 29.94 14.76 29.67 Z" />
<path fill="#efa354" opacity="1.00" d=" M 9.13 40.59 C 9.24 40.61 9.47 40.67 9.58 40.70 C 9.65 41.45 9.80 42.97 9.88 43.72 C 10.00 45.28 10.10 46.84 10.17 48.40 C 10.25 50.45 10.29 52.50 10.22 54.55 L 9.58 54.90 C 8.99 50.15 9.02 45.36 9.13 40.59 Z" />
<path fill="#efa354" opacity="1.00" d=" M 63.20 42.05 C 67.09 41.05 75.25 41.12 74.30 46.98 C 72.98 51.76 66.73 50.30 63.00 50.17 C 58.51 49.61 58.49 42.34 63.20 42.05 Z" />
<path fill="#ec903c" opacity="1.00" d=" M 9.88 43.72 C 14.49 42.35 20.20 41.77 22.34 47.18 C 18.62 49.53 14.28 49.75 10.17 48.40 C 10.10 46.84 10.00 45.28 9.88 43.72 Z" />
<path fill="#ca5569" opacity="1.00" d=" M 10.22 54.55 C 17.56 50.99 26.46 51.90 33.14 56.47 C 29.22 56.81 25.34 56.02 21.51 55.27 C 21.38 59.82 21.27 64.38 21.21 68.93 C 20.60 68.83 19.38 68.62 18.77 68.52 C 18.65 64.04 18.65 59.55 18.67 55.06 C 16.24 55.66 13.80 56.23 11.43 57.02 C 10.29 58.29 9.29 59.67 8.26 61.02 C 7.32 59.73 6.38 58.44 5.44 57.15 C 6.83 56.40 8.21 55.65 9.58 54.90 L 10.22 54.55 Z" />
<path fill="#7d180f" opacity="1.00" d=" M 46.84 58.07 C 49.36 57.09 51.38 55.23 53.62 53.77 C 52.82 56.70 50.73 58.84 48.24 60.44 C 47.82 65.09 47.33 69.80 45.55 74.16 C 42.54 67.71 39.23 61.22 33.79 56.45 C 38.32 55.60 42.35 59.50 46.84 58.07 Z" />
<path fill="#e15f76" opacity="1.00" d=" M 11.43 57.02 C 13.80 56.23 16.24 55.66 18.67 55.06 C 18.65 59.55 18.65 64.04 18.77 68.52 C 18.19 68.98 17.03 69.89 16.45 70.35 C 16.93 70.40 17.88 70.51 18.36 70.56 C 17.92 70.98 17.04 71.82 16.61 72.24 C 13.87 68.46 11.16 64.67 8.26 61.02 C 9.29 59.67 10.29 58.29 11.43 57.02 C 12.36 57.73 13.30 58.44 14.24 59.15 C 13.39 60.39 12.54 61.64 11.70 62.89 C 12.80 62.11 13.90 61.33 14.99 60.55 C 16.08 61.34 17.17 62.13 18.26 62.92 C 17.41 61.64 16.56 60.37 15.71 59.10 C 16.55 58.55 17.38 58.00 18.22 57.45 C 15.94 57.52 13.67 57.38 11.43 57.02 Z" />
<path fill="#e15f76" opacity="1.00" d=" M 21.51 55.27 C 25.34 56.02 29.22 56.81 33.14 56.47 L 33.79 56.45 C 39.23 61.22 42.54 67.71 45.55 74.16 C 44.20 77.59 43.17 81.13 41.92 84.60 C 41.70 85.07 41.25 86.01 41.03 86.48 C 40.36 87.78 39.62 89.03 38.89 90.30 C 34.46 87.33 30.22 84.09 25.98 80.87 C 26.27 76.43 27.51 69.55 21.21 68.93 C 21.27 64.38 21.38 59.82 21.51 55.27 M 22.86 58.36 C 23.70 59.09 24.38 59.97 25.19 60.73 C 24.43 61.79 23.71 62.88 22.98 63.96 C 24.02 63.25 25.07 62.55 26.11 61.83 C 27.10 62.54 28.06 63.28 29.05 63.98 C 28.36 62.71 27.67 61.45 26.98 60.19 C 27.77 59.59 28.56 59.00 29.35 58.41 C 27.19 58.77 25.01 58.73 22.86 58.36 M 32.00 66.98 C 32.75 67.98 33.49 68.97 34.24 69.97 C 33.49 70.96 32.74 71.94 32.00 72.93 C 33.27 72.25 34.54 71.56 35.81 70.88 C 36.40 71.65 36.98 72.43 37.57 73.21 C 37.29 71.03 37.28 68.83 37.58 66.64 C 36.99 67.43 36.41 68.23 35.83 69.02 C 34.56 68.33 33.28 67.65 32.00 66.98 M 33.37 77.72 C 33.91 78.78 34.45 79.85 34.99 80.91 C 34.67 81.99 34.36 83.07 34.04 84.16 C 34.79 83.33 35.54 82.50 36.28 81.67 C 37.11 82.75 37.94 83.83 38.75 84.92 C 38.12 82.61 37.99 80.24 38.93 77.99 C 38.08 78.73 37.22 79.46 36.37 80.19 C 35.37 79.36 34.37 78.54 33.37 77.72 Z" />
<path fill="#ffffff" opacity="1.00" d=" M 11.43 57.02 C 13.67 57.38 15.94 57.52 18.22 57.45 C 17.38 58.00 16.55 58.55 15.71 59.10 C 16.56 60.37 17.41 61.64 18.26 62.92 C 17.17 62.13 16.08 61.34 14.99 60.55 C 13.90 61.33 12.80 62.11 11.70 62.89 C 12.54 61.64 13.39 60.39 14.24 59.15 C 13.30 58.44 12.36 57.73 11.43 57.02 Z" />
<path fill="#ffffff" opacity="1.00" d=" M 22.86 58.36 C 25.01 58.73 27.19 58.77 29.35 58.41 C 28.56 59.00 27.77 59.59 26.98 60.19 C 27.67 61.45 28.36 62.71 29.05 63.98 C 28.06 63.28 27.10 62.54 26.11 61.83 C 25.07 62.55 24.02 63.25 22.98 63.96 C 23.71 62.88 24.43 61.79 25.19 60.73 C 24.38 59.97 23.70 59.09 22.86 58.36 Z" />
<path fill="#ffffff" opacity="1.00" d=" M 32.00 66.98 C 33.28 67.65 34.56 68.33 35.83 69.02 C 36.41 68.23 36.99 67.43 37.58 66.64 C 37.28 68.83 37.29 71.03 37.57 73.21 C 36.98 72.43 36.40 71.65 35.81 70.88 C 34.54 71.56 33.27 72.25 32.00 72.93 C 32.74 71.94 33.49 70.96 34.24 69.97 C 33.49 68.97 32.75 67.98 32.00 66.98 Z" />
<path fill="#efa354" opacity="1.00" d=" M 16.45 70.35 C 17.03 69.89 18.19 68.98 18.77 68.52 C 19.38 68.62 20.60 68.83 21.21 68.93 C 27.51 69.55 26.27 76.43 25.98 80.87 C 25.20 80.46 24.43 80.05 23.66 79.65 C 24.30 76.87 24.35 74.00 24.41 71.16 C 22.39 70.97 20.38 70.78 18.36 70.56 C 17.88 70.51 16.93 70.40 16.45 70.35 Z" />
<path fill="#ec903c" opacity="1.00" d=" M 18.36 70.56 C 20.38 70.78 22.39 70.97 24.41 71.16 C 24.35 74.00 24.30 76.87 23.66 79.65 C 22.02 82.77 20.01 86.91 15.99 87.17 C 12.38 87.58 9.55 83.61 10.42 80.25 C 11.05 76.70 14.18 74.56 16.61 72.24 C 17.04 71.82 17.92 70.98 18.36 70.56 M 19.47 73.53 C 16.67 74.83 14.27 77.02 12.62 79.62 C 11.01 82.48 14.61 85.99 17.49 84.55 C 20.47 82.41 22.32 78.73 22.60 75.11 C 22.71 73.47 20.71 72.85 19.47 73.53 Z" />
<path fill="#fee076" opacity="1.00" d=" M 19.47 73.53 C 20.71 72.85 22.71 73.47 22.60 75.11 C 22.32 78.73 20.47 82.41 17.49 84.55 C 14.61 85.99 11.01 82.48 12.62 79.62 C 14.27 77.02 16.67 74.83 19.47 73.53 Z" />
<path fill="#ffffff" opacity="1.00" d=" M 33.37 77.72 C 34.37 78.54 35.37 79.36 36.37 80.19 C 37.22 79.46 38.08 78.73 38.93 77.99 C 37.99 80.24 38.12 82.61 38.75 84.92 C 37.94 83.83 37.11 82.75 36.28 81.67 C 35.54 82.50 34.79 83.33 34.04 84.16 C 34.36 83.07 34.67 81.99 34.99 80.91 C 34.45 79.85 33.91 78.78 33.37 77.72 Z" />
</svg>
