<?xml version="1.0" encoding="UTF-8" ?>
<!DOCTYPE svg PUBLIC "-//W3C//DTD SVG 1.1//EN" "http://www.w3.org/Graphics/SVG/1.1/DTD/svg11.dtd">
<svg width="96pt" height="96pt" viewBox="0 0 96 96" version="1.1" xmlns="http://www.w3.org/2000/svg">
<g id="#f0ab53ff">
<path fill="#f0ab53" opacity="1.00" d=" M 26.71 10.73 C 40.09 2.95 57.98 3.05 70.90 11.77 C 69.55 12.43 68.22 13.12 66.93 13.88 C 66.96 13.45 67.02 12.59 67.05 12.15 C 56.42 6.53 43.23 5.92 32.18 10.69 C 15.05 17.39 4.58 37.16 8.05 55.13 C 9.95 67.09 17.82 77.75 28.32 83.64 C 36.14 87.86 45.32 89.75 54.13 88.29 C 67.64 86.35 79.97 77.11 85.30 64.49 C 86.16 62.49 86.89 60.43 87.49 58.34 C 89.82 48.30 88.74 37.34 83.60 28.32 C 81.08 23.41 76.83 19.77 73.52 15.44 C 74.32 15.59 75.91 15.90 76.70 16.05 C 85.81 23.95 91.31 35.98 90.95 48.08 C 91.31 58.92 86.86 69.64 79.50 77.52 C 71.47 86.08 59.81 91.36 48.00 90.95 C 33.80 91.37 19.90 83.63 12.19 71.81 C 6.35 63.11 3.97 52.20 5.52 41.84 C 7.27 28.93 15.39 17.14 26.71 10.73 Z" />
</g>
<g id="#fded78ff">
<path fill="#fded78" opacity="1.00" d=" M 32.18 10.69 C 43.23 5.92 56.42 6.53 67.05 12.15 C 67.02 12.59 66.96 13.45 66.93 13.88 C 66.22 15.63 67.52 16.69 68.70 17.71 C 70.28 16.90 71.87 16.11 73.52 15.44 C 76.83 19.77 81.08 23.41 83.60 28.32 C 88.74 37.34 89.82 48.30 87.49 58.34 C 86.64 57.61 85.79 56.90 84.94 56.18 C 75.33 58.12 64.66 57.28 56.37 51.68 C 52.80 49.49 49.79 46.55 47.09 43.38 C 49.64 42.75 52.17 42.01 54.54 40.85 C 54.76 39.72 55.00 37.34 53.14 37.72 C 45.14 37.68 37.12 37.52 29.12 37.81 C 30.60 33.26 28.47 28.62 29.05 24.00 C 29.50 19.45 31.04 15.10 32.18 10.69 M 40.35 14.26 C 39.43 15.56 40.37 17.67 42.01 17.66 C 44.10 17.19 45.68 15.28 47.90 15.23 C 50.51 15.22 52.84 16.57 55.18 17.55 C 56.23 16.51 56.63 15.13 56.70 13.69 C 53.62 12.34 50.46 10.42 46.96 10.94 C 44.55 11.48 42.12 12.48 40.35 14.26 M 64.34 38.39 C 63.34 40.13 65.32 41.26 66.73 41.71 C 66.50 42.74 66.27 43.77 66.06 44.81 C 68.82 45.35 71.25 43.62 70.61 40.64 C 75.07 40.59 79.56 41.00 83.99 40.34 C 83.77 39.82 83.32 38.77 83.10 38.25 C 79.13 37.42 75.04 38.13 71.02 37.97 C 68.80 38.01 66.47 37.57 64.34 38.39 Z" />
</g>
<g id="#ffcd73ff">
<path fill="#ffcd73" opacity="1.00" d=" M 8.05 55.13 C 4.58 37.16 15.05 17.39 32.18 10.69 C 31.04 15.10 29.50 19.45 29.05 24.00 C 28.47 28.62 30.60 33.26 29.12 37.81 L 28.76 39.30 L 29.06 40.11 C 29.68 41.82 30.25 43.55 30.64 45.32 L 30.69 45.59 C 31.03 48.53 33.47 50.56 35.05 52.88 C 39.09 58.58 44.95 62.71 51.12 65.82 C 56.62 68.70 63.01 68.30 69.01 68.14 C 74.69 68.15 79.75 65.23 85.30 64.49 C 79.97 77.11 67.64 86.35 54.13 88.29 C 45.32 89.75 36.14 87.86 28.32 83.64 C 17.82 77.75 9.95 67.09 8.05 55.13 Z" />
</g>
<g id="#a53f0fff">
<path fill="#a53f0f" opacity="1.00" d=" M 40.35 14.26 C 42.12 12.48 44.55 11.48 46.96 10.94 C 50.46 10.42 53.62 12.34 56.70 13.69 C 56.63 15.13 56.23 16.51 55.18 17.55 C 52.84 16.57 50.51 15.22 47.90 15.23 C 45.68 15.28 44.10 17.19 42.01 17.66 C 40.37 17.67 39.43 15.56 40.35 14.26 Z" />
</g>
<g id="#a5400fff">
<path fill="#a5400f" opacity="1.00" d=" M 66.93 13.88 C 68.22 13.12 69.55 12.43 70.90 11.77 C 75.13 10.59 79.86 12.00 83.07 14.90 C 84.09 16.43 82.41 17.56 81.34 18.29 C 79.86 17.43 78.40 16.43 76.70 16.05 C 75.91 15.90 74.32 15.59 73.52 15.44 C 71.87 16.11 70.28 16.90 68.70 17.71 C 67.52 16.69 66.22 15.63 66.93 13.88 Z" />
</g>
<g id="#16171cff">
<path fill="#16171c" opacity="1.00" d=" M 29.12 37.81 C 37.12 37.52 45.14 37.68 53.14 37.72 C 55.00 37.34 54.76 39.72 54.54 40.85 C 48.85 40.65 43.16 40.80 37.47 40.73 C 37.21 42.89 36.79 45.85 34.07 46.12 C 33.22 45.99 31.53 45.72 30.69 45.59 L 30.64 45.32 C 32.03 44.14 32.71 42.58 32.62 40.76 C 31.43 40.56 30.24 40.35 29.06 40.11 L 28.76 39.30 L 29.12 37.81 Z" />
</g>
<g id="#12131aff">
<path fill="#12131a" opacity="1.00" d=" M 64.34 38.39 C 66.47 37.57 68.80 38.01 71.02 37.97 C 75.04 38.13 79.13 37.42 83.10 38.25 C 83.32 38.77 83.77 39.82 83.99 40.34 C 79.56 41.00 75.07 40.59 70.61 40.64 C 71.25 43.62 68.82 45.35 66.06 44.81 C 66.27 43.77 66.50 42.74 66.73 41.71 C 65.32 41.26 63.34 40.13 64.34 38.39 Z" />
</g>
<g id="#6f6c63ff">
<path fill="#6f6c63" opacity="1.00" d=" M 29.06 40.11 C 30.24 40.35 31.43 40.56 32.62 40.76 C 32.71 42.58 32.03 44.14 30.64 45.32 C 30.25 43.55 29.68 41.82 29.06 40.11 Z" />
</g>
<g id="#fee276ff">
<path fill="#fee276" opacity="1.00" d=" M 37.47 40.73 C 43.16 40.80 48.85 40.65 54.54 40.85 C 52.17 42.01 49.64 42.75 47.09 43.38 C 49.79 46.55 52.80 49.49 56.37 51.68 C 64.66 57.28 75.33 58.12 84.94 56.18 C 85.79 56.90 86.64 57.61 87.49 58.34 C 86.89 60.43 86.16 62.49 85.30 64.49 C 79.75 65.23 74.69 68.15 69.01 68.14 C 63.01 68.30 56.62 68.70 51.12 65.82 C 44.95 62.71 39.09 58.58 35.05 52.88 C 33.47 50.56 31.03 48.53 30.69 45.59 C 31.53 45.72 33.22 45.99 34.07 46.12 C 36.79 45.85 37.21 42.89 37.47 40.73 M 51.08 60.03 C 51.44 61.46 51.50 63.14 52.73 64.17 C 56.55 68.34 65.41 66.12 65.13 59.85 C 63.40 61.80 61.84 64.39 59.01 64.73 C 55.50 65.43 53.07 62.40 51.08 60.03 Z" />
</g>
<g id="#966335ff">
<path fill="#966335" opacity="1.00" d=" M 51.08 60.03 C 53.07 62.40 55.50 65.43 59.01 64.73 C 61.84 64.39 63.40 61.80 65.13 59.85 C 65.41 66.12 56.55 68.34 52.73 64.17 C 51.50 63.14 51.44 61.46 51.08 60.03 Z" />
</g>
</svg>
