<?xml version="1.0" encoding="UTF-8" ?>
<!DOCTYPE svg PUBLIC "-//W3C//DTD SVG 1.1//EN" "http://www.w3.org/Graphics/SVG/1.1/DTD/svg11.dtd">
<svg width="96pt" height="96pt" viewBox="0 0 96 96" version="1.1" xmlns="http://www.w3.org/2000/svg">
<g id="#ebad54fe">
<path fill="#ebad54" opacity="1.00" d=" M 30.25 12.21 C 45.65 4.52 65.31 8.76 76.95 21.19 C 80.85 22.57 88.15 21.84 87.98 28.01 C 85.08 38.12 87.90 48.54 86.53 58.83 C 83.05 57.22 79.60 55.45 75.93 54.33 C 72.47 54.52 68.38 57.79 69.31 61.60 C 72.26 68.56 82.03 68.31 84.48 75.71 L 83.24 75.94 C 79.23 70.46 72.24 69.13 68.03 63.94 C 66.39 62.63 63.93 63.31 61.97 63.03 C 61.30 65.13 61.90 67.39 61.83 69.56 C 61.16 67.28 60.81 64.93 60.33 62.62 C 52.16 61.01 43.88 59.56 35.60 58.70 C 35.08 59.47 34.59 60.27 34.15 61.10 C 34.13 60.38 34.10 58.94 34.09 58.22 C 30.18 57.54 26.26 56.96 22.37 56.20 C 21.49 57.86 20.77 59.59 20.04 61.32 C 23.03 54.49 14.53 54.97 10.24 54.41 C 11.47 59.44 12.57 65.23 16.99 68.50 C 16.63 69.38 16.25 70.24 15.83 71.09 L 15.21 71.82 C 9.91 65.23 8.37 56.81 6.21 48.92 C 8.19 37.81 9.67 26.57 11.79 15.50 C 15.46 7.77 24.69 16.19 30.25 12.21 M 33.14 14.46 C 46.43 16.32 59.69 18.45 72.90 20.81 C 65.45 13.87 55.14 10.30 44.99 11.17 C 41.12 11.56 35.62 11.12 33.14 14.46 M 13.21 18.01 C 11.41 27.99 10.09 38.06 8.34 48.04 C 7.37 52.20 12.23 53.14 15.27 53.41 C 22.92 53.95 30.48 56.61 38.13 56.29 C 42.15 58.04 46.53 58.57 50.88 58.26 C 55.77 60.48 61.33 60.35 66.55 61.28 C 67.71 54.36 75.82 49.91 81.74 54.54 C 83.38 46.08 84.70 37.54 85.83 29.00 C 86.34 26.52 84.42 24.34 81.96 24.23 C 60.95 21.05 39.98 17.54 18.97 14.32 C 16.31 13.64 13.42 15.08 13.21 18.01 M 84.39 49.35 C 84.00 51.52 83.69 53.71 83.49 55.92 C 85.80 55.06 84.46 51.40 84.86 49.38 L 84.39 49.35 Z" />
<path fill="#ebad54" opacity="1.00" d=" M 32.12 72.04 C 31.79 70.31 31.96 68.51 32.79 66.94 C 33.86 68.59 33.78 70.80 32.12 72.04 Z" />
<path fill="#ebad54" opacity="1.00" d=" M 32.05 82.61 C 41.92 86.15 52.38 86.01 62.28 82.70 C 62.33 83.13 62.43 83.98 62.48 84.41 C 53.32 89.17 41.42 88.78 31.98 84.60 C 32.00 84.10 32.03 83.10 32.05 82.61 Z" />
</g>
<g id="#fde776ff">
<path fill="#fde776" opacity="1.00" d=" M 33.14 14.46 C 35.62 11.12 41.12 11.56 44.99 11.17 C 55.14 10.30 65.45 13.87 72.90 20.81 C 59.69 18.45 46.43 16.32 33.14 14.46 Z" />
<path fill="#fde776" opacity="1.00" d=" M 13.21 18.01 C 13.42 15.08 16.31 13.64 18.97 14.32 C 39.98 17.54 60.95 21.05 81.96 24.23 C 84.42 24.34 86.34 26.52 85.83 29.00 C 84.70 37.54 83.38 46.08 81.74 54.54 C 75.82 49.91 67.71 54.36 66.55 61.28 C 61.33 60.35 55.77 60.48 50.88 58.26 C 53.11 57.97 55.37 57.60 57.44 56.65 C 61.73 54.49 65.69 50.32 65.19 45.18 C 64.89 42.49 61.53 42.09 59.57 43.26 C 51.73 46.91 42.37 45.91 34.79 42.11 C 31.70 40.72 29.24 36.66 25.43 38.41 C 24.53 41.68 25.70 45.06 27.47 47.81 C 30.01 51.68 33.90 54.51 38.13 56.29 C 30.48 56.61 22.92 53.95 15.27 53.41 C 12.23 53.14 7.37 52.20 8.34 48.04 C 10.09 38.06 11.41 27.99 13.21 18.01 M 22.36 21.40 C 19.04 22.35 15.79 25.66 16.71 29.32 C 20.13 30.92 20.51 26.03 23.27 25.35 C 27.90 23.44 33.79 25.21 36.37 29.54 C 37.28 31.24 36.34 34.51 39.05 34.57 C 41.71 33.86 40.67 30.48 40.29 28.53 C 37.37 21.95 29.00 19.07 22.36 21.40 M 55.84 31.76 C 54.91 33.31 53.89 35.20 55.11 36.91 C 55.68 36.86 56.83 36.74 57.40 36.69 C 60.91 27.93 75.82 31.35 75.50 40.69 C 76.92 41.85 79.39 41.00 78.83 38.92 C 78.99 28.01 62.23 23.74 55.84 31.76 Z" />
<path fill="#fde776" opacity="1.00" d=" M 84.39 49.35 L 84.86 49.38 C 84.46 51.40 85.80 55.06 83.49 55.92 C 83.69 53.71 84.00 51.52 84.39 49.35 Z" />
<path fill="#fde776" opacity="1.00" d=" M 10.24 54.41 C 14.53 54.97 23.03 54.49 20.04 61.32 C 19.07 63.73 18.02 66.12 16.99 68.50 C 12.57 65.23 11.47 59.44 10.24 54.41 Z" />
<path fill="#fde776" opacity="1.00" d=" M 69.31 61.60 C 68.38 57.79 72.47 54.52 75.93 54.33 C 79.60 55.45 83.05 57.22 86.53 58.83 C 85.08 63.64 87.07 68.01 90.05 71.88 C 88.17 73.12 86.28 74.34 84.48 75.71 C 82.03 68.31 72.26 68.56 69.31 61.60 Z" />
<path fill="#fde776" opacity="1.00" d=" M 35.60 58.70 C 43.88 59.56 52.16 61.01 60.33 62.62 C 60.81 64.93 61.16 67.28 61.83 69.56 C 62.73 73.88 62.54 78.32 62.28 82.70 C 52.38 86.01 41.92 86.15 32.05 82.61 C 32.01 79.08 32.00 75.56 32.12 72.04 C 33.78 70.80 33.86 68.59 32.79 66.94 C 33.16 64.98 33.60 63.02 34.15 61.10 C 34.59 60.27 35.08 59.47 35.60 58.70 M 39.40 63.27 C 36.47 65.94 33.44 69.47 34.29 73.75 C 36.91 75.59 38.99 72.34 41.48 71.83 C 46.76 70.11 52.17 72.47 56.00 76.09 C 58.99 75.13 58.16 70.89 56.75 68.87 C 55.42 62.98 47.88 60.33 42.48 62.10 C 41.22 61.58 40.19 61.97 39.40 63.27 Z" />
</g>
<g id="#1f1f1fff">
<path fill="#1f1f1f" opacity="1.00" d=" M 22.36 21.40 C 29.00 19.07 37.37 21.95 40.29 28.53 C 40.67 30.48 41.71 33.86 39.05 34.57 C 36.34 34.51 37.28 31.24 36.37 29.54 C 33.79 25.21 27.90 23.44 23.27 25.35 C 20.51 26.03 20.13 30.92 16.71 29.32 C 15.79 25.66 19.04 22.35 22.36 21.40 Z" />
<path fill="#1f1f1f" opacity="1.00" d=" M 55.84 31.76 C 62.23 23.74 78.99 28.01 78.83 38.92 C 79.39 41.00 76.92 41.85 75.50 40.69 C 75.82 31.35 60.91 27.93 57.40 36.69 C 56.83 36.74 55.68 36.86 55.11 36.91 C 53.89 35.20 54.91 33.31 55.84 31.76 Z" />
</g>
<g id="#7d180fff">
<path fill="#7d180f" opacity="1.00" d=" M 25.43 38.41 C 29.24 36.66 31.70 40.72 34.79 42.11 C 42.37 45.91 51.73 46.91 59.57 43.26 C 61.53 42.09 64.89 42.49 65.19 45.18 C 65.69 50.32 61.73 54.49 57.44 56.65 L 57.32 55.97 C 57.08 52.75 53.46 51.41 51.05 49.93 C 44.43 47.11 36.68 44.35 29.59 47.04 C 29.06 47.23 28.00 47.62 27.47 47.81 C 25.70 45.06 24.53 41.68 25.43 38.41 Z" />
<path fill="#7d180f" opacity="1.00" d=" M 34.29 73.75 C 33.44 69.47 36.47 65.94 39.40 63.27 C 40.05 69.01 47.54 70.49 52.35 70.05 C 53.86 69.85 55.30 69.30 56.75 68.87 C 58.16 70.89 58.99 75.13 56.00 76.09 C 52.17 72.47 46.76 70.11 41.48 71.83 C 38.99 72.34 36.91 75.59 34.29 73.75 Z" />
</g>
<g id="#e6664aff">
<path fill="#e6664a" opacity="1.00" d=" M 29.59 47.04 C 36.68 44.35 44.43 47.11 51.05 49.93 C 53.46 51.41 57.08 52.75 57.32 55.97 C 48.23 52.54 38.80 50.11 29.59 47.04 Z" />
<path fill="#e6664a" opacity="1.00" d=" M 39.40 63.27 C 40.19 61.97 41.22 61.58 42.48 62.10 C 45.78 64.74 49.18 67.25 52.35 70.05 C 47.54 70.49 40.05 69.01 39.40 63.27 Z" />
</g>
<g id="#e15528fe">
<path fill="#e15528" opacity="1.00" d=" M 27.47 47.81 C 28.00 47.62 29.06 47.23 29.59 47.04 C 38.80 50.11 48.23 52.54 57.32 55.97 L 57.44 56.65 C 55.37 57.60 53.11 57.97 50.88 58.26 C 46.53 58.57 42.15 58.04 38.13 56.29 C 33.90 54.51 30.01 51.68 27.47 47.81 Z" />
<path fill="#e15528" opacity="1.00" d=" M 42.48 62.10 C 47.88 60.33 55.42 62.98 56.75 68.87 C 55.30 69.30 53.86 69.85 52.35 70.05 C 49.18 67.25 45.78 64.74 42.48 62.10 Z" />
</g>
<g id="#43b4e4ff">
<path fill="#43b4e4" opacity="1.00" d=" M 22.37 56.20 C 26.26 56.96 30.18 57.54 34.09 58.22 C 34.10 58.94 34.13 60.38 34.15 61.10 C 33.60 63.02 33.16 64.98 32.79 66.94 C 31.96 68.51 31.79 70.31 32.12 72.04 C 32.00 75.56 32.01 79.08 32.05 82.61 C 32.03 83.10 32.00 84.10 31.98 84.60 C 30.28 88.02 25.68 86.39 23.87 83.92 C 21.42 80.69 16.35 82.36 14.11 78.87 C 13.06 77.41 10.90 77.41 9.88 75.95 C 9.67 73.25 12.79 73.88 14.54 73.43 C 15.03 72.68 15.46 71.90 15.83 71.09 C 16.25 70.24 16.63 69.38 16.99 68.50 C 18.02 66.12 19.07 63.73 20.04 61.32 C 20.77 59.59 21.49 57.86 22.37 56.20 Z" />
<path fill="#43b4e4" opacity="1.00" d=" M 61.97 63.03 C 63.93 63.31 66.39 62.63 68.03 63.94 C 72.24 69.13 79.23 70.46 83.24 75.94 L 84.05 76.65 C 80.47 77.17 79.34 81.35 75.54 81.35 C 70.82 81.48 66.94 90.13 62.48 84.41 C 62.43 83.98 62.33 83.13 62.28 82.70 C 62.54 78.32 62.73 73.88 61.83 69.56 C 61.90 67.39 61.30 65.13 61.97 63.03 Z" />
<path fill="#43b4e4" opacity="1.00" d=" M 5.21 71.00 C 7.24 65.19 13.46 73.05 7.38 73.70 C 6.26 73.19 5.53 72.17 5.21 71.00 Z" />
</g>
</svg>
