<?xml version="1.0" encoding="UTF-8" ?>
<!DOCTYPE svg PUBLIC "-//W3C//DTD SVG 1.1//EN" "http://www.w3.org/Graphics/SVG/1.1/DTD/svg11.dtd">
<svg width="96pt" height="96pt" viewBox="0 0 96 96" version="1.1" xmlns="http://www.w3.org/2000/svg">
<path fill="#f0a657" opacity="1.00" d=" M 28.52 10.00 C 40.45 3.20 56.01 3.53 68.02 10.02 C 67.32 10.67 66.61 11.33 65.91 11.98 C 54.93 5.92 41.59 6.70 30.26 11.39 C 29.83 11.04 28.96 10.35 28.52 10.00 Z" />
<path fill="#fde877" opacity="1.00" d=" M 30.26 11.39 C 41.59 6.70 54.93 5.92 65.91 11.98 C 65.90 14.11 65.95 16.23 66.19 18.35 C 67.60 16.67 68.52 14.68 69.69 12.84 C 73.75 15.92 77.38 19.49 81.06 22.99 C 74.28 21.26 66.72 20.11 60.16 23.24 C 57.03 24.85 53.66 27.28 53.06 31.00 C 53.32 34.41 57.10 37.23 60.25 35.15 C 68.93 30.85 79.06 32.74 87.10 37.53 C 89.45 45.41 89.11 53.97 86.17 61.65 C 77.98 61.07 69.71 63.39 61.61 61.42 C 51.59 58.88 43.24 51.61 38.28 42.68 C 36.37 38.86 32.21 36.98 30.16 33.30 C 33.60 34.04 36.43 36.65 39.91 37.11 C 44.23 35.95 43.79 29.67 40.74 27.28 C 34.04 21.39 24.42 20.44 15.92 21.84 C 19.58 19.00 23.03 15.91 26.45 12.80 C 27.37 14.42 28.03 16.16 28.89 17.81 C 31.62 17.11 29.99 13.46 30.26 11.39 M 76.20 37.03 C 73.44 37.61 69.61 39.44 70.81 42.91 C 74.54 47.09 81.62 47.30 86.03 44.08 C 87.83 42.91 87.59 40.19 86.00 38.96 C 83.26 36.86 79.52 36.33 76.20 37.03 Z" />
<path fill="#ac400f" opacity="1.00" d=" M 16.80 15.06 C 15.77 8.78 24.49 5.81 28.52 10.00 C 28.96 10.35 29.83 11.04 30.26 11.39 C 29.99 13.46 31.62 17.11 28.89 17.81 C 28.03 16.16 27.37 14.42 26.45 12.80 C 26.17 12.57 25.61 12.12 25.32 11.89 C 22.08 9.36 19.36 13.53 16.80 15.06 Z" />
<path fill="#ac400f" opacity="1.00" d=" M 68.02 10.02 C 71.53 5.54 81.01 9.18 79.08 14.97 C 76.68 13.28 73.90 9.41 70.71 11.90 C 70.46 12.13 69.95 12.61 69.69 12.84 C 68.52 14.68 67.60 16.67 66.19 18.35 C 65.95 16.23 65.90 14.11 65.91 11.98 C 66.61 11.33 67.32 10.67 68.02 10.02 Z" />
<path fill="#f0a657" opacity="1.00" d=" M 13.05 23.42 C 16.04 18.61 20.33 14.56 25.32 11.89 C 25.61 12.12 26.17 12.57 26.45 12.80 C 23.03 15.91 19.58 19.00 15.92 21.84 C 14.96 22.36 14.00 22.89 13.05 23.42 Z" />
<path fill="#f0a657" opacity="1.00" d=" M 69.69 12.84 C 69.95 12.61 70.46 12.13 70.71 11.90 C 76.00 14.65 80.78 18.95 83.48 24.31 C 82.88 23.98 81.67 23.32 81.06 22.99 C 77.38 19.49 73.75 15.92 69.69 12.84 Z" />
<path fill="#1f1f1f" opacity="1.00" d=" M 15.92 21.84 C 24.42 20.44 34.04 21.39 40.74 27.28 C 43.79 29.67 44.23 35.95 39.91 37.11 C 36.43 36.65 33.60 34.04 30.16 33.30 C 23.06 31.39 15.97 34.00 9.30 36.25 C 8.83 35.76 7.90 34.79 7.43 34.30 C 4.23 29.72 9.33 25.45 13.05 23.42 C 14.00 22.89 14.96 22.36 15.92 21.84 M 16.33 23.36 C 14.12 23.95 12.11 25.11 10.20 26.34 C 13.59 26.66 15.96 28.86 15.77 32.38 C 23.71 30.45 32.35 31.05 39.15 35.85 C 43.06 35.21 42.28 30.11 39.81 28.21 C 33.45 22.78 24.29 21.61 16.33 23.36 Z" />
<path fill="#1f1f1f" opacity="1.00" d=" M 60.16 23.24 C 66.72 20.11 74.28 21.26 81.06 22.99 C 81.67 23.32 82.88 23.98 83.48 24.31 C 87.09 26.57 91.86 30.93 88.98 35.51 C 88.51 36.01 87.57 37.02 87.10 37.53 C 79.06 32.74 68.93 30.85 60.25 35.15 C 57.10 37.23 53.32 34.41 53.06 31.00 C 53.66 27.28 57.03 24.85 60.16 23.24 M 64.23 23.14 C 61.72 23.70 59.47 25.01 57.31 26.35 C 60.66 26.69 62.96 28.96 62.76 32.41 C 70.69 30.42 79.33 31.10 86.15 35.86 C 90.09 35.34 89.35 30.01 86.87 28.14 C 80.66 23.00 71.98 21.76 64.23 23.14 Z" />
<path fill="#ffffff" opacity="1.00" d=" M 16.33 23.36 C 24.29 21.61 33.45 22.78 39.81 28.21 C 42.28 30.11 43.06 35.21 39.15 35.85 C 32.35 31.05 23.71 30.45 15.77 32.38 C 15.96 28.86 13.59 26.66 10.20 26.34 C 12.11 25.11 14.12 23.95 16.33 23.36 Z" />
<path fill="#ffffff" opacity="1.00" d=" M 64.23 23.14 C 71.98 21.76 80.66 23.00 86.87 28.14 C 89.35 30.01 90.09 35.34 86.15 35.86 C 79.33 31.10 70.69 30.42 62.76 32.41 C 62.96 28.96 60.66 26.69 57.31 26.35 C 59.47 25.01 61.72 23.70 64.23 23.14 Z" />
<path fill="#ffd174" opacity="1.00" d=" M 9.30 36.25 C 15.97 34.00 23.06 31.39 30.16 33.30 C 32.21 36.98 36.37 38.86 38.28 42.68 C 43.24 51.61 51.59 58.88 61.61 61.42 C 69.71 63.39 77.98 61.07 86.17 61.65 C 79.44 81.98 54.78 94.16 34.71 86.17 C 14.53 79.96 2.91 56.17 9.30 36.25 M 14.32 37.14 C 11.79 37.93 8.16 40.01 9.72 43.16 C 12.89 46.33 17.97 47.25 21.97 45.13 C 24.21 44.39 26.52 41.57 24.79 39.33 C 21.93 37.00 17.87 35.95 14.32 37.14 M 37.26 75.68 C 37.97 81.36 43.33 85.88 49.09 85.30 C 54.20 85.06 58.10 80.78 59.11 75.97 C 56.20 79.32 53.02 83.48 48.01 83.05 C 43.02 83.36 39.99 79.15 37.26 75.68 Z" />
<path fill="#f0a657" opacity="1.00" d=" M 7.43 34.30 C 7.90 34.79 8.83 35.76 9.30 36.25 C 2.91 56.17 14.53 79.96 34.71 86.17 C 54.78 94.16 79.44 81.98 86.17 61.65 C 89.11 53.97 89.45 45.41 87.10 37.53 C 87.57 37.02 88.51 36.01 88.98 35.51 C 95.03 52.78 87.69 73.37 72.55 83.49 C 57.52 94.18 35.54 93.45 21.28 81.75 C 7.33 70.93 1.26 50.93 7.43 34.30 Z" />
<path fill="#ed8f3c" opacity="1.00" d=" M 14.32 37.14 C 17.87 35.95 21.93 37.00 24.79 39.33 C 26.52 41.57 24.21 44.39 21.97 45.13 C 17.97 47.25 12.89 46.33 9.72 43.16 C 8.16 40.01 11.79 37.93 14.32 37.14 Z" />
<path fill="#ed8f3c" opacity="1.00" d=" M 76.20 37.03 C 79.52 36.33 83.26 36.86 86.00 38.96 C 87.59 40.19 87.83 42.91 86.03 44.08 C 81.62 47.30 74.54 47.09 70.81 42.91 C 69.61 39.44 73.44 37.61 76.20 37.03 Z" />
<path fill="#5c2910" opacity="0.98" d=" M 37.26 75.68 C 39.99 79.15 43.02 83.36 48.01 83.05 C 53.02 83.48 56.20 79.32 59.11 75.97 C 58.10 80.78 54.20 85.06 49.09 85.30 C 43.33 85.88 37.97 81.36 37.26 75.68 Z" />
</svg>
