<?xml version="1.0" encoding="UTF-8" ?>
<!DOCTYPE svg PUBLIC "-//W3C//DTD SVG 1.1//EN" "http://www.w3.org/Graphics/SVG/1.1/DTD/svg11.dtd">
<svg width="96pt" height="96pt" viewBox="0 0 96 96" version="1.1" xmlns="http://www.w3.org/2000/svg">
<g id="#efaa52ff">
<path fill="#efaa52" opacity="1.00" d=" M 33.91 16.04 C 43.68 12.72 54.78 13.58 63.97 18.24 C 76.07 24.14 84.62 36.56 85.92 49.94 C 86.82 58.20 85.16 66.90 80.83 74.05 C 80.23 74.01 79.04 73.95 78.44 73.91 C 83.29 65.90 85.01 56.21 83.24 47.01 C 81.15 35.50 73.30 25.24 62.78 20.17 C 54.62 15.95 44.86 15.38 36.05 17.66 C 33.52 18.33 31.05 19.25 28.79 20.59 C 23.07 23.16 18.68 28.05 14.96 32.97 C 6.75 44.89 6.46 61.66 14.00 73.98 C 13.21 73.90 12.41 73.83 11.62 73.77 C 6.96 66.58 5.70 57.51 6.68 49.10 C 8.36 34.07 19.45 20.52 33.91 16.04 Z" />
</g>
<g id="#fded78ff">
<path fill="#fded78" opacity="1.00" d=" M 36.05 17.66 C 44.86 15.38 54.62 15.95 62.78 20.17 C 73.30 25.24 81.15 35.50 83.24 47.01 C 85.01 56.21 83.29 65.90 78.44 73.91 C 77.90 73.87 76.83 73.80 76.29 73.76 C 75.83 72.24 75.42 70.71 74.84 69.23 C 74.41 67.69 75.12 65.56 73.57 64.54 C 72.11 62.97 69.86 63.25 67.94 63.03 C 67.05 62.45 66.16 61.89 65.20 61.45 C 64.61 61.06 63.42 60.27 62.83 59.88 C 62.25 57.33 59.53 55.11 56.89 56.04 C 54.97 56.38 53.58 58.09 53.19 59.94 C 52.84 60.33 52.13 61.12 51.78 61.52 C 46.54 58.01 44.06 51.27 38.23 48.62 C 39.30 47.21 41.58 44.92 40.04 43.21 C 39.47 43.21 38.34 43.22 37.77 43.23 C 34.74 35.08 34.13 26.14 36.05 17.66 M 51.16 43.88 C 51.80 49.51 57.85 52.50 63.05 51.68 C 64.58 51.64 68.84 51.89 67.17 49.22 C 63.53 48.36 58.20 50.54 55.64 46.43 C 55.18 44.25 53.47 41.65 51.16 43.88 Z" />
</g>
<g id="#fee076ff">
<path fill="#fee076" opacity="1.00" d=" M 28.79 20.59 C 31.05 19.25 33.52 18.33 36.05 17.66 C 34.13 26.14 34.74 35.08 37.77 43.23 C 36.74 44.97 36.07 47.22 34.09 48.14 C 31.16 49.51 27.88 48.52 24.79 48.73 C 25.03 47.33 26.48 47.00 27.50 46.34 C 27.29 42.86 26.32 39.46 26.51 35.96 C 26.19 30.70 28.56 25.79 28.79 20.59 Z" />
</g>
<g id="#ffcc73ff">
<path fill="#ffcc73" opacity="1.00" d=" M 14.96 32.97 C 18.68 28.05 23.07 23.16 28.79 20.59 C 28.56 25.79 26.19 30.70 26.51 35.96 C 26.32 39.46 27.29 42.86 27.50 46.34 C 26.48 47.00 25.03 47.33 24.79 48.73 C 24.69 49.07 24.51 49.74 24.41 50.08 C 24.51 50.32 24.70 50.82 24.80 51.06 L 25.53 52.38 C 26.97 53.28 29.17 53.16 30.12 54.69 C 30.25 55.96 30.90 57.17 30.70 58.46 C 30.59 58.85 30.36 59.61 30.25 60.00 C 28.61 59.92 26.83 62.00 28.60 63.19 C 29.20 63.30 30.41 63.50 31.02 63.61 C 31.75 64.15 32.48 64.68 33.21 65.21 C 32.15 67.31 29.80 65.57 28.11 65.65 C 26.10 64.08 23.74 62.07 20.97 63.06 C 17.84 63.11 16.21 67.44 18.82 69.40 C 18.77 70.93 18.58 72.46 18.23 73.96 C 16.82 74.10 15.41 74.11 14.00 73.98 C 6.46 61.66 6.75 44.89 14.96 32.97 Z" />
</g>
<g id="#a1390aff">
<path fill="#a1390a" opacity="1.00" d=" M 37.77 43.23 C 38.34 43.22 39.47 43.21 40.04 43.21 C 41.58 44.92 39.30 47.21 38.23 48.62 C 34.97 52.47 29.25 51.84 24.80 51.06 C 24.70 50.82 24.51 50.32 24.41 50.08 C 24.51 49.74 24.69 49.07 24.79 48.73 C 27.88 48.52 31.16 49.51 34.09 48.14 C 36.07 47.22 36.74 44.97 37.77 43.23 Z" />
</g>
<g id="#a03508ff">
<path fill="#a03508" opacity="1.00" d=" M 51.16 43.88 C 53.47 41.65 55.18 44.25 55.64 46.43 C 58.20 50.54 63.53 48.36 67.17 49.22 C 68.84 51.89 64.58 51.64 63.05 51.68 C 57.85 52.50 51.80 49.51 51.16 43.88 Z" />
</g>
<g id="#fedd76ff">
<path fill="#fedd76" opacity="1.00" d=" M 24.80 51.06 C 29.25 51.84 34.97 52.47 38.23 48.62 C 44.06 51.27 46.54 58.01 51.78 61.52 C 52.13 61.12 52.84 60.33 53.19 59.94 C 52.74 62.75 55.14 65.77 58.05 65.64 C 59.54 65.75 60.64 64.60 61.86 63.97 C 63.84 64.62 65.09 63.34 65.20 61.45 C 66.16 61.89 67.05 62.45 67.94 63.03 C 66.50 64.20 65.15 65.47 63.87 66.82 C 60.31 67.57 56.52 69.79 56.44 73.89 C 50.32 74.12 44.20 73.83 38.07 73.87 C 37.60 71.91 37.61 69.49 35.67 68.30 C 34.76 67.32 32.62 67.05 33.21 65.21 C 36.51 67.02 40.60 63.50 39.83 59.98 C 39.43 55.56 32.61 54.53 30.70 58.46 C 30.90 57.17 30.25 55.96 30.12 54.69 C 29.17 53.16 26.97 53.28 25.53 52.38 L 24.80 51.06 Z" />
</g>
<g id="#151619ff">
<path fill="#151619" opacity="1.00" d=" M 56.89 56.04 C 59.53 55.11 62.25 57.33 62.83 59.88 C 61.63 61.04 61.13 62.36 61.86 63.97 C 60.64 64.60 59.54 65.75 58.05 65.64 C 55.14 65.77 52.74 62.75 53.19 59.94 C 53.58 58.09 54.97 56.38 56.89 56.04 M 56.28 57.28 C 53.48 59.27 56.86 63.50 59.57 61.49 C 62.79 59.61 58.61 54.30 56.28 57.28 M 57.36 62.94 L 56.74 63.80 L 57.17 64.52 C 59.46 66.52 59.25 60.97 57.36 62.94 Z" />
<path fill="#151619" opacity="1.00" d=" M 30.70 58.46 C 32.61 54.53 39.43 55.56 39.83 59.98 C 40.60 63.50 36.51 67.02 33.21 65.21 C 32.48 64.68 31.75 64.15 31.02 63.61 C 31.72 62.32 31.71 60.72 30.25 60.00 C 30.36 59.61 30.59 58.85 30.70 58.46 M 33.95 56.84 C 32.53 57.66 31.76 59.55 32.90 60.95 C 34.22 62.54 37.37 62.18 37.79 59.97 C 38.46 57.90 35.82 55.64 33.95 56.84 M 34.04 62.99 C 33.68 64.64 34.25 65.21 35.74 64.67 C 36.41 62.91 35.84 62.35 34.04 62.99 Z" />
</g>
<g id="#ffffffff">
<path fill="#ffffff" opacity="1.00" d=" M 33.95 56.84 C 35.82 55.64 38.46 57.90 37.79 59.97 C 37.37 62.18 34.22 62.54 32.90 60.95 C 31.76 59.55 32.53 57.66 33.95 56.84 Z" />
<path fill="#ffffff" opacity="1.00" d=" M 56.28 57.28 C 58.61 54.30 62.79 59.61 59.57 61.49 C 56.86 63.50 53.48 59.27 56.28 57.28 Z" />
<path fill="#ffffff" opacity="1.00" d=" M 57.36 62.94 C 59.25 60.97 59.46 66.52 57.17 64.52 L 56.74 63.80 L 57.36 62.94 Z" />
</g>
<g id="#b2d8e4ff">
<path fill="#b2d8e4" opacity="1.00" d=" M 28.60 63.19 C 26.83 62.00 28.61 59.92 30.25 60.00 C 30.03 61.21 29.48 62.28 28.60 63.19 Z" />
</g>
<g id="#78bcd0ff">
<path fill="#78bcd0" opacity="1.00" d=" M 30.25 60.00 C 31.71 60.72 31.72 62.32 31.02 63.61 C 30.41 63.50 29.20 63.30 28.60 63.19 C 29.48 62.28 30.03 61.21 30.25 60.00 Z" />
</g>
<g id="#96ced8ff">
<path fill="#96ced8" opacity="1.00" d=" M 62.83 59.88 C 63.42 60.27 64.61 61.06 65.20 61.45 C 65.09 63.34 63.84 64.62 61.86 63.97 C 61.13 62.36 61.63 61.04 62.83 59.88 Z" />
</g>
<g id="#f29750ff">
<path fill="#f29750" opacity="1.00" d=" M 18.82 69.40 C 16.21 67.44 17.84 63.11 20.97 63.06 C 23.74 62.07 26.10 64.08 28.11 65.65 C 24.47 65.03 20.89 66.24 18.82 69.40 Z" />
</g>
<g id="#b4b5b8ff">
<path fill="#b4b5b8" opacity="1.00" d=" M 34.04 62.99 C 35.84 62.35 36.41 62.91 35.74 64.67 C 34.25 65.21 33.68 64.64 34.04 62.99 Z" />
</g>
<g id="#f4b15dff">
<path fill="#f4b15d" opacity="1.00" d=" M 67.94 63.03 C 69.86 63.25 72.11 62.97 73.57 64.54 C 75.12 65.56 74.41 67.69 74.84 69.23 C 72.10 65.87 67.75 65.89 63.87 66.82 C 65.15 65.47 66.50 64.20 67.94 63.03 Z" />
</g>
<g id="#ffa211ff">
<path fill="#ffa211" opacity="1.00" d=" M 18.82 69.40 C 20.89 66.24 24.47 65.03 28.11 65.65 C 29.80 65.57 32.15 67.31 33.21 65.21 C 32.62 67.05 34.76 67.32 35.67 68.30 C 37.61 69.49 37.60 71.91 38.07 73.87 C 44.20 73.83 50.32 74.12 56.44 73.89 L 56.92 74.77 C 50.49 74.65 44.07 74.89 37.65 74.65 L 36.84 75.24 C 35.04 77.91 31.99 79.46 28.90 80.10 C 27.33 79.93 25.74 80.10 24.16 80.02 C 22.37 79.77 20.54 78.65 19.76 77.00 C 19.52 76.46 19.06 75.37 18.82 74.82 C 14.20 74.89 9.58 74.22 4.96 74.62 C 6.39 73.14 9.55 74.52 11.62 73.77 C 12.41 73.83 13.21 73.90 14.00 73.98 C 15.41 74.11 16.82 74.10 18.23 73.96 C 18.58 72.46 18.77 70.93 18.82 69.40 M 23.85 77.37 C 24.39 75.85 23.21 72.41 25.92 73.06 C 26.05 74.66 24.79 76.67 25.91 78.01 C 27.12 77.92 28.32 77.78 29.52 77.60 C 30.35 76.25 28.99 74.70 29.28 73.22 C 31.45 72.66 30.73 75.64 31.90 76.66 C 33.53 75.54 35.71 74.27 35.63 71.99 C 33.62 67.74 28.02 68.00 24.05 68.25 C 19.57 68.93 19.57 76.31 23.85 77.37 Z" />
</g>
<g id="#ffa30fff">
<path fill="#ffa30f" opacity="1.00" d=" M 63.87 66.82 C 67.75 65.89 72.10 65.87 74.84 69.23 C 75.42 70.71 75.83 72.24 76.29 73.76 C 76.83 73.80 77.90 73.87 78.44 73.91 C 79.04 73.95 80.23 74.01 80.83 74.05 C 83.85 74.26 87.65 73.20 90.20 74.64 C 85.39 74.02 80.58 74.91 75.77 74.67 C 75.61 75.21 75.30 76.30 75.14 76.84 C 74.69 78.26 73.56 79.66 72.19 80.24 C 69.18 81.56 65.80 81.06 62.73 80.20 C 61.02 79.30 59.13 78.40 58.05 76.73 C 57.77 76.24 57.20 75.26 56.92 74.77 L 56.44 73.89 C 56.52 69.79 60.31 67.57 63.87 66.82 M 59.18 72.17 C 57.91 74.07 60.11 75.69 61.28 76.91 C 63.34 77.15 62.44 73.45 64.71 74.18 C 64.50 75.49 64.17 76.78 63.97 78.10 C 65.39 78.47 67.15 79.26 68.53 78.49 C 68.87 77.02 67.81 75.60 68.00 74.10 C 70.45 73.65 69.21 77.61 71.05 78.20 C 73.62 76.93 74.53 73.38 73.04 70.98 C 71.55 68.72 68.41 68.52 65.99 68.96 C 63.58 69.45 60.43 69.69 59.18 72.17 Z" />
</g>
<g id="#ffe06eff">
<path fill="#ffe06e" opacity="1.00" d=" M 23.85 77.37 C 19.57 76.31 19.57 68.93 24.05 68.25 C 28.02 68.00 33.62 67.74 35.63 71.99 C 35.71 74.27 33.53 75.54 31.90 76.66 C 30.73 75.64 31.45 72.66 29.28 73.22 C 28.99 74.70 30.35 76.25 29.52 77.60 C 28.32 77.78 27.12 77.92 25.91 78.01 C 24.79 76.67 26.05 74.66 25.92 73.06 C 23.21 72.41 24.39 75.85 23.85 77.37 Z" />
<path fill="#ffe06e" opacity="1.00" d=" M 59.18 72.17 C 60.43 69.69 63.58 69.45 65.99 68.96 C 68.41 68.52 71.55 68.72 73.04 70.98 C 74.53 73.38 73.62 76.93 71.05 78.20 C 69.21 77.61 70.45 73.65 68.00 74.10 C 67.81 75.60 68.87 77.02 68.53 78.49 C 67.15 79.26 65.39 78.47 63.97 78.10 C 64.17 76.78 64.50 75.49 64.71 74.18 C 62.44 73.45 63.34 77.15 61.28 76.91 C 60.11 75.69 57.91 74.07 59.18 72.17 Z" />
</g>
<g id="#1f0d025b">
<path fill="#1f0d02" opacity="0.36" d=" M 4.96 74.62 C 9.58 74.22 14.20 74.89 18.82 74.82 C 19.06 75.37 19.52 76.46 19.76 77.00 C 15.33 74.55 9.82 76.91 4.99 75.86 L 4.96 74.62 Z" />
</g>
<g id="#1f0d015e">
<path fill="#1f0d01" opacity="0.37" d=" M 36.84 75.24 L 37.65 74.65 C 44.07 74.89 50.49 74.65 56.92 74.77 C 57.20 75.26 57.77 76.24 58.05 76.73 C 57.53 76.53 56.51 76.14 55.99 75.95 C 49.78 75.81 43.55 76.16 37.36 75.80 L 36.84 75.24 Z" />
</g>
<g id="#24100265">
<path fill="#241002" opacity="0.40" d=" M 75.14 76.84 C 75.30 76.30 75.61 75.21 75.77 74.67 C 80.58 74.91 85.39 74.02 90.20 74.64 L 89.88 75.84 C 85.59 76.15 81.28 75.89 76.99 75.85 C 76.53 76.10 75.60 76.59 75.14 76.84 Z" />
</g>
<g id="#301e0369">
<path fill="#301e03" opacity="0.41" d=" M 24.16 80.02 C 25.74 80.10 27.33 79.93 28.90 80.10 C 28.62 81.77 24.15 81.85 24.16 80.02 Z" />
</g>
<g id="#2b1b0353">
<path fill="#2b1b03" opacity="0.33" d=" M 62.73 80.20 C 65.80 81.06 69.18 81.56 72.19 80.24 C 70.10 82.90 65.24 82.09 62.73 80.20 Z" />
</g>
</svg>
