<?xml version="1.0" encoding="UTF-8" ?>
<!DOCTYPE svg PUBLIC "-//W3C//DTD SVG 1.1//EN" "http://www.w3.org/Graphics/SVG/1.1/DTD/svg11.dtd">
<svg width="96pt" height="96pt" viewBox="0 0 96 96" version="1.1" xmlns="http://www.w3.org/2000/svg">
<path fill="#f1b862" opacity="1.00" d=" M 22.39 14.44 C 36.54 2.09 59.20 2.04 73.51 14.18 C 73.14 15.05 72.77 15.90 72.39 16.76 C 70.61 14.53 68.24 12.95 65.69 11.74 L 64.80 11.25 C 52.01 3.94 34.67 6.12 23.95 16.14 C 23.56 15.72 22.78 14.87 22.39 14.44 Z" />
<path fill="#fde977" opacity="1.00" d=" M 23.95 16.14 C 34.67 6.12 52.01 3.94 64.80 11.25 C 63.81 13.51 64.67 17.70 61.11 17.26 C 58.25 18.30 56.68 14.82 54.21 14.01 C 54.76 15.62 55.41 17.18 56.08 18.74 C 54.32 19.78 52.98 21.26 52.64 23.34 C 58.02 24.15 62.62 19.48 68.02 20.89 C 71.64 21.16 74.70 25.97 77.99 22.50 C 86.48 32.86 88.93 48.05 83.16 60.29 C 79.62 62.15 75.43 65.37 71.32 63.43 C 73.37 60.46 74.35 56.90 73.85 53.29 C 72.03 57.23 70.65 61.45 67.72 64.77 C 67.34 64.40 66.57 63.67 66.19 63.31 C 64.87 61.63 63.34 60.16 61.73 58.78 C 61.24 58.30 60.27 57.35 59.79 56.88 C 57.17 55.54 54.33 54.66 51.40 54.38 C 50.02 54.15 48.64 53.85 47.29 53.48 C 41.61 52.07 38.73 46.26 36.39 41.42 C 37.87 39.59 39.02 37.47 38.94 35.05 L 38.57 33.58 C 41.37 33.80 44.35 34.15 43.19 30.38 C 40.09 30.34 36.98 30.35 33.88 30.37 C 33.01 27.20 32.63 23.92 32.56 20.64 C 36.22 21.86 39.81 23.50 43.73 23.62 C 42.86 19.67 38.46 18.21 42.33 14.09 C 39.67 16.07 36.92 18.61 33.40 16.93 C 33.26 15.19 31.24 8.66 30.65 13.40 C 31.21 17.10 25.94 18.49 23.95 16.14 M 51.39 32.00 C 54.46 35.00 59.16 33.12 62.98 33.61 C 61.06 37.79 65.11 43.44 69.60 40.63 C 71.19 40.16 73.14 34.96 71.09 35.70 L 72.01 33.57 C 74.66 33.94 77.24 33.79 76.17 30.44 C 68.06 31.20 58.69 28.29 51.39 32.00 M 70.56 42.65 C 68.57 43.58 65.29 43.92 66.32 46.88 C 69.67 50.83 81.49 51.97 81.90 44.55 C 78.44 42.77 74.44 41.27 70.56 42.65 Z" />
<path fill="#aa4210" opacity="1.00" d=" M 30.65 13.40 C 31.24 8.66 33.26 15.19 33.40 16.93 C 36.92 18.61 39.67 16.07 42.33 14.09 C 38.46 18.21 42.86 19.67 43.73 23.62 C 39.81 23.50 36.22 21.86 32.56 20.64 C 27.45 18.98 22.09 27.06 18.68 21.93 C 20.14 20.23 22.79 18.39 20.71 16.04 C 20.25 14.29 20.46 12.34 22.39 14.44 C 22.78 14.87 23.56 15.72 23.95 16.14 C 25.94 18.49 31.21 17.10 30.65 13.40 Z" />
<path fill="#aa4210" opacity="1.00" d=" M 61.11 17.26 C 64.67 17.70 63.81 13.51 64.80 11.25 L 65.69 11.74 C 64.52 15.87 69.91 19.01 72.39 16.76 C 72.77 15.90 73.14 15.05 73.51 14.18 C 75.75 13.64 77.23 13.70 75.58 16.13 C 73.34 18.77 76.61 20.56 77.99 22.50 C 74.70 25.97 71.64 21.16 68.02 20.89 C 62.62 19.48 58.02 24.15 52.64 23.34 C 52.98 21.26 54.32 19.78 56.08 18.74 C 55.41 17.18 54.76 15.62 54.21 14.01 C 56.68 14.82 58.25 18.30 61.11 17.26 Z" />
<path fill="#fde977" opacity="1.00" d=" M 65.69 11.74 C 68.24 12.95 70.61 14.53 72.39 16.76 C 69.91 19.01 64.52 15.87 65.69 11.74 Z" />
<path fill="#f1b862" opacity="1.00" d=" M 9.17 55.04 C 5.74 41.21 10.26 25.75 20.71 16.04 C 22.79 18.39 20.14 20.23 18.68 21.93 C 3.27 39.83 10.61 69.99 31.47 80.27 C 31.11 80.59 30.37 81.21 30.00 81.53 C 19.48 76.56 11.86 66.27 9.17 55.04 Z" />
<path fill="#f1b862" opacity="1.00" d=" M 77.99 22.50 C 76.61 20.56 73.34 18.77 75.58 16.13 C 83.82 24.05 88.67 35.54 87.91 47.02 C 88.10 68.87 67.24 88.23 45.37 85.81 C 46.41 84.99 47.42 84.14 48.39 83.24 C 63.37 84.31 77.16 73.57 83.16 60.29 C 88.93 48.05 86.48 32.86 77.99 22.50 Z" />
<path fill="#ffcf74" opacity="1.00" d=" M 18.68 21.93 C 22.09 27.06 27.45 18.98 32.56 20.64 C 32.63 23.92 33.01 27.20 33.88 30.37 C 28.67 30.91 22.75 28.86 18.11 31.99 C 21.48 34.61 25.88 33.45 29.80 33.58 C 28.53 38.24 31.60 41.95 36.39 41.42 C 38.73 46.26 41.61 52.07 47.29 53.48 C 46.49 54.01 45.68 54.54 44.87 55.05 C 41.97 53.76 39.16 55.84 36.49 56.78 C 35.94 57.31 34.85 58.36 34.31 58.88 C 32.69 60.23 31.17 61.69 29.89 63.37 C 29.51 63.85 28.74 64.82 28.35 65.30 C 24.69 62.11 23.01 57.55 21.69 53.03 C 19.98 58.86 24.05 64.19 27.70 68.30 L 27.48 68.72 C 21.87 74.73 31.99 75.93 36.11 77.19 C 34.48 78.09 32.92 79.11 31.47 80.27 C 10.61 69.99 3.27 39.83 18.68 21.93 M 17.74 42.68 C 14.11 43.15 12.81 48.12 16.84 49.12 C 21.23 50.30 30.20 51.06 29.87 44.37 C 26.31 42.01 21.81 41.69 17.74 42.68 Z" />
<path fill="#232323" opacity="1.00" d=" M 18.11 31.99 C 22.75 28.86 28.67 30.91 33.88 30.37 C 36.98 30.35 40.09 30.34 43.19 30.38 C 44.35 34.15 41.37 33.80 38.57 33.58 C 37.11 32.72 35.55 32.07 33.99 31.45 C 32.80 34.69 36.30 38.27 38.94 35.05 C 39.02 37.47 37.87 39.59 36.39 41.42 C 31.60 41.95 28.53 38.24 29.80 33.58 C 25.88 33.45 21.48 34.61 18.11 31.99 Z" />
<path fill="#232323" opacity="1.00" d=" M 51.39 32.00 C 58.69 28.29 68.06 31.20 76.17 30.44 C 77.24 33.79 74.66 33.94 72.01 33.57 C 70.43 33.59 66.55 29.85 66.97 32.92 C 65.71 35.67 69.12 36.44 71.09 35.70 C 73.14 34.96 71.19 40.16 69.60 40.63 C 65.11 43.44 61.06 37.79 62.98 33.61 C 59.16 33.12 54.46 35.00 51.39 32.00 Z" />
<path fill="#91908e" opacity="1.00" d=" M 33.99 31.45 C 35.55 32.07 37.11 32.72 38.57 33.58 L 38.94 35.05 C 36.30 38.27 32.80 34.69 33.99 31.45 Z" />
<path fill="#91908e" opacity="1.00" d=" M 66.97 32.92 C 66.55 29.85 70.43 33.59 72.01 33.57 L 71.09 35.70 C 69.12 36.44 65.71 35.67 66.97 32.92 Z" />
<path fill="#ec8f3c" opacity="1.00" d=" M 17.74 42.68 C 21.81 41.69 26.31 42.01 29.87 44.37 C 30.20 51.06 21.23 50.30 16.84 49.12 C 12.81 48.12 14.11 43.15 17.74 42.68 Z" />
<path fill="#f09b52" opacity="1.00" d=" M 70.56 42.65 C 74.44 41.27 78.44 42.77 81.90 44.55 C 81.49 51.97 69.67 50.83 66.32 46.88 C 65.29 43.92 68.57 43.58 70.56 42.65 Z" />
<path fill="#d84351" opacity="1.00" d=" M 47.29 53.48 C 48.64 53.85 50.02 54.15 51.40 54.38 C 49.56 58.62 52.91 68.57 46.04 67.13 C 45.83 63.09 45.34 59.07 44.87 55.05 C 45.68 54.54 46.49 54.01 47.29 53.48 Z" />
<path fill="#aa4210" opacity="1.00" d=" M 27.70 68.30 C 24.05 64.19 19.98 58.86 21.69 53.03 C 23.01 57.55 24.69 62.11 28.35 65.30 C 28.19 66.05 27.86 67.55 27.70 68.30 Z" />
<path fill="#ec5564" opacity="1.00" d=" M 36.49 56.78 C 39.16 55.84 41.97 53.76 44.87 55.05 C 45.34 59.07 45.83 63.09 46.04 67.13 C 52.91 68.57 49.56 58.62 51.40 54.38 C 54.33 54.66 57.17 55.54 59.79 56.88 C 53.38 55.97 54.05 63.96 51.52 68.00 C 49.18 67.61 46.79 67.62 44.46 68.03 C 42.22 64.09 42.52 56.52 36.49 56.78 Z" />
<path fill="#aa4210" opacity="1.00" d=" M 67.72 64.77 C 70.65 61.45 72.03 57.23 73.85 53.29 C 74.35 56.90 73.37 60.46 71.32 63.43 C 70.70 64.38 70.06 65.30 69.41 66.22 C 68.98 65.86 68.14 65.13 67.72 64.77 Z" />
<path fill="#d84351" opacity="1.00" d=" M 36.49 56.78 C 42.52 56.52 42.22 64.09 44.46 68.03 C 43.88 68.40 42.73 69.12 42.15 69.48 C 39.41 66.04 36.73 62.55 34.31 58.88 C 34.85 58.36 35.94 57.31 36.49 56.78 Z" />
<path fill="#d84351" opacity="1.00" d=" M 51.52 68.00 C 54.05 63.96 53.38 55.97 59.79 56.88 C 60.27 57.35 61.24 58.30 61.73 58.78 C 59.50 62.61 56.76 66.12 53.81 69.42 C 53.23 69.06 52.09 68.35 51.52 68.00 Z" />
<path fill="#ec5564" opacity="1.00" d=" M 29.89 63.37 C 31.17 61.69 32.69 60.23 34.31 58.88 C 36.73 62.55 39.41 66.04 42.15 69.48 C 41.58 70.02 41.04 70.57 40.51 71.14 C 37.08 68.41 33.59 65.73 29.89 63.37 Z" />
<path fill="#ec5564" opacity="1.00" d=" M 61.73 58.78 C 63.34 60.16 64.87 61.63 66.19 63.31 C 62.48 65.68 58.98 68.36 55.55 71.13 C 54.99 70.54 54.41 69.97 53.81 69.42 C 56.76 66.12 59.50 62.61 61.73 58.78 Z" />
<path fill="#ffcf74" opacity="1.00" d=" M 71.32 63.43 C 75.43 65.37 79.62 62.15 83.16 60.29 C 77.16 73.57 63.37 84.31 48.39 83.24 C 49.75 81.84 51.02 80.35 52.22 78.80 C 54.16 78.18 56.16 77.77 58.16 77.38 C 61.97 76.50 65.81 75.64 69.46 74.26 C 71.66 72.29 69.18 69.49 68.60 67.31 L 69.41 66.22 C 70.06 65.30 70.70 64.38 71.32 63.43 Z" />
<path fill="#d84351" opacity="1.00" d=" M 28.35 65.30 C 28.74 64.82 29.51 63.85 29.89 63.37 C 33.59 65.73 37.08 68.41 40.51 71.14 C 40.16 71.77 39.45 73.03 39.10 73.66 C 35.15 72.20 31.28 70.52 27.48 68.72 L 27.70 68.30 C 27.86 67.55 28.19 66.05 28.35 65.30 Z" />
<path fill="#d84351" opacity="1.00" d=" M 55.55 71.13 C 58.98 68.36 62.48 65.68 66.19 63.31 C 66.57 63.67 67.34 64.40 67.72 64.77 C 68.14 65.13 68.98 65.86 69.41 66.22 L 68.60 67.31 C 66.21 71.17 61.46 71.98 57.46 73.22 C 56.98 72.69 56.03 71.65 55.55 71.13 Z" />
<path fill="#ec5564" opacity="1.00" d=" M 57.46 73.22 C 61.46 71.98 66.21 71.17 68.60 67.31 C 69.18 69.49 71.66 72.29 69.46 74.26 C 65.81 75.64 61.97 76.50 58.16 77.38 C 57.92 75.99 57.68 74.60 57.46 73.22 Z" />
<path fill="#fecd57" opacity="1.00" d=" M 44.46 68.03 C 46.79 67.62 49.18 67.61 51.52 68.00 C 52.09 68.35 53.23 69.06 53.81 69.42 C 54.41 69.97 54.99 70.54 55.55 71.13 C 56.03 71.65 56.98 72.69 57.46 73.22 C 57.68 74.60 57.92 75.99 58.16 77.38 C 56.16 77.77 54.16 78.18 52.22 78.80 C 51.72 72.45 42.26 75.18 37.88 76.33 C 38.27 75.44 38.68 74.55 39.10 73.66 C 39.45 73.03 40.16 71.77 40.51 71.14 C 41.04 70.57 41.58 70.02 42.15 69.48 C 42.73 69.12 43.88 68.40 44.46 68.03 Z" />
<path fill="#ec5564" opacity="1.00" d=" M 36.11 77.19 C 31.99 75.93 21.87 74.73 27.48 68.72 C 31.28 70.52 35.15 72.20 39.10 73.66 C 38.68 74.55 38.27 75.44 37.88 76.33 C 37.44 76.55 36.55 76.97 36.11 77.19 Z" />
<path fill="#fea616" opacity="1.00" d=" M 37.88 76.33 C 42.26 75.18 51.72 72.45 52.22 78.80 C 51.02 80.35 49.75 81.84 48.39 83.24 C 47.42 84.14 46.41 84.99 45.37 85.81 C 41.00 88.86 34.68 91.82 29.75 88.28 C 27.43 86.56 28.49 83.41 30.00 81.53 C 30.37 81.21 31.11 80.59 31.47 80.27 C 32.92 79.11 34.48 78.09 36.11 77.19 C 36.55 76.97 37.44 76.55 37.88 76.33 M 44.13 76.18 C 39.35 77.42 34.28 79.29 31.01 83.17 C 29.37 88.19 36.18 89.36 39.51 87.57 C 43.88 85.32 48.86 81.91 49.62 76.68 C 47.83 76.25 45.97 75.61 44.13 76.18 Z" />
<path fill="#fde977" opacity="1.00" d=" M 44.13 76.18 C 45.97 75.61 47.83 76.25 49.62 76.68 C 48.86 81.91 43.88 85.32 39.51 87.57 C 36.18 89.36 29.37 88.19 31.01 83.17 C 34.28 79.29 39.35 77.42 44.13 76.18 Z" />
</svg>
