<?xml version="1.0" encoding="UTF-8" ?>
<!DOCTYPE svg PUBLIC "-//W3C//DTD SVG 1.1//EN" "http://www.w3.org/Graphics/SVG/1.1/DTD/svg11.dtd">
<svg width="96pt" height="96pt" viewBox="0 0 96 96" version="1.1" xmlns="http://www.w3.org/2000/svg">
<g id="#808080ff">
<path fill="#808080" opacity="1.00" d=" M 38.84 10.02 C 44.92 7.24 51.44 4.78 58.26 5.23 C 57.43 5.75 56.61 6.29 55.80 6.83 C 56.60 7.62 57.39 8.42 58.19 9.21 C 52.44 9.74 46.84 11.43 41.70 14.05 C 28.36 19.76 18.24 31.43 12.75 44.67 C 9.57 53.02 8.32 62.98 12.86 71.08 C 16.22 77.79 23.62 81.82 30.99 82.00 C 36.63 82.13 42.19 81.09 47.72 80.12 C 55.02 79.89 60.30 74.53 66.41 71.31 C 63.60 74.86 60.13 77.81 56.32 80.22 C 59.06 81.03 61.74 82.04 64.35 83.21 C 54.87 89.29 43.29 92.95 32.00 90.93 C 27.21 90.23 22.58 88.27 18.93 85.07 C 14.30 80.89 9.42 76.44 7.54 70.27 C 3.93 61.41 5.29 51.38 8.67 42.67 C 14.31 28.60 25.35 16.86 38.84 10.02 Z" />
</g>
<g id="#888888ff">
<path fill="#888888" opacity="1.00" d=" M 58.26 5.23 C 61.29 3.97 64.81 5.34 67.91 5.98 C 74.06 7.72 80.02 11.14 83.60 16.55 C 86.00 24.03 87.36 31.99 85.58 39.76 C 83.25 52.69 75.38 63.78 66.86 73.44 C 67.88 73.16 68.90 72.88 69.93 72.61 C 71.33 73.50 72.72 74.40 74.12 75.30 C 71.26 78.39 67.90 80.96 64.35 83.21 C 61.74 82.04 59.06 81.03 56.32 80.22 C 60.13 77.81 63.60 74.86 66.41 71.31 C 60.30 74.53 55.02 79.89 47.72 80.12 L 48.41 79.52 C 52.55 76.94 57.03 74.91 60.89 71.90 C 71.27 64.08 79.43 52.79 82.11 39.95 C 83.88 31.82 82.48 22.55 76.78 16.22 C 71.82 11.54 64.78 9.93 58.19 9.21 C 57.39 8.42 56.60 7.62 55.80 6.83 C 56.61 6.29 57.43 5.75 58.26 5.23 Z" />
</g>
<g id="#c1c1c1ff">
<path fill="#c1c1c1" opacity="1.00" d=" M 41.70 14.05 C 46.84 11.43 52.44 9.74 58.19 9.21 C 64.78 9.93 71.82 11.54 76.78 16.22 C 82.48 22.55 83.88 31.82 82.11 39.95 C 79.43 52.79 71.27 64.08 60.89 71.90 C 57.03 74.91 52.55 76.94 48.41 79.52 C 44.10 79.46 38.58 80.41 36.12 75.87 C 34.97 76.23 33.81 76.58 32.65 76.94 C 32.93 75.70 33.20 74.47 33.48 73.23 C 30.26 71.59 26.66 71.48 23.22 72.41 C 22.85 72.09 22.10 71.46 21.73 71.15 C 23.34 70.44 24.95 69.74 26.57 69.04 C 25.52 67.32 24.48 65.60 23.45 63.87 C 22.17 64.07 20.89 64.28 19.61 64.49 C 20.81 63.08 21.95 61.62 22.99 60.10 C 27.25 61.33 31.91 62.05 36.10 60.13 C 42.46 57.68 46.67 52.04 51.06 47.12 C 55.55 50.55 59.58 54.71 64.68 57.25 C 66.20 58.31 67.80 56.91 68.57 55.62 C 68.77 53.01 67.74 50.53 66.90 48.12 C 64.63 42.20 62.81 36.07 59.75 30.48 C 56.33 32.80 53.66 35.97 51.32 39.34 C 47.63 36.78 43.74 33.74 38.99 33.89 C 33.86 33.69 29.37 36.66 25.78 40.03 C 24.90 38.09 24.05 36.15 23.22 34.20 C 25.35 34.20 27.49 34.23 29.63 34.24 C 28.73 32.58 27.82 30.91 26.93 29.24 C 29.46 28.31 32.63 27.80 33.93 25.11 C 36.16 21.17 39.16 17.77 41.70 14.05 Z" />
</g>
<g id="#acacacff">
<path fill="#acacac" opacity="1.00" d=" M 12.75 44.67 C 18.24 31.43 28.36 19.76 41.70 14.05 C 39.16 17.77 36.16 21.17 33.93 25.11 C 32.63 27.80 29.46 28.31 26.93 29.24 C 27.82 30.91 28.73 32.58 29.63 34.24 C 27.49 34.23 25.35 34.20 23.22 34.20 C 24.05 36.15 24.90 38.09 25.78 40.03 C 22.93 43.45 20.28 47.53 20.33 52.16 C 20.55 54.98 21.93 57.52 22.99 60.10 C 21.95 61.62 20.81 63.08 19.61 64.49 C 20.89 64.28 22.17 64.07 23.45 63.87 C 24.48 65.60 25.52 67.32 26.57 69.04 C 24.95 69.74 23.34 70.44 21.73 71.15 C 22.10 71.46 22.85 72.09 23.22 72.41 C 26.66 71.48 30.26 71.59 33.48 73.23 C 33.20 74.47 32.93 75.70 32.65 76.94 C 33.81 76.58 34.97 76.23 36.12 75.87 C 38.58 80.41 44.10 79.46 48.41 79.52 L 47.72 80.12 C 42.19 81.09 36.63 82.13 30.99 82.00 C 23.62 81.82 16.22 77.79 12.86 71.08 C 8.32 62.98 9.57 53.02 12.75 44.67 Z" />
</g>
<g id="#b4b4b4ff">
<path fill="#b4b4b4" opacity="1.00" d=" M 85.58 39.76 C 87.36 31.99 86.00 24.03 83.60 16.55 C 89.39 21.55 92.18 29.46 91.83 36.99 C 92.25 51.66 84.47 65.38 74.12 75.30 C 72.72 74.40 71.33 73.50 69.93 72.61 C 68.90 72.88 67.88 73.16 66.86 73.44 C 75.38 63.78 83.25 52.69 85.58 39.76 Z" />
</g>
<g id="#7e7e7eff">
<path fill="#7e7e7e" opacity="1.00" d=" M 51.32 39.34 C 53.66 35.97 56.33 32.80 59.75 30.48 C 62.81 36.07 64.63 42.20 66.90 48.12 C 67.74 50.53 68.77 53.01 68.57 55.62 C 67.80 56.91 66.20 58.31 64.68 57.25 C 59.58 54.71 55.55 50.55 51.06 47.12 C 46.67 52.04 42.46 57.68 36.10 60.13 C 31.91 62.05 27.25 61.33 22.99 60.10 C 21.93 57.52 20.55 54.98 20.33 52.16 C 20.28 47.53 22.93 43.45 25.78 40.03 C 29.37 36.66 33.86 33.69 38.99 33.89 C 43.74 33.74 47.63 36.78 51.32 39.34 M 25.61 51.96 C 26.13 55.60 30.68 57.13 33.81 55.89 C 39.84 53.71 44.26 48.74 48.27 43.95 C 45.42 42.40 42.68 40.53 39.55 39.57 C 32.38 37.72 24.81 44.71 25.61 51.96 M 52.04 45.59 C 54.45 45.03 56.90 44.63 59.36 44.39 C 58.62 42.73 57.88 41.06 57.11 39.42 C 55.39 41.46 53.72 43.53 52.04 45.59 Z" />
</g>
<g id="#c2c2c2ff">
<path fill="#c2c2c2" opacity="1.00" d=" M 25.61 51.96 C 24.81 44.71 32.38 37.72 39.55 39.57 C 42.68 40.53 45.42 42.40 48.27 43.95 C 44.26 48.74 39.84 53.71 33.81 55.89 C 30.68 57.13 26.13 55.60 25.61 51.96 Z" />
</g>
<g id="#b7b7b7ff">
<path fill="#b7b7b7" opacity="1.00" d=" M 52.04 45.59 C 53.72 43.53 55.39 41.46 57.11 39.42 C 57.88 41.06 58.62 42.73 59.36 44.39 C 56.90 44.63 54.45 45.03 52.04 45.59 Z" />
</g>
</svg>
