<?xml version="1.0" encoding="UTF-8" ?>
<!DOCTYPE svg PUBLIC "-//W3C//DTD SVG 1.1//EN" "http://www.w3.org/Graphics/SVG/1.1/DTD/svg11.dtd">
<svg width="96pt" height="96pt" viewBox="0 0 96 96" version="1.1" xmlns="http://www.w3.org/2000/svg">
<g id="#2c6f4dff">
<path fill="#2c6f4d" opacity="1.00" d=" M 50.02 5.07 C 61.05 2.33 74.47 5.20 81.45 14.71 C 83.67 21.24 86.41 27.95 85.01 34.99 C 84.14 43.68 80.63 51.78 75.96 59.07 C 72.95 63.61 69.76 68.12 65.66 71.75 C 62.92 74.13 59.94 76.21 56.88 78.16 C 54.34 79.72 51.62 80.98 48.85 82.06 C 47.30 81.11 45.69 80.22 43.94 79.70 C 58.10 74.79 70.21 64.21 76.87 50.76 C 81.82 41.46 83.79 29.74 79.06 19.96 C 76.47 14.29 70.73 10.63 64.76 9.47 C 60.91 8.83 56.98 8.93 53.10 9.17 C 53.97 7.83 54.83 6.49 55.70 5.14 C 53.81 5.11 51.91 5.05 50.02 5.07 Z" />
</g>
<g id="#276a47ff">
<path fill="#276a47" opacity="1.00" d=" M 39.49 8.38 C 42.85 6.88 46.35 5.52 50.02 5.07 C 51.91 5.05 53.81 5.11 55.70 5.14 C 54.83 6.49 53.97 7.83 53.10 9.17 C 49.26 9.97 45.53 11.27 41.97 12.93 C 33.18 16.38 26.00 22.83 19.71 29.72 C 13.18 36.94 8.74 46.23 8.10 56.01 C 7.93 63.76 10.49 72.27 16.94 77.05 C 24.15 82.25 33.84 83.01 42.15 80.24 C 42.60 80.10 43.49 79.84 43.94 79.70 C 45.69 80.22 47.30 81.11 48.85 82.06 C 44.16 84.05 39.22 85.71 34.07 85.70 C 28.02 86.11 22.33 83.75 16.51 82.54 C 4.51 74.87 1.68 58.06 6.27 45.29 C 11.44 29.02 24.06 15.49 39.49 8.38 Z" />
</g>
<g id="#319160ff">
<path fill="#319160" opacity="1.00" d=" M 41.97 12.93 C 45.53 11.27 49.26 9.97 53.10 9.17 C 56.98 8.93 60.91 8.83 64.76 9.47 C 70.73 10.63 76.47 14.29 79.06 19.96 C 83.79 29.74 81.82 41.46 76.87 50.76 C 70.21 64.21 58.10 74.79 43.94 79.70 C 43.49 79.84 42.60 80.10 42.15 80.24 C 36.27 76.40 28.89 76.11 23.09 72.15 C 24.03 70.73 24.97 69.31 25.91 67.89 C 23.72 65.43 21.62 62.91 19.63 60.30 C 20.14 59.97 21.17 59.31 21.69 58.99 C 26.22 60.94 31.39 61.14 35.85 58.83 C 41.84 56.22 45.76 50.75 50.00 46.03 C 54.26 49.44 58.33 53.16 63.02 55.98 C 64.73 57.39 67.12 55.77 67.49 53.88 C 67.37 51.61 66.46 49.48 65.72 47.35 C 63.49 41.47 61.51 35.49 58.78 29.81 C 55.00 31.89 52.34 35.32 49.93 38.79 C 46.64 36.35 43.33 33.21 38.97 33.16 C 33.77 32.74 29.17 35.61 24.80 38.03 C 26.04 35.26 27.41 32.56 28.78 29.86 C 29.74 28.47 28.77 26.87 28.45 25.44 C 32.16 20.46 37.48 17.11 41.97 12.93 Z" />
</g>
<g id="#20804fff">
<path fill="#20804f" opacity="1.00" d=" M 19.71 29.72 C 26.00 22.83 33.18 16.38 41.97 12.93 C 37.48 17.11 32.16 20.46 28.45 25.44 C 28.77 26.87 29.74 28.47 28.78 29.86 C 27.41 32.56 26.04 35.26 24.80 38.03 C 22.82 41.73 20.25 45.25 19.40 49.44 C 18.73 52.81 20.51 55.95 21.69 58.99 C 21.17 59.31 20.14 59.97 19.63 60.30 C 21.62 62.91 23.72 65.43 25.91 67.89 C 24.97 69.31 24.03 70.73 23.09 72.15 C 28.89 76.11 36.27 76.40 42.15 80.24 C 33.84 83.01 24.15 82.25 16.94 77.05 C 10.49 72.27 7.93 63.76 8.10 56.01 C 8.74 46.23 13.18 36.94 19.71 29.72 Z" />
</g>
<g id="#49b27dff">
<path fill="#49b27d" opacity="1.00" d=" M 85.01 34.99 C 86.41 27.95 83.67 21.24 81.45 14.71 C 87.49 19.57 90.56 27.35 90.61 34.98 C 91.43 49.79 83.89 64.04 73.29 73.97 C 70.81 73.05 68.26 72.29 65.66 71.75 C 69.76 68.12 72.95 63.61 75.96 59.07 C 76.02 59.60 76.14 60.64 76.20 61.17 C 83.04 53.96 86.31 43.97 87.27 34.23 C 86.71 34.42 85.58 34.80 85.01 34.99 Z" />
</g>
<g id="#026b22ff">
<path fill="#026b22" opacity="1.00" d=" M 49.93 38.79 C 52.34 35.32 55.00 31.89 58.78 29.81 C 61.51 35.49 63.49 41.47 65.72 47.35 C 66.46 49.48 67.37 51.61 67.49 53.88 C 67.12 55.77 64.73 57.39 63.02 55.98 C 58.33 53.16 54.26 49.44 50.00 46.03 C 45.76 50.75 41.84 56.22 35.85 58.83 C 31.39 61.14 26.22 60.94 21.69 58.99 C 20.51 55.95 18.73 52.81 19.40 49.44 C 20.25 45.25 22.82 41.73 24.80 38.03 C 29.17 35.61 33.77 32.74 38.97 33.16 C 43.33 33.21 46.64 36.35 49.93 38.79 M 34.60 38.49 C 28.99 39.31 23.68 44.76 24.38 50.62 C 24.78 54.63 29.46 56.16 32.85 54.86 C 38.83 52.73 43.32 47.71 47.04 42.74 C 42.95 41.26 39.24 37.52 34.60 38.49 M 51.04 44.73 C 53.36 43.94 55.80 43.61 58.25 43.75 C 57.76 42.22 57.31 40.68 56.70 39.20 C 53.81 39.34 52.82 42.87 51.04 44.73 Z" />
</g>
<g id="#81b69bff">
<path fill="#81b69b" opacity="1.00" d=" M 85.01 34.99 C 85.58 34.80 86.71 34.42 87.27 34.23 C 86.31 43.97 83.04 53.96 76.20 61.17 C 76.14 60.64 76.02 59.60 75.96 59.07 C 80.63 51.78 84.14 43.68 85.01 34.99 Z" />
</g>
<g id="#319161ff">
<path fill="#319161" opacity="1.00" d=" M 34.60 38.49 C 39.24 37.52 42.95 41.26 47.04 42.74 C 43.32 47.71 38.83 52.73 32.85 54.86 C 29.46 56.16 24.78 54.63 24.38 50.62 C 23.68 44.76 28.99 39.31 34.60 38.49 Z" />
</g>
<g id="#2c8a59ff">
<path fill="#2c8a59" opacity="1.00" d=" M 51.04 44.73 C 52.82 42.87 53.81 39.34 56.70 39.20 C 57.31 40.68 57.76 42.22 58.25 43.75 C 55.80 43.61 53.36 43.94 51.04 44.73 Z" />
</g>
<g id="#359e69ff">
<path fill="#359e69" opacity="1.00" d=" M 56.88 78.16 C 59.94 76.21 62.92 74.13 65.66 71.75 C 68.26 72.29 70.81 73.05 73.29 73.97 C 70.37 77.35 66.81 80.09 63.06 82.48 C 60.99 81.05 58.93 79.61 56.88 78.16 Z" />
</g>
<g id="#218a55ff">
<path fill="#218a55" opacity="1.00" d=" M 48.85 82.06 C 51.62 80.98 54.34 79.72 56.88 78.16 C 58.93 79.61 60.99 81.05 63.06 82.48 C 53.13 88.91 40.82 92.36 29.07 89.85 C 24.35 88.66 19.38 86.69 16.51 82.54 C 22.33 83.75 28.02 86.11 34.07 85.70 C 39.22 85.71 44.16 84.05 48.85 82.06 Z" />
</g>
</svg>
