<?xml version="1.0" encoding="UTF-8" ?>
<!DOCTYPE svg PUBLIC "-//W3C//DTD SVG 1.1//EN" "http://www.w3.org/Graphics/SVG/1.1/DTD/svg11.dtd">
<svg width="96pt" height="96pt" viewBox="0 0 96 96" version="1.1" xmlns="http://www.w3.org/2000/svg">
<path fill="#e1ad54" opacity="1.00" d=" M 51.90 5.98 C 53.01 5.00 54.52 4.77 55.95 4.73 C 62.47 4.72 69.04 6.10 74.86 9.09 C 79.02 11.44 82.29 15.05 85.38 18.63 C 88.50 22.23 90.30 26.89 90.68 31.61 C 89.84 31.68 89.07 31.48 88.37 31.03 C 87.52 30.07 86.03 28.31 85.17 30.30 C 84.37 34.23 85.69 38.35 84.52 42.25 C 82.75 48.32 80.34 54.34 76.45 59.39 C 74.76 61.72 72.60 63.93 72.22 66.91 C 74.88 65.73 76.30 62.91 78.27 60.89 C 79.87 61.65 81.44 62.47 83.03 63.24 C 82.84 65.49 80.99 67.01 79.74 68.73 C 77.75 71.01 76.07 73.71 73.44 75.33 C 72.23 74.29 71.05 73.21 69.74 72.30 C 67.94 73.09 66.38 74.35 64.56 75.08 C 63.19 75.28 61.79 75.24 60.42 75.40 C 58.41 76.15 56.81 77.65 55.06 78.83 C 53.41 79.61 51.75 80.36 50.05 81.02 C 48.17 81.10 46.28 81.06 44.39 81.07 L 45.24 80.62 C 51.14 78.02 56.97 75.14 61.93 70.95 C 66.96 67.30 70.74 62.32 74.43 57.40 C 77.22 53.52 78.90 49.00 80.55 44.55 C 82.36 39.91 81.91 34.84 81.95 29.97 C 82.37 22.51 77.69 15.09 70.75 12.29 C 64.95 8.81 58.03 9.72 51.59 9.70 C 52.71 8.56 53.72 7.33 54.74 6.10 C 54.03 6.07 52.61 6.01 51.90 5.98 Z" />
<path fill="#e0a047" opacity="1.00" d=" M 37.41 10.53 C 41.98 8.33 46.83 6.51 51.90 5.98 C 52.61 6.01 54.03 6.07 54.74 6.10 C 53.72 7.33 52.71 8.56 51.59 9.70 C 49.06 10.66 46.56 11.69 44.15 12.92 C 31.24 19.16 19.64 29.00 13.09 41.93 C 9.85 49.31 7.80 57.84 10.34 65.75 C 12.10 72.05 16.72 77.40 22.55 80.30 C 25.47 81.78 28.82 81.70 32.00 81.75 C 36.14 81.74 40.29 81.65 44.39 81.07 C 46.28 81.06 48.17 81.10 50.05 81.02 C 44.33 83.37 38.24 85.13 31.99 84.78 C 26.52 85.01 21.27 83.30 16.12 81.70 C 8.96 77.40 5.74 68.92 4.48 61.03 C 3.74 55.85 6.01 50.96 7.14 46.01 C 11.82 30.67 23.50 18.14 37.41 10.53 Z" />
<path fill="#f2cc5f" opacity="1.00" d=" M 51.59 9.70 C 58.03 9.72 64.95 8.81 70.75 12.29 C 77.69 15.09 82.37 22.51 81.95 29.97 C 81.91 34.84 82.36 39.91 80.55 44.55 C 78.90 49.00 77.22 53.52 74.43 57.40 C 70.74 62.32 66.96 67.30 61.93 70.95 C 56.97 75.14 51.14 78.02 45.24 80.62 C 42.10 79.44 38.93 78.35 35.69 77.50 C 32.76 76.65 29.55 75.83 27.44 73.45 C 26.80 71.68 27.74 69.70 27.11 67.92 C 25.67 65.96 23.62 64.57 22.01 62.76 C 22.08 61.51 22.48 60.31 22.76 59.10 C 25.87 60.18 29.23 61.41 32.52 60.35 C 38.31 58.63 43.66 55.16 47.40 50.40 C 50.30 46.49 53.01 42.43 56.26 38.80 C 56.66 38.84 57.46 38.92 57.86 38.95 C 59.07 41.15 59.30 43.69 59.37 46.16 C 57.94 45.55 56.56 44.84 55.11 44.31 C 53.72 44.63 52.95 45.98 52.20 47.07 C 54.01 49.51 56.86 50.82 59.16 52.72 C 61.46 54.33 63.59 56.79 66.63 56.77 C 67.79 55.61 67.99 53.82 67.55 52.31 C 66.75 49.28 65.34 46.46 64.32 43.51 C 62.78 39.41 61.70 35.09 59.51 31.27 C 59.03 31.34 58.08 31.48 57.61 31.55 C 55.05 33.87 54.08 37.77 50.96 39.45 C 47.61 39.13 46.09 35.04 42.76 34.47 C 37.66 33.42 32.53 34.96 27.95 37.16 C 28.32 35.03 28.88 32.92 29.97 31.03 C 31.26 28.73 31.66 26.08 32.61 23.65 C 35.54 19.14 41.03 17.27 44.15 12.92 C 46.56 11.69 49.06 10.66 51.59 9.70 Z" />
<path fill="#f4ba4e" opacity="1.00" d=" M 13.09 41.93 C 19.64 29.00 31.24 19.16 44.15 12.92 C 41.03 17.27 35.54 19.14 32.61 23.65 C 31.66 26.08 31.26 28.73 29.97 31.03 C 28.88 32.92 28.32 35.03 27.95 37.16 C 24.21 41.74 19.01 46.55 19.72 53.02 C 19.71 55.43 21.57 57.19 22.76 59.10 C 22.48 60.31 22.08 61.51 22.01 62.76 C 23.62 64.57 25.67 65.96 27.11 67.92 C 27.74 69.70 26.80 71.68 27.44 73.45 C 29.55 75.83 32.76 76.65 35.69 77.50 C 38.93 78.35 42.10 79.44 45.24 80.62 L 44.39 81.07 C 40.29 81.65 36.14 81.74 32.00 81.75 C 28.82 81.70 25.47 81.78 22.55 80.30 C 16.72 77.40 12.10 72.05 10.34 65.75 C 7.80 57.84 9.85 49.31 13.09 41.93 Z" />
<path fill="#f2cc5f" opacity="1.00" d=" M 85.17 30.30 C 86.03 28.31 87.52 30.07 88.37 31.03 C 88.53 37.08 87.60 43.26 84.90 48.73 C 82.89 52.89 81.10 57.20 78.27 60.89 C 76.30 62.91 74.88 65.73 72.22 66.91 C 72.60 63.93 74.76 61.72 76.45 59.39 C 80.34 54.34 82.75 48.32 84.52 42.25 C 85.69 38.35 84.37 34.23 85.17 30.30 Z" />
<path fill="#ffffb7" opacity="1.00" d=" M 57.61 31.55 C 58.08 31.48 59.03 31.34 59.51 31.27 C 61.70 35.09 62.78 39.41 64.32 43.51 C 65.34 46.46 66.75 49.28 67.55 52.31 C 67.99 53.82 67.79 55.61 66.63 56.77 C 63.59 56.79 61.46 54.33 59.16 52.72 C 56.86 50.82 54.01 49.51 52.20 47.07 C 52.95 45.98 53.72 44.63 55.11 44.31 C 56.56 44.84 57.94 45.55 59.37 46.16 C 59.30 43.69 59.07 41.15 57.86 38.95 C 57.46 38.92 56.66 38.84 56.26 38.80 C 53.01 42.43 50.30 46.49 47.40 50.40 C 43.66 55.16 38.31 58.63 32.52 60.35 C 29.23 61.41 25.87 60.18 22.76 59.10 C 21.57 57.19 19.71 55.43 19.72 53.02 C 19.01 46.55 24.21 41.74 27.95 37.16 C 32.53 34.96 37.66 33.42 42.76 34.47 C 46.09 35.04 47.61 39.13 50.96 39.45 C 54.08 37.77 55.05 33.87 57.61 31.55 M 31.88 39.83 C 28.38 42.14 24.34 45.34 24.58 50.00 C 24.14 53.48 27.53 56.85 31.00 56.43 C 34.79 56.50 37.79 53.91 40.70 51.84 C 44.00 49.62 46.35 46.29 48.38 42.94 C 44.61 42.87 42.78 38.61 39.00 38.65 C 36.60 38.52 33.92 38.29 31.88 39.83 M 48.26 42.44 L 48.38 42.94 L 48.84 42.78 L 48.71 42.31 L 48.26 42.44 Z" />
<path fill="#f4ba4e" opacity="1.00" d=" M 88.37 31.03 C 89.07 31.48 89.84 31.68 90.68 31.61 L 91.14 31.64 C 92.24 42.60 90.11 54.55 83.03 63.24 C 81.44 62.47 79.87 61.65 78.27 60.89 C 81.10 57.20 82.89 52.89 84.90 48.73 C 87.60 43.26 88.53 37.08 88.37 31.03 Z" />
<path fill="#f2cc5f" opacity="1.00" d=" M 31.88 39.83 C 33.92 38.29 36.60 38.52 39.00 38.65 C 42.78 38.61 44.61 42.87 48.38 42.94 C 46.35 46.29 44.00 49.62 40.70 51.84 C 37.79 53.91 34.79 56.50 31.00 56.43 C 27.53 56.85 24.14 53.48 24.58 50.00 C 24.34 45.34 28.38 42.14 31.88 39.83 Z" />
<path fill="#f2cc5f" opacity="1.00" d=" M 48.26 42.44 L 48.71 42.31 L 48.84 42.78 L 48.38 42.94 L 48.26 42.44 Z" />
<path fill="#d29f41" opacity="1.00" d=" M 64.56 75.08 C 66.38 74.35 67.94 73.09 69.74 72.30 C 71.05 73.21 72.23 74.29 73.44 75.33 C 70.98 78.65 67.30 80.90 63.92 83.19 L 63.15 83.23 C 60.25 82.18 57.23 81.14 55.06 78.83 C 56.81 77.65 58.41 76.15 60.42 75.40 C 61.79 75.24 63.19 75.28 64.56 75.08 Z" />
<path fill="#c2933c" opacity="1.00" d=" M 50.05 81.02 C 51.75 80.36 53.41 79.61 55.06 78.83 C 57.23 81.14 60.25 82.18 63.15 83.23 C 57.68 88.18 50.16 90.08 43.01 90.99 C 34.40 92.41 24.84 90.81 18.13 84.90 C 17.18 84.04 16.65 82.84 16.12 81.70 C 21.27 83.30 26.52 85.01 31.99 84.78 C 38.24 85.13 44.33 83.37 50.05 81.02 Z" />
</svg>
