<?xml version="1.0" encoding="UTF-8" ?>
<!DOCTYPE svg PUBLIC "-//W3C//DTD SVG 1.1//EN" "http://www.w3.org/Graphics/SVG/1.1/DTD/svg11.dtd">
<svg width="96pt" height="96pt" viewBox="0 0 96 96" version="1.1" xmlns="http://www.w3.org/2000/svg">
<g id="#e19f48ff">
<path fill="#e19f48" opacity="1.00" d=" M 6.25 47.42 C 12.57 27.11 30.07 10.59 50.85 5.81 C 50.74 6.37 50.52 7.49 50.42 8.06 C 50.78 8.66 51.15 9.27 51.52 9.88 C 50.69 10.25 49.86 10.61 49.03 10.97 C 46.67 11.93 44.32 12.91 42.01 13.99 C 31.92 18.02 23.68 25.62 17.21 34.19 C 10.61 42.97 7.37 54.54 9.74 65.39 C 11.26 72.15 16.05 77.71 22.06 80.97 C 26.11 83.44 30.91 83.98 35.46 84.96 C 28.44 86.48 21.51 84.06 14.87 82.03 C 10.72 79.07 8.07 74.46 6.37 69.75 C 2.95 62.85 3.25 54.41 6.25 47.42 Z" />
</g>
<g id="#e1ac49ff">
<path fill="#e1ac49" opacity="1.00" d=" M 50.85 5.81 C 60.18 4.62 70.66 5.53 78.05 11.95 C 82.06 15.97 86.69 19.73 88.80 25.17 C 92.82 34.89 91.54 46.03 87.50 55.53 C 82.81 66.56 74.58 75.78 64.90 82.72 C 62.41 81.42 60.37 79.48 58.87 77.12 C 51.62 81.13 43.83 84.41 35.46 84.96 C 30.91 83.98 26.11 83.44 22.06 80.97 C 28.48 82.03 35.12 82.67 41.53 81.19 C 47.16 79.95 52.56 77.63 57.28 74.31 C 68.08 66.51 77.26 55.72 80.70 42.62 C 83.42 33.57 82.26 22.58 75.30 15.70 C 68.10 9.60 57.89 9.25 49.03 10.97 C 49.86 10.61 50.69 10.25 51.52 9.88 C 51.15 9.27 50.78 8.66 50.42 8.06 C 50.52 7.49 50.74 6.37 50.85 5.81 M 85.59 29.67 C 85.03 38.42 83.12 47.18 78.76 54.87 C 76.16 59.82 72.17 63.93 69.94 69.09 C 73.94 67.18 76.17 63.17 78.80 59.81 C 84.13 51.97 87.38 42.57 87.53 33.06 C 87.68 31.59 86.37 30.71 85.59 29.67 Z" />
</g>
<g id="#ffd764ff">
<path fill="#ffd764" opacity="1.00" d=" M 49.03 10.97 C 57.89 9.25 68.10 9.60 75.30 15.70 C 82.26 22.58 83.42 33.57 80.70 42.62 C 77.26 55.72 68.08 66.51 57.28 74.31 C 52.56 77.63 47.16 79.95 41.53 81.19 C 36.09 78.68 29.95 76.78 26.06 71.93 C 23.09 68.70 21.50 64.54 20.68 60.29 C 22.47 60.56 24.26 60.84 26.06 61.09 C 31.32 61.81 36.80 60.24 40.98 56.99 C 44.74 54.07 47.76 50.36 50.95 46.86 C 55.38 50.20 59.46 54.10 64.37 56.73 C 66.59 57.93 69.04 55.36 68.11 53.10 C 66.04 45.31 63.03 37.75 59.74 30.39 C 55.97 32.37 53.43 35.81 51.05 39.22 C 47.48 36.61 43.72 33.47 39.01 33.61 C 32.89 33.34 27.82 37.34 23.61 41.31 C 23.88 38.21 24.94 35.25 26.70 32.68 C 31.10 25.93 35.98 19.39 42.01 13.99 C 44.32 12.91 46.67 11.93 49.03 10.97 Z" />
</g>
<g id="#ffc151ff">
<path fill="#ffc151" opacity="1.00" d=" M 17.21 34.19 C 23.68 25.62 31.92 18.02 42.01 13.99 C 35.98 19.39 31.10 25.93 26.70 32.68 C 24.94 35.25 23.88 38.21 23.61 41.31 C 21.55 45.37 19.27 49.92 20.47 54.60 C 21.07 57.59 23.61 59.58 26.06 61.09 C 24.26 60.84 22.47 60.56 20.68 60.29 C 21.50 64.54 23.09 68.70 26.06 71.93 C 29.95 76.78 36.09 78.68 41.53 81.19 C 35.12 82.67 28.48 82.03 22.06 80.97 C 16.05 77.71 11.26 72.15 9.74 65.39 C 7.37 54.54 10.61 42.97 17.21 34.19 Z" />
</g>
<g id="#eec488ff">
<path fill="#eec488" opacity="1.00" d=" M 85.59 29.67 C 86.37 30.71 87.68 31.59 87.53 33.06 C 87.38 42.57 84.13 51.97 78.80 59.81 C 76.17 63.17 73.94 67.18 69.94 69.09 C 72.17 63.93 76.16 59.82 78.76 54.87 C 83.12 47.18 85.03 38.42 85.59 29.67 Z" />
</g>
<g id="#e8a002ff">
<path fill="#e8a002" opacity="1.00" d=" M 51.05 39.22 C 53.43 35.81 55.97 32.37 59.74 30.39 C 63.03 37.75 66.04 45.31 68.11 53.10 C 69.04 55.36 66.59 57.93 64.37 56.73 C 59.46 54.10 55.38 50.20 50.95 46.86 C 47.76 50.36 44.74 54.07 40.98 56.99 C 36.80 60.24 31.32 61.81 26.06 61.09 C 23.61 59.58 21.07 57.59 20.47 54.60 C 19.27 49.92 21.55 45.37 23.61 41.31 C 27.82 37.34 32.89 33.34 39.01 33.61 C 43.72 33.47 47.48 36.61 51.05 39.22 M 25.22 50.00 C 24.75 53.54 28.37 56.62 31.80 55.77 C 38.91 54.70 43.49 48.41 47.99 43.41 C 44.68 42.55 42.09 40.20 38.94 39.03 C 32.54 38.18 25.54 43.44 25.22 50.00 M 51.71 45.52 C 54.19 44.61 56.81 44.26 59.44 44.54 C 58.66 42.75 57.88 40.96 57.08 39.18 C 55.05 41.08 53.29 43.24 51.71 45.52 Z" />
</g>
<g id="#ffd765ff">
<path fill="#ffd765" opacity="1.00" d=" M 25.22 50.00 C 25.54 43.44 32.54 38.18 38.94 39.03 C 42.09 40.20 44.68 42.55 47.99 43.41 C 43.49 48.41 38.91 54.70 31.80 55.77 C 28.37 56.62 24.75 53.54 25.22 50.00 Z" />
</g>
<g id="#f5cc58ff">
<path fill="#f5cc58" opacity="1.00" d=" M 51.71 45.52 C 53.29 43.24 55.05 41.08 57.08 39.18 C 57.88 40.96 58.66 42.75 59.44 44.54 C 56.81 44.26 54.19 44.61 51.71 45.52 Z" />
</g>
<g id="#c1923cff">
<path fill="#c1923c" opacity="1.00" d=" M 35.46 84.96 C 43.83 84.41 51.62 81.13 58.87 77.12 C 60.37 79.48 62.41 81.42 64.90 82.72 C 54.51 89.76 41.49 93.75 28.99 90.98 C 23.52 89.58 18.25 86.64 14.87 82.03 C 21.51 84.06 28.44 86.48 35.46 84.96 Z" />
</g>
</svg>
