<?xml version="1.0" encoding="UTF-8" ?>
<!DOCTYPE svg PUBLIC "-//W3C//DTD SVG 1.1//EN" "http://www.w3.org/Graphics/SVG/1.1/DTD/svg11.dtd">
<svg width="96pt" height="96pt" viewBox="0 0 96 96" version="1.1" xmlns="http://www.w3.org/2000/svg">
<g id="#e1ac49ff">
<path fill="#e1ac49" opacity="1.00" d=" M 51.38 5.39 C 59.37 2.80 68.01 4.94 75.18 8.84 C 79.09 11.12 81.98 14.72 85.15 17.88 C 89.06 21.73 90.28 27.25 92.49 32.09 C 92.75 36.49 93.48 41.27 91.40 45.36 C 89.91 49.30 89.09 53.49 87.16 57.27 C 82.36 66.99 75.05 75.50 66.08 81.61 C 64.47 81.05 62.81 80.59 61.28 79.80 C 60.75 78.70 60.68 77.46 60.45 76.28 C 49.96 81.95 37.99 86.56 25.88 84.16 C 22.88 82.52 19.68 81.21 16.85 79.27 C 16.77 78.38 16.74 77.48 16.76 76.58 C 24.45 81.94 34.41 83.05 43.30 80.35 C 59.41 76.02 72.86 63.47 79.27 48.19 C 83.55 38.44 84.54 26.11 77.80 17.21 C 71.40 9.42 60.15 8.29 50.84 10.15 C 50.95 8.56 51.14 6.97 51.38 5.39 M 86.42 28.86 C 85.46 38.90 83.17 49.03 77.56 57.56 C 75.32 61.34 71.77 64.45 70.85 68.89 C 80.00 61.15 86.08 49.82 87.70 37.96 C 87.64 34.96 88.62 31.31 86.42 28.86 Z" />
</g>
<g id="#e19f48ff">
<path fill="#e19f48" opacity="1.00" d=" M 10.99 36.99 C 19.23 21.45 34.07 9.21 51.38 5.39 C 51.14 6.97 50.95 8.56 50.84 10.15 C 47.80 11.18 44.90 12.54 41.99 13.85 C 29.77 18.98 19.76 28.97 13.70 40.66 C 7.90 51.89 7.53 67.04 16.76 76.58 C 16.74 77.48 16.77 78.38 16.85 79.27 C 19.68 81.21 22.88 82.52 25.88 84.16 C 21.65 83.69 17.65 82.14 14.01 79.98 C 9.29 76.36 7.17 70.43 5.83 64.83 C 4.15 55.30 6.52 45.45 10.99 36.99 Z" />
</g>
<g id="#ffd764ff">
<path fill="#ffd764" opacity="1.00" d=" M 50.84 10.15 C 60.15 8.29 71.40 9.42 77.80 17.21 C 84.54 26.11 83.55 38.44 79.27 48.19 C 72.86 63.47 59.41 76.02 43.30 80.35 C 38.08 77.52 32.51 74.98 28.27 70.73 C 23.82 65.28 21.88 57.97 22.86 51.02 C 23.45 42.81 27.36 35.40 31.38 28.40 C 34.36 23.14 39.32 19.32 41.99 13.85 C 44.90 12.54 47.80 11.18 50.84 10.15 M 30.99 45.75 C 33.23 46.23 35.96 45.77 37.79 47.37 C 38.20 49.36 37.26 51.50 35.45 52.46 C 33.05 54.02 30.26 52.41 27.84 51.75 C 26.94 53.18 26.33 54.76 26.33 56.47 C 29.18 57.29 32.23 58.25 35.17 57.23 C 39.83 55.78 43.93 51.21 43.74 46.16 C 43.71 42.81 39.84 42.22 37.48 41.04 C 38.04 40.04 38.64 39.07 39.28 38.12 C 41.65 37.32 44.25 38.05 46.72 37.71 C 47.99 36.88 48.30 35.22 49.05 33.98 C 45.17 32.98 41.13 32.39 37.13 32.82 C 34.51 36.80 32.71 41.31 30.99 45.75 M 58.41 34.43 C 53.98 35.21 50.87 39.00 48.74 42.69 C 46.54 46.92 44.52 51.73 45.42 56.60 C 47.26 60.43 52.89 60.02 55.83 57.76 C 61.50 53.30 64.82 46.10 65.34 38.99 C 65.49 35.40 61.46 33.64 58.41 34.43 Z" />
</g>
<g id="#ffc252ff">
<path fill="#ffc252" opacity="1.00" d=" M 13.70 40.66 C 19.76 28.97 29.77 18.98 41.99 13.85 C 39.32 19.32 34.36 23.14 31.38 28.40 C 27.36 35.40 23.45 42.81 22.86 51.02 C 21.88 57.97 23.82 65.28 28.27 70.73 C 32.51 74.98 38.08 77.52 43.30 80.35 C 34.41 83.05 24.45 81.94 16.76 76.58 C 7.53 67.04 7.90 51.89 13.70 40.66 Z" />
</g>
<g id="#f2c98dff">
<path fill="#f2c98d" opacity="1.00" d=" M 86.42 28.86 C 88.62 31.31 87.64 34.96 87.70 37.96 C 86.08 49.82 80.00 61.15 70.85 68.89 C 71.77 64.45 75.32 61.34 77.56 57.56 C 83.17 49.03 85.46 38.90 86.42 28.86 Z" />
</g>
<g id="#e89f02ff">
<path fill="#e89f02" opacity="1.00" d=" M 30.99 45.75 C 32.71 41.31 34.51 36.80 37.13 32.82 C 41.13 32.39 45.17 32.98 49.05 33.98 C 48.30 35.22 47.99 36.88 46.72 37.71 C 44.25 38.05 41.65 37.32 39.28 38.12 C 38.64 39.07 38.04 40.04 37.48 41.04 C 39.84 42.22 43.71 42.81 43.74 46.16 C 43.93 51.21 39.83 55.78 35.17 57.23 C 32.23 58.25 29.18 57.29 26.33 56.47 C 26.33 54.76 26.94 53.18 27.84 51.75 C 30.26 52.41 33.05 54.02 35.45 52.46 C 37.26 51.50 38.20 49.36 37.79 47.37 C 35.96 45.77 33.23 46.23 30.99 45.75 Z" />
<path fill="#e89f02" opacity="1.00" d=" M 58.41 34.43 C 61.46 33.64 65.49 35.40 65.34 38.99 C 64.82 46.10 61.50 53.30 55.83 57.76 C 52.89 60.02 47.26 60.43 45.42 56.60 C 44.52 51.73 46.54 46.92 48.74 42.69 C 50.87 39.00 53.98 35.21 58.41 34.43 M 55.63 40.65 C 52.88 44.43 50.79 48.96 50.36 53.65 C 50.75 54.12 51.53 55.07 51.93 55.55 C 57.08 51.79 59.54 45.18 59.91 38.99 C 58.29 38.91 56.56 39.16 55.63 40.65 Z" />
</g>
<g id="#fed968ff">
<path fill="#fed968" opacity="1.00" d=" M 55.63 40.65 C 56.56 39.16 58.29 38.91 59.91 38.99 C 59.54 45.18 57.08 51.79 51.93 55.55 C 51.53 55.07 50.75 54.12 50.36 53.65 C 50.79 48.96 52.88 44.43 55.63 40.65 Z" />
</g>
<g id="#c2933cff">
<path fill="#c2933c" opacity="1.00" d=" M 25.88 84.16 C 37.99 86.56 49.96 81.95 60.45 76.28 C 60.68 77.46 60.75 78.70 61.28 79.80 C 62.81 80.59 64.47 81.05 66.08 81.61 C 59.12 86.95 50.58 89.89 42.00 91.33 C 31.60 92.44 20.29 88.67 14.01 79.98 C 17.65 82.14 21.65 83.69 25.88 84.16 Z" />
</g>
</svg>
