<?xml version="1.0" encoding="UTF-8" ?>
<!DOCTYPE svg PUBLIC "-//W3C//DTD SVG 1.1//EN" "http://www.w3.org/Graphics/SVG/1.1/DTD/svg11.dtd">
<svg width="96pt" height="96pt" viewBox="0 0 96 96" version="1.1" xmlns="http://www.w3.org/2000/svg">
<g id="#e1ad4aff">
<path fill="#e1ad4a" opacity="1.00" d=" M 49.90 6.16 C 58.13 2.62 67.30 5.10 74.89 9.04 C 78.49 10.98 81.15 14.17 84.02 17.00 C 89.64 22.48 91.40 30.59 92.74 38.00 C 91.12 46.39 88.82 54.94 84.28 62.31 C 79.48 70.48 72.57 77.24 64.89 82.70 C 62.96 80.90 61.28 78.85 59.96 76.56 C 55.81 78.61 51.68 80.76 47.26 82.18 C 44.75 82.10 42.26 81.90 39.75 81.83 C 41.23 81.39 42.70 80.89 44.16 80.40 C 61.02 75.04 74.91 61.31 80.53 44.56 C 83.42 35.89 83.27 25.72 77.99 17.98 C 72.16 9.84 61.02 9.21 51.90 10.02 C 52.51 8.63 53.09 7.22 53.61 5.80 C 52.37 5.90 51.13 6.02 49.90 6.16 M 86.65 28.76 C 85.23 36.53 84.41 44.56 80.73 51.69 C 78.01 57.99 73.13 63.00 70.17 69.17 C 77.58 63.92 82.09 55.60 85.28 47.31 C 87.23 41.42 88.95 34.80 86.65 28.76 Z" />
</g>
<g id="#e19f48ff">
<path fill="#e19f48" opacity="1.00" d=" M 21.49 22.49 C 29.32 14.80 38.95 8.18 49.90 6.16 C 51.13 6.02 52.37 5.90 53.61 5.80 C 53.09 7.22 52.51 8.63 51.90 10.02 C 48.49 11.03 45.18 12.34 41.99 13.91 C 29.65 19.32 19.25 29.20 13.36 41.32 C 9.63 49.28 7.79 58.67 10.84 67.15 C 12.80 73.17 17.40 78.35 23.38 80.57 C 28.60 82.52 34.29 82.08 39.75 81.83 C 42.26 81.90 44.75 82.10 47.26 82.18 C 37.23 86.28 25.93 85.54 15.85 82.04 C 9.48 77.45 5.83 69.70 5.25 61.99 C 4.00 47.16 11.45 32.94 21.49 22.49 Z" />
</g>
<g id="#ffd764ff">
<path fill="#ffd764" opacity="1.00" d=" M 41.99 13.91 C 45.18 12.34 48.49 11.03 51.90 10.02 C 61.02 9.21 72.16 9.84 77.99 17.98 C 83.27 25.72 83.42 35.89 80.53 44.56 C 74.91 61.31 61.02 75.04 44.16 80.40 C 34.03 79.34 24.44 72.44 21.47 62.50 C 20.24 59.87 23.30 58.45 24.67 56.70 C 29.52 49.40 32.18 40.86 35.18 32.68 C 32.55 33.03 29.95 33.50 27.33 33.92 C 29.96 25.92 36.22 19.79 41.99 13.91 M 47.37 34.46 C 42.69 35.30 39.54 39.41 37.38 43.34 C 35.37 47.30 33.55 51.88 34.62 56.38 C 35.98 59.27 39.93 59.55 42.61 58.58 C 47.53 56.67 50.09 51.61 52.11 47.07 C 53.25 44.02 54.83 40.62 53.78 37.34 C 52.98 34.66 49.77 34.11 47.37 34.46 M 63.41 36.52 C 58.86 37.86 56.27 42.30 54.29 46.29 C 52.71 49.87 50.89 53.87 51.89 57.86 C 53.04 61.14 57.39 61.11 60.15 60.22 C 65.24 58.07 67.94 52.76 69.92 47.91 C 70.93 44.91 72.19 41.44 70.77 38.38 C 69.42 35.69 65.88 36.05 63.41 36.52 Z" />
</g>
<g id="#ffc151ff">
<path fill="#ffc151" opacity="1.00" d=" M 13.36 41.32 C 19.25 29.20 29.65 19.32 41.99 13.91 C 36.22 19.79 29.96 25.92 27.33 33.92 C 25.39 35.33 23.86 37.20 22.39 39.08 C 24.10 39.41 25.82 39.70 27.54 39.98 C 25.18 45.46 22.72 50.91 20.93 56.61 C 22.17 56.64 23.42 56.67 24.67 56.70 C 23.30 58.45 20.24 59.87 21.47 62.50 C 24.44 72.44 34.03 79.34 44.16 80.40 C 42.70 80.89 41.23 81.39 39.75 81.83 C 34.29 82.08 28.60 82.52 23.38 80.57 C 17.40 78.35 12.80 73.17 10.84 67.15 C 7.79 58.67 9.63 49.28 13.36 41.32 Z" />
</g>
<g id="#f1ca92ff">
<path fill="#f1ca92" opacity="1.00" d=" M 86.65 28.76 C 88.95 34.80 87.23 41.42 85.28 47.31 C 82.09 55.60 77.58 63.92 70.17 69.17 C 73.13 63.00 78.01 57.99 80.73 51.69 C 84.41 44.56 85.23 36.53 86.65 28.76 Z" />
</g>
<g id="#e89f02ff">
<path fill="#e89f02" opacity="1.00" d=" M 27.33 33.92 C 29.95 33.50 32.55 33.03 35.18 32.68 C 32.18 40.86 29.52 49.40 24.67 56.70 C 23.42 56.67 22.17 56.64 20.93 56.61 C 22.72 50.91 25.18 45.46 27.54 39.98 C 25.82 39.70 24.10 39.41 22.39 39.08 C 23.86 37.20 25.39 35.33 27.33 33.92 Z" />
<path fill="#e89f02" opacity="1.00" d=" M 47.37 34.46 C 49.77 34.11 52.98 34.66 53.78 37.34 C 54.83 40.62 53.25 44.02 52.11 47.07 C 50.09 51.61 47.53 56.67 42.61 58.58 C 39.93 59.55 35.98 59.27 34.62 56.38 C 33.55 51.88 35.37 47.30 37.38 43.34 C 39.54 39.41 42.69 35.30 47.37 34.46 M 44.17 41.16 C 41.61 44.86 39.61 49.19 39.37 53.74 C 40.16 54.93 41.93 55.02 42.78 53.83 C 46.61 49.79 48.50 44.21 48.92 38.72 C 47.20 39.26 45.12 39.38 44.17 41.16 Z" />
<path fill="#e89f02" opacity="1.00" d=" M 63.41 36.52 C 65.88 36.05 69.42 35.69 70.77 38.38 C 72.19 41.44 70.93 44.91 69.92 47.91 C 67.94 52.76 65.24 58.07 60.15 60.22 C 57.39 61.11 53.04 61.14 51.89 57.86 C 50.89 53.87 52.71 49.87 54.29 46.29 C 56.27 42.30 58.86 37.86 63.41 36.52 M 56.92 56.11 C 59.59 57.30 61.27 54.39 62.48 52.50 C 64.56 48.61 67.10 44.06 65.10 39.62 C 60.02 43.38 56.75 49.78 56.92 56.11 Z" />
</g>
<g id="#fed968ff">
<path fill="#fed968" opacity="1.00" d=" M 44.17 41.16 C 45.12 39.38 47.20 39.26 48.92 38.72 C 48.50 44.21 46.61 49.79 42.78 53.83 C 41.93 55.02 40.16 54.93 39.37 53.74 C 39.61 49.19 41.61 44.86 44.17 41.16 Z" />
<path fill="#fed968" opacity="1.00" d=" M 56.92 56.11 C 56.75 49.78 60.02 43.38 65.10 39.62 C 67.10 44.06 64.56 48.61 62.48 52.50 C 61.27 54.39 59.59 57.30 56.92 56.11 Z" />
</g>
<g id="#c2933cff">
<path fill="#c2933c" opacity="1.00" d=" M 47.26 82.18 C 51.68 80.76 55.81 78.61 59.96 76.56 C 61.28 78.85 62.96 80.90 64.89 82.70 C 59.96 85.65 54.86 88.68 49.15 89.77 C 42.13 91.21 34.92 91.27 27.87 89.95 C 23.02 88.98 18.79 85.95 15.85 82.04 C 25.93 85.54 37.23 86.28 47.26 82.18 Z" />
</g>
<g id="#71562396">
<path fill="#715623" opacity="0.59" d=" M 27.87 89.95 C 34.92 91.27 42.13 91.21 49.15 89.77 C 42.92 94.08 34.10 94.46 27.87 89.95 Z" />
</g>
</svg>
