<?xml version="1.0" encoding="UTF-8" ?>
<!DOCTYPE svg PUBLIC "-//W3C//DTD SVG 1.1//EN" "http://www.w3.org/Graphics/SVG/1.1/DTD/svg11.dtd">
<svg width="96pt" height="96pt" viewBox="0 0 96 96" version="1.1" xmlns="http://www.w3.org/2000/svg">
<g id="#e19f48ff">
<path fill="#e19f48" opacity="1.00" d=" M 8.93 40.78 C 17.14 22.81 34.11 8.25 53.96 5.37 C 53.26 6.93 52.54 8.47 51.84 10.03 C 48.80 11.17 45.79 12.38 42.85 13.75 C 30.04 18.81 19.47 29.02 13.22 41.21 C 7.95 51.70 7.08 65.65 14.88 75.14 C 20.84 82.28 30.97 83.04 39.59 81.98 C 41.44 82.31 43.28 82.74 45.13 83.08 C 39.81 84.78 34.21 86.05 28.60 85.39 C 23.06 84.88 17.85 82.66 13.03 79.97 C 8.69 76.45 7.12 70.80 5.25 65.76 C 2.31 57.33 6.08 48.68 8.93 40.78 Z" />
</g>
<g id="#e1ac49ff">
<path fill="#e1ac49" opacity="1.00" d=" M 53.96 5.37 C 62.88 4.50 72.62 6.32 79.26 12.72 C 83.43 16.89 88.14 21.04 89.79 26.93 C 93.26 36.55 91.40 47.16 87.34 56.29 C 82.52 66.88 74.66 76.07 65.00 82.54 C 63.67 81.79 62.04 81.39 61.00 80.23 C 60.67 78.98 60.57 77.69 60.41 76.42 C 55.37 78.75 50.53 81.62 45.13 83.08 C 43.28 82.74 41.44 82.31 39.59 81.98 C 41.15 81.49 42.68 80.93 44.23 80.42 C 61.15 75.22 74.95 61.18 80.39 44.39 C 82.64 37.41 83.02 29.59 80.32 22.68 C 77.69 15.89 70.89 11.32 63.81 10.35 C 59.84 9.86 55.83 9.94 51.84 10.03 C 52.54 8.47 53.26 6.93 53.96 5.37 M 85.99 30.07 C 84.84 38.62 83.35 47.35 78.94 54.93 C 76.41 59.87 72.31 63.84 70.07 68.94 C 74.86 66.68 77.53 61.69 80.53 57.58 C 84.83 49.35 88.70 40.08 87.44 30.61 C 87.07 30.47 86.35 30.21 85.99 30.07 Z" />
</g>
<g id="#ffd764ff">
<path fill="#ffd764" opacity="1.00" d=" M 42.85 13.75 C 45.79 12.38 48.80 11.17 51.84 10.03 C 55.83 9.94 59.84 9.86 63.81 10.35 C 70.89 11.32 77.69 15.89 80.32 22.68 C 83.02 29.59 82.64 37.41 80.39 44.39 C 74.95 61.18 61.15 75.22 44.23 80.42 C 34.56 77.93 25.27 70.99 22.86 60.92 C 22.10 58.87 23.91 57.41 25.15 56.10 C 26.04 56.71 26.95 57.29 27.87 57.85 C 28.18 59.13 28.52 60.40 28.77 61.69 C 32.51 58.03 38.43 56.76 41.05 52.05 C 43.18 48.48 40.00 45.20 38.75 41.98 C 39.16 40.39 39.64 38.54 41.17 37.66 C 42.48 37.81 43.78 38.05 45.08 38.29 C 45.77 37.39 46.30 36.38 46.57 35.27 C 45.43 33.24 44.20 31.24 42.42 29.71 C 38.36 31.98 33.53 33.83 30.87 37.81 C 28.53 41.64 32.01 45.22 32.80 48.88 C 32.58 50.31 31.74 51.52 30.93 52.68 C 29.33 52.24 27.72 51.83 26.11 51.43 C 25.36 52.46 24.57 53.46 23.80 54.47 C 23.31 54.41 22.35 54.28 21.87 54.21 C 22.63 44.43 26.94 35.29 32.08 27.07 C 35.19 22.26 39.37 18.28 42.85 13.75 M 49.99 41.55 C 51.60 41.48 53.21 41.38 54.83 41.31 C 53.23 46.31 50.65 50.92 48.84 55.84 C 48.48 57.10 47.72 58.44 48.19 59.77 C 49.65 59.91 51.13 59.95 52.58 59.70 C 54.78 55.68 56.22 51.30 58.07 47.12 C 59.78 42.76 62.13 38.61 63.06 33.99 C 58.22 34.56 50.11 35.13 49.99 41.55 Z" />
</g>
<g id="#ffc252ff">
<path fill="#ffc252" opacity="1.00" d=" M 13.22 41.21 C 19.47 29.02 30.04 18.81 42.85 13.75 C 39.37 18.28 35.19 22.26 32.08 27.07 C 26.94 35.29 22.63 44.43 21.87 54.21 C 22.35 54.28 23.31 54.41 23.80 54.47 C 24.23 55.03 24.68 55.57 25.15 56.10 C 23.91 57.41 22.10 58.87 22.86 60.92 C 25.27 70.99 34.56 77.93 44.23 80.42 C 42.68 80.93 41.15 81.49 39.59 81.98 C 30.97 83.04 20.84 82.28 14.88 75.14 C 7.08 65.65 7.95 51.70 13.22 41.21 Z" />
</g>
<g id="#e8a002ff">
<path fill="#e8a002" opacity="1.00" d=" M 30.87 37.81 C 33.53 33.83 38.36 31.98 42.42 29.71 C 44.20 31.24 45.43 33.24 46.57 35.27 C 46.30 36.38 45.77 37.39 45.08 38.29 C 43.78 38.05 42.48 37.81 41.17 37.66 C 39.64 38.54 39.16 40.39 38.75 41.98 C 40.00 45.20 43.18 48.48 41.05 52.05 C 38.43 56.76 32.51 58.03 28.77 61.69 C 28.52 60.40 28.18 59.13 27.87 57.85 C 26.95 57.29 26.04 56.71 25.15 56.10 C 24.68 55.57 24.23 55.03 23.80 54.47 C 24.57 53.46 25.36 52.46 26.11 51.43 C 27.72 51.83 29.33 52.24 30.93 52.68 C 31.74 51.52 32.58 50.31 32.80 48.88 C 32.01 45.22 28.53 41.64 30.87 37.81 M 34.88 38.07 C 34.88 38.84 34.90 40.39 34.91 41.17 C 37.42 41.41 37.36 38.63 37.97 36.92 C 36.91 37.24 35.88 37.62 34.88 38.07 M 33.87 53.13 C 36.32 53.41 37.36 51.14 37.02 49.05 C 34.58 48.66 34.39 51.45 33.87 53.13 Z" />
</g>
<g id="#f2c789ff">
<path fill="#f2c789" opacity="1.00" d=" M 85.99 30.07 C 86.35 30.21 87.07 30.47 87.44 30.61 C 88.70 40.08 84.83 49.35 80.53 57.58 C 77.53 61.69 74.86 66.68 70.07 68.94 C 72.31 63.84 76.41 59.87 78.94 54.93 C 83.35 47.35 84.84 38.62 85.99 30.07 Z" />
</g>
<g id="#e89f02ff">
<path fill="#e89f02" opacity="1.00" d=" M 49.99 41.55 C 50.11 35.13 58.22 34.56 63.06 33.99 C 62.13 38.61 59.78 42.76 58.07 47.12 C 56.22 51.30 54.78 55.68 52.58 59.70 C 51.13 59.95 49.65 59.91 48.19 59.77 C 47.72 58.44 48.48 57.10 48.84 55.84 C 50.65 50.92 53.23 46.31 54.83 41.31 C 53.21 41.38 51.60 41.48 49.99 41.55 Z" />
</g>
<g id="#efbf43ff">
<path fill="#efbf43" opacity="1.00" d=" M 34.88 38.07 C 35.88 37.62 36.91 37.24 37.97 36.92 C 37.36 38.63 37.42 41.41 34.91 41.17 C 34.90 40.39 34.88 38.84 34.88 38.07 Z" />
</g>
<g id="#eec046ff">
<path fill="#eec046" opacity="1.00" d=" M 33.87 53.13 C 34.39 51.45 34.58 48.66 37.02 49.05 C 37.36 51.14 36.32 53.41 33.87 53.13 Z" />
</g>
<g id="#c1923cff">
<path fill="#c1923c" opacity="1.00" d=" M 45.13 83.08 C 50.53 81.62 55.37 78.75 60.41 76.42 C 60.57 77.69 60.67 78.98 61.00 80.23 C 62.04 81.39 63.67 81.79 65.00 82.54 C 58.78 87.49 50.82 88.99 43.83 92.44 C 38.36 93.22 32.41 93.45 27.57 90.37 C 21.74 88.51 16.83 84.72 13.03 79.97 C 17.85 82.66 23.06 84.88 28.60 85.39 C 34.21 86.05 39.81 84.78 45.13 83.08 Z" />
</g>
</svg>
