<?xml version="1.0" encoding="UTF-8" ?>
<!DOCTYPE svg PUBLIC "-//W3C//DTD SVG 1.1//EN" "http://www.w3.org/Graphics/SVG/1.1/DTD/svg11.dtd">
<svg width="96pt" height="96pt" viewBox="0 0 96 96" version="1.1" xmlns="http://www.w3.org/2000/svg">
<g id="#e1ac49ff">
<path fill="#e1ac49" opacity="1.00" d=" M 47.56 6.78 C 57.36 4.09 68.55 4.94 76.92 11.07 C 82.91 16.15 88.93 22.15 90.39 30.22 C 92.74 38.67 90.73 47.54 87.58 55.50 C 82.87 66.60 74.61 75.92 64.85 82.88 C 62.79 81.10 60.71 79.33 58.72 77.47 C 50.82 81.32 42.56 84.93 33.68 85.54 C 27.83 86.07 22.28 83.81 16.72 82.39 C 16.45 81.93 15.91 81.00 15.64 80.53 C 16.09 79.66 16.54 78.79 16.99 77.93 C 25.33 83.11 35.84 83.18 45.04 80.47 C 60.80 75.03 73.75 62.10 79.55 46.50 C 83.23 36.91 83.35 24.83 76.26 16.74 C 69.33 9.58 58.28 9.03 49.09 11.12 C 48.58 9.68 48.07 8.23 47.56 6.78 M 82.88 45.07 C 81.21 50.52 78.63 55.69 75.30 60.31 C 73.33 63.19 70.64 65.87 70.32 69.54 C 80.38 61.18 86.49 48.51 87.72 35.57 C 88.11 33.28 87.03 31.17 86.03 29.19 C 84.52 34.39 84.49 39.89 82.88 45.07 Z" />
</g>
<g id="#e19f48fe">
<path fill="#e19f48" opacity="1.00" d=" M 6.11 48.34 C 11.75 28.72 27.98 12.52 47.56 6.78 C 48.07 8.23 48.58 9.68 49.09 11.12 C 46.97 11.89 44.91 12.81 42.89 13.80 C 31.62 18.20 22.28 26.63 15.61 36.60 C 10.00 44.98 7.63 55.54 9.68 65.46 C 10.73 70.27 13.68 74.39 16.99 77.93 C 16.54 78.79 16.09 79.66 15.64 80.53 C 15.91 81.00 16.45 81.93 16.72 82.39 C 16.27 82.26 15.37 81.99 14.92 81.86 C 10.55 79.09 7.95 74.30 6.26 69.54 C 3.17 62.93 3.37 55.04 6.11 48.34 Z" />
</g>
<g id="#ffd764ff">
<path fill="#ffd764" opacity="1.00" d=" M 49.09 11.12 C 58.28 9.03 69.33 9.58 76.26 16.74 C 83.35 24.83 83.23 36.91 79.55 46.50 C 73.75 62.10 60.80 75.03 45.04 80.47 C 38.69 79.47 32.75 76.31 28.20 71.80 C 22.27 65.51 20.59 56.08 22.67 47.84 C 25.48 34.59 34.05 23.66 42.89 13.80 C 44.91 12.81 46.97 11.89 49.09 11.12 M 30.95 38.00 C 29.25 41.14 32.32 43.99 32.85 47.00 C 32.68 48.37 32.26 49.69 31.91 51.02 C 30.01 50.47 28.11 49.89 26.21 49.32 C 25.94 50.64 25.66 51.96 25.40 53.28 C 27.15 54.87 28.63 56.71 29.78 58.77 C 33.23 55.83 38.06 54.42 40.59 50.51 C 42.64 47.41 39.86 44.35 38.27 41.79 C 38.84 40.34 39.43 38.90 40.04 37.47 C 41.55 37.46 43.06 37.52 44.56 37.31 C 47.06 34.64 43.08 31.82 42.14 29.33 C 38.48 32.27 33.26 33.65 30.95 38.00 M 48.61 38.65 C 51.41 38.52 54.21 38.35 57.02 38.33 C 56.46 40.40 55.85 42.68 53.86 43.84 C 48.88 47.35 42.13 49.86 40.70 56.53 C 45.38 57.28 50.11 57.67 54.85 57.80 C 55.24 56.39 55.62 54.99 55.99 53.58 C 53.49 53.24 50.98 52.93 48.49 52.50 C 52.41 49.05 57.95 47.50 60.88 42.98 C 62.44 40.51 63.39 36.39 60.35 34.60 C 56.13 32.37 50.16 33.78 48.61 38.65 Z" />
</g>
<g id="#ffc252ff">
<path fill="#ffc252" opacity="1.00" d=" M 15.61 36.60 C 22.28 26.63 31.62 18.20 42.89 13.80 C 34.05 23.66 25.48 34.59 22.67 47.84 C 20.59 56.08 22.27 65.51 28.20 71.80 C 32.75 76.31 38.69 79.47 45.04 80.47 C 35.84 83.18 25.33 83.11 16.99 77.93 C 13.68 74.39 10.73 70.27 9.68 65.46 C 7.63 55.54 10.00 44.98 15.61 36.60 Z" />
</g>
<g id="#e8a003ff">
<path fill="#e8a003" opacity="1.00" d=" M 30.95 38.00 C 33.26 33.65 38.48 32.27 42.14 29.33 C 43.08 31.82 47.06 34.64 44.56 37.31 C 43.06 37.52 41.55 37.46 40.04 37.47 C 39.43 38.90 38.84 40.34 38.27 41.79 C 39.86 44.35 42.64 47.41 40.59 50.51 C 38.06 54.42 33.23 55.83 29.78 58.77 C 28.63 56.71 27.15 54.87 25.40 53.28 C 25.66 51.96 25.94 50.64 26.21 49.32 C 28.11 49.89 30.01 50.47 31.91 51.02 C 32.26 49.69 32.68 48.37 32.85 47.00 C 32.32 43.99 29.25 41.14 30.95 38.00 Z" />
</g>
<g id="#f2c273ff">
<path fill="#f2c273" opacity="1.00" d=" M 82.88 45.07 C 84.49 39.89 84.52 34.39 86.03 29.19 C 87.03 31.17 88.11 33.28 87.72 35.57 C 86.49 48.51 80.38 61.18 70.32 69.54 C 70.64 65.87 73.33 63.19 75.30 60.31 C 78.63 55.69 81.21 50.52 82.88 45.07 Z" />
</g>
<g id="#e89f02ff">
<path fill="#e89f02" opacity="1.00" d=" M 48.61 38.65 C 50.16 33.78 56.13 32.37 60.35 34.60 C 63.39 36.39 62.44 40.51 60.88 42.98 C 57.95 47.50 52.41 49.05 48.49 52.50 C 50.98 52.93 53.49 53.24 55.99 53.58 C 55.62 54.99 55.24 56.39 54.85 57.80 C 50.11 57.67 45.38 57.28 40.70 56.53 C 42.13 49.86 48.88 47.35 53.86 43.84 C 55.85 42.68 56.46 40.40 57.02 38.33 C 54.21 38.35 51.41 38.52 48.61 38.65 Z" />
</g>
<g id="#c1923cff">
<path fill="#c1923c" opacity="1.00" d=" M 33.68 85.54 C 42.56 84.93 50.82 81.32 58.72 77.47 C 60.71 79.33 62.79 81.10 64.85 82.88 C 58.24 87.55 50.39 89.71 42.99 92.69 C 37.97 93.01 32.42 93.79 27.95 90.94 C 22.96 88.99 17.93 86.50 14.92 81.86 C 15.37 81.99 16.27 82.26 16.72 82.39 C 22.28 83.81 27.83 86.07 33.68 85.54 Z" />
</g>
</svg>
