<?xml version="1.0" encoding="UTF-8" ?>
<!DOCTYPE svg PUBLIC "-//W3C//DTD SVG 1.1//EN" "http://www.w3.org/Graphics/SVG/1.1/DTD/svg11.dtd">
<svg width="96pt" height="96pt" viewBox="0 0 96 96" version="1.1" xmlns="http://www.w3.org/2000/svg">
<g id="#e1ac49ff">
<path fill="#e1ac49" opacity="1.00" d=" M 47.38 5.55 C 52.76 4.25 58.34 3.58 63.84 4.45 C 70.47 6.15 77.02 9.13 81.47 14.52 C 86.79 18.89 89.44 25.35 91.65 31.66 C 92.15 37.08 92.63 42.94 89.90 47.89 C 85.90 61.53 76.88 73.45 65.24 81.51 C 63.73 80.59 62.24 79.65 60.74 78.73 C 60.63 77.61 60.53 76.50 60.43 75.39 C 48.96 81.74 35.10 87.51 21.97 83.01 C 19.48 81.72 17.11 80.20 14.72 78.73 C 15.06 77.82 15.39 76.91 15.72 76.00 C 19.94 78.64 24.58 80.83 29.58 81.39 C 34.83 82.00 40.11 80.89 45.15 79.47 C 60.54 74.00 73.45 61.51 79.20 46.17 C 83.15 36.46 83.47 24.07 76.15 15.84 C 69.58 9.04 59.21 8.25 50.37 9.80 C 49.82 8.35 49.25 6.80 47.86 5.94 L 47.38 5.55 M 84.73 35.77 C 83.69 43.77 80.77 51.53 76.23 58.21 C 74.06 61.41 71.64 64.46 70.05 68.01 C 73.58 66.36 75.74 63.02 77.99 60.00 C 84.37 51.06 88.42 39.88 86.51 28.81 C 85.28 30.93 85.05 33.39 84.73 35.77 Z" />
</g>
<g id="#e19f48ff">
<path fill="#e19f48" opacity="1.00" d=" M 47.86 5.94 C 49.25 6.80 49.82 8.35 50.37 9.80 C 47.83 10.68 45.34 11.71 42.90 12.83 C 30.58 17.71 20.29 27.25 13.76 38.70 C 7.44 50.06 6.38 65.93 15.72 76.00 C 15.39 76.91 15.06 77.82 14.72 78.73 C 17.11 80.20 19.48 81.72 21.97 83.01 C 19.92 82.62 17.85 82.37 15.79 82.06 C 9.56 78.01 6.72 70.69 4.31 63.99 C 3.93 59.70 3.84 55.31 4.50 51.04 C 6.87 44.77 8.87 38.26 12.62 32.64 C 20.67 19.98 33.19 9.70 47.86 5.94 Z" />
</g>
<g id="#ffd764ff">
<path fill="#ffd764" opacity="1.00" d=" M 50.37 9.80 C 59.21 8.25 69.58 9.04 76.15 15.84 C 83.47 24.07 83.15 36.46 79.20 46.17 C 73.45 61.51 60.54 74.00 45.15 79.47 C 35.74 78.53 27.01 72.21 23.53 63.37 C 20.14 55.54 21.98 46.64 24.99 39.01 C 28.83 28.99 35.90 20.77 42.90 12.83 C 45.34 11.71 47.83 10.68 50.37 9.80 M 30.41 38.38 C 28.86 41.64 31.49 44.55 33.13 47.13 C 32.58 48.75 31.85 50.30 30.96 51.77 C 29.08 51.21 27.19 50.73 25.31 50.23 C 25.00 51.62 24.68 53.02 24.38 54.41 C 26.84 55.58 28.80 57.49 29.14 60.29 C 32.61 56.19 39.22 55.66 41.26 50.29 C 42.88 47.07 39.95 44.34 38.26 41.91 C 38.82 40.32 39.31 38.67 40.30 37.28 C 42.04 37.05 43.79 37.27 45.53 37.39 C 47.13 33.91 43.95 31.42 42.00 28.95 C 38.22 32.17 32.18 33.22 30.41 38.38 M 53.36 33.28 C 50.90 37.47 48.82 41.87 47.14 46.42 C 49.55 46.88 51.94 47.44 54.30 48.11 C 54.39 50.06 53.88 52.05 52.18 53.22 C 49.79 55.40 46.51 53.41 43.80 53.02 C 42.84 54.41 42.39 56.05 42.11 57.70 C 45.62 58.62 49.53 59.48 52.98 57.91 C 56.99 55.87 60.25 51.69 60.24 47.06 C 60.04 43.87 56.47 43.34 54.12 42.36 C 54.36 41.05 54.48 39.56 55.65 38.70 C 58.35 38.31 61.08 38.66 63.79 38.72 C 64.22 37.27 64.67 35.82 65.09 34.37 C 61.22 33.69 57.29 33.32 53.36 33.28 Z" />
</g>
<g id="#ffc252ff">
<path fill="#ffc252" opacity="1.00" d=" M 13.76 38.70 C 20.29 27.25 30.58 17.71 42.90 12.83 C 35.90 20.77 28.83 28.99 24.99 39.01 C 21.98 46.64 20.14 55.54 23.53 63.37 C 27.01 72.21 35.74 78.53 45.15 79.47 C 40.11 80.89 34.83 82.00 29.58 81.39 C 24.58 80.83 19.94 78.64 15.72 76.00 C 6.38 65.93 7.44 50.06 13.76 38.70 Z" />
</g>
<g id="#e9a003ff">
<path fill="#e9a003" opacity="1.00" d=" M 30.41 38.38 C 32.18 33.22 38.22 32.17 42.00 28.95 C 43.95 31.42 47.13 33.91 45.53 37.39 C 43.79 37.27 42.04 37.05 40.30 37.28 C 39.31 38.67 38.82 40.32 38.26 41.91 C 39.95 44.34 42.88 47.07 41.26 50.29 C 39.22 55.66 32.61 56.19 29.14 60.29 C 28.80 57.49 26.84 55.58 24.38 54.41 C 24.68 53.02 25.00 51.62 25.31 50.23 C 27.19 50.73 29.08 51.21 30.96 51.77 C 31.85 50.30 32.58 48.75 33.13 47.13 C 31.49 44.55 28.86 41.64 30.41 38.38 Z" />
</g>
<g id="#f2ca90ff">
<path fill="#f2ca90" opacity="1.00" d=" M 84.73 35.77 C 85.05 33.39 85.28 30.93 86.51 28.81 C 88.42 39.88 84.37 51.06 77.99 60.00 C 75.74 63.02 73.58 66.36 70.05 68.01 C 71.64 64.46 74.06 61.41 76.23 58.21 C 80.77 51.53 83.69 43.77 84.73 35.77 Z" />
</g>
<g id="#e89f02ff">
<path fill="#e89f02" opacity="1.00" d=" M 53.36 33.28 C 57.29 33.32 61.22 33.69 65.09 34.37 C 64.67 35.82 64.22 37.27 63.79 38.72 C 61.08 38.66 58.35 38.31 55.65 38.70 C 54.48 39.56 54.36 41.05 54.12 42.36 C 56.47 43.34 60.04 43.87 60.24 47.06 C 60.25 51.69 56.99 55.87 52.98 57.91 C 49.53 59.48 45.62 58.62 42.11 57.70 C 42.39 56.05 42.84 54.41 43.80 53.02 C 46.51 53.41 49.79 55.40 52.18 53.22 C 53.88 52.05 54.39 50.06 54.30 48.11 C 51.94 47.44 49.55 46.88 47.14 46.42 C 48.82 41.87 50.90 37.47 53.36 33.28 Z" />
</g>
<g id="#c2933cff">
<path fill="#c2933c" opacity="1.00" d=" M 21.97 83.01 C 35.10 87.51 48.96 81.74 60.43 75.39 C 60.53 76.50 60.63 77.61 60.74 78.73 C 62.24 79.65 63.73 80.59 65.24 81.51 C 57.29 87.21 47.75 90.62 38.00 91.26 C 29.98 90.84 20.80 88.96 15.79 82.06 C 17.85 82.37 19.92 82.62 21.97 83.01 Z" />
</g>
</svg>
