<?xml version="1.0" encoding="UTF-8" ?>
<!DOCTYPE svg PUBLIC "-//W3C//DTD SVG 1.1//EN" "http://www.w3.org/Graphics/SVG/1.1/DTD/svg11.dtd">
<svg width="96pt" height="96pt" viewBox="0 0 96 96" version="1.1" xmlns="http://www.w3.org/2000/svg">
<g id="#e1ac49ff">
<path fill="#e1ac49" opacity="1.00" d=" M 50.09 5.62 C 72.03 -1.71 96.17 20.32 92.56 42.68 C 90.35 48.91 88.72 55.43 85.22 61.11 C 80.82 69.00 74.33 75.49 67.32 81.08 C 65.86 80.76 64.38 80.54 62.99 79.99 C 62.06 78.85 61.43 77.51 60.73 76.23 C 53.89 79.59 46.91 83.05 39.27 84.07 C 36.34 84.10 33.43 83.95 30.51 83.83 C 30.60 83.35 30.79 82.40 30.89 81.93 C 35.13 81.86 39.36 81.29 43.47 80.25 C 60.80 75.67 74.87 61.56 80.75 44.80 C 83.84 36.01 83.98 25.51 78.30 17.70 C 72.22 9.53 60.70 8.07 51.35 10.19 C 51.50 9.22 51.65 8.24 51.81 7.27 C 51.38 6.86 50.52 6.04 50.09 5.62 M 85.53 36.42 C 84.46 45.19 80.86 53.57 75.59 60.64 C 73.68 63.18 72.02 65.91 70.82 68.86 C 74.00 66.37 76.76 63.39 79.06 60.07 C 85.27 50.98 89.50 39.84 87.48 28.69 C 85.89 30.95 85.90 33.79 85.53 36.42 Z" />
</g>
<g id="#e2a048ff">
<path fill="#e2a048" opacity="1.00" d=" M 17.38 27.39 C 25.58 16.90 37.17 8.99 50.09 5.62 C 50.52 6.04 51.38 6.86 51.81 7.27 C 51.65 8.24 51.50 9.22 51.35 10.19 C 48.85 10.93 46.41 11.84 44.03 12.92 C 31.23 17.95 20.62 27.99 14.09 40.01 C 9.29 49.64 7.90 61.99 13.37 71.62 C 16.86 77.96 23.99 81.07 30.89 81.93 C 30.79 82.40 30.60 83.35 30.51 83.83 C 33.43 83.95 36.34 84.10 39.27 84.07 C 31.67 85.77 23.98 84.12 16.59 82.26 C 9.86 77.33 6.24 69.17 5.47 61.04 C 4.80 48.82 9.94 36.87 17.38 27.39 Z" />
</g>
<g id="#ffd764ff">
<path fill="#ffd764" opacity="1.00" d=" M 51.35 10.19 C 60.70 8.07 72.22 9.53 78.30 17.70 C 83.98 25.51 83.84 36.01 80.75 44.80 C 74.87 61.56 60.80 75.67 43.47 80.25 C 37.09 76.71 29.83 73.53 26.13 66.84 C 22.98 61.98 22.48 56.06 22.87 50.43 C 23.57 50.32 24.98 50.11 25.68 50.00 C 26.18 52.63 26.32 55.63 28.20 57.73 C 30.53 59.47 33.87 59.68 36.54 58.65 C 37.89 57.64 38.63 56.07 39.57 54.72 C 37.11 54.41 34.64 54.12 32.18 53.81 C 31.98 53.03 31.59 51.46 31.39 50.68 C 33.82 50.57 36.25 50.48 38.68 50.39 C 39.12 49.42 39.56 48.46 40.00 47.49 C 37.50 46.66 35.01 45.77 32.59 44.73 C 36.04 44.18 40.75 45.62 42.65 41.75 C 40.50 40.96 38.33 40.19 36.18 39.40 C 37.62 38.47 38.98 37.35 40.62 36.79 C 42.71 36.56 44.79 37.08 46.85 37.37 C 47.31 35.87 47.77 34.36 48.23 32.86 C 45.12 32.17 41.69 31.04 38.68 32.71 C 32.86 35.67 27.92 40.54 25.47 46.66 C 24.67 44.89 23.85 42.89 24.91 41.03 C 29.43 30.56 35.94 20.96 44.03 12.92 C 46.41 11.84 48.85 10.93 51.35 10.19 M 51.01 37.06 C 49.82 38.25 49.54 40.03 48.87 41.52 C 50.65 41.38 52.43 41.23 54.22 41.08 C 52.23 47.64 48.71 53.61 46.92 60.24 C 48.54 60.23 50.17 60.28 51.78 60.08 C 54.24 56.74 55.35 52.67 56.95 48.90 C 58.88 43.67 61.97 38.83 62.78 33.24 C 58.69 33.82 54.56 34.89 51.01 37.06 Z" />
</g>
<g id="#ffc252ff">
<path fill="#ffc252" opacity="1.00" d=" M 14.09 40.01 C 20.62 27.99 31.23 17.95 44.03 12.92 C 35.94 20.96 29.43 30.56 24.91 41.03 C 23.85 42.89 24.67 44.89 25.47 46.66 C 25.49 47.77 25.57 48.89 25.68 50.00 C 24.98 50.11 23.57 50.32 22.87 50.43 C 22.48 56.06 22.98 61.98 26.13 66.84 C 29.83 73.53 37.09 76.71 43.47 80.25 C 39.36 81.29 35.13 81.86 30.89 81.93 C 23.99 81.07 16.86 77.96 13.37 71.62 C 7.90 61.99 9.29 49.64 14.09 40.01 Z" />
</g>
<g id="#f2c98eff">
<path fill="#f2c98e" opacity="1.00" d=" M 85.53 36.42 C 85.90 33.79 85.89 30.95 87.48 28.69 C 89.50 39.84 85.27 50.98 79.06 60.07 C 76.76 63.39 74.00 66.37 70.82 68.86 C 72.02 65.91 73.68 63.18 75.59 60.64 C 80.86 53.57 84.46 45.19 85.53 36.42 Z" />
</g>
<g id="#e8a002ff">
<path fill="#e8a002" opacity="1.00" d=" M 38.68 32.71 C 41.69 31.04 45.12 32.17 48.23 32.86 C 47.77 34.36 47.31 35.87 46.85 37.37 C 44.79 37.08 42.71 36.56 40.62 36.79 C 38.98 37.35 37.62 38.47 36.18 39.40 C 38.33 40.19 40.50 40.96 42.65 41.75 C 40.75 45.62 36.04 44.18 32.59 44.73 C 35.01 45.77 37.50 46.66 40.00 47.49 C 39.56 48.46 39.12 49.42 38.68 50.39 C 36.25 50.48 33.82 50.57 31.39 50.68 C 31.59 51.46 31.98 53.03 32.18 53.81 C 34.64 54.12 37.11 54.41 39.57 54.72 C 38.63 56.07 37.89 57.64 36.54 58.65 C 33.87 59.68 30.53 59.47 28.20 57.73 C 26.32 55.63 26.18 52.63 25.68 50.00 C 25.57 48.89 25.49 47.77 25.47 46.66 C 27.92 40.54 32.86 35.67 38.68 32.71 Z" />
</g>
<g id="#e89f02ff">
<path fill="#e89f02" opacity="1.00" d=" M 51.01 37.06 C 54.56 34.89 58.69 33.82 62.78 33.24 C 61.97 38.83 58.88 43.67 56.95 48.90 C 55.35 52.67 54.24 56.74 51.78 60.08 C 50.17 60.28 48.54 60.23 46.92 60.24 C 48.71 53.61 52.23 47.64 54.22 41.08 C 52.43 41.23 50.65 41.38 48.87 41.52 C 49.54 40.03 49.82 38.25 51.01 37.06 Z" />
</g>
<g id="#c2933cff">
<path fill="#c2933c" opacity="1.00" d=" M 39.27 84.07 C 46.91 83.05 53.89 79.59 60.73 76.23 C 61.43 77.51 62.06 78.85 62.99 79.99 C 64.38 80.54 65.86 80.76 67.32 81.08 C 58.69 86.99 48.57 91.30 38.00 91.52 C 30.19 91.07 21.54 88.78 16.59 82.26 C 23.98 84.12 31.67 85.77 39.27 84.07 Z" />
</g>
</svg>
