<?xml version="1.0" encoding="UTF-8" ?>
<!DOCTYPE svg PUBLIC "-//W3C//DTD SVG 1.1//EN" "http://www.w3.org/Graphics/SVG/1.1/DTD/svg11.dtd">
<svg width="96pt" height="96pt" viewBox="0 0 96 96" version="1.1" xmlns="http://www.w3.org/2000/svg">
<g id="#e19f48ff">
<path fill="#e19f48" opacity="1.00" d=" M 11.36 36.39 C 19.95 20.79 35.18 8.49 52.92 5.31 C 52.59 6.88 52.26 8.46 51.93 10.03 C 49.22 10.79 46.61 11.84 44.05 12.99 C 31.70 17.84 21.37 27.26 14.74 38.69 C 10.16 46.99 7.96 57.13 10.74 66.39 C 12.80 73.71 18.98 79.90 26.53 81.34 C 30.79 82.14 35.15 81.98 39.46 81.94 C 41.05 82.34 42.62 82.80 44.20 83.19 C 34.63 86.33 24.01 85.33 14.97 80.98 C 9.69 77.32 7.32 70.85 5.75 64.86 C 3.96 55.08 6.77 45.03 11.36 36.39 Z" />
</g>
<g id="#e1ac49ff">
<path fill="#e1ac49" opacity="1.00" d=" M 52.92 5.31 C 61.79 4.57 71.57 5.28 78.53 11.47 C 82.65 15.64 87.64 19.44 89.64 25.17 C 91.25 30.21 93.71 35.42 92.39 40.82 C 91.04 45.39 90.29 50.14 88.41 54.54 C 83.58 65.92 75.28 75.71 65.01 82.56 C 62.57 81.24 60.44 79.31 60.42 76.34 C 55.18 78.98 49.92 81.72 44.20 83.19 C 42.62 82.80 41.05 82.34 39.46 81.94 C 40.81 81.41 42.15 80.84 43.50 80.33 C 52.48 78.41 60.14 72.89 66.76 66.77 C 75.64 57.75 82.28 45.87 82.70 33.00 C 82.71 25.18 79.50 16.45 72.10 12.80 C 66.03 9.18 58.71 9.50 51.93 10.03 C 52.26 8.46 52.59 6.88 52.92 5.31 M 86.47 28.89 C 85.83 38.99 83.12 49.04 77.65 57.62 C 75.52 61.43 72.07 64.51 70.92 68.83 C 79.39 61.64 85.25 51.29 87.31 40.39 C 87.56 36.63 88.80 32.23 86.47 28.89 Z" />
</g>
<g id="#ffd764ff">
<path fill="#ffd764" opacity="1.00" d=" M 44.05 12.99 C 46.61 11.84 49.22 10.79 51.93 10.03 C 58.71 9.50 66.03 9.18 72.10 12.80 C 79.50 16.45 82.71 25.18 82.70 33.00 C 82.28 45.87 75.64 57.75 66.76 66.77 C 60.14 72.89 52.48 78.41 43.50 80.33 C 38.40 77.65 32.72 75.61 28.70 71.29 C 24.24 66.01 21.98 58.88 22.73 51.99 C 22.93 50.26 24.04 48.85 24.77 47.33 C 26.00 50.43 25.88 55.11 29.68 56.32 C 33.07 57.62 37.05 56.10 38.11 52.49 C 35.25 52.18 31.17 52.82 30.56 49.03 C 33.58 48.48 37.70 49.29 39.01 45.73 C 36.72 45.17 34.43 44.61 32.17 43.95 C 35.08 42.79 40.06 44.39 40.96 40.43 C 39.11 39.91 37.27 39.32 35.45 38.72 C 37.65 35.58 41.52 36.28 44.79 36.68 C 45.15 35.46 45.57 34.28 46.08 33.12 C 40.15 29.25 33.83 33.98 29.78 38.27 C 28.71 37.91 27.64 37.54 26.58 37.16 C 30.70 27.98 37.01 20.08 44.05 12.99 M 50.12 34.07 C 48.12 34.74 47.77 37.00 47.02 38.68 C 49.59 38.43 52.39 37.04 54.87 38.17 C 56.22 40.67 53.28 43.11 51.38 44.41 C 46.46 47.43 39.64 50.17 38.98 56.75 C 43.60 57.48 48.26 57.86 52.93 58.05 C 53.95 56.70 54.60 55.14 54.95 53.49 C 52.24 53.35 49.54 53.12 46.84 52.81 C 49.83 48.93 55.32 48.23 58.36 44.34 C 60.86 41.71 62.37 36.54 59.02 34.00 C 56.23 32.82 52.92 33.09 50.12 34.07 Z" />
</g>
<g id="#ffc252ff">
<path fill="#ffc252" opacity="1.00" d=" M 14.74 38.69 C 21.37 27.26 31.70 17.84 44.05 12.99 C 37.01 20.08 30.70 27.98 26.58 37.16 C 27.64 37.54 28.71 37.91 29.78 38.27 C 27.22 40.72 26.43 44.30 24.77 47.33 C 24.04 48.85 22.93 50.26 22.73 51.99 C 21.98 58.88 24.24 66.01 28.70 71.29 C 32.72 75.61 38.40 77.65 43.50 80.33 C 42.15 80.84 40.81 81.41 39.46 81.94 C 35.15 81.98 30.79 82.14 26.53 81.34 C 18.98 79.90 12.80 73.71 10.74 66.39 C 7.96 57.13 10.16 46.99 14.74 38.69 Z" />
</g>
<g id="#f2cc99ff">
<path fill="#f2cc99" opacity="1.00" d=" M 86.47 28.89 C 88.80 32.23 87.56 36.63 87.31 40.39 C 85.25 51.29 79.39 61.64 70.92 68.83 C 72.07 64.51 75.52 61.43 77.65 57.62 C 83.12 49.04 85.83 38.99 86.47 28.89 Z" />
</g>
<g id="#e8a003ff">
<path fill="#e8a003" opacity="1.00" d=" M 29.78 38.27 C 33.83 33.98 40.15 29.25 46.08 33.12 C 45.57 34.28 45.15 35.46 44.79 36.68 C 41.52 36.28 37.65 35.58 35.45 38.72 C 37.27 39.32 39.11 39.91 40.96 40.43 C 40.06 44.39 35.08 42.79 32.17 43.95 C 34.43 44.61 36.72 45.17 39.01 45.73 C 37.70 49.29 33.58 48.48 30.56 49.03 C 31.17 52.82 35.25 52.18 38.11 52.49 C 37.05 56.10 33.07 57.62 29.68 56.32 C 25.88 55.11 26.00 50.43 24.77 47.33 C 26.43 44.30 27.22 40.72 29.78 38.27 Z" />
</g>
<g id="#e89f02ff">
<path fill="#e89f02" opacity="1.00" d=" M 50.12 34.07 C 52.92 33.09 56.23 32.82 59.02 34.00 C 62.37 36.54 60.86 41.71 58.36 44.34 C 55.32 48.23 49.83 48.93 46.84 52.81 C 49.54 53.12 52.24 53.35 54.95 53.49 C 54.60 55.14 53.95 56.70 52.93 58.05 C 48.26 57.86 43.60 57.48 38.98 56.75 C 39.64 50.17 46.46 47.43 51.38 44.41 C 53.28 43.11 56.22 40.67 54.87 38.17 C 52.39 37.04 49.59 38.43 47.02 38.68 C 47.77 37.00 48.12 34.74 50.12 34.07 Z" />
</g>
<g id="#c2933cff">
<path fill="#c2933c" opacity="1.00" d=" M 44.20 83.19 C 49.92 81.72 55.18 78.98 60.42 76.34 C 60.44 79.31 62.57 81.24 65.01 82.56 C 58.50 87.17 50.80 89.87 43.01 91.38 C 32.90 92.44 21.15 89.69 14.97 80.98 C 24.01 85.33 34.63 86.33 44.20 83.19 Z" />
</g>
</svg>
