<?xml version="1.0" encoding="UTF-8" ?>
<!DOCTYPE svg PUBLIC "-//W3C//DTD SVG 1.1//EN" "http://www.w3.org/Graphics/SVG/1.1/DTD/svg11.dtd">
<svg width="96pt" height="96pt" viewBox="0 0 96 96" version="1.1" xmlns="http://www.w3.org/2000/svg">
<g id="#e19f48ff">
<path fill="#e19f48" opacity="1.00" d=" M 7.86 43.98 C 14.83 25.30 31.39 10.23 50.93 5.79 C 50.62 7.48 50.30 9.17 49.97 10.85 C 47.95 11.48 45.98 12.24 44.05 13.10 C 31.05 18.21 20.03 28.23 13.66 40.66 C 9.50 48.97 7.54 59.08 11.03 67.98 C 12.54 72.25 15.68 75.58 18.62 78.90 C 19.29 80.39 19.88 81.91 20.51 83.41 C 18.91 83.00 17.32 82.57 15.75 82.09 C 8.95 77.68 6.52 69.45 4.48 62.08 C 3.32 55.80 6.19 49.88 7.86 43.98 Z" />
</g>
<g id="#e1ac49ff">
<path fill="#e1ac49" opacity="1.00" d=" M 50.93 5.79 C 58.06 4.88 65.63 4.65 72.26 7.85 C 77.59 10.07 81.56 14.45 85.36 18.64 C 89.63 23.46 90.77 29.95 92.46 35.95 C 93.11 39.69 91.40 43.17 90.65 46.74 C 87.36 61.67 77.12 74.23 64.82 82.90 C 63.04 80.99 61.53 78.87 60.28 76.58 C 55.01 78.93 49.93 81.78 44.34 83.31 C 36.59 85.53 28.27 85.57 20.51 83.41 C 19.88 81.91 19.29 80.39 18.62 78.90 C 26.73 82.11 35.81 83.18 44.23 80.50 C 61.43 75.18 75.40 60.91 80.81 43.80 C 83.07 35.58 83.24 26.01 78.32 18.68 C 72.18 9.61 59.79 8.64 49.97 10.85 C 50.30 9.17 50.62 7.48 50.93 5.79 M 85.56 34.54 C 84.75 41.50 82.77 48.34 79.40 54.50 C 76.68 59.60 72.67 63.88 70.18 69.12 C 72.35 67.72 74.36 66.05 75.95 64.00 C 83.72 54.54 88.70 42.24 87.63 29.86 C 85.78 30.66 85.91 32.87 85.56 34.54 Z" />
</g>
<g id="#ffd764ff">
<path fill="#ffd764" opacity="1.00" d=" M 49.97 10.85 C 59.79 8.64 72.18 9.61 78.32 18.68 C 83.24 26.01 83.07 35.58 80.81 43.80 C 75.40 60.91 61.43 75.18 44.23 80.50 C 36.46 78.02 28.45 73.89 24.73 66.22 C 21.12 59.89 21.24 52.22 23.30 45.41 C 26.86 32.91 34.59 21.89 44.05 13.10 C 45.98 12.24 47.95 11.48 49.97 10.85 M 37.67 33.65 C 34.66 35.53 32.01 37.95 29.49 40.44 C 26.74 44.18 24.44 48.99 26.48 53.62 C 27.04 60.10 38.49 61.34 39.27 54.43 C 37.16 54.31 35.05 54.25 32.95 54.19 C 32.35 53.03 31.27 51.83 32.17 50.51 C 34.22 50.38 36.29 50.57 38.34 50.33 C 39.39 49.63 39.51 48.20 40.10 47.16 C 37.83 46.87 35.56 46.67 33.29 46.45 C 33.27 45.94 33.24 44.92 33.22 44.41 C 36.10 44.42 38.98 44.34 41.83 44.03 C 41.85 43.36 41.88 42.02 41.90 41.35 C 40.01 40.91 38.12 40.44 36.24 39.95 C 37.52 38.94 38.69 37.73 40.21 37.07 C 42.41 36.85 44.59 37.46 46.76 37.75 C 47.15 36.24 47.54 34.73 47.92 33.22 C 44.57 32.43 40.80 31.75 37.67 33.65 M 53.09 34.03 C 50.47 38.20 48.53 42.74 46.53 47.22 C 48.66 47.92 50.86 48.43 53.00 49.11 C 54.69 50.84 53.52 53.65 51.64 54.71 C 49.02 56.68 45.77 54.88 43.01 54.23 C 42.42 55.77 41.91 57.34 41.49 58.94 C 43.61 59.60 45.73 60.52 48.00 60.42 C 54.43 60.30 60.14 54.47 60.17 48.06 C 59.79 44.56 55.88 44.16 53.18 43.43 C 53.88 42.08 54.57 40.72 55.27 39.37 C 57.97 39.45 60.68 39.72 63.37 39.40 C 64.71 38.40 64.71 36.62 65.11 35.15 C 61.15 34.35 57.12 34.07 53.09 34.03 Z" />
</g>
<g id="#ffc251ff">
<path fill="#ffc251" opacity="1.00" d=" M 13.66 40.66 C 20.03 28.23 31.05 18.21 44.05 13.10 C 34.59 21.89 26.86 32.91 23.30 45.41 C 21.24 52.22 21.12 59.89 24.73 66.22 C 28.45 73.89 36.46 78.02 44.23 80.50 C 35.81 83.18 26.73 82.11 18.62 78.90 C 15.68 75.58 12.54 72.25 11.03 67.98 C 7.54 59.08 9.50 48.97 13.66 40.66 Z" />
</g>
<g id="#f2c98eff">
<path fill="#f2c98e" opacity="1.00" d=" M 85.56 34.54 C 85.91 32.87 85.78 30.66 87.63 29.86 C 88.70 42.24 83.72 54.54 75.95 64.00 C 74.36 66.05 72.35 67.72 70.18 69.12 C 72.67 63.88 76.68 59.60 79.40 54.50 C 82.77 48.34 84.75 41.50 85.56 34.54 Z" />
</g>
<g id="#e8a002ff">
<path fill="#e8a002" opacity="1.00" d=" M 37.67 33.65 C 40.80 31.75 44.57 32.43 47.92 33.22 C 47.54 34.73 47.15 36.24 46.76 37.75 C 44.59 37.46 42.41 36.85 40.21 37.07 C 38.69 37.73 37.52 38.94 36.24 39.95 C 38.12 40.44 40.01 40.91 41.90 41.35 C 41.88 42.02 41.85 43.36 41.83 44.03 C 38.98 44.34 36.10 44.42 33.22 44.41 C 33.24 44.92 33.27 45.94 33.29 46.45 C 35.56 46.67 37.83 46.87 40.10 47.16 C 39.51 48.20 39.39 49.63 38.34 50.33 C 36.29 50.57 34.22 50.38 32.17 50.51 C 31.27 51.83 32.35 53.03 32.95 54.19 C 35.05 54.25 37.16 54.31 39.27 54.43 C 38.49 61.34 27.04 60.10 26.48 53.62 C 24.44 48.99 26.74 44.18 29.49 40.44 C 32.01 37.95 34.66 35.53 37.67 33.65 Z" />
<path fill="#e8a002" opacity="1.00" d=" M 53.09 34.03 C 57.12 34.07 61.15 34.35 65.11 35.15 C 64.71 36.62 64.71 38.40 63.37 39.40 C 60.68 39.72 57.97 39.45 55.27 39.37 C 54.57 40.72 53.88 42.08 53.18 43.43 C 55.88 44.16 59.79 44.56 60.17 48.06 C 60.14 54.47 54.43 60.30 48.00 60.42 C 45.73 60.52 43.61 59.60 41.49 58.94 C 41.91 57.34 42.42 55.77 43.01 54.23 C 45.77 54.88 49.02 56.68 51.64 54.71 C 53.52 53.65 54.69 50.84 53.00 49.11 C 50.86 48.43 48.66 47.92 46.53 47.22 C 48.53 42.74 50.47 38.20 53.09 34.03 Z" />
</g>
<g id="#c1923cff">
<path fill="#c1923c" opacity="1.00" d=" M 44.34 83.31 C 49.93 81.78 55.01 78.93 60.28 76.58 C 61.53 78.87 63.04 80.99 64.82 82.90 C 54.79 89.32 42.57 93.57 30.60 91.14 C 24.99 89.58 19.07 87.15 15.75 82.09 C 17.32 82.57 18.91 83.00 20.51 83.41 C 28.27 85.57 36.59 85.53 44.34 83.31 Z" />
</g>
</svg>
