<?xml version="1.0" encoding="UTF-8" ?>
<!DOCTYPE svg PUBLIC "-//W3C//DTD SVG 1.1//EN" "http://www.w3.org/Graphics/SVG/1.1/DTD/svg11.dtd">
<svg width="96pt" height="96pt" viewBox="0 0 96 96" version="1.1" xmlns="http://www.w3.org/2000/svg">
<g id="#e1ac49ff">
<path fill="#e1ac49" opacity="1.00" d=" M 48.81 6.07 C 68.55 -1.05 91.70 16.28 91.66 37.01 C 91.34 54.97 80.42 71.39 66.12 81.63 C 64.77 81.42 63.39 81.25 62.13 80.71 C 61.22 79.35 60.69 77.79 60.06 76.30 C 53.84 79.71 47.34 82.89 40.27 84.05 C 32.08 84.30 23.63 83.78 16.34 79.65 C 16.51 78.79 16.69 77.92 16.86 77.06 C 24.84 82.41 35.05 83.08 44.08 80.31 C 59.93 75.27 73.26 62.72 79.29 47.21 C 83.05 38.01 83.85 26.57 77.88 18.11 C 71.88 9.92 60.47 8.52 51.13 10.28 C 50.85 9.70 50.31 8.56 50.03 7.98 C 51.35 7.37 52.66 6.75 53.97 6.13 C 52.52 6.10 51.07 6.07 49.62 6.08 L 48.81 6.07 M 85.99 28.87 C 85.26 30.82 84.98 32.90 84.81 34.97 C 84.31 43.64 81.05 52.03 76.07 59.10 C 73.95 62.28 71.10 65.21 70.49 69.15 C 80.48 60.68 86.78 47.99 87.89 34.99 C 87.73 32.93 88.55 29.66 85.99 28.87 Z" />
</g>
<g id="#e19f48fe">
<path fill="#e19f48" opacity="1.00" d=" M 49.62 6.08 C 51.07 6.07 52.52 6.10 53.97 6.13 C 52.66 6.75 51.35 7.37 50.03 7.98 C 50.31 8.56 50.85 9.70 51.13 10.28 C 47.22 11.34 43.46 12.92 39.88 14.82 C 31.56 18.61 24.68 24.90 18.94 31.92 C 12.54 40.04 8.25 50.39 9.23 60.88 C 9.74 66.98 12.61 72.71 16.86 77.06 C 16.69 77.92 16.51 78.79 16.34 79.65 C 23.63 83.78 32.08 84.30 40.27 84.05 C 30.86 86.32 20.65 84.90 12.57 79.45 C 8.30 75.32 6.66 69.44 4.74 64.01 C 4.05 60.72 4.12 57.28 4.57 53.96 C 6.62 46.45 8.90 38.85 13.37 32.38 C 21.77 19.75 34.58 9.34 49.62 6.08 Z" />
</g>
<g id="#ffd764ff">
<path fill="#ffd764" opacity="1.00" d=" M 51.13 10.28 C 60.47 8.52 71.88 9.92 77.88 18.11 C 83.85 26.57 83.05 38.01 79.29 47.21 C 73.26 62.72 59.93 75.27 44.08 80.31 C 31.26 79.81 19.69 68.24 20.54 55.15 C 22.43 54.98 24.33 54.80 26.23 54.69 C 29.07 55.00 31.90 55.37 34.74 55.72 C 35.36 54.47 35.98 53.23 36.59 51.99 C 34.20 51.34 31.81 50.70 29.42 50.05 C 34.35 46.68 41.78 43.97 42.18 37.05 C 42.24 33.35 37.96 32.28 35.01 32.86 C 32.30 32.79 30.98 35.31 29.49 37.12 C 32.07 37.21 34.73 37.11 37.19 38.04 C 36.59 39.92 35.47 41.63 33.75 42.66 C 29.93 45.15 26.12 47.66 22.64 50.62 C 22.18 50.99 21.25 51.71 20.78 52.08 C 21.42 37.42 31.28 25.82 39.88 14.82 C 43.46 12.92 47.22 11.34 51.13 10.28 M 42.42 42.54 C 41.94 45.49 45.05 47.22 46.60 49.28 C 44.01 52.30 40.65 54.45 37.14 56.24 C 37.46 57.48 37.77 58.72 38.10 59.96 C 41.22 58.69 44.59 57.51 46.86 54.88 C 48.79 52.88 50.01 50.20 52.25 48.50 C 53.69 48.44 55.13 48.62 56.57 48.73 C 55.72 51.10 54.80 53.43 53.82 55.74 C 51.91 55.58 50.00 55.42 48.10 55.26 C 47.68 56.82 47.27 58.39 46.86 59.97 C 49.45 60.04 52.22 60.81 54.71 59.85 C 57.95 57.79 58.82 53.76 60.70 50.65 C 62.06 48.05 65.19 47.22 66.94 44.96 C 65.74 41.32 64.18 37.81 63.27 34.07 C 61.86 34.44 60.45 34.81 59.05 35.18 C 59.46 38.26 60.04 41.32 60.72 44.34 C 56.85 44.40 52.98 44.06 49.20 43.23 C 52.01 40.56 55.22 38.26 57.44 35.04 C 57.03 34.55 56.20 33.56 55.78 33.07 C 51.12 35.90 46.95 39.50 42.42 42.54 Z" />
</g>
<g id="#ffc151ff">
<path fill="#ffc151" opacity="1.00" d=" M 18.94 31.92 C 24.68 24.90 31.56 18.61 39.88 14.82 C 31.28 25.82 21.42 37.42 20.78 52.08 C 21.25 51.71 22.18 50.99 22.64 50.62 C 22.57 51.80 22.49 52.98 22.41 54.15 C 23.68 54.34 24.95 54.53 26.23 54.69 C 24.33 54.80 22.43 54.98 20.54 55.15 C 19.69 68.24 31.26 79.81 44.08 80.31 C 35.05 83.08 24.84 82.41 16.86 77.06 C 12.61 72.71 9.74 66.98 9.23 60.88 C 8.25 50.39 12.54 40.04 18.94 31.92 Z" />
</g>
<g id="#f1c178ff">
<path fill="#f1c178" opacity="1.00" d=" M 85.99 28.87 C 88.55 29.66 87.73 32.93 87.89 34.99 C 86.78 47.99 80.48 60.68 70.49 69.15 C 71.10 65.21 73.95 62.28 76.07 59.10 C 81.05 52.03 84.31 43.64 84.81 34.97 C 84.98 32.90 85.26 30.82 85.99 28.87 Z" />
</g>
<g id="#e89f02ff">
<path fill="#e89f02" opacity="1.00" d=" M 29.49 37.12 C 30.98 35.31 32.30 32.79 35.01 32.86 C 37.96 32.28 42.24 33.35 42.18 37.05 C 41.78 43.97 34.35 46.68 29.42 50.05 C 31.81 50.70 34.20 51.34 36.59 51.99 C 35.98 53.23 35.36 54.47 34.74 55.72 C 31.90 55.37 29.07 55.00 26.23 54.69 C 24.95 54.53 23.68 54.34 22.41 54.15 C 22.49 52.98 22.57 51.80 22.64 50.62 C 26.12 47.66 29.93 45.15 33.75 42.66 C 35.47 41.63 36.59 39.92 37.19 38.04 C 34.73 37.11 32.07 37.21 29.49 37.12 Z" />
</g>
<g id="#e89f03ff">
<path fill="#e89f03" opacity="1.00" d=" M 42.42 42.54 C 46.95 39.50 51.12 35.90 55.78 33.07 C 56.20 33.56 57.03 34.55 57.44 35.04 C 55.22 38.26 52.01 40.56 49.20 43.23 C 52.98 44.06 56.85 44.40 60.72 44.34 C 60.04 41.32 59.46 38.26 59.05 35.18 C 60.45 34.81 61.86 34.44 63.27 34.07 C 64.18 37.81 65.74 41.32 66.94 44.96 C 65.19 47.22 62.06 48.05 60.70 50.65 C 58.82 53.76 57.95 57.79 54.71 59.85 C 52.22 60.81 49.45 60.04 46.86 59.97 C 47.27 58.39 47.68 56.82 48.10 55.26 C 50.00 55.42 51.91 55.58 53.82 55.74 C 54.80 53.43 55.72 51.10 56.57 48.73 C 55.13 48.62 53.69 48.44 52.25 48.50 C 50.01 50.20 48.79 52.88 46.86 54.88 C 44.59 57.51 41.22 58.69 38.10 59.96 C 37.77 58.72 37.46 57.48 37.14 56.24 C 40.65 54.45 44.01 52.30 46.60 49.28 C 45.05 47.22 41.94 45.49 42.42 42.54 Z" />
</g>
<g id="#c2933cff">
<path fill="#c2933c" opacity="1.00" d=" M 40.27 84.05 C 47.34 82.89 53.84 79.71 60.06 76.30 C 60.69 77.79 61.22 79.35 62.13 80.71 C 63.39 81.25 64.77 81.42 66.12 81.63 C 54.79 89.55 39.74 94.63 26.20 89.60 C 20.68 87.78 16.34 83.72 12.57 79.45 C 20.65 84.90 30.86 86.32 40.27 84.05 Z" />
</g>
</svg>
