<?xml version="1.0" encoding="UTF-8" ?>
<!DOCTYPE svg PUBLIC "-//W3C//DTD SVG 1.1//EN" "http://www.w3.org/Graphics/SVG/1.1/DTD/svg11.dtd">
<svg width="96pt" height="96pt" viewBox="0 0 96 96" version="1.1" xmlns="http://www.w3.org/2000/svg">
<g id="#e1ac49ff">
<path fill="#e1ac49" opacity="1.00" d=" M 47.92 6.51 C 57.84 3.83 69.34 4.81 77.57 11.38 C 82.72 16.11 88.34 21.16 89.93 28.28 C 93.26 38.72 90.44 49.97 85.57 59.43 C 80.78 68.82 73.34 76.59 64.82 82.70 C 62.38 81.42 60.24 79.63 58.87 77.21 C 50.49 81.40 41.56 85.25 31.99 84.98 C 26.30 85.36 20.84 83.58 15.64 81.50 C 15.60 80.87 15.52 79.60 15.48 78.97 C 15.90 78.66 16.72 78.06 17.14 77.75 C 25.18 82.75 35.24 83.03 44.17 80.52 C 61.23 74.81 75.26 60.65 80.48 43.40 C 83.02 35.17 82.68 25.62 77.67 18.36 C 70.99 9.40 58.25 8.53 48.22 11.21 C 48.12 9.64 48.02 8.07 47.92 6.51 M 85.69 29.66 C 85.15 37.88 83.33 46.06 79.51 53.41 C 76.93 58.96 72.52 63.39 69.98 68.96 C 81.10 60.64 86.92 46.55 87.60 32.93 C 87.85 31.47 86.50 30.63 85.69 29.66 Z" />
</g>
<g id="#e19f48fe">
<path fill="#e19f48" opacity="1.00" d=" M 9.41 39.19 C 17.09 23.74 31.13 11.10 47.92 6.51 C 48.02 8.07 48.12 9.64 48.22 11.21 C 46.06 11.95 43.97 12.86 41.94 13.89 C 29.21 19.52 18.38 29.74 12.40 42.35 C 7.08 53.67 7.30 68.90 17.14 77.75 C 16.72 78.06 15.90 78.66 15.48 78.97 C 15.52 79.60 15.60 80.87 15.64 81.50 C 15.22 81.34 14.40 81.02 13.99 80.85 C 8.82 77.38 6.97 71.02 4.83 65.50 C 2.30 56.46 6.05 47.45 9.41 39.19 Z" />
</g>
<g id="#ffd764ff">
<path fill="#ffd764" opacity="1.00" d=" M 48.22 11.21 C 58.25 8.53 70.99 9.40 77.67 18.36 C 82.68 25.62 83.02 35.17 80.48 43.40 C 75.26 60.65 61.23 74.81 44.17 80.52 C 36.39 78.59 28.70 74.39 24.81 67.09 C 22.11 62.96 21.57 57.95 21.82 53.13 C 22.63 53.12 24.25 53.09 25.06 53.08 C 28.55 52.89 32.68 53.11 35.22 50.23 C 37.33 48.05 39.13 44.55 37.64 41.59 C 36.17 40.42 34.49 39.60 32.86 38.68 C 33.35 37.96 33.84 37.23 34.33 36.51 C 36.54 36.42 38.80 36.56 40.96 35.98 C 41.57 34.85 42.02 33.64 42.51 32.46 C 39.40 32.11 36.26 31.57 33.12 31.85 C 30.18 34.73 29.01 38.85 27.23 42.46 C 29.41 43.12 31.69 43.68 33.59 45.00 C 32.81 46.72 31.90 48.75 29.88 49.26 C 28.43 49.12 27.06 48.56 25.72 48.03 C 24.63 47.39 23.56 46.70 22.49 46.03 C 25.66 33.58 34.17 23.72 41.94 13.89 C 43.97 12.86 46.06 11.95 48.22 11.21 M 41.69 41.12 C 41.51 43.82 44.16 45.41 45.65 47.30 C 43.41 50.42 40.06 52.34 36.63 53.89 C 36.80 54.73 37.15 56.40 37.33 57.24 C 39.81 56.70 42.41 56.12 44.34 54.35 C 47.05 52.25 48.39 48.86 51.06 46.76 C 52.51 46.70 53.97 46.71 55.43 46.79 C 54.68 48.85 54.16 51.10 52.70 52.80 C 50.87 53.46 48.87 53.31 46.96 53.47 C 46.67 54.88 46.37 56.29 46.08 57.70 C 48.59 57.74 51.14 58.07 53.61 57.52 C 57.29 55.26 57.76 50.47 60.18 47.19 C 61.82 45.77 63.82 44.87 65.56 43.58 C 64.39 39.97 62.48 36.62 61.59 32.90 C 60.27 33.25 58.95 33.59 57.63 33.95 C 58.15 36.97 58.81 39.96 59.63 42.91 C 55.71 42.61 51.80 42.25 47.90 41.73 C 50.81 39.22 53.68 36.66 56.46 34.00 C 55.65 33.20 54.85 32.39 54.05 31.59 C 50.27 35.21 45.72 37.82 41.69 41.12 Z" />
</g>
<g id="#ffc252ff">
<path fill="#ffc252" opacity="1.00" d=" M 12.40 42.35 C 18.38 29.74 29.21 19.52 41.94 13.89 C 34.17 23.72 25.66 33.58 22.49 46.03 C 23.56 46.70 24.63 47.39 25.72 48.03 C 24.79 48.93 23.87 49.84 22.94 50.76 C 23.65 51.53 24.35 52.30 25.06 53.08 C 24.25 53.09 22.63 53.12 21.82 53.13 C 21.57 57.95 22.11 62.96 24.81 67.09 C 28.70 74.39 36.39 78.59 44.17 80.52 C 35.24 83.03 25.18 82.75 17.14 77.75 C 7.30 68.90 7.08 53.67 12.40 42.35 Z" />
</g>
<g id="#f2ca90ff">
<path fill="#f2ca90" opacity="1.00" d=" M 85.69 29.66 C 86.50 30.63 87.85 31.47 87.60 32.93 C 86.92 46.55 81.10 60.64 69.98 68.96 C 72.52 63.39 76.93 58.96 79.51 53.41 C 83.33 46.06 85.15 37.88 85.69 29.66 Z" />
</g>
<g id="#e89f03ff">
<path fill="#e89f03" opacity="1.00" d=" M 27.23 42.46 C 29.01 38.85 30.18 34.73 33.12 31.85 C 36.26 31.57 39.40 32.11 42.51 32.46 C 42.02 33.64 41.57 34.85 40.96 35.98 C 38.80 36.56 36.54 36.42 34.33 36.51 C 33.84 37.23 33.35 37.96 32.86 38.68 C 34.49 39.60 36.17 40.42 37.64 41.59 C 39.13 44.55 37.33 48.05 35.22 50.23 C 32.68 53.11 28.55 52.89 25.06 53.08 C 24.35 52.30 23.65 51.53 22.94 50.76 C 23.87 49.84 24.79 48.93 25.72 48.03 C 27.06 48.56 28.43 49.12 29.88 49.26 C 31.90 48.75 32.81 46.72 33.59 45.00 C 31.69 43.68 29.41 43.12 27.23 42.46 Z" />
<path fill="#e89f03" opacity="1.00" d=" M 41.69 41.12 C 45.72 37.82 50.27 35.21 54.05 31.59 C 54.85 32.39 55.65 33.20 56.46 34.00 C 53.68 36.66 50.81 39.22 47.90 41.73 C 51.80 42.25 55.71 42.61 59.63 42.91 C 58.81 39.96 58.15 36.97 57.63 33.95 C 58.95 33.59 60.27 33.25 61.59 32.90 C 62.48 36.62 64.39 39.97 65.56 43.58 C 63.82 44.87 61.82 45.77 60.18 47.19 C 57.76 50.47 57.29 55.26 53.61 57.52 C 51.14 58.07 48.59 57.74 46.08 57.70 C 46.37 56.29 46.67 54.88 46.96 53.47 C 48.87 53.31 50.87 53.46 52.70 52.80 C 54.16 51.10 54.68 48.85 55.43 46.79 C 53.97 46.71 52.51 46.70 51.06 46.76 C 48.39 48.86 47.05 52.25 44.34 54.35 C 42.41 56.12 39.81 56.70 37.33 57.24 C 37.15 56.40 36.80 54.73 36.63 53.89 C 40.06 52.34 43.41 50.42 45.65 47.30 C 44.16 45.41 41.51 43.82 41.69 41.12 Z" />
</g>
<g id="#c1923cff">
<path fill="#c1923c" opacity="1.00" d=" M 31.99 84.98 C 41.56 85.25 50.49 81.40 58.87 77.21 C 60.24 79.63 62.38 81.42 64.82 82.70 C 57.94 87.52 49.80 89.70 42.01 92.53 C 37.61 93.09 33.03 92.95 29.01 90.89 C 23.10 89.18 17.57 85.97 13.99 80.85 C 14.40 81.02 15.22 81.34 15.64 81.50 C 20.84 83.58 26.30 85.36 31.99 84.98 Z" />
</g>
</svg>
