<?xml version="1.0" encoding="UTF-8" ?>
<!DOCTYPE svg PUBLIC "-//W3C//DTD SVG 1.1//EN" "http://www.w3.org/Graphics/SVG/1.1/DTD/svg11.dtd">
<svg width="96pt" height="96pt" viewBox="0 0 96 96" version="1.1" xmlns="http://www.w3.org/2000/svg">
<g id="#e1ac49ff">
<path fill="#e1ac49" opacity="1.00" d=" M 48.59 6.55 C 58.94 3.70 71.02 5.47 79.06 12.93 C 82.61 16.35 86.40 19.83 88.35 24.47 C 89.44 27.20 90.82 29.84 91.65 32.66 C 92.28 38.37 92.50 44.45 89.59 49.61 C 85.58 63.10 76.39 74.63 64.99 82.68 C 63.63 81.90 62.18 81.23 60.97 80.21 C 60.64 78.93 60.54 77.61 60.38 76.31 C 48.93 82.72 35.11 88.36 21.96 83.96 C 19.50 82.50 17.08 80.96 14.57 79.58 C 15.03 78.71 15.49 77.83 15.94 76.96 C 24.24 83.22 35.47 83.57 45.06 80.43 C 60.93 74.76 74.26 61.71 79.71 45.69 C 82.61 37.55 83.07 28.04 78.72 20.32 C 75.74 14.76 69.71 11.52 63.67 10.46 C 58.82 9.72 53.84 10.12 49.04 11.04 C 48.89 9.54 48.74 8.05 48.59 6.55 M 85.54 29.83 C 84.93 38.75 82.93 47.68 78.45 55.50 C 75.96 60.20 72.15 64.09 70.06 69.02 C 74.18 66.57 76.89 62.46 79.59 58.62 C 83.88 51.50 87.27 43.41 86.96 34.95 C 86.79 33.21 87.31 30.90 85.54 29.83 Z" />
</g>
<g id="#e19f48ff">
<path fill="#e19f48" opacity="1.00" d=" M 6.32 47.26 C 12.44 27.85 28.80 11.67 48.59 6.55 C 48.74 8.05 48.89 9.54 49.04 11.04 C 46.92 11.82 44.87 12.76 42.84 13.75 C 30.50 18.62 20.30 28.27 13.75 39.70 C 7.17 51.03 6.64 66.93 15.94 76.96 C 15.49 77.83 15.03 78.71 14.57 79.58 C 17.08 80.96 19.50 82.50 21.96 83.96 C 19.60 83.32 17.19 82.82 14.83 82.16 C 10.15 78.84 7.60 73.47 5.62 68.26 C 3.41 64.22 4.10 59.48 4.12 55.07 C 4.15 52.30 5.46 49.82 6.32 47.26 Z" />
</g>
<g id="#ffd764ff">
<path fill="#ffd764" opacity="1.00" d=" M 49.04 11.04 C 53.84 10.12 58.82 9.72 63.67 10.46 C 69.71 11.52 75.74 14.76 78.72 20.32 C 83.07 28.04 82.61 37.55 79.71 45.69 C 74.26 61.71 60.93 74.76 45.06 80.43 C 38.43 79.61 32.38 75.93 27.68 71.32 C 20.79 62.57 19.23 48.98 26.13 39.77 C 26.99 39.68 28.70 39.50 29.56 39.42 C 27.83 44.66 25.31 49.63 24.05 55.03 C 25.38 54.72 26.81 54.64 28.05 54.01 C 29.40 52.21 30.14 50.06 31.00 48.00 C 32.89 43.10 35.36 38.42 36.77 33.34 C 33.64 33.81 30.55 34.50 27.49 35.28 C 30.23 26.68 37.48 20.70 42.84 13.75 C 44.87 12.76 46.92 11.82 49.04 11.04 M 42.14 35.32 C 41.81 36.46 41.46 37.60 41.10 38.73 C 43.56 39.55 47.68 38.19 48.92 40.88 C 45.88 42.33 42.33 41.60 39.08 42.09 C 39.08 43.24 39.08 44.40 39.06 45.55 C 41.36 45.67 43.66 45.75 45.96 45.90 C 45.69 46.47 45.16 47.61 44.90 48.18 C 41.74 48.24 38.58 48.33 35.42 48.49 C 35.23 49.66 35.04 50.82 34.86 51.99 C 37.51 52.13 40.15 52.32 42.80 52.35 C 42.80 54.48 41.65 57.09 43.08 58.92 C 46.34 60.15 50.21 60.66 53.57 59.52 C 57.36 57.33 58.50 52.73 60.01 48.93 C 56.61 48.44 53.17 48.29 49.75 48.09 C 49.92 47.62 50.26 46.67 50.43 46.19 C 53.74 45.58 57.16 46.00 60.52 45.66 C 60.65 44.59 60.75 43.51 60.82 42.44 C 58.06 42.30 55.30 42.08 52.54 41.87 C 52.69 41.39 52.98 40.44 53.13 39.97 C 56.31 39.07 59.73 40.01 62.87 38.97 C 63.65 38.00 63.46 36.65 63.81 35.51 C 56.59 35.23 49.36 35.32 42.14 35.32 Z" />
</g>
<g id="#ffc252ff">
<path fill="#ffc252" opacity="1.00" d=" M 13.75 39.70 C 20.30 28.27 30.50 18.62 42.84 13.75 C 37.48 20.70 30.23 26.68 27.49 35.28 C 27.05 36.78 26.66 38.30 26.13 39.77 C 19.23 48.98 20.79 62.57 27.68 71.32 C 32.38 75.93 38.43 79.61 45.06 80.43 C 35.47 83.57 24.24 83.22 15.94 76.96 C 6.64 66.93 7.17 51.03 13.75 39.70 Z" />
</g>
<g id="#f1ca8fff">
<path fill="#f1ca8f" opacity="1.00" d=" M 85.54 29.83 C 87.31 30.90 86.79 33.21 86.96 34.95 C 87.27 43.41 83.88 51.50 79.59 58.62 C 76.89 62.46 74.18 66.57 70.06 69.02 C 72.15 64.09 75.96 60.20 78.45 55.50 C 82.93 47.68 84.93 38.75 85.54 29.83 Z" />
</g>
<g id="#e89e03ff">
<path fill="#e89e03" opacity="1.00" d=" M 27.49 35.28 C 30.55 34.50 33.64 33.81 36.77 33.34 C 35.36 38.42 32.89 43.10 31.00 48.00 C 30.14 50.06 29.40 52.21 28.05 54.01 C 26.81 54.64 25.38 54.72 24.05 55.03 C 25.31 49.63 27.83 44.66 29.56 39.42 C 28.70 39.50 26.99 39.68 26.13 39.77 C 26.66 38.30 27.05 36.78 27.49 35.28 Z" />
</g>
<g id="#e89f03ff">
<path fill="#e89f03" opacity="1.00" d=" M 42.14 35.32 C 49.36 35.32 56.59 35.23 63.81 35.51 C 63.46 36.65 63.65 38.00 62.87 38.97 C 59.73 40.01 56.31 39.07 53.13 39.97 C 52.98 40.44 52.69 41.39 52.54 41.87 C 55.30 42.08 58.06 42.30 60.82 42.44 C 60.75 43.51 60.65 44.59 60.52 45.66 C 57.16 46.00 53.74 45.58 50.43 46.19 C 50.26 46.67 49.92 47.62 49.75 48.09 C 53.17 48.29 56.61 48.44 60.01 48.93 C 58.50 52.73 57.36 57.33 53.57 59.52 C 50.21 60.66 46.34 60.15 43.08 58.92 C 41.65 57.09 42.80 54.48 42.80 52.35 C 40.15 52.32 37.51 52.13 34.86 51.99 C 35.04 50.82 35.23 49.66 35.42 48.49 C 38.58 48.33 41.74 48.24 44.90 48.18 C 45.16 47.61 45.69 46.47 45.96 45.90 C 43.66 45.75 41.36 45.67 39.06 45.55 C 39.08 44.40 39.08 43.24 39.08 42.09 C 42.33 41.60 45.88 42.33 48.92 40.88 C 47.68 38.19 43.56 39.55 41.10 38.73 C 41.46 37.60 41.81 36.46 42.14 35.32 M 48.44 52.52 C 47.13 52.96 47.37 54.69 46.92 55.74 C 49.08 55.66 51.25 55.58 53.41 55.44 C 53.58 54.38 53.75 53.32 53.91 52.27 C 52.09 52.31 50.25 52.24 48.44 52.52 Z" />
</g>
<g id="#fbda71ff">
<path fill="#fbda71" opacity="1.00" d=" M 48.44 52.52 C 50.25 52.24 52.09 52.31 53.91 52.27 C 53.75 53.32 53.58 54.38 53.41 55.44 C 51.25 55.58 49.08 55.66 46.92 55.74 C 47.37 54.69 47.13 52.96 48.44 52.52 Z" />
</g>
<g id="#c1923cff">
<path fill="#c1923c" opacity="1.00" d=" M 21.96 83.96 C 35.11 88.36 48.93 82.72 60.38 76.31 C 60.54 77.61 60.64 78.93 60.97 80.21 C 62.18 81.23 63.63 81.90 64.99 82.68 C 59.52 86.47 53.35 88.98 47.01 90.91 C 42.16 93.45 36.43 93.32 31.18 92.36 C 25.33 89.71 18.70 87.68 14.83 82.16 C 17.19 82.82 19.60 83.32 21.96 83.96 Z" />
</g>
</svg>
