<?xml version="1.0" encoding="UTF-8" ?>
<!DOCTYPE svg PUBLIC "-//W3C//DTD SVG 1.1//EN" "http://www.w3.org/Graphics/SVG/1.1/DTD/svg11.dtd">
<svg width="96pt" height="96pt" viewBox="0 0 96 96" version="1.1" xmlns="http://www.w3.org/2000/svg">
<g id="#e1ac49ff">
<path fill="#e1ac49" opacity="1.00" d=" M 54.66 4.31 C 63.08 2.90 71.71 5.48 78.46 10.55 C 83.33 15.13 88.69 19.83 90.52 26.55 C 93.36 32.87 93.95 40.44 90.94 46.80 C 87.22 61.21 77.57 73.86 65.15 81.92 C 62.51 80.50 60.99 78.14 61.45 75.11 C 53.00 80.09 43.63 83.71 33.80 84.59 C 31.86 84.71 29.93 84.40 28.03 84.06 C 24.71 82.34 21.31 80.78 17.90 79.23 C 17.57 78.19 17.22 77.15 16.86 76.12 C 23.93 80.94 32.97 82.68 41.25 80.31 C 52.83 78.37 62.82 71.08 70.37 62.37 C 77.59 53.93 82.78 43.27 82.94 32.01 C 82.72 24.43 79.71 16.06 72.65 12.32 C 65.77 8.17 57.40 8.73 49.77 9.92 C 51.39 8.04 52.94 6.10 54.66 4.31 M 86.43 29.27 C 85.93 39.24 83.07 49.19 77.60 57.59 C 75.43 61.05 72.52 64.09 71.10 67.98 C 74.10 66.46 75.80 63.42 77.95 60.98 C 84.98 52.11 88.84 40.69 87.69 29.33 C 87.38 29.32 86.75 29.28 86.43 29.27 Z" />
</g>
<g id="#e19f48ff">
<path fill="#e19f48" opacity="1.00" d=" M 13.13 33.16 C 22.16 18.38 37.47 7.16 54.66 4.31 C 52.94 6.10 51.39 8.04 49.77 9.92 C 45.07 11.93 40.31 13.89 36.07 16.80 C 31.70 18.95 27.99 22.15 24.67 25.67 C 15.48 34.53 8.76 46.96 9.94 60.05 C 10.05 66.11 13.10 71.55 16.86 76.12 C 17.22 77.15 17.57 78.19 17.90 79.23 C 21.31 80.78 24.71 82.34 28.03 84.06 C 23.89 83.51 19.79 82.63 15.92 81.03 C 9.50 76.92 6.90 69.16 5.60 62.01 C 4.56 51.88 7.88 41.74 13.13 33.16 Z" />
</g>
<g id="#ffd764ff">
<path fill="#ffd764" opacity="1.00" d=" M 49.77 9.92 C 57.40 8.73 65.77 8.17 72.65 12.32 C 79.71 16.06 82.72 24.43 82.94 32.01 C 82.78 43.27 77.59 53.93 70.37 62.37 C 62.82 71.08 52.83 78.37 41.25 80.31 C 33.87 78.97 26.14 75.52 22.47 68.58 C 18.54 62.58 18.86 55.08 19.54 48.24 C 20.29 40.79 24.29 34.29 28.05 28.01 C 30.40 24.03 34.30 21.14 36.07 16.80 C 40.31 13.89 45.07 11.93 49.77 9.92 M 31.60 32.58 C 29.44 32.81 29.00 35.26 28.06 36.81 C 30.30 36.53 32.55 36.16 34.82 36.21 C 36.21 38.87 33.24 40.99 31.26 42.21 C 27.10 44.69 21.67 47.23 20.98 52.62 C 24.85 53.01 28.72 53.79 32.62 53.52 C 34.21 53.27 34.37 51.38 34.96 50.20 C 32.64 49.72 30.32 49.27 28.01 48.75 C 31.55 45.66 36.78 44.50 39.09 40.09 C 40.56 37.84 40.99 34.21 38.31 32.66 C 36.14 32.02 33.80 32.17 31.60 32.58 M 44.15 34.12 C 43.99 34.88 43.65 36.41 43.49 37.17 C 45.98 37.70 48.50 38.05 51.03 38.32 C 49.97 42.69 44.72 39.28 41.75 40.70 C 41.41 41.79 41.11 42.90 40.84 44.01 C 43.14 44.20 45.45 44.33 47.77 44.40 C 47.77 45.00 47.77 46.19 47.77 46.78 C 44.50 46.79 41.22 46.83 37.95 46.89 C 37.62 48.16 37.28 49.43 36.92 50.69 C 39.63 50.80 42.35 50.89 45.06 51.06 C 44.79 52.99 44.49 54.92 44.15 56.83 C 46.71 58.67 49.96 58.74 52.99 58.75 C 54.29 58.72 55.77 58.76 56.70 57.67 C 59.58 54.97 61.08 51.12 62.05 47.37 C 58.67 47.38 55.30 47.34 51.94 47.07 C 52.06 46.59 52.31 45.62 52.43 45.14 C 55.73 44.31 59.18 44.82 62.54 44.56 C 62.72 43.43 62.89 42.29 63.05 41.16 C 60.10 41.00 57.15 40.78 54.26 40.14 C 54.54 39.73 55.09 38.90 55.37 38.49 C 58.75 38.06 62.21 38.54 65.53 37.61 C 65.62 36.50 65.72 35.39 65.82 34.28 C 58.59 34.54 51.37 33.69 44.15 34.12 Z" />
</g>
<g id="#ffc050ff">
<path fill="#ffc050" opacity="1.00" d=" M 24.67 25.67 C 27.99 22.15 31.70 18.95 36.07 16.80 C 34.30 21.14 30.40 24.03 28.05 28.01 C 24.29 34.29 20.29 40.79 19.54 48.24 C 18.86 55.08 18.54 62.58 22.47 68.58 C 26.14 75.52 33.87 78.97 41.25 80.31 C 32.97 82.68 23.93 80.94 16.86 76.12 C 13.10 71.55 10.05 66.11 9.94 60.05 C 8.76 46.96 15.48 34.53 24.67 25.67 Z" />
</g>
<g id="#f2ce9cff">
<path fill="#f2ce9c" opacity="1.00" d=" M 86.43 29.27 C 86.75 29.28 87.38 29.32 87.69 29.33 C 88.84 40.69 84.98 52.11 77.95 60.98 C 75.80 63.42 74.10 66.46 71.10 67.98 C 72.52 64.09 75.43 61.05 77.60 57.59 C 83.07 49.19 85.93 39.24 86.43 29.27 Z" />
</g>
<g id="#e89f02ff">
<path fill="#e89f02" opacity="1.00" d=" M 31.60 32.58 C 33.80 32.17 36.14 32.02 38.31 32.66 C 40.99 34.21 40.56 37.84 39.09 40.09 C 36.78 44.50 31.55 45.66 28.01 48.75 C 30.32 49.27 32.64 49.72 34.96 50.20 C 34.37 51.38 34.21 53.27 32.62 53.52 C 28.72 53.79 24.85 53.01 20.98 52.62 C 21.67 47.23 27.10 44.69 31.26 42.21 C 33.24 40.99 36.21 38.87 34.82 36.21 C 32.55 36.16 30.30 36.53 28.06 36.81 C 29.00 35.26 29.44 32.81 31.60 32.58 Z" />
</g>
<g id="#e89f03ff">
<path fill="#e89f03" opacity="1.00" d=" M 44.15 34.12 C 51.37 33.69 58.59 34.54 65.82 34.28 C 65.72 35.39 65.62 36.50 65.53 37.61 C 62.21 38.54 58.75 38.06 55.37 38.49 C 55.09 38.90 54.54 39.73 54.26 40.14 C 57.15 40.78 60.10 41.00 63.05 41.16 C 62.89 42.29 62.72 43.43 62.54 44.56 C 59.18 44.82 55.73 44.31 52.43 45.14 C 52.31 45.62 52.06 46.59 51.94 47.07 C 55.30 47.34 58.67 47.38 62.05 47.37 C 61.08 51.12 59.58 54.97 56.70 57.67 C 55.77 58.76 54.29 58.72 52.99 58.75 C 49.96 58.74 46.71 58.67 44.15 56.83 C 44.49 54.92 44.79 52.99 45.06 51.06 C 42.35 50.89 39.63 50.80 36.92 50.69 C 37.28 49.43 37.62 48.16 37.95 46.89 C 41.22 46.83 44.50 46.79 47.77 46.78 C 47.77 46.19 47.77 45.00 47.77 44.40 C 45.45 44.33 43.14 44.20 40.84 44.01 C 41.11 42.90 41.41 41.79 41.75 40.70 C 44.72 39.28 49.97 42.69 51.03 38.32 C 48.50 38.05 45.98 37.70 43.49 37.17 C 43.65 36.41 43.99 34.88 44.15 34.12 M 49.29 52.31 C 48.63 54.77 52.16 54.69 53.79 54.67 C 55.72 54.82 55.82 52.58 56.22 51.26 C 53.96 51.54 51.07 50.49 49.29 52.31 Z" />
</g>
<g id="#fbdb72ff">
<path fill="#fbdb72" opacity="1.00" d=" M 49.29 52.31 C 51.07 50.49 53.96 51.54 56.22 51.26 C 55.82 52.58 55.72 54.82 53.79 54.67 C 52.16 54.69 48.63 54.77 49.29 52.31 Z" />
</g>
<g id="#c2933cff">
<path fill="#c2933c" opacity="1.00" d=" M 33.80 84.59 C 43.63 83.71 53.00 80.09 61.45 75.11 C 60.99 78.14 62.51 80.50 65.15 81.92 C 59.69 86.28 52.85 88.41 46.19 90.14 C 35.60 91.87 22.56 90.55 15.92 81.03 C 19.79 82.63 23.89 83.51 28.03 84.06 C 29.93 84.40 31.86 84.71 33.80 84.59 Z" />
</g>
</svg>
