<?xml version="1.0" encoding="UTF-8" ?>
<!DOCTYPE svg PUBLIC "-//W3C//DTD SVG 1.1//EN" "http://www.w3.org/Graphics/SVG/1.1/DTD/svg11.dtd">
<svg width="96pt" height="96pt" viewBox="0 0 96 96" version="1.1" xmlns="http://www.w3.org/2000/svg">
<g id="#e1ac49ff">
<path fill="#e1ac49" opacity="1.00" d=" M 48.90 6.04 C 53.20 3.60 58.31 4.28 63.05 4.33 C 74.22 6.07 84.06 13.75 89.18 23.74 C 91.09 29.26 93.74 34.99 92.46 40.97 C 90.50 47.35 89.08 53.99 85.69 59.83 C 81.21 67.68 75.24 74.79 67.93 80.15 C 66.40 80.35 64.82 80.66 63.29 80.32 C 61.89 79.19 61.00 77.58 59.95 76.16 C 50.53 81.25 40.05 85.45 29.13 84.60 C 24.24 84.26 19.54 82.63 15.16 80.50 C 15.74 79.17 16.34 77.86 16.95 76.55 C 24.36 81.41 33.74 82.93 42.25 80.32 C 56.94 77.11 69.01 66.24 76.57 53.58 C 81.24 44.87 84.46 34.38 81.47 24.58 C 80.08 19.63 77.12 14.90 72.41 12.53 C 65.89 8.70 57.98 8.53 50.74 10.03 C 50.89 8.64 51.06 7.24 51.24 5.85 C 50.66 5.90 49.48 5.99 48.90 6.04 M 85.78 32.88 C 85.03 42.82 81.31 52.46 75.42 60.48 C 73.68 62.82 72.03 65.25 71.02 68.00 C 74.91 66.02 77.08 62.01 79.72 58.73 C 85.25 49.92 89.02 39.51 87.65 28.97 C 85.65 29.20 86.09 31.43 85.78 32.88 Z" />
</g>
<g id="#e09f48ff">
<path fill="#e09f48" opacity="1.00" d=" M 18.56 25.56 C 26.49 16.39 36.91 8.70 48.90 6.04 C 49.48 5.99 50.66 5.90 51.24 5.85 C 51.06 7.24 50.89 8.64 50.74 10.03 C 45.53 11.61 40.61 14.03 35.99 16.88 C 27.27 21.49 20.39 28.97 15.27 37.29 C 7.86 48.96 6.46 66.22 16.95 76.55 C 16.34 77.86 15.74 79.17 15.16 80.50 C 14.86 80.34 14.25 80.02 13.95 79.86 C 8.97 75.71 6.65 69.21 5.50 63.01 C 3.91 49.35 9.86 35.83 18.56 25.56 Z" />
</g>
<g id="#ffd764ff">
<path fill="#ffd764" opacity="1.00" d=" M 50.74 10.03 C 57.98 8.53 65.89 8.70 72.41 12.53 C 77.12 14.90 80.08 19.63 81.47 24.58 C 84.46 34.38 81.24 44.87 76.57 53.58 C 69.01 66.24 56.94 77.11 42.25 80.32 C 37.63 79.71 32.73 78.97 28.93 76.02 C 24.77 72.81 20.71 68.81 19.67 63.43 C 16.49 53.33 19.64 42.45 24.52 33.45 C 27.60 27.42 32.38 22.56 35.99 16.88 C 40.61 14.03 45.53 11.61 50.74 10.03 M 30.71 32.74 C 28.48 35.86 27.19 39.51 25.61 42.98 C 27.67 43.58 29.72 44.22 31.74 44.94 C 31.10 46.70 30.64 48.99 28.57 49.61 C 26.60 49.72 24.75 48.87 22.91 48.32 C 22.50 49.69 20.84 51.38 22.17 52.70 C 26.10 54.21 31.38 53.63 34.00 50.02 C 35.35 48.06 36.80 45.76 36.56 43.29 C 36.15 40.66 33.16 40.37 31.14 39.62 C 31.60 38.68 32.01 37.72 32.59 36.85 C 34.78 36.17 37.18 37.01 39.38 36.31 C 39.99 35.29 40.45 34.19 40.95 33.12 C 37.59 32.80 33.98 31.62 30.71 32.74 M 43.94 33.92 C 43.65 35.12 43.36 36.31 43.08 37.51 C 45.40 38.26 50.19 36.58 50.27 40.04 C 47.49 41.01 44.51 40.12 41.67 40.66 C 40.84 41.53 40.49 42.73 39.95 43.79 C 42.59 44.12 45.22 44.43 47.84 44.89 C 45.55 49.38 37.26 43.81 36.18 50.17 C 38.94 50.97 41.84 51.02 44.69 51.11 C 44.40 53.06 44.17 55.03 43.85 56.98 C 47.09 58.82 50.98 59.09 54.60 58.50 C 58.90 56.51 60.41 51.52 61.96 47.41 C 58.52 47.38 55.08 47.31 51.64 47.16 C 51.76 46.61 51.98 45.52 52.10 44.98 C 55.30 44.46 58.56 44.66 61.79 44.68 C 62.17 43.53 62.55 42.39 62.93 41.24 C 59.92 40.96 56.91 40.75 53.90 40.51 C 54.31 39.76 54.79 39.06 55.34 38.40 C 58.56 38.16 61.80 38.24 65.01 37.92 C 65.04 36.69 65.07 35.46 65.11 34.23 C 58.05 34.42 51.00 33.98 43.94 33.92 Z" />
</g>
<g id="#ffc050ff">
<path fill="#ffc050" opacity="1.00" d=" M 15.27 37.29 C 20.39 28.97 27.27 21.49 35.99 16.88 C 32.38 22.56 27.60 27.42 24.52 33.45 C 19.64 42.45 16.49 53.33 19.67 63.43 C 20.71 68.81 24.77 72.81 28.93 76.02 C 32.73 78.97 37.63 79.71 42.25 80.32 C 33.74 82.93 24.36 81.41 16.95 76.55 C 6.46 66.22 7.86 48.96 15.27 37.29 Z" />
</g>
<g id="#f2ca8cff">
<path fill="#f2ca8c" opacity="1.00" d=" M 85.78 32.88 C 86.09 31.43 85.65 29.20 87.65 28.97 C 89.02 39.51 85.25 49.92 79.72 58.73 C 77.08 62.01 74.91 66.02 71.02 68.00 C 72.03 65.25 73.68 62.82 75.42 60.48 C 81.31 52.46 85.03 42.82 85.78 32.88 Z" />
</g>
<g id="#e89f02ff">
<path fill="#e89f02" opacity="1.00" d=" M 30.71 32.74 C 33.98 31.62 37.59 32.80 40.95 33.12 C 40.45 34.19 39.99 35.29 39.38 36.31 C 37.18 37.01 34.78 36.17 32.59 36.85 C 32.01 37.72 31.60 38.68 31.14 39.62 C 33.16 40.37 36.15 40.66 36.56 43.29 C 36.80 45.76 35.35 48.06 34.00 50.02 C 31.38 53.63 26.10 54.21 22.17 52.70 C 20.84 51.38 22.50 49.69 22.91 48.32 C 24.75 48.87 26.60 49.72 28.57 49.61 C 30.64 48.99 31.10 46.70 31.74 44.94 C 29.72 44.22 27.67 43.58 25.61 42.98 C 27.19 39.51 28.48 35.86 30.71 32.74 Z" />
</g>
<g id="#e89f03ff">
<path fill="#e89f03" opacity="1.00" d=" M 43.94 33.92 C 51.00 33.98 58.05 34.42 65.11 34.23 C 65.07 35.46 65.04 36.69 65.01 37.92 C 61.80 38.24 58.56 38.16 55.34 38.40 C 54.79 39.06 54.31 39.76 53.90 40.51 C 56.91 40.75 59.92 40.96 62.93 41.24 C 62.55 42.39 62.17 43.53 61.79 44.68 C 58.56 44.66 55.30 44.46 52.10 44.98 C 51.98 45.52 51.76 46.61 51.64 47.16 C 55.08 47.31 58.52 47.38 61.96 47.41 C 60.41 51.52 58.90 56.51 54.60 58.50 C 50.98 59.09 47.09 58.82 43.85 56.98 C 44.17 55.03 44.40 53.06 44.69 51.11 C 41.84 51.02 38.94 50.97 36.18 50.17 C 37.26 43.81 45.55 49.38 47.84 44.89 C 45.22 44.43 42.59 44.12 39.95 43.79 C 40.49 42.73 40.84 41.53 41.67 40.66 C 44.51 40.12 47.49 41.01 50.27 40.04 C 50.19 36.58 45.40 38.26 43.08 37.51 C 43.36 36.31 43.65 35.12 43.94 33.92 M 49.18 51.29 C 49.15 51.98 49.08 53.37 49.04 54.07 C 50.55 54.30 52.07 54.80 53.61 54.59 C 54.90 53.95 55.38 52.51 56.09 51.37 C 53.79 51.29 51.48 51.29 49.18 51.29 Z" />
</g>
<g id="#fbdb71ff">
<path fill="#fbdb71" opacity="1.00" d=" M 49.18 51.29 C 51.48 51.29 53.79 51.29 56.09 51.37 C 55.38 52.51 54.90 53.95 53.61 54.59 C 52.07 54.80 50.55 54.30 49.04 54.07 C 49.08 53.37 49.15 51.98 49.18 51.29 Z" />
</g>
<g id="#c2933cff">
<path fill="#c2933c" opacity="1.00" d=" M 29.13 84.60 C 40.05 85.45 50.53 81.25 59.95 76.16 C 61.00 77.58 61.89 79.19 63.29 80.32 C 64.82 80.66 66.40 80.35 67.93 80.15 C 61.44 85.16 53.78 88.69 45.77 90.42 C 38.78 90.70 31.27 91.67 24.77 88.43 C 20.41 86.68 16.94 83.40 13.95 79.86 C 14.25 80.02 14.86 80.34 15.16 80.50 C 19.54 82.63 24.24 84.26 29.13 84.60 Z" />
</g>
</svg>
