<?xml version="1.0" encoding="UTF-8" ?>
<!DOCTYPE svg PUBLIC "-//W3C//DTD SVG 1.1//EN" "http://www.w3.org/Graphics/SVG/1.1/DTD/svg11.dtd">
<svg width="96pt" height="96pt" viewBox="0 0 96 96" version="1.1" xmlns="http://www.w3.org/2000/svg">
<g id="#e1ac49ff">
<path fill="#e1ac49" opacity="1.00" d=" M 51.79 5.40 C 58.85 2.74 66.38 5.26 73.03 7.91 C 77.99 9.95 81.34 14.32 85.05 17.98 C 88.33 21.26 89.91 25.76 90.86 30.20 C 91.50 33.42 93.16 36.61 92.33 39.95 C 90.70 45.41 89.82 51.12 87.33 56.28 C 82.59 66.34 75.23 75.18 66.05 81.47 C 63.21 80.89 60.73 79.33 60.58 76.16 C 51.31 80.63 41.52 85.21 30.97 84.76 C 26.00 84.85 21.25 83.28 16.72 81.39 C 15.02 79.80 14.30 77.81 15.91 75.87 C 23.38 81.59 33.61 83.33 42.54 80.33 C 46.78 79.38 50.96 78.02 54.63 75.65 C 67.85 67.81 78.49 54.89 81.66 39.66 C 83.32 31.20 82.13 21.54 75.76 15.23 C 68.82 9.02 58.79 8.55 50.06 10.23 C 50.64 8.62 51.22 7.01 51.79 5.40 M 86.38 28.92 C 85.32 38.86 83.11 49.01 77.41 57.40 C 75.20 61.17 71.77 64.40 70.97 68.85 C 80.01 60.22 86.73 48.64 87.68 36.01 C 87.65 33.64 88.38 30.73 86.38 28.92 Z" />
</g>
<g id="#e19f48fe">
<path fill="#e19f48" opacity="1.00" d=" M 11.90 34.76 C 20.62 20.28 34.93 8.57 51.79 5.40 C 51.22 7.01 50.64 8.62 50.06 10.23 C 47.20 11.06 44.58 12.49 41.90 13.77 C 32.56 17.64 24.50 24.38 18.51 32.48 C 12.02 40.64 8.20 51.30 9.44 61.78 C 10.01 67.04 12.63 71.82 15.91 75.87 C 14.30 77.81 15.02 79.80 16.72 81.39 C 16.31 81.25 15.47 80.96 15.06 80.81 C 9.49 77.76 7.54 71.13 5.62 65.49 C 4.17 62.21 3.98 58.51 4.58 55.01 C 6.53 48.11 8.11 40.95 11.90 34.76 Z" />
</g>
<g id="#ffd764ff">
<path fill="#ffd764" opacity="1.00" d=" M 50.06 10.23 C 58.79 8.55 68.82 9.02 75.76 15.23 C 82.13 21.54 83.32 31.20 81.66 39.66 C 78.49 54.89 67.85 67.81 54.63 75.65 C 50.96 78.02 46.78 79.38 42.54 80.33 C 39.72 78.42 36.63 76.99 33.66 75.35 C 25.94 70.90 21.47 61.80 21.82 53.00 C 22.74 41.57 28.48 31.25 35.30 22.30 C 37.62 19.55 40.18 16.97 41.90 13.77 C 44.58 12.49 47.20 11.06 50.06 10.23 M 32.79 30.75 C 32.42 34.76 33.61 38.73 33.10 42.73 C 31.73 42.80 30.35 42.85 28.97 42.91 C 28.49 44.05 28.09 45.23 28.04 46.49 C 29.85 46.89 32.24 46.86 33.05 48.91 C 30.76 49.13 28.46 49.20 26.16 49.25 C 25.78 50.45 25.40 51.66 25.02 52.87 C 26.59 53.07 28.15 53.26 29.72 53.45 C 29.53 55.22 29.33 57.00 29.14 58.77 C 30.66 58.79 32.19 58.82 33.72 58.86 C 34.52 57.32 35.37 55.79 36.29 54.31 C 37.97 54.41 39.70 54.79 41.35 54.30 C 42.66 53.54 42.63 51.97 42.64 50.66 C 40.92 50.19 38.07 50.59 37.96 48.13 C 39.97 48.07 41.98 48.06 43.99 48.12 C 44.59 47.14 45.06 46.12 45.42 45.04 C 44.47 44.31 43.39 43.81 42.18 43.53 C 45.27 40.23 48.78 37.31 51.61 33.78 C 52.02 31.59 48.68 32.39 47.37 32.35 C 43.81 34.63 42.08 38.90 38.37 41.03 C 38.37 37.71 38.44 34.37 37.96 31.07 C 36.25 30.87 34.52 30.76 32.79 30.75 M 55.47 36.51 C 53.44 37.35 53.46 39.89 53.12 41.72 C 54.80 41.54 56.48 41.35 58.15 41.17 C 56.58 48.02 52.09 53.88 50.97 60.85 C 52.56 60.96 54.21 61.46 55.79 61.04 C 58.65 56.22 60.33 50.79 62.66 45.70 C 64.11 41.51 66.76 37.63 66.99 33.10 C 62.92 33.24 59.20 35.07 55.47 36.51 Z" />
</g>
<g id="#ffc251ff">
<path fill="#ffc251" opacity="1.00" d=" M 18.51 32.48 C 24.50 24.38 32.56 17.64 41.90 13.77 C 40.18 16.97 37.62 19.55 35.30 22.30 C 28.48 31.25 22.74 41.57 21.82 53.00 C 21.47 61.80 25.94 70.90 33.66 75.35 C 36.63 76.99 39.72 78.42 42.54 80.33 C 33.61 83.33 23.38 81.59 15.91 75.87 C 12.63 71.82 10.01 67.04 9.44 61.78 C 8.20 51.30 12.02 40.64 18.51 32.48 Z" />
</g>
<g id="#f1ca92ff">
<path fill="#f1ca92" opacity="1.00" d=" M 86.38 28.92 C 88.38 30.73 87.65 33.64 87.68 36.01 C 86.73 48.64 80.01 60.22 70.97 68.85 C 71.77 64.40 75.20 61.17 77.41 57.40 C 83.11 49.01 85.32 38.86 86.38 28.92 Z" />
</g>
<g id="#e9a002ff">
<path fill="#e9a002" opacity="1.00" d=" M 32.79 30.75 C 34.52 30.76 36.25 30.87 37.96 31.07 C 38.44 34.37 38.37 37.71 38.37 41.03 C 42.08 38.90 43.81 34.63 47.37 32.35 C 48.68 32.39 52.02 31.59 51.61 33.78 C 48.78 37.31 45.27 40.23 42.18 43.53 C 43.39 43.81 44.47 44.31 45.42 45.04 C 45.06 46.12 44.59 47.14 43.99 48.12 C 41.98 48.06 39.97 48.07 37.96 48.13 C 38.07 50.59 40.92 50.19 42.64 50.66 C 42.63 51.97 42.66 53.54 41.35 54.30 C 39.70 54.79 37.97 54.41 36.29 54.31 C 35.37 55.79 34.52 57.32 33.72 58.86 C 32.19 58.82 30.66 58.79 29.14 58.77 C 29.33 57.00 29.53 55.22 29.72 53.45 C 28.15 53.26 26.59 53.07 25.02 52.87 C 25.40 51.66 25.78 50.45 26.16 49.25 C 28.46 49.20 30.76 49.13 33.05 48.91 C 32.24 46.86 29.85 46.89 28.04 46.49 C 28.09 45.23 28.49 44.05 28.97 42.91 C 30.35 42.85 31.73 42.80 33.10 42.73 C 33.61 38.73 32.42 34.76 32.79 30.75 Z" />
</g>
<g id="#e89f02ff">
<path fill="#e89f02" opacity="1.00" d=" M 55.47 36.51 C 59.20 35.07 62.92 33.24 66.99 33.10 C 66.76 37.63 64.11 41.51 62.66 45.70 C 60.33 50.79 58.65 56.22 55.79 61.04 C 54.21 61.46 52.56 60.96 50.97 60.85 C 52.09 53.88 56.58 48.02 58.15 41.17 C 56.48 41.35 54.80 41.54 53.12 41.72 C 53.46 39.89 53.44 37.35 55.47 36.51 Z" />
</g>
<g id="#c2933cff">
<path fill="#c2933c" opacity="1.00" d=" M 30.97 84.76 C 41.52 85.21 51.31 80.63 60.58 76.16 C 60.73 79.33 63.21 80.89 66.05 81.47 C 57.93 87.37 48.08 91.19 38.00 91.54 C 29.46 91.26 19.86 88.42 15.06 80.81 C 15.47 80.96 16.31 81.25 16.72 81.39 C 21.25 83.28 26.00 84.85 30.97 84.76 Z" />
</g>
</svg>
