<?xml version="1.0" encoding="UTF-8" ?>
<!DOCTYPE svg PUBLIC "-//W3C//DTD SVG 1.1//EN" "http://www.w3.org/Graphics/SVG/1.1/DTD/svg11.dtd">
<svg width="96pt" height="96pt" viewBox="0 0 96 96" version="1.1" xmlns="http://www.w3.org/2000/svg">
<g id="#e1ac49ff">
<path fill="#e1ac49" opacity="1.00" d=" M 45.34 6.71 C 51.48 5.42 57.75 4.68 64.02 5.34 C 73.63 6.58 81.57 13.19 86.95 20.93 C 91.73 28.69 92.68 38.49 90.31 47.21 C 86.97 61.32 77.52 73.30 66.02 81.82 C 64.72 81.45 63.40 81.14 62.15 80.61 C 61.18 79.38 60.76 77.83 60.16 76.41 C 50.90 81.44 40.69 85.47 29.95 84.86 C 24.49 85.07 19.80 81.99 14.81 80.31 C 15.51 79.27 16.21 78.24 16.91 77.20 C 24.69 82.23 34.54 83.17 43.32 80.49 C 60.34 75.54 74.20 61.72 80.12 45.13 C 82.81 37.05 83.34 27.60 79.07 19.95 C 75.92 14.11 69.44 10.70 62.99 10.06 C 58.88 9.68 54.73 9.78 50.63 10.13 C 49.03 9.09 47.43 8.06 45.83 7.03 L 45.34 6.71 M 86.53 29.77 C 84.89 36.63 84.06 43.75 81.15 50.24 C 78.48 56.84 73.50 62.09 70.23 68.35 C 71.66 67.46 73.17 66.64 74.35 65.41 C 81.04 58.13 85.60 48.89 87.21 39.13 C 87.62 36.02 88.36 32.58 86.53 29.77 Z" />
</g>
<g id="#e19f48fe">
<path fill="#e19f48" opacity="1.00" d=" M 45.83 7.03 C 47.43 8.06 49.03 9.09 50.63 10.13 C 48.37 10.94 46.16 11.89 43.99 12.89 C 33.34 16.88 24.36 24.49 17.60 33.53 C 12.15 40.83 8.76 49.83 9.13 59.02 C 9.15 65.82 12.15 72.41 16.91 77.20 C 16.21 78.24 15.51 79.27 14.81 80.31 C 14.38 80.15 13.52 79.83 13.08 79.67 C 8.83 76.66 7.38 71.13 5.51 66.49 C 3.66 62.60 4.25 58.17 4.43 54.01 C 6.51 46.98 8.58 39.79 12.64 33.58 C 20.27 21.38 31.99 11.37 45.83 7.03 Z" />
</g>
<g id="#ffd764ff">
<path fill="#ffd764" opacity="1.00" d=" M 50.63 10.13 C 54.73 9.78 58.88 9.68 62.99 10.06 C 69.44 10.70 75.92 14.11 79.07 19.95 C 83.34 27.60 82.81 37.05 80.12 45.13 C 74.20 61.72 60.34 75.54 43.32 80.49 C 37.00 77.67 30.10 74.84 26.07 68.88 C 21.80 63.02 20.88 55.34 22.31 48.36 C 25.20 34.48 33.65 22.34 43.99 12.89 C 46.16 11.89 48.37 10.94 50.63 10.13 M 33.06 30.75 C 33.21 34.32 33.41 37.89 33.68 41.45 C 32.18 41.68 30.69 41.93 29.20 42.17 C 29.12 42.87 28.96 44.26 28.88 44.96 C 30.20 45.14 31.53 45.33 32.86 45.51 C 32.75 46.01 32.52 46.99 32.40 47.48 C 30.68 47.45 28.95 47.42 27.22 47.40 C 26.87 48.45 26.51 49.50 26.16 50.55 C 27.64 51.01 29.12 51.45 30.59 51.91 C 30.39 53.34 30.20 54.78 30.01 56.22 C 32.95 56.95 34.81 54.71 36.45 52.69 C 38.75 52.31 41.03 51.67 42.81 50.09 C 41.40 49.27 39.94 48.53 38.59 47.62 C 38.70 45.45 42.55 46.73 44.10 45.85 C 43.81 44.39 43.14 43.04 42.67 41.63 C 44.88 38.30 48.24 35.91 50.67 32.73 C 49.04 32.58 47.10 31.16 45.74 32.69 C 43.11 34.93 40.94 37.66 38.48 40.07 C 38.28 37.05 38.07 34.03 37.83 31.02 C 36.24 30.92 34.65 30.83 33.06 30.75 M 50.87 38.57 C 53.74 38.17 56.62 37.81 59.51 37.62 C 59.15 39.38 59.33 41.55 57.78 42.80 C 54.19 46.01 49.25 47.34 45.92 50.90 C 44.23 52.57 43.47 54.88 42.52 56.99 C 47.55 57.93 52.65 58.43 57.75 58.75 C 58.17 57.24 58.58 55.72 58.98 54.21 C 56.24 53.76 53.50 53.29 50.77 52.72 C 56.15 48.67 64.35 46.38 65.65 38.79 C 66.68 33.57 60.08 31.75 56.16 33.15 C 53.20 33.42 52.10 36.32 50.87 38.57 Z" />
</g>
<g id="#ffc251ff">
<path fill="#ffc251" opacity="1.00" d=" M 17.60 33.53 C 24.36 24.49 33.34 16.88 43.99 12.89 C 33.65 22.34 25.20 34.48 22.31 48.36 C 20.88 55.34 21.80 63.02 26.07 68.88 C 30.10 74.84 37.00 77.67 43.32 80.49 C 34.54 83.17 24.69 82.23 16.91 77.20 C 12.15 72.41 9.15 65.82 9.13 59.02 C 8.76 49.83 12.15 40.83 17.60 33.53 Z" />
</g>
<g id="#eec588ff">
<path fill="#eec588" opacity="1.00" d=" M 86.53 29.77 C 88.36 32.58 87.62 36.02 87.21 39.13 C 85.60 48.89 81.04 58.13 74.35 65.41 C 73.17 66.64 71.66 67.46 70.23 68.35 C 73.50 62.09 78.48 56.84 81.15 50.24 C 84.06 43.75 84.89 36.63 86.53 29.77 Z" />
</g>
<g id="#e8a003ff">
<path fill="#e8a003" opacity="1.00" d=" M 33.06 30.75 C 34.65 30.83 36.24 30.92 37.83 31.02 C 38.07 34.03 38.28 37.05 38.48 40.07 C 40.94 37.66 43.11 34.93 45.74 32.69 C 47.10 31.16 49.04 32.58 50.67 32.73 C 48.24 35.91 44.88 38.30 42.67 41.63 C 43.14 43.04 43.81 44.39 44.10 45.85 C 42.55 46.73 38.70 45.45 38.59 47.62 C 39.94 48.53 41.40 49.27 42.81 50.09 C 41.03 51.67 38.75 52.31 36.45 52.69 C 34.81 54.71 32.95 56.95 30.01 56.22 C 30.20 54.78 30.39 53.34 30.59 51.91 C 29.12 51.45 27.64 51.01 26.16 50.55 C 26.51 49.50 26.87 48.45 27.22 47.40 C 28.95 47.42 30.68 47.45 32.40 47.48 C 32.52 46.99 32.75 46.01 32.86 45.51 C 31.53 45.33 30.20 45.14 28.88 44.96 C 28.96 44.26 29.12 42.87 29.20 42.17 C 30.69 41.93 32.18 41.68 33.68 41.45 C 33.41 37.89 33.21 34.32 33.06 30.75 Z" />
<path fill="#e8a003" opacity="1.00" d=" M 50.87 38.57 C 52.10 36.32 53.20 33.42 56.16 33.15 C 60.08 31.75 66.68 33.57 65.65 38.79 C 64.35 46.38 56.15 48.67 50.77 52.72 C 53.50 53.29 56.24 53.76 58.98 54.21 C 58.58 55.72 58.17 57.24 57.75 58.75 C 52.65 58.43 47.55 57.93 42.52 56.99 C 43.47 54.88 44.23 52.57 45.92 50.90 C 49.25 47.34 54.19 46.01 57.78 42.80 C 59.33 41.55 59.15 39.38 59.51 37.62 C 56.62 37.81 53.74 38.17 50.87 38.57 Z" />
</g>
<g id="#c2933cff">
<path fill="#c2933c" opacity="1.00" d=" M 29.95 84.86 C 40.69 85.47 50.90 81.44 60.16 76.41 C 60.76 77.83 61.18 79.38 62.15 80.61 C 63.40 81.14 64.72 81.45 66.02 81.82 C 59.64 85.87 52.70 89.70 45.10 90.64 C 40.67 90.81 36.24 90.84 31.81 90.69 C 24.24 90.47 17.49 85.57 13.08 79.67 C 13.52 79.83 14.38 80.15 14.81 80.31 C 19.80 81.99 24.49 85.07 29.95 84.86 Z" />
</g>
<g id="#6f542293">
<path fill="#6f5422" opacity="0.58" d=" M 31.81 90.69 C 36.24 90.84 40.67 90.81 45.10 90.64 C 44.86 91.92 44.13 92.63 42.91 92.77 C 39.19 93.29 35.41 92.94 31.67 92.87 C 31.70 92.33 31.78 91.23 31.81 90.69 Z" />
</g>
</svg>
