<?xml version="1.0" encoding="UTF-8" ?>
<!DOCTYPE svg PUBLIC "-//W3C//DTD SVG 1.1//EN" "http://www.w3.org/Graphics/SVG/1.1/DTD/svg11.dtd">
<svg width="96pt" height="96pt" viewBox="0 0 96 96" version="1.1" xmlns="http://www.w3.org/2000/svg">
<g id="#e1ac49ff">
<path fill="#e1ac49" opacity="1.00" d=" M 47.91 6.58 C 57.81 3.87 69.33 4.86 77.56 11.41 C 82.40 15.95 87.79 20.61 89.64 27.26 C 92.99 37.53 90.86 48.75 86.19 58.26 C 81.50 67.50 74.61 75.61 66.18 81.64 C 64.46 81.27 62.40 81.51 60.99 80.29 C 60.68 78.98 60.55 77.64 60.40 76.31 C 51.06 81.37 40.82 85.66 29.97 85.08 C 24.85 85.21 20.22 82.91 15.50 81.28 C 15.93 80.05 16.37 78.83 16.82 77.61 C 24.96 82.66 35.13 83.17 44.16 80.48 C 58.81 75.74 71.09 64.53 77.69 50.69 C 81.21 43.05 83.47 34.25 81.09 25.94 C 79.70 20.74 76.71 15.68 71.76 13.19 C 64.91 9.15 56.56 9.51 49.01 10.93 C 48.65 9.48 48.28 8.03 47.91 6.58 M 85.54 29.89 C 85.03 39.52 82.52 49.17 77.29 57.34 C 74.94 61.26 71.61 64.62 70.08 68.99 C 74.07 66.78 76.41 62.66 79.17 59.18 C 84.15 51.42 87.35 42.35 87.52 33.08 C 87.67 31.62 86.72 30.56 85.54 29.89 Z" />
</g>
<g id="#e19f48fe">
<path fill="#e19f48" opacity="1.00" d=" M 6.25 47.51 C 12.14 28.14 28.33 11.95 47.91 6.58 C 48.28 8.03 48.65 9.48 49.01 10.93 C 46.60 11.76 44.25 12.80 41.96 13.93 C 32.39 17.89 24.29 24.81 17.96 32.93 C 11.12 41.50 7.61 52.88 9.42 63.80 C 10.26 69.08 13.27 73.73 16.82 77.61 C 16.37 78.83 15.93 80.05 15.50 81.28 C 15.12 81.15 14.37 80.89 13.99 80.76 C 9.24 77.96 7.51 72.27 5.47 67.46 C 3.49 63.58 4.07 59.08 4.15 54.88 C 4.13 52.25 5.41 49.93 6.25 47.51 Z" />
</g>
<g id="#ffd764ff">
<path fill="#ffd764" opacity="1.00" d=" M 49.01 10.93 C 56.56 9.51 64.91 9.15 71.76 13.19 C 76.71 15.68 79.70 20.74 81.09 25.94 C 83.47 34.25 81.21 43.05 77.69 50.69 C 71.09 64.53 58.81 75.74 44.16 80.48 C 36.70 78.47 29.07 74.77 25.19 67.73 C 19.86 59.64 21.30 49.20 24.49 40.58 C 27.43 33.35 31.46 26.50 36.74 20.73 C 38.64 18.58 40.27 16.23 41.96 13.93 C 44.25 12.80 46.60 11.76 49.01 10.93 M 33.21 33.16 C 33.33 36.91 33.59 40.66 33.77 44.41 C 32.40 44.49 31.04 44.64 29.67 44.73 C 29.38 45.70 29.10 46.66 28.81 47.63 C 30.34 48.37 32.36 48.71 33.06 50.48 C 30.37 50.56 26.41 49.73 26.14 53.51 C 27.43 54.06 28.71 54.62 29.99 55.17 C 30.04 56.47 30.08 57.78 30.12 59.08 C 31.27 59.34 32.42 59.62 33.58 59.83 C 34.61 58.48 35.66 57.13 36.70 55.78 C 38.30 55.62 39.90 55.46 41.50 55.30 C 41.92 54.35 42.34 53.39 42.76 52.43 C 41.38 51.86 40.00 51.28 38.62 50.69 C 39.84 48.68 42.63 49.74 44.57 49.38 C 44.89 47.59 44.05 46.04 43.09 44.60 C 45.52 41.21 49.36 39.00 51.16 35.16 C 49.57 35.18 47.88 34.66 46.36 35.28 C 43.80 37.50 41.85 40.37 39.03 42.32 C 38.79 39.55 38.55 36.77 37.94 34.05 C 36.36 33.77 34.79 33.46 33.21 33.16 M 55.06 35.46 C 52.33 39.91 50.04 44.63 48.10 49.48 C 50.61 50.00 53.94 49.17 55.75 51.38 C 56.17 54.14 53.75 56.99 50.95 56.90 C 48.92 56.72 46.98 56.03 45.05 55.42 C 44.57 56.60 44.07 57.77 43.69 58.99 C 44.54 61.53 47.66 61.75 49.92 61.70 C 56.58 61.79 62.83 55.15 61.55 48.44 C 60.07 46.35 57.45 45.47 55.40 44.03 C 56.43 39.39 61.54 41.46 64.84 41.66 C 65.92 40.19 66.78 38.54 66.64 36.66 C 62.77 36.29 58.92 35.84 55.06 35.46 Z" />
</g>
<g id="#ffc251ff">
<path fill="#ffc251" opacity="1.00" d=" M 17.96 32.93 C 24.29 24.81 32.39 17.89 41.96 13.93 C 40.27 16.23 38.64 18.58 36.74 20.73 C 31.46 26.50 27.43 33.35 24.49 40.58 C 21.30 49.20 19.86 59.64 25.19 67.73 C 29.07 74.77 36.70 78.47 44.16 80.48 C 35.13 83.17 24.96 82.66 16.82 77.61 C 13.27 73.73 10.26 69.08 9.42 63.80 C 7.61 52.88 11.12 41.50 17.96 32.93 Z" />
</g>
<g id="#f1c78cff">
<path fill="#f1c78c" opacity="1.00" d=" M 85.54 29.89 C 86.72 30.56 87.67 31.62 87.52 33.08 C 87.35 42.35 84.15 51.42 79.17 59.18 C 76.41 62.66 74.07 66.78 70.08 68.99 C 71.61 64.62 74.94 61.26 77.29 57.34 C 82.52 49.17 85.03 39.52 85.54 29.89 Z" />
</g>
<g id="#e8a003ff">
<path fill="#e8a003" opacity="1.00" d=" M 33.21 33.16 C 34.79 33.46 36.36 33.77 37.94 34.05 C 38.55 36.77 38.79 39.55 39.03 42.32 C 41.85 40.37 43.80 37.50 46.36 35.28 C 47.88 34.66 49.57 35.18 51.16 35.16 C 49.36 39.00 45.52 41.21 43.09 44.60 C 44.05 46.04 44.89 47.59 44.57 49.38 C 42.63 49.74 39.84 48.68 38.62 50.69 C 40.00 51.28 41.38 51.86 42.76 52.43 C 42.34 53.39 41.92 54.35 41.50 55.30 C 39.90 55.46 38.30 55.62 36.70 55.78 C 35.66 57.13 34.61 58.48 33.58 59.83 C 32.42 59.62 31.27 59.34 30.12 59.08 C 30.08 57.78 30.04 56.47 29.99 55.17 C 28.71 54.62 27.43 54.06 26.14 53.51 C 26.41 49.73 30.37 50.56 33.06 50.48 C 32.36 48.71 30.34 48.37 28.81 47.63 C 29.10 46.66 29.38 45.70 29.67 44.73 C 31.04 44.64 32.40 44.49 33.77 44.41 C 33.59 40.66 33.33 36.91 33.21 33.16 Z" />
</g>
<g id="#e89f02ff">
<path fill="#e89f02" opacity="1.00" d=" M 55.06 35.46 C 58.92 35.84 62.77 36.29 66.64 36.66 C 66.78 38.54 65.92 40.19 64.84 41.66 C 61.54 41.46 56.43 39.39 55.40 44.03 C 57.45 45.47 60.07 46.35 61.55 48.44 C 62.83 55.15 56.58 61.79 49.92 61.70 C 47.66 61.75 44.54 61.53 43.69 58.99 C 44.07 57.77 44.57 56.60 45.05 55.42 C 46.98 56.03 48.92 56.72 50.95 56.90 C 53.75 56.99 56.17 54.14 55.75 51.38 C 53.94 49.17 50.61 50.00 48.10 49.48 C 50.04 44.63 52.33 39.91 55.06 35.46 Z" />
</g>
<g id="#c1923cff">
<path fill="#c1923c" opacity="1.00" d=" M 29.97 85.08 C 40.82 85.66 51.06 81.37 60.40 76.31 C 60.55 77.64 60.68 78.98 60.99 80.29 C 62.40 81.51 64.46 81.27 66.18 81.64 C 63.10 83.77 59.94 85.83 56.49 87.34 C 52.04 89.49 47.07 90.24 42.65 92.46 C 38.09 93.21 33.09 93.34 28.95 90.97 C 23.09 89.14 17.41 86.06 13.99 80.76 C 14.37 80.89 15.12 81.15 15.50 81.28 C 20.22 82.91 24.85 85.21 29.97 85.08 Z" />
</g>
</svg>
