<?xml version="1.0" encoding="UTF-8" ?>
<!DOCTYPE svg PUBLIC "-//W3C//DTD SVG 1.1//EN" "http://www.w3.org/Graphics/SVG/1.1/DTD/svg11.dtd">
<svg width="96pt" height="96pt" viewBox="0 0 96 96" version="1.1" xmlns="http://www.w3.org/2000/svg">
<g id="#e19f48ff">
<path fill="#e19f48" opacity="1.00" d=" M 4.21 53.89 C 8.57 29.25 29.46 7.82 54.41 4.24 C 52.84 6.06 51.41 7.99 49.84 9.80 C 47.26 10.84 44.65 11.81 42.12 12.98 C 32.22 16.89 23.99 24.14 17.58 32.53 C 11.10 41.11 7.50 52.15 9.24 62.91 C 9.88 68.43 13.30 73.09 16.98 77.04 C 21.44 82.50 28.99 82.54 35.29 84.19 C 28.29 85.44 21.42 83.27 14.84 81.12 C 10.04 77.91 7.49 72.46 5.55 67.21 C 3.60 63.06 3.99 58.34 4.21 53.89 Z" />
</g>
<g id="#e2ad4aff">
<path fill="#e2ad4a" opacity="1.00" d=" M 54.41 4.24 C 62.58 3.01 70.93 5.63 77.44 10.57 C 81.67 14.67 86.47 18.63 88.67 24.28 C 91.45 30.11 90.63 36.74 90.56 42.99 C 89.36 52.25 84.81 60.77 79.24 68.15 C 77.78 70.04 76.31 72.01 74.31 73.37 C 71.37 72.48 68.23 70.75 65.13 72.00 C 60.96 73.51 57.47 76.30 53.83 78.74 C 47.90 81.28 41.75 83.52 35.29 84.19 C 28.99 82.54 21.44 82.50 16.98 77.04 C 25.28 81.41 35.14 82.34 44.11 79.56 C 56.95 75.52 67.63 66.02 74.85 54.83 C 80.32 45.37 84.20 33.56 80.20 22.83 C 78.52 17.72 74.67 13.41 69.70 11.31 C 63.51 8.42 56.43 8.82 49.84 9.80 C 51.41 7.99 52.84 6.06 54.41 4.24 M 85.47 29.22 C 84.71 36.95 83.25 44.70 79.72 51.69 C 77.19 57.54 72.54 62.13 69.94 67.94 C 73.79 65.48 76.65 61.86 79.15 58.10 C 84.46 49.63 88.15 39.49 86.85 29.37 C 86.50 29.34 85.81 29.26 85.47 29.22 Z" />
</g>
<g id="#ffd764ff">
<path fill="#ffd764" opacity="1.00" d=" M 49.84 9.80 C 56.43 8.82 63.51 8.42 69.70 11.31 C 74.67 13.41 78.52 17.72 80.20 22.83 C 84.20 33.56 80.32 45.37 74.85 54.83 C 67.63 66.02 56.95 75.52 44.11 79.56 C 35.42 77.46 26.79 72.05 23.53 63.36 C 20.35 56.02 21.89 47.70 24.31 40.38 C 27.90 29.90 35.40 21.54 42.12 12.98 C 44.65 11.81 47.26 10.84 49.84 9.80 M 29.10 37.62 C 30.69 37.64 32.27 37.53 33.86 37.56 C 32.17 43.50 28.74 48.80 27.23 54.81 C 28.69 54.90 30.16 54.91 31.62 54.74 C 33.93 51.37 35.03 47.36 36.66 43.65 C 38.21 39.72 40.31 36.01 41.62 31.98 C 40.84 30.84 39.52 30.53 38.29 31.14 C 34.72 32.30 29.79 33.20 29.10 37.62 M 51.34 33.31 C 44.89 37.05 41.39 44.82 40.66 52.01 C 40.38 57.61 47.99 57.99 51.34 55.32 C 56.74 50.90 60.14 43.93 60.38 36.99 C 60.50 32.31 54.59 31.73 51.34 33.31 Z" />
</g>
<g id="#ffc252ff">
<path fill="#ffc252" opacity="1.00" d=" M 17.58 32.53 C 23.99 24.14 32.22 16.89 42.12 12.98 C 35.40 21.54 27.90 29.90 24.31 40.38 C 21.89 47.70 20.35 56.02 23.53 63.36 C 26.79 72.05 35.42 77.46 44.11 79.56 C 35.14 82.34 25.28 81.41 16.98 77.04 C 13.30 73.09 9.88 68.43 9.24 62.91 C 7.50 52.15 11.10 41.11 17.58 32.53 Z" />
</g>
<g id="#eec58aff">
<path fill="#eec58a" opacity="1.00" d=" M 85.47 29.22 C 85.81 29.26 86.50 29.34 86.85 29.37 C 88.15 39.49 84.46 49.63 79.15 58.10 C 76.65 61.86 73.79 65.48 69.94 67.94 C 72.54 62.13 77.19 57.54 79.72 51.69 C 83.25 44.70 84.71 36.95 85.47 29.22 Z" />
</g>
<g id="#e89f02ff">
<path fill="#e89f02" opacity="1.00" d=" M 29.10 37.62 C 29.79 33.20 34.72 32.30 38.29 31.14 C 39.52 30.53 40.84 30.84 41.62 31.98 C 40.31 36.01 38.21 39.72 36.66 43.65 C 35.03 47.36 33.93 51.37 31.62 54.74 C 30.16 54.91 28.69 54.90 27.23 54.81 C 28.74 48.80 32.17 43.50 33.86 37.56 C 32.27 37.53 30.69 37.64 29.10 37.62 Z" />
<path fill="#e89f02" opacity="1.00" d=" M 51.34 33.31 C 54.59 31.73 60.50 32.31 60.38 36.99 C 60.14 43.93 56.74 50.90 51.34 55.32 C 47.99 57.99 40.38 57.61 40.66 52.01 C 41.39 44.82 44.89 37.05 51.34 33.31 M 48.54 42.59 C 47.11 45.78 44.81 49.74 47.07 53.07 C 52.50 50.02 55.08 42.99 55.02 37.02 C 51.50 36.26 49.98 40.16 48.54 42.59 Z" />
</g>
<g id="#fed968ff">
<path fill="#fed968" opacity="1.00" d=" M 48.54 42.59 C 49.98 40.16 51.50 36.26 55.02 37.02 C 55.08 42.99 52.50 50.02 47.07 53.07 C 44.81 49.74 47.11 45.78 48.54 42.59 Z" />
</g>
<g id="#d19f41ff">
<path fill="#d19f41" opacity="1.00" d=" M 65.13 72.00 C 68.23 70.75 71.37 72.48 74.31 73.37 C 71.65 76.84 68.01 79.54 64.37 81.92 C 60.77 81.19 57.20 80.22 53.83 78.74 C 57.47 76.30 60.96 73.51 65.13 72.00 Z" />
</g>
<g id="#c2923cff">
<path fill="#c2923c" opacity="1.00" d=" M 35.29 84.19 C 41.75 83.52 47.90 81.28 53.83 78.74 C 57.20 80.22 60.77 81.19 64.37 81.92 C 54.07 89.03 41.09 92.55 28.70 89.91 C 23.32 88.55 18.11 85.72 14.84 81.12 C 21.42 83.27 28.29 85.44 35.29 84.19 Z" />
</g>
</svg>
