<?xml version="1.0" encoding="UTF-8" ?>
<!DOCTYPE svg PUBLIC "-//W3C//DTD SVG 1.1//EN" "http://www.w3.org/Graphics/SVG/1.1/DTD/svg11.dtd">
<svg width="96pt" height="96pt" viewBox="0 0 96 96" version="1.1" xmlns="http://www.w3.org/2000/svg">
<g id="#e1ac49ff">
<path fill="#e1ac49" opacity="1.00" d=" M 44.37 7.52 C 52.78 3.59 62.95 2.72 71.47 6.80 C 77.40 8.88 81.81 13.54 85.86 18.13 C 88.60 21.33 90.03 25.34 91.64 29.17 C 93.35 32.54 92.94 36.46 92.92 40.11 C 93.08 43.74 90.95 46.81 90.00 50.18 C 86.01 63.21 76.74 74.04 65.85 81.95 C 63.28 80.54 61.32 78.45 61.21 75.40 C 53.48 80.19 44.79 83.55 35.72 84.53 C 29.29 85.20 22.94 83.53 16.74 82.05 C 15.58 81.27 14.56 80.31 13.45 79.48 C 14.43 78.24 15.41 77.00 16.39 75.76 C 24.84 82.16 36.24 82.94 46.06 79.50 C 61.83 74.07 74.81 61.12 80.46 45.43 C 83.42 37.32 84.16 27.84 79.95 20.02 C 77.40 14.91 72.28 11.56 66.86 10.12 C 61.48 8.59 55.84 9.30 50.38 9.93 C 48.35 9.18 46.38 8.30 44.37 7.52 M 86.47 29.25 C 85.80 37.00 84.44 44.83 80.85 51.81 C 78.19 57.62 73.79 62.38 71.03 68.12 C 72.56 67.00 74.14 65.91 75.46 64.53 C 83.81 54.91 89.29 42.18 87.74 29.25 C 87.42 29.25 86.79 29.25 86.47 29.25 Z" />
</g>
<g id="#e19f48ff">
<path fill="#e19f48" opacity="1.00" d=" M 31.78 13.81 C 35.73 11.32 39.77 8.55 44.37 7.52 C 46.38 8.30 48.35 9.18 50.38 9.93 C 48.17 10.80 46.00 11.77 43.88 12.82 C 33.33 17.03 24.41 24.63 17.80 33.79 C 12.76 40.81 9.74 49.34 9.66 58.00 C 9.67 64.49 12.24 70.82 16.39 75.76 C 15.41 77.00 14.43 78.24 13.45 79.48 C 7.51 72.90 4.66 63.75 5.50 54.96 C 7.57 38.21 17.98 23.20 31.78 13.81 Z" />
</g>
<g id="#ffd764ff">
<path fill="#ffd764" opacity="1.00" d=" M 50.38 9.93 C 55.84 9.30 61.48 8.59 66.86 10.12 C 72.28 11.56 77.40 14.91 79.95 20.02 C 84.16 27.84 83.42 37.32 80.46 45.43 C 74.81 61.12 61.83 74.07 46.06 79.50 C 39.12 78.75 32.81 74.93 28.19 69.81 C 22.60 63.05 21.66 53.45 24.05 45.21 C 27.17 32.65 35.42 22.28 43.88 12.82 C 46.00 11.77 48.17 10.80 50.38 9.93 M 38.57 32.61 C 35.88 32.89 35.03 35.72 33.83 37.69 C 36.57 37.26 39.33 36.68 42.13 36.89 C 43.45 41.36 38.47 43.59 35.38 45.42 C 30.97 47.56 26.99 50.92 25.79 55.88 C 30.44 56.49 35.14 57.50 39.85 57.09 C 41.06 56.09 41.48 54.49 42.24 53.17 C 39.40 52.66 36.54 52.18 33.71 51.59 C 38.04 48.34 43.76 46.62 46.76 41.86 C 48.16 39.53 49.34 36.06 47.17 33.82 C 44.87 31.74 41.39 32.14 38.57 32.61 M 57.42 34.52 C 52.69 36.10 50.01 40.78 47.97 45.01 C 46.57 48.39 45.00 52.14 45.92 55.84 C 46.90 59.06 50.87 59.42 53.63 58.62 C 58.18 57.30 60.97 53.01 62.96 48.98 C 64.69 45.17 66.43 40.87 65.37 36.64 C 64.05 33.65 60.07 33.92 57.42 34.52 Z" />
</g>
<g id="#ffc252ff">
<path fill="#ffc252" opacity="1.00" d=" M 17.80 33.79 C 24.41 24.63 33.33 17.03 43.88 12.82 C 35.42 22.28 27.17 32.65 24.05 45.21 C 21.66 53.45 22.60 63.05 28.19 69.81 C 32.81 74.93 39.12 78.75 46.06 79.50 C 36.24 82.94 24.84 82.16 16.39 75.76 C 12.24 70.82 9.67 64.49 9.66 58.00 C 9.74 49.34 12.76 40.81 17.80 33.79 Z" />
</g>
<g id="#f2cb91ff">
<path fill="#f2cb91" opacity="1.00" d=" M 86.47 29.25 C 86.79 29.25 87.42 29.25 87.74 29.25 C 89.29 42.18 83.81 54.91 75.46 64.53 C 74.14 65.91 72.56 67.00 71.03 68.12 C 73.79 62.38 78.19 57.62 80.85 51.81 C 84.44 44.83 85.80 37.00 86.47 29.25 Z" />
</g>
<g id="#e89f02ff">
<path fill="#e89f02" opacity="1.00" d=" M 38.57 32.61 C 41.39 32.14 44.87 31.74 47.17 33.82 C 49.34 36.06 48.16 39.53 46.76 41.86 C 43.76 46.62 38.04 48.34 33.71 51.59 C 36.54 52.18 39.40 52.66 42.24 53.17 C 41.48 54.49 41.06 56.09 39.85 57.09 C 35.14 57.50 30.44 56.49 25.79 55.88 C 26.99 50.92 30.97 47.56 35.38 45.42 C 38.47 43.59 43.45 41.36 42.13 36.89 C 39.33 36.68 36.57 37.26 33.83 37.69 C 35.03 35.72 35.88 32.89 38.57 32.61 Z" />
<path fill="#e89f02" opacity="1.00" d=" M 57.42 34.52 C 60.07 33.92 64.05 33.65 65.37 36.64 C 66.43 40.87 64.69 45.17 62.96 48.98 C 60.97 53.01 58.18 57.30 53.63 58.62 C 50.87 59.42 46.90 59.06 45.92 55.84 C 45.00 52.14 46.57 48.39 47.97 45.01 C 50.01 40.78 52.69 36.10 57.42 34.52 M 55.77 40.83 C 53.07 44.69 51.04 49.25 51.07 54.04 C 52.53 54.73 53.99 54.18 54.96 52.97 C 58.47 48.94 60.12 43.59 60.39 38.31 C 58.80 39.00 56.78 39.24 55.77 40.83 Z" />
</g>
<g id="#fed968ff">
<path fill="#fed968" opacity="1.00" d=" M 55.77 40.83 C 56.78 39.24 58.80 39.00 60.39 38.31 C 60.12 43.59 58.47 48.94 54.96 52.97 C 53.99 54.18 52.53 54.73 51.07 54.04 C 51.04 49.25 53.07 44.69 55.77 40.83 Z" />
</g>
<g id="#c2933cff">
<path fill="#c2933c" opacity="1.00" d=" M 35.72 84.53 C 44.79 83.55 53.48 80.19 61.21 75.40 C 61.32 78.45 63.28 80.54 65.85 81.95 C 59.48 86.06 52.44 89.36 44.91 90.52 C 38.70 90.64 32.16 91.45 26.27 89.01 C 22.56 87.59 18.95 85.46 16.74 82.05 C 22.94 83.53 29.29 85.20 35.72 84.53 Z" />
</g>
</svg>
