<?xml version="1.0" encoding="UTF-8" ?>
<!DOCTYPE svg PUBLIC "-//W3C//DTD SVG 1.1//EN" "http://www.w3.org/Graphics/SVG/1.1/DTD/svg11.dtd">
<svg width="96pt" height="96pt" viewBox="0 0 96 96" version="1.1" xmlns="http://www.w3.org/2000/svg">
<g id="#db4100ff">
<path fill="#db4100" opacity="1.00" d=" M 64.93 9.74 C 67.29 9.58 69.65 9.58 72.00 9.77 C 73.35 10.38 74.78 10.55 76.24 10.68 C 76.40 10.87 76.72 11.26 76.89 11.46 C 85.74 14.41 92.08 23.61 91.62 32.95 C 92.01 40.54 87.65 47.31 82.95 52.89 C 73.10 63.09 62.91 72.96 52.90 83.01 C 51.11 84.56 49.61 87.35 46.82 86.60 C 36.86 76.07 26.02 66.41 16.00 55.92 C 9.65 50.00 4.11 42.06 4.42 33.02 C 3.94 21.84 12.95 11.48 23.97 10.01 C 26.02 9.45 28.17 9.58 30.27 9.68 C 31.85 10.25 33.50 10.58 35.15 10.83 C 40.46 12.80 44.86 16.43 48.06 21.07 C 51.96 15.22 58.03 11.13 64.93 9.74 M 65.64 16.66 C 65.41 18.25 65.39 19.85 65.58 21.45 C 72.39 21.14 79.45 24.94 81.27 31.84 C 81.44 33.24 81.45 34.69 81.92 36.04 C 83.30 37.09 85.01 36.71 86.57 36.40 C 88.63 24.89 76.86 14.29 65.64 16.66 Z" />
</g>
<g id="#ffffffff">
<path fill="#ffffff" opacity="1.00" d=" M 65.64 16.66 C 76.86 14.29 88.63 24.89 86.57 36.40 C 85.01 36.71 83.30 37.09 81.92 36.04 C 81.45 34.69 81.44 33.24 81.27 31.84 C 79.45 24.94 72.39 21.14 65.58 21.45 C 65.39 19.85 65.41 18.25 65.64 16.66 Z" />
</g>
</svg>
