<?xml version="1.0" encoding="UTF-8" ?>
<!DOCTYPE svg PUBLIC "-//W3C//DTD SVG 1.1//EN" "http://www.w3.org/Graphics/SVG/1.1/DTD/svg11.dtd">
<svg width="96pt" height="96pt" viewBox="0 0 96 96" version="1.1" xmlns="http://www.w3.org/2000/svg">
<g id="#eea850ff">
<path fill="#eea850" opacity="1.00" d=" M 42.15 6.72 C 43.54 6.42 45.26 6.81 46.28 5.54 C 47.62 6.72 49.46 6.29 51.09 6.42 C 64.36 7.17 77.06 14.59 84.24 25.78 C 90.38 34.88 92.25 46.44 90.19 57.14 C 87.77 69.48 79.35 80.39 68.21 86.15 C 59.70 90.76 49.62 91.88 40.14 90.34 C 28.32 88.26 17.53 80.91 11.30 70.64 C 5.48 61.32 3.65 49.66 6.21 38.98 C 10.02 22.18 25.06 8.74 42.15 6.72 M 37.98 9.88 C 32.13 11.19 27.18 14.62 22.04 17.48 C 22.71 18.01 23.39 18.53 24.09 19.02 C 23.56 18.90 22.49 18.65 21.96 18.53 L 21.06 18.98 C 20.97 19.47 20.79 20.45 20.70 20.95 C 20.43 20.52 19.89 19.65 19.62 19.22 C 17.17 22.59 14.43 25.76 12.36 29.39 C 5.99 40.57 5.68 54.96 11.54 66.40 C 19.84 83.98 41.69 92.96 60.10 87.12 C 70.90 83.57 80.75 75.75 85.11 65.09 C 92.36 50.10 88.36 31.07 76.32 19.77 C 76.00 20.30 75.38 21.37 75.06 21.90 C 75.00 21.18 74.88 19.72 74.82 19.00 C 74.68 18.72 74.38 18.15 74.24 17.87 C 64.23 9.87 50.44 6.36 37.98 9.88 Z" />
</g>
<g id="#fded78ff">
<path fill="#fded78" opacity="1.00" d=" M 37.98 9.88 C 50.44 6.36 64.23 9.87 74.24 17.87 C 74.38 18.15 74.68 18.72 74.82 19.00 C 72.08 19.24 68.96 20.72 66.61 18.52 C 65.28 17.91 63.66 15.39 62.24 17.18 C 62.04 17.62 61.64 18.51 61.44 18.96 C 64.95 22.45 70.46 25.11 75.06 21.90 C 75.38 21.37 76.00 20.30 76.32 19.77 C 88.36 31.07 92.36 50.10 85.11 65.09 C 84.40 64.52 83.71 63.93 83.04 63.31 C 78.30 63.96 73.80 65.82 69.01 66.19 C 65.07 66.12 61.28 64.90 57.41 64.26 C 57.32 67.29 57.60 70.46 56.28 73.28 C 55.84 70.09 55.70 66.86 55.10 63.69 C 54.42 58.57 47.98 58.91 44.37 60.36 C 41.00 63.85 42.95 69.40 42.68 73.76 C 42.30 73.65 41.55 73.43 41.17 73.32 C 41.10 72.77 40.96 71.67 40.89 71.12 C 40.89 68.20 40.81 65.24 41.31 62.34 C 41.99 59.70 44.80 58.69 46.82 57.26 C 43.24 54.87 40.00 51.92 37.78 48.21 L 38.06 47.08 L 36.34 47.35 L 37.47 45.92 L 36.27 45.83 C 35.73 43.48 33.03 42.67 31.20 41.52 C 34.67 41.63 37.58 39.09 39.14 36.19 C 40.05 33.19 37.81 30.36 35.30 29.01 C 31.98 27.55 28.21 27.16 24.66 27.95 C 24.54 26.77 24.53 25.59 24.51 24.41 C 25.66 23.98 26.82 23.56 27.97 23.12 C 30.49 22.17 32.90 20.87 34.84 18.97 C 34.40 18.32 33.51 17.03 33.07 16.38 C 30.39 18.02 27.41 20.71 24.09 19.02 C 23.39 18.53 22.71 18.01 22.04 17.48 C 27.18 14.62 32.13 11.19 37.98 9.88 M 62.05 29.55 C 59.67 29.41 58.55 31.78 57.67 33.56 C 57.17 35.88 58.81 38.02 60.61 39.28 C 66.02 42.70 74.57 42.13 78.20 36.39 C 79.91 30.50 72.67 27.64 67.99 27.78 C 65.99 27.24 63.92 29.72 62.25 27.88 C 62.20 28.30 62.10 29.13 62.05 29.55 M 64.76 53.01 C 63.87 57.71 69.20 60.44 73.14 60.74 C 78.65 61.76 83.43 53.74 79.05 49.82 C 75.65 46.49 68.90 50.56 70.70 55.09 C 71.32 57.51 73.97 57.98 76.00 58.63 C 72.66 59.08 68.35 58.42 66.80 55.03 C 65.92 51.58 69.48 49.23 72.34 48.42 C 75.82 47.72 81.33 47.42 82.12 51.98 C 83.20 55.26 80.22 57.52 79.62 60.37 C 81.71 61.15 82.56 58.49 83.31 57.11 C 85.27 53.27 83.78 47.79 79.36 46.53 C 73.96 45.00 66.48 47.13 64.76 53.01 Z" />
</g>
<g id="#9f3205ff">
<path fill="#9f3205" opacity="1.00" d=" M 24.09 19.02 C 27.41 20.71 30.39 18.02 33.07 16.38 C 33.51 17.03 34.40 18.32 34.84 18.97 C 32.90 20.87 30.49 22.17 27.97 23.12 C 25.44 23.13 22.60 22.78 20.70 20.95 C 20.79 20.45 20.97 19.47 21.06 18.98 L 21.96 18.53 C 22.49 18.65 23.56 18.90 24.09 19.02 Z" />
</g>
<g id="#a2380aff">
<path fill="#a2380a" opacity="1.00" d=" M 62.24 17.18 C 63.66 15.39 65.28 17.91 66.61 18.52 C 68.96 20.72 72.08 19.24 74.82 19.00 C 74.88 19.72 75.00 21.18 75.06 21.90 C 70.46 25.11 64.95 22.45 61.44 18.96 C 61.64 18.51 62.04 17.62 62.24 17.18 Z" />
</g>
<g id="#ffca73ff">
<path fill="#ffca73" opacity="1.00" d=" M 12.36 29.39 C 14.43 25.76 17.17 22.59 19.62 19.22 C 19.89 19.65 20.43 20.52 20.70 20.95 C 22.60 22.78 25.44 23.13 27.97 23.12 C 26.82 23.56 25.66 23.98 24.51 24.41 C 24.53 25.59 24.54 26.77 24.66 27.95 C 22.40 28.63 19.89 29.37 18.52 31.45 C 17.20 33.11 17.78 35.36 17.72 37.31 C 18.63 37.89 19.61 38.46 20.16 39.43 C 20.07 40.75 20.17 42.07 20.34 43.38 C 20.20 43.99 20.04 44.66 19.85 45.38 L 19.63 46.31 L 18.56 45.18 L 18.65 46.89 L 17.45 46.08 C 15.86 48.23 13.04 49.86 13.24 52.91 C 13.52 57.27 18.38 59.42 22.23 59.53 C 26.91 59.85 30.46 54.47 28.88 50.20 C 27.97 48.76 26.31 48.06 25.03 47.01 C 27.12 46.88 29.45 47.42 30.34 49.56 C 32.15 52.85 29.67 56.13 28.00 58.86 C 28.54 59.02 29.63 59.36 30.17 59.53 C 29.56 59.94 27.76 60.26 28.65 61.28 C 30.01 61.87 31.67 61.96 32.69 63.17 C 35.34 65.92 38.82 67.85 40.89 71.12 C 40.96 71.67 41.10 72.77 41.17 73.32 C 41.55 73.43 42.30 73.65 42.68 73.76 C 43.18 73.80 44.18 73.86 44.67 73.90 C 45.05 73.67 45.81 73.22 46.18 73.00 C 46.39 69.74 46.36 66.47 46.38 63.20 C 48.05 63.29 49.71 63.46 51.38 63.66 C 51.56 66.69 51.41 69.88 52.96 72.62 C 53.02 73.02 53.14 73.81 53.20 74.20 C 53.62 74.15 54.45 74.04 54.86 73.99 C 55.30 70.58 55.21 67.12 55.10 63.69 C 55.70 66.86 55.84 70.09 56.28 73.28 C 57.60 70.46 57.32 67.29 57.41 64.26 C 61.28 64.90 65.07 66.12 69.01 66.19 C 73.80 65.82 78.30 63.96 83.04 63.31 C 83.71 63.93 84.40 64.52 85.11 65.09 C 80.75 75.75 70.90 83.57 60.10 87.12 C 41.69 92.96 19.84 83.98 11.54 66.40 C 5.68 54.96 5.99 40.57 12.36 29.39 Z" />
</g>
<g id="#1c1c1eff">
<path fill="#1c1c1e" opacity="1.00" d=" M 18.52 31.45 C 19.89 29.37 22.40 28.63 24.66 27.95 C 28.21 27.16 31.98 27.55 35.30 29.01 C 37.81 30.36 40.05 33.19 39.14 36.19 C 37.58 39.09 34.67 41.63 31.20 41.52 C 27.46 41.37 23.20 42.22 20.16 39.43 C 19.61 38.46 18.63 37.89 17.72 37.31 C 17.78 35.36 17.20 33.11 18.52 31.45 M 21.35 29.29 C 19.13 31.24 17.48 33.61 18.32 36.75 C 18.83 36.97 19.86 37.43 20.37 37.66 C 20.87 38.84 21.47 40.20 22.91 40.42 C 26.65 41.40 30.52 41.25 34.27 40.42 C 35.90 39.22 37.32 37.78 38.67 36.28 C 38.66 35.41 38.64 33.68 38.63 32.82 C 37.39 31.42 36.08 30.09 34.76 28.79 C 32.68 34.35 24.24 33.42 21.35 29.29 Z" />
</g>
<g id="#16171bff">
<path fill="#16171b" opacity="1.00" d=" M 62.05 29.55 C 62.10 29.13 62.20 28.30 62.25 27.88 C 63.92 29.72 65.99 27.24 67.99 27.78 C 72.67 27.64 79.91 30.50 78.20 36.39 C 74.57 42.13 66.02 42.70 60.61 39.28 C 58.81 38.02 57.17 35.88 57.67 33.56 C 58.55 31.78 59.67 29.41 62.05 29.55 M 60.51 30.07 C 59.00 31.86 57.76 33.65 58.29 36.14 C 62.67 42.24 72.90 42.29 77.61 36.55 C 77.82 35.20 77.85 33.83 77.65 32.47 C 76.78 31.59 75.93 30.69 75.10 29.77 C 73.39 32.43 69.93 32.71 67.08 32.45 C 65.84 32.03 62.58 32.30 63.29 30.18 C 62.36 30.14 61.44 30.10 60.51 30.07 Z" />
</g>
<g id="#ffffffff">
<path fill="#ffffff" opacity="1.00" d=" M 21.35 29.29 C 24.24 33.42 32.68 34.35 34.76 28.79 C 36.08 30.09 37.39 31.42 38.63 32.82 C 38.64 33.68 38.66 35.41 38.67 36.28 C 37.32 37.78 35.90 39.22 34.27 40.42 C 30.52 41.25 26.65 41.40 22.91 40.42 C 21.47 40.20 20.87 38.84 20.37 37.66 C 19.86 37.43 18.83 36.97 18.32 36.75 C 17.48 33.61 19.13 31.24 21.35 29.29 Z" />
<path fill="#ffffff" opacity="1.00" d=" M 60.51 30.07 C 61.44 30.10 62.36 30.14 63.29 30.18 C 62.58 32.30 65.84 32.03 67.08 32.45 C 69.93 32.71 73.39 32.43 75.10 29.77 C 75.93 30.69 76.78 31.59 77.65 32.47 C 77.85 33.83 77.82 35.20 77.61 36.55 C 72.90 42.29 62.67 42.24 58.29 36.14 C 57.76 33.65 59.00 31.86 60.51 30.07 Z" />
</g>
<g id="#feda75ff">
<path fill="#feda75" opacity="1.00" d=" M 20.34 43.38 C 20.17 42.07 20.07 40.75 20.16 39.43 C 23.20 42.22 27.46 41.37 31.20 41.52 C 33.03 42.67 35.73 43.48 36.27 45.83 L 37.47 45.92 L 36.34 47.35 L 38.06 47.08 L 37.78 48.21 C 40.00 51.92 43.24 54.87 46.82 57.26 C 44.80 58.69 41.99 59.70 41.31 62.34 C 40.81 65.24 40.89 68.20 40.89 71.12 C 38.82 67.85 35.34 65.92 32.69 63.17 C 31.67 61.96 30.01 61.87 28.65 61.28 C 27.76 60.26 29.56 59.94 30.17 59.53 C 32.07 55.98 33.96 51.36 31.28 47.68 C 28.56 44.25 23.69 44.56 19.85 45.38 C 20.04 44.66 20.20 43.99 20.34 43.38 Z" />
</g>
<g id="#f5b03aff">
<path fill="#f5b03a" opacity="1.00" d=" M 19.85 45.38 C 23.69 44.56 28.56 44.25 31.28 47.68 C 33.96 51.36 32.07 55.98 30.17 59.53 C 29.63 59.36 28.54 59.02 28.00 58.86 C 29.67 56.13 32.15 52.85 30.34 49.56 C 29.45 47.42 27.12 46.88 25.03 47.01 C 26.31 48.06 27.97 48.76 28.88 50.20 C 30.46 54.47 26.91 59.85 22.23 59.53 C 18.38 59.42 13.52 57.27 13.24 52.91 C 13.04 49.86 15.86 48.23 17.45 46.08 L 18.65 46.89 L 18.56 45.18 L 19.63 46.31 L 19.85 45.38 M 15.36 53.66 C 17.19 57.79 24.46 59.43 26.90 54.92 C 29.16 52.34 25.90 47.72 22.76 49.66 C 20.54 50.36 21.08 52.91 21.39 54.65 C 22.77 54.94 24.40 55.32 24.21 53.31 C 23.58 53.49 22.34 53.84 21.71 54.02 C 21.66 52.46 22.97 51.04 24.58 51.36 C 25.95 52.02 26.22 53.54 26.29 54.91 C 24.46 57.58 20.11 57.14 19.12 53.99 C 17.86 50.79 20.97 48.71 23.07 46.99 C 19.53 47.00 14.67 49.55 15.36 53.66 Z" />
</g>
<g id="#f4bd3cff">
<path fill="#f4bd3c" opacity="1.00" d=" M 64.76 53.01 C 66.48 47.13 73.96 45.00 79.36 46.53 C 83.78 47.79 85.27 53.27 83.31 57.11 C 82.56 58.49 81.71 61.15 79.62 60.37 C 80.22 57.52 83.20 55.26 82.12 51.98 C 81.33 47.42 75.82 47.72 72.34 48.42 C 69.48 49.23 65.92 51.58 66.80 55.03 C 68.35 58.42 72.66 59.08 76.00 58.63 C 73.97 57.98 71.32 57.51 70.70 55.09 C 68.90 50.56 75.65 46.49 79.05 49.82 C 83.43 53.74 78.65 61.76 73.14 60.74 C 69.20 60.44 63.87 57.71 64.76 53.01 M 72.04 53.96 C 72.67 55.55 74.25 56.80 75.99 55.95 C 75.90 55.55 75.72 54.75 75.63 54.35 C 75.10 54.53 74.04 54.89 73.50 55.06 C 73.63 54.56 73.88 53.55 74.01 53.05 C 76.91 51.29 76.93 55.40 78.91 56.06 C 78.91 54.37 79.53 52.18 77.83 51.08 C 75.70 49.14 72.06 51.27 72.04 53.96 Z" />
</g>
<g id="#ffce77ff">
<path fill="#ffce77" opacity="1.00" d=" M 15.36 53.66 C 14.67 49.55 19.53 47.00 23.07 46.99 C 20.97 48.71 17.86 50.79 19.12 53.99 C 20.11 57.14 24.46 57.58 26.29 54.91 C 26.22 53.54 25.95 52.02 24.58 51.36 C 22.97 51.04 21.66 52.46 21.71 54.02 C 22.34 53.84 23.58 53.49 24.21 53.31 C 24.40 55.32 22.77 54.94 21.39 54.65 C 21.08 52.91 20.54 50.36 22.76 49.66 C 25.90 47.72 29.16 52.34 26.90 54.92 C 24.46 59.43 17.19 57.79 15.36 53.66 Z" />
</g>
<g id="#f5e372ff">
<path fill="#f5e372" opacity="1.00" d=" M 72.04 53.96 C 72.06 51.27 75.70 49.14 77.83 51.08 C 79.53 52.18 78.91 54.37 78.91 56.06 C 76.93 55.40 76.91 51.29 74.01 53.05 C 73.88 53.55 73.63 54.56 73.50 55.06 C 74.04 54.89 75.10 54.53 75.63 54.35 C 75.72 54.75 75.90 55.55 75.99 55.95 C 74.25 56.80 72.67 55.55 72.04 53.96 Z" />
</g>
<g id="#84301bff">
<path fill="#84301b" opacity="1.00" d=" M 44.37 60.36 C 47.98 58.91 54.42 58.57 55.10 63.69 C 55.21 67.12 55.30 70.58 54.86 73.99 C 54.45 74.04 53.62 74.15 53.20 74.20 C 53.14 73.81 53.02 73.02 52.96 72.62 C 52.86 69.12 54.30 64.73 51.86 61.83 C 49.70 61.40 47.28 61.32 45.23 62.23 C 43.87 65.87 44.84 70.04 44.67 73.90 C 44.18 73.86 43.18 73.80 42.68 73.76 C 42.95 69.40 41.00 63.85 44.37 60.36 Z" />
</g>
<g id="#fcec80ff">
<path fill="#fcec80" opacity="1.00" d=" M 45.23 62.23 C 47.28 61.32 49.70 61.40 51.86 61.83 C 54.30 64.73 52.86 69.12 52.96 72.62 C 51.41 69.88 51.56 66.69 51.38 63.66 C 49.71 63.46 48.05 63.29 46.38 63.20 C 46.36 66.47 46.39 69.74 46.18 73.00 C 45.81 73.22 45.05 73.67 44.67 73.90 C 44.84 70.04 43.87 65.87 45.23 62.23 Z" />
</g>
</svg>
