<?xml version="1.0" encoding="UTF-8" ?>
<!DOCTYPE svg PUBLIC "-//W3C//DTD SVG 1.1//EN" "http://www.w3.org/Graphics/SVG/1.1/DTD/svg11.dtd">
<svg width="96pt" height="96pt" viewBox="0 0 96 96" version="1.1" xmlns="http://www.w3.org/2000/svg">
<g id="#e2a450f0">
<path fill="#e2a450" opacity="0.94" d=" M 35.97 15.00 C 36.72 8.54 45.81 8.77 50.01 11.99 C 65.34 23.18 69.01 43.25 80.96 57.06 C 86.23 58.22 86.92 63.88 91.93 65.18 C 92.10 72.12 92.11 79.06 91.95 85.99 C 79.63 88.29 67.77 81.96 61.42 71.61 C 59.52 70.47 59.32 64.28 56.98 66.93 C 53.23 75.33 40.87 76.07 34.31 70.35 C 27.65 77.56 18.09 81.70 8.23 80.89 C 5.37 75.48 7.41 67.98 7.24 61.76 C 8.49 66.99 6.60 73.25 9.23 78.03 C 19.86 78.19 35.28 71.68 32.98 59.01 C 30.28 59.15 27.65 59.84 24.95 60.00 C 24.12 53.14 35.71 58.11 35.59 51.41 C 36.83 47.68 39.12 52.44 39.93 54.07 C 43.71 54.52 47.83 56.59 48.00 60.82 C 44.73 64.79 42.48 55.52 38.96 58.92 C 31.56 63.81 42.52 75.43 49.05 70.04 C 57.23 67.85 54.85 58.40 52.51 52.60 C 50.45 47.11 48.54 40.78 42.87 38.00 C 27.53 36.68 13.41 47.49 7.20 61.06 C 5.72 61.26 5.60 59.22 5.33 58.20 C 12.13 43.08 30.71 30.97 47.18 36.87 C 44.58 29.02 38.32 22.85 35.97 15.00 M 42.18 12.44 C 39.33 12.81 37.78 15.86 40.09 17.99 C 42.06 16.24 44.15 14.74 46.90 14.74 C 47.66 12.04 43.84 13.00 42.18 12.44 M 45.23 17.12 C 42.40 18.90 44.33 22.94 45.94 25.04 C 55.15 37.97 59.90 53.19 64.92 68.04 C 67.87 78.87 80.22 85.27 90.99 82.99 C 90.68 77.79 90.15 72.60 89.71 67.41 C 77.42 64.08 73.40 50.51 67.04 40.98 C 62.02 31.88 57.62 17.57 45.23 17.12 Z" />
</g>
<g id="#fddc75ff">
<path fill="#fddc75" opacity="1.00" d=" M 42.18 12.44 C 43.84 13.00 47.66 12.04 46.90 14.74 C 44.15 14.74 42.06 16.24 40.09 17.99 C 37.78 15.86 39.33 12.81 42.18 12.44 Z" />
<path fill="#fddc75" opacity="1.00" d=" M 45.23 17.12 C 57.62 17.57 62.02 31.88 67.04 40.98 C 73.40 50.51 77.42 64.08 89.71 67.41 C 90.15 72.60 90.68 77.79 90.99 82.99 C 80.22 85.27 67.87 78.87 64.92 68.04 C 59.90 53.19 55.15 37.97 45.94 25.04 C 44.33 22.94 42.40 18.90 45.23 17.12 Z" />
<path fill="#fddc75" opacity="1.00" d=" M 7.20 61.06 C 13.41 47.49 27.53 36.68 42.87 38.00 C 48.54 40.78 50.45 47.11 52.51 52.60 C 54.85 58.40 57.23 67.85 49.05 70.04 C 42.52 75.43 31.56 63.81 38.96 58.92 C 42.48 55.52 44.73 64.79 48.00 60.82 C 47.83 56.59 43.71 54.52 39.93 54.07 C 39.12 52.44 36.83 47.68 35.59 51.41 C 35.71 58.11 24.12 53.14 24.95 60.00 C 27.65 59.84 30.28 59.15 32.98 59.01 C 35.28 71.68 19.86 78.19 9.23 78.03 C 6.60 73.25 8.49 66.99 7.24 61.76 L 7.20 61.06 Z" />
</g>
</svg>
