<?xml version="1.0" encoding="UTF-8" ?>
<!DOCTYPE svg PUBLIC "-//W3C//DTD SVG 1.1//EN" "http://www.w3.org/Graphics/SVG/1.1/DTD/svg11.dtd">
<svg width="96pt" height="96pt" viewBox="0 0 96 96" version="1.1" xmlns="http://www.w3.org/2000/svg">
<path fill="#efae58" opacity="1.00" d=" M 35.71 7.55 C 41.20 6.50 46.80 4.78 52.43 5.77 C 54.35 6.52 56.57 6.32 58.36 7.38 C 58.08 7.91 57.52 8.95 57.24 9.47 C 55.23 8.84 53.19 8.08 51.04 8.29 C 48.29 8.44 45.42 7.88 42.78 8.91 C 41.11 9.48 39.19 9.06 37.70 10.18 C 36.70 9.61 36.35 8.43 35.71 7.55 Z" />
<path fill="#7d180f" opacity="1.00" d=" M 27.63 7.69 C 29.87 5.58 33.27 6.02 35.71 7.55 C 36.35 8.43 36.70 9.61 37.70 10.18 C 40.22 11.58 39.01 15.00 39.23 17.35 C 38.67 17.32 37.54 17.26 36.97 17.23 C 36.91 14.92 36.46 12.63 35.00 10.78 C 34.85 10.55 34.55 10.11 34.39 9.88 C 33.91 9.54 32.95 8.87 32.47 8.53 C 30.67 7.67 28.09 8.90 27.81 10.90 C 27.90 11.45 28.09 12.54 28.19 13.08 C 27.73 13.32 26.81 13.79 26.35 14.03 L 26.21 12.96 C 26.07 11.18 25.53 8.53 27.63 7.69 Z" />
<path fill="#7d180f" opacity="1.00" d=" M 58.36 7.38 C 60.50 6.44 63.02 5.68 65.26 6.79 C 67.49 7.54 68.53 9.95 68.80 12.11 C 68.73 12.65 68.59 13.73 68.52 14.28 C 66.27 14.30 65.85 12.29 65.46 10.50 C 64.08 9.49 62.19 8.81 60.51 9.45 C 58.14 11.71 56.81 14.82 57.07 18.13 C 56.53 18.14 55.45 18.15 54.91 18.16 C 54.67 15.20 54.31 11.26 57.24 9.47 C 57.52 8.95 58.08 7.91 58.36 7.38 Z" />
<path fill="#fde476" opacity="1.00" d=" M 42.78 8.91 C 45.42 7.88 48.29 8.44 51.04 8.29 C 53.19 8.08 55.23 8.84 57.24 9.47 C 54.31 11.26 54.67 15.20 54.91 18.16 C 55.45 18.15 56.53 18.14 57.07 18.13 C 56.81 14.82 58.14 11.71 60.51 9.45 C 62.19 8.81 64.08 9.49 65.46 10.50 C 65.85 12.29 66.27 14.30 68.52 14.28 C 72.32 17.09 76.64 19.58 79.03 23.82 C 79.71 25.12 81.11 25.87 81.73 27.20 C 83.77 31.64 86.65 35.89 86.89 40.93 C 87.95 43.75 87.68 46.75 87.92 49.70 C 87.00 49.04 85.99 48.68 84.90 48.63 C 83.89 48.73 83.02 49.16 82.29 49.92 C 81.48 46.19 76.71 47.93 74.00 47.73 C 69.84 47.85 68.98 56.05 73.85 55.30 C 73.83 57.05 74.20 58.88 73.62 60.57 C 72.11 61.41 70.09 61.99 69.82 64.00 C 69.84 64.74 69.88 66.24 69.90 66.98 C 67.97 66.24 68.07 63.32 65.91 62.98 C 61.58 62.80 57.48 61.29 53.18 60.94 C 53.76 62.40 55.74 63.81 54.25 65.36 C 53.03 64.53 52.11 62.14 50.31 63.04 C 49.95 63.34 49.24 63.95 48.88 64.25 C 47.09 62.65 50.53 61.78 50.17 60.06 C 49.54 58.90 48.26 58.39 47.22 57.69 C 44.35 56.05 41.89 53.71 40.09 50.94 C 39.04 49.29 37.19 48.44 35.85 47.08 C 41.44 44.25 44.74 37.58 43.32 31.43 C 41.93 26.43 37.87 22.14 32.66 21.19 C 33.34 19.46 34.47 17.87 34.80 16.03 C 34.44 14.26 34.02 12.48 34.22 10.66 L 35.00 10.78 C 36.46 12.63 36.91 14.92 36.97 17.23 C 37.54 17.26 38.67 17.32 39.23 17.35 C 39.01 15.00 40.22 11.58 37.70 10.18 C 39.19 9.06 41.11 9.48 42.78 8.91 M 62.40 20.71 C 58.61 21.92 55.09 24.66 53.52 28.40 C 51.28 33.20 52.25 39.26 55.91 43.10 C 59.13 47.41 65.05 47.93 69.96 47.03 C 77.15 45.35 81.48 36.84 79.09 29.96 C 77.82 25.52 74.16 21.74 69.61 20.70 C 67.22 20.36 64.79 20.43 62.40 20.71 Z" />
<path fill="#efae58" opacity="1.00" d=" M 32.47 8.53 C 32.95 8.87 33.91 9.54 34.39 9.88 L 34.22 10.66 C 32.28 11.60 30.41 12.93 28.19 13.08 C 28.09 12.54 27.90 11.45 27.81 10.90 C 29.48 10.35 31.06 9.59 32.47 8.53 Z" />
<path fill="#ffcd74" opacity="1.00" d=" M 34.39 9.88 C 34.55 10.11 34.85 10.55 35.00 10.78 L 34.22 10.66 L 34.39 9.88 Z" />
<path fill="#ffcd74" opacity="1.00" d=" M 28.19 13.08 C 30.41 12.93 32.28 11.60 34.22 10.66 C 34.02 12.48 34.44 14.26 34.80 16.03 C 34.47 17.87 33.34 19.46 32.66 21.19 C 30.26 21.40 27.84 21.20 25.46 21.60 C 22.40 22.81 19.40 24.86 18.13 28.03 C 13.54 35.04 17.91 45.85 26.14 47.56 C 29.37 47.74 32.69 47.95 35.85 47.08 C 37.19 48.44 39.04 49.29 40.09 50.94 C 41.89 53.71 44.35 56.05 47.22 57.69 C 48.26 58.39 49.54 58.90 50.17 60.06 C 50.53 61.78 47.09 62.65 48.88 64.25 C 48.17 65.37 47.28 66.46 47.15 67.84 C 49.05 68.11 50.13 65.35 51.89 66.11 C 53.04 67.97 51.29 69.20 49.91 70.10 C 49.49 71.60 51.61 71.87 52.40 72.70 C 53.77 74.08 53.36 76.21 52.98 77.90 C 51.38 78.06 48.81 78.98 47.91 77.08 C 47.58 75.65 45.54 75.80 44.95 76.89 C 46.93 78.89 49.71 80.70 52.62 79.55 C 54.93 78.71 55.05 76.03 55.01 73.96 C 55.02 72.39 53.61 71.38 52.96 70.07 C 53.39 68.50 53.84 66.93 54.25 65.36 C 55.74 63.81 53.76 62.40 53.18 60.94 C 57.48 61.29 61.58 62.80 65.91 62.98 C 68.07 63.32 67.97 66.24 69.90 66.98 C 71.62 67.81 74.14 68.30 75.23 66.25 C 76.53 63.09 74.98 59.48 76.06 56.26 C 78.28 55.16 80.72 53.98 83.23 53.94 C 83.26 54.49 83.31 55.59 83.34 56.13 C 83.27 58.70 79.23 58.48 79.20 61.15 C 78.64 63.51 81.81 64.84 83.53 63.61 C 85.32 61.11 84.67 57.83 84.79 54.96 C 85.73 54.56 86.70 54.33 87.71 54.24 C 86.89 57.01 86.56 59.91 85.72 62.67 C 83.44 66.92 81.13 71.27 77.72 74.75 C 76.13 77.45 73.23 78.83 71.14 81.08 C 66.34 83.90 61.21 86.20 55.80 87.59 C 50.90 87.82 45.98 87.60 41.07 87.68 C 35.52 86.68 30.39 84.10 25.44 81.47 C 18.16 75.98 12.19 68.43 9.58 59.58 C 8.95 57.81 9.15 55.86 10.36 54.39 C 14.62 56.46 20.66 56.73 24.08 52.96 C 25.24 52.03 24.80 50.09 23.45 49.59 C 20.67 47.62 17.13 48.41 13.96 48.29 C 12.34 48.24 10.84 48.93 9.35 49.45 C 9.11 49.05 8.63 48.25 8.39 47.85 C 7.71 43.26 9.21 38.73 10.60 34.42 C 13.06 29.21 15.42 23.67 19.86 19.80 C 21.75 17.55 24.82 16.64 26.35 14.03 C 26.81 13.79 27.73 13.32 28.19 13.08 M 66.45 69.58 C 63.50 70.79 60.28 70.08 57.19 70.29 C 58.40 72.79 61.83 71.36 64.02 71.72 C 65.81 72.08 67.09 70.61 67.81 69.16 C 67.47 69.27 66.79 69.47 66.45 69.58 Z" />
<path fill="#efae58" opacity="1.00" d=" M 68.80 12.11 C 70.20 11.82 71.30 12.93 72.40 13.60 C 81.08 19.56 87.22 28.96 89.51 39.21 C 91.38 44.18 90.71 49.67 90.39 54.85 C 89.16 57.89 88.71 61.18 87.35 64.17 C 84.26 72.60 77.88 79.52 70.45 84.37 C 60.53 90.87 47.86 92.08 36.50 89.29 C 22.01 85.14 9.93 72.93 6.71 58.09 C 4.64 53.33 5.32 47.98 5.48 42.94 C 7.20 35.16 9.98 27.33 15.33 21.27 C 17.97 17.71 21.54 15.00 25.16 12.52 L 26.21 12.96 L 26.35 14.03 C 24.82 16.64 21.75 17.55 19.86 19.80 C 15.42 23.67 13.06 29.21 10.60 34.42 C 9.21 38.73 7.71 43.26 8.39 47.85 C 8.63 48.25 9.11 49.05 9.35 49.45 C 8.32 50.59 6.84 51.72 7.32 53.46 C 8.38 53.63 9.40 53.93 10.36 54.39 C 9.15 55.86 8.95 57.81 9.58 59.58 C 12.19 68.43 18.16 75.98 25.44 81.47 C 30.39 84.10 35.52 86.68 41.07 87.68 C 45.98 87.60 50.90 87.82 55.80 87.59 C 61.21 86.20 66.34 83.90 71.14 81.08 C 73.23 78.83 76.13 77.45 77.72 74.75 C 81.13 71.27 83.44 66.92 85.72 62.67 C 86.56 59.91 86.89 57.01 87.71 54.24 C 86.70 54.33 85.73 54.56 84.79 54.96 C 84.71 52.85 84.74 50.73 84.90 48.63 C 85.99 48.68 87.00 49.04 87.92 49.70 C 87.68 46.75 87.95 43.75 86.89 40.93 C 86.65 35.89 83.77 31.64 81.73 27.20 C 81.11 25.87 79.71 25.12 79.03 23.82 C 76.64 19.58 72.32 17.09 68.52 14.28 C 68.59 13.73 68.73 12.65 68.80 12.11 Z" />
<path fill="#1f1f1f" opacity="1.00" d=" M 62.40 20.71 C 64.79 20.43 67.22 20.36 69.61 20.70 C 74.16 21.74 77.82 25.52 79.09 29.96 C 81.48 36.84 77.15 45.35 69.96 47.03 C 65.05 47.93 59.13 47.41 55.91 43.10 C 52.25 39.26 51.28 33.20 53.52 28.40 C 55.09 24.66 58.61 21.92 62.40 20.71 M 60.36 22.97 C 55.74 25.46 53.23 30.82 53.70 35.95 C 54.94 40.23 57.96 44.48 62.49 45.61 C 68.67 47.70 76.53 43.78 77.79 37.21 C 80.06 31.65 76.47 24.88 71.08 22.69 C 69.36 22.86 69.51 25.34 67.84 25.77 C 66.36 27.05 64.33 26.17 63.22 24.89 C 62.52 24.09 61.71 21.55 60.36 22.97 Z" />
<path fill="#1f1f1f" opacity="1.00" d=" M 25.46 21.60 C 27.84 21.20 30.26 21.40 32.66 21.19 C 37.87 22.14 41.93 26.43 43.32 31.43 C 44.74 37.58 41.44 44.25 35.85 47.08 C 32.69 47.95 29.37 47.74 26.14 47.56 C 17.91 45.85 13.54 35.04 18.13 28.03 C 19.40 24.86 22.40 22.81 25.46 21.60 M 25.19 23.13 C 19.57 25.36 15.75 32.43 18.24 38.20 C 19.36 43.36 24.83 46.96 30.00 46.76 C 35.51 46.94 40.96 42.73 41.72 37.20 C 42.38 35.00 42.84 32.45 41.56 30.37 C 40.17 27.47 38.10 24.40 34.92 23.40 C 34.49 23.84 33.65 24.73 33.23 25.18 C 31.80 26.90 29.20 26.58 27.50 25.45 C 26.89 24.60 26.71 22.48 25.19 23.13 Z" />
<path fill="#ffffff" opacity="1.00" d=" M 25.19 23.13 C 26.71 22.48 26.89 24.60 27.50 25.45 C 29.20 26.58 31.80 26.90 33.23 25.18 C 33.65 24.73 34.49 23.84 34.92 23.40 C 38.10 24.40 40.17 27.47 41.56 30.37 C 42.84 32.45 42.38 35.00 41.72 37.20 C 40.96 42.73 35.51 46.94 30.00 46.76 C 24.83 46.96 19.36 43.36 18.24 38.20 C 15.75 32.43 19.57 25.36 25.19 23.13 Z" />
<path fill="#ffffff" opacity="1.00" d=" M 60.36 22.97 C 61.71 21.55 62.52 24.09 63.22 24.89 C 64.33 26.17 66.36 27.05 67.84 25.77 C 69.51 25.34 69.36 22.86 71.08 22.69 C 76.47 24.88 80.06 31.65 77.79 37.21 C 76.53 43.78 68.67 47.70 62.49 45.61 C 57.96 44.48 54.94 40.23 53.70 35.95 C 53.23 30.82 55.74 25.46 60.36 22.97 Z" />
<path fill="#f19351" opacity="1.00" d=" M 9.35 49.45 C 10.84 48.93 12.34 48.24 13.96 48.29 C 17.13 48.41 20.67 47.62 23.45 49.59 C 24.80 50.09 25.24 52.03 24.08 52.96 C 20.66 56.73 14.62 56.46 10.36 54.39 C 9.40 53.93 8.38 53.63 7.32 53.46 C 6.84 51.72 8.32 50.59 9.35 49.45 M 13.17 49.26 C 10.92 49.36 9.89 51.87 11.06 53.70 C 13.39 55.29 16.23 55.26 18.93 55.02 C 20.03 54.36 22.12 54.41 22.26 52.82 C 22.96 51.00 21.19 50.00 19.88 49.24 C 17.68 48.77 15.37 48.77 13.17 49.26 Z" />
<path fill="#efae58" opacity="1.00" d=" M 73.85 55.30 C 68.98 56.05 69.84 47.85 74.00 47.73 C 76.71 47.93 81.48 46.19 82.29 49.92 C 79.79 52.34 74.43 51.02 73.85 55.30 Z" />
<path fill="#ed863a" opacity="1.00" d=" M 13.17 49.26 C 15.37 48.77 17.68 48.77 19.88 49.24 C 21.19 50.00 22.96 51.00 22.26 52.82 C 22.12 54.41 20.03 54.36 18.93 55.02 C 16.23 55.26 13.39 55.29 11.06 53.70 C 9.89 51.87 10.92 49.36 13.17 49.26 Z" />
<path fill="#7d180f" opacity="1.00" d=" M 82.29 49.92 C 83.02 49.16 83.89 48.73 84.90 48.63 C 84.74 50.73 84.71 52.85 84.79 54.96 C 84.67 57.83 85.32 61.11 83.53 63.61 C 81.81 64.84 78.64 63.51 79.20 61.15 C 79.23 58.48 83.27 58.70 83.34 56.13 C 83.31 55.59 83.26 54.49 83.23 53.94 C 80.72 53.98 78.28 55.16 76.06 56.26 C 74.98 59.48 76.53 63.09 75.23 66.25 C 74.14 68.30 71.62 67.81 69.90 66.98 C 69.88 66.24 69.84 64.74 69.82 64.00 C 70.09 61.99 72.11 61.41 73.62 60.57 C 74.20 58.88 73.83 57.05 73.85 55.30 C 74.43 51.02 79.79 52.34 82.29 49.92 Z" />
<path fill="#7d180f" opacity="1.00" d=" M 50.31 63.04 C 52.11 62.14 53.03 64.53 54.25 65.36 C 53.84 66.93 53.39 68.50 52.96 70.07 C 53.61 71.38 55.02 72.39 55.01 73.96 C 55.05 76.03 54.93 78.71 52.62 79.55 C 49.71 80.70 46.93 78.89 44.95 76.89 C 45.54 75.80 47.58 75.65 47.91 77.08 C 48.81 78.98 51.38 78.06 52.98 77.90 C 53.36 76.21 53.77 74.08 52.40 72.70 C 51.61 71.87 49.49 71.60 49.91 70.10 C 51.29 69.20 53.04 67.97 51.89 66.11 C 50.13 65.35 49.05 68.11 47.15 67.84 C 47.28 66.46 48.17 65.37 48.88 64.25 C 49.24 63.95 49.95 63.34 50.31 63.04 Z" />
<path fill="#c3964c" opacity="0.96" d=" M 66.45 69.58 C 66.79 69.47 67.47 69.27 67.81 69.16 C 67.09 70.61 65.81 72.08 64.02 71.72 C 61.83 71.36 58.40 72.79 57.19 70.29 C 60.28 70.08 63.50 70.79 66.45 69.58 Z" />
</svg>
