<?xml version="1.0" encoding="UTF-8" ?>
<!DOCTYPE svg PUBLIC "-//W3C//DTD SVG 1.1//EN" "http://www.w3.org/Graphics/SVG/1.1/DTD/svg11.dtd">
<svg width="96pt" height="96pt" viewBox="0 0 96 96" version="1.1" xmlns="http://www.w3.org/2000/svg">
<g id="#eba953fd">
<path fill="#eba953" opacity="1.00" d=" M 40.56 5.76 C 51.76 3.74 63.73 6.38 72.97 13.05 C 84.12 20.88 91.27 34.32 90.94 48.02 C 91.19 57.15 88.12 66.24 82.71 73.56 C 74.80 84.42 61.52 91.34 48.01 90.95 C 35.02 91.29 22.24 84.87 14.28 74.68 C 6.86 65.35 3.65 52.85 5.66 41.11 C 8.27 23.51 23.00 8.60 40.56 5.76 M 34.10 9.80 C 27.87 11.86 22.74 16.06 17.94 20.39 C 19.05 20.65 20.05 21.12 20.94 21.80 C 20.25 21.83 18.87 21.87 18.18 21.90 C 18.07 22.70 17.85 24.31 17.75 25.11 C 17.08 24.32 16.55 23.44 16.15 22.47 C 14.26 25.54 12.19 28.53 10.77 31.86 C 5.62 43.63 6.42 57.86 13.10 68.87 C 18.85 78.64 28.89 85.79 40.02 87.96 C 58.25 92.01 78.93 81.46 85.34 63.76 L 85.73 63.64 C 88.26 56.74 89.58 49.25 88.27 41.94 C 86.39 28.56 77.20 16.60 64.92 11.06 C 55.32 6.60 44.06 6.41 34.10 9.80 Z" />
</g>
<g id="#fde978ff">
<path fill="#fde978" opacity="1.00" d=" M 34.10 9.80 C 44.06 6.41 55.32 6.60 64.92 11.06 C 77.20 16.60 86.39 28.56 88.27 41.94 C 89.58 49.25 88.26 56.74 85.73 63.64 L 85.34 63.76 C 79.61 65.92 73.35 66.21 67.73 68.68 C 62.50 61.36 52.43 59.52 44.02 60.75 C 37.97 56.56 33.38 50.46 30.71 43.63 C 33.02 43.72 35.32 43.82 37.63 43.93 C 37.61 43.65 37.59 43.09 37.58 42.81 C 37.51 41.40 37.44 39.99 37.36 38.58 C 39.30 38.25 43.05 39.18 41.67 35.96 C 34.72 35.37 27.71 35.73 20.74 35.75 C 23.71 33.79 27.68 33.68 29.98 30.65 C 33.02 28.08 35.61 25.02 37.87 21.75 C 37.15 21.35 35.71 20.57 34.99 20.18 C 34.37 20.85 33.14 22.19 32.53 22.86 C 31.71 18.42 33.11 14.08 34.10 9.80 M 57.13 20.69 C 59.40 24.26 61.22 28.75 65.35 30.53 C 70.06 32.01 74.35 28.46 76.82 24.80 C 77.20 23.41 75.97 22.67 75.07 21.91 C 72.70 24.05 70.60 27.62 66.96 27.26 C 63.57 26.00 62.61 22.10 60.41 19.59 C 59.23 18.42 58.10 20.17 57.13 20.69 M 54.04 35.95 C 53.92 36.54 53.70 37.71 53.59 38.29 C 57.57 38.56 61.56 38.49 65.54 38.42 C 65.90 39.78 66.27 41.14 66.64 42.50 C 68.28 42.64 69.92 42.58 71.55 42.33 C 71.06 41.17 70.62 39.97 70.23 38.77 C 72.44 38.40 75.92 39.30 76.09 36.10 C 68.78 35.40 61.36 35.57 54.04 35.95 Z" />
</g>
<g id="#ffce74ff">
<path fill="#ffce74" opacity="1.00" d=" M 17.94 20.39 C 22.74 16.06 27.87 11.86 34.10 9.80 C 33.11 14.08 31.71 18.42 32.53 22.86 C 30.80 24.84 29.05 27.88 25.96 27.33 C 23.56 26.59 21.93 24.43 21.40 22.03 L 20.94 21.80 C 20.05 21.12 19.05 20.65 17.94 20.39 Z" />
<path fill="#ffce74" opacity="1.00" d=" M 10.77 31.86 C 12.19 28.53 14.26 25.54 16.15 22.47 C 16.55 23.44 17.08 24.32 17.75 25.11 C 19.66 26.89 21.43 28.89 23.66 30.30 C 25.64 31.20 27.89 30.73 29.98 30.65 C 27.68 33.68 23.71 33.79 20.74 35.75 C 20.27 36.08 19.35 36.75 18.89 37.09 C 22.76 39.70 27.69 38.03 32.04 38.44 C 32.36 39.59 32.74 40.71 33.19 41.81 C 34.34 42.94 36.14 42.49 37.58 42.81 C 37.59 43.09 37.61 43.65 37.63 43.93 C 35.32 43.82 33.02 43.72 30.71 43.63 C 33.38 50.46 37.97 56.56 44.02 60.75 C 38.03 61.92 30.54 64.40 28.90 71.06 C 28.05 74.09 31.70 74.13 33.74 74.24 C 43.70 74.21 53.66 74.32 63.62 73.99 C 65.33 73.93 67.02 73.60 68.71 73.29 C 68.41 71.75 68.09 70.21 67.73 68.68 C 73.35 66.21 79.61 65.92 85.34 63.76 C 78.93 81.46 58.25 92.01 40.02 87.96 C 28.89 85.79 18.85 78.64 13.10 68.87 C 6.42 57.86 5.62 43.63 10.77 31.86 Z" />
</g>
<g id="#a53f0eff">
<path fill="#a53f0e" opacity="1.00" d=" M 57.13 20.69 C 58.10 20.17 59.23 18.42 60.41 19.59 C 62.61 22.10 63.57 26.00 66.96 27.26 C 70.60 27.62 72.70 24.05 75.07 21.91 C 75.97 22.67 77.20 23.41 76.82 24.80 C 74.35 28.46 70.06 32.01 65.35 30.53 C 61.22 28.75 59.40 24.26 57.13 20.69 Z" />
<path fill="#a53f0e" opacity="1.00" d=" M 32.53 22.86 C 33.14 22.19 34.37 20.85 34.99 20.18 C 35.71 20.57 37.15 21.35 37.87 21.75 C 35.61 25.02 33.02 28.08 29.98 30.65 C 27.89 30.73 25.64 31.20 23.66 30.30 C 21.43 28.89 19.66 26.89 17.75 25.11 C 17.85 24.31 18.07 22.70 18.18 21.90 C 18.87 21.87 20.25 21.83 20.94 21.80 L 21.40 22.03 C 21.93 24.43 23.56 26.59 25.96 27.33 C 29.05 27.88 30.80 24.84 32.53 22.86 Z" />
<path fill="#a53f0e" opacity="1.00" d=" M 33.74 74.24 C 41.52 66.29 55.61 66.43 63.62 73.99 C 53.66 74.32 43.70 74.21 33.74 74.24 Z" />
</g>
<g id="#1e1e1eff">
<path fill="#1e1e1e" opacity="1.00" d=" M 18.89 37.09 C 19.35 36.75 20.27 36.08 20.74 35.75 C 27.71 35.73 34.72 35.37 41.67 35.96 C 43.05 39.18 39.30 38.25 37.36 38.58 C 37.44 39.99 37.51 41.40 37.58 42.81 C 36.14 42.49 34.34 42.94 33.19 41.81 C 32.74 40.71 32.36 39.59 32.04 38.44 C 27.69 38.03 22.76 39.70 18.89 37.09 Z" />
<path fill="#1e1e1e" opacity="1.00" d=" M 54.04 35.95 C 61.36 35.57 68.78 35.40 76.09 36.10 C 75.92 39.30 72.44 38.40 70.23 38.77 C 70.62 39.97 71.06 41.17 71.55 42.33 C 69.92 42.58 68.28 42.64 66.64 42.50 C 66.27 41.14 65.90 39.78 65.54 38.42 C 61.56 38.49 57.57 38.56 53.59 38.29 C 53.70 37.71 53.92 36.54 54.04 35.95 Z" />
</g>
<g id="#7d180fff">
<path fill="#7d180f" opacity="1.00" d=" M 44.02 60.75 C 52.43 59.52 62.50 61.36 67.73 68.68 C 68.09 70.21 68.41 71.75 68.71 73.29 C 67.02 73.60 65.33 73.93 63.62 73.99 C 55.61 66.43 41.52 66.29 33.74 74.24 C 31.70 74.13 28.05 74.09 28.90 71.06 C 30.54 64.40 38.03 61.92 44.02 60.75 Z" />
</g>
</svg>
