<?xml version="1.0" encoding="UTF-8" ?>
<!DOCTYPE svg PUBLIC "-//W3C//DTD SVG 1.1//EN" "http://www.w3.org/Graphics/SVG/1.1/DTD/svg11.dtd">
<svg width="96pt" height="96pt" viewBox="0 0 96 96" version="1.1" xmlns="http://www.w3.org/2000/svg">
<g id="#808080ff">
<path fill="#808080" opacity="1.00" d=" M 4.86 29.98 C 14.30 25.26 23.47 19.96 33.11 15.65 C 35.76 14.43 37.87 16.77 39.47 18.54 C 45.63 25.71 51.89 32.77 58.11 39.88 C 61.43 43.60 65.26 47.02 69.94 48.91 C 66.83 52.11 63.44 55.32 61.71 59.52 C 60.98 61.18 62.60 62.54 63.34 63.86 L 63.91 64.70 C 59.94 70.46 55.93 76.61 49.97 80.48 C 44.66 79.76 39.90 77.09 35.13 74.82 C 28.62 71.73 23.62 66.36 19.03 60.95 C 11.68 52.06 8.15 40.85 4.86 29.98 M 30.23 28.76 C 31.61 31.33 34.97 30.33 37.34 30.77 C 37.47 32.99 37.62 35.20 37.83 37.41 C 39.06 34.64 40.10 31.79 40.93 28.87 C 40.25 28.71 38.89 28.38 38.21 28.22 C 37.16 26.28 36.51 23.82 34.47 22.66 C 31.36 21.88 28.09 26.07 30.23 28.76 M 7.31 31.44 C 10.99 45.99 18.15 60.37 30.34 69.61 C 35.82 73.17 41.66 76.42 48.00 78.15 C 50.52 79.20 52.09 76.33 53.74 74.94 C 50.38 72.79 46.50 71.25 44.05 67.95 C 41.83 64.87 37.66 64.54 35.05 61.95 C 33.11 59.92 32.38 57.14 31.42 54.59 C 28.28 52.49 25.00 50.29 23.02 46.97 C 20.98 43.83 20.81 39.97 20.52 36.34 C 16.99 34.52 14.25 31.60 12.44 28.07 C 10.72 29.14 8.45 29.70 7.31 31.44 Z" />
<path fill="#808080" opacity="1.00" d=" M 29.70 27.09 C 31.02 25.77 32.34 24.43 33.95 23.46 C 36.02 24.97 36.67 27.43 36.97 29.86 C 34.20 29.95 31.87 28.66 29.70 27.09 Z" />
</g>
<g id="#f2f2f2ff">
<path fill="#f2f2f2" opacity="1.00" d=" M 30.23 28.76 C 28.09 26.07 31.36 21.88 34.47 22.66 C 36.51 23.82 37.16 26.28 38.21 28.22 C 38.89 28.38 40.25 28.71 40.93 28.87 C 40.10 31.79 39.06 34.64 37.83 37.41 C 37.62 35.20 37.47 32.99 37.34 30.77 C 34.97 30.33 31.61 31.33 30.23 28.76 M 29.70 27.09 C 31.87 28.66 34.20 29.95 36.97 29.86 C 36.67 27.43 36.02 24.97 33.95 23.46 C 32.34 24.43 31.02 25.77 29.70 27.09 Z" />
<path fill="#f2f2f2" opacity="1.00" d=" M 7.31 31.44 C 8.45 29.70 10.72 29.14 12.44 28.07 C 14.25 31.60 16.99 34.52 20.52 36.34 C 20.81 39.97 20.98 43.83 23.02 46.97 C 25.00 50.29 28.28 52.49 31.42 54.59 C 32.38 57.14 33.11 59.92 35.05 61.95 C 37.66 64.54 41.83 64.87 44.05 67.95 C 46.50 71.25 50.38 72.79 53.74 74.94 C 52.09 76.33 50.52 79.20 48.00 78.15 C 41.66 76.42 35.82 73.17 30.34 69.61 C 18.15 60.37 10.99 45.99 7.31 31.44 Z" />
<path fill="#f2f2f2" opacity="1.00" d=" M 74.43 56.90 C 79.77 59.27 85.15 62.40 88.45 67.38 C 83.05 65.10 77.75 61.85 74.43 56.90 Z" />
</g>
<g id="#ffcc5aff">
<path fill="#ffcc5a" opacity="1.00" d=" M 69.94 48.91 C 77.00 53.50 83.59 58.76 90.48 63.60 C 92.24 64.42 91.92 66.69 91.22 68.14 C 89.40 71.83 87.73 75.64 85.27 78.96 C 78.75 72.85 70.92 68.47 63.34 63.86 C 62.60 62.54 60.98 61.18 61.71 59.52 C 63.44 55.32 66.83 52.11 69.94 48.91 M 74.43 56.90 C 77.75 61.85 83.05 65.10 88.45 67.38 C 85.15 62.40 79.77 59.27 74.43 56.90 Z" />
</g>
</svg>
