<?xml version="1.0" encoding="UTF-8" ?>
<!DOCTYPE svg PUBLIC "-//W3C//DTD SVG 1.1//EN" "http://www.w3.org/Graphics/SVG/1.1/DTD/svg11.dtd">
<svg width="96pt" height="96pt" viewBox="0 0 96 96" version="1.1" xmlns="http://www.w3.org/2000/svg">
<path fill="#f19f56" opacity="1.00" d=" M 32.08 8.19 C 42.41 3.99 54.39 4.08 64.66 8.43 C 77.46 13.66 87.29 25.49 90.10 39.02 C 92.87 52.41 89.32 67.36 79.54 77.17 C 78.66 76.50 77.73 75.89 76.80 75.32 C 76.99 75.18 77.37 74.91 77.56 74.77 C 84.89 69.49 87.11 59.46 88.60 50.97 C 83.39 54.79 76.14 54.32 70.66 51.35 C 68.73 50.29 68.96 47.91 68.62 46.06 C 74.30 42.22 82.64 40.81 88.30 45.40 C 87.93 25.49 69.32 7.02 49.00 8.06 C 39.74 7.33 30.22 10.35 23.25 16.53 C 13.80 22.32 8.24 33.78 8.00 44.73 C 13.13 42.32 19.40 42.03 24.60 44.34 C 27.16 45.37 28.22 49.02 25.79 50.80 C 20.73 55.16 13.88 53.87 8.07 52.06 C 8.32 63.72 15.20 76.12 25.87 81.21 C 25.82 82.38 25.79 83.56 25.77 84.73 C 11.16 76.34 2.87 58.49 5.55 41.90 C 7.53 27.00 18.09 13.64 32.08 8.19 M 9.70 48.98 C 13.11 53.37 20.79 53.13 23.69 48.00 C 21.00 43.14 10.52 42.77 9.70 48.98 M 76.23 45.12 C 72.86 45.49 72.81 50.56 76.08 51.12 C 79.03 52.02 83.84 52.29 85.27 48.99 C 86.06 44.31 79.33 44.04 76.23 45.12 Z" />
<path fill="#fdea77" opacity="1.00" d=" M 23.25 16.53 C 30.22 10.35 39.74 7.33 49.00 8.06 C 69.32 7.02 87.93 25.49 88.30 45.40 C 82.64 40.81 74.30 42.22 68.62 46.06 C 68.96 47.91 68.73 50.29 70.66 51.35 C 76.14 54.32 83.39 54.79 88.60 50.97 C 87.11 59.46 84.89 69.49 77.56 74.77 C 80.26 69.85 81.98 64.44 82.29 58.82 C 80.36 58.82 78.44 58.83 76.51 58.84 C 70.30 58.84 64.08 58.84 57.87 58.85 C 58.29 58.00 58.71 57.14 59.13 56.29 C 54.93 55.16 50.39 54.78 46.27 56.42 C 45.71 55.08 45.15 53.75 44.57 52.43 C 47.15 54.76 50.39 54.47 52.84 52.06 C 49.18 46.97 43.69 43.15 41.16 37.09 C 39.72 37.86 38.29 38.63 36.87 39.43 C 38.06 37.59 37.89 35.47 37.17 33.48 C 38.31 33.48 39.46 33.48 40.61 33.50 C 40.68 32.93 40.83 31.80 40.90 31.23 C 33.91 30.94 26.89 30.94 19.90 31.24 C 20.01 29.64 20.33 28.07 20.57 26.49 C 20.87 26.58 21.48 26.77 21.78 26.86 C 24.72 23.08 28.89 20.48 33.85 21.76 C 34.24 21.25 35.00 20.23 35.39 19.72 C 29.53 15.36 21.47 19.68 18.93 25.76 C 18.52 25.56 17.70 25.16 17.29 24.96 C 19.24 22.11 22.20 19.94 23.25 16.53 M 60.69 19.01 C 61.02 19.56 61.67 20.67 62.00 21.22 C 66.83 19.14 71.52 21.65 74.43 25.54 C 75.32 24.99 76.21 24.45 77.10 23.89 C 74.04 18.48 65.99 14.17 60.69 19.01 M 56.00 31.18 C 56.02 31.76 56.07 32.91 56.09 33.49 C 59.29 33.62 62.49 33.61 65.69 33.44 C 62.62 37.69 68.56 42.94 72.37 39.50 C 72.89 38.64 73.41 37.79 73.93 36.93 C 73.54 35.77 73.14 34.61 72.74 33.45 C 73.98 33.50 75.21 33.54 76.45 33.59 C 76.54 33.01 76.71 31.87 76.80 31.30 C 69.89 30.81 62.93 31.07 56.00 31.18 Z" />
<path fill="#ffd174" opacity="1.00" d=" M 8.00 44.73 C 8.24 33.78 13.80 22.32 23.25 16.53 C 22.20 19.94 19.24 22.11 17.29 24.96 C 17.70 25.16 18.52 25.56 18.93 25.76 C 19.34 25.95 20.16 26.31 20.57 26.49 C 20.33 28.07 20.01 29.64 19.90 31.24 C 19.89 31.78 19.87 32.85 19.87 33.39 C 23.13 33.60 26.40 33.60 29.67 33.44 C 27.42 37.60 32.03 42.63 36.18 39.82 L 36.87 39.43 C 38.29 38.63 39.72 37.86 41.16 37.09 C 43.69 43.15 49.18 46.97 52.84 52.06 C 50.39 54.47 47.15 54.76 44.57 52.43 L 44.58 52.62 C 43.64 51.97 42.68 51.33 41.73 50.69 C 41.90 51.56 42.23 53.30 42.40 54.16 C 41.35 56.31 39.54 58.12 39.19 60.56 C 40.18 60.46 41.18 60.35 42.17 60.23 C 42.01 62.10 41.84 63.97 41.66 65.84 C 42.15 65.75 43.12 65.57 43.60 65.48 C 44.20 65.43 45.39 65.31 45.98 65.26 C 46.54 63.06 46.91 60.81 47.33 58.58 C 50.45 57.61 53.75 57.35 56.77 58.81 C 54.43 58.78 52.09 58.75 49.75 58.69 C 49.63 62.86 46.91 67.93 41.99 66.89 C 37.41 67.20 34.29 63.30 34.97 58.89 C 31.73 58.89 28.49 58.77 25.26 58.90 C 24.27 58.99 23.28 59.08 22.29 59.18 C 21.63 59.03 20.30 58.72 19.64 58.57 C 19.73 65.70 22.56 72.50 26.82 78.13 C 26.46 79.15 26.15 80.17 25.87 81.21 C 15.20 76.12 8.32 63.72 8.07 52.06 C 13.88 53.87 20.73 55.16 25.79 50.80 C 28.22 49.02 27.16 45.37 24.60 44.34 C 19.40 42.03 13.13 42.32 8.00 44.73 Z" />
<path fill="#9e2e09" opacity="1.00" d=" M 60.69 19.01 C 65.99 14.17 74.04 18.48 77.10 23.89 C 76.21 24.45 75.32 24.99 74.43 25.54 C 71.52 21.65 66.83 19.14 62.00 21.22 C 61.67 20.67 61.02 19.56 60.69 19.01 Z" />
<path fill="#9e2e09" opacity="1.00" d=" M 18.93 25.76 C 21.47 19.68 29.53 15.36 35.39 19.72 C 35.00 20.23 34.24 21.25 33.85 21.76 C 28.89 20.48 24.72 23.08 21.78 26.86 C 21.48 26.77 20.87 26.58 20.57 26.49 C 20.16 26.31 19.34 25.95 18.93 25.76 Z" />
<path fill="#1d1d1d" opacity="1.00" d=" M 19.90 31.24 C 26.89 30.94 33.91 30.94 40.90 31.23 C 40.83 31.80 40.68 32.93 40.61 33.50 C 39.46 33.48 38.31 33.48 37.17 33.48 C 33.86 34.40 35.09 37.66 36.18 39.82 C 32.03 42.63 27.42 37.60 29.67 33.44 C 26.40 33.60 23.13 33.60 19.87 33.39 C 19.87 32.85 19.89 31.78 19.90 31.24 Z" />
<path fill="#1d1d1d" opacity="1.00" d=" M 56.00 31.18 C 62.93 31.07 69.89 30.81 76.80 31.30 C 76.71 31.87 76.54 33.01 76.45 33.59 C 75.21 33.54 73.98 33.50 72.74 33.45 C 71.83 34.25 70.93 35.06 70.02 35.87 C 70.80 37.08 71.59 38.29 72.37 39.50 C 68.56 42.94 62.62 37.69 65.69 33.44 C 62.49 33.61 59.29 33.62 56.09 33.49 C 56.07 32.91 56.02 31.76 56.00 31.18 Z" />
<path fill="#868686" opacity="1.00" d=" M 36.18 39.82 C 35.09 37.66 33.86 34.40 37.17 33.48 C 37.89 35.47 38.06 37.59 36.87 39.43 L 36.18 39.82 Z" />
<path fill="#868686" opacity="1.00" d=" M 70.02 35.87 C 70.93 35.06 71.83 34.25 72.74 33.45 C 73.14 34.61 73.54 35.77 73.93 36.93 C 73.41 37.79 72.89 38.64 72.37 39.50 C 71.59 38.29 70.80 37.08 70.02 35.87 Z" />
<path fill="#ed8f3b" opacity="1.00" d=" M 9.70 48.98 C 10.52 42.77 21.00 43.14 23.69 48.00 C 20.79 53.13 13.11 53.37 9.70 48.98 Z" />
<path fill="#ed8f3b" opacity="1.00" d=" M 76.23 45.12 C 79.33 44.04 86.06 44.31 85.27 48.99 C 83.84 52.29 79.03 52.02 76.08 51.12 C 72.81 50.56 72.86 45.49 76.23 45.12 Z" />
<path fill="#6c0c0b" opacity="1.00" d=" M 41.73 50.69 C 42.68 51.33 43.64 51.97 44.58 52.62 L 44.57 52.43 C 45.15 53.75 45.71 55.08 46.27 56.42 C 50.39 54.78 54.93 55.16 59.13 56.29 C 58.71 57.14 58.29 58.00 57.87 58.85 C 57.60 58.84 57.05 58.82 56.77 58.81 C 53.75 57.35 50.45 57.61 47.33 58.58 C 46.91 60.81 46.54 63.06 45.98 65.26 C 45.39 65.31 44.20 65.43 43.60 65.48 C 43.92 61.66 44.93 57.49 42.40 54.16 C 42.23 53.30 41.90 51.56 41.73 50.69 Z" />
<path fill="#e26131" opacity="1.00" d=" M 42.40 54.16 C 44.93 57.49 43.92 61.66 43.60 65.48 C 43.12 65.57 42.15 65.75 41.66 65.84 C 41.84 63.97 42.01 62.10 42.17 60.23 C 41.18 60.35 40.18 60.46 39.19 60.56 C 39.54 58.12 41.35 56.31 42.40 54.16 Z" />
<path fill="#246755" opacity="1.00" d=" M 19.64 58.57 C 20.30 58.72 21.63 59.03 22.29 59.18 C 23.31 65.19 25.11 71.10 29.01 75.91 C 28.25 76.63 27.53 77.37 26.82 78.13 C 22.56 72.50 19.73 65.70 19.64 58.57 Z" />
<path fill="#1aa878" opacity="1.00" d=" M 22.29 59.18 C 23.28 59.08 24.27 58.99 25.26 58.90 C 25.42 64.91 27.75 70.80 31.95 75.13 C 30.96 75.36 29.98 75.62 29.01 75.91 C 25.11 71.10 23.31 65.19 22.29 59.18 Z" />
<path fill="#db4100" opacity="1.00" d=" M 25.26 58.90 C 28.49 58.77 31.73 58.89 34.97 58.89 C 34.29 63.30 37.41 67.20 41.99 66.89 C 46.91 67.93 49.63 62.86 49.75 58.69 C 52.09 58.75 54.43 58.78 56.77 58.81 C 57.05 58.82 57.60 58.84 57.87 58.85 C 64.08 58.84 70.30 58.84 76.51 58.84 C 76.23 64.83 73.94 70.67 69.89 75.11 C 66.50 75.68 62.70 77.09 62.12 80.97 C 56.79 83.75 50.49 84.45 44.70 82.81 C 43.47 77.39 37.21 74.08 31.95 75.13 C 27.75 70.80 25.42 64.91 25.26 58.90 M 27.60 60.37 C 28.20 61.87 32.08 61.73 32.70 60.37 C 31.18 59.67 29.10 59.56 27.60 60.37 M 51.09 60.00 L 50.48 61.22 C 58.41 61.38 66.35 61.24 74.28 61.30 L 74.27 60.08 C 66.54 60.33 58.79 59.48 51.09 60.00 M 68.68 68.39 C 72.36 68.95 70.93 64.91 71.16 62.69 C 67.67 62.21 68.65 66.23 68.68 68.39 M 31.87 63.73 C 32.05 66.03 30.28 70.70 34.14 70.25 C 33.92 67.96 35.64 63.43 31.87 63.73 M 58.72 69.80 C 58.94 71.34 59.22 72.90 59.94 74.31 C 60.48 74.00 61.56 73.38 62.10 73.07 C 62.08 71.58 62.07 70.09 62.05 68.60 C 60.94 69.00 59.83 69.40 58.72 69.80 M 41.82 69.72 C 40.83 71.50 40.69 73.50 40.80 75.50 C 41.52 75.31 42.97 74.93 43.70 74.74 C 43.84 73.51 43.98 72.28 44.13 71.06 C 43.55 70.73 42.40 70.06 41.82 69.72 M 50.93 70.75 C 49.59 72.78 49.66 75.21 50.79 77.32 C 51.35 76.97 52.48 76.27 53.04 75.92 C 53.04 74.63 53.03 73.33 53.03 72.03 C 52.51 71.71 51.46 71.07 50.93 70.75 Z" />
<path fill="#349065" opacity="1.00" d=" M 76.51 58.84 C 78.44 58.83 80.36 58.82 82.29 58.82 C 81.98 64.44 80.26 69.85 77.56 74.77 C 77.37 74.91 76.99 75.18 76.80 75.32 C 74.50 75.11 72.19 75.05 69.89 75.11 C 73.94 70.67 76.23 64.83 76.51 58.84 Z" />
<path fill="#e26131" opacity="1.00" d=" M 27.60 60.37 C 29.10 59.56 31.18 59.67 32.70 60.37 C 32.08 61.73 28.20 61.87 27.60 60.37 Z" />
<path fill="#e26131" opacity="1.00" d=" M 51.09 60.00 C 58.79 59.48 66.54 60.33 74.27 60.08 L 74.28 61.30 C 66.35 61.24 58.41 61.38 50.48 61.22 L 51.09 60.00 Z" />
<path fill="#6c0c0b" opacity="1.00" d=" M 68.68 68.39 C 68.65 66.23 67.67 62.21 71.16 62.69 C 70.93 64.91 72.36 68.95 68.68 68.39 Z" />
<path fill="#6c0c0b" opacity="1.00" d=" M 31.87 63.73 C 35.64 63.43 33.92 67.96 34.14 70.25 C 30.28 70.70 32.05 66.03 31.87 63.73 Z" />
<path fill="#6c0c0b" opacity="1.00" d=" M 58.72 69.80 C 59.83 69.40 60.94 69.00 62.05 68.60 C 62.07 70.09 62.08 71.58 62.10 73.07 C 61.56 73.38 60.48 74.00 59.94 74.31 C 59.22 72.90 58.94 71.34 58.72 69.80 Z" />
<path fill="#6c0c0b" opacity="1.00" d=" M 41.82 69.72 C 42.40 70.06 43.55 70.73 44.13 71.06 C 43.98 72.28 43.84 73.51 43.70 74.74 C 42.97 74.93 41.52 75.31 40.80 75.50 C 40.69 73.50 40.83 71.50 41.82 69.72 Z" />
<path fill="#6c0c0b" opacity="1.00" d=" M 50.93 70.75 C 51.46 71.07 52.51 71.71 53.03 72.03 C 53.03 73.33 53.04 74.63 53.04 75.92 C 52.48 76.27 51.35 76.97 50.79 77.32 C 49.66 75.21 49.59 72.78 50.93 70.75 Z" />
<path fill="#ed8f3b" opacity="1.00" d=" M 31.95 75.13 C 37.21 74.08 43.47 77.39 44.70 82.81 C 44.37 83.35 43.70 84.45 43.37 85.00 C 42.33 85.93 41.24 86.80 40.17 87.70 C 37.80 87.99 35.44 88.45 33.04 88.31 C 30.28 87.93 27.75 86.69 25.77 84.73 C 25.79 83.56 25.82 82.38 25.87 81.21 C 26.15 80.17 26.46 79.15 26.82 78.13 C 27.53 77.37 28.25 76.63 29.01 75.91 C 29.98 75.62 30.96 75.36 31.95 75.13 M 31.44 77.51 C 27.76 78.20 26.70 84.12 30.44 85.51 C 34.14 86.12 38.72 86.41 41.68 83.69 C 42.36 78.97 35.37 76.51 31.44 77.51 Z" />
<path fill="#ed8f3b" opacity="1.00" d=" M 62.12 80.97 C 62.70 77.09 66.50 75.68 69.89 75.11 C 72.19 75.05 74.50 75.11 76.80 75.32 C 77.73 75.89 78.66 76.50 79.54 77.17 C 82.07 80.16 81.33 85.07 77.90 87.03 C 74.41 89.10 70.28 87.73 66.75 86.54 C 66.45 86.32 65.85 85.89 65.55 85.67 C 64.71 84.82 63.91 83.93 63.16 83.01 C 62.90 82.50 62.38 81.48 62.12 80.97 M 65.18 79.15 C 65.21 80.37 65.24 81.59 65.26 82.81 C 68.51 84.74 72.47 87.07 76.30 85.26 C 79.78 84.34 79.71 78.95 76.59 77.61 C 72.76 76.88 68.60 77.10 65.18 79.15 Z" />
<path fill="#fdea77" opacity="1.00" d=" M 31.44 77.51 C 35.37 76.51 42.36 78.97 41.68 83.69 C 38.72 86.41 34.14 86.12 30.44 85.51 C 26.70 84.12 27.76 78.20 31.44 77.51 Z" />
<path fill="#fdea77" opacity="1.00" d=" M 65.18 79.15 C 68.60 77.10 72.76 76.88 76.59 77.61 C 79.71 78.95 79.78 84.34 76.30 85.26 C 72.47 87.07 68.51 84.74 65.26 82.81 C 65.24 81.59 65.21 80.37 65.18 79.15 Z" />
<path fill="#1aa878" opacity="1.00" d=" M 44.70 82.81 C 50.49 84.45 56.79 83.75 62.12 80.97 C 62.38 81.48 62.90 82.50 63.16 83.01 C 57.18 86.46 49.94 86.14 43.37 85.00 C 43.70 84.45 44.37 83.35 44.70 82.81 Z" />
<path fill="#349065" opacity="1.00" d=" M 63.16 83.01 C 63.91 83.93 64.71 84.82 65.55 85.67 C 57.71 89.68 48.55 90.35 40.17 87.70 C 41.24 86.80 42.33 85.93 43.37 85.00 C 49.94 86.14 57.18 86.46 63.16 83.01 Z" />
<path fill="#f19f56" opacity="1.00" d=" M 65.55 85.67 C 65.85 85.89 66.45 86.32 66.75 86.54 C 56.55 92.05 43.82 92.35 33.04 88.31 C 35.44 88.45 37.80 87.99 40.17 87.70 C 48.55 90.35 57.71 89.68 65.55 85.67 Z" />
</svg>
