<?xml version="1.0" encoding="UTF-8" ?>
<!DOCTYPE svg PUBLIC "-//W3C//DTD SVG 1.1//EN" "http://www.w3.org/Graphics/SVG/1.1/DTD/svg11.dtd">
<svg width="96pt" height="96pt" viewBox="0 0 96 96" version="1.1" xmlns="http://www.w3.org/2000/svg">
<g id="#efa356ff">
<path fill="#efa356" opacity="1.00" d=" M 31.03 8.78 C 41.32 3.96 53.85 3.85 64.26 8.40 C 63.20 9.27 62.19 10.19 61.22 11.16 C 61.08 10.73 60.82 9.88 60.69 9.45 C 53.11 6.85 44.70 6.87 36.99 8.92 C 35.65 9.16 34.59 10.00 33.58 10.86 C 32.74 10.15 31.89 9.45 31.03 8.78 Z" />
<path fill="#efa356" opacity="1.00" d=" M 72.28 15.38 C 72.97 15.19 74.35 14.83 75.04 14.65 C 85.04 22.57 91.25 35.24 90.93 48.04 C 91.24 58.64 87.02 69.14 79.94 76.96 C 71.92 85.84 60.04 91.30 48.02 90.94 C 34.33 91.32 20.88 84.16 13.05 73.02 C 7.06 64.69 4.25 54.15 5.30 43.95 C 6.30 32.86 11.85 22.15 20.57 15.17 C 21.19 15.29 22.43 15.54 23.05 15.66 C 19.06 19.51 15.02 23.43 12.44 28.41 C 6.97 38.10 5.96 50.07 9.30 60.64 C 12.39 70.09 19.01 78.38 27.65 83.32 C 35.81 88.08 45.69 89.87 55.00 88.22 C 69.09 85.87 81.66 75.51 86.33 61.96 C 92.54 45.51 86.55 25.63 72.28 15.38 Z" />
<path fill="#efa356" opacity="1.00" d=" M 14.23 35.36 C 18.42 33.23 26.14 36.12 24.56 41.68 C 22.23 47.33 11.66 47.03 10.42 40.65 C 10.07 38.23 12.11 36.16 14.23 35.36 M 14.30 37.46 C 12.45 38.63 12.79 42.27 14.96 43.02 C 17.34 44.56 22.26 43.43 21.85 40.00 C 22.17 36.05 16.78 36.74 14.30 37.46 Z" />
<path fill="#efa356" opacity="1.00" d=" M 75.41 35.57 C 79.61 33.41 87.30 36.02 85.70 41.71 C 83.45 46.86 74.62 46.83 72.21 41.87 C 70.68 39.35 73.01 36.42 75.41 35.57 Z" />
</g>
<g id="#9e3c12fd">
<path fill="#9e3c12" opacity="1.00" d=" M 20.57 15.17 C 20.39 11.99 22.20 8.75 25.07 7.34 C 27.17 6.58 29.39 7.42 31.03 8.78 C 31.89 9.45 32.74 10.15 33.58 10.86 C 33.78 11.63 34.18 13.18 34.38 13.95 C 31.77 14.44 30.07 12.26 27.92 11.30 C 25.33 11.10 24.30 13.93 23.05 15.66 C 22.43 15.54 21.19 15.29 20.57 15.17 Z" />
<path fill="#9e3c12" opacity="1.00" d=" M 64.26 8.40 C 66.11 7.02 68.70 5.96 70.91 7.17 C 73.52 8.70 74.75 11.76 75.04 14.65 C 74.35 14.83 72.97 15.19 72.28 15.38 C 71.24 14.02 70.52 12.47 69.61 11.04 C 69.53 10.92 69.36 10.67 69.27 10.55 L 69.12 11.05 C 66.06 10.54 64.09 14.64 61.29 13.20 C 61.27 12.69 61.24 11.67 61.22 11.16 C 62.19 10.19 63.20 9.27 64.26 8.40 Z" />
<path fill="#9e3c12" opacity="1.00" d=" M 21.26 47.21 C 29.91 46.85 38.58 47.16 47.23 46.92 C 56.51 47.04 65.79 46.82 75.07 46.93 C 77.74 46.84 80.88 48.18 81.48 51.03 C 82.28 54.40 81.42 57.88 80.39 61.09 C 75.70 73.36 62.68 80.54 50.02 81.36 C 37.70 82.02 24.99 76.04 18.36 65.49 C 15.98 61.47 14.42 56.73 14.87 52.02 C 15.26 48.92 18.40 47.29 21.26 47.21 M 17.18 51.15 C 15.61 59.73 21.39 67.85 28.02 72.74 C 27.78 64.89 27.58 57.04 27.60 49.18 C 24.20 49.41 19.56 48.01 17.18 51.15 M 30.48 49.08 C 30.78 57.62 30.51 66.20 31.08 74.73 C 34.03 76.22 37.08 77.54 40.34 78.18 C 40.20 68.47 39.84 58.78 39.86 49.07 C 36.73 49.06 33.61 49.06 30.48 49.08 M 42.78 49.05 C 42.88 58.97 43.25 68.87 43.29 78.79 C 46.81 79.28 50.36 79.10 53.88 78.70 C 53.77 68.82 53.76 58.94 53.68 49.06 C 50.05 48.92 46.41 49.09 42.78 49.05 M 56.59 48.98 C 56.63 58.67 56.69 68.35 56.79 78.03 C 60.48 77.11 63.95 75.52 67.27 73.67 C 67.21 65.42 67.00 57.17 66.90 48.92 C 63.46 48.91 60.03 48.91 56.59 48.98 M 69.79 48.93 C 69.86 56.46 70.04 63.98 70.13 71.51 C 75.95 66.90 80.29 59.65 79.71 52.04 C 78.88 47.55 73.06 49.18 69.79 48.93 Z" />
</g>
<g id="#fdeb78ff">
<path fill="#fdeb78" opacity="1.00" d=" M 36.99 8.92 C 44.70 6.87 53.11 6.85 60.69 9.45 C 60.82 9.88 61.08 10.73 61.22 11.16 C 61.24 11.67 61.27 12.69 61.29 13.20 C 64.09 14.64 66.06 10.54 69.12 11.05 L 69.61 11.04 C 70.52 12.47 71.24 14.02 72.28 15.38 C 86.55 25.63 92.54 45.51 86.33 61.96 C 84.35 61.65 82.37 61.38 80.39 61.09 C 81.42 57.88 82.28 54.40 81.48 51.03 C 80.88 48.18 77.74 46.84 75.07 46.93 C 65.79 46.82 56.51 47.04 47.23 46.92 C 44.30 46.59 41.37 46.24 38.43 46.06 C 38.83 45.30 39.22 44.55 39.62 43.80 C 38.56 40.37 34.66 36.97 37.02 33.33 C 38.78 27.55 32.20 22.88 26.94 24.58 C 28.33 22.90 30.49 22.65 32.49 22.29 C 33.35 19.57 33.98 16.78 34.38 13.95 C 34.18 13.18 33.78 11.63 33.58 10.86 C 34.59 10.00 35.65 9.16 36.99 8.92 M 59.44 28.43 C 58.91 29.83 57.61 32.82 60.15 33.04 C 60.99 30.63 62.21 27.78 65.08 27.36 C 68.57 26.48 71.78 29.49 72.02 32.88 C 75.07 33.36 73.72 29.55 72.86 28.02 C 70.19 22.82 61.79 23.11 59.44 28.43 M 75.41 35.57 C 73.01 36.42 70.68 39.35 72.21 41.87 C 74.62 46.83 83.45 46.86 85.70 41.71 C 87.30 36.02 79.61 33.41 75.41 35.57 Z" />
</g>
<g id="#1e1d1dfa">
<path fill="#1e1d1d" opacity="0.98" d=" M 69.27 10.55 C 69.36 10.67 69.53 10.92 69.61 11.04 L 69.12 11.05 L 69.27 10.55 Z" />
<path fill="#1e1d1d" opacity="0.98" d=" M 26.94 24.58 C 32.20 22.88 38.78 27.55 37.02 33.33 C 34.65 32.49 34.94 29.20 32.68 28.20 C 30.42 26.72 27.08 27.21 25.49 29.45 C 24.64 30.86 23.82 32.28 22.94 33.68 C 20.81 30.06 24.01 26.44 26.94 24.58 Z" />
<path fill="#1e1d1d" opacity="0.98" d=" M 59.44 28.43 C 61.79 23.11 70.19 22.82 72.86 28.02 C 73.72 29.55 75.07 33.36 72.02 32.88 C 71.78 29.49 68.57 26.48 65.08 27.36 C 62.21 27.78 60.99 30.63 60.15 33.04 C 57.61 32.82 58.91 29.83 59.44 28.43 Z" />
</g>
<g id="#ffce74ff">
<path fill="#ffce74" opacity="1.00" d=" M 23.05 15.66 C 24.30 13.93 25.33 11.10 27.92 11.30 C 30.07 12.26 31.77 14.44 34.38 13.95 C 33.98 16.78 33.35 19.57 32.49 22.29 C 30.49 22.65 28.33 22.90 26.94 24.58 C 24.01 26.44 20.81 30.06 22.94 33.68 C 23.82 32.28 24.64 30.86 25.49 29.45 C 27.08 27.21 30.42 26.72 32.68 28.20 C 34.94 29.20 34.65 32.49 37.02 33.33 C 34.66 36.97 38.56 40.37 39.62 43.80 C 39.22 44.55 38.83 45.30 38.43 46.06 C 41.37 46.24 44.30 46.59 47.23 46.92 C 38.58 47.16 29.91 46.85 21.26 47.21 C 18.40 47.29 15.26 48.92 14.87 52.02 C 14.42 56.73 15.98 61.47 18.36 65.49 C 24.99 76.04 37.70 82.02 50.02 81.36 C 62.68 80.54 75.70 73.36 80.39 61.09 C 82.37 61.38 84.35 61.65 86.33 61.96 C 81.66 75.51 69.09 85.87 55.00 88.22 C 45.69 89.87 35.81 88.08 27.65 83.32 C 19.01 78.38 12.39 70.09 9.30 60.64 C 5.96 50.07 6.97 38.10 12.44 28.41 C 15.02 23.43 19.06 19.51 23.05 15.66 M 14.23 35.36 C 12.11 36.16 10.07 38.23 10.42 40.65 C 11.66 47.03 22.23 47.33 24.56 41.68 C 26.14 36.12 18.42 33.23 14.23 35.36 Z" />
</g>
<g id="#ec903dff">
<path fill="#ec903d" opacity="1.00" d=" M 14.30 37.46 C 16.78 36.74 22.17 36.05 21.85 40.00 C 22.26 43.43 17.34 44.56 14.96 43.02 C 12.79 42.27 12.45 38.63 14.30 37.46 Z" />
</g>
<g id="#ffffffff">
<path fill="#ffffff" opacity="1.00" d=" M 17.18 51.15 C 19.56 48.01 24.20 49.41 27.60 49.18 C 27.58 57.04 27.78 64.89 28.02 72.74 C 21.39 67.85 15.61 59.73 17.18 51.15 Z" />
<path fill="#ffffff" opacity="1.00" d=" M 30.48 49.08 C 33.61 49.06 36.73 49.06 39.86 49.07 C 39.84 58.78 40.20 68.47 40.34 78.18 C 37.08 77.54 34.03 76.22 31.08 74.73 C 30.51 66.20 30.78 57.62 30.48 49.08 Z" />
<path fill="#ffffff" opacity="1.00" d=" M 42.78 49.05 C 46.41 49.09 50.05 48.92 53.68 49.06 C 53.76 58.94 53.77 68.82 53.88 78.70 C 50.36 79.10 46.81 79.28 43.29 78.79 C 43.25 68.87 42.88 58.97 42.78 49.05 Z" />
<path fill="#ffffff" opacity="1.00" d=" M 56.59 48.98 C 60.03 48.91 63.46 48.91 66.90 48.92 C 67.00 57.17 67.21 65.42 67.27 73.67 C 63.95 75.52 60.48 77.11 56.79 78.03 C 56.69 68.35 56.63 58.67 56.59 48.98 Z" />
<path fill="#ffffff" opacity="1.00" d=" M 69.79 48.93 C 73.06 49.18 78.88 47.55 79.71 52.04 C 80.29 59.65 75.95 66.90 70.13 71.51 C 70.04 63.98 69.86 56.46 69.79 48.93 Z" />
</g>
</svg>
