<?xml version="1.0" encoding="UTF-8" ?>
<!DOCTYPE svg PUBLIC "-//W3C//DTD SVG 1.1//EN" "http://www.w3.org/Graphics/SVG/1.1/DTD/svg11.dtd">
<svg width="96pt" height="96pt" viewBox="0 0 96 96" version="1.1" xmlns="http://www.w3.org/2000/svg">
<path fill="#f0a054" opacity="1.00" d=" M 0.00 0.00 L 0.29 0.00 C 0.21 0.07 0.07 0.22 0.00 0.29 L 0.00 0.00 Z" />
<path fill="#ffffff" opacity="1.00" d=" M 41.81 8.97 C 44.70 6.76 49.82 7.96 53.51 8.22 L 54.04 8.90 C 50.30 8.98 46.51 9.02 42.85 9.87 C 42.82 10.37 42.76 11.38 42.73 11.88 C 46.59 11.96 50.47 11.80 54.33 12.01 C 54.24 14.07 54.14 16.13 53.98 18.18 C 50.27 18.34 46.55 18.36 42.84 18.14 C 42.63 15.64 42.22 13.17 41.73 10.71 C 41.75 10.28 41.79 9.40 41.81 8.97 Z" />
<path fill="#f0a054" opacity="1.00" d=" M 53.51 8.22 C 57.63 8.58 61.28 10.63 65.03 12.17 C 64.83 12.60 64.42 13.47 64.21 13.90 C 61.54 12.16 58.50 11.15 55.37 10.60 C 55.04 10.18 54.37 9.33 54.04 8.90 L 53.51 8.22 Z" />
<path fill="#f0a054" opacity="1.00" d=" M 30.76 12.22 C 34.29 10.83 37.85 8.25 41.81 8.97 C 41.79 9.40 41.75 10.28 41.73 10.71 C 38.19 11.12 34.58 11.86 31.71 14.11 C 31.47 13.64 31.00 12.70 30.76 12.22 Z" />
<path fill="#069ee7" opacity="1.00" d=" M 42.85 9.87 C 46.51 9.02 50.30 8.98 54.04 8.90 C 54.37 9.33 55.04 10.18 55.37 10.60 C 55.11 10.95 54.59 11.66 54.33 12.01 C 50.47 11.80 46.59 11.96 42.73 11.88 C 42.76 11.38 42.82 10.37 42.85 9.87 Z" />
<path fill="#923314" opacity="0.98" d=" M 65.03 12.17 C 67.65 7.48 75.30 9.59 75.23 15.01 C 72.98 14.05 70.40 12.15 67.94 13.65 C 67.65 13.83 67.07 14.18 66.78 14.36 C 65.89 15.82 66.16 18.27 64.36 18.97 C 64.23 17.28 64.21 15.59 64.21 13.90 C 64.42 13.47 64.83 12.60 65.03 12.17 Z" />
<path fill="#923314" opacity="0.98" d=" M 20.81 15.12 C 20.35 10.15 28.37 8.84 30.76 12.22 C 31.00 12.70 31.47 13.64 31.71 14.11 C 31.64 15.80 31.55 17.53 30.71 19.05 C 30.21 17.50 29.79 15.93 29.17 14.43 C 28.89 14.21 28.35 13.77 28.08 13.55 C 25.66 10.76 23.12 14.09 20.81 15.12 Z" />
<path fill="#fed775" opacity="1.00" d=" M 31.71 14.11 C 34.58 11.86 38.19 11.12 41.73 10.71 C 42.22 13.17 42.63 15.64 42.84 18.14 C 42.51 20.35 42.23 22.57 41.95 24.79 C 41.57 26.54 41.18 28.28 40.70 30.01 C 35.05 23.83 26.47 23.48 18.69 23.93 C 20.49 19.37 25.25 16.94 29.17 14.43 C 29.79 15.93 30.21 17.50 30.71 19.05 C 31.55 17.53 31.64 15.80 31.71 14.11 Z" />
<path fill="#fed775" opacity="1.00" d=" M 55.37 10.60 C 58.50 11.15 61.54 12.16 64.21 13.90 C 64.21 15.59 64.23 17.28 64.36 18.97 C 66.16 18.27 65.89 15.82 66.78 14.36 C 71.48 17.23 76.50 20.21 79.29 25.15 C 71.40 23.17 62.47 22.94 55.95 28.53 C 55.55 27.32 55.15 26.11 54.75 24.90 C 53.99 22.74 53.78 20.46 53.98 18.18 C 54.14 16.13 54.24 14.07 54.33 12.01 C 54.59 11.66 55.11 10.95 55.37 10.60 Z" />
<path fill="#f0a054" opacity="1.00" d=" M 15.89 24.92 C 18.21 19.65 23.38 16.48 28.08 13.55 C 28.35 13.77 28.89 14.21 29.17 14.43 C 25.25 16.94 20.49 19.37 18.69 23.93 C 17.76 24.26 16.82 24.60 15.89 24.92 Z" />
<path fill="#f0a054" opacity="1.00" d=" M 66.78 14.36 C 67.07 14.18 67.65 13.83 67.94 13.65 C 72.99 16.42 77.89 20.19 81.15 24.92 L 80.53 25.68 L 79.80 25.38 C 79.67 25.32 79.42 25.21 79.29 25.15 C 76.50 20.21 71.48 17.23 66.78 14.36 Z" />
<path fill="#29abe2" opacity="1.00" d=" M 42.84 18.14 C 46.55 18.36 50.27 18.34 53.98 18.18 C 53.78 20.46 53.99 22.74 54.75 24.90 C 50.50 24.43 46.21 24.55 41.95 24.79 C 42.23 22.57 42.51 20.35 42.84 18.14 Z" />
<path fill="#1f1f1f" opacity="1.00" d=" M 15.89 24.92 C 16.82 24.60 17.76 24.26 18.69 23.93 C 26.47 23.48 35.05 23.83 40.70 30.01 L 40.46 30.87 C 32.65 25.45 20.70 22.54 12.75 29.08 C 12.38 29.39 12.38 29.39 12.75 29.08 C 15.76 28.20 16.92 30.96 18.38 32.95 C 23.78 33.95 30.02 31.61 34.80 35.22 C 34.95 35.62 35.26 36.42 35.41 36.82 C 27.98 33.71 19.51 34.79 12.07 37.31 C 11.59 36.95 10.62 36.24 10.14 35.89 C 7.91 31.16 10.93 25.96 15.89 24.92 Z" />
<path fill="#1f1f1f" opacity="1.00" d=" M 55.95 28.53 C 62.47 22.94 71.40 23.17 79.29 25.15 C 79.42 25.21 79.67 25.32 79.80 25.38 L 80.53 25.68 C 85.42 27.62 88.84 32.53 87.02 37.86 L 86.14 37.88 C 81.36 38.75 77.88 34.07 73.09 35.06 C 68.98 35.67 63.39 33.40 60.68 37.58 C 59.24 35.93 58.26 33.95 57.16 32.08 C 56.73 30.91 56.31 29.73 55.95 28.53 M 62.29 26.39 C 61.08 26.86 60.03 27.63 59.04 28.46 C 61.32 29.42 62.91 31.16 63.22 33.66 C 68.13 33.10 73.28 32.46 78.08 33.98 C 80.66 34.76 83.14 38.27 85.87 35.93 C 86.31 34.00 86.19 31.78 84.43 30.54 C 78.48 25.38 69.68 24.43 62.29 26.39 Z" />
<path fill="#ffffff" opacity="1.00" d=" M 41.95 24.79 C 46.21 24.55 50.50 24.43 54.75 24.90 C 55.15 26.11 55.55 27.32 55.95 28.53 C 56.31 29.73 56.73 30.91 57.16 32.08 C 52.02 32.59 46.80 31.92 41.71 32.81 C 39.03 33.11 37.65 37.40 34.80 35.22 C 30.02 31.61 23.78 33.95 18.38 32.95 C 16.92 30.96 15.76 28.20 12.75 29.08 C 20.70 22.54 32.65 25.45 40.46 30.87 L 40.70 30.01 C 41.18 28.28 41.57 26.54 41.95 24.79 Z" />
<path fill="#fed775" opacity="1.00" d=" M 79.29 25.15 C 79.42 25.21 79.67 25.32 79.80 25.38 C 79.67 25.32 79.42 25.21 79.29 25.15 Z" />
<path fill="#ffffff" opacity="1.00" d=" M 62.29 26.39 C 69.68 24.43 78.48 25.38 84.43 30.54 C 86.19 31.78 86.31 34.00 85.87 35.93 C 83.14 38.27 80.66 34.76 78.08 33.98 C 73.28 32.46 68.13 33.10 63.22 33.66 C 62.91 31.16 61.32 29.42 59.04 28.46 C 60.03 27.63 61.08 26.86 62.29 26.39 Z" />
<path fill="#ffffff" opacity="1.00" d=" M 12.75 29.08 C 12.38 29.39 12.38 29.39 12.75 29.08 Z" />
<path fill="#29abe2" opacity="1.00" d=" M 41.71 32.81 C 46.80 31.92 52.02 32.59 57.16 32.08 C 58.26 33.95 59.24 35.93 60.68 37.58 C 61.46 38.35 62.28 39.08 63.14 39.77 C 53.14 37.53 42.69 38.63 32.74 40.64 C 33.75 39.51 36.64 38.68 35.41 36.82 C 35.26 36.42 34.95 35.62 34.80 35.22 C 37.65 37.40 39.03 33.11 41.71 32.81 Z" />
<path fill="#fed775" opacity="1.00" d=" M 12.07 37.31 C 19.51 34.79 27.98 33.71 35.41 36.82 C 36.64 38.68 33.75 39.51 32.74 40.64 C 30.83 41.68 28.99 42.85 26.97 43.69 C 23.81 39.65 17.85 39.11 13.57 41.59 C 11.88 42.49 12.67 44.66 12.35 46.18 L 11.75 46.73 C 11.26 46.74 10.28 46.77 9.79 46.78 C 9.43 43.43 9.81 39.97 12.07 37.31 Z" />
<path fill="#fed775" opacity="1.00" d=" M 60.68 37.58 C 63.39 33.40 68.98 35.67 73.09 35.06 C 77.88 34.07 81.36 38.75 86.14 37.88 C 88.01 40.84 86.48 44.31 87.00 47.55 C 84.62 47.06 82.22 46.72 79.82 46.40 C 81.12 46.11 82.41 45.78 83.67 45.34 C 84.77 40.41 78.39 39.89 74.99 40.22 C 72.52 39.84 71.11 41.89 69.84 43.64 C 67.49 42.56 65.33 41.13 63.14 39.77 C 62.28 39.08 61.46 38.35 60.68 37.58 Z" />
<path fill="#f0a054" opacity="1.00" d=" M 10.14 35.89 C 10.62 36.24 11.59 36.95 12.07 37.31 C 9.81 39.97 9.43 43.43 9.79 46.78 C 9.34 46.81 8.42 46.86 7.97 46.89 C 7.08 43.01 8.67 39.38 10.14 35.89 Z" />
<path fill="#f0a054" opacity="1.00" d=" M 86.14 37.88 L 87.02 37.86 L 88.01 37.87 C 88.18 41.34 88.72 44.91 87.84 48.32 L 87.00 47.55 C 86.48 44.31 88.01 40.84 86.14 37.88 Z" />
<path fill="#ffffff" opacity="1.00" d=" M 32.74 40.64 C 42.69 38.63 53.14 37.53 63.14 39.77 C 65.33 41.13 67.49 42.56 69.84 43.64 C 72.98 45.12 76.38 46.00 79.82 46.40 C 82.22 46.72 84.62 47.06 87.00 47.55 L 87.84 48.32 C 88.63 50.81 88.36 53.53 87.99 56.08 C 87.37 56.05 86.14 56.00 85.53 55.98 C 76.87 53.54 68.05 51.35 58.99 51.44 C 49.60 50.15 40.03 50.59 30.73 52.34 C 23.07 53.14 15.33 53.72 7.86 55.76 C 6.28 55.22 6.16 47.78 7.97 46.89 C 8.42 46.86 9.34 46.81 9.79 46.78 C 10.28 46.77 11.26 46.74 11.75 46.73 C 15.74 47.00 19.62 46.06 23.35 44.77 C 24.57 44.45 25.79 44.12 26.97 43.69 C 28.99 42.85 30.83 41.68 32.74 40.64 M 49.55 42.54 C 48.31 43.56 47.49 44.98 46.37 46.12 C 45.59 45.14 44.85 44.13 44.09 43.15 C 44.68 44.53 45.14 46.02 46.11 47.20 C 47.94 47.07 49.73 47.43 51.54 47.55 C 53.98 46.18 52.61 41.01 49.55 42.54 Z" />
<path fill="#f0a054" opacity="1.00" d=" M 13.57 41.59 C 17.85 39.11 23.81 39.65 26.97 43.69 C 25.79 44.12 24.57 44.45 23.35 44.77 C 21.94 43.35 20.50 41.00 18.13 41.76 C 16.03 42.99 14.22 44.63 12.35 46.18 C 12.67 44.66 11.88 42.49 13.57 41.59 Z" />
<path fill="#ed8e3a" opacity="1.00" d=" M 69.84 43.64 C 71.11 41.89 72.52 39.84 74.99 40.22 C 78.39 39.89 84.77 40.41 83.67 45.34 C 82.41 45.78 81.12 46.11 79.82 46.40 C 76.38 46.00 72.98 45.12 69.84 43.64 Z" />
<path fill="#ed8e3a" opacity="1.00" d=" M 12.35 46.18 C 14.22 44.63 16.03 42.99 18.13 41.76 C 20.50 41.00 21.94 43.35 23.35 44.77 C 19.62 46.06 15.74 47.00 11.75 46.73 L 12.35 46.18 Z" />
<path fill="#bce0f0" opacity="1.00" d=" M 49.55 42.54 C 52.61 41.01 53.98 46.18 51.54 47.55 C 49.73 47.43 47.94 47.07 46.11 47.20 C 45.14 46.02 44.68 44.53 44.09 43.15 C 44.85 44.13 45.59 45.14 46.37 46.12 C 47.49 44.98 48.31 43.56 49.55 42.54 M 50.11 42.84 C 49.27 43.69 47.56 44.48 47.87 45.90 C 48.97 46.25 50.66 48.06 51.59 46.64 C 53.31 45.61 52.01 42.26 50.11 42.84 Z" />
<path fill="#ffffff" opacity="1.00" d=" M 50.11 42.84 C 52.01 42.26 53.31 45.61 51.59 46.64 C 50.66 48.06 48.97 46.25 47.87 45.90 C 47.56 44.48 49.27 43.69 50.11 42.84 Z" />
<path fill="#069ee7" opacity="1.00" d=" M 30.73 52.34 C 40.03 50.59 49.60 50.15 58.99 51.44 C 68.05 51.35 76.87 53.54 85.53 55.98 L 85.37 56.93 C 82.42 56.73 79.48 56.59 76.53 56.49 C 76.02 56.36 74.99 56.10 74.48 55.98 C 56.87 51.73 38.42 52.82 20.74 56.08 C 20.33 56.12 19.50 56.21 19.08 56.25 C 16.24 56.47 13.40 56.72 10.56 56.90 C 10.09 56.91 9.17 56.92 8.71 56.93 L 7.66 56.91 L 7.86 55.76 C 15.33 53.72 23.07 53.14 30.73 52.34 Z" />
<path fill="#fed775" opacity="1.00" d=" M 20.74 56.08 C 38.42 52.82 56.87 51.73 74.48 55.98 C 72.62 68.35 58.59 75.12 47.07 74.46 C 35.56 74.95 23.65 67.55 20.74 56.08 Z" />
<path fill="#fed775" opacity="1.00" d=" M 10.56 56.90 C 13.40 56.72 16.24 56.47 19.08 56.25 C 20.72 66.07 28.97 73.83 38.35 76.41 C 48.09 78.70 59.06 77.45 67.15 71.25 C 71.91 67.60 74.91 62.18 76.53 56.49 C 79.48 56.59 82.42 56.73 85.37 56.93 C 83.14 70.59 71.93 82.36 58.54 85.72 C 38.36 92.38 13.98 78.01 10.56 56.90 Z" />
<path fill="#680402" opacity="1.00" d=" M 19.08 56.25 C 19.50 56.21 20.33 56.12 20.74 56.08 C 23.65 67.55 35.56 74.95 47.07 74.46 C 58.59 75.12 72.62 68.35 74.48 55.98 C 74.99 56.10 76.02 56.36 76.53 56.49 C 74.91 62.18 71.91 67.60 67.15 71.25 C 59.06 77.45 48.09 78.70 38.35 76.41 C 28.97 73.83 20.72 66.07 19.08 56.25 Z" />
<path fill="#f0a054" opacity="1.00" d=" M 85.53 55.98 C 86.14 56.00 87.37 56.05 87.99 56.08 C 84.24 74.19 67.27 90.64 48.00 89.19 C 35.38 90.02 23.55 82.71 15.95 73.08 C 12.60 68.24 8.96 63.02 8.71 56.93 C 9.17 56.92 10.09 56.91 10.56 56.90 C 13.98 78.01 38.36 92.38 58.54 85.72 C 71.93 82.36 83.14 70.59 85.37 56.93 L 85.53 55.98 Z" />
</svg>
