<?xml version="1.0" encoding="UTF-8" ?>
<!DOCTYPE svg PUBLIC "-//W3C//DTD SVG 1.1//EN" "http://www.w3.org/Graphics/SVG/1.1/DTD/svg11.dtd">
<svg width="96pt" height="96pt" viewBox="0 0 96 96" version="1.1" xmlns="http://www.w3.org/2000/svg">
<g id="#f9b10fff">
<path fill="#f9b10f" opacity="1.00" d=" M 26.74 10.43 C 34.26 6.04 43.26 4.12 51.93 4.76 L 51.07 5.25 C 49.83 5.94 48.60 6.65 47.39 7.38 C 49.64 9.32 52.57 10.00 55.36 10.76 C 54.68 10.92 53.31 11.23 52.63 11.39 C 46.86 10.89 41.24 12.34 35.58 13.11 C 31.68 13.18 28.18 15.00 25.13 17.27 C 25.59 14.98 26.12 12.69 26.74 10.43 Z" />
</g>
<g id="#fabf10ff">
<path fill="#fabf10" opacity="1.00" d=" M 47.39 7.38 C 48.60 6.65 49.83 5.94 51.07 5.25 C 58.78 5.04 66.34 8.33 72.68 12.58 C 72.33 14.49 71.98 16.40 71.63 18.32 C 66.88 14.57 61.16 12.32 55.36 10.76 C 52.57 10.00 49.64 9.32 47.39 7.38 Z" />
</g>
<g id="#f8a40eff">
<path fill="#f8a40e" opacity="1.00" d=" M 4.73 49.98 C 4.03 34.12 12.64 17.98 26.74 10.43 C 26.12 12.69 25.59 14.98 25.13 17.27 C 19.32 22.35 14.16 28.47 11.82 35.94 C 8.62 45.16 9.37 55.62 13.67 64.36 C 14.49 66.01 16.04 67.08 17.33 68.33 C 17.85 69.01 18.37 69.69 18.89 70.37 C 19.50 71.86 20.06 73.37 20.74 74.84 C 20.01 76.46 19.29 78.08 18.56 79.71 C 10.48 71.95 5.41 61.17 4.73 49.98 Z" />
</g>
<g id="#f8be0fff">
<path fill="#f8be0f" opacity="1.00" d=" M 35.58 13.11 C 41.24 12.34 46.86 10.89 52.63 11.39 C 54.24 11.71 55.85 12.06 57.45 12.48 C 57.14 18.01 56.44 23.52 54.93 28.86 C 53.99 31.77 54.18 34.85 54.90 37.79 C 54.17 39.27 53.50 40.78 52.80 42.28 C 48.31 39.69 44.58 35.61 39.40 34.37 C 36.05 33.44 32.51 33.93 29.22 34.85 C 29.87 27.98 31.53 21.30 32.96 14.58 C 33.83 14.08 34.70 13.59 35.58 13.11 Z" />
</g>
<g id="#f9ca65ff">
<path fill="#f9ca65" opacity="1.00" d=" M 52.63 11.39 C 53.31 11.23 54.68 10.92 55.36 10.76 C 61.16 12.32 66.88 14.57 71.63 18.32 C 80.76 25.58 86.45 37.26 85.96 48.98 C 85.94 56.51 83.16 63.88 78.88 70.00 C 73.38 77.98 64.49 83.24 55.12 85.30 C 53.52 85.07 51.93 84.78 50.34 84.55 C 54.87 83.76 59.45 82.83 63.64 80.84 C 73.80 75.86 81.60 66.10 83.60 54.89 C 87.82 36.80 75.30 17.10 57.45 12.48 C 55.85 12.06 54.24 11.71 52.63 11.39 Z" />
</g>
<g id="#ed8c1bff">
<path fill="#ed8c1b" opacity="1.00" d=" M 25.13 17.27 C 28.18 15.00 31.68 13.18 35.58 13.11 C 34.70 13.59 33.83 14.08 32.96 14.58 C 22.63 19.40 14.69 28.90 12.31 40.11 C 9.40 49.72 12.75 59.83 17.33 68.33 C 16.04 67.08 14.49 66.01 13.67 64.36 C 9.37 55.62 8.62 45.16 11.82 35.94 C 14.16 28.47 19.32 22.35 25.13 17.27 Z" />
</g>
<g id="#f8a90eff">
<path fill="#f8a90e" opacity="1.00" d=" M 57.45 12.48 C 75.30 17.10 87.82 36.80 83.60 54.89 C 81.60 66.10 73.80 75.86 63.64 80.84 C 63.30 78.21 63.20 75.52 63.94 72.94 C 65.14 68.35 65.39 63.49 67.49 59.16 C 69.37 60.93 71.79 61.82 74.35 61.18 C 72.63 54.76 68.39 49.48 65.45 43.62 C 63.28 40.25 62.06 36.10 58.95 33.45 C 57.04 34.27 55.92 36.08 54.90 37.79 C 54.18 34.85 53.99 31.77 54.93 28.86 C 56.44 23.52 57.14 18.01 57.45 12.48 Z" />
</g>
<g id="#fbce11ff">
<path fill="#fbce11" opacity="1.00" d=" M 72.68 12.58 C 79.54 17.61 85.86 24.12 88.98 32.13 C 89.42 36.12 90.49 40.01 90.98 43.99 C 92.03 54.92 88.58 66.18 81.76 74.76 C 75.50 82.81 66.15 88.16 56.24 90.27 C 54.52 90.11 52.81 89.89 51.10 89.67 C 51.33 88.42 51.57 87.17 51.81 85.92 C 52.91 85.74 54.02 85.53 55.12 85.30 C 64.49 83.24 73.38 77.98 78.88 70.00 C 83.16 63.88 85.94 56.51 85.96 48.98 C 86.45 37.26 80.76 25.58 71.63 18.32 C 71.98 16.40 72.33 14.49 72.68 12.58 Z" />
</g>
<g id="#f9ca10ff">
<path fill="#f9ca10" opacity="1.00" d=" M 12.31 40.11 C 14.69 28.90 22.63 19.40 32.96 14.58 C 31.53 21.30 29.87 27.98 29.22 34.85 C 24.59 37.99 20.46 43.08 21.08 49.00 C 21.96 54.50 25.65 60.36 31.64 61.04 C 29.09 66.43 29.47 72.56 27.55 78.13 C 27.18 78.24 26.44 78.44 26.07 78.54 C 24.45 75.20 21.52 72.87 18.89 70.37 C 18.37 69.69 17.85 69.01 17.33 68.33 C 12.75 59.83 9.40 49.72 12.31 40.11 Z" />
</g>
<g id="#df8a11fe">
<path fill="#df8a11" opacity="1.00" d=" M 88.98 32.13 C 93.87 40.82 93.90 51.56 91.79 61.10 C 88.73 72.89 80.38 83.23 69.43 88.61 C 59.21 93.90 46.88 94.34 36.00 90.92 C 34.80 90.45 33.68 89.83 32.56 89.21 C 40.39 90.31 48.36 92.47 56.24 90.27 C 66.15 88.16 75.50 82.81 81.76 74.76 C 88.58 66.18 92.03 54.92 90.98 43.99 C 90.49 40.01 89.42 36.12 88.98 32.13 Z" />
</g>
<g id="#f8e817ff">
<path fill="#f8e817" opacity="1.00" d=" M 29.22 34.85 C 32.51 33.93 36.05 33.44 39.40 34.37 C 44.58 35.61 48.31 39.69 52.80 42.28 C 53.50 40.78 54.17 39.27 54.90 37.79 C 55.92 36.08 57.04 34.27 58.95 33.45 C 62.06 36.10 63.28 40.25 65.45 43.62 C 68.39 49.48 72.63 54.76 74.35 61.18 C 71.79 61.82 69.37 60.93 67.49 59.16 C 63.56 55.88 58.96 53.42 55.58 49.51 C 56.39 48.67 57.27 47.90 58.21 47.22 C 60.26 47.94 62.12 49.12 64.00 50.18 C 62.34 46.99 60.64 43.81 58.80 40.72 C 54.10 47.01 51.11 54.94 44.21 59.27 C 41.64 61.17 38.34 61.36 35.28 61.68 C 34.06 61.50 32.84 61.29 31.64 61.04 C 25.65 60.36 21.96 54.50 21.08 49.00 C 20.46 43.08 24.59 37.99 29.22 34.85 M 28.54 41.45 C 24.85 44.46 24.61 50.07 27.63 53.65 C 28.89 56.80 33.03 56.99 35.93 57.11 C 42.99 57.01 47.59 50.57 50.83 45.08 C 53.86 43.07 48.94 42.34 48.21 44.55 C 45.61 43.03 43.46 40.71 40.56 39.73 C 36.72 37.95 31.54 38.20 28.54 41.45 Z" />
</g>
<g id="#e39412ff">
<path fill="#e39412" opacity="1.00" d=" M 28.54 41.45 C 31.54 38.20 36.72 37.95 40.56 39.73 C 37.09 40.07 33.01 39.72 30.29 42.34 C 27.19 45.21 27.57 49.81 27.63 53.65 C 24.61 50.07 24.85 44.46 28.54 41.45 Z" />
</g>
<g id="#f8c010ff">
<path fill="#f8c010" opacity="1.00" d=" M 30.29 42.34 C 33.01 39.72 37.09 40.07 40.56 39.73 C 43.46 40.71 45.61 43.03 48.21 44.55 C 49.01 44.99 49.89 45.17 50.83 45.08 C 47.59 50.57 42.99 57.01 35.93 57.11 C 33.03 56.99 28.89 56.80 27.63 53.65 C 27.57 49.81 27.19 45.21 30.29 42.34 Z" />
</g>
<g id="#eea610ff">
<path fill="#eea610" opacity="1.00" d=" M 44.21 59.27 C 51.11 54.94 54.10 47.01 58.80 40.72 C 60.64 43.81 62.34 46.99 64.00 50.18 C 62.12 49.12 60.26 47.94 58.21 47.22 C 57.27 47.90 56.39 48.67 55.58 49.51 C 53.98 53.14 51.64 56.41 48.50 58.87 C 44.57 62.75 38.95 63.72 33.64 63.03 C 34.05 62.69 34.87 62.02 35.28 61.68 C 38.34 61.36 41.64 61.17 44.21 59.27 Z" />
</g>
<g id="#e49c13ff">
<path fill="#e49c13" opacity="1.00" d=" M 48.21 44.55 C 48.94 42.34 53.86 43.07 50.83 45.08 C 49.89 45.17 49.01 44.99 48.21 44.55 Z" />
</g>
<g id="#f8b10fff">
<path fill="#f8b10f" opacity="1.00" d=" M 48.50 58.87 C 51.64 56.41 53.98 53.14 55.58 49.51 C 58.96 53.42 63.56 55.88 67.49 59.16 C 65.39 63.49 65.14 68.35 63.94 72.94 C 63.20 75.52 63.30 78.21 63.64 80.84 C 59.45 82.83 54.87 83.76 50.34 84.55 C 48.49 84.46 46.65 84.36 44.81 84.17 C 46.89 76.22 47.91 68.06 49.63 60.04 C 49.35 59.74 48.78 59.16 48.50 58.87 Z" />
</g>
<g id="#f8bc0fff">
<path fill="#f8bc0f" opacity="1.00" d=" M 33.64 63.03 C 38.95 63.72 44.57 62.75 48.50 58.87 C 48.78 59.16 49.35 59.74 49.63 60.04 C 47.91 68.06 46.89 76.22 44.81 84.17 C 38.67 83.52 32.73 81.52 27.55 78.13 C 29.47 72.56 29.09 66.43 31.64 61.04 C 32.84 61.29 34.06 61.50 35.28 61.68 C 34.87 62.02 34.05 62.69 33.64 63.03 Z" />
</g>
<g id="#ef9d34ff">
<path fill="#ef9d34" opacity="1.00" d=" M 18.89 70.37 C 21.52 72.87 24.45 75.20 26.07 78.54 C 24.28 77.32 22.45 76.16 20.74 74.84 C 20.06 73.37 19.50 71.86 18.89 70.37 Z" />
</g>
<g id="#f9b50fff">
<path fill="#f9b50f" opacity="1.00" d=" M 18.56 79.71 C 19.29 78.08 20.01 76.46 20.74 74.84 C 22.45 76.16 24.28 77.32 26.07 78.54 C 33.22 84.31 42.71 86.82 51.81 85.92 C 51.57 87.17 51.33 88.42 51.10 89.67 C 52.81 89.89 54.52 90.11 56.24 90.27 C 48.36 92.47 40.39 90.31 32.56 89.21 C 27.18 87.34 22.68 83.56 18.56 79.71 Z" />
</g>
<g id="#f5b443ff">
<path fill="#f5b443" opacity="1.00" d=" M 26.07 78.54 C 26.44 78.44 27.18 78.24 27.55 78.13 C 32.73 81.52 38.67 83.52 44.81 84.17 C 46.65 84.36 48.49 84.46 50.34 84.55 C 51.93 84.78 53.52 85.07 55.12 85.30 C 54.02 85.53 52.91 85.74 51.81 85.92 C 42.71 86.82 33.22 84.31 26.07 78.54 Z" />
</g>
</svg>
