<?xml version="1.0" encoding="UTF-8" ?>
<!DOCTYPE svg PUBLIC "-//W3C//DTD SVG 1.1//EN" "http://www.w3.org/Graphics/SVG/1.1/DTD/svg11.dtd">
<svg width="96pt" height="96pt" viewBox="0 0 96 96" version="1.1" xmlns="http://www.w3.org/2000/svg">
<g id="#359b67fe">
<path fill="#359b67" opacity="1.00" d=" M 22.53 12.32 C 25.11 11.93 26.60 14.25 28.44 15.60 C 31.66 18.29 35.86 19.23 39.85 20.16 C 43.19 16.97 47.85 15.38 52.39 16.80 C 57.83 19.05 61.58 24.16 63.48 29.59 C 66.65 38.51 66.51 48.11 66.69 57.45 C 70.16 55.69 72.82 52.76 76.13 50.77 C 78.94 49.53 81.69 51.48 83.55 53.46 C 86.65 56.74 90.38 60.02 91.07 64.74 C 82.86 64.58 74.81 62.50 66.59 62.29 C 66.53 69.44 65.44 76.58 63.48 83.46 C 62.81 83.57 61.46 83.80 60.79 83.91 C 60.03 80.88 61.32 77.94 61.80 74.99 C 63.65 64.43 63.75 53.61 62.63 42.96 C 62.18 35.14 60.06 26.39 53.25 21.66 C 50.58 19.61 47.00 20.24 44.07 21.34 C 44.12 26.87 48.73 30.61 52.34 34.15 C 53.57 36.48 49.46 37.04 48.02 37.91 L 47.84 36.91 C 47.34 34.62 47.16 32.14 45.85 30.12 C 44.09 27.90 41.58 26.49 39.43 24.69 C 36.29 21.89 33.30 18.27 28.82 17.81 C 26.68 17.95 24.67 18.80 22.64 19.44 C 22.43 17.07 22.32 14.69 22.53 12.32 Z" />
</g>
<g id="#ff3038ff">
<path fill="#ff3038" opacity="1.00" d=" M 22.64 19.44 C 24.67 18.80 26.68 17.95 28.82 17.81 C 33.30 18.27 36.29 21.89 39.43 24.69 C 36.41 29.65 31.19 32.31 26.85 35.87 C 21.02 41.45 22.27 50.23 23.37 57.41 C 18.78 61.48 12.25 57.51 9.48 53.16 C 9.90 50.27 9.98 47.13 11.74 44.67 C 13.92 41.42 16.64 38.36 17.50 34.43 C 18.68 29.26 20.08 24.11 22.64 19.44 Z" />
<path fill="#ff3038" opacity="1.00" d=" M 40.91 28.74 C 44.21 29.22 46.54 32.06 46.26 35.41 C 43.12 34.58 41.82 31.53 40.91 28.74 Z" />
</g>
<g id="#e91820ff">
<path fill="#e91820" opacity="1.00" d=" M 13.95 28.97 C 16.93 25.78 17.46 19.92 22.64 19.44 C 20.08 24.11 18.68 29.26 17.50 34.43 C 16.64 38.36 13.92 41.42 11.74 44.67 C 9.98 47.13 9.90 50.27 9.48 53.16 C 9.44 51.51 9.46 49.84 9.16 48.22 C 6.67 45.24 3.51 42.18 3.50 38.00 C 3.27 35.97 4.21 33.98 5.81 32.73 C 8.50 31.45 11.97 31.48 13.95 28.97 Z" />
<path fill="#e91820" opacity="1.00" d=" M 26.85 35.87 C 31.19 32.31 36.41 29.65 39.43 24.69 C 41.58 26.49 44.09 27.90 45.85 30.12 C 47.16 32.14 47.34 34.62 47.84 36.91 C 46.33 39.31 45.00 41.94 42.68 43.68 C 38.63 46.94 33.28 48.87 30.45 53.46 C 30.13 55.68 30.64 57.92 30.71 60.14 C 27.77 61.28 25.44 59.18 23.37 57.41 C 22.27 50.23 21.02 41.45 26.85 35.87 M 40.91 28.74 C 41.82 31.53 43.12 34.58 46.26 35.41 C 46.54 32.06 44.21 29.22 40.91 28.74 Z" />
<path fill="#e91820" opacity="1.00" d=" M 29.40 71.35 C 31.79 70.03 34.25 71.98 36.55 72.63 C 38.87 73.95 41.43 72.94 43.82 72.44 C 43.82 75.04 44.08 78.04 41.93 79.97 C 38.40 83.25 32.31 84.81 28.15 81.83 C 24.64 79.20 25.37 73.04 29.40 71.35 Z" />
</g>
</svg>
