<?xml version="1.0" encoding="UTF-8" ?>
<!DOCTYPE svg PUBLIC "-//W3C//DTD SVG 1.1//EN" "http://www.w3.org/Graphics/SVG/1.1/DTD/svg11.dtd">
<svg width="96pt" height="96pt" viewBox="0 0 96 96" version="1.1" xmlns="http://www.w3.org/2000/svg">
<path fill="#e28f02" opacity="0.98" d=" M 15.51 7.46 C 20.44 2.04 28.07 7.98 31.55 12.31 C 31.19 12.49 30.48 12.84 30.12 13.02 C 26.76 10.59 23.17 6.22 18.58 7.55 C 13.47 11.84 15.26 19.36 15.18 25.21 C 14.96 25.59 14.53 26.36 14.31 26.75 C 11.83 20.81 12.46 13.17 15.51 7.46 Z" />
<path fill="#e28f02" opacity="0.98" d=" M 61.88 11.56 C 67.99 9.15 74.98 2.78 81.59 7.39 C 85.91 13.11 86.31 22.10 83.01 28.37 C 82.77 27.91 82.29 26.99 82.05 26.53 C 82.78 20.13 84.83 10.94 77.75 7.31 C 72.79 7.76 68.67 10.98 64.04 12.52 C 63.50 12.28 62.42 11.80 61.88 11.56 Z" />
<path fill="#f0ad54" opacity="1.00" d=" M 18.58 7.55 C 23.17 6.22 26.76 10.59 30.12 13.02 C 26.76 15.18 23.61 17.63 20.44 20.05 C 19.31 17.72 18.08 15.35 15.99 13.72 C 15.48 16.94 15.80 20.19 16.19 23.40 C 15.93 23.85 15.43 24.76 15.18 25.21 C 15.26 19.36 13.47 11.84 18.58 7.55 Z" />
<path fill="#f0ad54" opacity="1.00" d=" M 64.04 12.52 C 68.67 10.98 72.79 7.76 77.75 7.31 C 84.83 10.94 82.78 20.13 82.05 26.53 C 81.85 26.20 81.45 25.53 81.25 25.20 C 81.11 21.27 81.68 16.88 79.12 13.55 C 77.14 15.10 77.26 18.09 76.47 20.32 C 72.74 17.12 68.55 14.47 64.04 12.52 Z" />
<path fill="#ffce74" opacity="1.00" d=" M 31.55 12.31 C 40.98 8.35 52.37 7.32 61.88 11.56 C 62.42 11.80 63.50 12.28 64.04 12.52 C 68.55 14.47 72.74 17.12 76.47 20.32 C 78.03 21.98 79.63 23.59 81.25 25.20 C 81.45 25.53 81.85 26.20 82.05 26.53 C 82.29 26.99 82.77 27.91 83.01 28.37 C 86.58 34.64 88.99 41.68 88.89 48.96 C 89.72 64.20 80.70 79.17 67.30 86.24 C 52.15 94.50 31.73 91.81 19.60 79.39 C 5.42 66.12 3.10 42.59 14.31 26.75 C 14.53 26.36 14.96 25.59 15.18 25.21 C 15.43 24.76 15.93 23.85 16.19 23.40 C 17.58 22.26 19.03 21.18 20.44 20.05 C 23.61 17.63 26.76 15.18 30.12 13.02 C 30.48 12.84 31.19 12.49 31.55 12.31 M 36.94 12.77 C 30.99 14.39 27.87 21.36 28.96 27.10 C 27.30 27.41 26.05 28.63 24.83 29.70 C 20.30 30.20 15.53 33.21 14.85 38.03 C 14.65 42.32 18.45 45.31 22.08 46.73 C 21.77 47.00 21.14 47.55 20.83 47.83 C 17.18 47.64 13.52 47.45 9.88 47.87 C 9.37 51.71 9.50 55.63 10.19 59.44 C 10.20 59.51 10.23 59.66 10.25 59.73 C 11.26 64.41 13.77 68.56 16.27 72.57 C 16.31 72.62 16.38 72.73 16.42 72.78 C 19.78 77.02 23.52 81.83 29.01 83.22 C 34.19 87.64 41.34 88.85 48.00 88.02 C 54.61 88.69 63.19 87.61 67.64 83.17 C 73.29 81.42 76.86 76.06 80.59 71.79 C 80.63 71.73 80.70 71.63 80.74 71.57 C 83.03 68.28 84.65 64.57 85.69 60.70 C 85.71 60.63 85.75 60.49 85.76 60.42 C 86.14 58.68 86.42 56.90 86.33 55.11 L 87.24 55.12 C 87.93 42.16 83.25 28.39 72.95 20.05 C 63.26 11.84 49.05 8.02 36.94 12.77 Z" />
<path fill="#fdeb78" opacity="1.00" d=" M 36.94 12.77 C 49.05 8.02 63.26 11.84 72.95 20.05 C 83.25 28.39 87.93 42.16 87.24 55.12 L 86.33 55.11 C 86.14 53.56 85.97 52.01 85.65 50.49 C 82.31 50.55 78.88 51.43 75.62 50.30 C 70.99 49.00 65.91 46.45 61.20 48.90 C 55.94 52.50 50.64 48.47 45.68 46.56 C 40.81 44.77 36.86 48.91 32.38 49.96 C 28.68 48.56 24.76 48.02 20.83 47.83 C 21.14 47.55 21.77 47.00 22.08 46.73 C 28.94 48.40 37.13 45.10 37.88 37.35 C 39.00 34.29 39.19 30.92 38.21 27.80 C 35.18 27.09 32.05 27.17 28.96 27.10 C 27.87 21.36 30.99 14.39 36.94 12.77 M 49.51 28.47 C 48.37 32.60 49.76 36.81 52.73 39.78 C 56.78 49.31 72.01 49.90 77.81 41.81 C 79.79 39.00 78.22 35.17 75.77 33.21 C 72.60 30.30 68.12 29.70 63.99 29.82 C 59.84 27.16 53.76 24.67 49.51 28.47 Z" />
<path fill="#fdeb78" opacity="1.00" d=" M 15.99 13.72 C 18.08 15.35 19.31 17.72 20.44 20.05 C 19.03 21.18 17.58 22.26 16.19 23.40 C 15.80 20.19 15.48 16.94 15.99 13.72 Z" />
<path fill="#fdeb78" opacity="1.00" d=" M 76.47 20.32 C 77.26 18.09 77.14 15.10 79.12 13.55 C 81.68 16.88 81.11 21.27 81.25 25.20 C 79.63 23.59 78.03 21.98 76.47 20.32 Z" />
<path fill="#ffffb9" opacity="1.00" d=" M 49.51 28.47 C 53.76 24.67 59.84 27.16 63.99 29.82 C 58.70 30.62 53.01 33.82 52.73 39.78 C 49.76 36.81 48.37 32.60 49.51 28.47 Z" />
<path fill="#ffffb9" opacity="1.00" d=" M 24.83 29.70 C 26.05 28.63 27.30 27.41 28.96 27.10 C 32.05 27.17 35.18 27.09 38.21 27.80 C 39.19 30.92 39.00 34.29 37.88 37.35 C 35.43 32.35 30.41 29.35 24.83 29.70 Z" />
<path fill="#1f1f1f" opacity="1.00" d=" M 14.85 38.03 C 15.53 33.21 20.30 30.20 24.83 29.70 C 30.41 29.35 35.43 32.35 37.88 37.35 C 37.13 45.10 28.94 48.40 22.08 46.73 C 18.45 45.31 14.65 42.32 14.85 38.03 M 24.36 31.39 C 21.07 32.07 16.59 33.87 16.98 37.97 C 16.17 45.02 25.79 47.01 30.95 44.91 C 28.85 43.02 25.36 41.45 25.85 38.06 C 26.10 34.76 29.50 33.51 31.99 32.16 C 29.50 31.60 26.92 30.77 24.36 31.39 M 33.51 35.49 C 30.70 36.14 33.55 40.34 35.09 38.08 C 37.01 37.26 34.84 34.33 33.51 35.49 Z" />
<path fill="#1f1f1f" opacity="1.00" d=" M 52.73 39.78 C 53.01 33.82 58.70 30.62 63.99 29.82 C 68.12 29.70 72.60 30.30 75.77 33.21 C 78.22 35.17 79.79 39.00 77.81 41.81 C 72.01 49.90 56.78 49.31 52.73 39.78 M 63.36 31.47 C 59.47 32.24 54.49 34.42 54.25 38.93 C 55.90 45.85 65.24 47.12 70.98 44.95 C 68.85 43.16 65.81 41.30 66.76 38.00 C 66.73 34.83 69.84 33.67 72.04 32.17 C 69.21 31.55 66.26 30.75 63.36 31.47 M 74.54 35.53 C 72.80 35.99 72.71 38.99 74.67 39.14 C 77.39 41.06 77.57 33.72 74.54 35.53 Z" />
<path fill="#ffffff" opacity="1.00" d=" M 24.36 31.39 C 26.92 30.77 29.50 31.60 31.99 32.16 C 29.50 33.51 26.10 34.76 25.85 38.06 C 25.36 41.45 28.85 43.02 30.95 44.91 C 25.79 47.01 16.17 45.02 16.98 37.97 C 16.59 33.87 21.07 32.07 24.36 31.39 Z" />
<path fill="#ffffff" opacity="1.00" d=" M 63.36 31.47 C 66.26 30.75 69.21 31.55 72.04 32.17 C 69.84 33.67 66.73 34.83 66.76 38.00 C 65.81 41.30 68.85 43.16 70.98 44.95 C 65.24 47.12 55.90 45.85 54.25 38.93 C 54.49 34.42 59.47 32.24 63.36 31.47 Z" />
<path fill="#888a8e" opacity="1.00" d=" M 33.51 35.49 C 34.84 34.33 37.01 37.26 35.09 38.08 C 33.55 40.34 30.70 36.14 33.51 35.49 Z" />
<path fill="#888a8e" opacity="1.00" d=" M 74.54 35.53 C 77.57 33.72 77.39 41.06 74.67 39.14 C 72.71 38.99 72.80 35.99 74.54 35.53 Z" />
<path fill="#ffffb9" opacity="1.00" d=" M 32.38 49.96 C 36.86 48.91 40.81 44.77 45.68 46.56 C 50.64 48.47 55.94 52.50 61.20 48.90 C 68.43 52.79 71.62 62.15 70.76 70.05 C 70.90 74.75 66.23 78.38 67.64 83.17 C 63.19 87.61 54.61 88.69 48.00 88.02 C 41.34 88.85 34.19 87.64 29.01 83.22 C 27.59 77.82 24.67 73.03 22.57 67.92 C 22.89 64.71 26.40 64.10 28.80 62.99 C 28.03 60.99 26.52 59.20 26.37 57.01 C 26.89 53.76 29.50 51.30 32.38 49.96 M 31.45 53.53 C 27.30 54.23 29.03 59.74 31.46 61.51 C 34.92 63.63 36.17 67.58 37.81 71.05 C 32.71 73.69 27.95 70.02 25.08 66.03 C 23.00 68.06 26.33 70.78 27.88 72.16 C 32.67 76.13 38.70 71.76 44.00 73.64 C 50.20 74.83 58.88 72.46 61.03 65.96 C 58.00 66.50 56.24 69.45 53.42 70.51 C 48.37 72.84 40.72 72.67 38.01 66.97 C 34.44 62.00 44.41 59.73 42.24 54.77 C 39.48 52.13 34.92 53.44 31.45 53.53 Z" />
<path fill="#ffff9f" opacity="1.00" d=" M 9.88 47.87 C 13.52 47.45 17.18 47.64 20.83 47.83 C 24.76 48.02 28.68 48.56 32.38 49.96 C 29.50 51.30 26.89 53.76 26.37 57.01 C 26.52 59.20 28.03 60.99 28.80 62.99 C 26.40 64.10 22.89 64.71 22.57 67.92 C 24.67 73.03 27.59 77.82 29.01 83.22 C 23.52 81.83 19.78 77.02 16.42 72.78 C 16.38 72.73 16.31 72.62 16.27 72.57 C 13.77 68.56 11.26 64.41 10.25 59.73 C 10.23 59.66 10.20 59.51 10.19 59.44 C 9.50 55.63 9.37 51.71 9.88 47.87 Z" />
<path fill="#ffff9f" opacity="1.00" d=" M 61.20 48.90 C 65.91 46.45 70.99 49.00 75.62 50.30 C 78.88 51.43 82.31 50.55 85.65 50.49 C 85.97 52.01 86.14 53.56 86.33 55.11 C 86.42 56.90 86.14 58.68 85.76 60.42 C 85.75 60.49 85.71 60.63 85.69 60.70 C 84.65 64.57 83.03 68.28 80.74 71.57 C 80.70 71.63 80.63 71.73 80.59 71.79 C 76.86 76.06 73.29 81.42 67.64 83.17 C 66.23 78.38 70.90 74.75 70.76 70.05 C 71.62 62.15 68.43 52.79 61.20 48.90 Z" />
<path fill="#7d180f" opacity="1.00" d=" M 31.45 53.53 C 34.92 53.44 39.48 52.13 42.24 54.77 C 44.41 59.73 34.44 62.00 38.01 66.97 C 40.72 72.67 48.37 72.84 53.42 70.51 C 56.24 69.45 58.00 66.50 61.03 65.96 C 58.88 72.46 50.20 74.83 44.00 73.64 C 38.70 71.76 32.67 76.13 27.88 72.16 C 26.33 70.78 23.00 68.06 25.08 66.03 C 27.95 70.02 32.71 73.69 37.81 71.05 C 36.17 67.58 34.92 63.63 31.46 61.51 C 29.03 59.74 27.30 54.23 31.45 53.53 M 39.14 56.22 C 38.71 57.87 39.29 58.38 40.87 57.74 C 41.31 56.06 40.73 55.55 39.14 56.22 Z" />
<path fill="#ffffff" opacity="1.00" d=" M 39.14 56.22 C 40.73 55.55 41.31 56.06 40.87 57.74 C 39.29 58.38 38.71 57.87 39.14 56.22 Z" />
<path fill="#ffffb9" opacity="1.00" d=" M 10.19 59.44 C 10.20 59.51 10.23 59.66 10.25 59.73 C 10.23 59.66 10.20 59.51 10.19 59.44 Z" />
<path fill="#ffffb9" opacity="1.00" d=" M 85.69 60.70 C 85.71 60.63 85.75 60.49 85.76 60.42 C 85.75 60.49 85.71 60.63 85.69 60.70 Z" />
<path fill="#ffffb9" opacity="1.00" d=" M 80.59 71.79 C 80.63 71.73 80.70 71.63 80.74 71.57 C 80.70 71.63 80.63 71.73 80.59 71.79 Z" />
<path fill="#ffffb9" opacity="1.00" d=" M 16.27 72.57 C 16.31 72.62 16.38 72.73 16.42 72.78 C 16.38 72.73 16.31 72.62 16.27 72.57 Z" />
</svg>
