<?xml version="1.0" encoding="UTF-8" ?>
<!DOCTYPE svg PUBLIC "-//W3C//DTD SVG 1.1//EN" "http://www.w3.org/Graphics/SVG/1.1/DTD/svg11.dtd">
<svg width="96pt" height="96pt" viewBox="0 0 96 96" version="1.1" xmlns="http://www.w3.org/2000/svg">
<path fill="#359f69" opacity="1.00" d=" M 38.70 6.78 C 45.15 5.62 52.20 4.81 58.35 7.61 C 59.72 9.66 59.14 12.24 59.49 14.54 C 60.92 15.27 62.43 15.82 63.85 16.55 C 64.15 16.71 64.76 17.03 65.06 17.19 L 64.94 17.63 C 64.18 19.88 68.13 21.28 66.75 23.66 C 66.26 24.94 65.02 24.47 64.01 24.37 C 64.24 23.75 64.70 22.52 64.93 21.91 C 63.08 20.12 59.92 23.82 61.84 25.38 C 58.20 27.26 53.97 27.03 49.99 27.26 C 43.04 27.32 35.97 27.56 29.16 25.95 C 27.00 25.56 25.10 23.33 25.76 21.09 C 27.00 19.56 28.52 18.29 29.84 16.84 L 30.40 16.55 C 36.25 16.51 33.74 8.32 38.70 6.78 M 53.28 9.08 C 54.32 11.59 54.88 14.23 55.19 16.92 C 58.18 15.36 56.74 9.05 53.28 9.08 Z" />
<path fill="#fffff8" opacity="1.00" d=" M 53.28 9.08 C 56.74 9.05 58.18 15.36 55.19 16.92 C 54.88 14.23 54.32 11.59 53.28 9.08 Z" />
<path fill="#f0ad54" opacity="1.00" d=" M 17.42 12.52 C 22.02 10.26 26.93 13.68 30.40 16.55 L 29.84 16.84 C 26.03 17.46 23.04 20.82 24.55 24.75 C 13.98 31.83 9.98 46.14 11.78 58.28 C 14.39 75.12 29.93 88.55 46.97 88.70 C 64.33 89.53 81.10 76.52 84.12 59.30 C 87.05 45.23 80.63 30.42 69.28 21.88 C 68.04 20.27 66.59 18.84 64.94 17.63 L 65.06 17.19 C 69.32 15.87 73.08 12.27 77.82 13.18 C 81.10 13.76 82.20 17.53 82.51 20.39 C 83.28 24.60 82.10 28.78 82.07 32.98 C 90.88 48.29 87.50 69.52 74.05 81.10 C 60.30 93.89 37.18 94.21 22.99 81.95 C 9.52 70.98 5.04 50.52 13.04 35.03 C 15.22 31.99 12.96 28.38 13.38 25.02 C 13.57 20.71 13.43 15.25 17.42 12.52 M 78.54 19.40 C 75.96 22.65 75.98 27.34 80.20 29.14 C 80.51 25.83 80.16 22.48 79.56 19.22 C 79.30 19.27 78.80 19.36 78.54 19.40 M 16.37 20.10 C 16.23 22.66 16.21 25.23 16.34 27.80 C 21.04 27.72 19.75 20.96 16.37 20.10 Z" />
<path fill="#e59308" opacity="1.00" d=" M 63.85 16.55 C 68.33 13.82 73.38 10.39 78.90 11.76 C 83.48 13.30 84.14 18.91 84.42 23.04 C 84.35 26.33 84.98 30.73 82.07 32.98 C 82.10 28.78 83.28 24.60 82.51 20.39 C 82.20 17.53 81.10 13.76 77.82 13.18 C 73.08 12.27 69.32 15.87 65.06 17.19 C 64.76 17.03 64.15 16.71 63.85 16.55 Z" />
<path fill="#376c55" opacity="1.00" d=" M 24.55 24.75 C 23.04 20.82 26.03 17.46 29.84 16.84 C 28.52 18.29 27.00 19.56 25.76 21.09 C 25.10 23.33 27.00 25.56 29.16 25.95 C 35.97 27.56 43.04 27.32 49.99 27.26 C 53.97 27.03 58.20 27.26 61.84 25.38 C 62.38 25.12 63.47 24.62 64.01 24.37 C 65.02 24.47 66.26 24.94 66.75 23.66 C 68.13 21.28 64.18 19.88 64.94 17.63 C 66.59 18.84 68.04 20.27 69.28 21.88 C 68.42 23.99 67.38 26.45 64.87 26.94 C 54.65 29.76 43.92 28.53 33.46 28.65 C 30.24 28.03 27.06 26.93 24.55 24.75 Z" />
<path fill="#fdec78" opacity="1.00" d=" M 78.54 19.40 C 78.80 19.36 79.30 19.27 79.56 19.22 C 80.16 22.48 80.51 25.83 80.20 29.14 C 75.98 27.34 75.96 22.65 78.54 19.40 Z" />
<path fill="#fdec78" opacity="1.00" d=" M 16.37 20.10 C 19.75 20.96 21.04 27.72 16.34 27.80 C 16.21 25.23 16.23 22.66 16.37 20.10 Z" />
<path fill="#fffff8" opacity="1.00" d=" M 61.84 25.38 C 59.92 23.82 63.08 20.12 64.93 21.91 C 64.70 22.52 64.24 23.75 64.01 24.37 C 63.47 24.62 62.38 25.12 61.84 25.38 Z" />
<path fill="#fdec78" opacity="1.00" d=" M 69.28 21.88 C 80.63 30.42 87.05 45.23 84.12 59.30 C 84.09 56.99 84.04 54.68 83.79 52.38 C 78.60 54.08 72.78 53.34 68.42 49.94 C 71.47 48.00 75.68 45.46 74.81 41.18 C 73.36 36.26 67.74 34.99 63.35 34.04 C 60.55 32.24 57.07 30.18 53.70 31.79 C 49.22 33.49 48.50 39.90 51.65 43.16 C 54.00 49.14 60.70 50.39 66.42 50.05 C 62.40 51.08 58.49 54.78 54.19 52.78 C 50.57 51.68 48.29 47.37 44.05 48.24 C 39.91 47.81 37.67 51.60 34.65 53.59 C 31.48 53.34 28.23 52.31 25.83 50.14 C 31.28 50.34 37.25 48.12 38.70 42.30 C 42.08 40.14 40.96 35.01 38.31 32.69 C 36.48 30.65 33.55 31.16 31.11 31.01 C 31.90 30.23 32.69 29.44 33.46 28.65 C 43.92 28.53 54.65 29.76 64.87 26.94 C 67.38 26.45 68.42 23.99 69.28 21.88 Z" />
<path fill="#ffcd73" opacity="1.00" d=" M 11.78 58.28 C 9.98 46.14 13.98 31.83 24.55 24.75 C 27.06 26.93 30.24 28.03 33.46 28.65 C 32.69 29.44 31.90 30.23 31.11 31.01 C 29.25 32.11 27.52 33.39 25.72 34.58 C 22.39 35.92 19.07 38.22 18.38 41.99 C 18.62 46.06 22.40 48.24 25.47 50.16 C 21.09 51.26 16.61 49.78 12.19 50.37 C 11.82 52.99 11.77 55.64 11.78 58.28 Z" />
<path fill="#fffff8" opacity="1.00" d=" M 31.11 31.01 C 33.55 31.16 36.48 30.65 38.31 32.69 C 40.96 35.01 42.08 40.14 38.70 42.30 C 37.64 36.25 31.26 33.69 25.72 34.58 C 27.52 33.39 29.25 32.11 31.11 31.01 Z" />
<path fill="#fffff8" opacity="1.00" d=" M 53.70 31.79 C 57.07 30.18 60.55 32.24 63.35 34.04 C 58.33 35.04 52.42 37.34 51.65 43.16 C 48.50 39.90 49.22 33.49 53.70 31.79 Z" />
<path fill="#1f1f1f" opacity="1.00" d=" M 51.65 43.16 C 52.42 37.34 58.33 35.04 63.35 34.04 C 67.74 34.99 73.36 36.26 74.81 41.18 C 75.68 45.46 71.47 48.00 68.42 49.94 C 67.92 49.97 66.92 50.02 66.42 50.05 C 60.70 50.39 54.00 49.14 51.65 43.16 M 60.24 36.22 C 56.74 36.88 52.01 40.15 53.71 44.23 C 56.63 48.95 63.16 49.55 68.08 48.25 C 70.16 46.83 65.66 47.07 65.23 45.63 C 62.19 42.14 65.68 37.14 69.93 37.46 C 67.15 35.48 63.45 35.49 60.24 36.22 M 71.15 39.16 C 69.25 39.58 69.69 43.22 71.85 42.71 C 73.91 42.39 73.20 38.59 71.15 39.16 Z" />
<path fill="#1f1f1f" opacity="1.00" d=" M 18.38 41.99 C 19.07 38.22 22.39 35.92 25.72 34.58 C 31.26 33.69 37.64 36.25 38.70 42.30 C 37.25 48.12 31.28 50.34 25.83 50.14 L 25.47 50.16 C 22.40 48.24 18.62 46.06 18.38 41.99 M 25.26 36.26 C 22.38 37.10 19.47 39.72 19.85 42.97 C 21.31 48.26 28.52 50.01 32.98 47.54 C 30.92 46.64 28.26 45.51 28.26 42.84 C 27.58 39.52 31.03 37.57 33.89 37.50 C 31.96 34.92 28.01 35.73 25.26 36.26 M 35.08 39.35 C 32.85 39.71 33.73 43.20 35.74 42.64 C 37.91 42.44 37.18 38.66 35.08 39.35 Z" />
<path fill="#fffff8" opacity="1.00" d=" M 25.26 36.26 C 28.01 35.73 31.96 34.92 33.89 37.50 C 31.03 37.57 27.58 39.52 28.26 42.84 C 28.26 45.51 30.92 46.64 32.98 47.54 C 28.52 50.01 21.31 48.26 19.85 42.97 C 19.47 39.72 22.38 37.10 25.26 36.26 Z" />
<path fill="#fffff8" opacity="1.00" d=" M 60.24 36.22 C 63.45 35.49 67.15 35.48 69.93 37.46 C 65.68 37.14 62.19 42.14 65.23 45.63 C 65.66 47.07 70.16 46.83 68.08 48.25 C 63.16 49.55 56.63 48.95 53.71 44.23 C 52.01 40.15 56.74 36.88 60.24 36.22 Z" />
<path fill="#7b8b70" opacity="1.00" d=" M 35.08 39.35 C 37.18 38.66 37.91 42.44 35.74 42.64 C 33.73 43.20 32.85 39.71 35.08 39.35 Z" />
<path fill="#7b8b70" opacity="1.00" d=" M 71.15 39.16 C 73.20 38.59 73.91 42.39 71.85 42.71 C 69.69 43.22 69.25 39.58 71.15 39.16 Z" />
<path fill="#ffffab" opacity="1.00" d=" M 34.65 53.59 C 37.67 51.60 39.91 47.81 44.05 48.24 C 48.29 47.37 50.57 51.68 54.19 52.78 C 58.49 54.78 62.40 51.08 66.42 50.05 C 66.92 50.02 67.92 49.97 68.42 49.94 C 72.78 53.34 78.60 54.08 83.79 52.38 C 84.04 54.68 84.09 56.99 84.12 59.30 C 81.10 76.52 64.33 89.53 46.97 88.70 C 29.93 88.55 14.39 75.12 11.78 58.28 C 11.77 55.64 11.82 52.99 12.19 50.37 C 16.61 49.78 21.09 51.26 25.47 50.16 L 25.83 50.14 C 28.23 52.31 31.48 53.34 34.65 53.59 M 31.24 57.07 C 29.10 57.83 30.04 60.76 30.74 62.30 C 31.78 64.86 35.38 65.19 36.00 67.98 C 36.35 69.89 38.37 71.73 37.79 73.62 C 34.69 74.33 30.79 74.00 28.83 71.16 C 27.90 70.38 27.40 68.53 25.88 68.91 C 25.40 72.73 29.67 75.31 32.95 76.03 C 36.23 77.05 39.35 74.29 42.59 75.44 C 48.40 77.35 54.98 75.43 59.30 71.24 C 60.21 70.38 60.43 69.35 59.94 68.14 C 57.42 69.47 55.70 72.00 52.94 72.95 C 47.42 75.34 38.91 73.90 37.81 66.95 C 38.93 63.80 44.46 61.49 42.55 57.43 C 39.03 56.01 34.90 56.36 31.24 57.07 Z" />
<path fill="#7d180f" opacity="1.00" d=" M 31.24 57.07 C 34.90 56.36 39.03 56.01 42.55 57.43 C 44.46 61.49 38.93 63.80 37.81 66.95 C 38.91 73.90 47.42 75.34 52.94 72.95 C 55.70 72.00 57.42 69.47 59.94 68.14 C 60.43 69.35 60.21 70.38 59.30 71.24 C 54.98 75.43 48.40 77.35 42.59 75.44 C 39.35 74.29 36.23 77.05 32.95 76.03 C 29.67 75.31 25.40 72.73 25.88 68.91 C 27.40 68.53 27.90 70.38 28.83 71.16 C 30.79 74.00 34.69 74.33 37.79 73.62 C 38.37 71.73 36.35 69.89 36.00 67.98 C 35.38 65.19 31.78 64.86 30.74 62.30 C 30.04 60.76 29.10 57.83 31.24 57.07 M 40.20 59.13 C 39.02 63.18 44.18 58.02 40.20 59.13 Z" />
<path fill="#fffff8" opacity="1.00" d=" M 40.20 59.13 C 44.18 58.02 39.02 63.18 40.20 59.13 Z" />
</svg>
