<?xml version="1.0" encoding="UTF-8" ?>
<!DOCTYPE svg PUBLIC "-//W3C//DTD SVG 1.1//EN" "http://www.w3.org/Graphics/SVG/1.1/DTD/svg11.dtd">
<svg width="96pt" height="96pt" viewBox="0 0 96 96" version="1.1" xmlns="http://www.w3.org/2000/svg">
<g id="#d08508e5">
<path fill="#d08508" opacity="0.90" d=" M 13.17 13.91 C 13.62 10.06 15.44 5.26 19.98 5.00 C 24.70 5.59 28.73 8.73 31.88 12.12 C 31.46 12.29 30.61 12.63 30.19 12.80 C 27.47 10.31 24.57 7.79 20.96 6.75 C 18.38 6.15 16.24 8.53 15.66 10.83 C 14.29 15.45 14.00 20.46 15.12 25.17 C 14.88 25.62 14.40 26.54 14.16 27.00 C 11.95 23.04 12.77 18.22 13.17 13.91 Z" />
</g>
<g id="#d88b0aee">
<path fill="#d88b0a" opacity="0.93" d=" M 63.02 11.52 C 67.44 8.52 72.42 5.06 78.03 5.60 C 82.47 6.21 84.36 10.90 84.80 14.82 C 85.26 19.32 85.90 24.54 83.00 28.41 C 82.75 27.97 82.25 27.10 82.01 26.67 C 84.02 22.25 83.56 17.16 82.50 12.55 C 81.91 9.92 80.00 7.10 76.96 7.34 C 71.98 6.87 68.47 11.31 63.82 11.99 L 63.02 11.52 Z" />
</g>
<g id="#f0ad54ff">
<path fill="#f0ad54" opacity="1.00" d=" M 15.66 10.83 C 16.24 8.53 18.38 6.15 20.96 6.75 C 24.57 7.79 27.47 10.31 30.19 12.80 C 26.18 14.44 23.38 18.12 19.41 19.68 C 18.68 17.37 17.64 15.15 16.07 13.28 C 15.65 16.26 15.69 19.29 16.19 22.26 C 15.89 23.25 15.54 24.22 15.12 25.17 C 14.00 20.46 14.29 15.45 15.66 10.83 Z" />
<path fill="#f0ad54" opacity="1.00" d=" M 63.82 11.99 C 68.47 11.31 71.98 6.87 76.96 7.34 C 80.00 7.10 81.91 9.92 82.50 12.55 C 83.56 17.16 84.02 22.25 82.01 26.67 C 81.68 26.12 81.02 25.01 80.69 24.46 C 80.63 20.80 80.56 17.11 79.62 13.54 C 78.11 15.53 77.36 17.92 76.60 20.26 C 72.87 16.78 68.53 13.98 63.82 11.99 Z" />
</g>
<g id="#ffcb73ff">
<path fill="#ffcb73" opacity="1.00" d=" M 31.88 12.12 C 41.94 7.80 53.76 7.59 63.82 11.99 C 68.53 13.98 72.87 16.78 76.60 20.26 C 77.99 21.63 79.35 23.04 80.69 24.46 C 81.02 25.01 81.68 26.12 82.01 26.67 C 82.25 27.10 82.75 27.97 83.00 28.41 C 88.82 37.72 90.35 49.39 87.80 60.00 C 84.63 73.14 74.48 84.32 61.72 88.75 C 54.84 91.27 47.29 91.45 40.12 90.31 C 26.39 87.68 14.48 77.46 9.72 64.32 C 5.12 52.13 6.72 37.73 14.16 27.00 C 14.40 26.54 14.88 25.62 15.12 25.17 C 15.54 24.22 15.89 23.25 16.19 22.26 C 16.51 22.45 17.14 22.84 17.46 23.03 C 18.09 21.91 18.73 20.78 19.41 19.68 C 23.38 18.12 26.18 14.44 30.19 12.80 C 30.61 12.63 31.46 12.29 31.88 12.12 M 33.78 14.69 C 33.35 17.86 32.72 21.00 31.79 24.06 C 33.10 24.68 34.43 25.24 35.82 25.67 C 33.81 25.75 31.52 25.32 29.90 26.82 C 28.05 27.62 25.87 28.13 24.66 29.89 C 20.02 30.32 14.97 33.99 15.12 39.03 C 16.04 44.91 22.79 47.65 28.15 47.02 L 27.43 48.40 C 21.63 48.14 15.80 48.16 9.99 48.21 C 8.28 62.80 17.12 77.50 30.02 84.12 C 45.30 92.47 66.27 88.80 77.27 75.15 C 82.33 70.11 85.05 63.08 86.28 56.13 C 87.41 47.17 85.78 37.70 80.98 29.97 C 73.74 17.62 59.22 10.03 44.93 11.35 C 41.13 11.90 36.94 12.41 33.78 14.69 Z" />
</g>
<g id="#fded78ff">
<path fill="#fded78" opacity="1.00" d=" M 33.78 14.69 C 36.94 12.41 41.13 11.90 44.93 11.35 C 59.22 10.03 73.74 17.62 80.98 29.97 C 85.78 37.70 87.41 47.17 86.28 56.13 C 86.33 54.12 86.25 52.11 86.16 50.10 C 80.59 51.99 75.00 50.28 69.61 48.68 C 65.68 47.50 61.70 48.56 57.93 49.76 C 52.32 51.51 48.49 45.22 43.03 45.59 C 39.38 45.34 36.75 48.16 33.67 49.57 C 31.53 49.70 29.50 48.77 27.43 48.40 L 28.15 47.02 C 32.74 46.33 37.26 43.03 37.50 38.06 C 39.80 35.44 39.99 31.51 38.79 28.37 C 36.60 25.85 32.83 26.76 29.90 26.82 C 31.52 25.32 33.81 25.75 35.82 25.67 C 34.43 25.24 33.10 24.68 31.79 24.06 C 32.72 21.00 33.35 17.86 33.78 14.69 M 49.47 28.55 C 48.32 32.63 49.28 37.78 53.03 40.21 C 56.40 48.01 67.48 49.11 74.18 45.19 C 77.35 43.58 79.90 39.53 78.04 36.06 C 75.51 31.18 69.44 29.42 64.28 29.89 C 61.70 27.74 58.39 26.23 54.97 26.37 C 53.00 26.43 50.46 26.50 49.47 28.55 Z" />
</g>
<g id="#fdef7aff">
<path fill="#fdef7a" opacity="1.00" d=" M 16.07 13.28 C 17.64 15.15 18.68 17.37 19.41 19.68 C 18.73 20.78 18.09 21.91 17.46 23.03 C 17.14 22.84 16.51 22.45 16.19 22.26 C 15.69 19.29 15.65 16.26 16.07 13.28 Z" />
</g>
<g id="#fff77eff">
<path fill="#fff77e" opacity="1.00" d=" M 76.60 20.26 C 77.36 17.92 78.11 15.53 79.62 13.54 C 80.56 17.11 80.63 20.80 80.69 24.46 C 79.35 23.04 77.99 21.63 76.60 20.26 Z" />
</g>
<g id="#fffdccff">
<path fill="#fffdcc" opacity="1.00" d=" M 49.47 28.55 C 50.46 26.50 53.00 26.43 54.97 26.37 C 58.39 26.23 61.70 27.74 64.28 29.89 C 58.96 30.30 52.12 33.99 53.03 40.21 C 49.28 37.78 48.32 32.63 49.47 28.55 Z" />
</g>
<g id="#fffcccff">
<path fill="#fffccc" opacity="1.00" d=" M 24.66 29.89 C 25.87 28.13 28.05 27.62 29.90 26.82 C 32.83 26.76 36.60 25.85 38.79 28.37 C 39.99 31.51 39.80 35.44 37.50 38.06 C 36.49 32.21 30.18 29.00 24.66 29.89 Z" />
</g>
<g id="#1f1f1fff">
<path fill="#1f1f1f" opacity="1.00" d=" M 15.12 39.03 C 14.97 33.99 20.02 30.32 24.66 29.89 C 30.18 29.00 36.49 32.21 37.50 38.06 C 37.26 43.03 32.74 46.33 28.15 47.02 C 22.79 47.65 16.04 44.91 15.12 39.03 M 18.28 34.33 C 16.51 35.98 16.19 38.70 17.04 40.88 C 18.91 44.38 23.17 45.80 26.94 45.59 C 28.56 45.18 31.23 45.77 31.87 43.77 C 28.22 44.86 24.97 40.40 26.15 37.06 C 27.07 34.01 30.53 32.34 33.53 33.54 C 31.56 31.49 28.52 31.52 25.95 30.79 C 23.27 31.67 20.22 32.06 18.28 34.33 M 32.05 36.12 C 30.90 38.01 34.03 40.08 35.33 38.37 C 37.12 37.21 34.99 35.66 34.04 34.85 C 33.54 35.16 32.55 35.80 32.05 36.12 Z" />
<path fill="#1f1f1f" opacity="1.00" d=" M 53.03 40.21 C 52.12 33.99 58.96 30.30 64.28 29.89 C 69.44 29.42 75.51 31.18 78.04 36.06 C 79.90 39.53 77.35 43.58 74.18 45.19 C 67.48 49.11 56.40 48.01 53.03 40.21 M 56.89 34.06 C 54.34 35.87 53.26 39.87 55.77 42.20 C 60.17 46.86 67.33 46.29 73.05 44.92 C 70.02 44.39 66.38 42.62 66.47 39.03 C 66.08 34.95 70.61 32.14 74.33 33.35 C 69.00 30.40 61.87 30.36 56.89 34.06 M 75.02 39.75 C 77.69 38.76 77.28 36.06 75.02 34.93 C 72.43 35.89 72.28 38.81 75.02 39.75 Z" />
</g>
<g id="#ffffffff">
<path fill="#ffffff" opacity="1.00" d=" M 18.28 34.33 C 20.22 32.06 23.27 31.67 25.95 30.79 C 28.52 31.52 31.56 31.49 33.53 33.54 C 30.53 32.34 27.07 34.01 26.15 37.06 C 24.97 40.40 28.22 44.86 31.87 43.77 C 31.23 45.77 28.56 45.18 26.94 45.59 C 23.17 45.80 18.91 44.38 17.04 40.88 C 16.19 38.70 16.51 35.98 18.28 34.33 Z" />
<path fill="#ffffff" opacity="1.00" d=" M 56.89 34.06 C 61.87 30.36 69.00 30.40 74.33 33.35 C 70.61 32.14 66.08 34.95 66.47 39.03 C 66.38 42.62 70.02 44.39 73.05 44.92 C 67.33 46.29 60.17 46.86 55.77 42.20 C 53.26 39.87 54.34 35.87 56.89 34.06 Z" />
<path fill="#ffffff" opacity="1.00" d=" M 34.34 52.76 C 41.46 51.12 48.75 51.51 55.89 52.76 C 55.72 54.40 55.52 56.02 55.29 57.65 C 55.07 57.89 54.64 58.37 54.43 58.61 C 48.73 56.67 42.72 57.69 36.89 58.16 C 34.00 58.37 34.62 54.61 34.34 52.76 Z" />
</g>
<g id="#848484ff">
<path fill="#848484" opacity="1.00" d=" M 32.05 36.12 C 32.55 35.80 33.54 35.16 34.04 34.85 C 34.99 35.66 37.12 37.21 35.33 38.37 C 34.03 40.08 30.90 38.01 32.05 36.12 Z" />
</g>
<g id="#818181ff">
<path fill="#818181" opacity="1.00" d=" M 75.02 39.75 C 72.28 38.81 72.43 35.89 75.02 34.93 C 77.28 36.06 77.69 38.76 75.02 39.75 Z" />
</g>
<g id="#ffffa3ff">
<path fill="#ffffa3" opacity="1.00" d=" M 33.67 49.57 C 36.75 48.16 39.38 45.34 43.03 45.59 C 48.49 45.22 52.32 51.51 57.93 49.76 C 61.70 48.56 65.68 47.50 69.61 48.68 C 69.76 53.42 73.50 57.01 74.39 61.58 C 76.03 66.54 74.75 71.74 73.09 76.50 C 74.49 76.07 75.89 75.63 77.27 75.15 C 66.27 88.80 45.30 92.47 30.02 84.12 C 17.12 77.50 8.28 62.80 9.99 48.21 C 15.80 48.16 21.63 48.14 27.43 48.40 C 29.50 48.77 31.53 49.70 33.67 49.57 M 34.34 52.76 C 30.07 54.14 25.28 56.36 23.94 61.06 C 22.36 66.99 24.91 73.41 28.98 77.76 L 28.68 78.07 L 29.31 78.10 C 30.85 80.04 32.91 81.44 35.09 82.57 C 42.55 86.08 52.07 86.77 58.91 81.49 C 60.15 80.69 61.17 79.61 62.16 78.53 C 67.16 73.33 68.54 64.71 64.80 58.51 C 63.02 55.22 59.34 53.67 55.89 52.76 C 48.75 51.51 41.46 51.12 34.34 52.76 Z" />
</g>
<g id="#ffff97ff">
<path fill="#ffff97" opacity="1.00" d=" M 69.61 48.68 C 75.00 50.28 80.59 51.99 86.16 50.10 C 86.25 52.11 86.33 54.12 86.28 56.13 C 85.05 63.08 82.33 70.11 77.27 75.15 C 75.89 75.63 74.49 76.07 73.09 76.50 C 74.75 71.74 76.03 66.54 74.39 61.58 C 73.50 57.01 69.76 53.42 69.61 48.68 Z" />
</g>
<g id="#7d180fff">
<path fill="#7d180f" opacity="1.00" d=" M 23.94 61.06 C 25.28 56.36 30.07 54.14 34.34 52.76 C 34.62 54.61 34.00 58.37 36.89 58.16 C 42.72 57.69 48.73 56.67 54.43 58.61 C 54.64 58.37 55.07 57.89 55.29 57.65 C 56.53 57.37 57.33 56.39 58.10 55.46 C 60.49 56.16 62.21 58.35 64.80 58.51 C 68.54 64.71 67.16 73.33 62.16 78.53 L 61.46 78.42 C 60.58 77.35 59.74 76.26 58.73 75.32 C 55.85 72.82 51.84 71.88 48.47 73.98 C 43.24 70.28 36.58 72.61 31.58 75.50 C 30.54 76.03 29.80 76.97 28.98 77.76 C 24.91 73.41 22.36 66.99 23.94 61.06 Z" />
</g>
<g id="#74110bff">
<path fill="#74110b" opacity="1.00" d=" M 55.89 52.76 C 59.34 53.67 63.02 55.22 64.80 58.51 C 62.21 58.35 60.49 56.16 58.10 55.46 C 57.33 56.39 56.53 57.37 55.29 57.65 C 55.52 56.02 55.72 54.40 55.89 52.76 Z" />
</g>
<g id="#f77c6eff">
<path fill="#f77c6e" opacity="1.00" d=" M 31.58 75.50 C 36.58 72.61 43.24 70.28 48.47 73.98 C 51.84 71.88 55.85 72.82 58.73 75.32 C 53.82 74.74 48.86 75.54 43.98 74.63 C 39.82 74.02 35.74 75.52 31.58 75.50 Z" />
</g>
<g id="#e8664bff">
<path fill="#e8664b" opacity="1.00" d=" M 28.98 77.76 C 29.80 76.97 30.54 76.03 31.58 75.50 C 35.74 75.52 39.82 74.02 43.98 74.63 C 48.86 75.54 53.82 74.74 58.73 75.32 C 59.74 76.26 60.58 77.35 61.46 78.42 C 50.74 78.15 40.02 78.58 29.31 78.10 L 28.68 78.07 L 28.98 77.76 Z" />
</g>
<g id="#e2562aff">
<path fill="#e2562a" opacity="1.00" d=" M 29.31 78.10 C 40.02 78.58 50.74 78.15 61.46 78.42 L 62.16 78.53 C 61.17 79.61 60.15 80.69 58.91 81.49 C 55.88 80.45 53.04 82.95 49.95 82.62 C 44.99 83.32 39.92 81.26 35.09 82.57 C 32.91 81.44 30.85 80.04 29.31 78.10 Z" />
</g>
<g id="#db4511ff">
<path fill="#db4511" opacity="1.00" d=" M 49.95 82.62 C 53.04 82.95 55.88 80.45 58.91 81.49 C 52.07 86.77 42.55 86.08 35.09 82.57 C 39.92 81.26 44.99 83.32 49.95 82.62 Z" />
</g>
</svg>
