<?xml version="1.0" encoding="UTF-8" ?>
<!DOCTYPE svg PUBLIC "-//W3C//DTD SVG 1.1//EN" "http://www.w3.org/Graphics/SVG/1.1/DTD/svg11.dtd">
<svg width="96pt" height="96pt" viewBox="0 0 96 96" version="1.1" xmlns="http://www.w3.org/2000/svg">
<g id="#e89507ff">
<path fill="#e89507" opacity="1.00" d=" M 16.55 10.91 C 17.37 7.69 20.74 5.30 24.06 6.37 C 27.85 7.55 31.23 10.02 33.82 13.02 C 29.27 13.19 26.75 7.52 22.02 7.97 C 19.16 8.11 18.09 11.26 17.83 13.65 C 17.60 16.00 17.51 18.37 17.56 20.74 C 17.56 23.13 17.95 25.74 16.45 27.81 C 14.19 22.46 15.02 16.34 16.55 10.91 Z" />
<path fill="#e89507" opacity="1.00" d=" M 64.45 12.52 C 69.02 9.48 74.18 5.72 79.98 6.75 C 84.05 7.74 85.50 12.23 85.95 15.92 C 86.38 20.32 86.85 25.24 84.26 29.12 C 83.98 28.56 83.41 27.45 83.12 26.89 C 85.11 22.91 84.61 18.30 83.84 14.08 C 83.31 11.26 81.24 8.06 78.01 8.29 C 73.58 8.44 69.96 11.30 66.14 13.18 C 65.72 13.02 64.88 12.69 64.45 12.52 Z" />
</g>
<g id="#f0ad54ff">
<path fill="#f0ad54" opacity="1.00" d=" M 17.83 13.65 C 18.09 11.26 19.16 8.11 22.02 7.97 C 26.75 7.52 29.27 13.19 33.82 13.02 L 34.20 13.03 C 29.70 14.94 25.53 17.63 22.11 21.13 C 21.08 18.43 19.91 15.72 17.83 13.65 Z" />
<path fill="#f0ad54" opacity="1.00" d=" M 66.14 13.18 C 69.96 11.30 73.58 8.44 78.01 8.29 C 81.24 8.06 83.31 11.26 83.84 14.08 C 84.61 18.30 85.11 22.91 83.12 26.89 C 82.84 26.47 82.27 25.64 81.98 25.22 C 81.76 21.66 81.70 18.07 80.90 14.57 C 79.55 16.58 78.57 18.80 77.77 21.09 C 74.40 17.79 70.47 15.08 66.14 13.18 Z" />
</g>
<g id="#ffcb73ff">
<path fill="#ffcb73" opacity="1.00" d=" M 34.20 13.03 C 43.65 8.73 54.85 8.62 64.45 12.52 C 64.88 12.69 65.72 13.02 66.14 13.18 C 70.47 15.08 74.40 17.79 77.77 21.09 C 79.20 22.45 80.61 23.81 81.98 25.22 C 82.27 25.64 82.84 26.47 83.12 26.89 C 83.41 27.45 83.98 28.56 84.26 29.12 C 89.40 38.06 91.85 49.06 88.99 59.13 C 88.40 58.04 87.82 56.95 87.17 55.90 C 87.48 53.82 87.72 51.72 87.76 49.62 C 87.44 41.30 84.69 33.08 79.43 26.58 C 69.77 14.02 51.46 8.45 36.74 14.85 C 34.90 18.05 35.26 22.12 33.40 25.34 C 31.91 26.34 30.25 27.04 28.66 27.87 C 29.28 28.01 30.51 28.28 31.13 28.42 C 27.72 29.60 24.27 30.84 21.32 32.97 C 21.78 33.54 22.69 34.69 23.15 35.26 C 23.58 35.21 24.45 35.13 24.88 35.08 C 24.51 35.39 23.78 35.99 23.42 36.29 C 23.86 36.71 24.31 37.13 24.75 37.55 C 23.39 38.34 22.02 39.11 20.72 40.00 C 20.68 40.39 20.59 41.16 20.54 41.54 C 20.51 41.79 20.45 42.27 20.42 42.52 C 17.28 46.85 13.27 50.46 9.97 54.66 C 8.77 45.31 11.21 35.61 16.45 27.81 C 17.95 25.74 17.56 23.13 17.56 20.74 C 18.27 21.77 18.98 22.81 19.69 23.84 C 20.49 22.93 21.28 22.01 22.11 21.13 C 25.53 17.63 29.70 14.94 34.20 13.03 Z" />
</g>
<g id="#fded78ff">
<path fill="#fded78" opacity="1.00" d=" M 36.74 14.85 C 51.46 8.45 69.77 14.02 79.43 26.58 C 84.69 33.08 87.44 41.30 87.76 49.62 C 86.45 50.42 85.15 51.22 83.85 52.03 C 80.43 48.81 77.55 45.06 74.05 41.93 C 68.17 37.71 60.12 36.90 53.62 40.21 C 53.98 40.64 54.70 41.49 55.07 41.92 C 60.57 39.91 67.34 39.59 71.94 43.80 C 71.33 50.60 71.66 57.45 71.83 64.26 C 70.47 59.75 70.90 55.02 70.43 50.41 C 70.29 48.89 68.17 49.37 67.14 49.35 C 63.10 50.06 59.36 53.42 55.09 51.88 C 53.08 50.57 51.97 48.25 49.94 46.97 C 47.45 46.42 44.88 46.64 42.35 46.63 C 38.97 46.83 35.35 44.46 34.44 41.20 C 36.16 41.51 39.51 44.39 39.56 40.97 C 33.89 37.11 26.04 37.57 20.54 41.54 C 20.59 41.16 20.68 40.39 20.72 40.00 C 22.02 39.11 23.39 38.34 24.75 37.55 C 24.31 37.13 23.86 36.71 23.42 36.29 C 23.78 35.99 24.51 35.39 24.88 35.08 C 28.78 32.73 33.31 31.97 37.53 30.43 C 38.73 29.25 37.49 28.07 36.92 26.95 C 34.99 27.44 33.07 27.95 31.13 28.42 C 30.51 28.28 29.28 28.01 28.66 27.87 C 30.25 27.04 31.91 26.34 33.40 25.34 C 35.26 22.12 34.90 18.05 36.74 14.85 M 55.77 29.85 C 57.49 31.35 59.82 31.49 61.93 32.03 C 65.06 32.77 67.93 34.30 70.98 35.29 C 72.55 34.74 73.25 32.36 71.41 31.68 C 67.50 29.63 63.24 28.31 58.89 27.57 C 57.21 26.78 56.49 28.83 55.77 29.85 Z" />
</g>
<g id="#fdea79ff">
<path fill="#fdea79" opacity="1.00" d=" M 17.83 13.65 C 19.91 15.72 21.08 18.43 22.11 21.13 C 21.28 22.01 20.49 22.93 19.69 23.84 C 18.98 22.81 18.27 21.77 17.56 20.74 C 17.51 18.37 17.60 16.00 17.83 13.65 Z" />
</g>
<g id="#fff57dff">
<path fill="#fff57d" opacity="1.00" d=" M 77.77 21.09 C 78.57 18.80 79.55 16.58 80.90 14.57 C 81.70 18.07 81.76 21.66 81.98 25.22 C 80.61 23.81 79.20 22.45 77.77 21.09 Z" />
</g>
<g id="#a13708ff">
<path fill="#a13708" opacity="1.00" d=" M 31.13 28.42 C 33.07 27.95 34.99 27.44 36.92 26.95 C 37.49 28.07 38.73 29.25 37.53 30.43 C 33.31 31.97 28.78 32.73 24.88 35.08 C 24.45 35.13 23.58 35.21 23.15 35.26 C 22.69 34.69 21.78 33.54 21.32 32.97 C 24.27 30.84 27.72 29.60 31.13 28.42 Z" />
</g>
<g id="#a2380aff">
<path fill="#a2380a" opacity="1.00" d=" M 55.77 29.85 C 56.49 28.83 57.21 26.78 58.89 27.57 C 63.24 28.31 67.50 29.63 71.41 31.68 C 73.25 32.36 72.55 34.74 70.98 35.29 C 67.93 34.30 65.06 32.77 61.93 32.03 C 59.82 31.49 57.49 31.35 55.77 29.85 Z" />
</g>
<g id="#2e2b20ff">
<path fill="#2e2b20" opacity="1.00" d=" M 20.54 41.54 C 26.04 37.57 33.89 37.11 39.56 40.97 C 39.51 44.39 36.16 41.51 34.44 41.20 C 30.74 39.95 26.70 40.73 23.38 42.66 C 23.10 42.81 22.52 43.11 22.23 43.26 L 21.35 44.16 L 20.42 42.52 C 20.45 42.27 20.51 41.79 20.54 41.54 Z" />
</g>
<g id="#383625ff">
<path fill="#383625" opacity="1.00" d=" M 53.62 40.21 C 60.12 36.90 68.17 37.71 74.05 41.93 L 74.91 43.95 C 74.17 43.92 72.69 43.84 71.94 43.80 C 67.34 39.59 60.57 39.91 55.07 41.92 C 54.70 41.49 53.98 40.64 53.62 40.21 Z" />
</g>
<g id="#fed875ff">
<path fill="#fed875" opacity="1.00" d=" M 23.38 42.66 C 26.70 40.73 30.74 39.95 34.44 41.20 C 35.35 44.46 38.97 46.83 42.35 46.63 C 40.62 47.90 38.87 49.15 36.99 50.20 C 32.79 49.22 28.48 48.73 24.17 48.88 C 24.15 46.82 24.14 44.75 24.06 42.69 L 23.38 42.66 Z" />
</g>
<g id="#26a7e7ff">
<path fill="#26a7e7" opacity="1.00" d=" M 74.05 41.93 C 77.55 45.06 80.43 48.81 83.85 52.03 C 84.79 53.04 85.70 54.08 86.58 55.14 C 86.22 55.41 85.51 55.95 85.15 56.22 C 84.50 55.47 83.84 54.73 83.17 53.99 C 80.46 50.85 77.04 48.27 75.08 44.53 C 74.48 45.09 73.91 45.67 73.37 46.28 C 73.44 48.90 73.55 51.52 73.56 54.14 C 73.55 55.47 73.55 56.79 73.56 58.12 C 73.63 60.79 73.86 63.45 74.19 66.10 C 75.13 69.54 78.31 71.61 81.66 72.27 L 81.94 73.53 C 80.77 73.53 79.61 73.49 78.45 73.41 C 74.73 71.81 72.52 68.13 71.83 64.26 C 71.66 57.45 71.33 50.60 71.94 43.80 C 72.69 43.84 74.17 43.92 74.91 43.95 L 74.05 41.93 Z" />
</g>
<g id="#27aeeafd">
<path fill="#27aeea" opacity="1.00" d=" M 9.97 54.66 C 13.27 50.46 17.28 46.85 20.42 42.52 L 21.35 44.16 C 19.29 46.90 17.01 49.47 14.67 51.98 C 12.17 54.56 9.65 57.31 8.48 60.79 C 7.21 63.65 8.20 66.66 9.83 69.14 C 12.98 72.51 17.36 69.97 20.96 68.97 C 21.23 69.29 21.78 69.91 22.05 70.22 C 21.29 70.95 20.50 71.65 19.68 72.32 C 19.28 72.55 18.46 73.01 18.06 73.24 C 13.55 74.29 9.01 71.81 6.77 67.91 L 6.93 66.66 C 7.19 64.90 7.17 63.09 6.91 61.33 L 6.75 60.04 C 7.74 58.20 8.72 56.34 9.97 54.66 Z" />
</g>
<g id="#2cabe5ff">
<path fill="#2cabe5" opacity="1.00" d=" M 22.23 43.26 C 22.52 43.11 23.10 42.81 23.38 42.66 L 24.06 42.69 C 24.14 44.75 24.15 46.82 24.17 48.88 C 23.76 55.95 26.02 63.83 22.05 70.22 C 21.78 69.91 21.23 69.29 20.96 68.97 C 21.26 67.50 21.61 66.04 21.93 64.57 C 22.21 62.75 22.34 60.91 22.39 59.08 C 22.41 56.55 22.33 54.03 22.21 51.51 C 22.19 48.76 22.24 46.01 22.23 43.26 Z" />
</g>
<g id="#daebf1ff">
<path fill="#daebf1" opacity="1.00" d=" M 21.35 44.16 L 22.23 43.26 C 22.24 46.01 22.19 48.76 22.21 51.51 C 21.65 50.48 21.07 49.45 20.48 48.43 C 18.80 50.29 16.94 51.99 14.90 53.44 L 14.67 51.98 C 17.01 49.47 19.29 46.90 21.35 44.16 Z" />
</g>
<g id="#c2e1eeff">
<path fill="#c2e1ee" opacity="1.00" d=" M 73.37 46.28 C 73.91 45.67 74.48 45.09 75.08 44.53 C 77.04 48.27 80.46 50.85 83.17 53.99 L 83.33 55.31 C 80.94 54.13 78.52 53.03 76.03 52.10 C 75.20 52.77 74.38 53.46 73.56 54.14 C 73.55 51.52 73.44 48.90 73.37 46.28 Z" />
</g>
<g id="#ffffb2ff">
<path fill="#ffffb2" opacity="1.00" d=" M 36.99 50.20 C 38.87 49.15 40.62 47.90 42.35 46.63 C 44.88 46.64 47.45 46.42 49.94 46.97 C 51.97 48.25 53.08 50.57 55.09 51.88 C 59.36 53.42 63.10 50.06 67.14 49.35 C 68.17 49.37 70.29 48.89 70.43 50.41 C 70.90 55.02 70.47 59.75 71.83 64.26 C 72.52 68.13 74.73 71.81 78.45 73.41 C 78.48 74.54 78.68 75.80 77.62 76.57 C 70.32 84.32 59.69 88.93 49.01 88.65 C 40.68 88.55 32.59 85.27 26.04 80.21 C 26.27 79.66 26.71 78.57 26.94 78.02 C 25.68 74.31 23.27 70.14 25.43 66.29 C 26.77 63.42 30.60 64.83 33.11 64.48 C 30.96 62.18 28.51 59.50 28.94 56.09 C 30.36 52.83 34.18 51.89 36.99 50.20 M 30.89 55.97 C 30.75 59.56 33.34 62.72 36.64 63.90 C 36.82 66.70 39.10 68.86 39.64 71.38 C 36.97 72.28 33.78 72.34 31.40 70.64 C 29.62 69.51 29.00 67.22 27.18 66.17 C 25.30 67.51 27.30 69.49 28.20 70.79 C 31.54 74.77 37.47 75.16 41.89 72.83 C 47.45 75.26 54.13 74.59 59.06 71.05 C 60.50 69.84 62.73 68.61 62.57 66.46 C 63.14 64.16 61.00 64.14 59.42 64.43 C 58.51 60.36 54.47 58.47 50.98 57.02 C 49.55 57.34 48.10 57.60 46.65 57.81 C 46.34 56.54 45.81 55.37 45.07 54.31 L 44.80 55.21 C 42.22 53.41 38.99 53.74 36.03 53.76 C 34.17 53.84 31.69 53.91 30.89 55.97 Z" />
</g>
<g id="#a5d7ecff">
<path fill="#a5d7ec" opacity="1.00" d=" M 14.90 53.44 C 16.94 51.99 18.80 50.29 20.48 48.43 C 21.07 49.45 21.65 50.48 22.21 51.51 C 22.33 54.03 22.41 56.55 22.39 59.08 C 21.61 58.46 20.82 57.86 20.03 57.25 C 16.24 58.88 11.92 59.72 8.95 62.80 C 8.83 62.30 8.60 61.29 8.48 60.79 C 9.65 57.31 12.17 54.56 14.67 51.98 L 14.90 53.44 Z" />
<path fill="#a5d7ec" opacity="1.00" d=" M 73.56 54.14 C 74.38 53.46 75.20 52.77 76.03 52.10 C 78.52 53.03 80.94 54.13 83.33 55.31 L 83.17 53.99 C 83.84 54.73 84.50 55.47 85.15 56.22 C 86.00 57.39 86.80 58.60 87.40 59.92 C 87.32 60.45 87.16 61.49 87.09 62.01 C 84.20 58.78 79.70 58.18 75.97 56.37 C 75.17 56.95 74.36 57.54 73.56 58.12 C 73.55 56.79 73.55 55.47 73.56 54.14 Z" />
</g>
<g id="#ffff9eff">
<path fill="#ffff9e" opacity="1.00" d=" M 24.17 48.88 C 28.48 48.73 32.79 49.22 36.99 50.20 C 34.18 51.89 30.36 52.83 28.94 56.09 C 28.51 59.50 30.96 62.18 33.11 64.48 C 30.60 64.83 26.77 63.42 25.43 66.29 C 23.27 70.14 25.68 74.31 26.94 78.02 C 26.71 78.57 26.27 79.66 26.04 80.21 C 23.42 78.06 20.50 75.81 19.68 72.32 C 20.50 71.65 21.29 70.95 22.05 70.22 C 26.02 63.83 23.76 55.95 24.17 48.88 Z" />
</g>
<g id="#f7f692ff">
<path fill="#f7f692" opacity="1.00" d=" M 83.85 52.03 C 85.15 51.22 86.45 50.42 87.76 49.62 C 87.72 51.72 87.48 53.82 87.17 55.90 L 86.58 55.14 C 85.70 54.08 84.79 53.04 83.85 52.03 Z" />
</g>
<g id="#7d180fff">
<path fill="#7d180f" opacity="1.00" d=" M 30.89 55.97 C 31.69 53.91 34.17 53.84 36.03 53.76 C 38.99 53.74 42.22 53.41 44.80 55.21 C 44.29 58.09 42.74 60.63 40.53 62.53 C 37.55 64.41 40.40 68.14 42.09 69.97 C 48.15 74.26 56.78 71.39 61.27 66.06 C 61.59 66.16 62.24 66.36 62.57 66.46 C 62.73 68.61 60.50 69.84 59.06 71.05 C 54.13 74.59 47.45 75.26 41.89 72.83 C 37.47 75.16 31.54 74.77 28.20 70.79 C 27.30 69.49 25.30 67.51 27.18 66.17 C 29.00 67.22 29.62 69.51 31.40 70.64 C 33.78 72.34 36.97 72.28 39.64 71.38 C 39.10 68.86 36.82 66.70 36.64 63.90 C 33.34 62.72 30.75 59.56 30.89 55.97 M 41.18 58.06 C 42.77 58.45 43.37 57.83 42.97 56.18 C 41.40 55.81 40.80 56.43 41.18 58.06 Z" />
</g>
<g id="#ffffcbff">
<path fill="#ffffcb" opacity="1.00" d=" M 44.80 55.21 L 45.07 54.31 C 45.81 55.37 46.34 56.54 46.65 57.81 C 48.10 57.60 49.55 57.34 50.98 57.02 C 54.47 58.47 58.51 60.36 59.42 64.43 C 61.00 64.14 63.14 64.16 62.57 66.46 C 62.24 66.36 61.59 66.16 61.27 66.06 C 56.78 71.39 48.15 74.26 42.09 69.97 C 40.40 68.14 37.55 64.41 40.53 62.53 C 42.74 60.63 44.29 58.09 44.80 55.21 M 42.51 65.13 C 43.12 64.84 44.35 64.26 44.97 63.97 C 45.97 64.43 47.01 64.78 48.09 65.02 C 47.62 63.46 46.24 62.60 44.95 61.79 C 43.90 62.72 42.75 63.65 42.51 65.13 Z" />
</g>
<g id="#2cb8f0fe">
<path fill="#2cb8f0" opacity="1.00" d=" M 86.58 55.14 L 87.17 55.90 C 87.82 56.95 88.40 58.04 88.99 59.13 C 89.07 59.36 89.22 59.83 89.30 60.06 C 89.55 62.69 89.52 65.35 89.19 67.97 C 88.01 70.38 85.66 71.97 83.28 73.06 L 81.94 73.53 L 81.66 72.27 C 82.74 71.46 83.87 70.71 84.98 69.93 C 88.26 67.79 89.00 63.34 87.40 59.92 C 86.80 58.60 86.00 57.39 85.15 56.22 C 85.51 55.95 86.22 55.41 86.58 55.14 Z" />
</g>
<g id="#d6b5b3ff">
<path fill="#d6b5b3" opacity="1.00" d=" M 41.18 58.06 C 40.80 56.43 41.40 55.81 42.97 56.18 C 43.37 57.83 42.77 58.45 41.18 58.06 Z" />
</g>
<g id="#70c4e8ff">
<path fill="#70c4e8" opacity="1.00" d=" M 73.56 58.12 C 74.36 57.54 75.17 56.95 75.97 56.37 C 79.70 58.18 84.20 58.78 87.09 62.01 C 87.16 61.49 87.32 60.45 87.40 59.92 C 89.00 63.34 88.26 67.79 84.98 69.93 C 81.34 68.79 77.77 67.43 74.19 66.10 C 73.86 63.45 73.63 60.79 73.56 58.12 Z" />
</g>
<g id="#73c5e8ff">
<path fill="#73c5e8" opacity="1.00" d=" M 8.95 62.80 C 11.92 59.72 16.24 58.88 20.03 57.25 C 20.82 57.86 21.61 58.46 22.39 59.08 C 22.34 60.91 22.21 62.75 21.93 64.57 C 17.56 65.02 13.54 66.88 9.83 69.14 C 8.20 66.66 7.21 63.65 8.48 60.79 C 8.60 61.29 8.83 62.30 8.95 62.80 Z" />
</g>
<g id="#146a8fc1">
<path fill="#146a8f" opacity="0.76" d=" M 89.30 60.06 C 90.36 62.59 90.37 65.48 89.19 67.97 C 89.52 65.35 89.55 62.69 89.30 60.06 Z" />
</g>
<g id="#145f7fb9">
<path fill="#145f7f" opacity="0.73" d=" M 6.93 66.66 C 5.20 66.31 5.15 61.59 6.91 61.33 C 7.17 63.09 7.19 64.90 6.93 66.66 Z" />
</g>
<g id="#ebe8b5ff">
<path fill="#ebe8b5" opacity="1.00" d=" M 42.51 65.13 C 42.75 63.65 43.90 62.72 44.95 61.79 C 46.24 62.60 47.62 63.46 48.09 65.02 C 47.01 64.78 45.97 64.43 44.97 63.97 C 44.35 64.26 43.12 64.84 42.51 65.13 Z" />
</g>
<g id="#4cb7e5ff">
<path fill="#4cb7e5" opacity="1.00" d=" M 9.83 69.14 C 13.54 66.88 17.56 65.02 21.93 64.57 C 21.61 66.04 21.26 67.50 20.96 68.97 C 17.36 69.97 12.98 72.51 9.83 69.14 Z" />
</g>
<g id="#3cb2e4ff">
<path fill="#3cb2e4" opacity="1.00" d=" M 74.19 66.10 C 77.77 67.43 81.34 68.79 84.98 69.93 C 83.87 70.71 82.74 71.46 81.66 72.27 C 78.31 71.61 75.13 69.54 74.19 66.10 Z" />
</g>
<g id="#ffc66fff">
<path fill="#ffc66f" opacity="1.00" d=" M 18.06 73.24 C 18.46 73.01 19.28 72.55 19.68 72.32 C 20.50 75.81 23.42 78.06 26.04 80.21 C 32.59 85.27 40.68 88.55 49.01 88.65 C 59.69 88.93 70.32 84.32 77.62 76.57 C 78.68 75.80 78.48 74.54 78.45 73.41 C 79.61 73.49 80.77 73.53 81.94 73.53 L 83.28 73.06 C 76.11 84.07 63.22 91.32 49.99 90.96 C 37.08 91.40 24.55 84.52 17.11 74.11 C 17.35 73.90 17.82 73.46 18.06 73.24 Z" />
</g>
</svg>
