<?xml version="1.0" encoding="UTF-8" ?>
<!DOCTYPE svg PUBLIC "-//W3C//DTD SVG 1.1//EN" "http://www.w3.org/Graphics/SVG/1.1/DTD/svg11.dtd">
<svg width="96pt" height="96pt" viewBox="0 0 96 96" version="1.1" xmlns="http://www.w3.org/2000/svg">
<g id="#eea44fff">
<path fill="#eea44f" opacity="1.00" d=" M 29.17 9.41 C 40.75 3.84 54.72 3.64 66.37 9.13 C 66.01 9.62 65.29 10.59 64.93 11.07 C 54.17 6.15 41.47 6.33 30.73 11.18 C 30.34 10.73 29.56 9.85 29.17 9.41 Z" />
</g>
<g id="#8f0d00ff">
<path fill="#8f0d00" opacity="1.00" d=" M 18.42 12.75 C 18.40 7.35 26.20 4.90 29.17 9.41 C 29.56 9.85 30.34 10.73 30.73 11.18 C 30.67 13.36 30.49 15.61 28.89 17.29 C 28.73 15.49 28.62 13.69 28.57 11.89 L 28.00 11.70 C 26.62 10.91 25.36 9.36 23.60 9.74 C 21.75 10.52 20.26 11.95 18.42 12.75 Z" />
</g>
<g id="#a03e0ee4">
<path fill="#a03e0e" opacity="0.89" d=" M 67.18 8.05 C 69.38 6.98 72.13 6.16 74.32 7.73 C 75.94 8.88 78.12 10.87 76.62 12.95 C 75.28 11.98 74.15 10.76 72.87 9.73 C 70.97 9.17 69.10 8.53 67.18 8.05 Z" />
</g>
<g id="#fded78ff">
<path fill="#fded78" opacity="1.00" d=" M 30.73 11.18 C 41.47 6.33 54.17 6.15 64.93 11.07 C 64.47 13.17 65.02 15.18 66.52 16.70 C 66.49 17.76 66.49 18.81 66.48 19.86 C 67.93 20.05 69.38 20.23 70.82 20.43 C 70.17 20.96 69.51 21.50 68.85 22.04 C 63.58 22.35 57.90 24.51 55.09 29.23 C 53.33 32.65 56.99 36.57 60.56 35.64 C 60.99 35.98 61.86 36.66 62.29 37.00 C 60.34 37.60 58.39 38.17 56.43 38.74 C 50.59 51.89 36.63 61.05 22.15 60.44 C 24.50 63.48 27.03 66.38 29.50 69.33 L 27.82 69.29 C 22.15 65.43 19.14 59.00 17.60 52.51 C 17.13 56.77 18.29 60.93 20.13 64.73 C 17.48 62.60 15.37 59.38 11.73 58.94 C 11.15 60.08 10.57 61.23 9.99 62.38 C 7.03 54.40 6.82 45.65 8.72 37.40 C 12.57 36.22 15.89 33.64 19.91 32.98 C 22.66 32.64 25.46 32.64 28.22 32.95 C 31.31 33.37 33.96 35.28 37.03 35.77 C 39.96 35.52 42.34 31.98 40.82 29.24 C 38.94 25.76 35.15 23.74 31.46 22.69 C 25.38 21.13 19.23 22.85 13.22 23.80 C 13.03 23.75 12.66 23.64 12.48 23.58 C 16.31 19.21 20.24 14.85 25.16 11.66 C 25.87 11.67 27.29 11.69 28.00 11.70 L 28.57 11.89 C 28.62 13.69 28.73 15.49 28.89 17.29 C 30.49 15.61 30.67 13.36 30.73 11.18 M 15.31 38.42 C 12.13 38.71 8.14 41.69 9.63 45.25 C 12.52 49.84 19.87 50.38 23.67 46.64 C 25.42 45.05 25.29 41.95 23.49 40.45 C 21.30 38.47 18.15 38.00 15.31 38.42 Z" />
</g>
<g id="#93390eec">
<path fill="#93390e" opacity="0.93" d=" M 66.37 9.13 C 66.57 8.86 66.98 8.32 67.18 8.05 C 69.10 8.53 70.97 9.17 72.87 9.73 C 71.41 9.55 70.05 9.81 68.78 10.51 C 67.43 12.30 66.86 14.51 66.52 16.70 C 65.02 15.18 64.47 13.17 64.93 11.07 C 65.29 10.59 66.01 9.62 66.37 9.13 Z" />
</g>
<g id="#ffd074ff">
<path fill="#ffd074" opacity="1.00" d=" M 66.52 16.70 C 66.86 14.51 67.43 12.30 68.78 10.51 C 74.40 13.36 78.84 17.87 82.92 22.57 L 83.10 23.30 C 83.03 23.56 82.90 24.08 82.84 24.34 C 78.33 22.87 73.63 21.86 68.85 22.04 C 69.51 21.50 70.17 20.96 70.82 20.43 C 69.38 20.23 67.93 20.05 66.48 19.86 C 66.49 18.81 66.49 17.76 66.52 16.70 Z" />
</g>
<g id="#1f1f1fff">
<path fill="#1f1f1f" opacity="1.00" d=" M 13.22 23.80 C 19.23 22.85 25.38 21.13 31.46 22.69 C 35.15 23.74 38.94 25.76 40.82 29.24 C 42.34 31.98 39.96 35.52 37.03 35.77 C 33.96 35.28 31.31 33.37 28.22 32.95 C 25.46 32.64 22.66 32.64 19.91 32.98 C 15.89 33.64 12.57 36.22 8.72 37.40 C 8.34 36.84 7.58 35.72 7.20 35.16 C 4.56 30.38 10.01 26.44 13.22 23.80 M 10.55 27.35 C 7.86 28.88 5.95 33.12 8.71 35.49 C 10.05 36.34 11.29 35.19 12.45 34.59 C 18.32 30.63 26.04 30.95 32.61 32.71 C 31.54 29.58 34.27 26.55 37.48 26.86 C 29.61 21.31 18.47 22.47 10.55 27.35 Z" />
<path fill="#1f1f1f" opacity="1.00" d=" M 55.09 29.23 C 57.90 24.51 63.58 22.35 68.85 22.04 C 73.63 21.86 78.33 22.87 82.84 24.34 C 82.90 24.08 83.03 23.56 83.10 23.30 L 83.53 23.13 C 85.06 27.14 91.54 29.80 88.87 34.83 C 88.57 35.46 87.96 36.72 87.65 37.35 C 82.90 36.41 79.02 32.72 74.02 32.79 C 69.33 32.32 64.61 33.19 60.56 35.64 C 56.99 36.57 53.33 32.65 55.09 29.23 M 58.60 26.74 C 59.42 27.02 61.06 27.59 61.88 27.88 C 60.52 27.90 59.18 27.98 57.84 28.13 C 59.00 28.61 60.16 29.09 61.33 29.55 C 61.66 30.28 62.32 31.73 62.65 32.46 C 63.03 31.39 63.15 30.30 63.01 29.19 C 63.53 30.28 63.64 31.46 63.34 32.73 C 68.10 31.26 73.24 31.12 78.09 32.16 C 80.99 32.68 83.20 34.80 85.90 35.78 C 87.79 35.95 88.86 33.68 88.48 32.06 C 87.90 27.45 82.78 25.96 79.13 24.42 C 72.38 22.72 64.46 22.32 58.60 26.74 Z" />
</g>
<g id="#ffffffff">
<path fill="#ffffff" opacity="1.00" d=" M 58.60 26.74 C 64.46 22.32 72.38 22.72 79.13 24.42 C 82.78 25.96 87.90 27.45 88.48 32.06 C 88.86 33.68 87.79 35.95 85.90 35.78 C 83.20 34.80 80.99 32.68 78.09 32.16 C 73.24 31.12 68.10 31.26 63.34 32.73 C 63.64 31.46 63.53 30.28 63.01 29.19 C 62.72 28.86 62.16 28.21 61.88 27.88 C 61.06 27.59 59.42 27.02 58.60 26.74 Z" />
<path fill="#ffffff" opacity="1.00" d=" M 10.55 27.35 C 18.47 22.47 29.61 21.31 37.48 26.86 C 34.27 26.55 31.54 29.58 32.61 32.71 C 26.04 30.95 18.32 30.63 12.45 34.59 C 11.29 35.19 10.05 36.34 8.71 35.49 C 5.95 33.12 7.86 28.88 10.55 27.35 Z" />
</g>
<g id="#050505ff">
<path fill="#050505" opacity="1.00" d=" M 57.84 28.13 C 59.18 27.98 60.52 27.90 61.88 27.88 C 62.16 28.21 62.72 28.86 63.01 29.19 C 63.15 30.30 63.03 31.39 62.65 32.46 C 62.32 31.73 61.66 30.28 61.33 29.55 C 60.16 29.09 59.00 28.61 57.84 28.13 Z" />
</g>
<g id="#ffd374ff">
<path fill="#ffd374" opacity="1.00" d=" M 60.56 35.64 C 64.61 33.19 69.33 32.32 74.02 32.79 C 79.02 32.72 82.90 36.41 87.65 37.35 C 89.06 45.38 89.39 53.80 86.48 61.57 C 81.09 77.52 64.93 89.05 48.06 88.76 C 31.49 89.00 15.66 77.90 9.99 62.38 C 10.57 61.23 11.15 60.08 11.73 58.94 C 15.37 59.38 17.48 62.60 20.13 64.73 C 30.85 81.06 56.19 83.25 70.39 70.38 C 74.89 65.86 78.54 59.65 77.66 53.04 C 76.34 58.77 73.87 64.38 69.13 68.10 C 57.78 77.78 39.70 78.33 27.82 69.29 L 29.50 69.33 C 27.03 66.38 24.50 63.48 22.15 60.44 C 36.63 61.05 50.59 51.89 56.43 38.74 C 58.39 38.17 60.34 37.60 62.29 37.00 C 61.86 36.66 60.99 35.98 60.56 35.64 M 76.37 38.41 C 73.39 38.83 69.68 41.62 70.85 44.98 C 73.80 50.65 83.39 50.63 86.36 44.97 C 87.46 39.57 80.59 37.37 76.37 38.41 Z" />
</g>
<g id="#eea650ff">
<path fill="#eea650" opacity="1.00" d=" M 22.93 82.95 C 8.16 72.59 1.26 52.28 7.20 35.16 C 7.58 35.72 8.34 36.84 8.72 37.40 C 6.82 45.65 7.03 54.40 9.99 62.38 C 15.66 77.90 31.49 89.00 48.06 88.76 C 64.93 89.05 81.09 77.52 86.48 61.57 C 89.39 53.80 89.06 45.38 87.65 37.35 C 87.96 36.72 88.57 35.46 88.87 34.83 C 92.96 46.83 91.21 60.72 84.27 71.33 C 78.35 80.62 68.72 87.44 57.99 89.95 C 46.01 92.61 32.85 90.33 22.93 82.95 Z" />
</g>
<g id="#f3a461ff">
<path fill="#f3a461" opacity="1.00" d=" M 15.31 38.42 C 18.15 38.00 21.30 38.47 23.49 40.45 C 25.29 41.95 25.42 45.05 23.67 46.64 C 19.87 50.38 12.52 49.84 9.63 45.25 C 8.14 41.69 12.13 38.71 15.31 38.42 M 12.05 42.14 C 12.54 43.50 12.46 45.30 13.78 46.21 C 16.37 47.40 19.28 46.58 21.86 45.79 C 21.52 44.33 22.17 42.28 20.63 41.36 C 17.97 39.40 14.59 40.62 12.05 42.14 Z" />
</g>
<g id="#f29a5bff">
<path fill="#f29a5b" opacity="1.00" d=" M 76.37 38.41 C 80.59 37.37 87.46 39.57 86.36 44.97 C 83.39 50.63 73.80 50.65 70.85 44.98 C 69.68 41.62 73.39 38.83 76.37 38.41 M 75.30 41.34 C 73.81 42.28 74.43 44.27 74.13 45.72 C 77.28 47.16 82.79 47.72 83.62 43.28 C 82.10 40.16 78.04 39.38 75.30 41.34 Z" />
</g>
<g id="#ec973bff">
<path fill="#ec973b" opacity="1.00" d=" M 12.05 42.14 C 14.59 40.62 17.97 39.40 20.63 41.36 C 22.17 42.28 21.52 44.33 21.86 45.79 C 19.28 46.58 16.37 47.40 13.78 46.21 C 12.46 45.30 12.54 43.50 12.05 42.14 Z" />
</g>
<g id="#ed8739ff">
<path fill="#ed8739" opacity="1.00" d=" M 75.30 41.34 C 78.04 39.38 82.10 40.16 83.62 43.28 C 82.79 47.72 77.28 47.16 74.13 45.72 C 74.43 44.27 73.81 42.28 75.30 41.34 Z" />
</g>
<g id="#6b0000ff">
<path fill="#6b0000" opacity="1.00" d=" M 17.60 52.51 C 19.14 59.00 22.15 65.43 27.82 69.29 C 39.70 78.33 57.78 77.78 69.13 68.10 C 73.87 64.38 76.34 58.77 77.66 53.04 C 78.54 59.65 74.89 65.86 70.39 70.38 C 56.19 83.25 30.85 81.06 20.13 64.73 C 18.29 60.93 17.13 56.77 17.60 52.51 Z" />
</g>
</svg>
