<?xml version="1.0" encoding="UTF-8" ?>
<!DOCTYPE svg PUBLIC "-//W3C//DTD SVG 1.1//EN" "http://www.w3.org/Graphics/SVG/1.1/DTD/svg11.dtd">
<svg width="96pt" height="96pt" viewBox="0 0 96 96" version="1.1" xmlns="http://www.w3.org/2000/svg">
<g id="#333333ff">
<path fill="#333333" opacity="1.00" d=" M 37.63 13.96 C 41.05 9.90 45.39 5.54 50.96 5.06 C 52.42 5.18 54.96 5.04 55.31 6.94 C 55.32 9.66 54.72 12.33 54.13 14.97 C 66.02 18.48 75.45 28.46 78.63 40.39 C 81.38 39.97 84.16 39.38 86.95 39.72 C 88.72 41.27 87.88 43.92 87.66 45.94 C 86.22 50.65 81.85 53.53 78.85 57.15 C 76.58 66.35 70.88 74.77 62.69 79.69 C 54.59 84.86 44.40 86.26 35.11 84.00 C 35.23 82.60 35.31 81.19 35.36 79.79 C 44.29 81.42 53.85 79.56 61.24 74.22 C 64.07 72.06 68.08 69.77 67.23 65.58 C 67.35 63.87 67.56 62.18 67.76 60.49 C 66.75 60.07 65.74 59.65 64.74 59.20 C 64.85 58.29 65.07 56.47 65.17 55.55 C 63.37 55.46 61.08 55.96 59.92 54.16 C 58.22 52.72 59.38 50.58 59.67 48.81 C 56.87 46.67 53.13 47.18 51.03 49.97 C 50.83 49.66 50.42 49.04 50.22 48.73 C 50.17 51.02 50.18 53.31 50.16 55.60 C 46.95 54.31 47.74 50.25 47.05 47.47 C 47.37 46.81 47.81 46.22 48.24 45.63 C 50.81 45.82 51.95 42.87 53.57 41.37 L 54.08 41.30 C 54.37 40.98 54.96 40.33 55.26 40.01 C 55.83 39.24 56.41 38.49 57.00 37.73 L 57.67 37.88 C 59.06 35.87 60.49 33.80 60.95 31.34 C 60.58 31.25 59.85 31.05 59.49 30.96 C 55.36 30.58 52.98 35.18 49.47 36.79 C 47.12 36.90 45.00 37.86 43.10 39.20 C 44.49 37.01 45.25 34.54 45.41 31.96 C 44.86 32.10 43.76 32.37 43.21 32.51 L 42.99 31.28 C 42.58 29.47 41.59 27.82 39.66 27.38 C 39.22 27.32 38.34 27.22 37.90 27.16 C 38.09 26.63 38.49 25.57 38.69 25.04 C 38.13 25.00 37.02 24.91 36.46 24.86 C 34.35 24.54 32.25 24.81 30.35 25.81 C 30.08 25.41 29.53 24.61 29.26 24.22 C 28.03 22.75 26.05 23.90 25.02 24.94 C 16.33 32.12 11.25 43.65 12.75 54.93 C 13.37 61.54 16.79 67.48 21.15 72.35 C 20.82 73.56 20.53 74.78 20.28 76.01 C 8.11 65.82 4.70 47.08 12.03 33.08 C 16.98 23.16 26.77 16.02 37.63 13.96 M 41.63 13.35 C 43.51 13.43 45.38 13.47 47.26 13.52 C 47.72 11.73 47.93 9.90 47.99 8.06 C 45.67 9.55 43.17 10.97 41.63 13.35 M 43.83 23.69 C 44.63 25.71 44.91 28.38 46.95 29.57 C 48.59 29.66 49.93 28.53 50.53 27.09 C 50.71 24.75 48.35 23.44 47.02 21.88 C 46.22 22.34 44.63 23.24 43.83 23.69 M 63.34 42.27 C 61.61 43.10 61.00 46.21 63.30 46.73 C 65.30 48.03 69.61 48.76 69.31 45.12 C 68.10 43.33 65.64 40.88 63.34 42.27 M 79.55 47.28 C 79.55 49.17 79.54 51.06 79.57 52.95 C 81.70 51.20 83.51 49.08 84.66 46.55 C 82.95 46.73 81.24 46.98 79.55 47.28 M 61.29 50.27 C 59.48 50.59 60.16 53.56 61.93 53.10 C 63.52 52.68 62.98 49.81 61.29 50.27 Z" />
<path fill="#333333" opacity="1.00" d=" M 33.96 58.40 C 28.92 57.17 29.43 49.62 33.81 47.85 C 36.66 50.02 39.69 52.43 41.08 55.83 C 40.32 58.70 36.36 58.46 33.96 58.40 M 38.06 56.80 C 39.44 57.02 39.97 56.45 39.63 55.09 C 38.22 54.85 37.70 55.42 38.06 56.80 Z" />
</g>
<g id="#676767ff">
<path fill="#676767" opacity="1.00" d=" M 41.63 13.35 C 43.17 10.97 45.67 9.55 47.99 8.06 C 47.93 9.90 47.72 11.73 47.26 13.52 C 45.38 13.47 43.51 13.43 41.63 13.35 Z" />
</g>
<g id="#ffffffff">
<path fill="#ffffff" opacity="1.00" d=" M 43.83 23.69 C 44.63 23.24 46.22 22.34 47.02 21.88 C 48.35 23.44 50.71 24.75 50.53 27.09 C 49.93 28.53 48.59 29.66 46.95 29.57 C 44.91 28.38 44.63 25.71 43.83 23.69 Z" />
<path fill="#ffffff" opacity="1.00" d=" M 30.35 25.81 C 32.25 24.81 34.35 24.54 36.46 24.86 C 36.28 26.81 35.61 29.24 37.59 30.54 C 38.98 32.12 41.19 31.27 42.99 31.28 L 43.21 32.51 C 44.07 35.70 41.49 39.30 38.05 38.73 C 32.60 37.65 27.37 31.38 30.35 25.81 Z" />
<path fill="#ffffff" opacity="1.00" d=" M 63.34 42.27 C 65.64 40.88 68.10 43.33 69.31 45.12 C 69.61 48.76 65.30 48.03 63.30 46.73 C 61.00 46.21 61.61 43.10 63.34 42.27 Z" />
<path fill="#ffffff" opacity="1.00" d=" M 51.03 49.97 C 53.13 47.18 56.87 46.67 59.67 48.81 C 59.38 50.58 58.22 52.72 59.92 54.16 C 61.08 55.96 63.37 55.46 65.17 55.55 C 65.07 56.47 64.85 58.29 64.74 59.20 C 64.17 59.97 63.61 60.74 63.06 61.52 C 56.78 62.11 50.96 56.17 51.03 49.97 Z" />
</g>
<g id="#f2f2f2ff">
<path fill="#f2f2f2" opacity="1.00" d=" M 25.02 24.94 C 26.05 23.90 28.03 22.75 29.26 24.22 L 29.35 24.76 C 28.72 27.38 27.34 30.28 29.06 32.92 C 30.00 36.22 34.94 37.39 33.99 41.25 C 38.49 45.85 44.22 40.50 48.12 37.77 C 48.46 37.52 49.14 37.04 49.47 36.79 C 52.98 35.18 55.36 30.58 59.49 30.96 C 60.06 34.33 56.79 36.49 54.90 38.81 C 52.60 41.01 50.32 43.23 48.24 45.63 C 47.81 46.22 47.37 46.81 47.05 47.47 C 46.72 50.20 45.08 55.07 48.91 56.01 C 52.80 56.60 54.63 60.51 58.12 61.90 C 60.52 63.12 64.05 62.91 65.31 60.11 C 66.24 61.82 66.84 63.68 67.23 65.58 C 68.08 69.77 64.07 72.06 61.24 74.22 C 53.85 79.56 44.29 81.42 35.36 79.79 C 35.41 77.62 35.52 75.46 35.77 73.31 C 37.25 72.26 38.67 71.15 40.07 70.01 C 38.69 68.98 37.30 67.98 35.90 66.99 C 32.95 65.03 30.41 62.54 28.08 59.89 C 27.20 58.69 26.40 57.43 25.59 56.19 L 25.21 56.12 C 24.12 54.30 23.69 51.12 21.06 51.06 C 16.92 55.01 16.30 62.50 20.57 66.68 C 21.15 67.42 21.74 68.16 22.33 68.89 C 21.91 70.03 21.52 71.18 21.15 72.35 C 16.79 67.48 13.37 61.54 12.75 54.93 C 11.25 43.65 16.33 32.12 25.02 24.94 M 33.96 58.40 C 36.36 58.46 40.32 58.70 41.08 55.83 C 39.69 52.43 36.66 50.02 33.81 47.85 C 29.43 49.62 28.92 57.17 33.96 58.40 Z" />
<path fill="#f2f2f2" opacity="1.00" d=" M 61.29 50.27 C 62.98 49.81 63.52 52.68 61.93 53.10 C 60.16 53.56 59.48 50.59 61.29 50.27 Z" />
</g>
<g id="#272726ff">
<path fill="#272726" opacity="1.00" d=" M 29.26 24.22 C 29.53 24.61 30.08 25.41 30.35 25.81 C 27.37 31.38 32.60 37.65 38.05 38.73 C 41.49 39.30 44.07 35.70 43.21 32.51 C 43.76 32.37 44.86 32.10 45.41 31.96 C 45.25 34.54 44.49 37.01 43.10 39.20 C 45.00 37.86 47.12 36.90 49.47 36.79 C 49.14 37.04 48.46 37.52 48.12 37.77 C 44.22 40.50 38.49 45.85 33.99 41.25 C 34.94 37.39 30.00 36.22 29.06 32.92 C 27.34 30.28 28.72 27.38 29.35 24.76 L 29.26 24.22 Z" />
</g>
<g id="#000000ff">
<path fill="#000000" opacity="1.00" d=" M 36.46 24.86 C 37.02 24.91 38.13 25.00 38.69 25.04 C 38.49 25.57 38.09 26.63 37.90 27.16 C 36.27 29.53 40.94 30.13 39.66 27.38 C 41.59 27.82 42.58 29.47 42.99 31.28 C 41.19 31.27 38.98 32.12 37.59 30.54 C 35.61 29.24 36.28 26.81 36.46 24.86 Z" />
<path fill="#000000" opacity="1.00" d=" M 59.49 30.96 C 59.85 31.05 60.58 31.25 60.95 31.34 C 60.49 33.80 59.06 35.87 57.67 37.88 L 57.00 37.73 C 56.41 38.49 55.83 39.24 55.26 40.01 C 54.96 40.33 54.37 40.98 54.08 41.30 L 53.57 41.37 C 51.95 42.87 50.81 45.82 48.24 45.63 C 50.32 43.23 52.60 41.01 54.90 38.81 C 56.79 36.49 60.06 34.33 59.49 30.96 Z" />
<path fill="#000000" opacity="1.00" d=" M 47.05 47.47 C 47.74 50.25 46.95 54.31 50.16 55.60 C 50.18 53.31 50.17 51.02 50.22 48.73 C 50.42 49.04 50.83 49.66 51.03 49.97 C 50.96 56.17 56.78 62.11 63.06 61.52 C 63.61 60.74 64.17 59.97 64.74 59.20 C 65.74 59.65 66.75 60.07 67.76 60.49 C 67.56 62.18 67.35 63.87 67.23 65.58 C 66.84 63.68 66.24 61.82 65.31 60.11 C 64.05 62.91 60.52 63.12 58.12 61.90 C 54.63 60.51 52.80 56.60 48.91 56.01 C 45.08 55.07 46.72 50.20 47.05 47.47 Z" />
<path fill="#000000" opacity="1.00" d=" M 20.57 66.68 C 16.30 62.50 16.92 55.01 21.06 51.06 C 23.69 51.12 24.12 54.30 25.21 56.12 L 25.11 57.28 C 23.82 55.68 22.50 54.09 21.11 52.57 C 20.15 54.98 19.00 57.43 19.06 60.08 C 19.29 62.35 20.85 64.34 20.57 66.68 Z" />
<path fill="#000000" opacity="1.00" d=" M 35.90 66.99 C 37.30 67.98 38.69 68.98 40.07 70.01 C 38.67 71.15 37.25 72.26 35.77 73.31 C 36.06 71.21 36.07 69.09 35.90 66.99 Z" />
</g>
<g id="#8f9090ff">
<path fill="#8f9090" opacity="1.00" d=" M 37.90 27.16 C 38.34 27.22 39.22 27.32 39.66 27.38 C 40.94 30.13 36.27 29.53 37.90 27.16 Z" />
</g>
<g id="#6c6c6cff">
<path fill="#6c6c6c" opacity="1.00" d=" M 79.55 47.28 C 81.24 46.98 82.95 46.73 84.66 46.55 C 83.51 49.08 81.70 51.20 79.57 52.95 C 79.54 51.06 79.55 49.17 79.55 47.28 Z" />
</g>
<g id="#1f1f1fff">
<path fill="#1f1f1f" opacity="1.00" d=" M 21.11 52.57 C 22.50 54.09 23.82 55.68 25.11 57.28 L 25.21 56.12 L 25.59 56.19 C 26.40 57.43 27.20 58.69 28.08 59.89 C 25.20 62.17 23.51 65.48 22.33 68.89 C 21.74 68.16 21.15 67.42 20.57 66.68 C 20.85 64.34 19.29 62.35 19.06 60.08 C 19.00 57.43 20.15 54.98 21.11 52.57 Z" />
</g>
<g id="#adadadff">
<path fill="#adadad" opacity="1.00" d=" M 38.06 56.80 C 37.70 55.42 38.22 54.85 39.63 55.09 C 39.97 56.45 39.44 57.02 38.06 56.80 Z" />
</g>
<g id="#5c0000ff">
<path fill="#5c0000" opacity="1.00" d=" M 28.08 59.89 C 30.41 62.54 32.95 65.03 35.90 66.99 C 36.07 69.09 36.06 71.21 35.77 73.31 C 35.52 75.46 35.41 77.62 35.36 79.79 C 35.31 81.19 35.23 82.60 35.11 84.00 C 34.74 86.91 33.57 90.84 30.03 90.97 C 26.47 91.43 24.31 88.02 22.69 85.41 C 20.86 82.64 20.14 79.30 20.28 76.01 C 20.53 74.78 20.82 73.56 21.15 72.35 C 21.52 71.18 21.91 70.03 22.33 68.89 C 23.51 65.48 25.20 62.17 28.08 59.89 M 23.56 70.95 C 22.13 73.62 22.44 76.67 22.41 79.58 C 23.41 83.62 25.81 88.14 29.99 89.53 C 32.22 88.73 33.54 86.55 33.62 84.25 C 33.60 82.02 33.75 79.79 33.55 77.57 C 33.32 73.70 35.33 68.90 31.92 65.93 C 30.72 68.01 29.92 70.28 29.17 72.56 C 28.55 75.08 28.52 77.68 28.50 80.26 L 29.44 81.03 C 29.24 81.45 28.86 82.28 28.66 82.70 C 28.38 82.47 27.82 82.01 27.54 81.78 C 27.21 79.28 27.31 76.76 27.06 74.26 C 27.84 71.13 29.00 68.11 30.40 65.20 C 29.54 64.21 28.68 63.22 27.83 62.22 C 26.18 65.02 24.84 67.98 23.56 70.95 Z" />
</g>
<g id="#f4735bff">
<path fill="#f4735b" opacity="1.00" d=" M 23.56 70.95 C 24.84 67.98 26.18 65.02 27.83 62.22 C 28.68 63.22 29.54 64.21 30.40 65.20 C 29.00 68.11 27.84 71.13 27.06 74.26 C 26.65 73.29 26.22 72.33 25.78 71.37 C 25.43 71.70 24.74 72.35 24.39 72.68 C 24.18 72.25 23.77 71.38 23.56 70.95 Z" />
</g>
<g id="#f06f57ff">
<path fill="#f06f57" opacity="1.00" d=" M 29.17 72.56 C 29.92 70.28 30.72 68.01 31.92 65.93 C 35.33 68.90 33.32 73.70 33.55 77.57 C 32.65 75.48 31.45 73.36 29.17 72.56 Z" />
</g>
<g id="#e95b2eff">
<path fill="#e95b2e" opacity="1.00" d=" M 22.41 79.58 C 22.44 76.67 22.13 73.62 23.56 70.95 C 23.77 71.38 24.18 72.25 24.39 72.68 C 24.74 72.35 25.43 71.70 25.78 71.37 C 26.22 72.33 26.65 73.29 27.06 74.26 C 27.31 76.76 27.21 79.28 27.54 81.78 C 26.10 80.50 24.46 79.30 22.41 79.58 Z" />
</g>
<g id="#e45a33ff">
<path fill="#e45a33" opacity="1.00" d=" M 28.50 80.26 C 28.52 77.68 28.55 75.08 29.17 72.56 C 31.45 73.36 32.65 75.48 33.55 77.57 C 33.75 79.79 33.60 82.02 33.62 84.25 C 32.20 83.20 30.80 82.14 29.44 81.03 L 28.50 80.26 Z" />
</g>
<g id="#de4910ff">
<path fill="#de4910" opacity="1.00" d=" M 22.41 79.58 C 24.46 79.30 26.10 80.50 27.54 81.78 C 27.82 82.01 28.38 82.47 28.66 82.70 C 28.86 82.28 29.24 81.45 29.44 81.03 C 30.80 82.14 32.20 83.20 33.62 84.25 C 33.54 86.55 32.22 88.73 29.99 89.53 C 25.81 88.14 23.41 83.62 22.41 79.58 Z" />
</g>
</svg>
