<?xml version="1.0" encoding="UTF-8" ?>
<!DOCTYPE svg PUBLIC "-//W3C//DTD SVG 1.1//EN" "http://www.w3.org/Graphics/SVG/1.1/DTD/svg11.dtd">
<svg width="96pt" height="96pt" viewBox="0 0 96 96" version="1.1" xmlns="http://www.w3.org/2000/svg">
<g id="#333333ff">
<path fill="#333333" opacity="1.00" d=" M 11.73 11.14 C 12.54 7.13 15.86 4.45 19.00 2.19 C 21.75 4.84 23.95 7.96 26.57 10.72 C 30.74 9.44 34.62 7.26 38.94 6.46 C 49.44 4.03 60.51 6.06 70.01 10.90 C 72.20 7.63 74.78 4.62 77.90 2.19 C 80.27 4.54 83.12 6.77 84.10 10.10 C 85.39 14.95 85.50 20.02 85.31 25.00 C 89.90 32.14 92.95 40.46 92.94 49.02 C 93.45 66.14 82.84 82.90 67.27 89.97 C 58.82 93.65 49.14 95.99 40.03 93.45 C 27.79 91.06 16.66 83.43 10.25 72.71 C 6.63 66.74 4.53 59.93 3.77 53.01 C 3.05 43.24 6.04 33.43 11.20 25.18 C 10.25 20.53 10.95 15.76 11.73 11.14 M 43.28 21.82 C 42.42 29.65 41.81 37.53 40.00 45.21 C 39.43 47.71 37.83 49.87 35.76 51.35 C 33.50 51.74 31.20 51.45 28.93 51.56 C 22.26 51.69 14.98 48.20 12.87 41.47 C 12.27 41.88 11.07 42.72 10.47 43.14 C 10.24 47.10 10.10 51.08 10.51 55.04 C 12.18 68.75 21.25 81.46 34.01 86.94 C 40.60 90.00 47.99 90.04 55.08 89.37 C 61.43 87.67 67.63 84.98 72.47 80.42 C 81.47 72.67 86.17 60.79 86.40 49.06 C 86.96 44.08 81.31 42.29 78.06 39.85 C 76.78 43.49 75.05 47.42 71.24 49.01 C 66.35 52.04 60.48 51.88 54.97 51.48 C 52.17 49.49 49.71 46.71 48.83 43.33 C 47.85 36.23 49.29 28.91 47.29 21.94 C 46.71 21.51 45.55 20.67 44.97 20.25 C 44.55 20.64 43.71 21.43 43.28 21.82 M 61.37 23.56 C 58.64 24.13 57.29 27.62 59.31 29.70 C 60.01 31.54 62.13 30.69 63.53 30.35 C 65.51 29.44 68.72 27.79 67.59 25.13 C 66.86 22.39 63.43 23.20 61.37 23.56 M 25.17 26.82 C 26.46 30.03 30.46 30.43 33.44 30.93 C 34.32 29.11 34.74 27.13 34.62 25.10 C 33.98 24.68 32.69 23.84 32.05 23.42 C 30.21 23.40 28.37 23.40 26.52 23.42 C 26.04 24.54 25.52 25.65 25.17 26.82 M 12.34 35.14 C 13.82 37.90 15.07 40.79 16.54 43.56 C 18.45 47.02 22.65 47.86 26.00 49.31 C 27.36 49.32 28.72 49.33 30.09 49.34 C 32.09 48.59 34.09 47.83 36.07 47.01 C 35.80 45.27 35.18 43.62 33.79 42.46 C 32.69 43.91 31.55 45.34 30.36 46.72 C 28.46 46.37 26.05 46.96 24.70 45.20 C 22.76 43.59 23.58 40.89 23.53 38.71 C 19.92 37.16 16.18 35.93 12.34 35.14 M 67.36 38.54 C 67.25 40.53 67.95 42.87 66.41 44.48 C 65.21 46.13 62.98 46.22 61.17 46.66 C 60.62 46.25 59.52 45.43 58.98 45.02 C 58.30 44.04 57.62 43.07 56.94 42.09 C 55.94 43.40 54.54 44.51 54.10 46.16 C 55.62 47.94 57.94 48.57 60.01 49.47 C 64.64 49.43 69.46 48.06 72.98 44.97 C 75.04 41.94 76.13 38.35 77.95 35.16 C 74.32 35.97 70.79 37.13 67.36 38.54 Z" />
<path fill="#333333" opacity="1.00" d=" M 38.08 57.72 C 42.92 56.40 48.01 56.30 52.82 57.89 C 52.03 58.33 50.47 59.22 49.69 59.66 C 49.68 60.07 49.67 60.89 49.66 61.30 C 50.44 61.33 52.01 61.38 52.79 61.41 C 51.21 63.71 49.90 66.90 46.84 67.51 C 41.47 68.59 37.47 62.58 38.08 57.72 Z" />
<path fill="#333333" opacity="1.00" d=" M 37.98 82.89 C 39.60 75.32 51.66 78.47 52.73 84.80 C 50.06 83.84 47.68 82.22 44.99 81.32 C 42.52 80.76 40.34 82.54 37.98 82.89 Z" />
</g>
<g id="#f3f3f3ff">
<path fill="#f3f3f3" opacity="1.00" d=" M 43.28 21.82 C 43.71 21.43 44.55 20.64 44.97 20.25 C 45.55 20.67 46.71 21.51 47.29 21.94 C 49.29 28.91 47.85 36.23 48.83 43.33 C 49.71 46.71 52.17 49.49 54.97 51.48 C 60.48 51.88 66.35 52.04 71.24 49.01 C 75.05 47.42 76.78 43.49 78.06 39.85 C 81.31 42.29 86.96 44.08 86.40 49.06 C 86.17 60.79 81.47 72.67 72.47 80.42 C 67.63 84.98 61.43 87.67 55.08 89.37 C 47.99 90.04 40.60 90.00 34.01 86.94 C 21.25 81.46 12.18 68.75 10.51 55.04 C 10.10 51.08 10.24 47.10 10.47 43.14 C 11.07 42.72 12.27 41.88 12.87 41.47 C 14.98 48.20 22.26 51.69 28.93 51.56 C 31.20 51.45 33.50 51.74 35.76 51.35 C 37.83 49.87 39.43 47.71 40.00 45.21 C 41.81 37.53 42.42 29.65 43.28 21.82 M 38.08 57.72 C 37.47 62.58 41.47 68.59 46.84 67.51 C 49.90 66.90 51.21 63.71 52.79 61.41 C 52.01 61.38 50.44 61.33 49.66 61.30 C 49.67 60.89 49.68 60.07 49.69 59.66 C 50.47 59.22 52.03 58.33 52.82 57.89 C 48.01 56.30 42.92 56.40 38.08 57.72 M 37.98 82.89 C 40.34 82.54 42.52 80.76 44.99 81.32 C 47.68 82.22 50.06 83.84 52.73 84.80 C 51.66 78.47 39.60 75.32 37.98 82.89 Z" />
<path fill="#f3f3f3" opacity="1.00" d=" M 61.37 23.56 C 63.43 23.20 66.86 22.39 67.59 25.13 C 68.72 27.79 65.51 29.44 63.53 30.35 C 62.13 30.69 60.01 31.54 59.31 29.70 C 57.29 27.62 58.64 24.13 61.37 23.56 Z" />
<path fill="#f3f3f3" opacity="1.00" d=" M 25.17 26.82 C 25.52 25.65 26.04 24.54 26.52 23.42 C 28.37 23.40 30.21 23.40 32.05 23.42 C 32.69 23.84 33.98 24.68 34.62 25.10 C 34.74 27.13 34.32 29.11 33.44 30.93 C 30.46 30.43 26.46 30.03 25.17 26.82 Z" />
<path fill="#f3f3f3" opacity="1.00" d=" M 12.34 35.14 C 16.18 35.93 19.92 37.16 23.53 38.71 C 23.58 40.89 22.76 43.59 24.70 45.20 C 26.05 46.96 28.46 46.37 30.36 46.72 C 31.55 45.34 32.69 43.91 33.79 42.46 C 35.18 43.62 35.80 45.27 36.07 47.01 C 34.09 47.83 32.09 48.59 30.09 49.34 C 28.72 49.33 27.36 49.32 26.00 49.31 C 22.65 47.86 18.45 47.02 16.54 43.56 C 15.07 40.79 13.82 37.90 12.34 35.14 Z" />
<path fill="#f3f3f3" opacity="1.00" d=" M 67.36 38.54 C 70.79 37.13 74.32 35.97 77.95 35.16 C 76.13 38.35 75.04 41.94 72.98 44.97 C 69.46 48.06 64.64 49.43 60.01 49.47 C 57.94 48.57 55.62 47.94 54.10 46.16 C 54.54 44.51 55.94 43.40 56.94 42.09 C 57.62 43.07 58.30 44.04 58.98 45.02 C 59.52 45.43 60.62 46.25 61.17 46.66 C 62.98 46.22 65.21 46.13 66.41 44.48 C 67.95 42.87 67.25 40.53 67.36 38.54 Z" />
</g>
</svg>
