<?xml version="1.0" encoding="UTF-8" ?>
<!DOCTYPE svg PUBLIC "-//W3C//DTD SVG 1.1//EN" "http://www.w3.org/Graphics/SVG/1.1/DTD/svg11.dtd">
<svg width="96pt" height="96pt" viewBox="0 0 96 96" version="1.1" xmlns="http://www.w3.org/2000/svg">
<g id="#fde130ff">
<path fill="#fde130" opacity="1.00" d=" M 24.33 12.88 C 25.14 9.78 27.02 6.74 29.76 5.01 C 29.31 6.82 28.40 8.51 28.29 10.39 C 28.57 11.48 28.91 12.55 29.29 13.61 C 30.64 16.06 32.67 17.99 34.56 20.01 C 33.94 22.43 35.70 24.29 36.74 26.27 C 37.77 28.11 38.20 30.20 38.77 32.21 C 34.13 33.25 29.35 33.20 24.64 33.61 C 21.63 29.55 27.86 24.79 24.40 21.16 C 23.70 20.39 22.30 18.85 21.60 18.09 C 23.56 18.41 25.46 19.00 27.27 19.80 C 27.81 21.83 28.42 23.84 29.06 25.84 C 29.39 24.65 29.66 23.45 29.86 22.23 C 27.15 19.75 24.65 16.70 24.33 12.88 Z" />
<path fill="#fde130" opacity="1.00" d=" M 63.75 5.13 C 63.97 5.30 64.40 5.65 64.62 5.83 C 64.10 6.67 63.65 7.55 63.29 8.47 C 63.00 12.13 64.41 15.92 67.56 17.97 C 67.50 18.64 67.38 19.99 67.31 20.66 C 68.80 22.11 70.60 23.35 71.63 25.19 C 72.86 28.36 67.13 29.09 68.53 32.65 C 70.07 32.19 71.68 31.87 73.12 31.11 L 74.23 30.45 C 73.54 31.40 72.84 32.36 72.16 33.31 C 67.66 33.17 63.16 33.33 58.67 33.38 C 58.63 30.91 58.50 28.32 59.85 26.13 C 60.47 27.54 61.08 28.95 61.67 30.38 C 62.70 27.99 64.14 25.74 64.69 23.16 C 64.84 21.50 63.19 20.82 62.02 20.15 C 62.39 21.99 62.81 23.83 63.24 25.67 C 62.64 25.47 61.42 25.09 60.81 24.89 C 60.38 23.92 59.95 22.93 59.47 21.98 C 58.91 21.30 58.34 20.62 57.76 19.96 C 57.36 19.50 56.56 18.57 56.16 18.10 C 58.07 18.62 59.97 19.16 61.87 19.74 C 59.91 16.88 58.70 13.50 59.76 10.05 C 60.20 9.50 61.08 8.41 61.52 7.86 C 62.27 6.95 63.01 6.04 63.75 5.13 Z" />
</g>
<g id="#dd431eff">
<path fill="#dd431e" opacity="1.00" d=" M 28.29 10.39 C 38.47 5.16 50.73 3.33 61.52 7.86 C 61.08 8.41 60.20 9.50 59.76 10.05 C 49.84 7.06 37.78 6.96 29.29 13.61 C 28.91 12.55 28.57 11.48 28.29 10.39 Z" />
<path fill="#dd431e" opacity="1.00" d=" M 67.56 17.97 C 64.41 15.92 63.00 12.13 63.29 8.47 C 65.37 9.47 67.53 10.29 69.75 10.93 C 70.75 11.94 71.82 12.88 72.98 13.70 C 72.41 14.49 71.84 15.28 71.27 16.07 C 72.00 17.58 72.73 19.08 73.46 20.59 C 71.49 19.73 69.50 18.91 67.56 17.97 Z" />
<path fill="#dd431e" opacity="1.00" d=" M 5.42 43.91 C 7.26 31.65 13.65 19.62 24.33 12.88 C 24.65 16.70 27.15 19.75 29.86 22.23 C 29.66 23.45 29.39 24.65 29.06 25.84 C 28.42 23.84 27.81 21.83 27.27 19.80 C 25.46 19.00 23.56 18.41 21.60 18.09 C 22.30 18.85 23.70 20.39 24.40 21.16 C 25.10 25.18 22.16 28.00 20.26 31.12 C 18.65 37.66 25.63 44.31 32.03 42.89 C 32.51 43.18 33.46 43.75 33.94 44.03 C 34.51 46.29 35.35 48.46 36.37 50.55 C 34.68 51.13 32.99 51.71 31.27 52.22 C 27.30 51.80 23.08 48.70 19.22 51.12 C 16.96 52.32 17.36 55.06 17.73 57.14 C 18.95 63.80 19.46 70.76 17.59 77.36 C 8.91 68.78 4.42 56.03 5.42 43.91 Z" />
<path fill="#dd431e" opacity="1.00" d=" M 87.23 31.95 C 93.65 47.00 90.21 65.87 78.44 77.36 C 77.17 71.77 76.32 65.95 77.55 60.27 C 80.70 60.97 83.82 60.20 86.66 58.82 C 88.58 51.22 88.19 43.21 86.05 35.71 C 86.47 34.46 86.86 33.21 87.23 31.95 Z" />
<path fill="#dd431e" opacity="1.00" d=" M 25.29 83.75 C 40.19 81.18 55.64 80.45 70.47 83.82 C 62.41 89.04 52.49 91.64 42.92 90.47 C 36.77 89.12 30.55 87.36 25.29 83.75 Z" />
</g>
<g id="#f75d1eff">
<path fill="#f75d1e" opacity="1.00" d=" M 29.29 13.61 C 37.78 6.96 49.84 7.06 59.76 10.05 C 58.70 13.50 59.91 16.88 61.87 19.74 C 59.97 19.16 58.07 18.62 56.16 18.10 C 56.56 18.57 57.36 19.50 57.76 19.96 C 56.08 21.92 54.13 20.37 52.34 19.57 C 52.43 22.30 53.57 24.80 54.75 27.21 C 55.29 27.38 56.38 27.72 56.92 27.89 C 55.90 29.76 54.37 31.67 54.70 33.93 C 55.33 38.94 59.99 42.86 64.93 43.18 C 68.89 42.73 71.62 39.60 73.96 36.68 C 75.64 34.75 77.21 32.70 79.19 31.06 C 82.12 31.06 83.64 34.41 86.05 35.71 C 88.19 43.21 88.58 51.22 86.66 58.82 C 83.82 60.20 80.70 60.97 77.55 60.27 C 77.86 57.49 79.65 54.05 77.40 51.65 C 74.52 49.49 70.81 50.87 67.64 51.42 C 60.58 53.19 53.26 52.74 46.06 52.75 C 41.13 52.73 36.17 52.95 31.27 52.22 C 32.99 51.71 34.68 51.13 36.37 50.55 C 35.35 48.46 34.51 46.29 33.94 44.03 C 33.46 43.75 32.51 43.18 32.03 42.89 C 34.40 41.42 36.91 39.87 38.36 37.40 C 39.75 35.01 39.83 32.16 40.19 29.49 C 43.20 27.48 43.83 23.78 44.78 20.56 C 43.41 21.21 42.04 21.86 40.67 22.52 C 36.79 19.67 33.52 16.01 29.29 13.61 Z" />
<path fill="#f75d1e" opacity="1.00" d=" M 75.14 21.76 C 77.14 22.07 79.15 22.38 81.16 22.69 C 81.36 24.03 81.55 25.37 81.75 26.71 C 78.89 27.15 76.29 28.41 74.23 30.45 L 73.12 31.11 C 75.99 28.75 76.17 25.08 75.14 21.76 Z" />
</g>
<g id="#a33f0ffe">
<path fill="#a33f0f" opacity="1.00" d=" M 29.29 13.61 C 33.52 16.01 36.79 19.67 40.67 22.52 C 42.04 21.86 43.41 21.21 44.78 20.56 C 43.83 23.78 43.20 27.48 40.19 29.49 C 39.29 25.84 37.32 22.55 34.56 20.01 C 32.67 17.99 30.64 16.06 29.29 13.61 Z" />
<path fill="#a33f0f" opacity="1.00" d=" M 72.98 13.70 C 75.08 15.20 77.01 16.92 78.95 18.63 C 80.83 17.13 82.00 11.87 84.95 13.96 C 86.52 17.40 80.59 19.11 81.16 22.69 C 79.15 22.38 77.14 22.07 75.14 21.76 C 76.17 25.08 75.99 28.75 73.12 31.11 C 71.68 31.87 70.07 32.19 68.53 32.65 C 67.13 29.09 72.86 28.36 71.63 25.19 C 70.60 23.35 68.80 22.11 67.31 20.66 C 67.38 19.99 67.50 18.64 67.56 17.97 C 69.50 18.91 71.49 19.73 73.46 20.59 C 72.73 19.08 72.00 17.58 71.27 16.07 C 71.84 15.28 72.41 14.49 72.98 13.70 Z" />
<path fill="#a33f0f" opacity="1.00" d=" M 81.16 22.69 C 83.48 20.78 85.25 16.57 88.78 17.28 C 91.35 20.43 84.88 20.98 85.25 24.03 C 86.30 25.92 88.41 26.80 90.00 28.17 C 90.73 28.62 90.82 30.31 89.96 30.68 C 88.89 31.97 87.57 30.38 86.43 30.05 C 86.63 30.53 87.03 31.48 87.23 31.95 C 86.86 33.21 86.47 34.46 86.05 35.71 C 83.64 34.41 82.12 31.06 79.19 31.06 C 77.21 32.70 75.64 34.75 73.96 36.68 C 73.34 35.56 72.74 34.44 72.16 33.31 C 72.84 32.36 73.54 31.40 74.23 30.45 C 76.29 28.41 78.89 27.15 81.75 26.71 C 81.55 25.37 81.36 24.03 81.16 22.69 Z" />
<path fill="#a33f0f" opacity="1.00" d=" M 54.75 27.21 C 53.57 24.80 52.43 22.30 52.34 19.57 C 54.13 20.37 56.08 21.92 57.76 19.96 C 58.34 20.62 58.91 21.30 59.47 21.98 C 58.85 24.04 58.07 26.06 56.92 27.89 C 56.38 27.72 55.29 27.38 54.75 27.21 Z" />
<path fill="#a33f0f" opacity="1.00" d=" M 19.22 51.12 C 23.08 48.70 27.30 51.80 31.27 52.22 C 36.17 52.95 41.13 52.73 46.06 52.75 C 53.26 52.74 60.58 53.19 67.64 51.42 C 70.81 50.87 74.52 49.49 77.40 51.65 C 79.65 54.05 77.86 57.49 77.55 60.27 C 76.32 65.95 77.17 71.77 78.44 77.36 C 78.57 79.04 78.78 81.16 77.29 82.34 C 75.45 84.05 72.71 83.19 70.47 83.82 C 55.64 80.45 40.19 81.18 25.29 83.75 C 23.27 83.77 21.05 83.96 19.23 82.93 C 17.40 81.75 17.32 79.29 17.59 77.36 C 19.46 70.76 18.95 63.80 17.73 57.14 C 17.36 55.06 16.96 52.32 19.22 51.12 M 19.49 54.93 C 20.67 58.88 20.64 63.00 20.88 67.07 C 24.53 66.67 28.19 66.38 31.85 66.06 C 31.85 62.07 31.58 58.07 30.61 54.19 C 27.67 53.76 24.99 51.82 21.95 52.25 C 20.53 52.16 18.97 53.38 19.49 54.93 M 62.58 54.29 C 61.67 58.00 61.28 61.80 61.28 65.61 C 65.90 65.66 70.50 66.12 75.11 66.46 C 74.65 61.80 76.73 57.32 76.26 52.73 C 71.64 51.71 67.14 53.82 62.58 54.29 M 32.60 54.49 C 33.49 58.19 33.67 62.00 33.70 65.79 C 37.70 65.80 41.69 65.57 45.68 65.39 C 45.39 61.81 45.48 58.22 45.44 54.64 C 41.16 55.07 36.87 54.95 32.60 54.49 M 47.40 54.71 C 47.30 58.27 47.25 61.84 47.54 65.40 C 51.47 65.42 55.39 65.42 59.32 65.39 C 59.56 61.72 59.69 58.02 60.65 54.44 C 56.24 54.77 51.82 54.77 47.40 54.71 M 33.76 67.78 C 33.71 72.03 33.24 76.26 32.46 80.44 C 36.78 79.46 41.22 79.36 45.62 79.30 C 45.71 75.28 45.67 71.25 45.67 67.23 C 41.71 67.54 37.73 67.58 33.76 67.78 M 21.14 69.04 C 20.59 71.39 20.88 73.88 20.12 76.21 C 19.76 77.77 18.91 79.53 19.87 81.06 C 23.30 82.92 27.04 80.59 30.60 80.43 C 31.24 76.28 31.92 72.12 31.83 67.90 C 28.28 68.43 24.66 68.35 21.14 69.04 M 47.56 67.30 C 47.57 71.29 47.55 75.29 47.59 79.29 C 52.29 79.30 57.01 79.40 61.67 80.12 C 60.96 75.83 59.49 71.69 59.41 67.30 C 55.46 67.27 51.51 67.28 47.56 67.30 M 61.31 67.45 C 61.55 71.82 62.68 76.06 63.95 80.23 C 68.17 80.11 72.99 83.24 76.77 80.39 C 76.02 76.52 75.01 72.66 75.19 68.68 C 70.64 67.69 65.94 67.74 61.31 67.45 Z" />
</g>
<g id="#e58d04ff">
<path fill="#e58d04" opacity="1.00" d=" M 24.40 21.16 C 27.86 24.79 21.63 29.55 24.64 33.61 C 29.35 33.20 34.13 33.25 38.77 32.21 C 38.20 30.20 37.77 28.11 36.74 26.27 C 35.70 24.29 33.94 22.43 34.56 20.01 C 37.32 22.55 39.29 25.84 40.19 29.49 C 39.83 32.16 39.75 35.01 38.36 37.40 C 36.91 39.87 34.40 41.42 32.03 42.89 C 25.63 44.31 18.65 37.66 20.26 31.12 C 22.16 28.00 25.10 25.18 24.40 21.16 Z" />
<path fill="#e58d04" opacity="1.00" d=" M 62.02 20.15 C 63.19 20.82 64.84 21.50 64.69 23.16 C 64.14 25.74 62.70 27.99 61.67 30.38 C 61.08 28.95 60.47 27.54 59.85 26.13 C 58.50 28.32 58.63 30.91 58.67 33.38 C 63.16 33.33 67.66 33.17 72.16 33.31 C 72.74 34.44 73.34 35.56 73.96 36.68 C 71.62 39.60 68.89 42.73 64.93 43.18 C 59.99 42.86 55.33 38.94 54.70 33.93 C 54.37 31.67 55.90 29.76 56.92 27.89 C 58.07 26.06 58.85 24.04 59.47 21.98 C 59.95 22.93 60.38 23.92 60.81 24.89 C 61.42 25.09 62.64 25.47 63.24 25.67 C 62.81 23.83 62.39 21.99 62.02 20.15 Z" />
</g>
<g id="#ffffffff">
<path fill="#ffffff" opacity="1.00" d=" M 19.49 54.93 C 18.97 53.38 20.53 52.16 21.95 52.25 C 24.99 51.82 27.67 53.76 30.61 54.19 C 31.58 58.07 31.85 62.07 31.85 66.06 C 28.19 66.38 24.53 66.67 20.88 67.07 C 20.64 63.00 20.67 58.88 19.49 54.93 Z" />
<path fill="#ffffff" opacity="1.00" d=" M 62.58 54.29 C 67.14 53.82 71.64 51.71 76.26 52.73 C 76.73 57.32 74.65 61.80 75.11 66.46 C 70.50 66.12 65.90 65.66 61.28 65.61 C 61.28 61.80 61.67 58.00 62.58 54.29 Z" />
<path fill="#ffffff" opacity="1.00" d=" M 32.60 54.49 C 36.87 54.95 41.16 55.07 45.44 54.64 C 45.48 58.22 45.39 61.81 45.68 65.39 C 41.69 65.57 37.70 65.80 33.70 65.79 C 33.67 62.00 33.49 58.19 32.60 54.49 Z" />
<path fill="#ffffff" opacity="1.00" d=" M 47.40 54.71 C 51.82 54.77 56.24 54.77 60.65 54.44 C 59.69 58.02 59.56 61.72 59.32 65.39 C 55.39 65.42 51.47 65.42 47.54 65.40 C 47.25 61.84 47.30 58.27 47.40 54.71 Z" />
<path fill="#ffffff" opacity="1.00" d=" M 33.76 67.78 C 37.73 67.58 41.71 67.54 45.67 67.23 C 45.67 71.25 45.71 75.28 45.62 79.30 C 41.22 79.36 36.78 79.46 32.46 80.44 C 33.24 76.26 33.71 72.03 33.76 67.78 Z" />
<path fill="#ffffff" opacity="1.00" d=" M 21.14 69.04 C 24.66 68.35 28.28 68.43 31.83 67.90 C 31.92 72.12 31.24 76.28 30.60 80.43 C 27.04 80.59 23.30 82.92 19.87 81.06 C 18.91 79.53 19.76 77.77 20.12 76.21 C 20.88 73.88 20.59 71.39 21.14 69.04 Z" />
<path fill="#ffffff" opacity="1.00" d=" M 47.56 67.30 C 51.51 67.28 55.46 67.27 59.41 67.30 C 59.49 71.69 60.96 75.83 61.67 80.12 C 57.01 79.40 52.29 79.30 47.59 79.29 C 47.55 75.29 47.57 71.29 47.56 67.30 Z" />
<path fill="#ffffff" opacity="1.00" d=" M 61.31 67.45 C 65.94 67.74 70.64 67.69 75.19 68.68 C 75.01 72.66 76.02 76.52 76.77 80.39 C 72.99 83.24 68.17 80.11 63.95 80.23 C 62.68 76.06 61.55 71.82 61.31 67.45 Z" />
</g>
</svg>
