<?xml version="1.0" encoding="UTF-8" ?>
<!DOCTYPE svg PUBLIC "-//W3C//DTD SVG 1.1//EN" "http://www.w3.org/Graphics/SVG/1.1/DTD/svg11.dtd">
<svg width="96pt" height="96pt" viewBox="0 0 96 96" version="1.1" xmlns="http://www.w3.org/2000/svg">
<g id="#ed9140ff">
<path fill="#ed9140" opacity="1.00" d=" M 26.91 11.13 C 35.46 6.73 45.31 3.77 54.95 5.83 C 59.53 7.00 64.11 8.31 68.30 10.57 C 67.48 11.21 66.67 11.88 65.84 12.52 C 63.34 9.81 59.59 9.21 56.18 8.41 C 47.01 6.35 37.04 7.89 29.02 12.82 C 28.31 12.26 27.61 11.69 26.91 11.13 Z" />
<path fill="#ed9140" opacity="1.00" d=" M 68.13 13.24 C 68.87 12.65 69.60 12.04 70.31 11.42 C 75.42 15.29 80.50 19.47 83.87 25.02 C 90.29 35.26 93.32 48.41 88.90 60.02 C 84.62 75.21 71.21 86.94 55.81 89.93 C 45.54 92.44 34.65 89.32 25.75 84.05 C 13.87 76.95 6.53 63.63 5.45 50.01 C 4.94 35.22 12.58 20.58 24.84 12.32 C 25.28 12.64 26.16 13.29 26.59 13.62 C 26.17 13.95 25.34 14.62 24.92 14.95 C 14.83 21.94 8.45 33.76 7.63 45.95 C 7.47 54.28 9.55 62.76 14.15 69.77 C 20.32 79.88 31.40 86.40 42.97 88.19 C 60.03 90.55 77.97 80.59 84.84 64.77 C 86.45 61.49 87.40 57.95 87.91 54.34 C 83.18 56.13 77.80 57.42 73.14 54.68 C 70.99 54.19 70.98 50.84 72.95 50.07 C 77.70 47.09 83.76 48.42 88.49 50.74 C 89.61 35.77 81.62 20.14 68.13 13.24 Z" />
<path fill="#ed9140" opacity="1.00" d=" M 9.63 51.99 C 11.64 50.07 14.04 48.18 17.00 48.32 C 20.55 48.09 25.88 49.74 24.84 54.31 C 19.97 56.92 12.91 57.25 9.63 51.99 Z" />
</g>
<g id="#fde376ff">
<path fill="#fde376" opacity="1.00" d=" M 29.02 12.82 C 37.04 7.89 47.01 6.35 56.18 8.41 C 59.59 9.21 63.34 9.81 65.84 12.52 C 60.52 16.26 55.35 20.20 50.07 24.01 C 50.32 24.44 50.81 25.29 51.05 25.71 C 56.90 21.77 62.52 17.51 68.13 13.24 C 81.62 20.14 89.61 35.77 88.49 50.74 C 83.76 48.42 77.70 47.09 72.95 50.07 C 70.98 50.84 70.99 54.19 73.14 54.68 C 77.80 57.42 83.18 56.13 87.91 54.34 C 87.40 57.95 86.45 61.49 84.84 64.77 C 82.89 64.74 81.00 65.20 79.25 66.03 C 75.26 67.84 70.96 68.84 66.65 69.49 C 60.80 70.40 55.10 68.36 49.35 67.66 C 50.25 66.88 51.15 66.10 52.05 65.32 C 53.98 63.88 54.98 61.38 54.27 59.02 C 53.27 55.26 51.83 51.45 49.02 48.65 C 48.39 49.98 47.80 51.32 47.23 52.68 C 45.34 49.30 43.35 45.77 39.83 43.84 C 41.36 41.49 42.83 38.92 42.91 36.04 C 43.68 28.75 37.47 21.33 30.02 21.38 C 26.95 21.13 24.01 22.23 21.29 23.53 C 23.16 20.95 26.88 18.57 24.92 14.95 C 25.34 14.62 26.17 13.95 26.59 13.62 C 31.76 17.42 36.85 21.34 42.11 25.01 C 42.99 25.93 44.00 24.83 44.91 24.60 C 39.70 20.56 34.32 16.74 29.02 12.82 M 61.28 21.41 C 53.52 23.61 49.11 33.57 53.37 40.63 C 56.79 47.55 66.34 49.74 72.74 45.73 C 78.63 42.09 80.66 33.65 77.21 27.67 C 74.38 22.00 67.19 19.44 61.28 21.41 Z" />
</g>
<g id="#711911ff">
<path fill="#711911" opacity="1.00" d=" M 22.83 10.82 C 24.19 9.48 25.76 9.88 26.91 11.13 C 27.61 11.69 28.31 12.26 29.02 12.82 C 34.32 16.74 39.70 20.56 44.91 24.60 C 44.00 24.83 42.99 25.93 42.11 25.01 C 36.85 21.34 31.76 17.42 26.59 13.62 C 26.16 13.29 25.28 12.64 24.84 12.32 C 24.34 11.94 23.34 11.19 22.83 10.82 Z" />
<path fill="#711911" opacity="1.00" d=" M 68.30 10.57 C 69.27 9.86 70.39 9.58 71.67 9.74 C 71.33 10.16 70.65 11.00 70.31 11.42 C 69.60 12.04 68.87 12.65 68.13 13.24 C 62.52 17.51 56.90 21.77 51.05 25.71 C 50.81 25.29 50.32 24.44 50.07 24.01 C 55.35 20.20 60.52 16.26 65.84 12.52 C 66.67 11.88 67.48 11.21 68.30 10.57 Z" />
<path fill="#711911" opacity="1.00" d=" M 21.29 23.53 C 24.01 22.23 26.95 21.13 30.02 21.38 C 37.47 21.33 43.68 28.75 42.91 36.04 C 42.83 38.92 41.36 41.49 39.83 43.84 C 34.44 49.87 23.57 50.00 18.67 43.31 C 15.81 39.93 15.72 35.22 16.35 31.06 C 17.08 28.05 19.39 25.83 21.29 23.53 M 26.02 23.07 C 20.86 24.49 16.63 29.47 17.14 34.99 C 16.57 42.87 25.41 49.14 32.75 46.69 C 38.27 45.35 42.25 39.68 41.59 34.02 C 41.56 26.44 33.13 20.74 26.02 23.07 Z" />
<path fill="#711911" opacity="1.00" d=" M 61.28 21.41 C 67.19 19.44 74.38 22.00 77.21 27.67 C 80.66 33.65 78.63 42.09 72.74 45.73 C 66.34 49.74 56.79 47.55 53.37 40.63 C 49.11 33.57 53.52 23.61 61.28 21.41 M 60.76 22.87 C 55.99 24.50 53.63 29.31 52.64 33.93 C 53.40 38.94 56.07 44.11 61.17 45.81 C 68.55 48.75 77.76 42.87 77.79 34.83 C 78.57 26.28 68.54 18.97 60.76 22.87 Z" />
<path fill="#711911" opacity="1.00" d=" M 30.40 32.64 C 32.61 30.87 36.29 33.37 35.05 35.99 C 34.33 38.28 30.89 38.53 29.68 36.57 C 29.13 35.33 29.10 33.43 30.40 32.64 Z" />
<path fill="#711911" opacity="1.00" d=" M 60.35 35.07 C 61.26 33.77 61.97 31.71 63.97 32.13 C 67.15 31.90 67.84 36.75 64.95 37.70 C 62.78 38.67 61.46 36.51 60.35 35.07 Z" />
<path fill="#711911" opacity="1.00" d=" M 44.16 79.07 C 45.69 75.11 52.63 76.54 51.92 80.96 C 52.32 83.49 49.84 84.63 48.00 85.55 C 45.28 84.82 42.56 81.99 44.16 79.07 Z" />
</g>
<g id="#ffce74ff">
<path fill="#ffce74" opacity="1.00" d=" M 7.63 45.95 C 8.45 33.76 14.83 21.94 24.92 14.95 C 26.88 18.57 23.16 20.95 21.29 23.53 C 19.39 25.83 17.08 28.05 16.35 31.06 C 15.72 35.22 15.81 39.93 18.67 43.31 C 23.57 50.00 34.44 49.87 39.83 43.84 C 43.35 45.77 45.34 49.30 47.23 52.68 C 46.15 55.70 44.89 58.81 45.02 62.08 C 45.29 64.18 47.40 65.21 48.83 66.48 C 49.64 66.19 51.24 65.61 52.05 65.32 C 51.15 66.10 50.25 66.88 49.35 67.66 C 55.10 68.36 60.80 70.40 66.65 69.49 C 70.96 68.84 75.26 67.84 79.25 66.03 C 81.00 65.20 82.89 64.74 84.84 64.77 C 77.97 80.59 60.03 90.55 42.97 88.19 C 31.40 86.40 20.32 79.88 14.15 69.77 C 9.55 62.76 7.47 54.28 7.63 45.95 M 9.63 51.99 C 12.91 57.25 19.97 56.92 24.84 54.31 C 25.88 49.74 20.55 48.09 17.00 48.32 C 14.04 48.18 11.64 50.07 9.63 51.99 M 44.16 79.07 C 42.56 81.99 45.28 84.82 48.00 85.55 C 49.84 84.63 52.32 83.49 51.92 80.96 C 52.63 76.54 45.69 75.11 44.16 79.07 Z" />
</g>
<g id="#ffffffff">
<path fill="#ffffff" opacity="1.00" d=" M 60.76 22.87 C 68.54 18.97 78.57 26.28 77.79 34.83 C 77.76 42.87 68.55 48.75 61.17 45.81 C 56.07 44.11 53.40 38.94 52.64 33.93 C 53.63 29.31 55.99 24.50 60.76 22.87 M 60.35 35.07 C 61.46 36.51 62.78 38.67 64.95 37.70 C 67.84 36.75 67.15 31.90 63.97 32.13 C 61.97 31.71 61.26 33.77 60.35 35.07 Z" />
<path fill="#ffffff" opacity="1.00" d=" M 26.02 23.07 C 33.13 20.74 41.56 26.44 41.59 34.02 C 42.25 39.68 38.27 45.35 32.75 46.69 C 25.41 49.14 16.57 42.87 17.14 34.99 C 16.63 29.47 20.86 24.49 26.02 23.07 M 30.40 32.64 C 29.10 33.43 29.13 35.33 29.68 36.57 C 30.89 38.53 34.33 38.28 35.05 35.99 C 36.29 33.37 32.61 30.87 30.40 32.64 Z" />
</g>
<g id="#70b3cdff">
<path fill="#70b3cd" opacity="1.00" d=" M 47.23 52.68 C 47.80 51.32 48.39 49.98 49.02 48.65 C 51.83 51.45 53.27 55.26 54.27 59.02 C 54.98 61.38 53.98 63.88 52.05 65.32 C 51.24 65.61 49.64 66.19 48.83 66.48 C 47.40 65.21 45.29 64.18 45.02 62.08 C 44.89 58.81 46.15 55.70 47.23 52.68 Z" />
</g>
</svg>
