<?xml version="1.0" encoding="UTF-8" ?>
<!DOCTYPE svg PUBLIC "-//W3C//DTD SVG 1.1//EN" "http://www.w3.org/Graphics/SVG/1.1/DTD/svg11.dtd">
<svg width="96pt" height="96pt" viewBox="0 0 96 96" version="1.1" xmlns="http://www.w3.org/2000/svg">
<g id="#f9b00eff">
<path fill="#f9b00e" opacity="1.00" d=" M 24.23 11.98 C 32.31 6.50 42.35 4.00 52.06 4.78 L 51.08 5.30 C 49.97 5.88 48.87 6.47 47.77 7.07 C 48.47 7.98 49.19 8.88 49.91 9.78 C 44.64 9.71 39.22 10.18 34.42 12.52 C 32.25 13.42 30.08 14.34 28.00 15.43 C 26.74 14.27 25.48 13.13 24.23 11.98 Z" />
</g>
<g id="#f9be10ff">
<path fill="#f9be10" opacity="1.00" d=" M 47.77 7.07 C 48.87 6.47 49.97 5.88 51.08 5.30 C 59.05 4.98 66.84 8.55 73.32 13.01 C 72.51 14.57 71.69 16.13 70.88 17.69 C 66.65 14.70 61.86 12.50 56.81 11.32 C 54.53 10.72 52.23 10.18 49.91 9.78 C 49.19 8.88 48.47 7.98 47.77 7.07 Z" />
</g>
<g id="#f0a02eff">
<path fill="#f0a02e" opacity="1.00" d=" M 34.42 12.52 C 39.22 10.18 44.64 9.71 49.91 9.78 C 52.23 10.18 54.53 10.72 56.81 11.32 C 56.04 11.36 54.51 11.45 53.75 11.49 L 53.12 11.47 C 47.33 11.04 41.51 11.56 35.98 13.35 C 35.27 13.56 33.84 13.97 33.13 14.17 L 34.42 12.52 Z" />
</g>
<g id="#f9bf0eff">
<path fill="#f9bf0e" opacity="1.00" d=" M 35.98 13.35 C 41.51 11.56 47.33 11.04 53.12 11.47 C 51.93 17.69 51.36 24.03 49.82 30.18 C 48.25 30.15 46.67 30.13 45.10 30.10 C 45.04 32.92 44.99 35.75 44.93 38.57 C 43.51 38.88 42.08 39.19 40.66 39.50 C 40.73 40.47 40.79 41.43 40.86 42.40 C 42.26 42.63 43.66 42.86 45.07 43.08 C 45.09 47.25 45.03 51.41 44.88 55.57 C 43.36 55.79 41.84 56.00 40.32 56.21 C 39.88 53.10 39.17 49.91 37.01 47.49 C 34.42 45.42 31.26 44.31 28.07 43.61 C 28.19 42.96 28.44 41.67 28.57 41.03 C 32.01 40.91 35.46 40.81 38.90 40.71 C 39.01 39.38 39.10 38.04 39.20 36.71 C 38.69 36.47 37.67 35.98 37.16 35.74 C 35.62 35.39 34.05 35.20 32.49 35.04 C 33.26 27.75 35.38 20.67 35.98 13.35 Z" />
</g>
<g id="#f7ca64ff">
<path fill="#f7ca64" opacity="1.00" d=" M 53.75 11.49 C 54.51 11.45 56.04 11.36 56.81 11.32 C 61.86 12.50 66.65 14.70 70.88 17.69 C 78.92 23.79 84.25 33.15 85.69 43.11 C 87.20 54.33 83.16 66.11 75.25 74.17 C 69.53 80.35 61.58 84.00 53.40 85.55 C 52.04 85.27 50.69 84.94 49.35 84.58 C 54.62 83.82 59.91 82.66 64.69 80.22 C 74.37 75.14 81.59 65.61 83.56 54.82 C 86.10 42.48 81.60 29.17 72.33 20.70 C 67.15 15.94 60.65 12.77 53.75 11.49 Z" />
</g>
<g id="#f8a50dff">
<path fill="#f8a50d" opacity="1.00" d=" M 4.66 47.98 C 4.73 33.69 12.23 19.83 24.07 11.83 L 24.23 11.98 C 25.48 13.13 26.74 14.27 28.00 15.43 C 21.80 19.63 16.26 25.18 13.24 32.13 C 8.94 41.40 8.61 52.52 12.82 61.88 C 14.36 66.44 17.10 70.47 20.19 74.12 C 20.21 76.47 20.21 78.83 20.21 81.18 C 10.65 72.95 4.82 60.60 4.66 47.98 Z" />
</g>
<g id="#f8b50eff">
<path fill="#f8b50e" opacity="1.00" d=" M 53.12 11.47 L 53.75 11.49 C 60.65 12.77 67.15 15.94 72.33 20.70 C 71.00 25.75 69.84 30.84 68.87 35.97 C 68.21 35.96 66.90 35.94 66.24 35.92 C 66.24 34.51 66.23 33.09 66.22 31.67 C 65.66 31.43 64.54 30.95 63.99 30.71 C 62.76 30.28 61.49 29.96 60.24 29.62 C 60.11 31.66 59.99 33.71 59.86 35.75 C 57.98 35.97 56.10 36.17 54.22 36.39 C 53.27 37.19 52.41 38.10 51.39 38.82 C 51.02 35.93 50.56 33.05 49.81 30.24 L 49.82 30.18 C 51.36 24.03 51.93 17.69 53.12 11.47 Z" />
</g>
<g id="#eb8c18ff">
<path fill="#eb8c18" opacity="1.00" d=" M 28.00 15.43 C 30.08 14.34 32.25 13.42 34.42 12.52 L 33.13 14.17 C 26.49 17.94 20.05 22.62 16.41 29.53 C 12.42 36.91 9.90 45.67 11.91 54.03 C 12.28 55.88 12.65 57.73 12.97 59.59 L 12.82 61.88 C 8.61 52.52 8.94 41.40 13.24 32.13 C 16.26 25.18 21.80 19.63 28.00 15.43 Z" />
</g>
<g id="#fbcf11ff">
<path fill="#fbcf11" opacity="1.00" d=" M 73.32 13.01 C 80.02 17.97 85.60 24.46 89.23 31.99 L 89.28 32.49 C 89.64 38.02 91.34 43.41 91.16 48.98 C 90.76 62.07 84.22 74.93 73.56 82.61 C 68.27 86.56 61.99 88.90 55.63 90.47 C 54.87 88.84 54.13 87.19 53.40 85.55 C 61.58 84.00 69.53 80.35 75.25 74.17 C 83.16 66.11 87.20 54.33 85.69 43.11 C 84.25 33.15 78.92 23.79 70.88 17.69 C 71.69 16.13 72.51 14.57 73.32 13.01 Z" />
</g>
<g id="#f9cb0fff">
<path fill="#f9cb0f" opacity="1.00" d=" M 16.41 29.53 C 20.05 22.62 26.49 17.94 33.13 14.17 C 33.84 13.97 35.27 13.56 35.98 13.35 C 35.38 20.67 33.26 27.75 32.49 35.04 C 29.04 35.00 25.60 35.21 22.16 35.35 C 21.29 39.60 20.68 43.91 20.27 48.24 C 21.33 48.65 22.39 49.07 23.46 49.46 C 26.12 50.96 29.10 50.18 31.86 49.53 C 32.54 52.84 32.91 58.10 28.19 58.12 C 25.45 56.15 22.83 53.77 19.27 53.52 C 19.88 55.29 20.32 57.17 21.34 58.76 C 23.03 60.43 25.36 61.18 27.50 62.08 L 27.41 63.18 C 27.18 67.55 26.14 71.81 24.52 75.86 C 19.41 71.45 15.70 65.71 12.97 59.59 C 12.65 57.73 12.28 55.88 11.91 54.03 C 9.90 45.67 12.42 36.91 16.41 29.53 Z" />
</g>
<g id="#f7a60eff">
<path fill="#f7a60e" opacity="1.00" d=" M 72.33 20.70 C 81.60 29.17 86.10 42.48 83.56 54.82 C 81.59 65.61 74.37 75.14 64.69 80.22 C 65.60 74.17 64.82 67.58 68.20 62.18 C 70.06 63.31 71.99 64.33 73.92 65.35 C 74.69 64.27 75.45 63.18 76.20 62.08 C 71.39 59.62 66.79 56.46 64.22 51.53 C 68.59 50.86 74.43 53.15 77.48 48.91 C 76.10 48.58 74.73 48.26 73.34 47.98 C 75.49 45.02 75.11 41.31 75.17 37.86 C 74.60 37.52 73.47 36.84 72.90 36.49 C 71.57 36.24 70.22 36.09 68.87 35.97 C 69.84 30.84 71.00 25.75 72.33 20.70 Z" />
</g>
<g id="#f8e817ff">
<path fill="#f8e817" opacity="1.00" d=" M 45.10 30.10 C 46.67 30.13 48.25 30.15 49.82 30.18 L 49.81 30.24 C 49.10 33.24 48.78 36.31 48.67 39.38 C 49.35 39.24 50.71 38.96 51.39 38.82 C 52.41 38.10 53.27 37.19 54.22 36.39 C 56.10 36.17 57.98 35.97 59.86 35.75 C 59.99 33.71 60.11 31.66 60.24 29.62 C 61.49 29.96 62.76 30.28 63.99 30.71 C 63.95 32.45 63.90 34.19 63.86 35.93 C 64.45 35.93 65.65 35.93 66.24 35.92 C 66.90 35.94 68.21 35.96 68.87 35.97 C 70.22 36.09 71.57 36.24 72.90 36.49 C 72.85 40.33 72.85 44.17 73.34 47.98 C 74.73 48.26 76.10 48.58 77.48 48.91 C 74.43 53.15 68.59 50.86 64.22 51.53 C 66.79 56.46 71.39 59.62 76.20 62.08 C 75.45 63.18 74.69 64.27 73.92 65.35 C 71.99 64.33 70.06 63.31 68.20 62.18 C 66.58 60.71 65.11 59.09 63.65 57.46 C 63.31 57.08 62.62 56.31 62.28 55.92 C 59.21 59.56 55.96 63.06 52.11 65.88 C 50.93 65.00 49.79 64.08 48.65 63.15 C 49.88 62.11 51.12 61.08 52.38 60.08 C 53.94 58.87 55.43 57.57 56.82 56.19 C 57.78 54.62 58.60 52.98 59.44 51.35 C 56.94 51.36 54.45 51.38 51.96 51.42 C 51.86 50.22 51.78 49.03 51.71 47.83 C 54.23 47.77 56.75 47.73 59.27 47.67 C 59.54 45.23 59.78 42.80 60.17 40.38 L 60.29 39.77 C 58.06 39.86 55.84 39.98 53.61 40.07 C 53.36 40.73 52.87 42.05 52.62 42.71 C 51.37 42.85 50.13 42.98 48.88 43.11 C 48.86 46.84 48.86 50.57 48.89 54.29 C 49.46 53.97 50.61 53.32 51.18 53.00 C 52.01 53.47 52.83 53.93 53.66 54.40 C 53.32 55.14 52.65 56.61 52.31 57.35 C 48.68 58.23 45.13 59.40 41.76 61.02 C 40.97 59.86 40.29 58.62 39.64 57.37 L 40.32 56.21 C 41.84 56.00 43.36 55.79 44.88 55.57 C 45.03 51.41 45.09 47.25 45.07 43.08 C 43.66 42.86 42.26 42.63 40.86 42.40 C 40.79 41.43 40.73 40.47 40.66 39.50 C 42.08 39.19 43.51 38.88 44.93 38.57 C 44.99 35.75 45.04 32.92 45.10 30.10 M 63.80 39.82 C 63.81 42.57 63.82 45.31 63.84 48.06 C 65.54 47.95 67.24 47.84 68.94 47.74 C 68.98 45.09 69.01 42.45 69.04 39.81 C 67.30 39.81 65.55 39.81 63.80 39.82 Z" />
<path fill="#f8e817" opacity="1.00" d=" M 22.16 35.35 C 25.60 35.21 29.04 35.00 32.49 35.04 C 34.05 35.20 35.62 35.39 37.16 35.74 C 36.99 37.10 36.82 38.45 36.66 39.81 C 33.13 39.81 29.60 39.83 26.08 39.85 C 25.83 41.68 25.59 43.50 25.36 45.32 C 26.03 44.89 27.39 44.04 28.07 43.61 C 31.26 44.31 34.42 45.42 37.01 47.49 C 37.27 51.25 38.49 55.65 35.77 58.83 C 33.91 61.48 30.44 61.74 27.50 62.08 C 25.36 61.18 23.03 60.43 21.34 58.76 C 20.32 57.17 19.88 55.29 19.27 53.52 C 22.83 53.77 25.45 56.15 28.19 58.12 C 32.91 58.10 32.54 52.84 31.86 49.53 C 29.30 47.51 26.19 48.14 23.46 49.46 C 22.39 49.07 21.33 48.65 20.27 48.24 C 20.68 43.91 21.29 39.60 22.16 35.35 Z" />
</g>
<g id="#e18d12ff">
<path fill="#e18d12" opacity="1.00" d=" M 49.81 30.24 C 50.56 33.05 51.02 35.93 51.39 38.82 C 50.71 38.96 49.35 39.24 48.67 39.38 C 48.78 36.31 49.10 33.24 49.81 30.24 Z" />
</g>
<g id="#e28e12ff">
<path fill="#e28e12" opacity="1.00" d=" M 63.99 30.71 C 64.54 30.95 65.66 31.43 66.22 31.67 C 66.23 33.09 66.24 34.51 66.24 35.92 C 65.65 35.93 64.45 35.93 63.86 35.93 C 63.90 34.19 63.95 32.45 63.99 30.71 Z" />
</g>
<g id="#de8a12fe">
<path fill="#de8a12" opacity="1.00" d=" M 89.28 32.49 C 93.70 41.20 93.96 51.62 91.78 61.02 C 88.09 75.82 75.82 88.06 61.03 91.77 C 51.45 94.03 40.79 93.67 31.98 88.99 C 39.77 90.27 47.74 92.21 55.63 90.47 C 61.99 88.90 68.27 86.56 73.56 82.61 C 84.22 74.93 90.76 62.07 91.16 48.98 C 91.34 43.41 89.64 38.02 89.28 32.49 Z" />
</g>
<g id="#e69711ff">
<path fill="#e69711" opacity="1.00" d=" M 37.16 35.74 C 37.67 35.98 38.69 36.47 39.20 36.71 C 39.10 38.04 39.01 39.38 38.90 40.71 C 35.46 40.81 32.01 40.91 28.57 41.03 C 28.44 41.67 28.19 42.96 28.07 43.61 C 27.39 44.04 26.03 44.89 25.36 45.32 C 25.59 43.50 25.83 41.68 26.08 39.85 C 29.60 39.83 33.13 39.81 36.66 39.81 C 36.82 38.45 36.99 37.10 37.16 35.74 Z" />
</g>
<g id="#e18c12ff">
<path fill="#e18c12" opacity="1.00" d=" M 72.90 36.49 C 73.47 36.84 74.60 37.52 75.17 37.86 C 75.11 41.31 75.49 45.02 73.34 47.98 C 72.85 44.17 72.85 40.33 72.90 36.49 Z" />
</g>
<g id="#e39112ff">
<path fill="#e39112" opacity="1.00" d=" M 53.61 40.07 C 55.84 39.98 58.06 39.86 60.29 39.77 L 60.17 40.38 C 57.17 41.87 54.09 43.23 51.06 44.68 C 51.11 47.45 51.14 50.23 51.18 53.00 C 50.61 53.32 49.46 53.97 48.89 54.29 C 48.86 50.57 48.86 46.84 48.88 43.11 C 50.13 42.98 51.37 42.85 52.62 42.71 C 52.87 42.05 53.36 40.73 53.61 40.07 Z" />
</g>
<g id="#f6ac0eff">
<path fill="#f6ac0e" opacity="1.00" d=" M 63.80 39.82 C 65.55 39.81 67.30 39.81 69.04 39.81 C 69.01 42.45 68.98 45.09 68.94 47.74 C 67.24 47.84 65.54 47.95 63.84 48.06 C 63.82 45.31 63.81 42.57 63.80 39.82 Z" />
</g>
<g id="#f8b30eff">
<path fill="#f8b30e" opacity="1.00" d=" M 51.06 44.68 C 54.09 43.23 57.17 41.87 60.17 40.38 C 59.78 42.80 59.54 45.23 59.27 47.67 C 56.75 47.73 54.23 47.77 51.71 47.83 C 51.78 49.03 51.86 50.22 51.96 51.42 C 54.45 51.38 56.94 51.36 59.44 51.35 C 58.60 52.98 57.78 54.62 56.82 56.19 C 55.77 55.59 54.72 54.99 53.66 54.40 C 52.83 53.93 52.01 53.47 51.18 53.00 C 51.14 50.23 51.11 47.45 51.06 44.68 Z" />
</g>
<g id="#e69a11ff">
<path fill="#e69a11" opacity="1.00" d=" M 23.46 49.46 C 26.19 48.14 29.30 47.51 31.86 49.53 C 29.10 50.18 26.12 50.96 23.46 49.46 Z" />
</g>
<g id="#e49512ff">
<path fill="#e49512" opacity="1.00" d=" M 37.01 47.49 C 39.17 49.91 39.88 53.10 40.32 56.21 L 39.64 57.37 C 38.44 59.14 37.30 61.09 35.44 62.24 C 32.90 63.24 30.08 62.99 27.41 63.18 L 27.50 62.08 C 30.44 61.74 33.91 61.48 35.77 58.83 C 38.49 55.65 37.27 51.25 37.01 47.49 Z" />
</g>
<g id="#e59712ff">
<path fill="#e59712" opacity="1.00" d=" M 53.66 54.40 C 54.72 54.99 55.77 55.59 56.82 56.19 C 55.43 57.57 53.94 58.87 52.38 60.08 C 48.95 61.03 45.31 61.92 41.76 61.02 C 45.13 59.40 48.68 58.23 52.31 57.35 C 52.65 56.61 53.32 55.14 53.66 54.40 Z" />
</g>
<g id="#e39312ff">
<path fill="#e39312" opacity="1.00" d=" M 62.28 55.92 C 62.62 56.31 63.31 57.08 63.65 57.46 C 61.92 61.97 57.88 64.75 54.08 67.37 C 53.58 67.00 52.60 66.25 52.11 65.88 C 55.96 63.06 59.21 59.56 62.28 55.92 Z" />
</g>
<g id="#f8b60eff">
<path fill="#f8b60e" opacity="1.00" d=" M 35.44 62.24 C 37.30 61.09 38.44 59.14 39.64 57.37 C 40.29 58.62 40.97 59.86 41.76 61.02 C 45.31 61.92 48.95 61.03 52.38 60.08 C 51.12 61.08 49.88 62.11 48.65 63.15 C 49.79 64.08 50.93 65.00 52.11 65.88 C 52.60 66.25 53.58 67.00 54.08 67.37 C 57.88 64.75 61.92 61.97 63.65 57.46 C 65.11 59.09 66.58 60.71 68.20 62.18 C 64.82 67.58 65.60 74.17 64.69 80.22 C 59.91 82.66 54.62 83.82 49.35 84.58 C 45.32 83.85 41.22 83.70 37.15 83.38 C 33.46 83.10 30.74 80.28 27.61 78.63 C 26.57 77.72 25.53 76.80 24.52 75.86 C 26.14 71.81 27.18 67.55 27.41 63.18 C 30.08 62.99 32.90 63.24 35.44 62.24 Z" />
</g>
<g id="#ef9b29ff">
<path fill="#ef9b29" opacity="1.00" d=" M 12.97 59.59 C 15.70 65.71 19.41 71.45 24.52 75.86 C 25.53 76.80 26.57 77.72 27.61 78.63 C 24.91 77.55 22.12 76.40 20.19 74.12 C 17.10 70.47 14.36 66.44 12.82 61.88 L 12.97 59.59 Z" />
</g>
<g id="#f9b80fff">
<path fill="#f9b80f" opacity="1.00" d=" M 20.19 74.12 C 22.12 76.40 24.91 77.55 27.61 78.63 C 30.74 80.28 33.46 83.10 37.15 83.38 C 41.22 83.70 45.32 83.85 49.35 84.58 C 50.69 84.94 52.04 85.27 53.40 85.55 C 54.13 87.19 54.87 88.84 55.63 90.47 C 47.74 92.21 39.77 90.27 31.98 88.99 C 27.53 87.42 23.89 84.26 20.21 81.42 L 20.21 81.18 C 20.21 78.83 20.21 76.47 20.19 74.12 Z" />
</g>
</svg>
