<?xml version="1.0" encoding="UTF-8" ?>
<!DOCTYPE svg PUBLIC "-//W3C//DTD SVG 1.1//EN" "http://www.w3.org/Graphics/SVG/1.1/DTD/svg11.dtd">
<svg width="96pt" height="96pt" viewBox="0 0 96 96" version="1.1" xmlns="http://www.w3.org/2000/svg">
<g id="#f9b90fff">
<path fill="#f9b90f" opacity="1.00" d=" M 37.23 6.13 C 48.45 2.81 60.64 5.41 70.64 11.07 L 70.57 11.22 C 69.87 12.77 69.18 14.31 68.48 15.86 C 61.97 11.78 54.24 9.53 46.53 10.01 C 42.48 9.95 38.49 10.81 34.73 12.26 C 34.06 11.49 33.40 10.71 32.78 9.90 C 33.98 9.37 35.18 8.85 36.39 8.34 C 36.60 7.79 37.02 6.68 37.23 6.13 Z" />
</g>
<g id="#f8a60eff">
<path fill="#f8a60e" opacity="1.00" d=" M 5.14 41.99 C 7.44 25.03 20.53 10.15 37.23 6.13 C 37.02 6.68 36.60 7.79 36.39 8.34 C 35.18 8.85 33.98 9.37 32.78 9.90 C 33.40 10.71 34.06 11.49 34.73 12.26 C 25.17 15.97 16.80 23.32 12.91 32.92 C 8.38 43.03 8.86 55.18 13.95 64.99 C 14.95 66.95 16.56 68.47 18.02 70.07 C 20.31 74.29 23.92 77.52 27.89 80.14 C 27.02 81.23 26.17 82.34 25.30 83.43 C 27.65 85.18 29.96 86.99 32.10 89.01 C 14.40 81.33 2.15 61.36 5.14 41.99 Z" />
</g>
<g id="#ec901dff">
<path fill="#ec901d" opacity="1.00" d=" M 34.73 12.26 C 38.49 10.81 42.48 9.95 46.53 10.01 L 45.13 10.94 C 42.09 11.87 38.97 12.48 35.93 13.42 C 20.82 18.46 10.56 34.18 11.26 49.96 C 11.74 57.15 15.07 63.63 18.02 70.07 C 16.56 68.47 14.95 66.95 13.95 64.99 C 8.86 55.18 8.38 43.03 12.91 32.92 C 16.80 23.32 25.17 15.97 34.73 12.26 Z" />
</g>
<g id="#f3af46ff">
<path fill="#f3af46" opacity="1.00" d=" M 46.53 10.01 C 54.24 9.53 61.97 11.78 68.48 15.86 C 69.84 16.87 71.14 17.97 72.43 19.07 L 70.41 18.88 C 69.75 18.53 69.10 18.17 68.46 17.81 C 64.35 15.29 59.97 13.13 55.24 12.03 C 51.92 11.30 48.52 11.06 45.13 10.94 L 46.53 10.01 Z" />
</g>
<g id="#f8bd0eff">
<path fill="#f8bd0e" opacity="1.00" d=" M 35.93 13.42 C 38.97 12.48 42.09 11.87 45.13 10.94 C 48.52 11.06 51.92 11.30 55.24 12.03 C 54.69 17.89 53.62 23.68 52.64 29.48 C 53.18 29.87 53.72 30.26 54.26 30.65 C 50.89 32.49 49.29 36.12 46.76 38.81 C 44.68 41.06 42.26 42.95 39.94 44.95 C 40.53 45.99 41.13 47.03 41.73 48.07 C 42.73 47.50 43.73 46.92 44.74 46.35 C 45.04 47.41 45.36 48.47 45.66 49.53 C 47.55 49.32 49.44 49.10 51.33 48.90 C 50.78 52.11 50.53 55.71 48.17 58.20 C 46.13 60.27 43.40 61.43 40.92 62.84 C 41.80 63.97 42.67 65.10 43.58 66.21 L 44.50 67.32 C 46.63 72.60 43.88 78.37 43.79 83.83 C 38.09 83.27 32.52 81.38 27.74 78.21 C 28.29 73.28 31.41 67.72 28.45 63.08 C 31.20 63.15 34.32 63.39 36.61 61.56 C 40.52 58.24 41.14 51.24 36.93 47.90 C 34.42 45.77 31.47 44.20 28.18 43.74 C 28.23 43.06 28.35 41.71 28.41 41.03 C 31.90 40.88 35.38 40.77 38.87 40.68 C 38.81 39.55 38.75 38.42 38.69 37.30 C 38.28 36.94 37.46 36.24 37.05 35.89 C 36.78 35.67 36.26 35.23 36.00 35.02 C 35.70 28.33 37.63 21.89 38.79 15.38 C 37.84 14.73 36.89 14.07 35.93 13.42 Z" />
</g>
<g id="#f8b40eff">
<path fill="#f8b40e" opacity="1.00" d=" M 55.24 12.03 C 59.97 13.13 64.35 15.29 68.46 17.81 C 68.54 22.89 67.68 28.06 64.73 32.32 C 64.45 31.77 63.88 30.68 63.60 30.14 C 62.42 30.50 61.24 30.86 60.06 31.23 C 61.96 36.95 66.05 41.42 69.87 45.93 C 62.91 46.06 55.96 45.77 49.01 45.92 C 52.70 42.19 55.95 38.04 58.65 33.53 C 58.12 33.20 57.05 32.53 56.51 32.20 C 55.95 31.81 54.82 31.04 54.26 30.65 C 53.72 30.26 53.18 29.87 52.64 29.48 C 53.62 23.68 54.69 17.89 55.24 12.03 Z" />
</g>
<g id="#fbcf10ff">
<path fill="#fbcf10" opacity="1.00" d=" M 68.48 15.86 C 69.18 14.31 69.87 12.77 70.57 11.22 C 75.67 14.50 80.40 18.52 83.91 23.51 C 87.99 31.04 91.39 39.28 91.15 48.01 C 91.11 61.89 84.01 75.63 72.44 83.39 C 67.32 86.97 61.32 89.05 55.28 90.50 C 55.59 88.59 55.99 86.70 56.46 84.84 C 74.55 80.90 88.04 62.47 85.77 44.00 C 84.63 34.44 79.92 25.21 72.43 19.07 C 71.14 17.97 69.84 16.87 68.48 15.86 Z" />
</g>
<g id="#f9ca0fff">
<path fill="#f9ca0f" opacity="1.00" d=" M 11.26 49.96 C 10.56 34.18 20.82 18.46 35.93 13.42 C 36.89 14.07 37.84 14.73 38.79 15.38 C 37.63 21.89 35.70 28.33 36.00 35.02 C 31.39 35.00 26.79 35.25 22.18 35.22 C 21.27 39.70 20.66 44.24 20.22 48.79 C 21.42 48.87 22.62 48.97 23.82 49.01 C 25.86 51.90 29.17 50.02 31.81 49.36 C 31.94 52.32 33.46 57.78 29.06 58.13 C 26.35 58.90 24.97 56.10 23.43 54.48 C 22.18 54.41 20.93 54.34 19.69 54.28 C 19.72 58.47 23.12 60.92 26.68 62.28 C 27.12 62.48 28.01 62.88 28.45 63.08 C 31.41 67.72 28.29 73.28 27.74 78.21 C 24.35 75.68 21.35 72.67 18.02 70.07 C 15.07 63.63 11.74 57.15 11.26 49.96 Z" />
</g>
<g id="#f7a70eff">
<path fill="#f7a70e" opacity="1.00" d=" M 68.46 17.81 C 69.10 18.17 69.75 18.53 70.41 18.88 C 78.14 25.42 83.58 34.84 84.17 45.06 C 85.59 60.54 75.91 76.10 61.43 81.73 C 61.66 77.09 62.77 72.54 63.00 67.89 C 61.39 67.25 59.79 66.62 58.20 65.93 C 62.30 65.94 68.54 67.41 70.60 62.68 C 71.77 57.53 71.36 52.18 71.98 46.95 C 72.45 47.18 73.39 47.64 73.86 47.88 C 74.66 46.89 75.46 45.91 76.26 44.92 C 71.56 41.61 67.09 37.69 64.73 32.32 C 67.68 28.06 68.54 22.89 68.46 17.81 Z" />
</g>
<g id="#f8ce6aff">
<path fill="#f8ce6a" opacity="1.00" d=" M 70.41 18.88 L 72.43 19.07 C 79.92 25.21 84.63 34.44 85.77 44.00 C 88.04 62.47 74.55 80.90 56.46 84.84 C 55.87 84.96 54.68 85.21 54.09 85.34 C 52.84 84.98 51.58 84.62 50.33 84.26 C 54.11 83.87 57.88 83.13 61.43 81.73 C 75.91 76.10 85.59 60.54 84.17 45.06 C 83.58 34.84 78.14 25.42 70.41 18.88 Z" />
</g>
<g id="#df8a12fe">
<path fill="#df8a12" opacity="1.00" d=" M 83.91 23.51 C 91.60 32.59 94.41 45.21 92.58 56.85 C 90.87 69.63 82.62 81.17 71.47 87.51 C 59.74 94.23 44.49 95.15 32.30 89.18 C 39.94 89.95 47.59 92.35 55.28 90.50 C 61.32 89.05 67.32 86.97 72.44 83.39 C 84.01 75.63 91.11 61.89 91.15 48.01 C 91.39 39.28 87.99 31.04 83.91 23.51 Z" />
</g>
<g id="#f8e817ff">
<path fill="#f8e817" opacity="1.00" d=" M 60.06 31.23 C 61.24 30.86 62.42 30.50 63.60 30.14 C 63.88 30.68 64.45 31.77 64.73 32.32 C 67.09 37.69 71.56 41.61 76.26 44.92 C 75.46 45.91 74.66 46.89 73.86 47.88 C 73.39 47.64 72.45 47.18 71.98 46.95 C 71.51 46.71 70.57 46.25 70.11 46.02 C 69.35 51.12 69.45 56.35 68.42 61.40 C 66.75 65.83 60.96 64.73 57.25 65.52 C 56.78 65.19 55.84 64.51 55.37 64.18 C 55.45 63.41 55.62 61.86 55.70 61.09 C 58.62 61.04 61.67 61.48 64.48 60.47 C 65.59 57.31 65.35 53.89 65.19 50.61 L 65.09 49.55 C 61.98 49.37 58.87 49.39 55.76 49.39 C 54.75 53.21 54.07 57.34 51.53 60.51 C 49.35 62.98 46.33 64.47 43.58 66.21 C 42.67 65.10 41.80 63.97 40.92 62.84 C 43.40 61.43 46.13 60.27 48.17 58.20 C 50.53 55.71 50.78 52.11 51.33 48.90 C 49.44 49.10 47.55 49.32 45.66 49.53 C 45.36 48.47 45.04 47.41 44.74 46.35 C 43.73 46.92 42.73 47.50 41.73 48.07 C 41.13 47.03 40.53 45.99 39.94 44.95 C 42.26 42.95 44.68 41.06 46.76 38.81 C 49.29 36.12 50.89 32.49 54.26 30.65 C 54.82 31.04 55.95 31.81 56.51 32.20 C 53.71 37.40 49.69 41.74 45.62 45.96 C 46.47 45.95 48.16 45.93 49.01 45.92 C 55.96 45.77 62.91 46.06 69.87 45.93 C 66.05 41.42 61.96 36.95 60.06 31.23 Z" />
<path fill="#f8e817" opacity="1.00" d=" M 22.18 35.22 C 26.79 35.25 31.39 35.00 36.00 35.02 C 36.26 35.23 36.78 35.67 37.05 35.89 C 36.98 37.20 36.91 38.52 36.81 39.83 C 33.20 39.84 29.59 39.89 25.97 39.97 C 25.80 41.79 25.62 43.61 25.46 45.44 C 26.14 45.01 27.50 44.17 28.18 43.74 C 31.47 44.20 34.42 45.77 36.93 47.90 C 37.38 51.54 38.31 55.69 35.83 58.84 C 33.89 61.90 29.88 61.96 26.68 62.28 C 23.12 60.92 19.72 58.47 19.69 54.28 C 20.93 54.34 22.18 54.41 23.43 54.48 C 24.97 56.10 26.35 58.90 29.06 58.13 C 33.46 57.78 31.94 52.32 31.81 49.36 C 29.23 48.35 26.48 48.51 23.82 49.01 C 22.62 48.97 21.42 48.87 20.22 48.79 C 20.66 44.24 21.27 39.70 22.18 35.22 Z" />
</g>
<g id="#e29111ff">
<path fill="#e29111" opacity="1.00" d=" M 56.51 32.20 C 57.05 32.53 58.12 33.20 58.65 33.53 C 55.95 38.04 52.70 42.19 49.01 45.92 C 48.16 45.93 46.47 45.95 45.62 45.96 C 49.69 41.74 53.71 37.40 56.51 32.20 Z" />
</g>
<g id="#e59711ff">
<path fill="#e59711" opacity="1.00" d=" M 37.05 35.89 C 37.46 36.24 38.28 36.94 38.69 37.30 C 38.75 38.42 38.81 39.55 38.87 40.68 C 35.38 40.77 31.90 40.88 28.41 41.03 C 28.35 41.71 28.23 43.06 28.18 43.74 C 27.50 44.17 26.14 45.01 25.46 45.44 C 25.62 43.61 25.80 41.79 25.97 39.97 C 29.59 39.89 33.20 39.84 36.81 39.83 C 36.91 38.52 36.98 37.20 37.05 35.89 Z" />
</g>
<g id="#e39311ff">
<path fill="#e39311" opacity="1.00" d=" M 70.11 46.02 C 70.57 46.25 71.51 46.71 71.98 46.95 C 71.36 52.18 71.77 57.53 70.60 62.68 C 68.54 67.41 62.30 65.94 58.20 65.93 L 57.25 65.52 C 60.96 64.73 66.75 65.83 68.42 61.40 C 69.45 56.35 69.35 51.12 70.11 46.02 Z" />
</g>
<g id="#e8a011ff">
<path fill="#e8a011" opacity="1.00" d=" M 23.82 49.01 C 26.48 48.51 29.23 48.35 31.81 49.36 C 29.17 50.02 25.86 51.90 23.82 49.01 Z" />
</g>
<g id="#e49611ff">
<path fill="#e49611" opacity="1.00" d=" M 36.93 47.90 C 41.14 51.24 40.52 58.24 36.61 61.56 C 34.32 63.39 31.20 63.15 28.45 63.08 C 28.01 62.88 27.12 62.48 26.68 62.28 C 29.88 61.96 33.89 61.90 35.83 58.84 C 38.31 55.69 37.38 51.54 36.93 47.90 Z" />
</g>
<g id="#e59411ff">
<path fill="#e59411" opacity="1.00" d=" M 51.53 60.51 C 54.07 57.34 54.75 53.21 55.76 49.39 C 58.87 49.39 61.98 49.37 65.09 49.55 L 65.19 50.61 C 62.67 50.74 60.15 50.86 57.63 51.01 C 56.75 54.90 56.23 59.25 53.28 62.23 C 50.99 64.84 47.80 66.41 44.50 67.32 L 43.58 66.21 C 46.33 64.47 49.35 62.98 51.53 60.51 Z" />
</g>
<g id="#f8b20eff">
<path fill="#f8b20e" opacity="1.00" d=" M 57.63 51.01 C 60.15 50.86 62.67 50.74 65.19 50.61 C 65.35 53.89 65.59 57.31 64.48 60.47 C 61.67 61.48 58.62 61.04 55.70 61.09 C 55.62 61.86 55.45 63.41 55.37 64.18 C 55.84 64.51 56.78 65.19 57.25 65.52 L 58.20 65.93 C 59.79 66.62 61.39 67.25 63.00 67.89 C 62.77 72.54 61.66 77.09 61.43 81.73 C 57.88 83.13 54.11 83.87 50.33 84.26 C 48.15 84.11 45.97 84.00 43.79 83.83 C 43.88 78.37 46.63 72.60 44.50 67.32 C 47.80 66.41 50.99 64.84 53.28 62.23 C 56.23 59.25 56.75 54.90 57.63 51.01 Z" />
</g>
<g id="#f3af3fff">
<path fill="#f3af3f" opacity="1.00" d=" M 18.02 70.07 C 21.35 72.67 24.35 75.68 27.74 78.21 C 32.52 81.38 38.09 83.27 43.79 83.83 C 45.97 84.00 48.15 84.11 50.33 84.26 C 51.58 84.62 52.84 84.98 54.09 85.34 C 45.11 87.21 35.61 84.89 27.89 80.14 C 23.92 77.52 20.31 74.29 18.02 70.07 Z" />
</g>
<g id="#fabb10ff">
<path fill="#fabb10" opacity="1.00" d=" M 27.89 80.14 C 35.61 84.89 45.11 87.21 54.09 85.34 C 54.68 85.21 55.87 84.96 56.46 84.84 C 55.99 86.70 55.59 88.59 55.28 90.50 C 47.59 92.35 39.94 89.95 32.30 89.18 L 32.10 89.01 C 29.96 86.99 27.65 85.18 25.30 83.43 C 26.17 82.34 27.02 81.23 27.89 80.14 Z" />
</g>
</svg>
