<?xml version="1.0" encoding="UTF-8" ?>
<!DOCTYPE svg PUBLIC "-//W3C//DTD SVG 1.1//EN" "http://www.w3.org/Graphics/SVG/1.1/DTD/svg11.dtd">
<svg width="96pt" height="96pt" viewBox="0 0 96 96" version="1.1" xmlns="http://www.w3.org/2000/svg">
<g id="#f9b80fff">
<path fill="#f9b80f" opacity="1.00" d=" M 36.34 6.21 C 46.71 3.33 57.92 4.67 67.52 9.42 C 66.84 11.02 66.16 12.63 65.48 14.23 C 60.61 12.01 55.40 10.26 49.98 10.32 C 44.80 10.05 39.76 11.43 34.67 12.12 C 33.88 11.56 33.10 10.97 32.35 10.35 C 33.66 9.70 34.97 9.06 36.28 8.42 C 36.29 8.00 36.32 7.14 36.33 6.72 L 36.34 6.21 Z" />
</g>
<g id="#f8a60eff">
<path fill="#f8a60e" opacity="1.00" d=" M 23.40 12.45 C 27.38 9.89 31.53 7.28 36.33 6.72 C 36.32 7.14 36.29 8.00 36.28 8.42 C 34.97 9.06 33.66 9.70 32.35 10.35 C 33.10 10.97 33.88 11.56 34.67 12.12 L 35.47 12.60 C 28.91 13.85 23.54 18.33 19.09 23.07 C 8.31 35.03 6.56 54.39 15.79 67.75 C 17.89 71.43 20.72 74.65 23.90 77.44 C 22.55 78.62 21.21 79.80 19.87 80.98 C 10.86 72.84 5.10 61.17 4.68 48.99 C 4.46 34.75 11.51 20.45 23.40 12.45 Z" />
</g>
<g id="#f6c25aff">
<path fill="#f6c25a" opacity="1.00" d=" M 34.67 12.12 C 39.76 11.43 44.80 10.05 49.98 10.32 C 55.40 10.26 60.61 12.01 65.48 14.23 C 74.94 19.09 82.01 28.03 84.71 38.30 C 89.98 55.83 79.64 75.98 62.83 82.78 C 59.02 84.36 54.99 85.45 50.87 85.71 C 45.65 85.94 40.40 85.39 35.46 83.62 C 35.99 83.46 37.05 83.14 37.57 82.98 C 47.01 85.43 57.29 84.35 65.81 79.53 C 80.09 71.73 87.44 53.66 82.88 38.07 C 80.55 29.27 74.60 21.65 66.99 16.75 C 58.11 11.07 46.90 9.42 36.77 12.36 L 35.47 12.60 L 34.67 12.12 Z" />
</g>
<g id="#fbce10ff">
<path fill="#fbce10" opacity="1.00" d=" M 67.52 9.42 C 76.80 14.59 85.12 22.44 89.14 32.39 C 89.50 37.66 91.30 42.74 91.17 48.05 C 91.09 61.44 84.50 74.74 73.59 82.59 C 68.47 86.42 62.41 88.81 56.22 90.26 C 54.20 90.11 52.20 89.87 50.19 89.64 C 50.41 88.33 50.64 87.02 50.87 85.71 C 54.99 85.45 59.02 84.36 62.83 82.78 C 79.64 75.98 89.98 55.83 84.71 38.30 C 82.01 28.03 74.94 19.09 65.48 14.23 C 66.16 12.63 66.84 11.02 67.52 9.42 Z" />
</g>
<g id="#f8b90eff">
<path fill="#f8b90e" opacity="1.00" d=" M 36.77 12.36 C 46.90 9.42 58.11 11.07 66.99 16.75 C 66.51 21.31 66.34 25.90 65.65 30.43 C 67.72 30.80 69.79 31.21 71.82 31.75 C 67.41 31.53 62.52 31.04 58.65 33.63 C 55.45 35.45 54.60 39.28 53.26 42.42 C 52.02 43.05 50.77 43.67 49.52 44.30 C 49.68 44.72 50.00 45.56 50.16 45.97 C 51.40 46.51 52.65 47.04 53.89 47.57 C 52.62 48.91 49.89 49.46 49.72 51.55 C 50.80 52.16 51.93 52.66 53.05 53.18 C 54.19 56.31 55.00 59.92 57.86 61.99 C 61.81 65.11 67.21 63.99 71.88 64.38 C 69.45 64.56 67.02 64.70 64.59 64.81 C 64.59 65.18 64.60 65.92 64.61 66.28 C 64.69 70.16 64.24 74.01 63.75 77.84 C 64.26 78.26 65.30 79.11 65.81 79.53 C 57.29 84.35 47.01 85.43 37.57 82.98 C 32.91 81.14 28.27 78.99 24.44 75.68 C 26.30 71.75 27.08 67.45 27.63 63.16 C 31.35 63.99 35.16 64.59 38.97 64.12 C 36.89 64.68 34.79 65.12 32.70 65.63 C 36.56 65.97 40.92 66.69 44.28 64.25 C 50.12 59.97 50.05 49.68 43.73 45.84 C 41.01 43.49 37.40 42.37 33.85 43.16 C 34.12 41.81 34.38 40.47 34.63 39.12 C 38.84 38.96 43.06 38.90 47.28 38.91 C 47.38 36.43 47.39 33.80 45.53 31.89 L 44.97 31.72 C 41.19 30.33 37.11 30.67 33.16 30.62 C 34.12 25.71 35.26 20.83 36.06 15.89 C 35.03 15.42 34.00 14.94 32.98 14.47 C 34.24 13.76 35.49 13.05 36.77 12.36 Z" />
</g>
<g id="#ec8d19ff">
<path fill="#ec8d19" opacity="1.00" d=" M 19.09 23.07 C 23.54 18.33 28.91 13.85 35.47 12.60 L 36.77 12.36 C 35.49 13.05 34.24 13.76 32.98 14.47 C 17.31 21.56 7.46 40.59 12.68 57.29 C 13.50 60.18 14.69 62.94 15.74 65.74 L 15.79 67.75 C 6.56 54.39 8.31 35.03 19.09 23.07 Z" />
</g>
<g id="#f9cb0fff">
<path fill="#f9cb0f" opacity="1.00" d=" M 12.68 57.29 C 7.46 40.59 17.31 21.56 32.98 14.47 C 34.00 14.94 35.03 15.42 36.06 15.89 C 35.26 20.83 34.12 25.71 33.16 30.62 C 37.11 30.67 41.19 30.33 44.97 31.72 C 38.77 31.97 32.57 31.64 26.38 32.02 C 25.92 37.54 25.33 43.06 24.99 48.60 C 26.29 48.75 27.59 48.92 28.90 49.03 C 31.25 52.52 35.09 49.81 37.96 48.70 C 39.45 51.56 40.15 55.33 38.18 58.14 C 37.03 59.84 34.80 58.91 33.12 59.01 C 33.23 57.64 32.62 56.82 31.30 56.54 C 28.78 55.91 26.18 55.71 23.58 55.70 C 24.74 58.29 26.12 60.77 27.63 63.16 C 27.08 67.45 26.30 71.75 24.44 75.68 C 21.11 72.77 18.32 69.31 15.74 65.74 C 14.69 62.94 13.50 60.18 12.68 57.29 Z" />
</g>
<g id="#f7a70eff">
<path fill="#f7a70e" opacity="1.00" d=" M 66.99 16.75 C 74.60 21.65 80.55 29.27 82.88 38.07 C 87.44 53.66 80.09 71.73 65.81 79.53 C 65.30 79.11 64.26 78.26 63.75 77.84 C 64.24 74.01 64.69 70.16 64.61 66.28 C 67.68 66.15 70.80 66.25 73.83 65.61 C 75.35 64.49 73.96 62.30 74.07 60.73 C 73.60 60.58 72.67 60.28 72.20 60.13 C 69.05 59.11 65.73 58.89 62.45 58.72 C 62.85 57.27 63.23 55.81 63.62 54.36 C 65.82 54.22 68.03 54.12 70.22 53.77 C 70.79 52.29 69.64 51.24 68.76 50.22 C 66.67 49.64 64.52 49.31 62.37 49.07 C 64.94 48.48 67.54 48.06 70.11 47.45 C 70.86 46.08 69.47 45.15 68.73 44.18 C 66.71 43.62 64.61 43.39 62.52 43.26 C 64.52 40.53 67.21 38.49 70.27 37.07 L 70.86 37.36 C 71.93 37.93 73.00 38.53 74.07 39.11 C 74.43 36.61 74.85 33.83 72.68 31.97 L 71.82 31.75 C 69.79 31.21 67.72 30.80 65.65 30.43 C 66.34 25.90 66.51 21.31 66.99 16.75 Z" />
</g>
<g id="#f8e817ff">
<path fill="#f8e817" opacity="1.00" d=" M 26.38 32.02 C 32.57 31.64 38.77 31.97 44.97 31.72 L 45.53 31.89 C 45.24 33.69 44.96 35.48 44.69 37.28 C 40.28 37.26 35.86 37.26 31.45 37.55 C 31.40 39.67 31.35 41.79 31.31 43.91 C 31.94 43.72 33.21 43.35 33.85 43.16 C 37.40 42.37 41.01 43.49 43.73 45.84 C 47.58 51.80 46.55 61.80 38.97 64.12 C 35.16 64.59 31.35 63.99 27.63 63.16 C 26.12 60.77 24.74 58.29 23.58 55.70 C 26.18 55.71 28.78 55.91 31.30 56.54 C 31.11 58.02 31.72 58.84 33.12 59.01 C 34.80 58.91 37.03 59.84 38.18 58.14 C 40.15 55.33 39.45 51.56 37.96 48.70 C 35.01 47.35 31.87 48.39 28.90 49.03 C 27.59 48.92 26.29 48.75 24.99 48.60 C 25.33 43.06 25.92 37.54 26.38 32.02 Z" />
<path fill="#f8e817" opacity="1.00" d=" M 58.65 33.63 C 62.52 31.04 67.41 31.53 71.82 31.75 L 72.68 31.97 C 72.06 33.77 71.46 35.56 70.86 37.36 L 70.27 37.07 C 67.64 36.93 64.43 36.32 62.34 38.35 C 61.09 39.85 60.65 41.83 59.86 43.58 C 60.53 43.50 61.86 43.34 62.52 43.26 C 64.61 43.39 66.71 43.62 68.73 44.18 C 68.19 44.75 67.09 45.89 66.55 46.46 C 64.36 46.48 62.17 46.51 59.99 46.55 C 59.99 47.30 60.00 48.81 60.01 49.57 C 60.60 49.44 61.78 49.19 62.37 49.07 C 64.52 49.31 66.67 49.64 68.76 50.22 C 68.21 50.78 67.11 51.88 66.57 52.43 C 64.26 52.48 61.95 52.52 59.65 52.59 C 60.54 54.65 61.47 56.69 62.45 58.72 C 65.73 58.89 69.05 59.11 72.20 60.13 C 72.12 61.19 71.96 63.32 71.88 64.38 C 67.21 63.99 61.81 65.11 57.86 61.99 C 55.00 59.92 54.19 56.31 53.05 53.18 C 51.93 52.66 50.80 52.16 49.72 51.55 C 49.89 49.46 52.62 48.91 53.89 47.57 C 52.65 47.04 51.40 46.51 50.16 45.97 C 50.00 45.56 49.68 44.72 49.52 44.30 C 50.77 43.67 52.02 43.05 53.26 42.42 C 54.60 39.28 55.45 35.45 58.65 33.63 Z" />
</g>
<g id="#e69c11ff">
<path fill="#e69c11" opacity="1.00" d=" M 45.53 31.89 C 47.39 33.80 47.38 36.43 47.28 38.91 C 43.06 38.90 38.84 38.96 34.63 39.12 C 34.38 40.47 34.12 41.81 33.85 43.16 C 33.21 43.35 31.94 43.72 31.31 43.91 C 31.35 41.79 31.40 39.67 31.45 37.55 C 35.86 37.26 40.28 37.26 44.69 37.28 C 44.96 35.48 45.24 33.69 45.53 31.89 Z" />
</g>
<g id="#e38f11ff">
<path fill="#e38f11" opacity="1.00" d=" M 72.68 31.97 C 74.85 33.83 74.43 36.61 74.07 39.11 C 73.00 38.53 71.93 37.93 70.86 37.36 C 71.46 35.56 72.06 33.77 72.68 31.97 Z" />
</g>
<g id="#de8a12fe">
<path fill="#de8a12" opacity="1.00" d=" M 89.14 32.39 C 93.83 41.05 93.88 51.63 91.80 61.07 C 88.04 75.81 75.84 88.01 61.09 91.77 C 51.67 93.95 41.13 93.77 32.44 89.18 C 40.31 90.19 48.32 92.45 56.22 90.26 C 62.41 88.81 68.47 86.42 73.59 82.59 C 84.50 74.74 91.09 61.44 91.17 48.05 C 91.30 42.74 89.50 37.66 89.14 32.39 Z" />
</g>
<g id="#e39312ff">
<path fill="#e39312" opacity="1.00" d=" M 62.34 38.35 C 64.43 36.32 67.64 36.93 70.27 37.07 C 67.21 38.49 64.52 40.53 62.52 43.26 C 61.86 43.34 60.53 43.50 59.86 43.58 C 60.65 41.83 61.09 39.85 62.34 38.35 Z" />
</g>
<g id="#e08d12ff">
<path fill="#e08d12" opacity="1.00" d=" M 68.73 44.18 C 69.47 45.15 70.86 46.08 70.11 47.45 C 67.54 48.06 64.94 48.48 62.37 49.07 C 61.78 49.19 60.60 49.44 60.01 49.57 C 60.00 48.81 59.99 47.30 59.99 46.55 C 62.17 46.51 64.36 46.48 66.55 46.46 C 67.09 45.89 68.19 44.75 68.73 44.18 Z" />
</g>
<g id="#e08b12ff">
<path fill="#e08b12" opacity="1.00" d=" M 43.73 45.84 C 50.05 49.68 50.12 59.97 44.28 64.25 C 40.92 66.69 36.56 65.97 32.70 65.63 C 34.79 65.12 36.89 64.68 38.97 64.12 C 46.55 61.80 47.58 51.80 43.73 45.84 Z" />
</g>
<g id="#e49511ff">
<path fill="#e49511" opacity="1.00" d=" M 28.90 49.03 C 31.87 48.39 35.01 47.35 37.96 48.70 C 35.09 49.81 31.25 52.52 28.90 49.03 Z" />
</g>
<g id="#e18e12ff">
<path fill="#e18e12" opacity="1.00" d=" M 68.76 50.22 C 69.64 51.24 70.79 52.29 70.22 53.77 C 68.03 54.12 65.82 54.22 63.62 54.36 C 63.23 55.81 62.85 57.27 62.45 58.72 C 61.47 56.69 60.54 54.65 59.65 52.59 C 61.95 52.52 64.26 52.48 66.57 52.43 C 67.11 51.88 68.21 50.78 68.76 50.22 Z" />
</g>
<g id="#e29012ff">
<path fill="#e29012" opacity="1.00" d=" M 31.30 56.54 C 32.62 56.82 33.23 57.64 33.12 59.01 C 31.72 58.84 31.11 58.02 31.30 56.54 Z" />
</g>
<g id="#e28d11ff">
<path fill="#e28d11" opacity="1.00" d=" M 72.20 60.13 C 72.67 60.28 73.60 60.58 74.07 60.73 C 73.96 62.30 75.35 64.49 73.83 65.61 C 70.80 66.25 67.68 66.15 64.61 66.28 C 64.60 65.92 64.59 65.18 64.59 64.81 C 67.02 64.70 69.45 64.56 71.88 64.38 C 71.96 63.32 72.12 61.19 72.20 60.13 Z" />
</g>
<g id="#f1a434ff">
<path fill="#f1a434" opacity="1.00" d=" M 15.74 65.74 C 18.32 69.31 21.11 72.77 24.44 75.68 C 28.27 78.99 32.91 81.14 37.57 82.98 C 37.05 83.14 35.99 83.46 35.46 83.62 C 31.20 82.45 27.34 80.16 23.90 77.44 C 20.72 74.65 17.89 71.43 15.79 67.75 L 15.74 65.74 Z" />
</g>
<g id="#f9b70fff">
<path fill="#f9b70f" opacity="1.00" d=" M 19.87 80.98 C 21.21 79.80 22.55 78.62 23.90 77.44 C 27.34 80.16 31.20 82.45 35.46 83.62 C 40.40 85.39 45.65 85.94 50.87 85.71 C 50.64 87.02 50.41 88.33 50.19 89.64 C 52.20 89.87 54.20 90.11 56.22 90.26 C 48.32 92.45 40.31 90.19 32.44 89.18 C 27.66 87.53 23.66 84.24 19.87 80.98 Z" />
</g>
</svg>
