<?xml version="1.0" encoding="UTF-8" ?>
<!DOCTYPE svg PUBLIC "-//W3C//DTD SVG 1.1//EN" "http://www.w3.org/Graphics/SVG/1.1/DTD/svg11.dtd">
<svg width="96pt" height="96pt" viewBox="0 0 96 96" version="1.1" xmlns="http://www.w3.org/2000/svg">
<g id="#fab20fff">
<path fill="#fab20f" opacity="1.00" d=" M 27.83 9.82 C 35.04 5.89 43.48 4.27 51.68 4.69 L 51.46 5.23 C 50.82 6.72 50.19 8.21 49.57 9.70 C 44.13 9.95 38.57 10.44 33.58 12.79 C 31.56 13.55 29.58 14.44 27.68 15.46 C 27.73 13.58 27.79 11.70 27.83 9.82 Z" />
</g>
<g id="#f9be0fff">
<path fill="#f9be0f" opacity="1.00" d=" M 49.57 9.70 C 50.19 8.21 50.82 6.72 51.46 5.23 C 55.73 4.58 59.59 6.80 63.66 7.66 C 67.05 9.05 70.31 10.85 73.25 13.05 C 72.89 14.93 72.53 16.81 72.14 18.69 C 69.66 16.82 67.02 15.16 64.26 13.71 C 59.76 11.22 54.67 10.03 49.57 9.70 Z" />
</g>
<g id="#f8a50dff">
<path fill="#f8a50d" opacity="1.00" d=" M 6.45 36.38 C 9.37 25.08 17.41 15.14 27.83 9.82 C 27.79 11.70 27.73 13.58 27.68 15.46 C 21.36 20.21 15.41 25.99 12.58 33.55 C 8.02 44.35 9.17 57.30 15.30 67.26 C 16.66 69.51 18.25 71.61 19.89 73.67 C 18.92 75.15 17.95 76.63 16.96 78.11 C 6.69 67.20 1.83 50.84 6.45 36.38 Z" />
</g>
<g id="#f1a536ff">
<path fill="#f1a536" opacity="1.00" d=" M 33.58 12.79 C 38.57 10.44 44.13 9.95 49.57 9.70 C 54.67 10.03 59.76 11.22 64.26 13.71 L 64.48 15.10 C 60.53 13.81 56.60 12.37 52.50 11.65 C 46.69 10.41 40.91 12.07 35.29 13.39 C 34.86 13.24 34.01 12.94 33.58 12.79 Z" />
</g>
<g id="#f8bf0eff">
<path fill="#f8bf0e" opacity="1.00" d=" M 35.29 13.39 C 40.91 12.07 46.69 10.41 52.50 11.65 C 51.13 18.71 49.87 25.80 48.93 32.94 C 46.65 33.00 44.37 33.16 42.10 33.41 C 42.68 34.81 42.96 36.46 44.20 37.46 C 47.36 39.50 51.56 38.48 54.81 37.17 C 54.74 38.74 54.68 40.31 54.62 41.88 C 50.75 42.13 46.75 41.70 43.04 43.08 C 43.04 43.81 43.03 45.26 43.02 45.98 C 43.61 46.05 44.79 46.18 45.39 46.24 C 45.40 46.69 45.42 47.57 45.44 48.01 C 48.67 47.85 51.95 47.58 54.93 46.18 C 54.73 47.60 54.58 49.03 54.45 50.45 C 49.67 51.46 44.72 51.14 39.92 52.13 C 39.21 50.26 38.25 48.43 36.64 47.18 C 34.22 44.84 31.11 43.49 27.70 44.20 C 27.92 43.39 28.35 41.76 28.57 40.94 C 31.92 40.51 35.29 40.59 38.66 40.51 C 39.03 38.69 39.49 36.35 37.45 35.33 L 36.78 35.05 C 35.26 34.08 32.54 34.00 32.06 32.00 C 32.09 27.07 34.25 22.45 34.62 17.56 C 34.93 16.27 33.84 15.36 33.24 14.37 C 33.75 14.12 34.78 13.63 35.29 13.39 Z" />
</g>
<g id="#f7b50eff">
<path fill="#f7b50e" opacity="1.00" d=" M 52.50 11.65 C 56.60 12.37 60.53 13.81 64.48 15.10 C 65.62 15.81 66.78 16.51 67.91 17.26 C 66.20 21.40 65.41 25.88 65.67 30.36 C 67.78 30.74 69.90 31.07 72.00 31.54 C 64.29 31.62 56.62 32.60 48.93 32.94 C 49.87 25.80 51.13 18.71 52.50 11.65 Z" />
</g>
<g id="#ec8d19ff">
<path fill="#ec8d19" opacity="1.00" d=" M 27.68 15.46 C 29.58 14.44 31.56 13.55 33.58 12.79 C 34.01 12.94 34.86 13.24 35.29 13.39 C 34.78 13.63 33.75 14.12 33.24 14.37 C 19.51 20.39 10.60 35.20 11.24 50.08 C 11.94 55.52 13.44 60.91 16.00 65.78 C 15.82 66.15 15.48 66.89 15.30 67.26 C 9.17 57.30 8.02 44.35 12.58 33.55 C 15.41 25.99 21.36 20.21 27.68 15.46 Z" />
</g>
<g id="#fbce10ff">
<path fill="#fbce10" opacity="1.00" d=" M 73.25 13.05 C 79.77 17.84 85.78 24.15 88.76 31.71 C 88.84 35.93 90.80 39.80 90.99 44.00 C 92.02 55.41 88.27 67.19 80.79 75.89 C 74.59 83.35 65.67 88.17 56.27 90.25 C 54.21 90.11 52.15 89.83 50.10 89.53 C 50.22 89.04 50.45 88.05 50.57 87.56 C 51.72 86.78 52.88 86.01 54.13 85.39 C 62.99 83.63 71.40 79.20 77.09 72.07 C 85.40 62.38 88.36 48.14 83.93 36.08 C 81.79 29.30 77.52 23.29 72.14 18.69 C 72.53 16.81 72.89 14.93 73.25 13.05 Z" />
</g>
<g id="#f8cc68ff">
<path fill="#f8cc68" opacity="1.00" d=" M 64.26 13.71 C 67.02 15.16 69.66 16.82 72.14 18.69 C 77.52 23.29 81.79 29.30 83.93 36.08 C 88.36 48.14 85.40 62.38 77.09 72.07 C 71.40 79.20 62.99 83.63 54.13 85.39 C 52.32 85.87 50.76 85.55 49.44 84.40 C 51.80 84.18 54.17 83.86 56.47 83.26 C 65.49 81.13 73.62 75.36 78.53 67.50 C 83.95 59.14 85.63 48.46 83.13 38.82 C 81.05 30.05 75.36 22.26 67.91 17.26 C 66.78 16.51 65.62 15.81 64.48 15.10 L 64.26 13.71 Z" />
</g>
<g id="#f9cb0fff">
<path fill="#f9cb0f" opacity="1.00" d=" M 11.24 50.08 C 10.60 35.20 19.51 20.39 33.24 14.37 C 33.84 15.36 34.93 16.27 34.62 17.56 C 34.25 22.45 32.09 27.07 32.06 32.00 C 32.54 34.00 35.26 34.08 36.78 35.05 C 31.92 34.79 27.03 34.62 22.19 35.13 C 21.07 39.48 20.56 43.95 20.28 48.42 C 21.51 48.68 22.74 48.92 23.96 49.22 C 24.54 49.58 25.69 50.29 26.27 50.65 C 27.84 50.10 29.39 49.48 30.93 48.84 C 34.03 51.49 32.12 58.94 27.37 57.78 C 26.05 56.69 24.97 55.36 23.67 54.24 C 22.14 53.69 20.50 54.26 18.94 54.38 C 20.03 57.02 21.86 59.21 23.90 61.17 C 27.88 64.89 25.29 70.61 23.27 74.66 C 20.45 72.05 18.07 69.01 16.00 65.78 C 13.44 60.91 11.94 55.52 11.24 50.08 Z" />
</g>
<g id="#f8a90eff">
<path fill="#f8a90e" opacity="1.00" d=" M 65.67 30.36 C 65.41 25.88 66.20 21.40 67.91 17.26 C 75.36 22.26 81.05 30.05 83.13 38.82 C 85.63 48.46 83.95 59.14 78.53 67.50 C 73.62 75.36 65.49 81.13 56.47 83.26 C 57.52 77.33 57.72 71.27 58.79 65.33 C 58.92 65.32 59.17 65.29 59.30 65.28 C 64.04 66.17 68.98 66.57 73.75 65.64 C 77.24 64.56 77.33 60.25 77.92 57.25 C 77.47 56.91 76.58 56.23 76.13 55.89 C 74.70 55.24 73.14 54.98 71.57 54.97 C 71.21 56.95 70.86 58.96 69.91 60.76 C 66.88 60.84 63.85 60.96 60.82 60.84 C 60.90 59.20 60.99 57.56 61.07 55.93 C 66.98 54.49 73.14 54.82 79.12 53.77 C 78.97 52.14 78.47 50.59 77.14 49.54 C 71.68 48.79 66.10 49.74 60.62 50.09 C 60.91 48.89 61.18 47.70 61.44 46.50 C 66.16 46.08 70.91 46.28 75.60 45.53 C 76.71 43.84 75.97 42.13 74.34 41.15 C 69.96 39.51 65.17 40.99 60.65 41.10 C 60.92 39.91 61.18 38.72 61.42 37.52 C 65.95 37.08 70.50 37.18 75.03 36.75 C 75.21 35.12 74.49 33.69 73.31 32.61 C 72.98 32.34 72.32 31.81 72.00 31.54 C 69.90 31.07 67.78 30.74 65.67 30.36 Z" />
</g>
<g id="#f8e817ff">
<path fill="#f8e817" opacity="1.00" d=" M 48.93 32.94 C 56.62 32.60 64.29 31.62 72.00 31.54 C 72.32 31.81 72.98 32.34 73.31 32.61 C 73.15 33.15 72.84 34.24 72.69 34.79 C 68.00 35.49 63.30 36.24 58.55 36.02 C 58.53 37.77 58.53 39.52 58.55 41.27 C 59.08 41.23 60.12 41.14 60.65 41.10 C 65.17 40.99 69.96 39.51 74.34 41.15 C 74.11 41.82 73.65 43.15 73.42 43.82 C 68.45 44.13 63.54 45.19 58.54 45.04 C 58.52 46.79 58.53 48.53 58.55 50.28 C 59.07 50.23 60.10 50.13 60.62 50.09 C 66.10 49.74 71.68 48.79 77.14 49.54 C 76.88 50.23 76.36 51.61 76.10 52.30 C 70.29 53.25 64.37 53.32 58.54 54.16 C 58.46 56.35 58.38 58.58 58.91 60.73 C 59.39 60.76 60.34 60.81 60.82 60.84 C 63.85 60.96 66.88 60.84 69.91 60.76 C 70.86 58.96 71.21 56.95 71.57 54.97 C 73.14 54.98 74.70 55.24 76.13 55.89 C 75.09 58.80 74.86 62.51 72.03 64.34 C 66.81 64.27 61.48 64.62 56.34 63.73 C 54.09 61.52 54.72 58.01 54.60 55.15 C 51.79 54.71 48.94 54.80 46.13 55.14 C 44.45 55.22 42.77 55.21 41.09 55.20 C 40.88 54.64 40.45 53.52 40.24 52.96 L 39.92 52.13 C 44.72 51.14 49.67 51.46 54.45 50.45 C 54.58 49.03 54.73 47.60 54.93 46.18 C 51.76 45.60 48.56 45.93 45.39 46.24 C 44.79 46.18 43.61 46.05 43.02 45.98 C 43.03 45.26 43.04 43.81 43.04 43.08 C 46.75 41.70 50.75 42.13 54.62 41.88 C 54.68 40.31 54.74 38.74 54.81 37.17 C 51.29 36.62 47.69 36.75 44.20 37.46 C 42.96 36.46 42.68 34.81 42.10 33.41 C 44.37 33.16 46.65 33.00 48.93 32.94 Z" />
<path fill="#f8e817" opacity="1.00" d=" M 22.19 35.13 C 27.03 34.62 31.92 34.79 36.78 35.05 L 37.45 35.33 C 37.24 36.24 36.81 38.06 36.60 38.98 C 33.13 39.01 29.67 38.96 26.21 39.02 C 25.89 40.86 25.58 42.71 25.29 44.55 C 25.89 44.46 27.09 44.29 27.70 44.20 C 31.11 43.49 34.22 44.84 36.64 47.18 C 37.46 50.51 38.37 54.39 36.57 57.56 C 35.37 59.02 34.07 60.74 32.12 61.17 C 29.38 61.30 26.64 61.19 23.90 61.17 C 21.86 59.21 20.03 57.02 18.94 54.38 C 20.50 54.26 22.14 53.69 23.67 54.24 C 24.97 55.36 26.05 56.69 27.37 57.78 C 32.12 58.94 34.03 51.49 30.93 48.84 C 28.78 47.12 26.13 48.21 23.96 49.22 C 22.74 48.92 21.51 48.68 20.28 48.42 C 20.56 43.95 21.07 39.48 22.19 35.13 Z" />
</g>
<g id="#e39111ff">
<path fill="#e39111" opacity="1.00" d=" M 73.31 32.61 C 74.49 33.69 75.21 35.12 75.03 36.75 C 70.50 37.18 65.95 37.08 61.42 37.52 C 61.18 38.72 60.92 39.91 60.65 41.10 C 60.12 41.14 59.08 41.23 58.55 41.27 C 58.53 39.52 58.53 37.77 58.55 36.02 C 63.30 36.24 68.00 35.49 72.69 34.79 C 72.84 34.24 73.15 33.15 73.31 32.61 Z" />
</g>
<g id="#de8a13fe">
<path fill="#de8a13" opacity="1.00" d=" M 88.76 31.71 C 91.96 36.47 92.64 42.38 93.06 47.95 C 93.85 60.66 88.59 73.51 79.07 81.98 C 66.79 93.43 47.23 96.60 32.18 89.09 C 40.15 90.09 48.25 92.60 56.27 90.25 C 65.67 88.17 74.59 83.35 80.79 75.89 C 88.27 67.19 92.02 55.41 90.99 44.00 C 90.80 39.80 88.84 35.93 88.76 31.71 Z" />
</g>
<g id="#e59512ff">
<path fill="#e59512" opacity="1.00" d=" M 37.45 35.33 C 39.49 36.35 39.03 38.69 38.66 40.51 C 35.29 40.59 31.92 40.51 28.57 40.94 C 28.35 41.76 27.92 43.39 27.70 44.20 C 27.09 44.29 25.89 44.46 25.29 44.55 C 25.58 42.71 25.89 40.86 26.21 39.02 C 29.67 38.96 33.13 39.01 36.60 38.98 C 36.81 38.06 37.24 36.24 37.45 35.33 Z" />
</g>
<g id="#e39311ff">
<path fill="#e39311" opacity="1.00" d=" M 44.20 37.46 C 47.69 36.75 51.29 36.62 54.81 37.17 C 51.56 38.48 47.36 39.50 44.20 37.46 Z" />
</g>
<g id="#e39211ff">
<path fill="#e39211" opacity="1.00" d=" M 74.34 41.15 C 75.97 42.13 76.71 43.84 75.60 45.53 C 70.91 46.28 66.16 46.08 61.44 46.50 C 61.18 47.70 60.91 48.89 60.62 50.09 C 60.10 50.13 59.07 50.23 58.55 50.28 C 58.53 48.53 58.52 46.79 58.54 45.04 C 63.54 45.19 68.45 44.13 73.42 43.82 C 73.65 43.15 74.11 41.82 74.34 41.15 Z" />
</g>
<g id="#e69811ff">
<path fill="#e69811" opacity="1.00" d=" M 45.39 46.24 C 48.56 45.93 51.76 45.60 54.93 46.18 C 51.95 47.58 48.67 47.85 45.44 48.01 C 45.42 47.57 45.40 46.69 45.39 46.24 Z" />
</g>
<g id="#e49212ff">
<path fill="#e49212" opacity="1.00" d=" M 36.64 47.18 C 38.25 48.43 39.21 50.26 39.92 52.13 L 40.24 52.96 C 39.63 56.18 39.03 60.13 35.80 61.80 C 33.15 63.51 29.86 63.01 26.89 62.82 C 28.40 61.69 30.37 61.65 32.12 61.17 C 34.07 60.74 35.37 59.02 36.57 57.56 C 38.37 54.39 37.46 50.51 36.64 47.18 Z" />
</g>
<g id="#e59611ff">
<path fill="#e59611" opacity="1.00" d=" M 23.96 49.22 C 26.13 48.21 28.78 47.12 30.93 48.84 C 29.39 49.48 27.84 50.10 26.27 50.65 C 25.69 50.29 24.54 49.58 23.96 49.22 Z" />
<path fill="#e59611" opacity="1.00" d=" M 46.13 55.14 C 48.94 54.80 51.79 54.71 54.60 55.15 C 50.54 56.90 46.04 56.93 41.70 56.81 C 43.16 56.21 44.63 55.63 46.13 55.14 Z" />
</g>
<g id="#e39212ff">
<path fill="#e39212" opacity="1.00" d=" M 77.14 49.54 C 78.47 50.59 78.97 52.14 79.12 53.77 C 73.14 54.82 66.98 54.49 61.07 55.93 C 60.99 57.56 60.90 59.20 60.82 60.84 C 60.34 60.81 59.39 60.76 58.91 60.73 C 58.38 58.58 58.46 56.35 58.54 54.16 C 64.37 53.32 70.29 53.25 76.10 52.30 C 76.36 51.61 76.88 50.23 77.14 49.54 Z" />
</g>
<g id="#f8b90eff">
<path fill="#f8b90e" opacity="1.00" d=" M 40.24 52.96 C 40.45 53.52 40.88 54.64 41.09 55.20 C 42.77 55.21 44.45 55.22 46.13 55.14 C 44.63 55.63 43.16 56.21 41.70 56.81 C 46.04 56.93 50.54 56.90 54.60 55.15 C 54.72 58.01 54.09 61.52 56.34 63.73 C 61.48 64.62 66.81 64.27 72.03 64.34 C 67.79 64.79 63.48 64.31 59.30 65.28 C 59.17 65.29 58.92 65.32 58.79 65.33 C 57.72 71.27 57.52 77.33 56.47 83.26 C 54.17 83.86 51.80 84.18 49.44 84.40 C 44.32 83.26 38.70 84.43 33.91 81.98 C 30.35 79.57 26.38 77.69 23.27 74.66 C 25.29 70.61 27.88 64.89 23.90 61.17 C 26.64 61.19 29.38 61.30 32.12 61.17 C 30.37 61.65 28.40 61.69 26.89 62.82 C 29.86 63.01 33.15 63.51 35.80 61.80 C 39.03 60.13 39.63 56.18 40.24 52.96 Z" />
</g>
<g id="#e28f11ff">
<path fill="#e28f11" opacity="1.00" d=" M 76.13 55.89 C 76.58 56.23 77.47 56.91 77.92 57.25 C 77.33 60.25 77.24 64.56 73.75 65.64 C 68.98 66.57 64.04 66.17 59.30 65.28 C 63.48 64.31 67.79 64.79 72.03 64.34 C 74.86 62.51 75.09 58.80 76.13 55.89 Z" />
</g>
<g id="#f1a232ff">
<path fill="#f1a232" opacity="1.00" d=" M 16.00 65.78 C 18.07 69.01 20.45 72.05 23.27 74.66 C 26.38 77.69 30.35 79.57 33.91 81.98 C 32.66 82.40 31.47 82.28 30.35 81.62 C 26.44 79.60 22.91 76.86 19.89 73.67 C 18.25 71.61 16.66 69.51 15.30 67.26 C 15.48 66.89 15.82 66.15 16.00 65.78 Z" />
</g>
<g id="#f9b60fff">
<path fill="#f9b60f" opacity="1.00" d=" M 16.96 78.11 C 17.95 76.63 18.92 75.15 19.89 73.67 C 22.91 76.86 26.44 79.60 30.35 81.62 C 31.47 82.28 32.66 82.40 33.91 81.98 C 38.70 84.43 44.32 83.26 49.44 84.40 C 50.76 85.55 52.32 85.87 54.13 85.39 C 52.88 86.01 51.72 86.78 50.57 87.56 C 50.45 88.05 50.22 89.04 50.10 89.53 C 52.15 89.83 54.21 90.11 56.27 90.25 C 48.25 92.60 40.15 90.09 32.18 89.09 C 26.27 86.82 21.39 82.54 16.96 78.11 Z" />
</g>
</svg>
