<?xml version="1.0" encoding="UTF-8" ?>
<!DOCTYPE svg PUBLIC "-//W3C//DTD SVG 1.1//EN" "http://www.w3.org/Graphics/SVG/1.1/DTD/svg11.dtd">
<svg width="96pt" height="96pt" viewBox="0 0 96 96" version="1.1" xmlns="http://www.w3.org/2000/svg">
<g id="#f9b20fff">
<path fill="#f9b20f" opacity="1.00" d=" M 27.90 9.74 C 35.02 6.18 43.32 3.89 51.32 4.99 C 50.53 6.62 49.74 8.26 48.95 9.90 C 44.64 10.26 40.19 10.23 36.10 11.82 C 32.76 12.95 29.51 14.35 26.49 16.16 C 26.84 14.00 27.34 11.86 27.90 9.74 Z" />
</g>
<g id="#f9bf0fff">
<path fill="#f9bf0f" opacity="1.00" d=" M 51.32 4.99 C 59.40 5.41 67.14 8.61 73.74 13.21 L 73.71 13.49 C 73.50 15.48 73.29 17.46 73.06 19.45 C 68.20 15.19 62.17 12.76 56.14 10.68 C 53.86 9.75 51.37 9.74 48.95 9.90 C 49.74 8.26 50.53 6.62 51.32 4.99 Z" />
</g>
<g id="#f8a50dff">
<path fill="#f8a50d" opacity="1.00" d=" M 4.82 44.97 C 5.88 30.34 14.72 16.42 27.90 9.74 C 27.34 11.86 26.84 14.00 26.49 16.16 C 21.58 20.44 16.45 24.87 13.82 31.00 C 9.14 39.85 8.61 50.59 11.87 60.01 C 13.21 63.73 14.71 67.72 18.18 69.99 C 18.74 71.11 19.25 72.26 19.82 73.37 C 18.50 74.71 17.51 76.31 16.88 78.07 C 8.74 69.19 3.87 57.09 4.82 44.97 Z" />
</g>
<g id="#f8b90fff">
<path fill="#f8b90f" opacity="1.00" d=" M 36.10 11.82 C 40.19 10.23 44.64 10.26 48.95 9.90 C 51.37 9.74 53.86 9.75 56.14 10.68 C 55.00 10.81 53.86 10.97 52.72 11.13 C 56.18 12.03 59.68 12.84 62.94 14.35 C 61.84 18.32 61.21 22.38 60.64 26.45 C 60.39 27.96 60.09 29.45 59.80 30.95 C 54.98 32.60 49.62 36.90 51.33 42.62 C 52.69 48.16 58.75 49.48 63.15 51.75 C 66.78 53.15 65.96 59.89 61.71 59.69 C 58.11 60.39 56.52 56.82 55.40 54.10 C 53.55 54.08 51.71 54.08 49.87 54.08 C 50.17 56.49 50.40 59.08 52.08 61.00 C 53.62 63.18 56.40 63.69 58.74 64.57 C 59.06 65.82 59.38 67.06 59.70 68.31 C 60.33 68.70 61.59 69.49 62.22 69.89 C 62.33 70.20 62.53 70.83 62.63 71.14 C 63.22 74.29 63.19 77.52 63.78 80.67 C 59.57 82.66 55.01 83.90 50.36 84.19 C 40.61 84.36 30.39 81.70 23.33 74.65 C 25.54 70.98 25.40 66.52 27.31 62.74 C 31.03 64.52 35.21 64.57 39.24 64.30 C 37.06 64.75 34.87 65.07 32.68 65.47 C 36.77 66.63 41.50 66.74 44.99 63.95 C 50.17 59.28 50.01 49.48 43.67 45.85 C 41.02 43.34 37.37 42.71 33.87 43.32 C 34.27 41.85 34.63 40.38 34.98 38.90 C 39.09 38.84 43.20 38.84 47.30 38.84 C 47.60 36.41 47.40 33.95 45.54 32.16 L 44.95 31.91 C 40.97 30.05 36.41 30.99 32.17 30.60 C 33.04 25.77 34.40 21.03 34.97 16.15 C 34.53 15.74 33.65 14.93 33.21 14.53 C 34.43 13.94 35.49 13.05 36.10 11.82 Z" />
</g>
<g id="#f8ca64ff">
<path fill="#f8ca64" opacity="1.00" d=" M 52.72 11.13 C 53.86 10.97 55.00 10.81 56.14 10.68 C 62.17 12.76 68.20 15.19 73.06 19.45 C 79.90 25.53 84.37 34.07 85.72 43.09 C 87.36 55.31 82.35 68.07 73.16 76.21 C 67.88 81.13 61.01 83.98 54.02 85.42 C 52.80 85.01 51.58 84.60 50.36 84.19 C 55.01 83.90 59.57 82.66 63.78 80.67 C 72.93 76.17 80.13 67.78 82.82 57.91 C 85.29 49.48 84.50 40.18 80.80 32.22 C 77.10 24.45 70.63 18.14 62.94 14.35 C 59.68 12.84 56.18 12.03 52.72 11.13 Z" />
</g>
<g id="#ec8e1aff">
<path fill="#ec8e1a" opacity="1.00" d=" M 26.49 16.16 C 29.51 14.35 32.76 12.95 36.10 11.82 C 35.49 13.05 34.43 13.94 33.21 14.53 C 22.34 19.21 14.32 29.47 12.07 41.05 C 9.29 51.09 13.47 61.26 18.18 69.99 C 14.71 67.72 13.21 63.73 11.87 60.01 C 8.61 50.59 9.14 39.85 13.82 31.00 C 16.45 24.87 21.58 20.44 26.49 16.16 Z" />
</g>
<g id="#fbcf10ff">
<path fill="#fbcf10" opacity="1.00" d=" M 73.06 19.45 C 73.29 17.46 73.50 15.48 73.71 13.49 C 80.26 18.24 86.14 24.67 89.02 32.29 C 89.29 36.93 91.05 41.34 91.09 46.00 C 91.75 60.06 85.05 74.30 73.60 82.56 C 68.50 86.38 62.48 88.81 56.29 90.22 C 53.70 90.12 51.11 89.83 48.53 89.53 C 48.27 88.43 48.00 87.33 47.74 86.23 C 49.84 86.08 51.95 85.83 54.02 85.42 C 61.01 83.98 67.88 81.13 73.16 76.21 C 82.35 68.07 87.36 55.31 85.72 43.09 C 84.37 34.07 79.90 25.53 73.06 19.45 Z" />
</g>
<g id="#f9cb0fff">
<path fill="#f9cb0f" opacity="1.00" d=" M 12.07 41.05 C 14.32 29.47 22.34 19.21 33.21 14.53 C 33.65 14.93 34.53 15.74 34.97 16.15 C 34.40 21.03 33.04 25.77 32.17 30.60 C 36.41 30.99 40.97 30.05 44.95 31.91 C 38.81 32.36 32.64 31.51 26.52 32.35 C 25.98 37.82 25.50 43.30 25.09 48.78 C 26.78 48.78 28.48 48.80 30.17 48.69 C 30.35 49.56 30.61 50.42 30.95 51.24 C 33.36 50.74 35.66 49.85 37.94 48.98 C 39.74 51.25 40.56 54.31 39.12 56.99 C 38.38 59.61 35.32 59.70 33.14 59.18 C 33.27 57.80 32.67 56.95 31.33 56.61 C 28.88 55.74 26.27 55.60 23.70 55.88 C 24.70 58.27 25.98 60.52 27.31 62.74 C 25.40 66.52 25.54 70.98 23.33 74.65 C 21.68 73.03 19.95 71.49 18.18 69.99 C 13.47 61.26 9.29 51.09 12.07 41.05 Z" />
</g>
<g id="#f8a80eff">
<path fill="#f8a80e" opacity="1.00" d=" M 60.64 26.45 C 61.21 22.38 61.84 18.32 62.94 14.35 C 70.63 18.14 77.10 24.45 80.80 32.22 C 84.50 40.18 85.29 49.48 82.82 57.91 C 80.13 67.78 72.93 76.17 63.78 80.67 C 63.19 77.52 63.22 74.29 62.63 71.14 C 63.41 70.78 64.18 70.42 64.96 70.06 C 65.45 68.91 65.95 67.75 66.44 66.59 C 68.77 65.29 71.69 64.51 73.23 62.18 C 75.04 58.32 74.82 52.70 70.74 50.37 C 67.43 47.60 63.50 45.85 59.65 43.99 C 59.90 41.09 61.40 38.63 63.39 36.59 C 64.46 38.07 65.02 39.82 65.54 41.55 C 65.92 41.76 66.69 42.19 67.07 42.41 C 69.29 43.99 72.00 43.97 74.53 43.29 C 74.08 40.64 74.17 36.56 70.66 36.20 C 69.14 33.87 66.71 32.48 64.19 31.47 C 63.97 30.04 63.77 28.60 63.57 27.17 C 62.84 26.99 61.37 26.63 60.64 26.45 Z" />
</g>
<g id="#f8e817ff">
<path fill="#f8e817" opacity="1.00" d=" M 59.80 30.95 C 60.09 29.45 60.39 27.96 60.64 26.45 C 61.37 26.63 62.84 26.99 63.57 27.17 C 63.77 28.60 63.97 30.04 64.19 31.47 C 66.71 32.48 69.14 33.87 70.66 36.20 C 71.22 38.03 71.72 39.88 72.21 41.74 C 70.49 41.96 68.78 42.18 67.07 42.41 C 66.69 42.19 65.92 41.76 65.54 41.55 C 65.02 39.82 64.46 38.07 63.39 36.59 C 61.63 37.00 59.26 36.44 58.10 38.19 C 57.84 39.73 57.88 41.30 57.84 42.86 C 58.29 43.14 59.19 43.70 59.65 43.99 C 63.50 45.85 67.43 47.60 70.74 50.37 C 71.76 53.43 72.82 56.92 71.01 59.92 C 69.83 63.17 66.26 64.03 63.32 64.95 C 62.94 66.59 62.55 68.23 62.22 69.89 C 61.59 69.49 60.33 68.70 59.70 68.31 C 59.38 67.06 59.06 65.82 58.74 64.57 C 56.40 63.69 53.62 63.18 52.08 61.00 C 50.40 59.08 50.17 56.49 49.87 54.08 C 51.71 54.08 53.55 54.08 55.40 54.10 C 56.52 56.82 58.11 60.39 61.71 59.69 C 65.96 59.89 66.78 53.15 63.15 51.75 C 58.75 49.48 52.69 48.16 51.33 42.62 C 49.62 36.90 54.98 32.60 59.80 30.95 Z" />
<path fill="#f8e817" opacity="1.00" d=" M 26.52 32.35 C 32.64 31.51 38.81 32.36 44.95 31.91 L 45.54 32.16 C 45.24 33.94 44.96 35.73 44.69 37.52 C 40.36 37.46 36.03 37.43 31.70 37.59 C 31.62 39.62 31.54 41.66 31.46 43.69 C 32.06 43.60 33.27 43.41 33.87 43.32 C 37.37 42.71 41.02 43.34 43.67 45.85 C 47.75 51.80 46.56 61.59 39.24 64.30 C 35.21 64.57 31.03 64.52 27.31 62.74 C 25.98 60.52 24.70 58.27 23.70 55.88 C 26.27 55.60 28.88 55.74 31.33 56.61 C 31.15 58.07 31.75 58.92 33.14 59.18 C 35.32 59.70 38.38 59.61 39.12 56.99 C 40.56 54.31 39.74 51.25 37.94 48.98 C 35.63 47.15 32.74 48.30 30.17 48.69 C 28.48 48.80 26.78 48.78 25.09 48.78 C 25.50 43.30 25.98 37.82 26.52 32.35 Z" />
</g>
<g id="#e39012ff">
<path fill="#e39012" opacity="1.00" d=" M 45.54 32.16 C 47.40 33.95 47.60 36.41 47.30 38.84 C 43.20 38.84 39.09 38.84 34.98 38.90 C 34.63 40.38 34.27 41.85 33.87 43.32 C 33.27 43.41 32.06 43.60 31.46 43.69 C 31.54 41.66 31.62 39.62 31.70 37.59 C 36.03 37.43 40.36 37.46 44.69 37.52 C 44.96 35.73 45.24 33.94 45.54 32.16 Z" />
</g>
<g id="#df8b12fe">
<path fill="#df8b12" opacity="1.00" d=" M 89.02 32.29 C 91.20 35.32 91.90 39.05 92.46 42.65 C 94.94 56.24 90.50 70.91 80.56 80.57 C 70.90 90.47 56.25 94.95 42.68 92.46 C 39.16 91.82 35.51 91.23 32.49 89.16 C 40.36 90.27 48.38 92.50 56.29 90.22 C 62.48 88.81 68.50 86.38 73.60 82.56 C 85.05 74.30 91.75 60.06 91.09 46.00 C 91.05 41.34 89.29 36.93 89.02 32.29 Z" />
</g>
<g id="#e49111ff">
<path fill="#e49111" opacity="1.00" d=" M 70.66 36.20 C 74.17 36.56 74.08 40.64 74.53 43.29 C 72.00 43.97 69.29 43.99 67.07 42.41 C 68.78 42.18 70.49 41.96 72.21 41.74 C 71.72 39.88 71.22 38.03 70.66 36.20 Z" />
</g>
<g id="#e18d12fe">
<path fill="#e18d12" opacity="1.00" d=" M 58.10 38.19 C 59.26 36.44 61.63 37.00 63.39 36.59 C 61.40 38.63 59.90 41.09 59.65 43.99 C 59.19 43.70 58.29 43.14 57.84 42.86 C 57.88 41.30 57.84 39.73 58.10 38.19 Z" />
</g>
<g id="#df8a12fe">
<path fill="#df8a12" opacity="1.00" d=" M 43.67 45.85 C 50.01 49.48 50.17 59.28 44.99 63.95 C 41.50 66.74 36.77 66.63 32.68 65.47 C 34.87 65.07 37.06 64.75 39.24 64.30 C 46.56 61.59 47.75 51.80 43.67 45.85 Z" />
<path fill="#df8a12" opacity="1.00" d=" M 70.74 50.37 C 74.82 52.70 75.04 58.32 73.23 62.18 C 71.69 64.51 68.77 65.29 66.44 66.59 C 65.95 67.75 65.45 68.91 64.96 70.06 C 64.18 70.42 63.41 70.78 62.63 71.14 C 62.53 70.83 62.33 70.20 62.22 69.89 C 62.55 68.23 62.94 66.59 63.32 64.95 C 66.26 64.03 69.83 63.17 71.01 59.92 C 72.82 56.92 71.76 53.43 70.74 50.37 Z" />
</g>
<g id="#e49211ff">
<path fill="#e49211" opacity="1.00" d=" M 30.17 48.69 C 32.74 48.30 35.63 47.15 37.94 48.98 C 35.66 49.85 33.36 50.74 30.95 51.24 C 30.61 50.42 30.35 49.56 30.17 48.69 Z" />
</g>
<g id="#e28f13ff">
<path fill="#e28f13" opacity="1.00" d=" M 31.33 56.61 C 32.67 56.95 33.27 57.80 33.14 59.18 C 31.75 58.92 31.15 58.07 31.33 56.61 Z" />
</g>
<g id="#f3af3eff">
<path fill="#f3af3e" opacity="1.00" d=" M 18.18 69.99 C 19.95 71.49 21.68 73.03 23.33 74.65 C 30.39 81.70 40.61 84.36 50.36 84.19 C 51.58 84.60 52.80 85.01 54.02 85.42 C 51.95 85.83 49.84 86.08 47.74 86.23 C 37.23 85.71 26.85 81.31 19.82 73.37 C 19.25 72.26 18.74 71.11 18.18 69.99 Z" />
</g>
<g id="#f9b50fff">
<path fill="#f9b50f" opacity="1.00" d=" M 16.88 78.07 C 17.51 76.31 18.50 74.71 19.82 73.37 C 26.85 81.31 37.23 85.71 47.74 86.23 C 48.00 87.33 48.27 88.43 48.53 89.53 C 51.11 89.83 53.70 90.12 56.29 90.22 C 48.38 92.50 40.36 90.27 32.49 89.16 C 26.37 87.06 21.46 82.50 16.88 78.07 Z" />
</g>
</svg>
