<?xml version="1.0" encoding="UTF-8" ?>
<!DOCTYPE svg PUBLIC "-//W3C//DTD SVG 1.1//EN" "http://www.w3.org/Graphics/SVG/1.1/DTD/svg11.dtd">
<svg width="96pt" height="96pt" viewBox="0 0 96 96" version="1.1" xmlns="http://www.w3.org/2000/svg">
<g id="#f9bb0fff">
<path fill="#f9bb0f" opacity="1.00" d=" M 38.70 5.83 C 50.45 2.75 63.32 5.97 73.12 12.89 C 71.84 14.10 70.57 15.30 69.30 16.50 C 65.22 14.06 60.77 12.34 56.29 10.78 C 51.42 9.15 46.23 9.67 41.19 9.78 C 42.04 8.62 42.89 7.46 43.73 6.29 C 42.06 6.12 40.38 5.94 38.70 5.83 Z" />
</g>
<g id="#f8a70eff">
<path fill="#f8a70e" opacity="1.00" d=" M 12.11 23.94 C 18.14 14.74 27.93 8.07 38.70 5.83 C 40.38 5.94 42.06 6.12 43.73 6.29 C 42.89 7.46 42.04 8.62 41.19 9.78 C 46.23 9.67 51.42 9.15 56.29 10.78 C 55.12 11.02 53.95 11.25 52.76 11.44 C 47.25 11.05 41.79 11.88 36.39 12.91 C 29.46 13.00 24.10 17.87 19.52 22.51 C 7.64 35.05 5.90 57.16 17.93 70.15 C 20.86 75.10 25.43 78.72 30.28 81.67 C 29.52 82.81 28.76 83.95 28.00 85.10 C 29.46 86.13 30.91 87.19 32.40 88.18 C 31.71 88.08 30.33 87.89 29.64 87.79 C 18.33 82.00 9.42 71.11 6.22 58.75 C 2.72 47.05 5.42 33.99 12.11 23.94 Z" />
</g>
<g id="#f8b80eff">
<path fill="#f8b80e" opacity="1.00" d=" M 36.39 12.91 C 41.79 11.88 47.25 11.05 52.76 11.44 C 60.68 12.54 68.11 16.35 73.68 22.06 C 69.97 25.20 70.06 30.36 69.01 34.72 C 64.97 30.52 57.36 29.94 53.33 34.42 C 49.95 38.07 50.13 43.34 50.09 47.98 C 50.18 51.81 49.77 55.91 51.63 59.42 C 53.01 62.36 56.01 63.98 58.81 65.31 C 61.59 66.85 64.82 67.01 67.86 66.25 C 67.31 70.71 66.40 75.15 64.58 79.28 C 64.99 79.27 65.82 79.26 66.24 79.25 C 61.43 82.24 55.88 83.70 50.30 84.30 C 41.11 84.09 31.43 82.07 24.51 75.61 C 26.29 71.58 27.17 67.26 27.63 62.89 C 29.34 63.73 31.07 64.52 32.85 65.18 C 36.78 67.17 41.69 67.03 45.13 64.11 C 50.29 59.33 49.87 49.75 43.81 45.86 C 41.10 43.42 37.41 42.56 33.85 43.17 C 34.30 41.76 34.72 40.33 35.14 38.91 C 39.21 38.81 43.29 38.81 47.37 38.88 C 47.42 36.44 47.15 33.96 45.70 31.91 L 45.11 31.73 C 41.28 30.22 37.12 30.62 33.10 30.65 C 34.27 25.59 35.40 20.51 35.98 15.35 C 35.20 15.15 33.64 14.77 32.86 14.58 C 34.02 13.99 35.20 13.43 36.39 12.91 Z" />
</g>
<g id="#f8c964ff">
<path fill="#f8c964" opacity="1.00" d=" M 52.76 11.44 C 53.95 11.25 55.12 11.02 56.29 10.78 C 60.77 12.34 65.22 14.06 69.30 16.50 C 76.09 21.28 81.47 28.14 83.99 36.10 C 88.83 49.33 84.72 65.00 74.70 74.72 C 69.84 79.73 63.48 82.95 56.82 84.84 C 56.13 84.97 54.75 85.23 54.07 85.36 C 52.80 85.03 51.55 84.68 50.30 84.30 C 55.88 83.70 61.43 82.24 66.24 79.25 C 80.62 71.32 87.63 52.82 82.70 37.25 C 81.06 31.51 77.73 26.39 73.68 22.06 C 68.11 16.35 60.68 12.54 52.76 11.44 Z" />
</g>
<g id="#ec8e19ff">
<path fill="#ec8e19" opacity="1.00" d=" M 19.52 22.51 C 24.10 17.87 29.46 13.00 36.39 12.91 C 35.20 13.43 34.02 13.99 32.86 14.58 C 17.25 21.65 7.51 40.66 12.66 57.30 C 13.84 61.81 16.34 65.80 17.93 70.15 C 5.90 57.16 7.64 35.05 19.52 22.51 Z" />
</g>
<g id="#fbcf10ff">
<path fill="#fbcf10" opacity="1.00" d=" M 73.12 12.89 C 79.85 17.94 86.01 24.40 89.11 32.33 C 89.62 36.93 90.80 41.43 91.12 46.04 C 91.74 60.33 84.80 74.78 73.02 82.97 C 68.35 86.39 62.89 88.56 57.32 90.03 C 56.80 88.78 56.30 87.51 55.82 86.24 C 56.07 85.89 56.57 85.19 56.82 84.84 C 63.48 82.95 69.84 79.73 74.70 74.72 C 84.72 65.00 88.83 49.33 83.99 36.10 C 81.47 28.14 76.09 21.28 69.30 16.50 C 70.57 15.30 71.84 14.10 73.12 12.89 Z" />
</g>
<g id="#f9ca0fff">
<path fill="#f9ca0f" opacity="1.00" d=" M 12.66 57.30 C 7.51 40.66 17.25 21.65 32.86 14.58 C 33.64 14.77 35.20 15.15 35.98 15.35 C 35.40 20.51 34.27 25.59 33.10 30.65 C 37.12 30.62 41.28 30.22 45.11 31.73 C 39.43 31.97 33.71 31.32 28.04 31.95 C 26.38 31.87 26.45 33.84 26.22 34.96 C 25.64 39.61 25.54 44.30 25.09 48.96 C 27.02 48.89 28.95 48.83 30.88 48.65 C 30.21 49.49 29.55 50.34 28.91 51.20 C 32.05 50.96 35.15 50.27 38.02 48.95 C 39.55 51.34 40.67 54.34 39.14 57.03 C 38.20 59.66 35.18 60.34 32.82 59.28 C 33.19 57.87 32.72 56.98 31.41 56.60 C 28.86 55.92 26.21 55.77 23.58 55.70 C 24.69 58.22 25.88 60.74 27.63 62.89 C 27.17 67.26 26.29 71.58 24.51 75.61 C 22.43 73.66 20.31 71.73 17.93 70.15 C 16.34 65.80 13.84 61.81 12.66 57.30 Z" />
</g>
<g id="#f8a50dff">
<path fill="#f8a50d" opacity="1.00" d=" M 69.01 34.72 C 70.06 30.36 69.97 25.20 73.68 22.06 C 77.73 26.39 81.06 31.51 82.70 37.25 C 87.63 52.82 80.62 71.32 66.24 79.25 C 65.82 79.26 64.99 79.27 64.58 79.28 C 66.40 75.15 67.31 70.71 67.86 66.25 C 70.46 64.08 73.51 61.67 73.87 58.04 C 74.48 53.05 74.34 47.98 73.99 42.98 C 73.97 40.53 72.66 38.43 71.33 36.48 L 71.00 38.16 C 70.37 36.99 69.71 35.84 69.01 34.72 Z" />
</g>
<g id="#f8e817ff">
<path fill="#f8e817" opacity="1.00" d=" M 53.33 34.42 C 57.36 29.94 64.97 30.52 69.01 34.72 C 69.71 35.84 70.37 36.99 71.00 38.16 C 72.30 45.36 73.06 53.21 70.10 60.09 C 68.13 64.40 63.03 65.23 58.81 65.31 C 56.01 63.98 53.01 62.36 51.63 59.42 C 49.77 55.91 50.18 51.81 50.09 47.98 C 50.13 43.34 49.95 38.07 53.33 34.42 M 57.30 39.26 C 55.28 45.16 55.93 51.74 57.24 57.75 C 57.77 58.14 58.83 58.92 59.37 59.31 L 59.43 60.12 C 61.42 59.64 64.55 59.58 64.86 56.96 C 65.52 52.34 65.17 47.64 65.18 42.99 C 65.25 40.75 64.40 38.66 63.50 36.65 C 61.26 36.95 58.01 36.36 57.30 39.26 Z" />
<path fill="#f8e817" opacity="1.00" d=" M 26.22 34.96 C 26.45 33.84 26.38 31.87 28.04 31.95 C 33.71 31.32 39.43 31.97 45.11 31.73 L 45.70 31.91 C 45.33 33.76 44.97 35.63 44.62 37.49 C 40.29 37.40 35.95 37.42 31.62 37.54 C 31.57 39.62 31.53 41.69 31.48 43.76 C 32.07 43.62 33.26 43.32 33.85 43.17 C 37.41 42.56 41.10 43.42 43.81 45.86 C 46.26 50.60 47.30 57.06 43.47 61.37 C 41.00 64.67 36.65 65.11 32.85 65.18 C 31.07 64.52 29.34 63.73 27.63 62.89 C 25.88 60.74 24.69 58.22 23.58 55.70 C 26.21 55.77 28.86 55.92 31.41 56.60 C 31.05 58.00 31.52 58.89 32.82 59.28 C 35.18 60.34 38.20 59.66 39.14 57.03 C 40.67 54.34 39.55 51.34 38.02 48.95 C 35.76 47.69 33.27 48.09 30.88 48.65 C 28.95 48.83 27.02 48.89 25.09 48.96 C 25.54 44.30 25.64 39.61 26.22 34.96 Z" />
</g>
<g id="#e49211ff">
<path fill="#e49211" opacity="1.00" d=" M 45.70 31.91 C 47.15 33.96 47.42 36.44 47.37 38.88 C 43.29 38.81 39.21 38.81 35.14 38.91 C 34.72 40.33 34.30 41.76 33.85 43.17 C 33.26 43.32 32.07 43.62 31.48 43.76 C 31.53 41.69 31.57 39.62 31.62 37.54 C 35.95 37.42 40.29 37.40 44.62 37.49 C 44.97 35.63 45.33 33.76 45.70 31.91 Z" />
</g>
<g id="#df8a12fe">
<path fill="#df8a12" opacity="1.00" d=" M 89.11 32.33 C 93.14 39.42 93.56 48.08 92.72 56.02 C 90.80 72.64 77.95 87.09 61.93 91.57 C 51.26 94.27 39.18 93.66 29.64 87.79 C 30.33 87.89 31.71 88.08 32.40 88.18 C 40.36 91.03 49.04 92.28 57.32 90.03 C 62.89 88.56 68.35 86.39 73.02 82.97 C 84.80 74.78 91.74 60.33 91.12 46.04 C 90.80 41.43 89.62 36.93 89.11 32.33 Z" />
</g>
<g id="#e08b12ff">
<path fill="#e08b12" opacity="1.00" d=" M 57.30 39.26 C 58.01 36.36 61.26 36.95 63.50 36.65 C 61.77 38.51 59.19 40.14 59.06 42.96 C 58.41 48.39 58.98 53.88 59.37 59.31 C 58.83 58.92 57.77 58.14 57.24 57.75 C 55.93 51.74 55.28 45.16 57.30 39.26 Z" />
<path fill="#e08b12" opacity="1.00" d=" M 71.33 36.48 C 72.66 38.43 73.97 40.53 73.99 42.98 C 74.34 47.98 74.48 53.05 73.87 58.04 C 73.51 61.67 70.46 64.08 67.86 66.25 C 64.82 67.01 61.59 66.85 58.81 65.31 C 63.03 65.23 68.13 64.40 70.10 60.09 C 73.06 53.21 72.30 45.36 71.00 38.16 L 71.33 36.48 Z" />
<path fill="#e08b12" opacity="1.00" d=" M 43.81 45.86 C 49.87 49.75 50.29 59.33 45.13 64.11 C 41.69 67.03 36.78 67.17 32.85 65.18 C 36.65 65.11 41.00 64.67 43.47 61.37 C 47.30 57.06 46.26 50.60 43.81 45.86 Z" />
</g>
<g id="#f8af0eff">
<path fill="#f8af0e" opacity="1.00" d=" M 63.50 36.65 C 64.40 38.66 65.25 40.75 65.18 42.99 C 65.17 47.64 65.52 52.34 64.86 56.96 C 64.55 59.58 61.42 59.64 59.43 60.12 L 59.37 59.31 C 58.98 53.88 58.41 48.39 59.06 42.96 C 59.19 40.14 61.77 38.51 63.50 36.65 Z" />
</g>
<g id="#e49412ff">
<path fill="#e49412" opacity="1.00" d=" M 30.88 48.65 C 33.27 48.09 35.76 47.69 38.02 48.95 C 35.15 50.27 32.05 50.96 28.91 51.20 C 29.55 50.34 30.21 49.49 30.88 48.65 Z" />
</g>
<g id="#e18e13ff">
<path fill="#e18e13" opacity="1.00" d=" M 31.41 56.60 C 32.72 56.98 33.19 57.87 32.82 59.28 C 31.52 58.89 31.05 58.00 31.41 56.60 Z" />
</g>
<g id="#f3af3eff">
<path fill="#f3af3e" opacity="1.00" d=" M 17.93 70.15 C 20.31 71.73 22.43 73.66 24.51 75.61 C 31.43 82.07 41.11 84.09 50.30 84.30 C 51.55 84.68 52.80 85.03 54.07 85.36 C 45.98 87.06 37.61 85.22 30.28 81.67 C 25.43 78.72 20.86 75.10 17.93 70.15 Z" />
</g>
<g id="#fabc0fff">
<path fill="#fabc0f" opacity="1.00" d=" M 30.28 81.67 C 37.61 85.22 45.98 87.06 54.07 85.36 C 54.75 85.23 56.13 84.97 56.82 84.84 C 56.57 85.19 56.07 85.89 55.82 86.24 C 56.30 87.51 56.80 88.78 57.32 90.03 C 49.04 92.28 40.36 91.03 32.40 88.18 C 30.91 87.19 29.46 86.13 28.00 85.10 C 28.76 83.95 29.52 82.81 30.28 81.67 Z" />
</g>
</svg>
