<?xml version="1.0" encoding="UTF-8" ?>
<!DOCTYPE svg PUBLIC "-//W3C//DTD SVG 1.1//EN" "http://www.w3.org/Graphics/SVG/1.1/DTD/svg11.dtd">
<svg width="96pt" height="96pt" viewBox="0 0 96 96" version="1.1" xmlns="http://www.w3.org/2000/svg">
<g id="#eea850ff">
<path fill="#eea850" opacity="1.00" d=" M 40.58 5.74 C 51.79 3.76 63.76 6.38 72.99 13.07 C 84.16 20.91 91.29 34.38 90.94 48.09 C 91.41 64.48 81.05 80.34 66.20 87.08 C 53.36 93.09 37.43 92.23 25.41 84.63 C 14.13 77.72 6.38 65.33 5.29 52.13 C 3.97 39.55 8.71 26.55 17.70 17.67 C 23.87 11.47 31.97 7.26 40.58 5.74 M 23.80 15.99 C 21.95 16.86 20.26 18.21 19.06 19.87 C 9.63 28.55 5.82 42.55 7.95 55.04 C 10.01 68.03 19.06 79.54 30.94 85.05 C 38.42 88.36 46.91 89.72 55.00 88.20 C 68.00 86.04 79.90 77.09 85.03 64.90 C 92.82 48.78 87.93 28.01 74.02 16.84 C 60.23 4.95 37.81 4.10 23.80 15.99 Z" />
</g>
<g id="#fded78ff">
<path fill="#fded78" opacity="1.00" d=" M 23.80 15.99 C 37.81 4.10 60.23 4.95 74.02 16.84 C 87.93 28.01 92.82 48.78 85.03 64.90 C 84.32 64.32 83.59 63.79 82.83 63.29 C 77.82 64.34 72.80 65.43 67.63 65.46 C 66.22 67.84 66.14 71.65 62.89 72.34 C 64.47 69.88 65.04 66.93 64.87 64.04 C 64.85 62.61 63.35 61.73 62.05 61.74 C 52.84 61.76 43.63 61.76 34.43 61.89 C 34.88 61.48 35.79 60.67 36.24 60.26 C 42.79 59.64 49.41 59.96 55.99 59.55 C 49.99 57.14 45.59 52.33 41.31 47.68 C 39.53 45.76 38.98 42.59 36.49 41.44 C 35.52 42.10 34.61 42.84 33.62 43.47 C 33.05 43.37 31.91 43.19 31.33 43.10 C 33.84 42.33 36.09 39.98 35.85 37.22 C 35.73 35.08 34.20 33.33 32.41 32.31 C 30.27 31.64 27.80 32.08 26.23 33.73 C 26.61 31.51 28.60 30.37 30.04 28.88 C 31.27 25.27 29.00 22.05 26.75 19.49 C 29.87 18.52 30.19 23.02 32.67 22.83 C 33.16 19.06 28.66 16.25 25.25 17.53 C 24.89 17.14 24.16 16.37 23.80 15.99 M 61.84 22.40 C 64.03 22.91 63.87 19.53 65.87 19.49 C 68.88 18.62 71.56 21.70 70.88 24.61 C 73.89 25.45 72.73 20.66 71.63 19.40 C 69.02 15.18 61.28 17.34 61.84 22.40 M 60.14 38.93 C 60.95 42.02 64.62 43.58 67.52 42.45 C 69.88 41.44 71.41 38.68 71.06 36.15 C 70.30 34.47 69.18 32.88 67.51 32.01 C 63.50 30.58 58.52 34.77 60.14 38.93 Z" />
</g>
<g id="#fed975ff">
<path fill="#fed975" opacity="1.00" d=" M 19.06 19.87 C 20.26 18.21 21.95 16.86 23.80 15.99 C 24.16 16.37 24.89 17.14 25.25 17.53 C 22.63 18.89 19.82 23.04 23.15 25.20 C 23.43 22.81 24.16 20.29 26.75 19.49 C 29.00 22.05 31.27 25.27 30.04 28.88 C 28.60 30.37 26.61 31.51 26.23 33.73 C 22.36 37.41 26.29 44.06 31.33 43.10 C 31.91 43.19 33.05 43.37 33.62 43.47 C 34.61 42.84 35.52 42.10 36.49 41.44 C 38.98 42.59 39.53 45.76 41.31 47.68 C 45.59 52.33 49.99 57.14 55.99 59.55 C 49.41 59.96 42.79 59.64 36.24 60.26 C 35.79 60.67 34.88 61.48 34.43 61.89 C 30.71 64.26 33.29 69.21 34.62 72.30 C 33.59 72.66 32.89 72.38 32.51 71.45 C 30.65 68.61 31.08 65.07 29.99 61.99 C 22.31 53.35 18.37 41.11 20.64 29.65 C 21.41 26.28 19.92 23.05 19.06 19.87 Z" />
</g>
<g id="#921500ff">
<path fill="#921500" opacity="1.00" d=" M 25.25 17.53 C 28.66 16.25 33.16 19.06 32.67 22.83 C 30.19 23.02 29.87 18.52 26.75 19.49 C 24.16 20.29 23.43 22.81 23.15 25.20 C 19.82 23.04 22.63 18.89 25.25 17.53 Z" />
<path fill="#921500" opacity="1.00" d=" M 61.84 22.40 C 61.28 17.34 69.02 15.18 71.63 19.40 C 72.73 20.66 73.89 25.45 70.88 24.61 C 71.56 21.70 68.88 18.62 65.87 19.49 C 63.87 19.53 64.03 22.91 61.84 22.40 Z" />
</g>
<g id="#ffca73ff">
<path fill="#ffca73" opacity="1.00" d=" M 7.95 55.04 C 5.82 42.55 9.63 28.55 19.06 19.87 C 19.92 23.05 21.41 26.28 20.64 29.65 C 18.37 41.11 22.31 53.35 29.99 61.99 C 31.08 65.07 30.65 68.61 32.51 71.45 C 32.89 72.38 33.59 72.66 34.62 72.30 C 35.13 73.02 35.65 73.73 36.17 74.44 C 36.79 75.30 37.46 76.15 38.36 76.74 C 43.70 81.35 51.82 81.80 57.67 77.87 C 59.10 77.10 60.18 75.86 61.27 74.70 C 61.68 74.11 62.49 72.93 62.89 72.34 C 66.14 71.65 66.22 67.84 67.63 65.46 C 72.80 65.43 77.82 64.34 82.83 63.29 C 83.59 63.79 84.32 64.32 85.03 64.90 C 79.90 77.09 68.00 86.04 55.00 88.20 C 46.91 89.72 38.42 88.36 30.94 85.05 C 19.06 79.54 10.01 68.03 7.95 55.04 Z" />
</g>
<g id="#1f1f1fff">
<path fill="#1f1f1f" opacity="1.00" d=" M 26.23 33.73 C 27.80 32.08 30.27 31.64 32.41 32.31 C 31.44 33.36 29.94 34.00 29.39 35.38 C 29.13 37.36 30.95 39.19 32.90 39.18 C 33.64 38.69 35.11 37.71 35.85 37.22 C 36.09 39.98 33.84 42.33 31.33 43.10 C 26.29 44.06 22.36 37.41 26.23 33.73 Z" />
</g>
<g id="#808080ff">
<path fill="#808080" opacity="1.00" d=" M 32.41 32.31 C 34.20 33.33 35.73 35.08 35.85 37.22 C 35.11 37.71 33.64 38.69 32.90 39.18 C 30.95 39.19 29.13 37.36 29.39 35.38 C 29.94 34.00 31.44 33.36 32.41 32.31 Z" />
</g>
<g id="#16171aff">
<path fill="#16171a" opacity="1.00" d=" M 60.14 38.93 C 58.52 34.77 63.50 30.58 67.51 32.01 C 66.14 32.80 64.62 33.60 63.84 35.04 C 63.24 37.08 65.09 39.03 66.99 39.43 C 68.97 39.41 69.81 37.32 71.06 36.15 C 71.41 38.68 69.88 41.44 67.52 42.45 C 64.62 43.58 60.95 42.02 60.14 38.93 Z" />
</g>
<g id="#818181ff">
<path fill="#818181" opacity="1.00" d=" M 67.51 32.01 C 69.18 32.88 70.30 34.47 71.06 36.15 C 69.81 37.32 68.97 39.41 66.99 39.43 C 65.09 39.03 63.24 37.08 63.84 35.04 C 64.62 33.60 66.14 32.80 67.51 32.01 Z" />
</g>
<g id="#7d180fff">
<path fill="#7d180f" opacity="1.00" d=" M 34.62 72.30 C 33.29 69.21 30.71 64.26 34.43 61.89 C 43.63 61.76 52.84 61.76 62.05 61.74 C 63.35 61.73 64.85 62.61 64.87 64.04 C 65.04 66.93 64.47 69.88 62.89 72.34 C 62.49 72.93 61.68 74.11 61.27 74.70 C 60.29 74.01 59.46 73.13 58.51 72.42 C 52.72 68.18 44.27 68.20 38.45 72.37 C 37.61 72.96 36.92 73.74 36.17 74.44 C 35.65 73.73 35.13 73.02 34.62 72.30 Z" />
</g>
<g id="#fe8274ff">
<path fill="#fe8274" opacity="1.00" d=" M 38.45 72.37 C 44.27 68.20 52.72 68.18 58.51 72.42 C 54.96 72.66 51.56 71.10 47.99 71.45 C 44.75 71.18 41.68 72.78 38.45 72.37 Z" />
</g>
<g id="#e55e3bff">
<path fill="#e55e3b" opacity="1.00" d=" M 36.17 74.44 C 36.92 73.74 37.61 72.96 38.45 72.37 C 41.68 72.78 44.75 71.18 47.99 71.45 C 51.56 71.10 54.96 72.66 58.51 72.42 C 59.46 73.13 60.29 74.01 61.27 74.70 C 60.18 75.86 59.10 77.10 57.67 77.87 C 57.23 77.59 56.36 77.03 55.93 76.75 C 50.08 76.86 44.18 76.35 38.36 76.74 C 37.46 76.15 36.79 75.30 36.17 74.44 Z" />
</g>
<g id="#e1460eff">
<path fill="#e1460e" opacity="1.00" d=" M 38.36 76.74 C 44.18 76.35 50.08 76.86 55.93 76.75 C 56.36 77.03 57.23 77.59 57.67 77.87 C 51.82 81.80 43.70 81.35 38.36 76.74 Z" />
</g>
</svg>
