<?xml version="1.0" encoding="UTF-8" ?>
<!DOCTYPE svg PUBLIC "-//W3C//DTD SVG 1.1//EN" "http://www.w3.org/Graphics/SVG/1.1/DTD/svg11.dtd">
<svg width="96pt" height="96pt" viewBox="0 0 96 96" version="1.1" xmlns="http://www.w3.org/2000/svg">
<g id="#d95b2dff">
<path fill="#d95b2d" opacity="1.00" d=" M 0.00 0.00 L 0.02 0.00 C 0.02 0.03 0.01 0.08 0.00 0.10 L 0.00 0.00 Z" />
<path fill="#d95b2d" opacity="1.00" d=" M 34.22 71.07 C 44.46 70.78 54.72 70.89 64.97 71.01 C 65.02 72.79 65.07 74.56 65.12 76.34 C 54.71 76.19 44.29 76.28 33.87 76.32 C 33.99 74.57 34.11 72.82 34.22 71.07 Z" />
</g>
<g id="#eca855fd">
<path fill="#eca855" opacity="1.00" d=" M 19.93 16.95 C 36.02 1.61 64.02 2.93 78.83 19.43 C 78.50 20.30 78.19 21.17 77.89 22.05 C 66.01 8.29 44.18 4.53 28.60 13.96 C 8.56 24.31 2.62 53.17 16.02 70.96 C 22.86 81.12 34.96 87.00 47.01 87.70 C 60.53 87.83 74.38 80.97 81.21 69.07 C 85.35 63.07 87.75 55.79 86.86 48.47 C 82.73 47.79 75.97 49.45 74.93 43.85 C 78.31 48.66 86.54 49.67 89.76 44.17 C 91.93 62.04 80.79 80.23 64.16 86.87 C 47.31 94.06 26.13 88.70 15.04 74.02 C 1.48 57.51 3.72 30.89 19.93 16.95 Z" />
</g>
<g id="#fde877ff">
<path fill="#fde877" opacity="1.00" d=" M 28.60 13.96 C 44.18 4.53 66.01 8.29 77.89 22.05 C 77.56 23.06 77.23 24.08 76.88 25.08 C 73.33 25.85 69.76 27.18 66.07 26.70 C 62.34 26.20 59.62 23.15 55.95 22.46 C 55.79 23.04 55.47 24.21 55.31 24.80 C 60.64 29.94 68.51 31.58 75.47 29.00 C 74.46 31.67 73.80 34.45 73.54 37.29 C 68.19 37.42 62.83 37.23 57.47 37.47 C 57.47 37.99 57.47 39.04 57.47 39.56 C 60.21 39.65 62.96 39.69 65.71 39.71 C 65.32 43.65 67.93 46.91 72.02 45.67 C 72.79 43.84 72.90 41.87 72.87 39.92 C 72.99 39.65 73.23 39.11 73.36 38.85 C 73.80 40.54 74.30 42.22 74.93 43.85 C 75.97 49.45 82.73 47.79 86.86 48.47 C 87.75 55.79 85.35 63.07 81.21 69.07 C 76.59 70.29 72.15 72.21 68.38 75.19 C 68.20 72.05 70.13 65.49 64.99 66.00 C 53.72 66.06 42.44 65.67 31.18 66.22 C 31.24 65.88 31.37 65.19 31.43 64.85 C 33.24 63.91 35.12 63.09 36.99 62.26 C 31.05 55.42 26.75 47.55 22.37 39.67 C 25.04 39.68 27.71 39.67 30.39 39.67 C 29.23 43.65 32.32 46.74 36.26 45.83 C 37.33 43.99 37.58 41.91 37.43 39.83 C 38.97 39.64 40.51 39.56 42.06 39.45 C 42.02 38.94 41.95 37.94 41.91 37.44 C 35.37 37.25 28.82 37.36 22.28 37.35 C 23.54 35.98 24.95 34.75 26.35 33.52 C 25.68 32.17 25.01 30.82 24.23 29.53 C 31.22 31.64 38.68 29.58 43.95 24.66 C 43.56 23.76 43.17 22.86 42.78 21.96 C 37.10 26.14 30.00 28.38 23.23 25.32 C 27.00 22.68 29.99 18.79 28.60 13.96 Z" />
</g>
<g id="#ffce74ff">
<path fill="#ffce74" opacity="1.00" d=" M 16.02 70.96 C 2.62 53.17 8.56 24.31 28.60 13.96 C 29.99 18.79 27.00 22.68 23.23 25.32 C 22.91 25.73 22.27 26.54 21.95 26.95 C 22.72 27.80 23.51 28.63 24.23 29.53 C 25.01 30.82 25.68 32.17 26.35 33.52 C 24.95 34.75 23.54 35.98 22.28 37.35 C 22.30 37.93 22.34 39.09 22.37 39.67 C 26.75 47.55 31.05 55.42 36.99 62.26 C 35.12 63.09 33.24 63.91 31.43 64.85 C 31.37 65.19 31.24 65.88 31.18 66.22 C 31.25 69.57 28.95 75.80 33.87 76.32 C 44.29 76.28 54.71 76.19 65.12 76.34 C 66.24 76.04 67.32 75.66 68.38 75.19 C 72.15 72.21 76.59 70.29 81.21 69.07 C 74.38 80.97 60.53 87.83 47.01 87.70 C 34.96 87.00 22.86 81.12 16.02 70.96 Z" />
</g>
<g id="#4cb8e5ff">
<path fill="#4cb8e5" opacity="1.00" d=" M 79.90 16.84 C 80.56 16.87 81.21 16.89 81.87 16.91 C 84.90 25.73 93.06 34.40 89.76 44.17 C 86.54 49.67 78.31 48.66 74.93 43.85 C 74.30 42.22 73.80 40.54 73.36 38.85 C 73.40 38.46 73.50 37.68 73.54 37.29 C 73.80 34.45 74.46 31.67 75.47 29.00 C 75.94 27.69 76.42 26.39 76.88 25.08 C 77.23 24.08 77.56 23.06 77.89 22.05 C 78.19 21.17 78.50 20.30 78.83 19.43 C 79.10 18.78 79.63 17.49 79.90 16.84 M 76.58 32.58 L 75.99 32.26 C 75.87 35.87 75.98 39.49 76.48 43.07 C 80.11 40.13 83.36 36.77 86.85 33.67 C 86.54 31.01 85.64 28.47 84.12 26.26 C 83.24 23.70 82.23 21.18 80.96 18.79 C 79.31 23.31 77.62 27.86 76.58 32.58 Z" />
</g>
<g id="#b5dcedff">
<path fill="#b5dced" opacity="1.00" d=" M 76.58 32.58 C 77.62 27.86 79.31 23.31 80.96 18.79 C 82.23 21.18 83.24 23.70 84.12 26.26 C 81.54 28.17 79.35 30.53 77.22 32.92 L 76.58 32.58 Z" />
</g>
<g id="#982e09ff">
<path fill="#982e09" opacity="1.00" d=" M 23.23 25.32 C 30.00 28.38 37.10 26.14 42.78 21.96 C 43.17 22.86 43.56 23.76 43.95 24.66 C 38.68 29.58 31.22 31.64 24.23 29.53 C 23.51 28.63 22.72 27.80 21.95 26.95 C 22.27 26.54 22.91 25.73 23.23 25.32 Z" />
<path fill="#982e09" opacity="1.00" d=" M 55.95 22.46 C 59.62 23.15 62.34 26.20 66.07 26.70 C 69.76 27.18 73.33 25.85 76.88 25.08 C 76.42 26.39 75.94 27.69 75.47 29.00 C 68.51 31.58 60.64 29.94 55.31 24.80 C 55.47 24.21 55.79 23.04 55.95 22.46 Z" />
<path fill="#982e09" opacity="1.00" d=" M 31.18 66.22 C 42.44 65.67 53.72 66.06 64.99 66.00 C 70.13 65.49 68.20 72.05 68.38 75.19 C 67.32 75.66 66.24 76.04 65.12 76.34 C 65.07 74.56 65.02 72.79 64.97 71.01 C 54.72 70.89 44.46 70.78 34.22 71.07 C 34.11 72.82 33.99 74.57 33.87 76.32 C 28.95 75.80 31.25 69.57 31.18 66.22 Z" />
</g>
<g id="#85cce9ff">
<path fill="#85cce9" opacity="1.00" d=" M 77.22 32.92 C 79.35 30.53 81.54 28.17 84.12 26.26 C 85.64 28.47 86.54 31.01 86.85 33.67 C 83.36 36.77 80.11 40.13 76.48 43.07 C 75.98 39.49 75.87 35.87 75.99 32.26 L 76.58 32.58 L 77.22 32.92 Z" />
</g>
<g id="#191819ff">
<path fill="#191819" opacity="1.00" d=" M 22.28 37.35 C 28.82 37.36 35.37 37.25 41.91 37.44 C 41.95 37.94 42.02 38.94 42.06 39.45 C 40.51 39.56 38.97 39.64 37.43 39.83 C 36.75 40.14 35.39 40.75 34.71 41.06 C 35.22 42.65 35.73 44.24 36.26 45.83 C 32.32 46.74 29.23 43.65 30.39 39.67 C 27.71 39.67 25.04 39.68 22.37 39.67 C 22.34 39.09 22.30 37.93 22.28 37.35 Z" />
<path fill="#191819" opacity="1.00" d=" M 57.47 37.47 C 62.83 37.23 68.19 37.42 73.54 37.29 C 73.50 37.68 73.40 38.46 73.36 38.85 C 73.23 39.11 72.99 39.65 72.87 39.92 C 72.32 40.43 71.23 41.44 70.69 41.95 C 71.13 43.19 71.57 44.43 72.02 45.67 C 67.93 46.91 65.32 43.65 65.71 39.71 C 62.96 39.69 60.21 39.65 57.47 39.56 C 57.47 39.04 57.47 37.99 57.47 37.47 Z" />
</g>
<g id="#6a6449ff">
<path fill="#6a6449" opacity="1.00" d=" M 34.71 41.06 C 35.39 40.75 36.75 40.14 37.43 39.83 C 37.58 41.91 37.33 43.99 36.26 45.83 C 35.73 44.24 35.22 42.65 34.71 41.06 Z" />
<path fill="#6a6449" opacity="1.00" d=" M 72.87 39.92 C 72.90 41.87 72.79 43.84 72.02 45.67 C 71.57 44.43 71.13 43.19 70.69 41.95 C 71.23 41.44 72.32 40.43 72.87 39.92 Z" />
</g>
</svg>
