<?xml version="1.0" encoding="UTF-8" ?>
<!DOCTYPE svg PUBLIC "-//W3C//DTD SVG 1.1//EN" "http://www.w3.org/Graphics/SVG/1.1/DTD/svg11.dtd">
<svg width="96pt" height="96pt" viewBox="0 0 96 96" version="1.1" xmlns="http://www.w3.org/2000/svg">
<g id="#ee9d4fff">
<path fill="#ee9d4f" opacity="1.00" d=" M 18.36 17.34 C 24.96 10.71 33.97 7.09 43.04 5.45 C 55.97 4.11 69.35 9.33 78.35 18.65 C 85.92 26.47 89.90 37.25 90.54 48.00 C 89.87 59.92 84.94 71.88 75.80 79.79 C 69.44 85.61 61.18 88.85 52.80 90.47 C 43.87 91.77 34.81 89.23 26.95 85.06 C 15.24 78.54 6.85 66.23 5.50 52.84 C 6.54 53.46 7.60 54.07 8.65 54.68 C 8.38 61.54 12.16 67.63 16.00 73.01 C 23.44 82.25 35.05 88.25 46.98 88.33 C 61.66 88.57 76.49 80.33 83.01 66.97 C 85.11 63.34 86.60 59.33 87.11 55.16 C 81.62 56.11 75.98 56.81 70.54 55.15 C 70.01 53.28 68.16 50.86 70.22 49.28 C 72.73 47.33 76.09 47.22 79.13 46.95 C 82.03 47.55 84.89 48.31 87.83 48.66 C 88.07 37.99 83.79 27.30 76.31 19.69 C 65.99 9.25 49.69 4.92 35.68 9.66 C 32.12 10.78 28.71 12.41 25.60 14.48 C 15.24 20.49 9.16 32.03 7.40 43.60 C 6.88 45.64 7.78 47.56 8.69 49.33 C 7.61 49.94 6.53 50.55 5.46 51.17 C 4.18 38.70 9.25 25.89 18.36 17.34 Z" />
</g>
<g id="#fded78ff">
<path fill="#fded78" opacity="1.00" d=" M 35.68 9.66 C 49.69 4.92 65.99 9.25 76.31 19.69 C 83.79 27.30 88.07 37.99 87.83 48.66 C 84.89 48.31 82.03 47.55 79.13 46.95 C 77.19 46.36 75.21 45.63 73.74 44.16 C 72.93 40.84 75.09 37.57 74.14 34.36 C 71.69 35.26 69.41 36.60 66.89 37.30 C 62.81 38.41 58.63 33.48 54.88 36.20 C 49.97 34.51 44.85 34.67 39.81 35.60 C 38.88 35.57 37.94 35.53 37.01 35.50 C 31.87 27.80 33.11 18.02 35.68 9.66 Z" />
</g>
<g id="#fedb75ff">
<path fill="#fedb75" opacity="1.00" d=" M 25.60 14.48 C 28.71 12.41 32.12 10.78 35.68 9.66 C 33.11 18.02 31.87 27.80 37.01 35.50 C 34.67 36.37 32.37 37.52 29.85 37.75 C 26.45 37.67 23.39 35.99 20.29 34.77 C 21.48 27.88 24.01 21.29 25.60 14.48 Z" />
</g>
<g id="#ffca73ff">
<path fill="#ffca73" opacity="1.00" d=" M 7.40 43.60 C 9.16 32.03 15.24 20.49 25.60 14.48 C 24.01 21.29 21.48 27.88 20.29 34.77 C 20.22 37.32 20.74 39.87 21.64 42.25 C 23.72 42.03 26.34 40.26 27.91 42.48 C 27.25 46.35 23.26 47.09 19.93 47.15 C 16.06 46.98 12.15 47.49 8.69 49.33 C 7.78 47.56 6.88 45.64 7.40 43.60 Z" />
<path fill="#ffca73" opacity="1.00" d=" M 66.50 41.35 C 67.57 40.91 68.68 40.69 69.83 40.69 C 71.21 41.76 72.43 43.02 73.74 44.16 C 75.21 45.63 77.19 46.36 79.13 46.95 C 76.09 47.22 72.73 47.33 70.22 49.28 C 68.16 50.86 70.01 53.28 70.54 55.15 C 64.86 57.80 59.46 61.38 53.12 62.21 C 45.82 63.76 38.38 62.86 31.05 62.21 C 38.08 71.11 50.03 74.73 61.04 74.04 C 68.88 73.77 76.08 70.32 83.01 66.97 C 76.49 80.33 61.66 88.57 46.98 88.33 C 35.05 88.25 23.44 82.25 16.00 73.01 C 12.16 67.63 8.38 61.54 8.65 54.68 C 13.61 57.11 19.23 56.98 24.31 54.98 C 27.67 54.04 30.69 56.06 33.66 57.28 C 40.46 60.30 48.31 60.26 55.41 58.37 C 59.42 57.30 63.33 55.13 65.69 51.62 C 67.16 49.64 65.91 47.20 65.48 45.10 C 65.75 43.83 66.09 42.58 66.50 41.35 M 40.89 77.95 C 40.46 85.87 54.54 86.21 55.35 78.76 C 52.46 79.16 50.30 81.99 47.29 81.65 C 44.93 80.86 43.08 79.07 40.89 77.95 Z" />
</g>
<g id="#a33c0cff">
<path fill="#a33c0c" opacity="1.00" d=" M 66.89 37.30 C 69.41 36.60 71.69 35.26 74.14 34.36 C 75.09 37.57 72.93 40.84 73.74 44.16 C 72.43 43.02 71.21 41.76 69.83 40.69 C 68.68 40.69 67.57 40.91 66.50 41.35 C 66.09 42.58 65.75 43.83 65.48 45.10 C 64.12 43.29 63.04 40.23 60.32 40.45 C 59.29 41.16 58.37 42.02 57.42 42.84 C 57.09 42.67 56.42 42.35 56.08 42.19 C 57.33 40.06 55.94 38.04 54.88 36.20 C 58.63 33.48 62.81 38.41 66.89 37.30 Z" />
<path fill="#a33c0c" opacity="1.00" d=" M 40.89 77.95 C 43.08 79.07 44.93 80.86 47.29 81.65 C 50.30 81.99 52.46 79.16 55.35 78.76 C 54.54 86.21 40.46 85.87 40.89 77.95 Z" />
</g>
<g id="#a33e0dff">
<path fill="#a33e0d" opacity="1.00" d=" M 20.29 34.77 C 23.39 35.99 26.45 37.67 29.85 37.75 C 32.37 37.52 34.67 36.37 37.01 35.50 C 37.94 35.53 38.88 35.57 39.81 35.60 C 39.19 37.52 38.81 39.51 38.87 41.53 C 38.35 41.94 37.83 42.35 37.31 42.76 C 36.50 42.08 35.67 41.43 34.82 40.80 C 32.57 40.77 31.61 43.39 29.65 44.08 C 29.06 43.56 28.48 43.02 27.91 42.48 C 26.34 40.26 23.72 42.03 21.64 42.25 C 20.74 39.87 20.22 37.32 20.29 34.77 Z" />
</g>
<g id="#f5c270ff">
<path fill="#f5c270" opacity="1.00" d=" M 39.81 35.60 C 44.85 34.67 49.97 34.51 54.88 36.20 C 55.94 38.04 57.33 40.06 56.08 42.19 C 50.46 40.73 44.59 40.48 38.87 41.53 C 38.81 39.51 39.19 37.52 39.81 35.60 Z" />
</g>
<g id="#f4b56eff">
<path fill="#f4b56e" opacity="1.00" d=" M 60.32 40.45 C 63.04 40.23 64.12 43.29 65.48 45.10 C 65.91 47.20 67.16 49.64 65.69 51.62 C 63.33 55.13 59.42 57.30 55.41 58.37 C 48.31 60.26 40.46 60.30 33.66 57.28 C 30.69 56.06 27.67 54.04 24.31 54.98 C 24.90 53.50 25.46 51.99 25.75 50.42 C 23.99 49.05 21.96 48.07 19.93 47.15 C 23.26 47.09 27.25 46.35 27.91 42.48 C 28.48 43.02 29.06 43.56 29.65 44.08 C 31.61 43.39 32.57 40.77 34.82 40.80 C 35.67 41.43 36.50 42.08 37.31 42.76 C 35.13 44.95 30.24 47.40 32.92 51.02 C 36.25 55.04 42.01 56.09 46.99 56.02 C 51.17 55.70 55.89 55.06 59.01 51.98 C 61.33 49.03 58.75 45.60 57.42 42.84 C 58.37 42.02 59.29 41.16 60.32 40.45 Z" />
</g>
<g id="#eda26eff">
<path fill="#eda26e" opacity="1.00" d=" M 38.87 41.53 C 44.59 40.48 50.46 40.73 56.08 42.19 C 56.42 42.35 57.09 42.67 57.42 42.84 C 58.75 45.60 61.33 49.03 59.01 51.98 C 55.89 55.06 51.17 55.70 46.99 56.02 C 42.01 56.09 36.25 55.04 32.92 51.02 C 30.24 47.40 35.13 44.95 37.31 42.76 C 37.83 42.35 38.35 41.94 38.87 41.53 Z" />
</g>
<g id="#ef8c46ff">
<path fill="#ef8c46" opacity="1.00" d=" M 8.69 49.33 C 12.15 47.49 16.06 46.98 19.93 47.15 C 21.96 48.07 23.99 49.05 25.75 50.42 C 25.46 51.99 24.90 53.50 24.31 54.98 C 19.23 56.98 13.61 57.11 8.65 54.68 C 7.60 54.07 6.54 53.46 5.50 52.84 C 5.49 52.42 5.47 51.59 5.46 51.17 C 6.53 50.55 7.61 49.94 8.69 49.33 Z" />
</g>
<g id="#feda75ff">
<path fill="#feda75" opacity="1.00" d=" M 53.12 62.21 C 59.46 61.38 64.86 57.80 70.54 55.15 C 75.98 56.81 81.62 56.11 87.11 55.16 C 86.60 59.33 85.11 63.34 83.01 66.97 C 76.08 70.32 68.88 73.77 61.04 74.04 C 50.03 74.73 38.08 71.11 31.05 62.21 C 38.38 62.86 45.82 63.76 53.12 62.21 Z" />
</g>
</svg>
