<?xml version="1.0" encoding="UTF-8" ?>
<!DOCTYPE svg PUBLIC "-//W3C//DTD SVG 1.1//EN" "http://www.w3.org/Graphics/SVG/1.1/DTD/svg11.dtd">
<svg width="96pt" height="96pt" viewBox="0 0 96 96" version="1.1" xmlns="http://www.w3.org/2000/svg">
<path fill="#f2b757" opacity="1.00" d=" M 13.94 21.93 C 25.73 5.82 48.67 0.97 66.61 8.95 L 67.47 9.16 C 76.03 13.78 83.59 21.00 87.07 30.23 C 87.23 32.01 87.74 33.72 88.67 35.25 C 91.90 43.76 91.42 53.61 88.43 62.14 C 88.11 60.46 87.76 58.79 87.42 57.12 C 87.40 52.72 89.15 48.37 87.95 43.98 C 86.59 26.16 71.74 10.48 53.99 8.33 C 45.80 6.61 37.32 8.73 29.77 11.97 C 18.85 16.93 10.61 27.59 8.62 39.41 C 4.15 55.74 12.52 74.46 27.18 82.79 C 40.62 91.34 58.84 90.26 71.55 80.90 C 71.43 80.56 71.20 79.89 71.09 79.56 C 74.12 78.45 77.12 77.27 80.13 76.11 C 72.28 85.89 59.42 91.24 46.96 90.83 C 31.95 90.75 17.47 81.83 10.39 68.64 C 2.20 54.18 3.68 35.00 13.94 21.93 Z" />
<path fill="#fda00f" opacity="1.00" d=" M 66.61 8.95 C 65.90 6.23 69.73 4.67 71.96 5.29 C 79.56 6.70 87.06 11.32 90.60 18.33 C 91.38 23.99 88.24 29.49 88.67 35.25 C 87.74 33.72 87.23 32.01 87.07 30.23 C 87.92 25.01 90.87 18.35 85.53 14.47 C 80.80 10.79 73.19 4.31 67.47 9.16 L 66.61 8.95 Z" />
<path fill="#fee775" opacity="1.00" d=" M 29.77 11.97 C 37.32 8.73 45.80 6.61 53.99 8.33 C 71.74 10.48 86.59 26.16 87.95 43.98 C 89.15 48.37 87.40 52.72 87.42 57.12 C 86.40 54.15 85.94 50.57 83.28 48.53 C 81.12 46.97 78.43 46.67 75.85 46.56 C 81.82 39.97 79.93 28.04 71.47 24.55 C 62.93 20.07 51.47 27.40 51.89 37.00 C 51.57 45.55 60.26 52.10 68.44 50.66 C 69.25 54.17 71.73 56.72 75.21 57.63 C 74.94 59.15 74.72 60.69 74.19 62.15 C 63.29 64.00 52.59 67.98 43.93 75.02 C 44.57 73.68 45.20 72.34 45.66 70.93 C 42.52 68.80 38.83 67.55 35.93 65.06 C 32.04 62.10 29.99 57.32 25.74 54.77 C 26.34 50.25 31.22 51.66 34.32 50.27 C 42.18 47.81 46.76 37.94 42.47 30.62 C 39.24 23.97 30.87 21.65 24.24 24.31 C 29.40 22.25 30.72 17.04 29.77 11.97 M 37.50 62.51 C 40.95 65.91 45.40 63.06 47.93 60.10 C 49.54 61.43 50.48 63.64 52.66 64.25 C 58.02 66.04 63.37 60.25 62.95 55.09 C 59.80 55.52 60.87 60.65 57.62 61.76 C 53.53 64.83 50.63 59.88 47.98 57.68 C 45.42 58.73 44.31 62.59 41.04 61.98 C 37.27 61.69 36.23 57.39 34.90 54.53 C 31.77 56.12 35.59 60.78 37.50 62.51 Z" />
<path fill="#fee775" opacity="1.00" d=" M 67.47 9.16 C 73.19 4.31 80.80 10.79 85.53 14.47 C 90.87 18.35 87.92 25.01 87.07 30.23 C 83.59 21.00 76.03 13.78 67.47 9.16 Z" />
<path fill="#ffcd73" opacity="1.00" d=" M 8.62 39.41 C 10.61 27.59 18.85 16.93 29.77 11.97 C 30.72 17.04 29.40 22.25 24.24 24.31 C 16.06 28.65 13.96 39.98 20.29 46.84 C 16.63 46.79 11.02 48.02 11.31 52.69 C 13.61 58.45 21.39 57.43 25.74 54.77 C 29.99 57.32 32.04 62.10 35.93 65.06 C 38.83 67.55 42.52 68.80 45.66 70.93 C 45.20 72.34 44.57 73.68 43.93 75.02 C 42.42 77.76 41.13 81.26 42.70 84.25 C 44.57 87.29 48.69 87.22 51.76 86.52 C 58.39 84.74 64.55 81.60 71.09 79.56 C 71.20 79.89 71.43 80.56 71.55 80.90 C 58.84 90.26 40.62 91.34 27.18 82.79 C 12.52 74.46 4.15 55.74 8.62 39.41 Z" />
<path fill="#1f1f1f" opacity="1.00" d=" M 24.24 24.31 C 30.87 21.65 39.24 23.97 42.47 30.62 C 46.76 37.94 42.18 47.81 34.32 50.27 C 29.40 50.84 24.20 50.07 20.29 46.84 C 13.96 39.98 16.06 28.65 24.24 24.31 M 26.20 25.12 C 17.99 27.59 14.73 38.90 20.78 45.14 C 26.57 52.36 39.49 49.89 42.11 41.01 C 46.16 31.91 35.47 21.30 26.20 25.12 Z" />
<path fill="#1f1f1f" opacity="1.00" d=" M 51.89 37.00 C 51.47 27.40 62.93 20.07 71.47 24.55 C 79.93 28.04 81.82 39.97 75.85 46.56 C 73.61 48.31 71.11 49.69 68.44 50.66 C 60.26 52.10 51.57 45.55 51.89 37.00 M 61.35 25.21 C 56.69 26.87 53.75 31.34 52.80 36.04 C 52.69 42.71 58.13 49.33 65.04 49.45 C 72.31 50.03 79.06 43.23 78.32 35.96 C 77.71 28.00 68.85 22.30 61.35 25.21 Z" />
<path fill="#ffffff" opacity="1.00" d=" M 26.20 25.12 C 35.47 21.30 46.16 31.91 42.11 41.01 C 39.49 49.89 26.57 52.36 20.78 45.14 C 14.73 38.90 17.99 27.59 26.20 25.12 M 30.34 36.33 C 27.04 40.43 31.91 46.22 36.63 44.65 L 36.47 44.32 C 39.07 43.86 40.76 41.14 40.12 38.58 C 39.30 34.09 32.91 32.27 30.34 36.33 Z" />
<path fill="#ffffff" opacity="1.00" d=" M 61.35 25.21 C 68.85 22.30 77.71 28.00 78.32 35.96 C 79.06 43.23 72.31 50.03 65.04 49.45 C 58.13 49.33 52.69 42.71 52.80 36.04 C 53.75 31.34 56.69 26.87 61.35 25.21 M 65.34 37.38 C 62.79 41.94 68.69 46.99 72.97 44.33 C 75.42 43.34 76.07 40.27 76.29 37.90 L 75.44 38.18 C 74.08 33.64 67.23 32.87 65.34 37.38 Z" />
<path fill="#1f1f1f" opacity="1.00" d=" M 30.34 36.33 C 32.91 32.27 39.30 34.09 40.12 38.58 C 36.98 38.46 33.87 41.52 36.47 44.32 L 36.63 44.65 C 31.91 46.22 27.04 40.43 30.34 36.33 Z" />
<path fill="#1f1f1f" opacity="1.00" d=" M 65.34 37.38 C 67.23 32.87 74.08 33.64 75.44 38.18 C 72.11 38.61 69.37 41.98 72.97 44.33 C 68.69 46.99 62.79 41.94 65.34 37.38 Z" />
<path fill="#777b88" opacity="1.00" d=" M 75.44 38.18 L 76.29 37.90 C 76.07 40.27 75.42 43.34 72.97 44.33 C 69.37 41.98 72.11 38.61 75.44 38.18 Z" />
<path fill="#777b88" opacity="1.00" d=" M 36.47 44.32 C 33.87 41.52 36.98 38.46 40.12 38.58 C 40.76 41.14 39.07 43.86 36.47 44.32 Z" />
<path fill="#ed8a3b" opacity="1.00" d=" M 11.31 52.69 C 11.02 48.02 16.63 46.79 20.29 46.84 C 24.20 50.07 29.40 50.84 34.32 50.27 C 31.22 51.66 26.34 50.25 25.74 54.77 C 21.39 57.43 13.61 58.45 11.31 52.69 Z" />
<path fill="#f09c53" opacity="1.00" d=" M 68.44 50.66 C 71.11 49.69 73.61 48.31 75.85 46.56 C 78.43 46.67 81.12 46.97 83.28 48.53 C 79.08 49.91 75.93 53.20 75.21 57.63 C 71.73 56.72 69.25 54.17 68.44 50.66 Z" />
<path fill="#fda00f" opacity="1.00" d=" M 75.21 57.63 C 75.93 53.20 79.08 49.91 83.28 48.53 C 85.94 50.57 86.40 54.15 87.42 57.12 C 87.76 58.79 88.11 60.46 88.43 62.14 C 88.20 62.60 87.75 63.53 87.52 64.00 C 87.41 64.47 87.18 65.42 87.07 65.90 C 88.08 67.73 86.02 69.67 84.79 70.90 C 83.88 71.26 83.25 71.90 82.88 72.81 C 82.05 73.97 81.34 75.32 80.13 76.11 C 77.12 77.27 74.12 78.45 71.09 79.56 C 64.55 81.60 58.39 84.74 51.76 86.52 C 48.69 87.22 44.57 87.29 42.70 84.25 C 41.13 81.26 42.42 77.76 43.93 75.02 C 52.59 67.98 63.29 64.00 74.19 62.15 C 74.72 60.69 74.94 59.15 75.21 57.63 M 72.93 65.09 C 63.20 66.06 53.98 70.31 46.43 76.43 C 43.85 78.09 43.61 81.63 44.80 84.20 C 51.04 86.68 56.71 82.02 62.49 80.36 C 70.91 77.62 80.82 74.81 85.45 66.56 C 86.17 61.54 85.44 54.99 82.04 51.24 C 74.74 52.89 80.27 64.18 72.93 65.09 Z" />
<path fill="#fee775" opacity="1.00" d=" M 72.93 65.09 C 80.27 64.18 74.74 52.89 82.04 51.24 C 85.44 54.99 86.17 61.54 85.45 66.56 C 80.82 74.81 70.91 77.62 62.49 80.36 C 56.71 82.02 51.04 86.68 44.80 84.20 C 43.61 81.63 43.85 78.09 46.43 76.43 C 53.98 70.31 63.20 66.06 72.93 65.09 Z" />
<path fill="#640705" opacity="1.00" d=" M 37.50 62.51 C 35.59 60.78 31.77 56.12 34.90 54.53 C 36.23 57.39 37.27 61.69 41.04 61.98 C 44.31 62.59 45.42 58.73 47.98 57.68 C 50.63 59.88 53.53 64.83 57.62 61.76 C 60.87 60.65 59.80 55.52 62.95 55.09 C 63.37 60.25 58.02 66.04 52.66 64.25 C 50.48 63.64 49.54 61.43 47.93 60.10 C 45.40 63.06 40.95 65.91 37.50 62.51 Z" />
<path fill="#f2b757" opacity="1.00" d=" M 87.07 65.90 C 87.18 65.42 87.41 64.47 87.52 64.00 C 87.41 64.47 87.18 65.42 87.07 65.90 Z" />
<path fill="#543b18" opacity="0.37" d=" M 82.88 72.81 C 83.25 71.90 83.88 71.26 84.79 70.90 C 85.28 72.65 84.64 73.29 82.88 72.81 Z" />
</svg>
