<?xml version="1.0" encoding="UTF-8" ?>
<!DOCTYPE svg PUBLIC "-//W3C//DTD SVG 1.1//EN" "http://www.w3.org/Graphics/SVG/1.1/DTD/svg11.dtd">
<svg width="96pt" height="96pt" viewBox="0 0 96 96" version="1.1" xmlns="http://www.w3.org/2000/svg">
<g id="#eea34eff">
<path fill="#eea34e" opacity="1.00" d=" M 27.81 10.16 C 40.03 3.59 55.55 3.32 67.78 9.97 C 67.23 10.23 66.13 10.77 65.58 11.04 C 54.51 6.58 41.29 5.80 30.57 11.61 C 29.66 11.11 28.73 10.64 27.81 10.16 Z" />
</g>
<g id="#fded78ff">
<path fill="#fded78" opacity="1.00" d=" M 30.57 11.61 C 41.29 5.80 54.51 6.58 65.58 11.04 C 64.20 11.84 62.75 12.57 61.55 13.64 C 60.27 14.67 62.23 15.92 62.60 16.88 C 64.58 15.69 66.70 14.74 68.72 13.62 C 70.03 16.14 71.35 18.77 73.72 20.48 C 74.15 19.81 75.02 18.48 75.45 17.81 C 87.17 28.72 92.18 46.53 86.36 61.67 C 82.14 61.69 78.11 63.10 73.97 63.69 C 73.27 65.41 72.45 67.10 71.16 68.47 L 70.73 66.91 C 70.91 66.42 71.29 65.44 71.48 64.95 L 70.85 64.23 C 68.78 60.55 64.38 61.07 60.83 60.21 C 55.20 58.46 49.99 55.32 45.98 50.97 C 41.89 46.50 37.75 41.60 36.59 35.46 C 34.66 36.96 32.40 37.85 29.94 37.85 C 30.47 37.49 31.53 36.77 32.06 36.41 C 33.67 35.23 35.70 34.11 36.15 31.99 C 36.73 29.94 35.12 28.26 34.14 26.65 C 31.87 25.90 29.51 26.24 27.22 26.60 L 27.01 26.63 C 29.28 25.10 30.93 22.89 31.47 20.18 C 30.59 18.63 29.85 16.99 29.55 15.22 C 30.50 15.64 32.41 16.48 33.36 16.90 C 33.53 16.17 33.88 14.72 34.05 14.00 C 33.06 12.98 31.78 12.32 30.57 11.61 M 59.28 26.74 C 57.77 28.63 56.48 31.39 58.19 33.60 C 59.76 36.47 64.21 36.80 66.18 34.18 C 68.17 32.32 67.20 29.48 66.38 27.31 C 64.25 26.06 61.55 25.42 59.28 26.74 Z" />
</g>
<g id="#a43f0eff">
<path fill="#a43f0e" opacity="1.00" d=" M 22.16 13.99 C 23.17 12.20 24.49 10.63 25.87 9.11 C 26.35 9.37 27.33 9.90 27.81 10.16 C 28.73 10.64 29.66 11.11 30.57 11.61 C 31.78 12.32 33.06 12.98 34.05 14.00 C 33.88 14.72 33.53 16.17 33.36 16.90 C 32.41 16.48 30.50 15.64 29.55 15.22 C 28.68 14.80 27.81 14.35 26.91 14.00 C 24.94 15.85 23.71 18.38 22.02 20.48 C 21.43 19.95 20.27 18.89 19.69 18.36 C 20.57 16.94 21.36 15.46 22.16 13.99 Z" />
</g>
<g id="#a33e0eff">
<path fill="#a33e0e" opacity="1.00" d=" M 67.78 9.97 C 68.28 9.80 69.28 9.46 69.78 9.30 C 70.75 10.62 71.85 11.84 72.72 13.23 C 73.59 14.78 74.40 16.37 75.45 17.81 C 75.02 18.48 74.15 19.81 73.72 20.48 C 71.35 18.77 70.03 16.14 68.72 13.62 C 66.70 14.74 64.58 15.69 62.60 16.88 C 62.23 15.92 60.27 14.67 61.55 13.64 C 62.75 12.57 64.20 11.84 65.58 11.04 C 66.13 10.77 67.23 10.23 67.78 9.97 Z" />
</g>
<g id="#eea950ff">
<path fill="#eea950" opacity="1.00" d=" M 5.52 54.15 C 3.24 39.12 9.68 22.83 22.16 13.99 C 21.36 15.46 20.57 16.94 19.69 18.36 C 14.48 24.44 9.88 31.30 8.34 39.30 C 5.63 50.94 8.54 63.68 15.89 73.09 C 23.48 82.85 35.67 88.91 48.05 88.86 C 64.82 88.95 81.19 77.76 86.36 61.67 C 92.18 46.53 87.17 28.72 75.45 17.81 C 74.40 16.37 73.59 14.78 72.72 13.23 C 88.92 23.39 95.12 45.75 88.28 63.31 C 83.18 77.14 70.47 87.80 55.95 90.36 C 47.41 91.68 38.40 91.02 30.51 87.33 C 17.24 81.51 7.39 68.54 5.52 54.15 Z" />
</g>
<g id="#fed975ff">
<path fill="#fed975" opacity="1.00" d=" M 22.02 20.48 C 23.71 18.38 24.94 15.85 26.91 14.00 C 27.81 14.35 28.68 14.80 29.55 15.22 C 29.85 16.99 30.59 18.63 31.47 20.18 C 30.93 22.89 29.28 25.10 27.01 26.63 L 27.22 26.60 L 27.82 27.26 C 26.86 28.89 25.51 30.70 26.45 32.67 C 27.13 35.19 29.88 35.81 32.06 36.41 C 31.53 36.77 30.47 37.49 29.94 37.85 C 32.40 37.85 34.66 36.96 36.59 35.46 C 37.75 41.60 41.89 46.50 45.98 50.97 C 49.99 55.32 55.20 58.46 60.83 60.21 C 64.38 61.07 68.78 60.55 70.85 64.23 C 67.24 70.35 59.95 72.58 53.32 73.45 C 44.81 74.37 35.59 73.50 28.29 68.67 C 29.49 67.67 30.85 68.47 32.08 68.81 C 34.71 69.76 37.40 70.56 40.17 70.97 C 37.76 68.58 34.90 66.74 32.39 64.48 C 23.83 56.59 19.22 44.58 20.07 33.00 C 20.72 28.83 21.47 24.67 22.02 20.48 Z" />
</g>
<g id="#ffca73ff">
<path fill="#ffca73" opacity="1.00" d=" M 8.34 39.30 C 9.88 31.30 14.48 24.44 19.69 18.36 C 20.27 18.89 21.43 19.95 22.02 20.48 C 21.47 24.67 20.72 28.83 20.07 33.00 C 19.22 44.58 23.83 56.59 32.39 64.48 C 34.90 66.74 37.76 68.58 40.17 70.97 C 37.40 70.56 34.71 69.76 32.08 68.81 C 30.85 68.47 29.49 67.67 28.29 68.67 C 26.78 67.18 25.40 65.58 23.97 64.03 C 24.35 68.68 28.35 71.83 32.37 73.48 C 41.75 77.33 52.61 77.38 62.09 73.81 C 65.63 72.52 68.79 70.18 70.73 66.91 L 71.16 68.47 C 72.45 67.10 73.27 65.41 73.97 63.69 C 78.11 63.10 82.14 61.69 86.36 61.67 C 81.19 77.76 64.82 88.95 48.05 88.86 C 35.67 88.91 23.48 82.85 15.89 73.09 C 8.54 63.68 5.63 50.94 8.34 39.30 Z" />
</g>
<g id="#858584ff">
<path fill="#858584" opacity="1.00" d=" M 27.22 26.60 C 29.51 26.24 31.87 25.90 34.14 26.65 C 33.63 30.27 29.27 30.14 27.82 27.26 L 27.22 26.60 Z" />
</g>
<g id="#797a84ff">
<path fill="#797a84" opacity="1.00" d=" M 59.28 26.74 C 61.55 25.42 64.25 26.06 66.38 27.31 C 64.36 29.62 60.32 30.46 59.28 26.74 Z" />
</g>
<g id="#1f1f1fff">
<path fill="#1f1f1f" opacity="1.00" d=" M 34.14 26.65 C 35.12 28.26 36.73 29.94 36.15 31.99 C 35.70 34.11 33.67 35.23 32.06 36.41 C 29.88 35.81 27.13 35.19 26.45 32.67 C 25.51 30.70 26.86 28.89 27.82 27.26 C 29.27 30.14 33.63 30.27 34.14 26.65 Z" />
<path fill="#1f1f1f" opacity="1.00" d=" M 58.19 33.60 C 56.48 31.39 57.77 28.63 59.28 26.74 C 60.32 30.46 64.36 29.62 66.38 27.31 C 67.20 29.48 68.17 32.32 66.18 34.18 C 64.21 36.80 59.76 36.47 58.19 33.60 Z" />
</g>
<g id="#640000ff">
<path fill="#640000" opacity="1.00" d=" M 23.97 64.03 C 25.40 65.58 26.78 67.18 28.29 68.67 C 35.59 73.50 44.81 74.37 53.32 73.45 C 59.95 72.58 67.24 70.35 70.85 64.23 L 71.48 64.95 C 71.29 65.44 70.91 66.42 70.73 66.91 C 68.79 70.18 65.63 72.52 62.09 73.81 C 52.61 77.38 41.75 77.33 32.37 73.48 C 28.35 71.83 24.35 68.68 23.97 64.03 Z" />
</g>
</svg>
