<?xml version="1.0" encoding="UTF-8" ?>
<!DOCTYPE svg PUBLIC "-//W3C//DTD SVG 1.1//EN" "http://www.w3.org/Graphics/SVG/1.1/DTD/svg11.dtd">
<svg width="96pt" height="96pt" viewBox="0 0 96 96" version="1.1" xmlns="http://www.w3.org/2000/svg">
<g id="#eea34eff">
<path fill="#eea34e" opacity="1.00" d=" M 29.63 9.26 C 43.13 2.49 60.43 4.08 72.48 13.17 C 72.45 14.19 72.42 15.22 72.41 16.24 C 71.51 15.42 70.60 14.58 69.79 13.66 C 67.34 9.97 62.80 8.51 58.54 8.67 C 50.56 6.80 42.13 7.11 34.31 9.56 C 32.75 9.46 31.19 9.33 29.63 9.26 Z" />
</g>
<g id="#fded78ff">
<path fill="#fded78" opacity="1.00" d=" M 34.31 9.56 C 42.13 7.11 50.56 6.80 58.54 8.67 C 56.94 9.51 55.35 10.36 53.74 11.18 C 54.08 12.43 54.79 13.49 55.79 14.33 C 57.98 13.39 60.52 11.79 62.91 13.06 C 65.12 14.20 67.84 16.81 69.79 13.66 C 70.60 14.58 71.51 15.42 72.41 16.24 C 72.42 19.46 72.43 22.68 72.45 25.89 C 72.16 26.20 71.60 26.80 71.31 27.11 C 71.20 26.87 70.99 26.39 70.88 26.15 C 64.32 26.31 57.73 25.82 51.20 26.37 C 49.17 30.64 55.98 29.27 58.37 29.19 C 57.32 31.12 56.51 33.85 58.60 35.45 C 60.11 37.24 62.62 36.56 64.33 35.50 C 65.91 33.68 65.74 31.25 64.22 29.46 C 66.64 29.23 69.26 29.83 71.45 28.46 C 72.07 29.81 72.51 31.30 73.59 32.36 C 74.72 33.16 76.44 32.26 76.67 30.96 C 77.00 27.46 76.68 23.93 76.87 20.42 C 77.93 21.73 78.79 23.24 78.60 24.99 C 78.55 29.32 78.76 33.66 78.42 37.97 C 76.14 39.96 72.16 39.63 70.63 42.64 C 69.71 44.15 71.31 45.70 72.42 46.57 C 76.94 49.49 82.86 48.80 87.56 46.66 C 89.05 52.11 86.78 57.71 85.28 62.93 C 84.34 62.39 83.54 61.11 82.31 61.44 C 78.11 62.22 73.91 63.05 69.63 63.05 C 69.60 64.36 69.60 65.67 69.62 66.99 C 69.26 66.43 68.54 65.33 68.18 64.78 C 67.19 63.03 65.67 60.29 63.25 61.19 C 60.05 62.94 60.13 67.29 57.56 69.67 C 56.94 65.69 59.59 61.74 62.60 59.34 C 50.27 57.77 41.55 47.20 37.09 36.32 C 34.97 37.60 32.57 38.27 30.08 38.10 C 30.34 37.75 30.86 37.07 31.12 36.72 C 32.66 36.49 34.21 36.20 35.59 35.44 C 37.21 33.48 36.51 31.04 35.61 28.94 C 37.79 28.88 41.93 30.46 42.24 27.09 C 41.92 26.77 41.28 26.14 40.96 25.82 C 34.57 25.54 28.14 25.76 21.74 25.73 C 21.93 25.46 22.32 24.93 22.52 24.66 C 25.80 23.20 26.67 19.09 24.55 16.28 C 24.87 16.08 25.51 15.67 25.83 15.46 C 28.99 12.49 33.58 13.03 36.91 15.38 C 37.37 14.76 38.27 13.53 38.73 12.91 C 37.43 11.58 36.01 10.36 34.31 9.56 Z" />
<path fill="#fded78" opacity="1.00" d=" M 73.73 10.34 C 74.23 10.69 74.76 11.00 75.32 11.25 C 75.11 17.83 74.44 24.38 74.53 30.97 C 74.36 26.66 74.22 22.35 74.42 18.04 C 74.43 15.47 74.81 12.76 73.73 10.34 Z" />
<path fill="#fded78" opacity="1.00" d=" M 83.28 25.63 L 83.54 24.50 L 84.02 26.64 C 83.32 28.46 83.64 30.60 85.37 31.74 C 85.44 34.46 85.49 37.17 85.46 39.89 C 84.92 39.73 83.84 39.41 83.30 39.26 C 83.35 34.93 83.44 30.60 83.27 26.28 L 83.28 25.63 Z" />
</g>
<g id="#a33e0eff">
<path fill="#a33e0e" opacity="1.00" d=" M 22.19 13.71 C 24.09 11.43 26.89 10.17 29.63 9.26 C 31.19 9.33 32.75 9.46 34.31 9.56 C 36.01 10.36 37.43 11.58 38.73 12.91 C 38.27 13.53 37.37 14.76 36.91 15.38 C 33.58 13.03 28.99 12.49 25.83 15.46 C 24.42 15.34 23.21 14.75 22.19 13.71 Z" />
</g>
<g id="#a33c0cff">
<path fill="#a33c0c" opacity="1.00" d=" M 53.74 11.18 C 55.35 10.36 56.94 9.51 58.54 8.67 C 62.80 8.51 67.34 9.97 69.79 13.66 C 67.84 16.81 65.12 14.20 62.91 13.06 C 60.52 11.79 57.98 13.39 55.79 14.33 C 54.79 13.49 54.08 12.43 53.74 11.18 Z" />
</g>
<g id="#17b0f7ff">
<path fill="#17b0f7" opacity="1.00" d=" M 72.48 13.17 C 72.13 11.07 72.70 9.09 74.96 8.56 C 77.95 10.38 76.35 14.10 76.72 16.95 C 76.75 18.10 76.80 19.26 76.87 20.42 C 76.68 23.93 77.00 27.46 76.67 30.96 C 76.44 32.26 74.72 33.16 73.59 32.36 C 72.51 31.30 72.07 29.81 71.45 28.46 C 71.42 28.12 71.35 27.44 71.31 27.11 C 71.60 26.80 72.16 26.20 72.45 25.89 C 72.43 22.68 72.42 19.46 72.41 16.24 C 72.42 15.22 72.45 14.19 72.48 13.17 M 73.73 10.34 C 74.81 12.76 74.43 15.47 74.42 18.04 C 74.22 22.35 74.36 26.66 74.53 30.97 C 74.44 24.38 75.11 17.83 75.32 11.25 C 74.76 11.00 74.23 10.69 73.73 10.34 Z" />
<path fill="#17b0f7" opacity="1.00" d=" M 86.66 8.72 C 87.31 8.99 88.62 9.52 89.27 9.79 C 89.56 20.61 88.61 31.51 89.77 42.29 C 89.90 42.66 90.17 43.42 90.30 43.79 L 90.01 44.03 C 89.08 44.77 88.12 45.47 87.14 46.14 C 86.62 45.52 86.10 44.90 85.57 44.29 C 85.51 42.82 85.47 41.36 85.46 39.89 C 85.49 37.17 85.44 34.46 85.37 31.74 C 85.43 30.38 85.53 29.03 85.63 27.68 C 86.65 21.41 84.65 14.83 86.66 8.72 M 86.75 10.47 C 86.38 19.73 87.35 28.93 87.33 38.17 C 88.79 33.93 88.34 29.40 88.48 25.00 C 88.51 20.17 88.72 15.35 88.62 10.53 L 86.75 10.47 Z" />
</g>
<g id="#1ebbfaff">
<path fill="#1ebbfa" opacity="1.00" d=" M 78.94 10.14 C 80.20 8.73 81.73 8.68 83.20 9.83 C 82.96 15.09 82.91 20.37 83.28 25.63 L 83.27 26.28 L 82.00 25.90 C 82.15 20.80 81.97 15.69 82.00 10.59 C 81.50 10.59 80.50 10.59 80.00 10.60 C 80.01 12.60 80.01 14.61 79.91 16.62 L 79.24 17.62 C 78.87 15.15 78.95 12.64 78.94 10.14 Z" />
</g>
<g id="#0a3c518a">
<path fill="#0a3c51" opacity="0.54" d=" M 85.14 11.92 C 84.86 10.58 85.87 9.60 86.66 8.72 C 84.65 14.83 86.65 21.41 85.63 27.68 C 85.41 27.43 84.95 26.93 84.72 26.67 C 85.44 21.78 85.13 16.84 85.14 11.92 Z" />
</g>
<g id="#04171f60">
<path fill="#04171f" opacity="0.38" d=" M 83.20 9.83 C 84.47 14.53 83.84 19.68 83.54 24.50 L 83.28 25.63 C 82.91 20.37 82.96 15.09 83.20 9.83 Z" />
</g>
<g id="#1175a0d8">
<path fill="#1175a0" opacity="0.85" d=" M 89.27 9.79 C 90.48 10.82 89.73 12.63 89.93 13.99 C 89.79 23.42 90.10 32.86 89.77 42.29 C 88.61 31.51 89.56 20.61 89.27 9.79 Z" />
</g>
<g id="#6ec5ecff">
<path fill="#6ec5ec" opacity="1.00" d=" M 80.00 10.60 C 80.50 10.59 81.50 10.59 82.00 10.59 C 81.97 15.69 82.15 20.80 82.00 25.90 C 81.77 29.95 81.67 34.01 81.33 38.05 C 79.71 31.07 80.62 23.74 79.91 16.62 C 80.01 14.61 80.01 12.60 80.00 10.60 Z" />
</g>
<g id="#98d2ebff">
<path fill="#98d2eb" opacity="1.00" d=" M 86.75 10.47 L 88.62 10.53 C 88.72 15.35 88.51 20.17 88.48 25.00 C 88.34 29.40 88.79 33.93 87.33 38.17 C 87.35 28.93 86.38 19.73 86.75 10.47 Z" />
</g>
<g id="#ffca73ff">
<path fill="#ffca73" opacity="1.00" d=" M 5.51 41.84 C 7.20 30.78 13.21 20.44 22.19 13.71 C 23.21 14.75 24.42 15.34 25.83 15.46 C 25.51 15.67 24.87 16.08 24.55 16.28 C 26.67 19.09 25.80 23.20 22.52 24.66 C 22.32 24.93 21.93 25.46 21.74 25.73 C 21.61 26.18 21.35 27.08 21.22 27.53 C 21.34 27.95 21.60 28.80 21.73 29.23 C 21.37 31.92 21.00 34.63 21.43 37.34 C 20.58 37.87 19.72 38.40 18.87 38.92 C 14.25 38.54 9.36 39.04 5.51 41.84 Z" />
<path fill="#ffca73" opacity="1.00" d=" M 21.82 47.63 C 23.10 47.35 24.35 46.96 25.60 46.58 C 29.04 58.24 39.27 67.59 50.96 70.74 C 47.87 72.06 44.43 71.70 41.15 71.92 C 41.28 72.36 41.52 73.23 41.64 73.67 C 40.71 74.55 39.55 75.46 39.70 76.92 C 41.50 80.85 46.62 80.03 50.13 80.88 C 51.86 79.01 53.61 77.15 55.54 75.49 C 54.78 77.44 53.17 78.89 52.02 80.61 C 54.95 80.62 57.81 79.98 60.50 78.85 L 61.27 78.62 C 65.07 78.89 67.00 75.29 68.60 72.46 C 73.51 72.33 77.53 68.40 82.39 68.82 C 76.26 79.62 64.79 87.23 52.43 88.55 C 38.66 90.35 24.31 84.15 15.89 73.17 C 9.93 65.70 7.20 56.10 7.19 46.63 C 11.81 48.85 16.92 48.51 21.82 47.63 Z" />
</g>
<g id="#ebb265fd">
<path fill="#ebb265" opacity="1.00" d=" M 76.72 16.95 C 77.30 17.40 78.45 18.29 79.03 18.74 C 78.88 24.50 78.94 30.27 78.86 36.03 C 78.75 37.51 79.41 38.87 79.95 40.20 C 77.93 40.78 75.96 41.52 74.02 42.32 C 73.95 48.10 82.66 47.82 85.57 44.29 C 86.10 44.90 86.62 45.52 87.14 46.14 L 87.56 46.66 C 82.86 48.80 76.94 49.49 72.42 46.57 C 71.31 45.70 69.71 44.15 70.63 42.64 C 72.16 39.63 76.14 39.96 78.42 37.97 C 78.76 33.66 78.55 29.32 78.60 24.99 C 78.79 23.24 77.93 21.73 76.87 20.42 C 76.80 19.26 76.75 18.10 76.72 16.95 Z" />
</g>
<g id="#16a3e4fe">
<path fill="#16a3e4" opacity="1.00" d=" M 79.24 17.62 L 79.91 16.62 C 80.62 23.74 79.71 31.07 81.33 38.05 C 81.67 34.01 81.77 29.95 82.00 25.90 L 83.27 26.28 C 83.44 30.60 83.35 34.93 83.30 39.26 C 82.18 39.57 81.06 39.88 79.95 40.20 C 79.41 38.87 78.75 37.51 78.86 36.03 C 78.94 30.27 78.88 24.50 79.03 18.74 L 79.24 17.62 Z" />
</g>
<g id="#191a1cff">
<path fill="#191a1c" opacity="1.00" d=" M 21.22 27.53 C 21.35 27.08 21.61 26.18 21.74 25.73 C 28.14 25.76 34.57 25.54 40.96 25.82 C 41.28 26.14 41.92 26.77 42.24 27.09 C 41.93 30.46 37.79 28.88 35.61 28.94 C 34.68 30.21 33.89 31.57 33.18 32.97 C 33.78 33.59 34.99 34.83 35.59 35.44 C 34.21 36.20 32.66 36.49 31.12 36.72 C 28.22 35.02 27.58 31.51 29.61 28.84 C 26.99 29.13 24.36 29.21 21.73 29.23 C 21.60 28.80 21.34 27.95 21.22 27.53 Z" />
</g>
<g id="#0c0d17ff">
<path fill="#0c0d17" opacity="1.00" d=" M 51.20 26.37 C 57.73 25.82 64.32 26.31 70.88 26.15 C 70.99 26.39 71.20 26.87 71.31 27.11 C 71.35 27.44 71.42 28.12 71.45 28.46 C 69.26 29.83 66.64 29.23 64.22 29.46 C 61.90 31.08 61.97 33.96 64.33 35.50 C 62.62 36.56 60.11 37.24 58.60 35.45 C 56.51 33.85 57.32 31.12 58.37 29.19 C 55.98 29.27 49.17 30.64 51.20 26.37 Z" />
</g>
<g id="#ec973cff">
<path fill="#ec973c" opacity="1.00" d=" M 84.02 26.64 L 84.72 26.67 C 84.95 26.93 85.41 27.43 85.63 27.68 C 85.53 29.03 85.43 30.38 85.37 31.74 C 83.64 30.60 83.32 28.46 84.02 26.64 Z" />
<path fill="#ec973c" opacity="1.00" d=" M 83.30 39.26 C 83.84 39.41 84.92 39.73 85.46 39.89 C 85.47 41.36 85.51 42.82 85.57 44.29 C 82.66 47.82 73.95 48.10 74.02 42.32 C 75.96 41.52 77.93 40.78 79.95 40.20 C 81.06 39.88 82.18 39.57 83.30 39.26 Z" />
</g>
<g id="#fedb75ff">
<path fill="#fedb75" opacity="1.00" d=" M 21.73 29.23 C 24.36 29.21 26.99 29.13 29.61 28.84 C 27.58 31.51 28.22 35.02 31.12 36.72 C 30.86 37.07 30.34 37.75 30.08 38.10 C 32.57 38.27 34.97 37.60 37.09 36.32 C 41.55 47.20 50.27 57.77 62.60 59.34 C 59.59 61.74 56.94 65.69 57.56 69.67 C 53.37 73.79 47.12 73.84 41.64 73.67 C 41.52 73.23 41.28 72.36 41.15 71.92 C 44.43 71.70 47.87 72.06 50.96 70.74 C 39.27 67.59 29.04 58.24 25.60 46.58 C 24.35 46.96 23.10 47.35 21.82 47.63 C 22.73 46.44 23.89 45.38 24.45 43.96 C 24.40 41.00 21.12 39.91 18.87 38.92 C 19.72 38.40 20.58 37.87 21.43 37.34 C 21.00 34.63 21.37 31.92 21.73 29.23 Z" />
</g>
<g id="#95907eff">
<path fill="#95907e" opacity="1.00" d=" M 33.18 32.97 C 33.89 31.57 34.68 30.21 35.61 28.94 C 36.51 31.04 37.21 33.48 35.59 35.44 C 34.99 34.83 33.78 33.59 33.18 32.97 Z" />
</g>
<g id="#838174ff">
<path fill="#838174" opacity="1.00" d=" M 64.33 35.50 C 61.97 33.96 61.90 31.08 64.22 29.46 C 65.74 31.25 65.91 33.68 64.33 35.50 Z" />
</g>
<g id="#f3985dff">
<path fill="#f3985d" opacity="1.00" d=" M 5.51 41.84 C 9.36 39.04 14.25 38.54 18.87 38.92 C 21.12 39.91 24.40 41.00 24.45 43.96 C 23.89 45.38 22.73 46.44 21.82 47.63 C 16.92 48.51 11.81 48.85 7.19 46.63 C 6.67 46.31 5.64 45.65 5.13 45.33 C 5.27 44.17 5.40 43.01 5.51 41.84 M 9.14 43.19 C 10.81 48.08 17.48 47.11 20.93 44.72 C 20.48 43.47 20.22 41.78 18.66 41.47 C 15.51 40.43 11.42 40.40 9.14 43.19 Z" />
</g>
<g id="#ed8639ff">
<path fill="#ed8639" opacity="1.00" d=" M 9.14 43.19 C 11.42 40.40 15.51 40.43 18.66 41.47 C 20.22 41.78 20.48 43.47 20.93 44.72 C 17.48 47.11 10.81 48.08 9.14 43.19 Z" />
</g>
<g id="#eea950ff">
<path fill="#eea950" opacity="1.00" d=" M 87.14 46.14 C 88.12 45.47 89.08 44.77 90.01 44.03 C 92.72 63.91 78.78 84.12 59.56 89.42 C 47.68 92.70 34.32 90.95 24.10 83.89 C 11.50 75.61 4.11 60.34 5.13 45.33 C 5.64 45.65 6.67 46.31 7.19 46.63 C 7.20 56.10 9.93 65.70 15.89 73.17 C 24.31 84.15 38.66 90.35 52.43 88.55 C 64.79 87.23 76.26 79.62 82.39 68.82 C 83.51 66.94 84.47 64.96 85.28 62.93 C 86.78 57.71 89.05 52.11 87.56 46.66 L 87.14 46.14 Z" />
</g>
<g id="#7d180fff">
<path fill="#7d180f" opacity="1.00" d=" M 63.25 61.19 C 65.67 60.29 67.19 63.03 68.18 64.78 C 67.87 67.65 67.38 70.53 66.26 73.22 C 64.13 73.16 61.97 73.11 59.88 73.55 C 58.30 73.86 56.87 74.62 55.54 75.49 C 53.61 77.15 51.86 79.01 50.13 80.88 C 46.62 80.03 41.50 80.85 39.70 76.92 C 39.55 75.46 40.71 74.55 41.64 73.67 C 47.12 73.84 53.37 73.79 57.56 69.67 C 60.13 67.29 60.05 62.94 63.25 61.19 Z" />
</g>
<g id="#feda75ff">
<path fill="#feda75" opacity="1.00" d=" M 82.31 61.44 C 83.54 61.11 84.34 62.39 85.28 62.93 C 84.47 64.96 83.51 66.94 82.39 68.82 C 77.53 68.40 73.51 72.33 68.60 72.46 C 67.00 75.29 65.07 78.89 61.27 78.62 C 63.13 77.01 64.97 75.33 66.26 73.22 C 67.38 70.53 67.87 67.65 68.18 64.78 C 68.54 65.33 69.26 66.43 69.62 66.99 C 69.60 65.67 69.60 64.36 69.63 63.05 C 73.91 63.05 78.11 62.22 82.31 61.44 Z" />
</g>
<g id="#d84617ff">
<path fill="#d84617" opacity="1.00" d=" M 59.88 73.55 C 61.97 73.11 64.13 73.16 66.26 73.22 C 64.97 75.33 63.13 77.01 61.27 78.62 L 60.50 78.85 C 60.45 77.21 60.94 75.65 61.61 74.17 C 61.18 74.02 60.31 73.70 59.88 73.55 Z" />
</g>
<g id="#e45e3bff">
<path fill="#e45e3b" opacity="1.00" d=" M 55.54 75.49 C 56.87 74.62 58.30 73.86 59.88 73.55 C 60.31 73.70 61.18 74.02 61.61 74.17 C 60.94 75.65 60.45 77.21 60.50 78.85 C 57.81 79.98 54.95 80.62 52.02 80.61 C 53.17 78.89 54.78 77.44 55.54 75.49 Z" />
</g>
</svg>
