<?xml version="1.0" encoding="UTF-8" ?>
<!DOCTYPE svg PUBLIC "-//W3C//DTD SVG 1.1//EN" "http://www.w3.org/Graphics/SVG/1.1/DTD/svg11.dtd">
<svg width="96pt" height="96pt" viewBox="0 0 96 96" version="1.1" xmlns="http://www.w3.org/2000/svg">
<g id="#efa952ff">
<path fill="#efa952" opacity="1.00" d=" M 18.15 17.79 C 30.32 5.53 50.44 2.68 65.78 10.42 C 65.13 10.91 64.49 11.40 63.84 11.89 C 54.09 7.67 42.79 7.23 32.81 10.97 C 28.27 12.66 24.23 15.44 20.68 18.71 C 20.04 18.48 18.78 18.02 18.15 17.79 Z" />
<path fill="#efa952" opacity="1.00" d=" M 86.54 49.12 C 87.43 48.45 88.32 47.75 89.19 47.04 C 88.96 50.24 89.35 53.66 88.22 56.70 L 88.20 56.19 C 88.67 53.67 87.40 51.39 86.54 49.12 Z" />
</g>
<g id="#fded78ff">
<path fill="#fded78" opacity="1.00" d=" M 32.81 10.97 C 42.79 7.23 54.09 7.67 63.84 11.89 C 60.89 14.93 56.60 13.99 52.83 14.00 C 51.14 16.82 54.87 17.73 56.96 17.66 C 60.92 18.13 64.49 16.09 67.43 13.67 C 73.57 18.15 80.10 23.31 82.35 30.91 C 80.65 29.61 78.92 28.29 76.91 27.51 C 75.57 27.77 74.32 28.33 73.05 28.81 C 71.26 27.01 69.48 25.19 67.72 23.36 C 68.58 22.78 69.44 22.20 70.30 21.61 C 69.55 21.30 68.77 19.93 67.87 20.73 C 64.30 22.81 60.82 25.16 57.87 28.06 C 57.96 28.43 58.15 29.18 58.25 29.56 C 49.92 29.95 41.29 29.57 33.56 33.31 C 33.00 33.08 31.88 32.64 31.32 32.41 C 33.23 28.82 32.04 24.63 33.25 20.85 C 33.34 20.45 33.52 19.64 33.61 19.24 C 33.35 18.84 32.83 18.03 32.57 17.62 C 31.54 15.49 32.39 13.14 32.81 10.97 Z" />
</g>
<g id="#a33d0dff">
<path fill="#a33d0d" opacity="1.00" d=" M 65.78 10.42 C 66.97 8.37 70.75 9.86 68.86 12.12 C 68.50 12.50 67.79 13.28 67.43 13.67 C 64.49 16.09 60.92 18.13 56.96 17.66 C 54.87 17.73 51.14 16.82 52.83 14.00 C 56.60 13.99 60.89 14.93 63.84 11.89 C 64.49 11.40 65.13 10.91 65.78 10.42 Z" />
</g>
<g id="#fed875ff">
<path fill="#fed875" opacity="1.00" d=" M 20.68 18.71 C 24.23 15.44 28.27 12.66 32.81 10.97 C 32.39 13.14 31.54 15.49 32.57 17.62 C 28.86 19.36 24.58 20.87 20.68 18.71 Z" />
</g>
<g id="#f0ac53ff">
<path fill="#f0ac53" opacity="1.00" d=" M 68.86 12.12 C 79.53 18.47 87.05 29.71 88.78 42.01 C 87.47 37.88 84.97 34.30 82.35 30.91 C 80.10 23.31 73.57 18.15 67.43 13.67 C 67.79 13.28 68.50 12.50 68.86 12.12 Z" />
<path fill="#f0ac53" opacity="1.00" d=" M 79.27 70.04 C 79.50 71.14 79.74 72.25 80.00 73.35 L 80.29 73.72 L 80.51 73.99 C 74.64 80.83 67.02 86.37 58.18 88.59 C 52.73 90.23 46.98 89.95 41.37 89.82 L 41.41 89.29 C 41.44 88.82 41.50 87.90 41.53 87.43 C 50.62 88.47 60.13 86.91 67.92 81.94 C 72.52 78.95 77.43 75.47 79.27 70.04 Z" />
</g>
<g id="#a43e0eff">
<path fill="#a43e0e" opacity="1.00" d=" M 15.68 20.13 C 16.39 19.27 16.67 17.52 18.15 17.79 C 18.78 18.02 20.04 18.48 20.68 18.71 C 24.58 20.87 28.86 19.36 32.57 17.62 C 32.83 18.03 33.35 18.84 33.61 19.24 C 33.52 19.64 33.34 20.45 33.25 20.85 C 30.13 23.03 26.28 23.86 22.53 23.28 C 20.95 22.68 19.40 22.02 17.88 21.30 C 17.14 20.92 16.40 20.53 15.68 20.13 Z" />
</g>
<g id="#efab53ff">
<path fill="#efab53" opacity="1.00" d=" M 15.68 20.13 C 16.40 20.53 17.14 20.92 17.88 21.30 C 9.14 30.35 5.65 43.75 8.14 56.00 C 9.21 62.75 12.91 68.57 16.68 74.12 C 16.52 75.39 17.02 77.13 18.61 77.05 C 19.20 77.14 20.39 77.32 20.99 77.41 C 21.07 77.08 21.23 76.43 21.31 76.10 C 21.82 78.26 22.43 80.39 23.02 82.53 C 20.92 80.95 18.90 79.27 17.08 77.37 C 16.95 77.24 16.69 76.98 16.56 76.84 C 10.35 70.44 6.43 61.93 5.41 53.09 C 3.87 41.28 7.84 29.04 15.68 20.13 Z" />
</g>
<g id="#343934ff">
<path fill="#343934" opacity="1.00" d=" M 67.87 20.73 C 68.77 19.93 69.55 21.30 70.30 21.61 C 69.44 22.20 68.58 22.78 67.72 23.36 C 67.34 23.61 66.60 24.11 66.23 24.36 C 64.58 25.51 62.96 26.72 61.35 27.92 C 64.25 28.97 67.13 30.09 69.83 31.57 C 68.99 31.67 67.30 31.89 66.45 31.99 C 65.74 31.90 64.33 31.71 63.62 31.62 C 61.88 30.81 60.08 30.13 58.25 29.56 C 58.15 29.18 57.96 28.43 57.87 28.06 C 60.82 25.16 64.30 22.81 67.87 20.73 Z" />
</g>
<g id="#fedb76ff">
<path fill="#fedb76" opacity="1.00" d=" M 22.53 23.28 C 26.28 23.86 30.13 23.03 33.25 20.85 C 32.04 24.63 33.23 28.82 31.32 32.41 C 27.79 31.03 24.14 29.99 20.52 28.85 C 21.38 27.07 21.95 25.17 22.53 23.28 Z" />
</g>
<g id="#ffca73ff">
<path fill="#ffca73" opacity="1.00" d=" M 8.14 56.00 C 5.65 43.75 9.14 30.35 17.88 21.30 C 19.40 22.02 20.95 22.68 22.53 23.28 C 21.95 25.17 21.38 27.07 20.52 28.85 C 20.15 29.23 19.41 29.99 19.04 30.36 C 19.89 30.77 20.74 31.19 21.61 31.56 C 17.85 46.12 17.79 61.49 21.31 76.10 C 21.23 76.43 21.07 77.08 20.99 77.41 C 20.39 77.32 19.20 77.14 18.61 77.05 C 20.74 75.62 18.85 72.87 16.68 74.12 C 12.91 68.57 9.21 62.75 8.14 56.00 Z" />
</g>
<g id="#509773ff">
<path fill="#509773" opacity="1.00" d=" M 66.23 24.36 C 66.60 24.11 67.34 23.61 67.72 23.36 C 69.48 25.19 71.26 27.01 73.05 28.81 C 74.32 28.33 75.57 27.77 76.91 27.51 C 78.92 28.29 80.65 29.61 82.35 30.91 C 84.97 34.30 87.47 37.88 88.78 42.01 C 89.05 43.60 90.64 45.64 89.19 47.04 C 88.32 47.75 87.43 48.45 86.54 49.12 C 86.14 49.40 85.35 49.97 84.96 50.26 C 82.30 52.14 79.56 53.91 77.03 55.98 C 76.71 56.35 76.05 57.09 75.73 57.47 C 74.91 57.42 73.27 57.33 72.46 57.28 C 76.07 53.07 81.01 50.39 85.00 46.58 C 81.20 45.64 77.35 44.08 73.38 44.57 C 69.65 45.52 66.18 47.26 62.80 49.06 C 64.09 46.43 63.86 43.61 62.20 41.22 C 67.32 38.67 71.47 34.45 76.75 32.25 C 80.16 33.63 82.34 36.84 85.12 39.11 C 83.35 34.99 80.57 31.44 77.05 28.70 C 70.84 32.59 64.59 36.49 58.93 41.17 L 57.84 41.17 C 58.15 40.76 58.78 39.93 59.09 39.52 C 59.40 39.20 60.01 38.56 60.32 38.24 C 61.91 36.89 63.56 35.62 65.22 34.36 C 66.26 33.84 66.66 33.05 66.45 31.99 C 67.30 31.89 68.99 31.67 69.83 31.57 C 70.53 31.07 71.22 30.56 71.90 30.04 C 70.03 28.13 68.15 26.22 66.23 24.36 Z" />
</g>
<g id="#e7eff1ff">
<path fill="#e7eff1" opacity="1.00" d=" M 61.35 27.92 C 62.96 26.72 64.58 25.51 66.23 24.36 C 68.15 26.22 70.03 28.13 71.90 30.04 C 71.22 30.56 70.53 31.07 69.83 31.57 C 67.13 30.09 64.25 28.97 61.35 27.92 Z" />
</g>
<g id="#37352eff">
<path fill="#37352e" opacity="1.00" d=" M 19.04 30.36 C 19.41 29.99 20.15 29.23 20.52 28.85 C 24.14 29.99 27.79 31.03 31.32 32.41 C 31.88 32.64 33.00 33.08 33.56 33.31 C 32.33 34.55 31.08 35.79 29.71 36.87 C 29.28 37.22 28.42 37.90 27.99 38.25 C 26.53 39.29 25.12 40.58 23.31 40.94 C 23.30 40.24 23.31 39.53 23.33 38.83 C 25.34 37.26 27.39 35.73 29.28 34.02 C 27.30 33.36 25.30 32.75 23.31 32.13 L 21.61 31.56 C 20.74 31.19 19.89 30.77 19.04 30.36 Z" />
</g>
<g id="#79d885ff">
<path fill="#79d885" opacity="1.00" d=" M 58.93 41.17 C 64.59 36.49 70.84 32.59 77.05 28.70 C 80.57 31.44 83.35 34.99 85.12 39.11 C 82.34 36.84 80.16 33.63 76.75 32.25 C 71.47 34.45 67.32 38.67 62.20 41.22 C 61.38 41.20 59.75 41.18 58.93 41.17 Z" />
</g>
<g id="#f7c16cff">
<path fill="#f7c16c" opacity="1.00" d=" M 33.56 33.31 C 41.29 29.57 49.92 29.95 58.25 29.56 C 60.08 30.13 61.88 30.81 63.62 31.62 C 64.02 32.31 64.82 33.68 65.22 34.36 C 63.56 35.62 61.91 36.89 60.32 38.24 C 57.89 33.31 52.02 32.10 47.00 32.72 C 42.53 33.31 37.78 34.31 34.24 37.29 C 31.81 39.30 31.13 44.00 34.33 45.63 C 39.58 48.66 46.23 48.04 51.67 45.83 C 51.51 46.90 51.36 47.96 51.21 49.03 C 44.14 50.86 36.71 50.58 29.84 48.10 C 29.31 44.38 29.34 40.61 29.71 36.87 C 31.08 35.79 32.33 34.55 33.56 33.31 Z" />
</g>
<g id="#3eb0ddfd">
<path fill="#3eb0dd" opacity="1.00" d=" M 21.61 31.56 L 23.31 32.13 C 23.07 33.33 22.83 34.54 22.58 35.75 C 21.26 41.26 20.68 46.91 20.51 52.56 C 20.48 55.54 20.64 58.52 20.88 61.49 C 21.10 63.83 21.38 66.18 21.75 68.50 C 22.11 70.69 22.53 72.88 23.09 75.02 C 23.62 77.04 24.21 79.04 24.67 81.07 C 24.82 81.82 25.11 83.31 25.26 84.05 C 24.51 83.54 23.77 83.03 23.02 82.53 C 22.43 80.39 21.82 78.26 21.31 76.10 C 17.79 61.49 17.85 46.12 21.61 31.56 Z" />
</g>
<g id="#e9eff1ff">
<path fill="#e9eff1" opacity="1.00" d=" M 23.31 32.13 C 25.30 32.75 27.30 33.36 29.28 34.02 C 27.39 35.73 25.34 37.26 23.33 38.83 C 23.14 38.06 22.77 36.52 22.58 35.75 C 22.83 34.54 23.07 33.33 23.31 32.13 Z" />
</g>
<g id="#4bacd4ff">
<path fill="#4bacd4" opacity="1.00" d=" M 63.62 31.62 C 64.33 31.71 65.74 31.90 66.45 31.99 C 66.66 33.05 66.26 33.84 65.22 34.36 C 64.82 33.68 64.02 32.31 63.62 31.62 Z" />
</g>
<g id="#ec976aff">
<path fill="#ec976a" opacity="1.00" d=" M 34.24 37.29 C 37.78 34.31 42.53 33.31 47.00 32.72 C 52.02 32.10 57.89 33.31 60.32 38.24 C 60.01 38.56 59.40 39.20 59.09 39.52 C 56.88 41.91 54.39 44.04 51.67 45.83 C 46.23 48.04 39.58 48.66 34.33 45.63 C 31.13 44.00 31.81 39.30 34.24 37.29 M 36.69 41.02 C 40.96 47.82 51.72 45.22 55.29 39.00 C 54.27 37.91 53.56 36.31 51.98 35.93 C 46.45 34.54 39.84 35.87 36.69 41.02 Z" />
</g>
<g id="#c1e1eeff">
<path fill="#c1e1ee" opacity="1.00" d=" M 20.51 52.56 C 20.68 46.91 21.26 41.26 22.58 35.75 C 22.77 36.52 23.14 38.06 23.33 38.83 C 23.31 39.53 23.30 40.24 23.31 40.94 C 25.12 40.58 26.53 39.29 27.99 38.25 C 27.50 42.93 27.78 47.66 28.56 52.30 C 25.88 51.91 23.09 51.49 20.51 52.56 Z" />
</g>
<g id="#e27568ff">
<path fill="#e27568" opacity="1.00" d=" M 36.69 41.02 C 39.84 35.87 46.45 34.54 51.98 35.93 C 53.56 36.31 54.27 37.91 55.29 39.00 C 51.72 45.22 40.96 47.82 36.69 41.02 Z" />
</g>
<g id="#3daed8ff">
<path fill="#3daed8" opacity="1.00" d=" M 27.99 38.25 C 28.42 37.90 29.28 37.22 29.71 36.87 C 29.34 40.61 29.31 44.38 29.84 48.10 C 30.25 51.00 30.76 53.89 31.39 56.75 C 33.60 67.32 37.11 77.59 41.53 87.43 C 41.50 87.90 41.44 88.82 41.41 89.29 C 40.00 89.40 38.59 89.34 37.19 89.11 L 37.36 88.87 C 37.77 88.32 38.58 87.22 38.99 86.67 C 38.47 85.23 37.97 83.79 37.42 82.36 C 36.33 79.54 35.19 76.74 34.19 73.89 C 33.60 71.94 32.95 70.01 32.37 68.06 C 31.66 65.42 30.91 62.79 30.25 60.13 C 29.67 57.52 29.04 54.93 28.56 52.30 C 27.78 47.66 27.50 42.93 27.99 38.25 Z" />
</g>
<g id="#eca828ff">
<path fill="#eca828" opacity="1.00" d=" M 51.67 45.83 C 54.39 44.04 56.88 41.91 59.09 39.52 C 58.78 39.93 58.15 40.76 57.84 41.17 L 58.93 41.17 C 59.75 41.18 61.38 41.20 62.20 41.22 C 63.86 43.61 64.09 46.43 62.80 49.06 C 60.44 51.47 57.46 53.13 53.99 52.99 C 53.06 51.67 52.14 50.35 51.21 49.03 C 51.36 47.96 51.51 46.90 51.67 45.83 M 53.13 46.99 C 52.16 49.31 54.69 51.92 57.03 51.16 C 60.45 50.23 62.94 46.52 61.99 42.98 C 58.57 42.57 55.14 44.24 53.13 46.99 Z" />
</g>
<g id="#ffe06eff">
<path fill="#ffe06e" opacity="1.00" d=" M 53.13 46.99 C 55.14 44.24 58.57 42.57 61.99 42.98 C 62.94 46.52 60.45 50.23 57.03 51.16 C 54.69 51.92 52.16 49.31 53.13 46.99 Z" />
</g>
<g id="#3c835fff">
<path fill="#3c835f" opacity="1.00" d=" M 73.38 44.57 C 77.35 44.08 81.20 45.64 85.00 46.58 C 81.01 50.39 76.07 53.07 72.46 57.28 C 70.72 56.99 69.00 56.59 67.28 56.23 C 67.02 55.06 66.76 53.88 66.51 52.70 C 62.66 51.91 58.81 53.95 58.25 58.02 C 57.01 57.75 55.78 57.47 54.57 57.11 C 55.31 55.82 56.04 54.53 56.78 53.24 C 55.42 53.15 54.05 53.05 52.69 52.96 L 53.99 52.99 C 57.46 53.13 60.44 51.47 62.80 49.06 C 66.18 47.26 69.65 45.52 73.38 44.57 Z" />
</g>
<g id="#fede76ff">
<path fill="#fede76" opacity="1.00" d=" M 29.84 48.10 C 36.71 50.58 44.14 50.86 51.21 49.03 C 52.14 50.35 53.06 51.67 53.99 52.99 L 52.69 52.96 L 52.21 52.93 C 47.90 51.65 43.11 54.15 42.38 58.75 C 44.82 56.90 47.06 53.09 50.64 54.26 C 53.55 56.43 50.92 59.77 49.49 61.94 C 51.51 61.98 55.80 61.31 55.01 64.67 C 52.79 65.45 50.61 66.33 48.36 66.98 C 51.66 67.79 55.21 67.23 57.12 64.18 C 56.69 63.28 56.26 62.39 55.83 61.49 C 57.09 60.57 58.36 59.65 59.63 58.74 C 60.44 59.21 61.24 59.69 62.03 60.18 C 64.13 58.09 65.72 55.57 66.51 52.70 C 66.76 53.88 67.02 55.06 67.28 56.23 C 69.00 56.59 70.72 56.99 72.46 57.28 C 73.27 57.33 74.91 57.42 75.73 57.47 C 76.27 59.63 76.96 61.75 77.61 63.88 C 77.32 64.60 76.75 66.04 76.47 66.76 C 67.92 69.28 58.98 68.68 50.19 68.65 C 42.91 66.41 37.95 60.25 31.39 56.75 C 30.76 53.89 30.25 51.00 29.84 48.10 Z" />
</g>
<g id="#2baae1ff">
<path fill="#2baae1" opacity="1.00" d=" M 84.96 50.26 C 85.35 49.97 86.14 49.40 86.54 49.12 C 87.40 51.39 88.67 53.67 88.20 56.19 L 88.09 56.30 C 86.82 54.41 85.82 52.36 84.96 50.26 Z" />
</g>
<g id="#9ed5ebff">
<path fill="#9ed5eb" opacity="1.00" d=" M 20.51 52.56 C 23.09 51.49 25.88 51.91 28.56 52.30 C 29.04 54.93 29.67 57.52 30.25 60.13 C 30.04 60.44 29.61 61.05 29.40 61.35 C 26.56 61.44 23.72 61.34 20.88 61.49 C 20.64 58.52 20.48 55.54 20.51 52.56 Z" />
</g>
<g id="#6dc3e7ff">
<path fill="#6dc3e7" opacity="1.00" d=" M 77.03 55.98 C 79.56 53.91 82.30 52.14 84.96 50.26 C 85.82 52.36 86.82 54.41 88.09 56.30 C 85.10 58.81 82.68 61.87 80.28 64.92 C 79.35 61.89 78.15 58.94 77.03 55.98 Z" />
</g>
<g id="#8d3620ff">
<path fill="#8d3620" opacity="1.00" d=" M 42.38 58.75 C 43.11 54.15 47.90 51.65 52.21 52.93 C 53.36 55.16 53.38 57.65 53.08 60.09 C 53.99 60.56 54.91 61.03 55.83 61.49 C 56.26 62.39 56.69 63.28 57.12 64.18 C 55.21 67.23 51.66 67.79 48.36 66.98 C 50.61 66.33 52.79 65.45 55.01 64.67 C 55.80 61.31 51.51 61.98 49.49 61.94 C 50.92 59.77 53.55 56.43 50.64 54.26 C 47.06 53.09 44.82 56.90 42.38 58.75 Z" />
</g>
<g id="#56936fff">
<path fill="#56936f" opacity="1.00" d=" M 52.21 52.93 L 52.69 52.96 C 54.05 53.05 55.42 53.15 56.78 53.24 C 56.04 54.53 55.31 55.82 54.57 57.11 C 55.78 57.47 57.01 57.75 58.25 58.02 L 59.63 58.74 C 58.36 59.65 57.09 60.57 55.83 61.49 C 54.91 61.03 53.99 60.56 53.08 60.09 C 53.38 57.65 53.36 55.16 52.21 52.93 Z" />
</g>
<g id="#ffe372ff">
<path fill="#ffe372" opacity="1.00" d=" M 58.25 58.02 C 58.81 53.95 62.66 51.91 66.51 52.70 C 65.72 55.57 64.13 58.09 62.03 60.18 C 61.24 59.69 60.44 59.21 59.63 58.74 L 58.25 58.02 Z" />
</g>
<g id="#46b5e4ff">
<path fill="#46b5e4" opacity="1.00" d=" M 75.73 57.47 C 76.05 57.09 76.71 56.35 77.03 55.98 C 78.15 58.94 79.35 61.89 80.28 64.92 C 80.81 67.30 81.10 69.72 81.40 72.13 C 82.45 73.08 83.78 73.78 84.62 74.94 C 84.61 76.93 82.50 76.88 81.16 76.17 L 81.75 75.08 C 81.39 74.74 80.66 74.06 80.29 73.72 L 80.00 73.35 C 79.74 72.25 79.50 71.14 79.27 70.04 C 78.80 67.96 78.20 65.92 77.61 63.88 C 76.96 61.75 76.27 59.63 75.73 57.47 Z" />
<path fill="#46b5e4" opacity="1.00" d=" M 24.67 81.07 C 28.92 81.56 33.16 82.01 37.42 82.36 C 37.97 83.79 38.47 85.23 38.99 86.67 C 38.58 87.22 37.77 88.32 37.36 88.87 C 33.09 87.95 29.05 86.20 25.26 84.05 C 25.11 83.31 24.82 81.82 24.67 81.07 Z" />
</g>
<g id="#55bbe6ff">
<path fill="#55bbe6" opacity="1.00" d=" M 88.09 56.30 L 88.20 56.19 L 88.22 56.70 C 88.10 57.23 87.86 58.28 87.74 58.81 C 87.56 59.31 87.19 60.30 87.01 60.80 C 86.20 64.97 83.89 68.74 81.40 72.13 C 81.10 69.72 80.81 67.30 80.28 64.92 C 82.68 61.87 85.10 58.81 88.09 56.30 Z" />
</g>
<g id="#ffcd74ff">
<path fill="#ffcd74" opacity="1.00" d=" M 31.39 56.75 C 37.95 60.25 42.91 66.41 50.19 68.65 C 58.98 68.68 67.92 69.28 76.47 66.76 C 76.75 66.04 77.32 64.60 77.61 63.88 C 78.20 65.92 78.80 67.96 79.27 70.04 C 77.43 75.47 72.52 78.95 67.92 81.94 C 60.13 86.91 50.62 88.47 41.53 87.43 C 37.11 77.59 33.60 67.32 31.39 56.75 Z" />
</g>
<g id="#54594b80">
<path fill="#54594b" opacity="0.50" d=" M 87.01 60.80 C 87.19 60.30 87.56 59.31 87.74 58.81 L 88.27 59.56 L 87.90 60.59 L 87.01 60.80 Z" />
</g>
<g id="#84cbe9ff">
<path fill="#84cbe9" opacity="1.00" d=" M 30.25 60.13 C 30.91 62.79 31.66 65.42 32.37 68.06 C 32.13 68.42 31.65 69.13 31.41 69.49 C 28.18 69.29 24.97 68.80 21.75 68.50 C 21.38 66.18 21.10 63.83 20.88 61.49 C 23.72 61.34 26.56 61.44 29.40 61.35 C 29.61 61.05 30.04 60.44 30.25 60.13 Z" />
</g>
<g id="#6cc3e7ff">
<path fill="#6cc3e7" opacity="1.00" d=" M 21.75 68.50 C 24.97 68.80 28.18 69.29 31.41 69.49 C 31.65 69.13 32.13 68.42 32.37 68.06 C 32.95 70.01 33.60 71.94 34.19 73.89 C 34.03 74.38 33.70 75.35 33.54 75.84 C 30.04 75.90 26.55 75.55 23.09 75.02 C 22.53 72.88 22.11 70.69 21.75 68.50 Z" />
</g>
<g id="#25779aad">
<path fill="#25779a" opacity="0.68" d=" M 85.94 71.34 C 87.25 69.04 88.99 70.50 90.21 71.96 C 89.78 73.96 86.33 75.82 85.87 72.88 C 88.75 74.37 88.95 70.37 85.94 71.34 Z" />
</g>
<g id="#80c9e9ff">
<path fill="#80c9e9" opacity="1.00" d=" M 85.94 71.34 C 88.95 70.37 88.75 74.37 85.87 72.88 L 85.51 72.08 L 85.94 71.34 Z" />
</g>
<g id="#61b8d4ff">
<path fill="#61b8d4" opacity="1.00" d=" M 16.68 74.12 C 18.85 72.87 20.74 75.62 18.61 77.05 C 17.02 77.13 16.52 75.39 16.68 74.12 Z" />
</g>
<g id="#58bce6ff">
<path fill="#58bce6" opacity="1.00" d=" M 34.19 73.89 C 35.19 76.74 36.33 79.54 37.42 82.36 C 33.16 82.01 28.92 81.56 24.67 81.07 C 24.21 79.04 23.62 77.04 23.09 75.02 C 26.55 75.55 30.04 75.90 33.54 75.84 C 33.70 75.35 34.03 74.38 34.19 73.89 Z" />
</g>
<g id="#1f759aad">
<path fill="#1f759a" opacity="0.68" d=" M 13.24 80.74 C 11.60 78.47 14.25 76.22 16.56 76.84 C 16.69 76.98 16.95 77.24 17.08 77.37 C 17.99 79.79 15.56 82.55 13.24 80.74 M 13.94 78.39 C 13.42 80.02 13.97 80.56 15.58 80.00 C 16.12 78.35 15.57 77.81 13.94 78.39 Z" />
</g>
<g id="#88cdeaff">
<path fill="#88cdea" opacity="1.00" d=" M 13.94 78.39 C 15.57 77.81 16.12 78.35 15.58 80.00 C 13.97 80.56 13.42 80.02 13.94 78.39 Z" />
</g>
</svg>
