<?xml version="1.0" encoding="UTF-8" ?>
<!DOCTYPE svg PUBLIC "-//W3C//DTD SVG 1.1//EN" "http://www.w3.org/Graphics/SVG/1.1/DTD/svg11.dtd">
<svg width="96pt" height="96pt" viewBox="0 0 96 96" version="1.1" xmlns="http://www.w3.org/2000/svg">
<path fill="#e13d5f" opacity="1.00" d=" M 4.64 20.93 C 6.19 13.22 12.51 6.84 20.09 4.93 C 26.92 3.44 34.67 5.26 39.56 10.41 C 41.44 12.27 43.37 14.09 45.03 16.15 C 44.68 16.37 43.98 16.82 43.63 17.04 C 41.03 15.20 39.20 12.08 35.88 11.44 C 31.31 9.34 26.22 8.07 21.24 9.43 C 21.04 10.80 21.13 12.64 22.55 13.32 C 24.52 13.78 26.56 13.86 28.50 14.44 C 29.68 15.53 30.60 16.87 31.57 18.15 C 31.85 19.71 32.27 21.27 32.25 22.87 C 29.77 25.80 27.01 28.49 24.27 31.18 C 21.39 33.97 17.28 35.55 15.33 39.23 C 17.11 43.92 22.20 46.44 23.65 51.34 C 20.64 49.41 18.02 46.97 15.45 44.51 C 13.24 42.34 10.95 40.24 8.95 37.88 C 5.02 33.27 3.74 26.83 4.64 20.93 Z" />
<path fill="#ffffff" opacity="1.00" d=" M 21.24 9.43 C 26.22 8.07 31.31 9.34 35.88 11.44 C 35.84 13.50 35.87 15.58 35.54 17.62 C 34.22 17.87 32.89 18.00 31.57 18.15 C 30.60 16.87 29.68 15.53 28.50 14.44 C 26.56 13.86 24.52 13.78 22.55 13.32 C 21.13 12.64 21.04 10.80 21.24 9.43 Z" />
<path fill="#d0385c" opacity="1.00" d=" M 35.88 11.44 C 39.20 12.08 41.03 15.20 43.63 17.04 C 43.98 16.82 44.68 16.37 45.03 16.15 C 45.74 15.33 46.14 17.03 46.71 17.24 C 50.57 21.88 55.47 25.52 59.30 30.18 C 57.85 29.91 56.42 29.56 54.97 29.30 C 54.81 29.77 54.51 30.69 54.35 31.15 C 52.00 28.98 49.78 26.65 47.27 24.66 C 46.04 23.43 43.78 24.51 43.75 26.19 C 43.99 27.18 44.42 28.10 44.81 29.04 C 40.65 30.58 39.25 35.20 35.63 37.42 C 31.12 40.31 27.92 44.79 25.14 49.27 C 25.74 51.95 27.01 54.41 28.12 56.90 C 26.67 56.07 25.37 54.99 24.21 53.78 C 21.27 50.71 18.09 47.85 15.45 44.51 C 18.02 46.97 20.64 49.41 23.65 51.34 C 22.20 46.44 17.11 43.92 15.33 39.23 C 17.28 35.55 21.39 33.97 24.27 31.18 C 27.01 28.49 29.77 25.80 32.25 22.87 C 32.27 21.27 31.85 19.71 31.57 18.15 C 32.89 18.00 34.22 17.87 35.54 17.62 C 35.87 15.58 35.84 13.50 35.88 11.44 Z" />
<path fill="#cd5f7d" opacity="1.00" d=" M 43.75 26.19 C 43.78 24.51 46.04 23.43 47.27 24.66 C 49.78 26.65 52.00 28.98 54.35 31.15 C 55.10 32.34 55.89 33.51 56.47 34.79 C 55.45 35.55 54.12 37.41 52.75 36.32 C 49.89 34.15 47.54 31.38 44.81 29.04 C 44.42 28.10 43.99 27.18 43.75 26.19 Z" />
<path fill="#c0345a" opacity="1.00" d=" M 54.97 29.30 C 56.42 29.56 57.85 29.91 59.30 30.18 C 61.03 30.67 62.07 32.41 63.16 33.72 C 57.75 37.74 53.47 43.01 48.47 47.49 C 43.75 52.73 38.37 57.31 33.68 62.57 C 31.61 60.92 29.68 59.05 28.12 56.90 C 27.01 54.41 25.74 51.95 25.14 49.27 C 27.92 44.79 31.12 40.31 35.63 37.42 C 39.25 35.20 40.65 30.58 44.81 29.04 C 47.54 31.38 49.89 34.15 52.75 36.32 C 54.12 37.41 55.45 35.55 56.47 34.79 C 55.89 33.51 55.10 32.34 54.35 31.15 C 54.51 30.69 54.81 29.77 54.97 29.30 Z" />
<path fill="#f3ca57" opacity="1.00" d=" M 48.47 47.49 C 53.47 43.01 57.75 37.74 63.16 33.72 C 70.70 41.55 78.74 48.89 86.21 56.79 C 93.34 64.25 93.20 77.48 85.60 84.58 C 81.69 88.94 75.86 91.34 70.01 90.77 C 64.47 91.11 59.28 88.38 55.50 84.51 C 48.21 77.21 40.77 70.05 33.68 62.57 C 38.37 57.31 43.75 52.73 48.47 47.49 M 60.46 40.44 C 60.06 41.16 59.79 41.92 59.62 42.72 C 60.96 45.16 63.12 46.99 65.06 48.94 C 70.02 53.68 74.56 58.90 80.05 63.05 C 80.70 63.74 82.31 63.65 82.43 62.50 C 83.84 59.66 80.43 57.96 78.99 56.02 C 74.70 50.67 69.85 45.82 64.90 41.09 C 63.73 39.91 61.93 40.16 60.46 40.44 M 57.52 53.59 C 54.54 54.88 51.82 57.60 51.63 61.00 C 51.99 64.77 54.50 68.43 58.26 69.45 C 60.83 69.82 63.44 69.62 66.02 69.90 C 68.11 73.56 66.66 78.51 69.64 81.77 C 72.52 76.83 73.38 71.03 74.71 65.54 C 72.86 65.31 71.00 65.27 69.16 64.99 C 67.74 61.56 67.30 57.31 63.94 55.09 C 62.07 53.99 59.71 52.82 57.52 53.59 Z" />
<path fill="#fbdd81" opacity="1.00" d=" M 60.46 40.44 C 61.93 40.16 63.73 39.91 64.90 41.09 C 69.85 45.82 74.70 50.67 78.99 56.02 C 80.43 57.96 83.84 59.66 82.43 62.50 C 82.31 63.65 80.70 63.74 80.05 63.05 C 74.56 58.90 70.02 53.68 65.06 48.94 C 63.12 46.99 60.96 45.16 59.62 42.72 C 59.79 41.92 60.06 41.16 60.46 40.44 Z" />
<path fill="#fbdd81" opacity="1.00" d=" M 57.52 53.59 C 59.71 52.82 62.07 53.99 63.94 55.09 C 67.30 57.31 67.74 61.56 69.16 64.99 C 71.00 65.27 72.86 65.31 74.71 65.54 C 73.38 71.03 72.52 76.83 69.64 81.77 C 66.66 78.51 68.11 73.56 66.02 69.90 C 63.44 69.62 60.83 69.82 58.26 69.45 C 54.50 68.43 51.99 64.77 51.63 61.00 C 51.82 57.60 54.54 54.88 57.52 53.59 M 57.07 56.88 C 54.39 58.17 54.19 61.41 54.86 63.95 C 57.28 67.29 63.05 68.94 66.25 66.01 C 65.91 63.14 65.41 59.89 63.16 57.84 C 61.61 56.20 59.07 56.40 57.07 56.88 M 70.29 68.15 C 68.81 68.71 68.99 70.94 70.25 71.64 C 72.15 71.77 72.57 67.65 70.29 68.15 Z" />
<path fill="#f3ca57" opacity="1.00" d=" M 57.07 56.88 C 59.07 56.40 61.61 56.20 63.16 57.84 C 65.41 59.89 65.91 63.14 66.25 66.01 C 63.05 68.94 57.28 67.29 54.86 63.95 C 54.19 61.41 54.39 58.17 57.07 56.88 Z" />
<path fill="#f3ca57" opacity="1.00" d=" M 70.29 68.15 C 72.57 67.65 72.15 71.77 70.25 71.64 C 68.99 70.94 68.81 68.71 70.29 68.15 Z" />
</svg>
