<?xml version="1.0" encoding="UTF-8" ?>
<!DOCTYPE svg PUBLIC "-//W3C//DTD SVG 1.1//EN" "http://www.w3.org/Graphics/SVG/1.1/DTD/svg11.dtd">
<svg width="96pt" height="96pt" viewBox="0 0 96 96" version="1.1" xmlns="http://www.w3.org/2000/svg">
<g id="#fea15cff">
<path fill="#fea15c" opacity="1.00" d=" M 0.00 0.00 L 0.07 0.00 C 0.05 0.02 0.02 0.05 0.00 0.07 L 0.00 0.00 Z" />
<path fill="#fea15c" opacity="1.00" d=" M 39.41 19.54 C 34.34 14.23 39.92 9.06 43.12 5.08 C 43.24 5.82 43.47 7.30 43.58 8.03 C 40.01 12.04 44.85 16.60 48.27 18.68 C 50.75 21.30 55.54 20.73 56.50 24.86 C 56.22 25.35 55.64 26.34 55.35 26.83 C 55.20 26.39 54.90 25.50 54.75 25.05 C 53.03 26.47 51.31 28.46 51.51 30.84 C 51.61 31.98 51.80 33.10 52.10 34.20 C 54.44 34.55 54.43 31.57 55.49 30.16 C 56.07 33.36 57.08 36.46 58.47 39.40 C 55.87 43.74 46.18 42.76 46.19 36.86 C 45.91 34.06 49.18 32.37 48.77 29.49 C 50.08 27.77 52.00 26.31 52.42 24.07 C 47.90 19.80 43.35 15.33 39.92 10.30 C 37.40 12.83 38.29 16.98 40.98 18.98 C 42.37 20.70 46.11 21.82 44.70 24.58 C 44.16 24.55 43.07 24.49 42.53 24.46 C 41.06 20.83 37.54 19.57 33.84 19.89 C 35.73 21.09 39.44 21.81 38.69 24.81 C 38.33 27.72 34.89 32.15 39.48 33.29 C 39.43 33.76 39.33 34.70 39.28 35.17 C 37.75 34.07 36.27 32.89 34.76 31.76 C 34.89 33.66 35.10 35.55 35.36 37.44 C 32.30 34.97 33.26 29.42 36.69 27.57 C 39.34 25.06 37.33 20.54 33.64 20.89 C 33.63 20.58 33.60 19.96 33.59 19.65 C 35.53 19.55 37.47 19.65 39.41 19.54 Z" />
<path fill="#fea15c" opacity="1.00" d=" M 41.28 37.15 C 43.77 38.04 45.34 40.26 46.00 42.76 C 44.11 42.92 42.21 42.97 40.32 42.83 C 40.45 40.91 40.79 39.01 41.28 37.15 Z" />
</g>
<g id="#fedc76ff">
<path fill="#fedc76" opacity="1.00" d=" M 39.92 10.30 C 43.35 15.33 47.90 19.80 52.42 24.07 C 52.00 26.31 50.08 27.77 48.77 29.49 C 47.17 30.71 45.81 32.41 43.72 32.75 C 43.48 29.98 43.64 27.18 44.70 24.58 C 46.11 21.82 42.37 20.70 40.98 18.98 C 38.29 16.98 37.40 12.83 39.92 10.30 Z" />
<path fill="#fedc76" opacity="1.00" d=" M 51.51 30.84 C 51.31 28.46 53.03 26.47 54.75 25.05 C 54.90 25.50 55.20 26.39 55.35 26.83 C 54.30 28.37 52.83 29.55 51.51 30.84 Z" />
<path fill="#fedc76" opacity="1.00" d=" M 34.76 31.76 C 36.27 32.89 37.75 34.07 39.28 35.17 C 39.42 35.90 39.53 36.63 39.60 37.37 C 38.83 37.97 38.04 38.54 37.22 39.07 C 36.07 38.96 35.45 38.42 35.36 37.44 C 35.10 35.55 34.89 33.66 34.76 31.76 Z" />
</g>
<g id="#fee579ff">
<path fill="#fee579" opacity="1.00" d=" M 33.84 19.89 C 37.54 19.57 41.06 20.83 42.53 24.46 C 43.53 27.87 40.59 30.35 39.48 33.29 C 34.89 32.15 38.33 27.72 38.69 24.81 C 39.44 21.81 35.73 21.09 33.84 19.89 Z" />
</g>
<g id="#e9991efb">
<path fill="#e9991e" opacity="1.00" d=" M 42.53 24.46 C 43.07 24.49 44.16 24.55 44.70 24.58 C 43.64 27.18 43.48 29.98 43.72 32.75 C 45.81 32.41 47.17 30.71 48.77 29.49 C 49.18 32.37 45.91 34.06 46.19 36.86 C 46.18 42.76 55.87 43.74 58.47 39.40 C 57.08 36.46 56.07 33.36 55.49 30.16 C 54.43 31.57 54.44 34.55 52.10 34.20 C 51.80 33.10 51.61 31.98 51.51 30.84 C 52.83 29.55 54.30 28.37 55.35 26.83 C 55.64 26.34 56.22 25.35 56.50 24.86 C 56.57 25.94 56.64 27.02 56.72 28.09 C 57.56 28.30 59.25 28.71 60.09 28.91 C 57.48 29.64 55.63 32.71 58.51 34.47 C 62.26 36.67 59.52 42.78 55.69 42.71 C 51.18 43.02 46.74 43.63 42.29 44.36 C 41.07 44.23 39.95 43.82 38.92 43.15 C 38.30 41.81 37.71 40.46 37.22 39.07 C 38.04 38.54 38.83 37.97 39.60 37.37 C 39.53 36.63 39.42 35.90 39.28 35.17 C 39.33 34.70 39.43 33.76 39.48 33.29 C 40.59 30.35 43.53 27.87 42.53 24.46 M 41.28 37.15 C 40.79 39.01 40.45 40.91 40.32 42.83 C 42.21 42.97 44.11 42.92 46.00 42.76 C 45.34 40.26 43.77 38.04 41.28 37.15 Z" />
</g>
<g id="#832101fe">
<path fill="#832101" opacity="1.00" d=" M 42.29 44.36 C 46.74 43.63 51.18 43.02 55.69 42.71 C 55.13 43.03 54.01 43.68 53.45 44.00 C 54.54 51.59 55.58 59.31 57.16 66.95 C 57.46 73.70 64.21 79.39 61.49 86.24 C 62.39 90.79 57.06 92.26 53.86 90.13 C 50.60 75.06 46.62 59.93 44.04 44.81 C 43.60 44.70 42.73 44.47 42.29 44.36 M 49.22 44.86 C 48.79 48.18 49.35 51.57 50.46 54.71 C 51.00 54.82 52.08 55.04 52.62 55.15 C 51.49 51.76 51.67 47.62 49.22 44.86 M 54.89 63.96 C 54.87 62.23 54.42 60.53 53.69 58.97 C 51.11 60.07 52.33 63.91 54.89 63.96 M 55.40 72.76 C 57.21 76.30 57.13 82.16 60.90 83.90 C 59.97 79.93 58.79 75.32 55.40 72.76 Z" />
</g>
<g id="#94370fff">
<path fill="#94370f" opacity="1.00" d=" M 49.22 44.86 C 51.67 47.62 51.49 51.76 52.62 55.15 C 52.08 55.04 51.00 54.82 50.46 54.71 C 49.35 51.57 48.79 48.18 49.22 44.86 Z" />
<path fill="#94370f" opacity="1.00" d=" M 54.89 63.96 C 52.33 63.91 51.11 60.07 53.69 58.97 C 54.42 60.53 54.87 62.23 54.89 63.96 Z" />
<path fill="#94370f" opacity="1.00" d=" M 55.40 72.76 C 58.79 75.32 59.97 79.93 60.90 83.90 C 57.13 82.16 57.21 76.30 55.40 72.76 Z" />
</g>
</svg>
