<?xml version="1.0" encoding="UTF-8" ?>
<!DOCTYPE svg PUBLIC "-//W3C//DTD SVG 1.1//EN" "http://www.w3.org/Graphics/SVG/1.1/DTD/svg11.dtd">
<svg width="96pt" height="96pt" viewBox="0 0 96 96" version="1.1" xmlns="http://www.w3.org/2000/svg">
<g id="#efa256ff">
<path fill="#efa256" opacity="1.00" d=" M 26.72 10.84 C 39.27 3.29 55.51 3.45 68.43 10.04 C 67.92 10.42 66.90 11.18 66.40 11.57 C 58.50 7.97 49.61 6.49 41.02 8.03 C 36.73 8.66 32.82 10.62 28.78 12.05 C 28.26 11.75 27.24 11.14 26.72 10.84 Z" />
<path fill="#efa256" opacity="1.00" d=" M 74.54 14.31 C 84.88 22.12 91.20 35.04 90.95 48.01 C 91.22 58.41 87.20 68.73 80.35 76.49 C 71.89 86.21 58.90 91.80 46.01 90.93 C 26.64 90.58 9.10 75.10 5.83 56.10 C 3.03 41.83 8.04 26.09 19.08 16.52 C 18.85 17.89 18.65 19.27 18.43 20.64 C 6.08 32.48 4.17 52.90 12.33 67.63 C 17.97 78.04 28.39 85.68 40.00 88.00 C 56.82 91.61 75.66 83.13 83.58 67.74 C 90.61 55.62 90.47 39.85 83.34 27.81 C 81.17 23.88 77.83 20.79 75.49 16.99 C 75.25 16.32 74.78 14.98 74.54 14.31 Z" />
<path fill="#efa256" opacity="1.00" d=" M 14.17 44.17 C 15.56 40.02 20.71 40.15 24.27 39.60 C 25.86 41.02 27.72 42.35 28.63 44.34 C 29.33 46.72 27.23 48.37 25.84 49.94 C 24.97 49.53 24.08 49.16 23.18 48.83 C 24.12 47.70 25.96 46.84 25.63 45.10 C 25.41 41.67 20.82 41.75 18.39 42.52 C 16.12 43.59 16.43 46.29 17.46 48.13 C 19.12 48.30 20.77 48.49 22.42 48.72 C 21.23 49.19 20.04 49.68 18.87 50.20 C 16.16 49.47 13.31 47.37 14.17 44.17 Z" />
<path fill="#efa256" opacity="1.00" d=" M 66.69 44.07 C 68.46 40.32 73.25 39.64 76.91 40.40 C 79.43 40.91 82.34 42.97 81.80 45.89 C 81.80 48.51 78.92 49.05 77.08 50.05 C 74.81 48.07 71.82 47.60 69.11 48.99 C 67.70 47.76 65.62 46.23 66.69 44.07 Z" />
</g>
<g id="#fdea78ff">
<path fill="#fdea78" opacity="1.00" d=" M 28.78 12.05 C 32.82 10.62 36.73 8.66 41.02 8.03 C 49.61 6.49 58.50 7.97 66.40 11.57 C 64.59 13.13 62.88 14.87 61.78 17.01 C 61.90 18.26 63.35 20.11 64.51 18.56 C 66.31 16.96 67.81 15.08 69.43 13.32 C 71.32 15.62 71.98 18.55 73.07 21.25 C 75.92 22.02 75.94 18.91 75.49 16.99 C 77.83 20.79 81.17 23.88 83.34 27.81 C 90.47 39.85 90.61 55.62 83.58 67.74 C 80.63 66.60 78.87 69.16 77.01 70.95 L 77.16 69.91 C 80.46 63.76 80.72 56.12 77.08 50.05 C 78.92 49.05 81.80 48.51 81.80 45.89 C 82.34 42.97 79.43 40.91 76.91 40.40 C 73.25 39.64 68.46 40.32 66.69 44.07 C 65.62 46.23 67.70 47.76 69.11 48.99 C 64.19 51.79 59.84 55.73 54.37 57.49 C 47.99 59.12 41.03 58.66 35.06 55.80 C 31.68 54.36 28.84 52.01 25.84 49.94 C 27.23 48.37 29.33 46.72 28.63 44.34 C 27.72 42.35 25.86 41.02 24.27 39.60 C 22.56 39.14 20.81 38.80 19.07 38.45 C 20.43 38.29 21.79 38.12 23.15 37.96 C 22.74 30.40 25.03 23.19 25.98 15.79 C 24.94 17.19 23.94 18.62 22.86 19.99 C 22.52 20.19 21.84 20.59 21.50 20.79 C 22.49 18.32 23.53 15.86 24.90 13.57 C 26.89 15.65 28.62 18.01 31.00 19.67 C 31.46 19.24 32.38 18.40 32.84 17.98 C 32.02 15.69 30.33 13.87 28.78 12.05 M 62.73 35.63 C 64.77 37.02 67.11 36.12 69.21 35.40 C 72.21 32.32 70.61 26.46 66.04 26.27 C 61.08 25.82 58.61 32.77 62.73 35.63 M 27.01 35.68 C 29.25 36.72 31.74 36.71 34.02 35.82 C 37.14 32.77 35.67 26.72 31.03 26.46 C 26.08 25.90 23.84 32.32 27.01 35.68 Z" />
</g>
<g id="#914122ef">
<path fill="#914122" opacity="0.94" d=" M 68.43 10.04 C 71.11 10.27 73.52 11.75 74.54 14.31 C 74.78 14.98 75.25 16.32 75.49 16.99 C 75.94 18.91 75.92 22.02 73.07 21.25 C 71.98 18.55 71.32 15.62 69.43 13.32 C 67.81 15.08 66.31 16.96 64.51 18.56 C 63.35 20.11 61.90 18.26 61.78 17.01 C 62.88 14.87 64.59 13.13 66.40 11.57 C 66.90 11.18 67.92 10.42 68.43 10.04 Z" />
<path fill="#914122" opacity="0.94" d=" M 19.08 16.52 C 19.96 13.27 22.85 9.08 26.72 10.84 C 27.24 11.14 28.26 11.75 28.78 12.05 C 30.33 13.87 32.02 15.69 32.84 17.98 C 32.38 18.40 31.46 19.24 31.00 19.67 C 28.62 18.01 26.89 15.65 24.90 13.57 C 23.53 15.86 22.49 18.32 21.50 20.79 C 20.73 20.75 19.19 20.68 18.43 20.64 C 18.65 19.27 18.85 17.89 19.08 16.52 Z" />
<path fill="#914122" opacity="0.94" d=" M 27.01 35.68 C 28.07 34.56 28.38 32.17 30.12 32.00 C 32.52 31.41 32.88 34.42 34.02 35.82 C 31.74 36.71 29.25 36.72 27.01 35.68 Z" />
<path fill="#914122" opacity="0.94" d=" M 62.73 35.63 C 63.14 33.84 63.72 31.56 65.99 31.52 C 68.14 31.62 68.43 33.86 69.21 35.40 C 67.11 36.12 64.77 37.02 62.73 35.63 Z" />
<path fill="#914122" opacity="0.94" d=" M 18.87 50.20 C 20.04 49.68 21.23 49.19 22.42 48.72 L 23.18 48.83 C 24.08 49.16 24.97 49.53 25.84 49.94 C 28.84 52.01 31.68 54.36 35.06 55.80 C 41.03 58.66 47.99 59.12 54.37 57.49 C 59.84 55.73 64.19 51.79 69.11 48.99 C 71.82 47.60 74.81 48.07 77.08 50.05 C 80.72 56.12 80.46 63.76 77.16 69.91 C 75.14 71.99 73.00 74.03 70.42 75.39 C 58.22 81.76 43.08 83.45 30.33 77.66 C 24.36 74.95 18.06 70.82 16.56 63.97 C 14.98 59.26 16.32 54.27 18.87 50.20 M 68.99 51.13 C 69.02 58.76 68.97 66.39 69.02 74.01 C 71.57 72.33 74.35 70.61 75.77 67.78 C 78.46 62.96 78.48 56.77 75.87 51.93 C 74.46 49.32 71.19 50.21 68.99 51.13 M 19.76 52.60 C 15.34 59.87 19.27 69.97 26.76 73.46 C 26.34 66.53 26.68 59.58 26.25 52.66 C 24.71 50.78 21.04 50.09 19.76 52.60 M 55.65 59.25 C 55.66 65.59 55.72 71.92 55.66 78.26 C 59.58 77.59 63.36 76.36 67.00 74.80 C 67.00 67.38 67.00 59.96 67.00 52.53 C 63.41 55.09 59.67 57.44 55.65 59.25 M 28.05 54.26 C 28.79 60.97 28.24 67.74 28.75 74.46 C 32.04 76.62 35.95 77.66 39.80 78.30 C 39.44 72.09 39.51 65.87 39.57 59.66 C 35.50 58.38 31.74 56.36 28.05 54.26 M 41.29 60.02 C 41.45 66.26 41.48 72.50 41.44 78.74 C 45.58 79.26 49.75 79.12 53.89 78.74 C 53.88 72.44 53.74 66.13 53.95 59.83 C 49.74 60.24 45.50 60.57 41.29 60.02 Z" />
</g>
<g id="#ffce74ff">
<path fill="#ffce74" opacity="1.00" d=" M 22.86 19.99 C 23.94 18.62 24.94 17.19 25.98 15.79 C 25.03 23.19 22.74 30.40 23.15 37.96 C 21.79 38.12 20.43 38.29 19.07 38.45 C 20.81 38.80 22.56 39.14 24.27 39.60 C 20.71 40.15 15.56 40.02 14.17 44.17 C 13.31 47.37 16.16 49.47 18.87 50.20 C 16.32 54.27 14.98 59.26 16.56 63.97 C 18.06 70.82 24.36 74.95 30.33 77.66 C 43.08 83.45 58.22 81.76 70.42 75.39 C 73.00 74.03 75.14 71.99 77.16 69.91 L 77.01 70.95 C 78.87 69.16 80.63 66.60 83.58 67.74 C 75.66 83.13 56.82 91.61 40.00 88.00 C 28.39 85.68 17.97 78.04 12.33 67.63 C 4.17 52.90 6.08 32.48 18.43 20.64 C 19.19 20.68 20.73 20.75 21.50 20.79 C 21.84 20.59 22.52 20.19 22.86 19.99 Z" />
</g>
<g id="#261a1aff">
<path fill="#261a1a" opacity="1.00" d=" M 62.73 35.63 C 58.61 32.77 61.08 25.82 66.04 26.27 C 70.61 26.46 72.21 32.32 69.21 35.40 C 68.43 33.86 68.14 31.62 65.99 31.52 C 63.72 31.56 63.14 33.84 62.73 35.63 Z" />
<path fill="#261a1a" opacity="1.00" d=" M 27.01 35.68 C 23.84 32.32 26.08 25.90 31.03 26.46 C 35.67 26.72 37.14 32.77 34.02 35.82 C 32.88 34.42 32.52 31.41 30.12 32.00 C 28.38 32.17 28.07 34.56 27.01 35.68 Z" />
</g>
<g id="#ec8f3bff">
<path fill="#ec8f3b" opacity="1.00" d=" M 18.39 42.52 C 20.82 41.75 25.41 41.67 25.63 45.10 C 25.96 46.84 24.12 47.70 23.18 48.83 L 22.42 48.72 C 20.77 48.49 19.12 48.30 17.46 48.13 C 16.43 46.29 16.12 43.59 18.39 42.52 Z" />
</g>
<g id="#ffffffff">
<path fill="#ffffff" opacity="1.00" d=" M 68.99 51.13 C 71.19 50.21 74.46 49.32 75.87 51.93 C 78.48 56.77 78.46 62.96 75.77 67.78 C 74.35 70.61 71.57 72.33 69.02 74.01 C 68.97 66.39 69.02 58.76 68.99 51.13 Z" />
<path fill="#ffffff" opacity="1.00" d=" M 19.76 52.60 C 21.04 50.09 24.71 50.78 26.25 52.66 C 26.68 59.58 26.34 66.53 26.76 73.46 C 19.27 69.97 15.34 59.87 19.76 52.60 Z" />
<path fill="#ffffff" opacity="1.00" d=" M 55.65 59.25 C 59.67 57.44 63.41 55.09 67.00 52.53 C 67.00 59.96 67.00 67.38 67.00 74.80 C 63.36 76.36 59.58 77.59 55.66 78.26 C 55.72 71.92 55.66 65.59 55.65 59.25 Z" />
<path fill="#ffffff" opacity="1.00" d=" M 28.05 54.26 C 31.74 56.36 35.50 58.38 39.57 59.66 C 39.51 65.87 39.44 72.09 39.80 78.30 C 35.95 77.66 32.04 76.62 28.75 74.46 C 28.24 67.74 28.79 60.97 28.05 54.26 Z" />
<path fill="#ffffff" opacity="1.00" d=" M 41.29 60.02 C 45.50 60.57 49.74 60.24 53.95 59.83 C 53.74 66.13 53.88 72.44 53.89 78.74 C 49.75 79.12 45.58 79.26 41.44 78.74 C 41.48 72.50 41.45 66.26 41.29 60.02 Z" />
</g>
</svg>
