<?xml version="1.0" encoding="UTF-8" ?>
<!DOCTYPE svg PUBLIC "-//W3C//DTD SVG 1.1//EN" "http://www.w3.org/Graphics/SVG/1.1/DTD/svg11.dtd">
<svg width="96pt" height="96pt" viewBox="0 0 96 96" version="1.1" xmlns="http://www.w3.org/2000/svg">
<path fill="#fca716" opacity="1.00" d=" M 59.14 4.85 C 65.89 7.00 69.72 13.96 73.60 19.42 L 73.47 20.60 C 70.16 16.15 66.92 11.48 62.31 8.26 C 61.89 10.83 62.30 13.41 62.87 15.92 C 62.65 15.81 62.21 15.60 61.98 15.49 C 60.10 12.34 58.51 8.60 59.14 4.85 Z" />
<path fill="#fdea77" opacity="1.00" d=" M 62.87 15.92 C 62.30 13.41 61.89 10.83 62.31 8.26 C 66.92 11.48 70.16 16.15 73.47 20.60 C 73.42 21.04 73.32 21.92 73.27 22.36 C 69.71 20.36 66.51 17.78 62.87 15.92 Z" />
<path fill="#a23c0e" opacity="1.00" d=" M 39.82 15.52 C 40.56 14.63 41.22 13.69 41.97 12.81 C 43.08 13.36 44.23 13.83 45.35 14.34 C 48.90 16.33 53.09 15.27 56.87 16.35 C 52.71 20.27 46.28 19.38 41.82 16.48 C 41.32 16.24 40.32 15.76 39.82 15.52 Z" />
<path fill="#ed8c3e" opacity="1.00" d=" M 45.35 14.34 C 50.90 12.99 56.50 14.63 61.98 15.49 C 62.21 15.60 62.65 15.81 62.87 15.92 C 66.51 17.78 69.71 20.36 73.27 22.36 C 73.32 21.92 73.42 21.04 73.47 20.60 L 73.60 19.42 C 74.00 20.02 74.81 21.22 75.21 21.82 C 75.41 22.80 75.89 23.62 76.63 24.29 C 90.06 38.13 92.23 61.59 79.71 76.70 C 66.58 94.25 38.06 95.91 22.98 80.02 C 13.04 70.87 10.80 56.87 11.52 44.02 L 12.17 42.90 C 14.14 39.95 15.51 36.69 16.77 33.39 C 16.98 32.91 17.19 32.43 17.41 31.96 L 17.90 30.95 C 19.26 31.27 20.61 31.59 21.96 31.91 C 20.09 33.01 18.04 34.17 17.16 36.28 C 11.55 47.85 12.24 62.55 19.80 73.10 C 26.09 82.88 37.53 88.70 48.98 89.45 C 62.93 89.66 76.37 81.02 82.54 68.58 C 93.71 48.17 79.68 20.19 56.87 16.35 C 53.09 15.27 48.90 16.33 45.35 14.34 Z" />
<path fill="#ffce74" opacity="1.00" d=" M 29.46 20.30 C 32.15 17.75 36.17 16.29 39.82 15.52 C 40.32 15.76 41.32 16.24 41.82 16.48 C 34.41 18.43 36.85 27.81 34.49 33.47 C 28.44 35.48 33.69 42.59 38.29 39.26 C 38.16 42.82 39.25 46.24 40.24 49.60 C 38.34 50.30 36.46 51.04 34.59 51.81 C 30.61 46.78 22.34 49.47 18.87 53.86 C 17.11 56.18 19.05 58.68 21.47 59.28 C 21.82 60.96 22.11 62.67 22.50 64.35 C 24.63 69.70 28.50 74.25 33.27 77.45 C 48.25 88.19 71.29 80.64 77.29 63.29 L 77.50 62.75 C 77.37 64.81 77.44 66.87 77.56 68.92 C 79.22 68.81 80.88 68.70 82.54 68.58 C 76.37 81.02 62.93 89.66 48.98 89.45 C 37.53 88.70 26.09 82.88 19.80 73.10 C 12.24 62.55 11.55 47.85 17.16 36.28 C 18.04 34.17 20.09 33.01 21.96 31.91 C 26.97 30.13 28.27 24.88 29.46 20.30 Z" />
<path fill="#fdea77" opacity="1.00" d=" M 34.49 33.47 C 36.85 27.81 34.41 18.43 41.82 16.48 C 46.28 19.38 52.71 20.27 56.87 16.35 C 79.68 20.19 93.71 48.17 82.54 68.58 C 80.88 68.70 79.22 68.81 77.56 68.92 C 77.44 66.87 77.37 64.81 77.50 62.75 C 79.71 56.83 80.23 50.19 77.99 44.19 C 77.15 42.57 76.24 40.98 75.37 39.36 C 75.91 38.03 76.47 36.71 77.05 35.40 C 71.09 33.17 63.41 34.23 59.64 39.78 C 60.77 40.30 61.90 40.82 63.03 41.33 C 55.33 43.81 47.94 47.13 40.24 49.60 C 39.25 46.24 38.16 42.82 38.29 39.26 C 38.45 37.17 38.40 35.04 36.64 33.58 L 36.55 33.47 L 36.38 33.47 C 35.91 33.47 34.96 33.47 34.49 33.47 M 48.37 28.44 C 44.48 30.68 47.96 36.46 51.76 34.18 C 55.55 31.74 52.23 26.77 48.37 28.44 Z" />
<path fill="#a23c0e" opacity="1.00" d=" M 24.38 24.51 C 24.88 21.88 26.06 17.64 29.46 20.30 C 28.27 24.88 26.97 30.13 21.96 31.91 C 20.61 31.59 19.26 31.27 17.90 30.95 C 18.39 30.34 19.36 29.11 19.85 28.49 L 20.71 28.25 C 22.71 28.04 24.17 26.49 24.38 24.51 Z" />
<path fill="#fca716" opacity="1.00" d=" M 11.52 44.02 C 10.12 36.40 6.25 26.90 10.88 19.99 C 14.19 23.28 15.49 27.84 17.41 31.96 C 17.19 32.43 16.98 32.91 16.77 33.39 C 14.98 30.07 13.78 25.94 9.97 24.36 C 9.48 30.65 11.18 36.76 12.17 42.90 L 11.52 44.02 Z" />
<path fill="#483112" opacity="0.37" d=" M 75.21 21.82 C 77.02 21.79 77.50 22.61 76.63 24.29 C 75.89 23.62 75.41 22.80 75.21 21.82 Z" />
<path fill="#ed8c3e" opacity="1.00" d=" M 20.71 28.25 C 20.53 26.63 22.72 24.26 24.38 24.51 C 24.17 26.49 22.71 28.04 20.71 28.25 Z" />
<path fill="#fdea77" opacity="1.00" d=" M 9.97 24.36 C 13.78 25.94 14.98 30.07 16.77 33.39 C 15.51 36.69 14.14 39.95 12.17 42.90 C 11.18 36.76 9.48 30.65 9.97 24.36 Z" />
<path fill="#1d1c1d" opacity="1.00" d=" M 48.37 28.44 C 52.23 26.77 55.55 31.74 51.76 34.18 C 47.96 36.46 44.48 30.68 48.37 28.44 Z" />
<path fill="#1d1c1d" opacity="1.00" d=" M 38.29 39.26 C 33.69 42.59 28.44 35.48 34.49 33.47 C 34.96 33.47 35.91 33.47 36.38 33.47 C 36.44 33.49 36.57 33.55 36.64 33.58 C 38.40 35.04 38.45 37.17 38.29 39.26 Z" />
<path fill="#ffce74" opacity="1.00" d=" M 36.38 33.47 L 36.55 33.47 L 36.64 33.58 C 36.57 33.55 36.44 33.49 36.38 33.47 Z" />
<path fill="#ed8c3e" opacity="1.00" d=" M 59.64 39.78 C 63.41 34.23 71.09 33.17 77.05 35.40 C 76.47 36.71 75.91 38.03 75.37 39.36 C 71.14 38.91 66.96 39.82 63.03 41.33 C 61.90 40.82 60.77 40.30 59.64 39.78 Z" />
<path fill="#ffffff" opacity="1.00" d=" M 63.03 41.33 C 66.96 39.82 71.14 38.91 75.37 39.36 C 76.24 40.98 77.15 42.57 77.99 44.19 C 59.64 51.30 40.79 57.11 22.50 64.35 C 22.11 62.67 21.82 60.96 21.47 59.28 C 25.15 55.71 29.95 53.78 34.59 51.81 C 36.46 51.04 38.34 50.30 40.24 49.60 C 47.94 47.13 55.33 43.81 63.03 41.33 Z" />
<path fill="#7d180f" opacity="1.00" d=" M 22.50 64.35 C 40.79 57.11 59.64 51.30 77.99 44.19 C 80.23 50.19 79.71 56.83 77.50 62.75 L 77.29 63.29 C 74.55 61.92 71.75 60.58 68.72 59.96 C 57.66 57.79 45.43 61.83 38.52 70.90 C 36.74 73.06 35.03 75.28 33.27 77.45 C 28.50 74.25 24.63 69.70 22.50 64.35 Z" />
<path fill="#ed8c3e" opacity="1.00" d=" M 18.87 53.86 C 22.34 49.47 30.61 46.78 34.59 51.81 C 29.95 53.78 25.15 55.71 21.47 59.28 C 19.05 58.68 17.11 56.18 18.87 53.86 Z" />
<path fill="#ea6c58" opacity="1.00" d=" M 38.52 70.90 C 45.43 61.83 57.66 57.79 68.72 59.96 C 66.99 63.03 63.33 63.46 60.32 64.55 C 53.06 66.71 46.26 70.74 38.52 70.90 Z" />
<path fill="#e35932" opacity="1.00" d=" M 68.72 59.96 C 71.75 60.58 74.55 61.92 77.29 63.29 C 71.29 80.64 48.25 88.19 33.27 77.45 C 35.03 75.28 36.74 73.06 38.52 70.90 C 46.26 70.74 53.06 66.71 60.32 64.55 C 63.33 63.46 66.99 63.03 68.72 59.96 Z" />
</svg>
