<?xml version="1.0" encoding="UTF-8" ?>
<!DOCTYPE svg PUBLIC "-//W3C//DTD SVG 1.1//EN" "http://www.w3.org/Graphics/SVG/1.1/DTD/svg11.dtd">
<svg width="96pt" height="96pt" viewBox="0 0 96 96" version="1.1" xmlns="http://www.w3.org/2000/svg">
<path fill="#efa654" opacity="1.00" d=" M 29.35 9.53 C 40.74 3.74 55.01 3.57 66.42 9.37 C 66.02 9.83 65.21 10.75 64.81 11.21 C 54.16 6.71 41.76 6.39 31.27 11.52 C 30.79 11.02 29.83 10.03 29.35 9.53 Z" />
<path fill="#b25120" opacity="1.00" d=" M 18.93 12.07 C 19.42 6.97 26.44 5.52 29.35 9.53 C 29.83 10.03 30.79 11.02 31.27 11.52 C 30.91 13.00 30.68 14.56 29.87 15.88 C 28.13 16.19 28.30 13.89 27.56 12.88 C 27.28 12.18 26.96 11.50 26.60 10.84 C 24.36 8.05 21.29 11.10 18.93 12.07 Z" />
<path fill="#fde977" opacity="1.00" d=" M 31.27 11.52 C 41.76 6.39 54.16 6.71 64.81 11.21 C 65.20 12.98 65.51 14.77 65.76 16.56 C 66.38 14.94 66.93 13.29 67.63 11.69 C 72.90 14.68 77.02 19.11 81.24 23.35 C 73.40 21.01 63.78 20.41 57.31 26.31 C 54.57 28.39 53.90 32.93 57.14 34.91 C 58.92 37.03 61.34 35.01 63.34 34.39 C 62.75 37.92 58.81 39.43 57.52 42.67 C 52.44 52.11 43.38 59.46 32.71 61.32 C 29.62 61.91 26.14 61.14 23.39 62.98 C 25.35 64.97 26.83 67.33 28.43 69.60 C 22.71 65.98 19.03 59.67 18.62 52.92 C 18.17 52.88 17.28 52.80 16.84 52.76 C 16.26 59.56 20.51 65.24 24.40 70.34 C 20.42 68.12 16.69 62.61 11.72 65.75 C 7.77 56.95 5.95 46.60 9.41 37.34 C 10.37 36.30 11.73 35.75 12.95 35.08 C 20.19 31.96 29.09 31.99 35.92 36.16 C 39.32 38.94 44.00 33.06 41.08 30.03 C 35.84 21.68 24.71 21.14 15.89 22.14 C 19.45 18.66 22.90 14.91 27.56 12.88 C 28.30 13.89 28.13 16.19 29.87 15.88 C 30.68 14.56 30.91 13.00 31.27 11.52 M 15.21 37.98 C 11.97 38.52 8.56 41.34 8.90 44.83 C 11.00 47.67 14.35 49.85 18.01 49.41 C 21.73 49.55 26.91 46.48 25.03 42.17 C 22.96 39.08 18.89 37.12 15.21 37.98 Z" />
<path fill="#b25120" opacity="1.00" d=" M 66.42 9.37 C 69.43 5.27 76.37 7.06 77.10 12.09 C 74.60 11.10 71.76 8.15 69.15 10.54 C 68.77 10.83 68.01 11.41 67.63 11.69 C 66.93 13.29 66.38 14.94 65.76 16.56 C 65.51 14.77 65.20 12.98 64.81 11.21 C 65.21 10.75 66.02 9.83 66.42 9.37 Z" />
<path fill="#efa654" opacity="1.00" d=" M 14.08 22.57 C 16.82 17.44 21.79 13.89 26.60 10.84 C 26.96 11.50 27.28 12.18 27.56 12.88 C 22.90 14.91 19.45 18.66 15.89 22.14 C 15.44 22.25 14.54 22.46 14.08 22.57 Z" />
<path fill="#efa654" opacity="1.00" d=" M 67.63 11.69 C 68.01 11.41 68.77 10.83 69.15 10.54 C 75.02 14.10 80.49 18.75 83.96 24.75 C 83.41 24.46 82.29 23.90 81.74 23.61 C 81.61 23.55 81.36 23.42 81.24 23.35 C 77.02 19.11 72.90 14.68 67.63 11.69 Z" />
<path fill="#1f1f1f" opacity="1.00" d=" M 14.08 22.57 C 14.54 22.46 15.44 22.25 15.89 22.14 C 24.71 21.14 35.84 21.68 41.08 30.03 C 44.00 33.06 39.32 38.94 35.92 36.16 C 29.09 31.99 20.19 31.96 12.95 35.08 C 10.81 35.45 8.66 35.05 7.42 33.15 C 5.43 28.07 10.85 25.24 14.08 22.57 M 18.27 23.26 C 15.61 23.82 13.05 24.80 10.76 26.28 C 13.58 27.37 16.03 29.34 14.76 32.62 C 19.84 31.93 24.98 32.04 30.08 32.22 C 33.60 32.32 36.35 36.66 39.89 34.97 C 42.03 29.74 36.37 26.07 32.15 24.66 C 27.67 23.50 22.89 22.21 18.27 23.26 Z" />
<path fill="#1f1f1f" opacity="1.00" d=" M 57.31 26.31 C 63.78 20.41 73.40 21.01 81.24 23.35 C 81.36 23.42 81.61 23.55 81.74 23.61 C 82.29 23.90 83.41 24.46 83.96 24.75 C 84.02 24.78 84.13 24.85 84.19 24.89 C 87.86 26.98 91.69 31.46 88.70 35.69 L 87.93 36.85 C 80.07 34.39 71.47 30.27 63.34 34.39 C 61.34 35.01 58.92 37.03 57.14 34.91 C 53.90 32.93 54.57 28.39 57.31 26.31 M 67.20 23.17 C 64.20 23.67 61.38 24.91 58.83 26.42 C 62.23 26.85 64.14 28.76 63.62 32.23 C 71.24 31.03 79.40 30.96 85.97 35.58 C 90.28 35.23 89.08 29.32 86.27 27.70 C 80.78 23.96 73.75 22.42 67.20 23.17 Z" />
<path fill="#ffffff" opacity="1.00" d=" M 18.27 23.26 C 22.89 22.21 27.67 23.50 32.15 24.66 C 36.37 26.07 42.03 29.74 39.89 34.97 C 36.35 36.66 33.60 32.32 30.08 32.22 C 24.98 32.04 19.84 31.93 14.76 32.62 C 16.03 29.34 13.58 27.37 10.76 26.28 C 13.05 24.80 15.61 23.82 18.27 23.26 Z" />
<path fill="#ffffff" opacity="1.00" d=" M 67.20 23.17 C 73.75 22.42 80.78 23.96 86.27 27.70 C 89.08 29.32 90.28 35.23 85.97 35.58 C 79.40 30.96 71.24 31.03 63.62 32.23 C 64.14 28.76 62.23 26.85 58.83 26.42 C 61.38 24.91 64.20 23.67 67.20 23.17 Z" />
<path fill="#fde977" opacity="1.00" d=" M 81.24 23.35 C 81.36 23.42 81.61 23.55 81.74 23.61 C 81.61 23.55 81.36 23.42 81.24 23.35 Z" />
<path fill="#efa654" opacity="1.00" d=" M 83.96 24.75 C 84.02 24.78 84.13 24.85 84.19 24.89 C 84.13 24.85 84.02 24.78 83.96 24.75 Z" />
<path fill="#efa654" opacity="1.00" d=" M 7.42 33.15 C 8.66 35.05 10.81 35.45 12.95 35.08 C 11.73 35.75 10.37 36.30 9.41 37.34 C 5.95 46.60 7.77 56.95 11.72 65.75 C 19.11 82.65 39.74 93.03 57.63 87.84 C 73.33 84.01 86.02 70.22 88.59 54.26 C 90.09 48.49 88.71 42.60 87.93 36.85 L 88.70 35.69 C 95.83 54.14 86.03 76.68 68.73 85.78 C 57.86 91.82 44.29 92.58 32.70 88.22 C 17.85 82.65 6.71 68.26 5.37 52.41 C 4.51 45.90 5.98 39.45 7.42 33.15 Z" />
<path fill="#ffd174" opacity="1.00" d=" M 63.34 34.39 C 71.47 30.27 80.07 34.39 87.93 36.85 C 88.71 42.60 90.09 48.49 88.59 54.26 C 86.02 70.22 73.33 84.01 57.63 87.84 C 39.74 93.03 19.11 82.65 11.72 65.75 C 16.69 62.61 20.42 68.12 24.40 70.34 C 35.43 79.63 51.91 81.69 64.59 74.55 C 72.16 70.55 78.07 62.50 77.94 53.73 C 75.96 58.00 74.65 62.79 71.17 66.15 C 60.23 77.38 41.00 79.02 28.43 69.60 C 26.83 67.33 25.35 64.97 23.39 62.98 C 26.14 61.14 29.62 61.91 32.71 61.32 C 43.38 59.46 52.44 52.11 57.52 42.67 C 58.81 39.43 62.75 37.92 63.34 34.39 M 76.54 38.59 C 73.60 39.10 70.24 41.33 71.35 44.76 C 73.74 50.18 83.26 50.21 85.65 44.77 C 86.99 39.63 80.33 38.05 76.54 38.59 Z" />
<path fill="#efa654" opacity="1.00" d=" M 15.21 37.98 C 18.89 37.12 22.96 39.08 25.03 42.17 C 26.91 46.48 21.73 49.55 18.01 49.41 C 14.35 49.85 11.00 47.67 8.90 44.83 C 8.56 41.34 11.97 38.52 15.21 37.98 Z" />
<path fill="#f29556" opacity="1.00" d=" M 76.54 38.59 C 80.33 38.05 86.99 39.63 85.65 44.77 C 83.26 50.21 73.74 50.18 71.35 44.76 C 70.24 41.33 73.60 39.10 76.54 38.59 Z" />
<path fill="#690302" opacity="1.00" d=" M 16.84 52.76 C 17.28 52.80 18.17 52.88 18.62 52.92 C 19.03 59.67 22.71 65.98 28.43 69.60 C 41.00 79.02 60.23 77.38 71.17 66.15 C 74.65 62.79 75.96 58.00 77.94 53.73 C 78.07 62.50 72.16 70.55 64.59 74.55 C 51.91 81.69 35.43 79.63 24.40 70.34 C 20.51 65.24 16.26 59.56 16.84 52.76 Z" />
</svg>
