<?xml version="1.0" encoding="UTF-8" ?>
<!DOCTYPE svg PUBLIC "-//W3C//DTD SVG 1.1//EN" "http://www.w3.org/Graphics/SVG/1.1/DTD/svg11.dtd">
<svg width="96pt" height="96pt" viewBox="0 0 96 96" version="1.1" xmlns="http://www.w3.org/2000/svg">
<path fill="#eead48" opacity="1.00" d=" M 24.44 12.98 C 37.32 3.11 56.49 2.80 69.84 11.98 C 69.04 12.52 68.25 13.07 67.49 13.66 C 55.99 5.04 39.95 6.89 27.68 12.93 C 26.87 12.94 25.25 12.97 24.44 12.98 Z" />
<path fill="#fee675" opacity="1.00" d=" M 27.68 12.93 C 39.95 6.89 55.99 5.04 67.49 13.66 C 65.31 15.76 63.58 18.33 61.16 20.17 C 58.67 21.55 53.89 21.89 55.92 25.88 C 62.91 26.94 66.97 20.75 71.05 16.30 C 77.31 18.54 81.50 24.89 83.74 30.88 C 73.22 30.84 62.68 30.48 52.18 31.07 C 51.07 42.96 65.46 51.39 75.59 45.52 C 80.63 43.11 83.36 37.75 84.21 32.44 C 91.11 44.21 88.27 59.82 80.73 70.68 C 67.20 67.62 53.66 70.74 40.58 74.10 C 40.09 73.63 39.11 72.68 38.62 72.21 C 45.49 71.09 56.63 70.29 58.09 62.08 C 57.27 62.40 56.46 62.75 55.66 63.11 C 55.97 58.67 51.63 56.65 48.56 54.49 C 45.13 52.37 42.69 49.10 40.28 45.95 C 38.69 45.68 37.11 45.41 35.51 45.22 C 39.75 41.84 43.80 36.88 43.06 31.10 L 42.65 30.35 C 36.76 30.26 30.86 30.39 24.97 30.30 C 28.30 27.90 29.40 23.86 31.02 20.31 C 32.90 22.38 34.60 25.26 37.84 24.92 C 38.81 18.83 32.19 15.38 27.68 12.93 Z" />
<path fill="#a53f0f" opacity="1.00" d=" M 69.84 11.98 C 73.73 10.57 79.05 10.21 81.76 13.96 C 80.28 18.42 75.92 14.18 72.89 15.70 C 72.43 15.85 71.51 16.15 71.05 16.30 C 66.97 20.75 62.91 26.94 55.92 25.88 C 53.89 21.89 58.67 21.55 61.16 20.17 C 63.58 18.33 65.31 15.76 67.49 13.66 C 68.25 13.07 69.04 12.52 69.84 11.98 Z" />
<path fill="#a53f0f" opacity="1.00" d=" M 17.00 19.33 C 12.29 14.89 21.15 13.02 24.44 12.98 C 25.25 12.97 26.87 12.94 27.68 12.93 C 32.19 15.38 38.81 18.83 37.84 24.92 C 34.60 25.26 32.90 22.38 31.02 20.31 C 28.18 17.20 23.43 16.40 19.85 18.74 C 19.14 18.89 17.71 19.18 17.00 19.33 Z" />
<path fill="#eead48" opacity="1.00" d=" M 71.05 16.30 C 71.51 16.15 72.43 15.85 72.89 15.70 C 73.61 15.73 75.04 15.81 75.76 15.84 C 92.00 29.81 95.43 55.85 82.17 72.98 C 84.97 79.06 78.59 81.09 73.83 81.54 C 73.39 86.39 68.76 89.89 63.99 89.17 C 58.93 87.72 54.13 90.92 49.03 90.36 C 43.32 89.34 37.72 93.53 32.18 90.73 C 29.16 89.78 29.13 85.88 26.39 84.61 C 17.16 79.27 10.11 70.29 7.13 60.04 C 1.96 46.18 6.93 30.29 16.34 19.46 L 17.00 19.33 C 17.71 19.18 19.14 18.89 19.85 18.74 C 16.96 22.37 13.89 25.91 11.85 30.11 C 16.22 30.46 20.60 30.36 24.97 30.30 C 30.86 30.39 36.76 30.26 42.65 30.35 L 43.06 31.10 C 32.62 30.66 22.15 30.83 11.70 30.94 C 11.68 32.36 11.67 33.79 11.68 35.21 C 11.23 34.46 10.77 33.72 10.30 32.98 C 3.34 51.04 10.58 73.90 28.20 82.72 C 30.79 78.09 35.53 75.34 40.58 74.10 C 53.66 70.74 67.20 67.62 80.73 70.68 C 88.27 59.82 91.11 44.21 84.21 32.44 C 84.09 32.05 83.86 31.27 83.74 30.88 C 81.50 24.89 77.31 18.54 71.05 16.30 M 37.67 77.75 C 33.27 78.60 27.61 83.80 31.86 88.11 C 39.29 90.63 46.97 87.07 54.14 85.10 C 58.45 85.27 62.59 87.72 67.05 86.76 C 70.50 86.68 71.25 82.68 72.26 80.13 C 74.87 78.72 78.01 78.67 80.79 77.67 C 80.83 75.72 80.70 73.33 78.34 72.85 C 64.68 68.45 50.84 74.38 37.67 77.75 Z" />
<path fill="#ffcf74" opacity="1.00" d=" M 19.85 18.74 C 23.43 16.40 28.18 17.20 31.02 20.31 C 29.40 23.86 28.30 27.90 24.97 30.30 C 20.60 30.36 16.22 30.46 11.85 30.11 C 13.89 25.91 16.96 22.37 19.85 18.74 Z" />
<path fill="#1e1e1e" opacity="1.00" d=" M 11.70 30.94 C 22.15 30.83 32.62 30.66 43.06 31.10 C 43.80 36.88 39.75 41.84 35.51 45.22 C 26.32 49.35 14.55 45.33 11.68 35.21 C 11.67 33.79 11.68 32.36 11.70 30.94 M 12.61 31.73 C 12.72 39.19 19.55 45.82 27.03 45.69 C 34.64 46.12 42.13 39.69 41.99 31.89 C 32.21 31.40 22.40 31.90 12.61 31.73 Z" />
<path fill="#1e1e1e" opacity="1.00" d=" M 52.18 31.07 C 62.68 30.48 73.22 30.84 83.74 30.88 C 83.86 31.27 84.09 32.05 84.21 32.44 C 83.36 37.75 80.63 43.11 75.59 45.52 C 65.46 51.39 51.07 42.96 52.18 31.07 M 53.41 31.71 C 52.75 40.89 62.89 48.29 71.53 45.81 C 77.84 44.37 82.73 38.52 82.87 32.03 C 73.10 31.21 63.23 32.00 53.41 31.71 Z" />
<path fill="#ffffff" opacity="1.00" d=" M 12.61 31.73 C 22.40 31.90 32.21 31.40 41.99 31.89 C 42.13 39.69 34.64 46.12 27.03 45.69 C 19.55 45.82 12.72 39.19 12.61 31.73 M 31.46 35.96 C 32.20 38.15 34.45 40.55 36.92 39.17 C 40.35 37.81 38.60 31.91 35.02 32.58 C 33.15 32.60 32.53 34.80 31.46 35.96 Z" />
<path fill="#ffffff" opacity="1.00" d=" M 53.41 31.71 C 63.23 32.00 73.10 31.21 82.87 32.03 C 82.73 38.52 77.84 44.37 71.53 45.81 C 62.89 48.29 52.75 40.89 53.41 31.71 M 75.33 33.21 C 71.04 35.70 76.21 42.18 79.57 38.56 C 82.73 35.91 78.44 30.58 75.33 33.21 Z" />
<path fill="#ffcf74" opacity="1.00" d=" M 10.30 32.98 C 10.77 33.72 11.23 34.46 11.68 35.21 C 14.55 45.33 26.32 49.35 35.51 45.22 C 37.11 45.41 38.69 45.68 40.28 45.95 C 42.69 49.10 45.13 52.37 48.56 54.49 C 51.63 56.65 55.97 58.67 55.66 63.11 C 50.92 68.19 43.78 68.79 37.30 69.57 C 37.34 69.99 37.43 70.82 37.47 71.23 C 37.76 71.48 38.33 71.96 38.62 72.21 C 39.11 72.68 40.09 73.63 40.58 74.10 C 35.53 75.34 30.79 78.09 28.20 82.72 C 10.58 73.90 3.34 51.04 10.30 32.98 Z" />
<path fill="#1e1e1e" opacity="1.00" d=" M 31.46 35.96 C 32.53 34.80 33.15 32.60 35.02 32.58 C 38.60 31.91 40.35 37.81 36.92 39.17 C 34.45 40.55 32.20 38.15 31.46 35.96 Z" />
<path fill="#1e1e1e" opacity="1.00" d=" M 75.33 33.21 C 78.44 30.58 82.73 35.91 79.57 38.56 C 76.21 42.18 71.04 35.70 75.33 33.21 Z" />
<path fill="#a53f0f" opacity="1.00" d=" M 55.66 63.11 C 56.46 62.75 57.27 62.40 58.09 62.08 C 56.63 70.29 45.49 71.09 38.62 72.21 C 38.33 71.96 37.76 71.48 37.47 71.23 C 37.43 70.82 37.34 69.99 37.30 69.57 C 43.78 68.79 50.92 68.19 55.66 63.11 Z" />
<path fill="#fee675" opacity="1.00" d=" M 37.67 77.75 C 50.84 74.38 64.68 68.45 78.34 72.85 C 80.70 73.33 80.83 75.72 80.79 77.67 C 78.01 78.67 74.87 78.72 72.26 80.13 C 71.25 82.68 70.50 86.68 67.05 86.76 C 62.59 87.72 58.45 85.27 54.14 85.10 C 46.97 87.07 39.29 90.63 31.86 88.11 C 27.61 83.80 33.27 78.60 37.67 77.75 Z" />
</svg>
