<?xml version="1.0" encoding="UTF-8" ?>
<!DOCTYPE svg PUBLIC "-//W3C//DTD SVG 1.1//EN" "http://www.w3.org/Graphics/SVG/1.1/DTD/svg11.dtd">
<svg width="96pt" height="96pt" viewBox="0 0 96 96" version="1.1" xmlns="http://www.w3.org/2000/svg">
<g id="#eea54fff">
<path fill="#eea54f" opacity="1.00" d=" M 31.20 8.79 C 41.61 3.79 54.56 3.82 64.98 8.78 C 64.22 9.05 62.71 9.57 61.95 9.83 C 53.52 6.85 44.08 6.55 35.58 9.41 C 35.44 9.74 35.18 10.41 35.05 10.74 C 33.78 10.07 32.49 9.41 31.20 8.79 Z" />
</g>
<g id="#a23d0dff">
<path fill="#a23d0d" opacity="1.00" d=" M 17.72 15.66 C 19.96 12.48 22.13 9.12 25.11 6.59 C 27.26 6.88 29.19 8.02 31.20 8.79 C 32.49 9.41 33.78 10.07 35.05 10.74 C 34.45 15.24 29.76 12.21 27.33 11.08 C 26.64 9.13 24.21 10.29 24.78 12.08 C 24.01 13.45 23.09 14.73 22.09 15.94 C 21.72 16.37 20.98 17.23 20.61 17.65 C 19.99 17.40 19.39 17.12 18.79 16.84 L 17.72 15.66 Z" />
</g>
<g id="#a33d0eff">
<path fill="#a33d0e" opacity="1.00" d=" M 64.98 8.78 C 67.05 8.14 68.95 7.00 71.07 6.51 C 73.94 8.92 76.09 12.09 78.26 15.13 C 78.06 15.71 77.67 16.87 77.48 17.45 C 77.05 17.53 76.20 17.69 75.77 17.76 C 75.41 17.39 74.68 16.66 74.32 16.29 C 73.47 14.95 72.66 13.58 71.94 12.17 C 71.67 11.62 71.13 10.52 70.86 9.97 C 70.34 10.20 69.31 10.65 68.79 10.88 C 68.40 11.11 67.62 11.59 67.23 11.82 C 65.34 12.46 62.67 14.50 61.32 11.97 C 61.48 11.43 61.79 10.37 61.95 9.83 C 62.71 9.57 64.22 9.05 64.98 8.78 Z" />
</g>
<g id="#fde877ff">
<path fill="#fde877" opacity="1.00" d=" M 35.58 9.41 C 44.08 6.55 53.52 6.85 61.95 9.83 C 61.79 10.37 61.48 11.43 61.32 11.97 C 62.67 14.50 65.34 12.46 67.23 11.82 C 69.46 13.52 71.87 14.94 74.32 16.29 C 74.68 16.66 75.41 17.39 75.77 17.76 C 76.20 17.69 77.05 17.53 77.48 17.45 L 78.05 17.36 C 77.51 17.53 76.41 17.87 75.86 18.04 C 81.79 24.47 86.77 32.13 88.09 40.93 C 89.43 47.84 88.67 55.05 86.38 61.68 C 81.86 60.78 77.51 62.73 73.02 62.88 C 67.71 63.35 62.43 62.41 57.28 61.18 C 57.57 65.02 59.50 69.66 56.20 72.71 C 56.63 66.98 56.21 60.33 51.81 56.10 C 49.72 53.96 46.10 53.82 43.97 55.98 C 39.19 60.39 38.79 67.60 39.79 73.64 L 39.91 74.26 C 36.61 67.30 38.00 57.76 44.49 53.04 C 42.90 50.97 41.32 48.90 39.71 46.85 C 37.94 47.36 36.12 47.63 34.28 47.67 C 38.06 45.90 41.60 43.03 42.83 38.89 C 45.33 32.38 41.66 24.44 35.27 21.83 C 31.91 20.31 28.09 20.55 24.64 21.61 C 25.11 19.91 25.58 18.20 26.05 16.50 C 24.73 16.31 23.41 16.12 22.09 15.94 C 23.09 14.73 24.01 13.45 24.78 12.08 C 25.42 11.83 26.69 11.33 27.33 11.08 C 29.76 12.21 34.45 15.24 35.05 10.74 C 35.18 10.41 35.44 9.74 35.58 9.41 M 61.33 20.48 C 55.28 21.88 50.50 27.70 50.86 34.01 C 50.73 40.57 56.07 46.48 62.50 47.37 C 70.40 48.77 78.51 42.07 78.31 33.97 C 78.73 25.27 69.71 18.21 61.33 20.48 Z" />
</g>
<g id="#683e1bb8">
<path fill="#683e1b" opacity="0.72" d=" M 24.78 12.08 C 24.21 10.29 26.64 9.13 27.33 11.08 C 26.69 11.33 25.42 11.83 24.78 12.08 Z" />
</g>
<g id="#55280dae">
<path fill="#55280d" opacity="0.68" d=" M 68.79 10.88 C 69.31 10.65 70.34 10.20 70.86 9.97 C 71.13 10.52 71.67 11.62 71.94 12.17 C 70.73 12.19 69.68 11.75 68.79 10.88 Z" />
</g>
<g id="#e7a953fb">
<path fill="#e7a953" opacity="1.00" d=" M 67.23 11.82 C 67.62 11.59 68.40 11.11 68.79 10.88 C 69.68 11.75 70.73 12.19 71.94 12.17 C 72.66 13.58 73.47 14.95 74.32 16.29 C 71.87 14.94 69.46 13.52 67.23 11.82 Z" />
</g>
<g id="#eea950ff">
<path fill="#eea950" opacity="1.00" d=" M 18.79 16.84 C 19.39 17.12 19.99 17.40 20.61 17.65 C 15.00 23.57 10.20 30.53 8.49 38.62 C 5.87 49.51 7.90 61.49 14.24 70.75 C 21.59 81.87 34.71 88.96 48.06 88.82 C 61.77 88.91 75.33 81.52 82.46 69.78 C 84.04 67.22 85.36 64.51 86.38 61.68 C 88.67 55.05 89.43 47.84 88.09 40.93 C 86.77 32.13 81.79 24.47 75.86 18.04 C 76.41 17.87 77.51 17.53 78.05 17.36 C 86.31 25.20 91.17 36.59 90.95 48.00 C 91.24 59.09 86.66 70.07 78.96 77.99 C 70.99 86.28 59.55 91.26 48.01 90.96 C 33.56 91.32 19.44 83.34 11.79 71.16 C 0.76 54.49 3.61 30.03 18.79 16.84 Z" />
</g>
<g id="#ffca73ff">
<path fill="#ffca73" opacity="1.00" d=" M 22.09 15.94 C 23.41 16.12 24.73 16.31 26.05 16.50 C 25.58 18.20 25.11 19.91 24.64 21.61 C 19.89 23.82 15.94 28.52 16.16 33.97 C 15.71 39.17 18.87 44.24 23.44 46.59 C 26.74 48.47 30.67 47.72 34.28 47.67 C 36.12 47.63 37.94 47.36 39.71 46.85 C 41.32 48.90 42.90 50.97 44.49 53.04 C 38.00 57.76 36.61 67.30 39.91 74.26 C 40.60 75.77 41.34 77.25 42.14 78.70 C 43.69 80.40 45.54 82.14 47.98 82.27 C 49.93 82.07 51.42 80.70 52.76 79.42 C 53.32 78.88 53.86 78.33 54.40 77.79 C 55.99 76.57 57.28 75.01 58.84 73.75 C 62.84 72.82 67.06 73.22 71.02 72.03 C 74.81 71.11 78.42 68.44 82.46 69.78 C 75.33 81.52 61.77 88.91 48.06 88.82 C 34.71 88.96 21.59 81.87 14.24 70.75 C 7.90 61.49 5.87 49.51 8.49 38.62 C 10.20 30.53 15.00 23.57 20.61 17.65 C 20.98 17.23 21.72 16.37 22.09 15.94 Z" />
</g>
<g id="#1f1f1fff">
<path fill="#1f1f1f" opacity="1.00" d=" M 61.33 20.48 C 69.71 18.21 78.73 25.27 78.31 33.97 C 78.51 42.07 70.40 48.77 62.50 47.37 C 56.07 46.48 50.73 40.57 50.86 34.01 C 50.50 27.70 55.28 21.88 61.33 20.48 M 62.40 21.46 C 56.41 22.35 51.72 28.10 51.83 34.12 C 52.20 38.97 55.25 43.54 59.83 45.35 C 66.54 48.42 75.19 43.95 76.80 36.81 C 79.39 28.45 70.89 19.53 62.40 21.46 Z" />
<path fill="#1f1f1f" opacity="1.00" d=" M 24.64 21.61 C 28.09 20.55 31.91 20.31 35.27 21.83 C 41.66 24.44 45.33 32.38 42.83 38.89 C 41.60 43.03 38.06 45.90 34.28 47.67 C 30.67 47.72 26.74 48.47 23.44 46.59 C 18.87 44.24 15.71 39.17 16.16 33.97 C 15.94 28.52 19.89 23.82 24.64 21.61 M 26.31 22.38 C 20.86 23.94 16.75 29.34 17.23 35.08 C 17.44 41.60 23.45 47.19 29.98 46.86 C 36.73 47.04 42.87 40.84 42.36 34.05 C 42.52 26.22 33.69 19.67 26.31 22.38 Z" />
<path fill="#1f1f1f" opacity="1.00" d=" M 33.41 32.45 C 34.69 30.91 37.10 31.64 37.90 33.30 C 39.38 35.46 36.12 38.54 34.04 36.99 C 32.26 36.20 31.78 33.68 33.41 32.45 Z" />
</g>
<g id="#ffffffff">
<path fill="#ffffff" opacity="1.00" d=" M 62.40 21.46 C 70.89 19.53 79.39 28.45 76.80 36.81 C 75.19 43.95 66.54 48.42 59.83 45.35 C 55.25 43.54 52.20 38.97 51.83 34.12 C 51.72 28.10 56.41 22.35 62.40 21.46 M 58.44 32.47 C 55.35 34.79 60.11 39.30 62.40 36.40 C 65.32 34.13 60.69 29.62 58.44 32.47 Z" />
<path fill="#ffffff" opacity="1.00" d=" M 26.31 22.38 C 33.69 19.67 42.52 26.22 42.36 34.05 C 42.87 40.84 36.73 47.04 29.98 46.86 C 23.45 47.19 17.44 41.60 17.23 35.08 C 16.75 29.34 20.86 23.94 26.31 22.38 M 33.41 32.45 C 31.78 33.68 32.26 36.20 34.04 36.99 C 36.12 38.54 39.38 35.46 37.90 33.30 C 37.10 31.64 34.69 30.91 33.41 32.45 Z" />
</g>
<g id="#151515ff">
<path fill="#151515" opacity="1.00" d=" M 58.44 32.47 C 60.69 29.62 65.32 34.13 62.40 36.40 C 60.11 39.30 55.35 34.79 58.44 32.47 M 60.09 33.22 C 58.43 33.57 59.25 36.24 60.82 35.70 C 62.44 35.32 61.63 32.76 60.09 33.22 Z" />
</g>
<g id="#202020ff">
<path fill="#202020" opacity="1.00" d=" M 60.09 33.22 C 61.63 32.76 62.44 35.32 60.82 35.70 C 59.25 36.24 58.43 33.57 60.09 33.22 Z" />
</g>
<g id="#7d180fff">
<path fill="#7d180f" opacity="1.00" d=" M 43.97 55.98 C 46.10 53.82 49.72 53.96 51.81 56.10 C 56.21 60.33 56.63 66.98 56.20 72.71 L 55.80 73.29 C 55.61 73.34 55.21 73.43 55.02 73.48 C 50.62 71.00 45.27 70.96 40.84 73.38 C 40.58 73.45 40.05 73.57 39.79 73.64 C 38.79 67.60 39.19 60.39 43.97 55.98 Z" />
</g>
<g id="#fed875ff">
<path fill="#fed875" opacity="1.00" d=" M 57.28 61.18 C 62.43 62.41 67.71 63.35 73.02 62.88 C 77.51 62.73 81.86 60.78 86.38 61.68 C 85.36 64.51 84.04 67.22 82.46 69.78 C 78.42 68.44 74.81 71.11 71.02 72.03 C 67.06 73.22 62.84 72.82 58.84 73.75 C 57.28 75.01 55.99 76.57 54.40 77.79 C 54.86 76.28 55.25 74.76 55.80 73.29 L 56.20 72.71 C 59.50 69.66 57.57 65.02 57.28 61.18 Z" />
</g>
<g id="#f67a6cff">
<path fill="#f67a6c" opacity="1.00" d=" M 40.84 73.38 C 45.27 70.96 50.62 71.00 55.02 73.48 C 50.38 74.29 45.52 73.81 40.84 73.38 Z" />
</g>
<g id="#e55e3dff">
<path fill="#e55e3d" opacity="1.00" d=" M 39.79 73.64 C 40.05 73.57 40.58 73.45 40.84 73.38 C 45.52 73.81 50.38 74.29 55.02 73.48 C 55.21 73.43 55.61 73.34 55.80 73.29 C 55.25 74.76 54.86 76.28 54.40 77.79 C 53.86 78.33 53.32 78.88 52.76 79.42 C 49.33 78.28 45.69 78.53 42.14 78.70 C 41.34 77.25 40.60 75.77 39.91 74.26 L 39.79 73.64 Z" />
</g>
<g id="#df3f06ff">
<path fill="#df3f06" opacity="1.00" d=" M 42.14 78.70 C 45.69 78.53 49.33 78.28 52.76 79.42 C 51.42 80.70 49.93 82.07 47.98 82.27 C 45.54 82.14 43.69 80.40 42.14 78.70 Z" />
</g>
</svg>
