<?xml version="1.0" encoding="UTF-8" ?>
<!DOCTYPE svg PUBLIC "-//W3C//DTD SVG 1.1//EN" "http://www.w3.org/Graphics/SVG/1.1/DTD/svg11.dtd">
<svg width="96pt" height="96pt" viewBox="0 0 96 96" version="1.1" xmlns="http://www.w3.org/2000/svg">
<g id="#eea44fff">
<path fill="#eea44f" opacity="1.00" d=" M 17.68 17.74 C 31.00 3.78 54.09 1.06 70.38 11.34 C 69.68 11.50 68.28 11.81 67.59 11.96 C 60.79 9.13 53.53 6.95 46.08 7.46 C 39.54 7.59 33.45 10.12 27.52 12.61 C 28.73 13.03 29.94 13.45 31.16 13.85 C 28.81 13.75 26.40 13.54 24.08 14.09 C 21.81 15.05 19.83 16.55 17.68 17.74 Z" />
</g>
<g id="#fded78ff">
<path fill="#fded78" opacity="1.00" d=" M 27.52 12.61 C 33.45 10.12 39.54 7.59 46.08 7.46 C 53.53 6.95 60.79 9.13 67.59 11.96 C 64.95 13.31 62.58 15.12 60.31 17.00 C 60.74 17.66 61.61 18.98 62.04 19.63 C 64.93 17.67 67.94 15.87 71.09 14.36 C 73.83 16.10 75.87 18.63 77.30 21.51 C 77.83 21.60 78.91 21.79 79.45 21.88 C 87.55 32.29 91.01 46.31 87.25 59.13 C 86.21 57.98 85.42 55.77 83.47 56.51 C 77.15 57.42 70.40 57.93 64.52 54.93 C 63.79 55.51 63.07 56.09 62.31 56.64 C 61.85 56.62 60.94 56.58 60.48 56.55 C 61.82 55.19 63.01 53.60 63.18 51.63 C 59.81 54.77 54.83 57.84 50.39 54.67 C 53.57 53.86 57.04 53.82 59.87 51.99 C 52.42 48.90 47.60 42.09 43.57 35.43 C 40.42 30.47 39.81 24.51 38.14 18.99 C 37.49 18.79 36.84 18.58 36.19 18.38 C 36.72 15.18 33.45 14.54 31.16 13.85 C 29.94 13.45 28.73 13.03 27.52 12.61 M 59.90 33.33 C 63.32 35.97 67.34 37.70 71.08 39.83 C 71.30 39.42 71.75 38.60 71.97 38.19 C 69.44 36.33 66.61 34.94 63.98 33.24 C 67.30 31.00 72.39 30.65 74.39 26.91 C 69.08 27.22 64.53 30.92 59.90 33.33 M 72.32 44.36 C 69.67 44.95 66.59 46.14 65.68 48.98 C 65.99 52.28 69.58 53.77 72.40 54.41 C 76.94 55.08 82.20 55.06 85.80 51.78 C 87.53 50.53 87.19 47.64 85.45 46.54 C 81.74 43.80 76.72 43.41 72.32 44.36 Z" />
</g>
<g id="#a23d0dff">
<path fill="#a23d0d" opacity="1.00" d=" M 67.59 11.96 C 68.28 11.81 69.68 11.50 70.38 11.34 C 75.22 10.98 78.18 15.29 79.89 19.20 L 79.88 19.27 C 79.77 19.92 79.55 21.22 79.45 21.88 C 78.91 21.79 77.83 21.60 77.30 21.51 C 75.87 18.63 73.83 16.10 71.09 14.36 C 67.94 15.87 64.93 17.67 62.04 19.63 C 61.61 18.98 60.74 17.66 60.31 17.00 C 62.58 15.12 64.95 13.31 67.59 11.96 Z" />
</g>
<g id="#a23809ff">
<path fill="#a23809" opacity="1.00" d=" M 17.68 17.74 C 19.83 16.55 21.81 15.05 24.08 14.09 C 26.40 13.54 28.81 13.75 31.16 13.85 C 33.45 14.54 36.72 15.18 36.19 18.38 C 33.05 18.53 30.06 17.31 26.95 17.22 C 23.85 17.20 21.54 19.55 19.34 21.40 C 18.82 21.32 17.80 21.15 17.28 21.07 C 17.18 20.46 16.97 19.26 16.87 18.66 L 16.81 18.26 L 17.68 17.74 Z" />
</g>
<g id="#fedf76ff">
<path fill="#fedf76" opacity="1.00" d=" M 19.34 21.40 C 21.54 19.55 23.85 17.20 26.95 17.22 C 30.06 17.31 33.05 18.53 36.19 18.38 C 36.84 18.58 37.49 18.79 38.14 18.99 C 39.81 24.51 40.42 30.47 43.57 35.43 C 47.60 42.09 52.42 48.90 59.87 51.99 C 57.04 53.82 53.57 53.86 50.39 54.67 C 49.57 54.24 48.76 53.80 47.95 53.36 C 45.74 54.39 43.53 55.87 40.98 55.65 C 37.92 55.69 35.97 52.98 33.68 51.38 C 33.38 54.15 35.81 55.64 37.60 57.21 C 37.71 61.26 38.15 65.31 39.28 69.21 C 39.59 70.04 39.92 70.87 40.30 71.68 C 41.92 74.56 44.23 78.01 47.95 77.95 C 51.64 77.95 53.94 74.52 55.53 71.64 C 55.86 70.93 56.16 70.21 56.44 69.48 C 57.69 65.53 57.98 61.37 58.26 57.27 C 59.00 57.02 59.74 56.79 60.48 56.55 C 60.94 56.58 61.85 56.62 62.31 56.64 C 63.07 56.09 63.79 55.51 64.52 54.93 C 70.40 57.93 77.15 57.42 83.47 56.51 C 85.42 55.77 86.21 57.98 87.25 59.13 C 86.15 62.83 84.49 66.34 82.47 69.62 C 78.28 69.30 74.62 71.67 70.65 72.57 C 66.02 73.60 61.21 74.90 56.46 73.88 C 54.23 76.38 51.73 79.51 47.98 79.19 C 42.51 79.15 39.40 73.85 37.70 69.34 C 36.46 65.58 32.89 63.53 30.63 60.48 C 28.87 58.39 27.39 55.48 24.35 55.20 C 25.44 52.10 26.04 48.42 24.66 45.34 C 21.51 43.84 17.78 44.59 14.39 44.49 C 16.47 43.52 18.71 42.99 20.94 42.48 C 21.20 35.45 20.86 28.32 23.09 21.54 C 22.09 21.52 21.09 21.49 20.10 21.46 L 19.34 21.40 M 26.27 29.53 C 24.84 31.35 23.58 33.82 24.86 36.08 C 26.28 39.44 31.16 40.46 33.59 37.60 C 36.18 35.24 35.08 31.34 32.91 29.11 C 30.72 28.29 28.26 28.04 26.27 29.53 Z" />
</g>
<g id="#eea950ff">
<path fill="#eea950" opacity="1.00" d=" M 9.62 67.35 C 1.58 51.73 4.42 31.16 16.87 18.66 C 16.97 19.26 17.18 20.46 17.28 21.07 C 17.80 21.15 18.82 21.32 19.34 21.40 L 20.10 21.46 C 16.93 21.52 14.91 23.98 13.49 26.52 C 7.42 36.35 5.66 48.81 9.09 59.89 C 12.91 72.93 23.74 83.58 36.82 87.24 C 53.68 92.33 73.59 84.95 82.47 69.62 C 84.49 66.34 86.15 62.83 87.25 59.13 C 91.01 46.31 87.55 32.29 79.45 21.88 C 79.55 21.22 79.77 19.92 79.88 19.27 C 87.31 27.19 91.37 38.16 90.94 49.02 C 90.99 61.93 84.39 74.50 74.15 82.27 C 66.45 88.19 56.70 91.40 46.97 90.95 C 31.37 90.97 16.48 81.25 9.62 67.35 Z" />
</g>
<g id="#ffca73ff">
<path fill="#ffca73" opacity="1.00" d=" M 20.10 21.46 C 21.09 21.49 22.09 21.52 23.09 21.54 C 20.86 28.32 21.20 35.45 20.94 42.48 C 18.71 42.99 16.47 43.52 14.39 44.49 L 13.71 44.78 C 11.69 46.08 8.63 47.19 8.62 50.05 C 8.81 52.52 11.18 53.63 13.22 54.32 C 16.88 55.12 20.63 55.17 24.35 55.20 C 27.39 55.48 28.87 58.39 30.63 60.48 C 32.89 63.53 36.46 65.58 37.70 69.34 C 39.40 73.85 42.51 79.15 47.98 79.19 C 51.73 79.51 54.23 76.38 56.46 73.88 C 61.21 74.90 66.02 73.60 70.65 72.57 C 74.62 71.67 78.28 69.30 82.47 69.62 C 73.59 84.95 53.68 92.33 36.82 87.24 C 23.74 83.58 12.91 72.93 9.09 59.89 C 5.66 48.81 7.42 36.35 13.49 26.52 C 14.91 23.98 16.93 21.52 20.10 21.46 Z" />
</g>
<g id="#0c0e18ff">
<path fill="#0c0e18" opacity="1.00" d=" M 59.90 33.33 C 64.53 30.92 69.08 27.22 74.39 26.91 C 72.39 30.65 67.30 31.00 63.98 33.24 C 66.61 34.94 69.44 36.33 71.97 38.19 C 71.75 38.60 71.30 39.42 71.08 39.83 C 67.34 37.70 63.32 35.97 59.90 33.33 Z" />
</g>
<g id="#828282ff">
<path fill="#828282" opacity="1.00" d=" M 26.27 29.53 C 28.26 28.04 30.72 28.29 32.91 29.11 C 32.63 29.87 32.07 31.40 31.79 32.16 C 29.49 32.47 26.93 32.24 26.27 29.53 Z" />
</g>
<g id="#1f1f1fff">
<path fill="#1f1f1f" opacity="1.00" d=" M 24.86 36.08 C 23.58 33.82 24.84 31.35 26.27 29.53 C 26.93 32.24 29.49 32.47 31.79 32.16 C 32.07 31.40 32.63 29.87 32.91 29.11 C 35.08 31.34 36.18 35.24 33.59 37.60 C 31.16 40.46 26.28 39.44 24.86 36.08 Z" />
</g>
<g id="#f2a85fff">
<path fill="#f2a85f" opacity="1.00" d=" M 72.32 44.36 C 76.72 43.41 81.74 43.80 85.45 46.54 C 87.19 47.64 87.53 50.53 85.80 51.78 C 82.20 55.06 76.94 55.08 72.40 54.41 C 69.58 53.77 65.99 52.28 65.68 48.98 C 66.59 46.14 69.67 44.95 72.32 44.36 M 72.61 46.69 C 70.89 47.21 69.63 48.79 70.43 50.61 C 71.75 52.18 74.05 52.55 76.00 52.67 C 78.95 52.71 83.34 52.09 82.92 48.17 C 80.00 45.92 76.06 45.74 72.61 46.69 Z" />
</g>
<g id="#f6a06dff">
<path fill="#f6a06d" opacity="1.00" d=" M 8.62 50.05 C 8.63 47.19 11.69 46.08 13.71 44.78 C 13.57 47.96 13.40 51.14 13.22 54.32 C 11.18 53.63 8.81 52.52 8.62 50.05 Z" />
</g>
<g id="#ee893eff">
<path fill="#ee893e" opacity="1.00" d=" M 13.71 44.78 L 14.39 44.49 C 17.78 44.59 21.51 43.84 24.66 45.34 C 26.04 48.42 25.44 52.10 24.35 55.20 C 20.63 55.17 16.88 55.12 13.22 54.32 C 13.40 51.14 13.57 47.96 13.71 44.78 Z" />
</g>
<g id="#ec973cff">
<path fill="#ec973c" opacity="1.00" d=" M 72.61 46.69 C 76.06 45.74 80.00 45.92 82.92 48.17 C 83.34 52.09 78.95 52.71 76.00 52.67 C 74.05 52.55 71.75 52.18 70.43 50.61 C 69.63 48.79 70.89 47.21 72.61 46.69 Z" />
</g>
<g id="#7d180fff">
<path fill="#7d180f" opacity="1.00" d=" M 33.68 51.38 C 35.97 52.98 37.92 55.69 40.98 55.65 C 43.53 55.87 45.74 54.39 47.95 53.36 C 48.76 53.80 49.57 54.24 50.39 54.67 C 54.83 57.84 59.81 54.77 63.18 51.63 C 63.01 53.60 61.82 55.19 60.48 56.55 C 59.74 56.79 59.00 57.02 58.26 57.27 C 57.98 61.37 57.69 65.53 56.44 69.48 L 55.92 68.89 C 54.15 66.61 52.23 63.94 49.07 63.73 C 45.36 63.09 42.11 65.59 40.41 68.68 C 40.13 68.81 39.56 69.08 39.28 69.21 C 38.15 65.31 37.71 61.26 37.60 57.21 C 35.81 55.64 33.38 54.15 33.68 51.38 Z" />
</g>
<g id="#f37666ff">
<path fill="#f37666" opacity="1.00" d=" M 40.41 68.68 C 42.11 65.59 45.36 63.09 49.07 63.73 C 52.23 63.94 54.15 66.61 55.92 68.89 C 53.42 67.68 50.86 66.27 48.00 66.30 C 45.28 66.27 42.85 67.66 40.41 68.68 Z" />
</g>
<g id="#e66243ff">
<path fill="#e66243" opacity="1.00" d=" M 40.41 68.68 C 42.85 67.66 45.28 66.27 48.00 66.30 C 50.86 66.27 53.42 67.68 55.92 68.89 L 56.44 69.48 C 56.16 70.21 55.86 70.93 55.53 71.64 C 50.45 71.76 45.37 71.72 40.30 71.68 C 39.92 70.87 39.59 70.04 39.28 69.21 C 39.56 69.08 40.13 68.81 40.41 68.68 Z" />
</g>
<g id="#e04f1cff">
<path fill="#e04f1c" opacity="1.00" d=" M 40.30 71.68 C 45.37 71.72 50.45 71.76 55.53 71.64 C 53.94 74.52 51.64 77.95 47.95 77.95 C 44.23 78.01 41.92 74.56 40.30 71.68 Z" />
</g>
</svg>
