<?xml version="1.0" encoding="UTF-8" ?>
<!DOCTYPE svg PUBLIC "-//W3C//DTD SVG 1.1//EN" "http://www.w3.org/Graphics/SVG/1.1/DTD/svg11.dtd">
<svg width="96pt" height="96pt" viewBox="0 0 96 96" version="1.1" xmlns="http://www.w3.org/2000/svg">
<path fill="#e9ae57" opacity="1.00" d=" M 13.67 22.59 C 23.71 9.01 42.40 2.83 58.57 7.66 C 77.22 12.59 90.86 31.78 88.86 51.08 C 87.74 49.76 86.53 48.52 85.33 47.28 C 85.41 46.61 85.56 45.26 85.64 44.59 C 86.36 40.47 85.16 36.37 83.28 32.73 C 78.47 21.54 68.22 12.53 56.30 9.78 C 48.85 8.77 41.03 8.56 33.77 10.83 C 26.34 13.64 19.76 18.67 15.02 25.04 C 13.96 26.31 13.86 28.01 13.63 29.58 C 8.01 34.89 7.01 43.32 10.12 50.22 C 9.77 50.64 9.09 51.49 8.74 51.91 C 5.81 54.60 6.73 59.13 9.43 61.62 C 9.86 62.21 10.28 62.80 10.69 63.41 C 11.91 65.47 12.92 67.65 13.96 69.82 C 16.86 68.22 19.69 66.25 23.03 65.74 C 27.77 65.40 33.11 67.32 35.32 71.80 C 37.37 76.27 36.58 81.49 34.56 85.82 C 42.77 88.06 51.35 88.23 59.51 85.68 C 57.17 79.24 59.90 72.85 63.60 67.59 C 67.08 65.24 71.46 65.05 75.36 66.49 C 75.42 66.51 75.56 66.56 75.62 66.58 L 75.87 66.67 C 77.37 67.75 78.82 68.88 80.27 70.02 C 80.85 68.80 81.43 67.59 81.99 66.37 C 82.65 64.89 83.28 63.40 83.91 61.91 C 83.01 61.31 82.10 60.71 81.20 60.13 C 83.55 60.37 85.86 59.72 87.78 58.36 C 86.58 63.33 84.42 67.99 81.52 72.19 C 83.93 77.53 82.88 84.65 77.68 87.94 C 73.22 91.64 66.96 89.81 62.42 87.34 C 52.65 90.84 41.71 90.93 31.93 87.40 C 27.15 91.00 19.71 90.97 15.52 86.46 C 11.96 82.96 11.57 77.47 13.12 72.94 C 2.44 58.36 2.33 36.84 13.67 22.59 M 19.42 68.84 C 17.37 70.23 14.68 71.30 14.01 73.95 C 11.47 80.29 16.61 87.47 22.74 89.17 C 27.45 89.47 32.77 87.17 34.01 82.21 L 34.83 82.18 C 34.81 79.85 34.93 77.51 34.60 75.19 C 32.94 69.01 25.03 65.17 19.42 68.84 M 60.91 76.82 C 59.54 79.85 60.13 84.00 63.16 85.80 C 66.28 87.85 69.80 90.29 73.73 89.78 C 77.44 87.97 79.17 83.93 81.35 80.67 C 81.36 80.62 81.37 80.52 81.38 80.47 C 83.89 72.53 75.00 66.39 67.89 66.98 C 64.99 69.80 62.29 72.95 60.91 76.82 Z" />
<path fill="#fde877" opacity="1.00" d=" M 33.77 10.83 C 41.03 8.56 48.85 8.77 56.30 9.78 C 68.22 12.53 78.47 21.54 83.28 32.73 C 80.44 29.22 76.59 26.35 72.05 25.58 C 63.32 23.87 53.73 30.19 52.40 39.11 C 51.25 45.18 53.61 51.71 58.56 55.46 C 63.38 59.41 70.23 59.60 75.93 57.68 C 77.30 57.92 78.57 58.48 79.75 59.21 C 80.11 59.44 80.84 59.90 81.20 60.13 C 82.10 60.71 83.01 61.31 83.91 61.91 C 83.28 63.40 82.65 64.89 81.99 66.37 C 79.95 66.49 77.91 66.59 75.87 66.67 L 75.62 66.58 C 75.56 66.56 75.42 66.51 75.36 66.49 C 71.46 65.05 67.08 65.24 63.60 67.59 C 60.60 68.47 57.43 68.36 54.38 67.86 C 54.30 64.18 51.83 60.35 47.97 59.92 C 44.58 60.02 42.68 63.24 40.62 65.45 C 40.61 61.41 37.94 58.21 36.10 54.84 C 41.37 49.91 43.34 41.64 40.11 35.06 C 37.04 27.71 28.43 23.98 20.83 25.76 L 20.84 25.38 C 27.54 26.32 35.00 23.16 36.55 16.04 C 35.38 15.78 34.21 15.52 33.04 15.26 C 33.32 13.79 33.54 12.31 33.77 10.83 M 58.67 18.51 C 60.92 24.45 67.82 25.50 73.39 25.30 C 73.36 24.48 73.29 22.84 73.26 22.02 C 70.82 21.77 68.26 21.95 65.94 21.08 C 63.68 19.91 62.52 17.49 60.77 15.77 C 59.07 14.42 57.41 17.16 58.67 18.51 Z" />
<path fill="#ffcf74" opacity="1.00" d=" M 15.02 25.04 C 19.76 18.67 26.34 13.64 33.77 10.83 C 33.54 12.31 33.32 13.79 33.04 15.26 C 31.69 20.78 25.91 22.40 20.88 22.02 C 20.87 22.86 20.85 24.54 20.84 25.38 L 20.83 25.76 C 18.25 26.65 15.85 27.99 13.63 29.58 C 13.86 28.01 13.96 26.31 15.02 25.04 Z" />
<path fill="#a43e0e" opacity="1.00" d=" M 33.04 15.26 C 34.21 15.52 35.38 15.78 36.55 16.04 C 35.00 23.16 27.54 26.32 20.84 25.38 C 20.85 24.54 20.87 22.86 20.88 22.02 C 25.91 22.40 31.69 20.78 33.04 15.26 Z" />
<path fill="#a43e0e" opacity="1.00" d=" M 58.67 18.51 C 57.41 17.16 59.07 14.42 60.77 15.77 C 62.52 17.49 63.68 19.91 65.94 21.08 C 68.26 21.95 70.82 21.77 73.26 22.02 C 73.29 22.84 73.36 24.48 73.39 25.30 C 67.82 25.50 60.92 24.45 58.67 18.51 Z" />
<path fill="#1f1f1f" opacity="1.00" d=" M 13.63 29.58 C 15.85 27.99 18.25 26.65 20.83 25.76 C 28.43 23.98 37.04 27.71 40.11 35.06 C 43.34 41.64 41.37 49.91 36.10 54.84 C 31.48 58.73 25.31 59.12 19.57 58.45 C 18.97 56.46 18.75 54.27 17.56 52.52 C 15.84 50.17 12.67 50.52 10.12 50.22 C 7.01 43.32 8.01 34.89 13.63 29.58 M 19.27 29.10 C 14.42 30.36 11.52 36.00 13.11 40.72 C 14.45 45.92 20.83 48.70 25.65 46.51 C 30.32 44.83 32.51 38.99 30.64 34.51 C 29.08 30.03 23.70 27.68 19.27 29.10 M 29.57 47.55 C 28.03 48.61 27.26 50.95 28.63 52.47 C 30.18 54.88 34.41 53.62 34.64 50.82 C 34.88 48.23 31.84 46.28 29.57 47.55 Z" />
<path fill="#1f1f1f" opacity="1.00" d=" M 52.40 39.11 C 53.73 30.19 63.32 23.87 72.05 25.58 C 76.59 26.35 80.44 29.22 83.28 32.73 C 85.16 36.37 86.36 40.47 85.64 44.59 C 85.53 45.26 85.32 46.61 85.21 47.29 C 83.84 47.53 82.47 47.73 81.09 47.84 C 80.60 47.72 79.64 47.49 79.16 47.37 C 77.18 46.47 74.44 46.04 73.50 48.55 C 72.40 50.96 74.62 52.73 76.65 53.43 C 76.99 54.63 77.30 55.83 77.59 57.04 C 77.18 57.20 76.35 57.52 75.93 57.68 C 70.23 59.60 63.38 59.41 58.56 55.46 C 53.61 51.71 51.25 45.18 52.40 39.11 M 63.57 28.67 C 58.66 30.39 56.39 36.64 58.68 41.23 C 60.96 46.48 68.28 48.16 72.82 44.85 C 77.29 41.86 77.89 34.76 74.21 30.93 C 71.61 28.01 67.14 27.09 63.57 28.67 Z" />
<path fill="#ffffff" opacity="1.00" d=" M 63.57 28.67 C 67.14 27.09 71.61 28.01 74.21 30.93 C 77.89 34.76 77.29 41.86 72.82 44.85 C 68.28 48.16 60.96 46.48 58.68 41.23 C 56.39 36.64 58.66 30.39 63.57 28.67 Z" />
<path fill="#ffffff" opacity="1.00" d=" M 19.27 29.10 C 23.70 27.68 29.08 30.03 30.64 34.51 C 32.51 38.99 30.32 44.83 25.65 46.51 C 20.83 48.70 14.45 45.92 13.11 40.72 C 11.52 36.00 14.42 30.36 19.27 29.10 Z" />
<path fill="#54bce8" opacity="1.00" d=" M 85.64 44.59 C 85.56 45.26 85.41 46.61 85.33 47.28 C 86.53 48.52 87.74 49.76 88.86 51.08 C 89.76 53.52 89.36 56.29 87.78 58.36 C 85.86 59.72 83.55 60.37 81.20 60.13 C 80.84 59.90 80.11 59.44 79.75 59.21 C 81.09 59.05 82.42 58.88 83.76 58.71 C 83.74 55.26 83.74 51.82 83.75 48.37 C 83.08 48.24 81.75 47.97 81.09 47.84 C 82.47 47.73 83.84 47.53 85.21 47.29 C 85.32 46.61 85.53 45.26 85.64 44.59 Z" />
<path fill="#ffffff" opacity="1.00" d=" M 29.57 47.55 C 31.84 46.28 34.88 48.23 34.64 50.82 C 34.41 53.62 30.18 54.88 28.63 52.47 C 27.26 50.95 28.03 48.61 29.57 47.55 Z" />
<path fill="#ffffff" opacity="1.00" d=" M 73.50 48.55 C 74.44 46.04 77.18 46.47 79.16 47.37 C 78.32 49.39 77.47 51.40 76.65 53.43 C 74.62 52.73 72.40 50.96 73.50 48.55 Z" />
<path fill="#8cceea" opacity="1.00" d=" M 79.16 47.37 C 79.64 47.49 80.60 47.72 81.09 47.84 C 81.75 47.97 83.08 48.24 83.75 48.37 C 83.74 51.82 83.74 55.26 83.76 58.71 C 82.42 58.88 81.09 59.05 79.75 59.21 C 78.57 58.48 77.30 57.92 75.93 57.68 C 76.35 57.52 77.18 57.20 77.59 57.04 C 77.30 55.83 76.99 54.63 76.65 53.43 C 77.47 51.40 78.32 49.39 79.16 47.37 M 77.98 56.53 C 78.93 56.94 79.88 57.36 80.83 57.77 C 80.75 54.81 80.71 51.85 80.61 48.90 C 78.99 51.14 78.01 53.74 77.98 56.53 Z" />
<path fill="#cae1eb" opacity="1.00" d=" M 77.98 56.53 C 78.01 53.74 78.99 51.14 80.61 48.90 C 80.71 51.85 80.75 54.81 80.83 57.77 C 79.88 57.36 78.93 56.94 77.98 56.53 Z" />
<path fill="#54bce8" opacity="1.00" d=" M 10.12 50.22 C 12.67 50.52 15.84 50.17 17.56 52.52 C 18.75 54.27 18.97 56.46 19.57 58.45 C 18.09 60.05 16.55 61.61 14.73 62.84 C 14.52 59.39 14.89 55.92 14.37 52.50 C 13.99 50.97 11.89 51.60 10.73 51.37 C 10.23 51.50 9.24 51.77 8.74 51.91 C 9.09 51.49 9.77 50.64 10.12 50.22 Z" />
<path fill="#8cceea" opacity="1.00" d=" M 10.73 51.37 C 11.89 51.60 13.99 50.97 14.37 52.50 C 14.89 55.92 14.52 59.39 14.73 62.84 C 13.39 63.07 12.04 63.22 10.69 63.41 C 10.28 62.80 9.86 62.21 9.43 61.62 C 11.21 58.49 10.77 54.82 10.73 51.37 Z" />
<path fill="#cae1eb" opacity="1.00" d=" M 9.43 61.62 C 6.73 59.13 5.81 54.60 8.74 51.91 C 9.24 51.77 10.23 51.50 10.73 51.37 C 10.77 54.82 11.21 58.49 9.43 61.62 Z" />
<path fill="#ffcf74" opacity="1.00" d=" M 19.57 58.45 C 25.31 59.12 31.48 58.73 36.10 54.84 C 37.94 58.21 40.61 61.41 40.62 65.45 C 40.71 66.31 40.90 68.03 40.99 68.89 C 43.50 67.53 45.36 65.02 47.98 63.96 C 50.11 65.27 51.84 67.29 54.38 67.86 C 57.43 68.36 60.60 68.47 63.60 67.59 C 59.90 72.85 57.17 79.24 59.51 85.68 C 51.35 88.23 42.77 88.06 34.56 85.82 C 36.58 81.49 37.37 76.27 35.32 71.80 C 33.11 67.32 27.77 65.40 23.03 65.74 C 19.69 66.25 16.86 68.22 13.96 69.82 C 12.92 67.65 11.91 65.47 10.69 63.41 C 12.04 63.22 13.39 63.07 14.73 62.84 C 16.55 61.61 18.09 60.05 19.57 58.45 Z" />
<path fill="#a43e0e" opacity="1.00" d=" M 40.62 65.45 C 42.68 63.24 44.58 60.02 47.97 59.92 C 51.83 60.35 54.30 64.18 54.38 67.86 C 51.84 67.29 50.11 65.27 47.98 63.96 C 45.36 65.02 43.50 67.53 40.99 68.89 C 40.90 68.03 40.71 66.31 40.62 65.45 Z" />
<path fill="#ffcf74" opacity="1.00" d=" M 75.36 66.49 C 75.42 66.51 75.56 66.56 75.62 66.58 C 75.56 66.56 75.42 66.51 75.36 66.49 Z" />
<path fill="#ffcf74" opacity="1.00" d=" M 75.87 66.67 C 77.91 66.59 79.95 66.49 81.99 66.37 C 81.43 67.59 80.85 68.80 80.27 70.02 C 78.82 68.88 77.37 67.75 75.87 66.67 Z" />
<path fill="#fde877" opacity="1.00" d=" M 19.42 68.84 C 25.03 65.17 32.94 69.01 34.60 75.19 C 34.93 77.51 34.81 79.85 34.83 82.18 L 34.01 82.21 C 25.94 84.22 18.45 76.88 19.42 68.84 Z" />
<path fill="#ffcf74" opacity="1.00" d=" M 60.91 76.82 C 62.29 72.95 64.99 69.80 67.89 66.98 C 66.13 71.30 67.28 76.12 70.96 79.05 C 73.58 82.18 77.85 81.53 81.35 80.67 C 79.17 83.93 77.44 87.97 73.73 89.78 C 69.80 90.29 66.28 87.85 63.16 85.80 C 60.13 84.00 59.54 79.85 60.91 76.82 Z" />
<path fill="#fde877" opacity="1.00" d=" M 67.89 66.98 C 75.00 66.39 83.89 72.53 81.38 80.47 C 81.37 80.52 81.36 80.62 81.35 80.67 C 77.85 81.53 73.58 82.18 70.96 79.05 C 67.28 76.12 66.13 71.30 67.89 66.98 Z" />
<path fill="#ffcf74" opacity="1.00" d=" M 14.01 73.95 C 14.68 71.30 17.37 70.23 19.42 68.84 C 18.45 76.88 25.94 84.22 34.01 82.21 C 32.77 87.17 27.45 89.47 22.74 89.17 C 16.61 87.47 11.47 80.29 14.01 73.95 Z" />
<path fill="#ffcf74" opacity="1.00" d=" M 81.35 80.67 C 81.36 80.62 81.37 80.52 81.38 80.47 C 81.37 80.52 81.36 80.62 81.35 80.67 Z" />
</svg>
