<?xml version="1.0" encoding="UTF-8" ?>
<!DOCTYPE svg PUBLIC "-//W3C//DTD SVG 1.1//EN" "http://www.w3.org/Graphics/SVG/1.1/DTD/svg11.dtd">
<svg width="96pt" height="96pt" viewBox="0 0 96 96" version="1.1" xmlns="http://www.w3.org/2000/svg">
<path fill="#eca74f" opacity="1.00" d=" M 32.13 8.18 C 42.21 4.15 53.79 4.12 63.89 8.13 C 77.64 13.43 88.19 26.34 90.45 40.92 C 91.72 49.86 90.71 59.31 86.40 67.35 C 84.58 71.28 81.52 74.43 79.40 78.18 C 78.73 74.06 79.24 69.87 79.54 65.73 C 79.58 67.89 79.74 70.05 80.12 72.18 C 85.80 67.09 87.64 59.05 89.05 51.82 C 91.15 32.16 76.61 12.85 57.58 8.27 C 44.26 4.75 29.25 9.09 19.65 18.95 C 19.30 19.94 18.99 20.95 18.71 21.97 C 18.35 21.68 17.63 21.10 17.27 20.81 C 9.43 30.78 4.94 44.20 8.38 56.74 C 12.01 76.56 32.50 90.69 52.26 88.43 C 56.23 87.61 61.15 87.88 63.60 84.00 C 64.02 85.22 64.45 86.44 64.76 87.69 C 51.41 92.82 35.52 91.67 23.73 83.29 C 10.75 74.59 3.37 58.39 5.43 42.89 C 7.00 27.55 17.82 13.76 32.13 8.18 Z" />
<path fill="#fee875" opacity="1.00" d=" M 19.65 18.95 C 29.25 9.09 44.26 4.75 57.58 8.27 C 76.61 12.85 91.15 32.16 89.05 51.82 C 87.64 59.05 85.80 67.09 80.12 72.18 C 79.74 70.05 79.58 67.89 79.54 65.73 C 80.20 59.56 78.73 51.32 71.88 49.35 C 67.18 49.77 63.55 53.36 58.99 54.28 C 54.69 54.63 54.52 47.86 50.31 48.17 C 49.40 52.82 52.22 56.85 53.77 60.99 C 53.33 61.30 52.45 61.93 52.02 62.25 C 49.10 57.82 45.98 53.54 42.95 49.19 C 42.32 47.85 40.76 47.63 39.57 47.04 C 38.71 43.57 36.79 40.38 33.61 38.60 C 33.89 38.28 34.45 37.64 34.72 37.32 C 36.54 36.04 36.80 34.02 36.24 32.03 C 37.89 31.87 38.34 30.83 37.81 29.33 C 32.75 28.90 27.67 29.30 22.62 28.85 C 23.92 26.78 25.68 25.04 26.97 22.95 C 31.55 21.55 35.62 17.25 34.93 12.21 C 32.31 9.35 31.80 14.83 30.30 16.35 C 28.32 20.42 23.27 19.35 19.65 18.95 M 58.28 11.42 C 57.98 11.59 57.36 11.91 57.06 12.07 C 56.01 17.49 61.37 23.20 66.95 22.77 C 69.42 22.89 74.26 23.23 72.81 19.34 C 69.01 19.02 63.64 20.67 61.53 16.38 C 60.38 14.97 59.98 11.49 58.28 11.42 M 52.95 29.26 C 51.71 34.17 58.87 31.41 61.71 32.18 C 62.18 34.18 62.00 36.81 64.23 37.80 C 65.12 37.97 68.07 38.66 67.71 37.21 C 69.83 36.22 69.91 33.99 69.80 31.95 C 71.89 32.25 72.38 31.10 71.74 29.31 C 65.49 28.99 59.20 29.05 52.95 29.26 Z" />
<path fill="#9c2f06" opacity="1.00" d=" M 30.30 16.35 C 31.80 14.83 32.31 9.35 34.93 12.21 C 35.62 17.25 31.55 21.55 26.97 22.95 C 24.21 22.73 21.34 22.97 18.71 21.97 C 18.99 20.95 19.30 19.94 19.65 18.95 C 23.27 19.35 28.32 20.42 30.30 16.35 Z" />
<path fill="#9c2f06" opacity="1.00" d=" M 58.28 11.42 C 59.98 11.49 60.38 14.97 61.53 16.38 C 63.64 20.67 69.01 19.02 72.81 19.34 C 74.26 23.23 69.42 22.89 66.95 22.77 C 61.37 23.20 56.01 17.49 57.06 12.07 C 57.36 11.91 57.98 11.59 58.28 11.42 Z" />
<path fill="#ffce74" opacity="1.00" d=" M 8.38 56.74 C 4.94 44.20 9.43 30.78 17.27 20.81 C 17.63 21.10 18.35 21.68 18.71 21.97 C 21.34 22.97 24.21 22.73 26.97 22.95 C 25.68 25.04 23.92 26.78 22.62 28.85 C 20.61 29.02 18.36 29.20 18.87 31.84 C 22.07 32.23 25.30 31.91 28.51 32.19 C 28.73 35.48 29.95 38.32 33.61 38.60 C 36.79 40.38 38.71 43.57 39.57 47.04 C 39.76 48.73 38.39 51.67 40.72 52.15 C 42.60 53.39 42.51 50.27 42.95 49.19 C 45.98 53.54 49.10 57.82 52.02 62.25 C 52.45 61.93 53.33 61.30 53.77 60.99 C 55.02 65.47 53.43 71.18 57.42 74.57 C 60.21 77.16 62.35 80.39 63.60 84.00 C 61.15 87.88 56.23 87.61 52.26 88.43 C 32.50 90.69 12.01 76.56 8.38 56.74 M 47.41 70.38 C 45.24 73.01 42.25 75.73 41.14 78.90 C 43.78 82.86 51.10 79.79 51.44 75.29 C 51.18 73.30 49.67 69.84 47.41 70.38 Z" />
<path fill="#17171a" opacity="1.00" d=" M 18.87 31.84 C 18.36 29.20 20.61 29.02 22.62 28.85 C 27.67 29.30 32.75 28.90 37.81 29.33 C 38.34 30.83 37.89 31.87 36.24 32.03 C 33.07 32.01 34.55 35.39 34.72 37.32 C 34.45 37.64 33.89 38.28 33.61 38.60 C 29.95 38.32 28.73 35.48 28.51 32.19 C 25.30 31.91 22.07 32.23 18.87 31.84 Z" />
<path fill="#17171a" opacity="1.00" d=" M 52.95 29.26 C 59.20 29.05 65.49 28.99 71.74 29.31 C 72.38 31.10 71.89 32.25 69.80 31.95 C 66.61 31.63 66.71 35.18 67.71 37.21 C 68.07 38.66 65.12 37.97 64.23 37.80 C 62.00 36.81 62.18 34.18 61.71 32.18 C 58.87 31.41 51.71 34.17 52.95 29.26 Z" />
<path fill="#80828a" opacity="1.00" d=" M 34.72 37.32 C 34.55 35.39 33.07 32.01 36.24 32.03 C 36.80 34.02 36.54 36.04 34.72 37.32 Z" />
<path fill="#80828a" opacity="1.00" d=" M 67.71 37.21 C 66.71 35.18 66.61 31.63 69.80 31.95 C 69.91 33.99 69.83 36.22 67.71 37.21 Z" />
<path fill="#c6b064" opacity="1.00" d=" M 39.57 47.04 C 40.76 47.63 42.32 47.85 42.95 49.19 C 42.51 50.27 42.60 53.39 40.72 52.15 C 38.39 51.67 39.76 48.73 39.57 47.04 Z" />
<path fill="#fe9a0a" opacity="1.00" d=" M 50.31 48.17 C 54.52 47.86 54.69 54.63 58.99 54.28 C 63.55 53.36 67.18 49.77 71.88 49.35 C 78.73 51.32 80.20 59.56 79.54 65.73 C 79.24 69.87 78.73 74.06 79.40 78.18 C 79.78 80.08 83.81 85.25 80.43 84.84 C 76.89 77.34 78.68 68.94 78.30 60.98 C 78.27 57.29 76.90 53.22 73.79 51.05 C 68.14 49.47 63.58 54.61 58.23 55.36 C 55.03 54.50 54.05 50.39 50.80 49.62 C 51.16 53.97 53.84 57.53 55.30 61.51 C 56.51 65.51 54.39 70.85 58.18 73.79 C 63.72 77.48 64.58 84.53 67.02 90.23 C 65.54 90.13 64.78 89.29 64.76 87.69 C 64.45 86.44 64.02 85.22 63.60 84.00 C 62.35 80.39 60.21 77.16 57.42 74.57 C 53.43 71.18 55.02 65.47 53.77 60.99 C 52.22 56.85 49.40 52.82 50.31 48.17 Z" />
<path fill="#fee875" opacity="1.00" d=" M 50.80 49.62 C 54.05 50.39 55.03 54.50 58.23 55.36 C 63.58 54.61 68.14 49.47 73.79 51.05 C 76.90 53.22 78.27 57.29 78.30 60.98 C 78.68 68.94 76.89 77.34 80.43 84.84 C 76.21 87.15 71.57 88.66 67.02 90.23 C 64.58 84.53 63.72 77.48 58.18 73.79 C 54.39 70.85 56.51 65.51 55.30 61.51 C 53.84 57.53 51.16 53.97 50.80 49.62 Z" />
<path fill="#7d180f" opacity="1.00" d=" M 47.41 70.38 C 49.67 69.84 51.18 73.30 51.44 75.29 C 51.10 79.79 43.78 82.86 41.14 78.90 C 42.25 75.73 45.24 73.01 47.41 70.38 Z" />
</svg>
