<?xml version="1.0" encoding="UTF-8" ?>
<!DOCTYPE svg PUBLIC "-//W3C//DTD SVG 1.1//EN" "http://www.w3.org/Graphics/SVG/1.1/DTD/svg11.dtd">
<svg width="96pt" height="96pt" viewBox="0 0 96 96" version="1.1" xmlns="http://www.w3.org/2000/svg">
<g id="#142c2072">
<path fill="#142c20" opacity="0.45" d=" M 18.04 26.93 C 24.65 21.52 34.32 22.15 40.89 27.23 C 33.52 24.86 25.44 24.45 18.04 26.93 Z" />
</g>
<g id="#3b825dff">
<path fill="#3b825d" opacity="1.00" d=" M 64.70 23.58 C 67.44 22.98 69.23 26.40 70.88 28.14 C 77.44 39.90 84.17 51.57 90.67 63.36 C 92.36 66.11 91.88 71.38 87.99 71.70 C 84.13 72.65 81.27 69.62 78.46 67.56 C 71.67 62.55 64.95 57.45 58.04 52.61 C 52.65 61.44 44.84 70.31 33.97 71.64 C 23.53 74.19 11.42 69.11 7.09 58.96 C 0.53 47.69 6.43 32.17 18.04 26.93 C 25.44 24.45 33.52 24.86 40.89 27.23 C 46.35 29.35 50.48 33.65 55.20 36.95 C 58.13 32.34 60.13 26.90 64.70 23.58 M 7.16 48.94 C 7.98 57.91 14.39 66.51 23.36 68.62 C 29.33 70.58 35.73 68.75 41.20 66.17 C 52.94 59.28 57.26 45.37 66.02 35.81 C 70.09 40.48 72.63 46.32 75.13 51.93 C 74.81 52.42 74.18 53.40 73.86 53.88 C 70.36 52.82 64.64 45.54 62.73 51.87 C 67.66 56.17 73.37 59.43 78.40 63.61 C 81.27 65.64 84.12 68.86 88.01 68.00 L 87.49 67.19 C 83.06 53.78 73.77 42.50 67.71 29.77 C 66.74 26.75 63.38 28.16 62.37 30.36 C 55.61 41.48 50.18 54.66 38.48 61.56 C 31.23 66.22 20.49 64.76 15.35 57.64 C 11.09 51.41 11.72 41.65 17.77 36.77 C 25.75 30.70 37.67 32.77 44.79 39.23 C 46.47 40.96 49.09 41.92 50.95 39.76 L 51.11 39.16 C 51.12 39.14 51.13 39.11 51.13 39.09 C 49.95 35.74 45.68 34.10 42.88 32.09 C 39.43 28.75 33.72 28.12 29.01 27.74 C 17.44 26.88 6.98 37.55 7.16 48.94 M 15.42 45.98 C 13.31 55.47 24.08 64.38 33.04 60.82 C 40.55 58.09 46.61 51.58 50.16 44.58 C 44.08 44.80 40.97 38.37 35.46 36.82 C 27.83 33.06 17.25 37.53 15.42 45.98 M 61.04 47.42 C 63.37 45.71 66.33 46.38 69.00 46.57 C 67.73 44.89 67.37 42.03 65.26 41.31 C 63.61 43.16 62.61 45.50 61.04 47.42 Z" />
</g>
<g id="#359f6aff">
<path fill="#359f6a" opacity="1.00" d=" M 7.16 48.94 C 6.98 37.55 17.44 26.88 29.01 27.74 C 33.72 28.12 39.43 28.75 42.88 32.09 C 43.77 36.05 48.11 37.46 50.95 39.76 C 49.09 41.92 46.47 40.96 44.79 39.23 C 37.67 32.77 25.75 30.70 17.77 36.77 C 11.72 41.65 11.09 51.41 15.35 57.64 C 20.49 64.76 31.23 66.22 38.48 61.56 C 50.18 54.66 55.61 41.48 62.37 30.36 C 63.38 28.16 66.74 26.75 67.71 29.77 C 67.28 29.97 66.41 30.37 65.97 30.57 C 73.19 42.75 79.53 55.46 87.49 67.19 L 88.01 68.00 C 84.12 68.86 81.27 65.64 78.40 63.61 C 73.37 59.43 67.66 56.17 62.73 51.87 C 64.64 45.54 70.36 52.82 73.86 53.88 C 74.18 53.40 74.81 52.42 75.13 51.93 C 72.63 46.32 70.09 40.48 66.02 35.81 C 57.26 45.37 52.94 59.28 41.20 66.17 C 35.73 68.75 29.33 70.58 23.36 68.62 C 14.39 66.51 7.98 57.91 7.16 48.94 Z" />
<path fill="#359f6a" opacity="1.00" d=" M 51.11 39.16 C 51.12 39.14 51.13 39.11 51.13 39.09 C 51.13 39.11 51.12 39.14 51.11 39.16 Z" />
</g>
<g id="#ffffffff">
<path fill="#ffffff" opacity="1.00" d=" M 65.97 30.57 C 66.41 30.37 67.28 29.97 67.71 29.77 C 73.77 42.50 83.06 53.78 87.49 67.19 C 79.53 55.46 73.19 42.75 65.97 30.57 Z" />
<path fill="#ffffff" opacity="1.00" d=" M 50.95 39.76 C 48.11 37.46 43.77 36.05 42.88 32.09 C 45.68 34.10 49.95 35.74 51.13 39.09 C 51.13 39.11 51.12 39.14 51.11 39.16 L 50.95 39.76 Z" />
</g>
</svg>
