<?xml version="1.0" encoding="UTF-8" ?>
<!DOCTYPE svg PUBLIC "-//W3C//DTD SVG 1.1//EN" "http://www.w3.org/Graphics/SVG/1.1/DTD/svg11.dtd">
<svg width="96pt" height="96pt" viewBox="0 0 96 96" version="1.1" xmlns="http://www.w3.org/2000/svg">
<path fill="#fdeb78" opacity="1.00" d=" M 0.00 0.00 L 0.29 0.00 C 0.22 0.08 0.07 0.25 0.00 0.33 L 0.00 0.00 Z" />
<path fill="#ecaf55" opacity="1.00" d=" M 21.80 14.70 C 33.24 5.57 49.78 2.18 63.32 8.53 C 62.60 9.27 61.88 10.02 61.18 10.78 C 50.09 5.85 36.71 8.14 26.70 14.50 C 25.07 14.58 23.44 14.64 21.80 14.70 Z" />
<path fill="#a43f0e" opacity="1.00" d=" M 63.32 8.53 C 68.82 5.09 77.04 8.41 77.64 15.10 C 77.35 18.69 81.19 20.32 82.41 23.32 C 79.60 23.90 77.95 20.98 75.33 20.53 C 73.52 20.12 73.91 17.84 73.31 16.51 C 72.76 13.49 69.38 11.91 66.56 12.49 C 63.78 13.36 63.45 17.82 59.98 17.15 C 59.35 14.91 59.75 12.62 61.18 10.78 C 61.88 10.02 62.60 9.27 63.32 8.53 Z" />
<path fill="#fdeb78" opacity="1.00" d=" M 26.70 14.50 C 36.71 8.14 50.09 5.85 61.18 10.78 C 59.75 12.62 59.35 14.91 59.98 17.15 C 63.45 17.82 63.78 13.36 66.56 12.49 C 69.38 11.91 72.76 13.49 73.31 16.51 C 73.91 17.84 73.52 20.12 75.33 20.53 C 77.95 20.98 79.60 23.90 82.41 23.32 C 82.61 23.47 83.01 23.78 83.21 23.93 L 82.97 24.31 C 61.76 26.30 40.58 28.70 19.36 30.56 C 17.37 29.91 15.30 29.72 13.23 29.58 C 14.02 27.98 14.90 26.43 15.84 24.92 C 16.79 25.49 17.80 25.91 18.86 26.19 C 19.83 24.55 20.09 22.63 20.86 20.90 C 22.47 19.43 25.10 18.58 27.07 19.83 C 28.47 21.33 29.51 23.87 32.05 23.13 C 33.69 19.17 30.34 15.52 26.70 14.50 Z" />
<path fill="#a43f0e" opacity="1.00" d=" M 15.91 20.20 C 17.36 17.92 19.19 15.63 21.80 14.70 C 23.44 14.64 25.07 14.58 26.70 14.50 C 30.34 15.52 33.69 19.17 32.05 23.13 C 29.51 23.87 28.47 21.33 27.07 19.83 C 25.10 18.58 22.47 19.43 20.86 20.90 C 20.09 22.63 19.83 24.55 18.86 26.19 C 17.80 25.91 16.79 25.49 15.84 24.92 C 15.85 23.35 15.85 21.77 15.91 20.20 Z" />
<path fill="#ecaf55" opacity="1.00" d=" M 8.78 31.75 C 10.53 27.56 12.95 23.64 15.91 20.20 C 15.85 21.77 15.85 23.35 15.84 24.92 C 14.90 26.43 14.02 27.98 13.23 29.58 C 15.30 29.72 17.37 29.91 19.36 30.56 C 15.88 31.27 12.34 31.72 8.78 31.75 Z" />
<path fill="#1f1f1f" opacity="1.00" d=" M 19.36 30.56 C 40.58 28.70 61.76 26.30 82.97 24.31 L 84.03 24.89 L 83.98 26.04 C 83.91 27.62 83.90 29.19 83.87 30.77 C 83.29 30.90 82.13 31.16 81.55 31.29 C 81.47 31.90 81.30 33.13 81.22 33.75 C 79.76 34.55 78.73 35.71 78.29 37.33 C 77.79 37.57 76.79 38.06 76.30 38.31 C 75.96 39.28 75.63 40.25 75.28 41.22 C 68.31 41.57 61.22 42.96 54.35 42.95 C 54.11 42.34 53.63 41.12 53.39 40.51 C 52.83 40.41 51.71 40.22 51.15 40.12 C 50.23 38.98 49.64 37.44 48.05 37.13 C 45.86 36.29 47.36 33.24 46.14 31.64 C 44.43 31.59 42.72 31.74 41.02 31.92 C 40.94 33.94 41.15 35.96 41.19 37.98 C 40.56 38.15 39.28 38.48 38.64 38.65 C 38.43 39.61 38.16 40.55 37.84 41.47 C 37.27 41.69 36.14 42.14 35.57 42.36 C 35.61 43.40 35.43 44.37 35.02 45.26 C 34.14 45.37 32.37 45.61 31.48 45.73 C 26.77 46.18 21.98 46.64 17.26 46.39 C 16.76 43.86 13.46 44.21 13.06 41.60 C 11.68 41.00 10.14 40.72 9.10 39.52 C 8.84 39.36 8.30 39.02 8.03 38.86 C 7.62 39.08 6.79 39.51 6.38 39.73 C 6.02 37.12 5.83 34.49 5.94 31.86 C 6.65 31.83 8.07 31.78 8.78 31.75 C 12.34 31.72 15.88 31.27 19.36 30.56 M 74.89 28.12 C 74.83 28.93 74.72 30.56 74.66 31.37 C 75.48 31.33 77.13 31.24 77.96 31.20 C 77.92 30.44 77.86 28.91 77.82 28.15 C 77.09 28.15 75.63 28.13 74.89 28.12 M 69.13 29.36 C 67.54 30.43 69.43 32.71 70.86 31.63 C 72.49 30.62 70.55 28.19 69.13 29.36 M 71.54 31.67 C 71.69 32.46 71.98 34.05 72.13 34.85 C 72.81 34.85 74.16 34.87 74.84 34.87 C 74.93 34.07 75.11 32.47 75.21 31.67 C 74.29 31.67 72.46 31.67 71.54 31.67 M 28.17 32.89 C 28.15 33.66 28.10 35.22 28.07 35.99 C 26.18 35.90 24.39 37.32 25.76 39.24 C 27.90 40.61 28.61 38.44 28.73 36.75 C 29.33 36.55 30.55 36.14 31.15 35.93 C 31.18 35.18 31.22 33.68 31.24 32.93 C 30.48 32.92 28.94 32.90 28.17 32.89 M 35.09 33.09 C 34.53 34.72 35.08 35.29 36.75 34.79 C 37.30 33.14 36.75 32.57 35.09 33.09 M 66.21 33.09 C 64.98 34.53 67.54 36.34 68.51 34.72 C 69.70 33.30 67.20 31.52 66.21 33.09 M 68.51 34.72 C 68.64 35.57 68.92 37.26 69.06 38.10 C 69.84 38.11 71.40 38.13 72.18 38.13 C 72.17 37.31 72.14 35.67 72.13 34.85 C 71.23 34.82 69.41 34.75 68.51 34.72 M 32.29 38.54 C 33.70 39.77 35.58 37.24 33.96 36.26 C 32.51 35.17 30.66 37.53 32.29 38.54 M 62.99 35.80 C 63.03 36.58 63.11 38.14 63.15 38.92 C 63.81 38.90 65.13 38.87 65.79 38.86 C 65.92 38.03 66.17 36.38 66.30 35.56 C 65.47 35.62 63.82 35.74 62.99 35.80 M 22.38 40.50 C 22.38 41.04 22.37 42.11 22.37 42.65 C 23.49 42.84 24.61 42.88 25.75 42.78 C 25.99 41.58 25.99 40.41 25.76 39.24 C 24.54 39.37 23.24 39.52 22.38 40.50 M 28.59 38.84 C 28.67 39.67 28.85 41.31 28.93 42.13 C 29.70 42.13 31.24 42.13 32.00 42.13 C 32.07 41.24 32.22 39.44 32.29 38.54 C 31.36 38.62 29.51 38.77 28.59 38.84 Z" />
<path fill="#ecaf55" opacity="1.00" d=" M 83.98 26.04 C 87.45 30.12 88.49 35.76 90.11 40.78 C 91.98 48.97 89.93 57.28 87.09 64.98 C 86.39 66.78 85.62 68.57 84.49 70.14 L 84.15 70.18 L 82.99 69.94 L 82.97 69.15 C 85.34 62.51 89.30 55.80 87.99 48.49 C 87.97 42.34 86.27 36.39 83.87 30.77 C 83.90 29.19 83.91 27.62 83.98 26.04 Z" />
<path fill="#858585" opacity="1.00" d=" M 74.89 28.12 C 75.63 28.13 77.09 28.15 77.82 28.15 C 77.86 28.91 77.92 30.44 77.96 31.20 C 77.13 31.24 75.48 31.33 74.66 31.37 C 74.72 30.56 74.83 28.93 74.89 28.12 Z" />
<path fill="#858585" opacity="1.00" d=" M 69.13 29.36 C 70.55 28.19 72.49 30.62 70.86 31.63 C 69.43 32.71 67.54 30.43 69.13 29.36 Z" />
<path fill="#fdeb78" opacity="1.00" d=" M 81.55 31.29 C 82.13 31.16 83.29 30.90 83.87 30.77 C 86.27 36.39 87.97 42.34 87.99 48.49 C 82.27 53.95 74.97 56.96 68.12 60.68 C 68.01 58.36 69.27 55.48 67.10 53.79 C 65.91 51.75 65.46 48.79 62.94 47.94 C 61.08 48.00 59.76 49.49 59.24 51.16 C 57.33 56.07 53.11 59.79 48.29 61.74 C 48.02 61.35 47.49 60.56 47.22 60.16 C 48.75 58.99 52.30 58.76 51.16 56.11 C 47.12 54.09 42.78 52.62 39.30 49.62 C 37.10 47.42 33.38 48.31 31.48 45.73 C 32.37 45.61 34.14 45.37 35.02 45.26 C 35.43 44.37 35.61 43.40 35.57 42.36 C 36.14 42.14 37.27 41.69 37.84 41.47 C 38.16 40.55 38.43 39.61 38.64 38.65 C 39.28 38.48 40.56 38.15 41.19 37.98 C 41.15 35.96 40.94 33.94 41.02 31.92 C 42.72 31.74 44.43 31.59 46.14 31.64 C 47.36 33.24 45.86 36.29 48.05 37.13 C 49.64 37.44 50.23 38.98 51.15 40.12 C 51.71 40.22 52.83 40.41 53.39 40.51 C 53.63 41.12 54.11 42.34 54.35 42.95 C 61.22 42.96 68.31 41.57 75.28 41.22 C 75.63 40.25 75.96 39.28 76.30 38.31 C 76.79 38.06 77.79 37.57 78.29 37.33 C 78.73 35.71 79.76 34.55 81.22 33.75 C 81.30 33.13 81.47 31.90 81.55 31.29 Z" />
<path fill="#858585" opacity="1.00" d=" M 71.54 31.67 C 72.46 31.67 74.29 31.67 75.21 31.67 C 75.11 32.47 74.93 34.07 74.84 34.87 C 74.16 34.87 72.81 34.85 72.13 34.85 C 71.98 34.05 71.69 32.46 71.54 31.67 Z" />
<path fill="#858585" opacity="1.00" d=" M 28.17 32.89 C 28.94 32.90 30.48 32.92 31.24 32.93 C 31.22 33.68 31.18 35.18 31.15 35.93 C 30.55 36.14 29.33 36.55 28.73 36.75 C 28.61 38.44 27.90 40.61 25.76 39.24 C 24.39 37.32 26.18 35.90 28.07 35.99 C 28.10 35.22 28.15 33.66 28.17 32.89 Z" />
<path fill="#858585" opacity="1.00" d=" M 35.09 33.09 C 36.75 32.57 37.30 33.14 36.75 34.79 C 35.08 35.29 34.53 34.72 35.09 33.09 Z" />
<path fill="#858585" opacity="1.00" d=" M 66.21 33.09 C 67.20 31.52 69.70 33.30 68.51 34.72 C 67.54 36.34 64.98 34.53 66.21 33.09 Z" />
<path fill="#858585" opacity="1.00" d=" M 68.51 34.72 C 69.41 34.75 71.23 34.82 72.13 34.85 C 72.14 35.67 72.17 37.31 72.18 38.13 C 71.40 38.13 69.84 38.11 69.06 38.10 C 68.92 37.26 68.64 35.57 68.51 34.72 Z" />
<path fill="#858585" opacity="1.00" d=" M 32.29 38.54 C 30.66 37.53 32.51 35.17 33.96 36.26 C 35.58 37.24 33.70 39.77 32.29 38.54 Z" />
<path fill="#858585" opacity="1.00" d=" M 62.99 35.80 C 63.82 35.74 65.47 35.62 66.30 35.56 C 66.17 36.38 65.92 38.03 65.79 38.86 C 65.13 38.87 63.81 38.90 63.15 38.92 C 63.11 38.14 63.03 36.58 62.99 35.80 Z" />
<path fill="#ecaf55" opacity="1.00" d=" M 6.38 39.73 C 6.79 39.51 7.62 39.08 8.03 38.86 C 8.30 39.02 8.84 39.36 9.10 39.52 C 6.86 43.33 7.74 47.87 7.73 52.05 C 8.52 59.34 10.91 66.85 16.12 72.22 C 15.90 72.54 15.47 73.20 15.25 73.53 C 14.38 72.63 13.39 71.93 12.28 71.41 C 11.71 70.39 11.13 69.37 10.60 68.33 C 6.16 59.58 4.30 49.39 6.38 39.73 Z" />
<path fill="#858585" opacity="1.00" d=" M 22.38 40.50 C 23.24 39.52 24.54 39.37 25.76 39.24 C 25.99 40.41 25.99 41.58 25.75 42.78 C 24.61 42.88 23.49 42.84 22.37 42.65 C 22.37 42.11 22.38 41.04 22.38 40.50 Z" />
<path fill="#858585" opacity="1.00" d=" M 28.59 38.84 C 29.51 38.77 31.36 38.62 32.29 38.54 C 32.22 39.44 32.07 41.24 32.00 42.13 C 31.24 42.13 29.70 42.13 28.93 42.13 C 28.85 41.31 28.67 39.67 28.59 38.84 Z" />
<path fill="#ffcd73" opacity="1.00" d=" M 9.10 39.52 C 10.14 40.72 11.68 41.00 13.06 41.60 C 13.46 44.21 16.76 43.86 17.26 46.39 C 18.27 46.60 19.25 46.92 20.19 47.35 C 20.10 48.47 19.67 49.60 19.91 50.74 C 23.03 54.19 24.48 58.88 28.41 61.60 C 28.91 63.90 28.24 66.56 29.85 68.50 C 30.30 68.10 31.18 67.30 31.62 66.90 C 33.17 69.29 34.93 71.59 37.13 73.44 C 44.42 78.79 55.08 78.19 61.55 71.79 C 62.78 70.77 63.60 69.37 64.46 68.04 C 65.08 67.03 65.63 65.98 66.07 64.88 C 67.34 61.32 67.32 57.51 67.10 53.79 C 69.27 55.48 68.01 58.36 68.12 60.68 C 74.97 56.96 82.27 53.95 87.99 48.49 C 89.30 55.80 85.34 62.51 82.97 69.15 C 81.62 68.38 80.07 68.90 78.92 69.74 C 77.53 69.95 76.87 70.75 76.95 72.15 C 74.83 72.02 71.29 74.78 75.25 75.18 L 75.23 76.08 C 73.31 76.16 71.22 75.88 69.42 76.64 C 69.31 76.74 69.09 76.93 68.98 77.02 C 68.89 77.11 68.71 77.29 68.62 77.38 C 65.13 76.99 62.54 79.58 59.30 80.10 C 57.18 80.64 53.77 80.27 54.86 83.54 C 54.55 83.53 53.94 83.51 53.63 83.50 C 53.57 83.49 53.44 83.47 53.38 83.46 C 53.00 82.77 52.26 81.40 51.89 80.72 C 49.07 80.67 46.40 81.85 43.65 82.31 C 43.23 81.96 42.40 81.25 41.99 80.89 C 41.25 79.78 40.25 79.47 38.98 79.97 C 32.43 79.50 26.88 75.69 21.40 72.53 C 19.98 70.71 17.88 71.35 16.12 72.22 C 10.91 66.85 8.52 59.34 7.73 52.05 C 7.74 47.87 6.86 43.33 9.10 39.52 Z" />
<path fill="#fedc76" opacity="1.00" d=" M 17.26 46.39 C 21.98 46.64 26.77 46.18 31.48 45.73 C 33.38 48.31 37.10 47.42 39.30 49.62 C 42.78 52.62 47.12 54.09 51.16 56.11 C 52.30 58.76 48.75 58.99 47.22 60.16 C 47.49 60.56 48.02 61.35 48.29 61.74 C 43.34 64.86 37.56 62.66 32.24 63.21 C 31.76 64.38 31.56 65.61 31.62 66.90 C 31.18 67.30 30.30 68.10 29.85 68.50 C 28.24 66.56 28.91 63.90 28.41 61.60 C 24.48 58.88 23.03 54.19 19.91 50.74 C 19.67 49.60 20.10 48.47 20.19 47.35 C 19.25 46.92 18.27 46.60 17.26 46.39 Z" />
<path fill="#7d180f" opacity="1.00" d=" M 59.24 51.16 C 59.76 49.49 61.08 48.00 62.94 47.94 C 65.46 48.79 65.91 51.75 67.10 53.79 C 67.32 57.51 67.34 61.32 66.07 64.88 C 59.28 61.64 51.05 62.84 44.65 66.47 C 42.94 67.25 41.81 68.80 40.68 70.23 C 39.66 71.47 38.50 72.60 37.13 73.44 C 34.93 71.59 33.17 69.29 31.62 66.90 C 31.56 65.61 31.76 64.38 32.24 63.21 C 37.56 62.66 43.34 64.86 48.29 61.74 C 53.11 59.79 57.33 56.07 59.24 51.16 Z" />
<path fill="#e8674d" opacity="1.00" d=" M 44.65 66.47 C 51.05 62.84 59.28 61.64 66.07 64.88 C 65.63 65.98 65.08 67.03 64.46 68.04 C 58.11 65.55 51.03 68.63 44.65 66.47 Z" />
<path fill="#fdeb78" opacity="1.00" d=" M 87.09 64.98 C 88.45 67.48 87.20 70.50 85.36 72.40 C 84.63 73.88 85.11 77.19 82.74 76.94 C 82.37 77.00 81.63 77.11 81.26 77.17 C 81.16 77.51 80.94 78.18 80.84 78.52 C 80.56 79.00 80.01 79.95 79.73 80.43 L 78.72 79.70 C 78.78 79.24 78.88 78.31 78.94 77.85 C 78.91 77.68 78.85 77.33 78.82 77.16 L 78.02 76.71 C 77.77 76.62 77.27 76.45 77.02 76.36 C 76.57 76.29 75.68 76.15 75.23 76.08 L 75.25 75.18 C 75.39 75.00 75.68 74.64 75.82 74.46 C 76.10 73.88 76.67 72.73 76.95 72.15 C 78.35 71.94 79.01 71.14 78.92 69.74 C 80.25 70.19 81.61 70.26 82.99 69.94 L 84.15 70.18 C 84.22 70.20 84.36 70.23 84.43 70.25 L 84.49 70.14 C 85.62 68.57 86.39 66.78 87.09 64.98 M 79.73 72.21 C 77.71 70.95 77.71 75.46 79.78 73.98 C 80.12 74.27 80.79 74.86 81.12 75.15 C 81.35 75.32 81.81 75.64 82.04 75.80 C 82.23 75.58 82.63 75.13 82.82 74.91 C 84.46 75.15 84.30 71.88 82.72 72.00 C 82.57 71.82 82.27 71.47 82.12 71.29 C 81.52 71.52 80.33 71.98 79.73 72.21 Z" />
<path fill="#e45b34" opacity="1.00" d=" M 40.68 70.23 C 41.81 68.80 42.94 67.25 44.65 66.47 C 51.03 68.63 58.11 65.55 64.46 68.04 C 63.60 69.37 62.78 70.77 61.55 71.79 C 54.71 70.05 47.22 73.05 40.68 70.23 Z" />
<path fill="#fdeb78" opacity="1.00" d=" M 10.60 68.33 C 11.13 69.37 11.71 70.39 12.28 71.41 C 11.47 73.33 14.22 76.25 15.25 73.53 C 15.47 73.20 15.90 72.54 16.12 72.22 C 17.88 71.35 19.98 70.71 21.40 72.53 C 26.88 75.69 32.43 79.50 38.98 79.97 C 39.65 81.25 40.65 81.56 41.99 80.89 C 42.40 81.25 43.23 81.96 43.65 82.31 C 46.53 84.03 50.16 84.33 53.38 83.46 C 53.44 83.47 53.57 83.49 53.63 83.50 C 53.94 83.51 54.55 83.53 54.86 83.54 C 58.60 83.39 61.95 81.59 65.53 80.68 C 67.30 80.49 67.72 78.58 68.62 77.38 C 68.71 77.29 68.89 77.11 68.98 77.02 C 69.09 76.93 69.31 76.74 69.42 76.64 C 71.22 75.88 73.31 76.16 75.23 76.08 C 75.37 77.29 75.82 78.51 76.88 79.22 C 77.11 79.32 77.59 79.52 77.83 79.63 L 78.72 79.70 L 79.67 80.67 C 77.70 81.95 75.68 83.23 73.74 84.36 L 72.98 83.97 C 72.87 83.83 72.65 83.57 72.54 83.44 C 72.65 83.57 72.87 83.83 72.98 83.97 L 72.97 84.73 C 70.61 85.77 68.49 87.50 65.81 87.60 C 63.80 90.43 59.97 88.56 58.03 91.47 C 54.99 90.86 51.95 91.79 48.99 91.06 C 45.87 93.82 43.49 88.74 40.06 89.64 C 35.48 88.85 30.68 87.58 26.90 84.98 C 28.29 85.64 30.22 84.96 30.30 83.28 C 31.11 82.26 32.02 81.28 32.38 80.00 C 31.44 78.38 29.64 78.58 28.06 78.75 C 28.00 80.07 27.99 81.38 28.01 82.69 C 27.73 83.26 27.18 84.41 26.90 84.98 C 24.80 84.24 22.63 83.51 21.20 81.68 C 17.06 82.12 16.04 77.31 12.46 76.54 C 10.07 74.69 8.83 71.01 10.60 68.33 M 17.96 73.92 L 16.92 73.91 C 16.13 76.64 18.17 80.15 21.33 79.35 C 21.17 78.50 20.85 76.79 20.69 75.94 C 22.23 74.24 18.75 71.56 17.96 73.92 M 22.75 75.73 C 22.54 77.89 22.29 80.39 23.92 82.10 C 24.36 81.83 25.24 81.28 25.68 81.01 C 26.91 82.06 27.32 81.73 26.92 80.03 C 28.76 77.04 25.61 74.62 22.75 75.73 M 72.26 78.04 C 69.73 78.05 70.78 81.95 72.94 81.00 L 73.12 81.68 C 74.57 82.95 75.85 79.73 73.89 79.73 L 73.64 78.88 C 73.46 78.70 73.09 78.32 72.91 78.14 C 72.75 78.11 72.42 78.06 72.26 78.04 M 65.81 83.89 C 66.37 83.94 67.48 84.05 68.03 84.10 C 66.26 85.94 70.63 85.91 68.87 84.08 C 69.31 83.95 70.19 83.70 70.63 83.57 C 74.08 78.46 64.10 79.58 65.81 83.89 M 35.04 80.72 C 33.03 81.68 33.72 84.12 33.81 85.87 C 35.73 85.53 37.85 86.71 39.40 84.99 C 40.00 82.43 37.67 79.85 35.04 80.72 M 40.86 82.99 C 40.13 84.31 39.24 85.63 38.98 87.15 C 39.01 87.28 39.05 87.55 39.08 87.68 C 39.81 87.80 41.28 88.05 42.02 88.17 C 43.02 86.57 43.71 84.69 42.96 82.84 C 42.43 82.88 41.39 82.95 40.86 82.99 C 40.20 82.53 40.20 82.53 40.86 82.99 M 58.59 86.12 C 59.18 86.16 60.37 86.24 60.96 86.28 C 60.06 88.11 63.98 88.67 64.11 86.77 C 64.54 86.52 65.40 86.01 65.83 85.75 C 65.40 85.83 64.53 85.98 64.10 86.05 C 63.83 84.92 63.49 83.81 63.07 82.72 C 61.16 82.86 58.95 84.11 58.59 86.12 M 42.52 87.96 C 43.22 88.23 44.63 88.76 45.34 89.03 C 45.47 89.03 45.74 89.03 45.87 89.03 C 47.97 88.49 48.80 85.98 48.12 84.05 C 45.31 83.26 43.56 85.78 42.52 87.96 M 48.64 85.91 C 48.70 86.62 48.84 88.03 48.90 88.73 C 46.41 90.02 52.11 91.20 51.80 89.08 C 52.37 89.09 53.51 89.11 54.08 89.12 C 55.59 85.90 50.76 84.46 48.64 85.91 M 54.98 84.91 C 54.52 86.26 54.57 87.58 55.15 88.88 C 54.62 90.58 58.38 90.62 57.83 88.90 L 59.07 88.92 C 60.00 86.65 57.23 83.98 54.98 84.91 M 65.83 85.75 C 66.57 85.17 66.57 85.17 65.83 85.75 M 33.81 85.87 C 33.45 86.58 33.45 86.58 33.81 85.87 Z" />
<path fill="#fedc76" opacity="1.00" d=" M 78.92 69.74 C 80.07 68.90 81.62 68.38 82.97 69.15 L 82.99 69.94 C 81.61 70.26 80.25 70.19 78.92 69.74 Z" />
<path fill="#e04e1c" opacity="1.00" d=" M 37.13 73.44 C 38.50 72.60 39.66 71.47 40.68 70.23 C 47.22 73.05 54.71 70.05 61.55 71.79 C 55.08 78.19 44.42 78.79 37.13 73.44 Z" />
<path fill="#fedc76" opacity="1.00" d=" M 76.95 72.15 C 76.87 70.75 77.53 69.95 78.92 69.74 C 79.01 71.14 78.35 71.94 76.95 72.15 Z" />
<path fill="#fedc76" opacity="1.00" d=" M 84.15 70.18 L 84.49 70.14 L 84.43 70.25 C 84.36 70.23 84.22 70.20 84.15 70.18 Z" />
<path fill="#ecaf55" opacity="1.00" d=" M 79.73 72.21 C 80.33 71.98 81.52 71.52 82.12 71.29 C 82.27 71.47 82.57 71.82 82.72 72.00 L 82.52 72.60 C 81.37 73.00 80.90 73.85 81.12 75.15 C 80.79 74.86 80.12 74.27 79.78 73.98 C 79.77 73.53 79.74 72.65 79.73 72.21 Z" />
<path fill="#fedc76" opacity="1.00" d=" M 82.12 71.29 C 82.27 71.47 82.57 71.82 82.72 72.00 C 82.57 71.82 82.27 71.47 82.12 71.29 Z" />
<path fill="#fedc76" opacity="1.00" d=" M 75.25 75.18 C 71.29 74.78 74.83 72.02 76.95 72.15 C 76.67 72.73 76.10 73.88 75.82 74.46 C 75.68 74.64 75.39 75.00 75.25 75.18 Z" />
<path fill="#fedc76" opacity="1.00" d=" M 79.78 73.98 C 77.71 75.46 77.71 70.95 79.73 72.21 C 79.74 72.65 79.77 73.53 79.78 73.98 Z" />
<path fill="#fedc76" opacity="1.00" d=" M 82.72 72.00 C 84.30 71.88 84.46 75.15 82.82 74.91 C 82.75 74.33 82.60 73.17 82.52 72.60 L 82.72 72.00 Z" />
<path fill="#ffcd73" opacity="1.00" d=" M 17.96 73.92 C 18.75 71.56 22.23 74.24 20.69 75.94 C 19.76 75.29 18.85 74.62 17.96 73.92 Z" />
<path fill="#ecaf55" opacity="1.00" d=" M 16.92 73.91 L 17.96 73.92 C 18.85 74.62 19.76 75.29 20.69 75.94 C 20.85 76.79 21.17 78.50 21.33 79.35 C 18.17 80.15 16.13 76.64 16.92 73.91 Z" />
<path fill="#ffcd73" opacity="1.00" d=" M 75.25 75.18 C 75.39 75.00 75.68 74.64 75.82 74.46 C 75.68 74.64 75.39 75.00 75.25 75.18 Z" />
<path fill="#ecaf55" opacity="1.00" d=" M 81.12 75.15 L 82.00 75.32 L 82.04 75.80 C 81.81 75.64 81.35 75.32 81.12 75.15 Z" />
<path fill="#fedc76" opacity="1.00" d=" M 82.00 75.32 L 82.82 74.91 C 82.63 75.13 82.23 75.58 82.04 75.80 L 82.00 75.32 Z" />
<path fill="#ffcd73" opacity="1.00" d=" M 22.75 75.73 C 25.61 74.62 28.76 77.04 26.92 80.03 C 26.61 80.27 25.99 80.76 25.68 81.01 C 25.24 81.28 24.36 81.83 23.92 82.10 C 22.29 80.39 22.54 77.89 22.75 75.73 Z" />
<path fill="#fedc76" opacity="1.00" d=" M 68.98 77.02 C 69.09 76.93 69.31 76.74 69.42 76.64 C 69.31 76.74 69.09 76.93 68.98 77.02 Z" />
<path fill="#ffcd73" opacity="1.00" d=" M 75.23 76.08 C 75.68 76.15 76.57 76.29 77.02 76.36 C 77.27 76.45 77.77 76.62 78.02 76.71 L 78.82 77.16 L 78.94 77.85 C 78.58 78.13 77.88 78.70 77.53 78.98 L 76.88 79.22 C 75.82 78.51 75.37 77.29 75.23 76.08 Z" />
<path fill="#fedc76" opacity="1.00" d=" M 77.02 76.36 C 77.27 76.45 77.77 76.62 78.02 76.71 C 77.77 76.62 77.27 76.45 77.02 76.36 Z" />
<path fill="#fedc76" opacity="1.00" d=" M 68.62 77.38 C 68.71 77.29 68.89 77.11 68.98 77.02 C 68.89 77.11 68.71 77.29 68.62 77.38 Z" />
<path fill="#fedc76" opacity="1.00" d=" M 72.26 78.04 C 72.42 78.06 72.75 78.11 72.91 78.14 L 72.26 78.04 Z" />
<path fill="#fedc76" opacity="1.00" d=" M 78.82 77.16 C 78.85 77.33 78.91 77.68 78.94 77.85 L 78.82 77.16 Z" />
<path fill="#fedc76" opacity="1.00" d=" M 81.26 77.17 C 81.63 77.11 82.37 77.00 82.74 76.94 C 83.06 78.39 82.42 78.92 80.84 78.52 C 80.94 78.18 81.16 77.51 81.26 77.17 Z" />
<path fill="#fedc76" opacity="1.00" d=" M 59.30 80.10 C 62.54 79.58 65.13 76.99 68.62 77.38 C 67.72 78.58 67.30 80.49 65.53 80.68 C 61.95 81.59 58.60 83.39 54.86 83.54 C 53.77 80.27 57.18 80.64 59.30 80.10 Z" />
<path fill="#ffcd73" opacity="1.00" d=" M 72.94 81.00 C 70.78 81.95 69.73 78.05 72.26 78.04 L 72.91 78.14 C 73.09 78.32 73.46 78.70 73.64 78.88 L 73.89 79.73 C 73.65 80.05 73.18 80.69 72.94 81.00 Z" />
<path fill="#fedc76" opacity="1.00" d=" M 72.91 78.14 C 73.09 78.32 73.46 78.70 73.64 78.88 C 73.46 78.70 73.09 78.32 72.91 78.14 Z" />
<path fill="#fedc76" opacity="1.00" d=" M 77.53 78.98 C 77.88 78.70 78.58 78.13 78.94 77.85 C 78.88 78.31 78.78 79.24 78.72 79.70 L 77.83 79.63 L 77.53 78.98 Z" />
<path fill="#ffcd73" opacity="1.00" d=" M 28.06 78.75 C 29.64 78.58 31.44 78.38 32.38 80.00 C 32.02 81.28 31.11 82.26 30.30 83.28 C 29.73 83.13 28.58 82.84 28.01 82.69 C 27.99 81.38 28.00 80.07 28.06 78.75 Z" />
<path fill="#b58d4a" opacity="0.97" d=" M 76.88 79.22 L 77.53 78.98 L 77.83 79.63 C 77.59 79.52 77.11 79.32 76.88 79.22 Z" />
<path fill="#fedc76" opacity="1.00" d=" M 25.68 81.01 C 25.99 80.76 26.61 80.27 26.92 80.03 C 27.32 81.73 26.91 82.06 25.68 81.01 Z" />
<path fill="#fedc76" opacity="1.00" d=" M 38.98 79.97 C 40.25 79.47 41.25 79.78 41.99 80.89 C 40.65 81.56 39.65 81.25 38.98 79.97 Z" />
<path fill="#ffcd73" opacity="1.00" d=" M 65.81 83.89 C 64.10 79.58 74.08 78.46 70.63 83.57 C 70.19 83.70 69.31 83.95 68.87 84.08 L 68.03 84.10 C 67.48 84.05 66.37 83.94 65.81 83.89 Z" />
<path fill="#fedc76" opacity="1.00" d=" M 73.89 79.73 C 75.85 79.73 74.57 82.95 73.12 81.68 L 72.94 81.00 C 73.18 80.69 73.65 80.05 73.89 79.73 Z" />
<path fill="#ffcd73" opacity="1.00" d=" M 35.04 80.72 C 37.67 79.85 40.00 82.43 39.40 84.99 C 37.85 86.71 35.73 85.53 33.81 85.87 C 33.72 84.12 33.03 81.68 35.04 80.72 Z" />
<path fill="#fedc76" opacity="1.00" d=" M 43.65 82.31 C 46.40 81.85 49.07 80.67 51.89 80.72 C 52.26 81.40 53.00 82.77 53.38 83.46 C 50.16 84.33 46.53 84.03 43.65 82.31 Z" />
<path fill="#ffcd73" opacity="1.00" d=" M 40.86 82.99 C 40.20 82.53 40.20 82.53 40.86 82.99 Z" />
<path fill="#fedc76" opacity="1.00" d=" M 26.90 84.98 C 27.18 84.41 27.73 83.26 28.01 82.69 C 28.58 82.84 29.73 83.13 30.30 83.28 C 30.22 84.96 28.29 85.64 26.90 84.98 Z" />
<path fill="#ffcd73" opacity="1.00" d=" M 40.86 82.99 C 41.39 82.95 42.43 82.88 42.96 82.84 C 43.71 84.69 43.02 86.57 42.02 88.17 C 41.28 88.05 39.81 87.80 39.08 87.68 L 38.98 87.15 C 39.24 85.63 40.13 84.31 40.86 82.99 Z" />
<path fill="#fedc76" opacity="1.00" d=" M 53.38 83.46 C 53.44 83.47 53.57 83.49 53.63 83.50 C 53.57 83.49 53.44 83.47 53.38 83.46 Z" />
<path fill="#ffcd73" opacity="1.00" d=" M 58.59 86.12 C 58.95 84.11 61.16 82.86 63.07 82.72 C 63.49 83.81 63.83 84.92 64.10 86.05 L 64.11 86.77 C 63.08 86.46 62.03 86.30 60.96 86.28 C 60.37 86.24 59.18 86.16 58.59 86.12 Z" />
<path fill="#fedc76" opacity="1.00" d=" M 72.54 83.44 C 72.65 83.57 72.87 83.83 72.98 83.97 C 72.87 83.83 72.65 83.57 72.54 83.44 Z" />
<path fill="#ffcd73" opacity="1.00" d=" M 42.52 87.96 C 43.56 85.78 45.31 83.26 48.12 84.05 C 48.80 85.98 47.97 88.49 45.87 89.03 L 45.34 89.03 C 44.63 88.76 43.22 88.23 42.52 87.96 Z" />
<path fill="#fedc76" opacity="1.00" d=" M 68.03 84.10 L 68.87 84.08 C 70.63 85.91 66.26 85.94 68.03 84.10 Z" />
<path fill="#fedc76" opacity="1.00" d=" M 72.98 83.97 L 73.74 84.36 C 73.55 84.45 73.17 84.64 72.97 84.73 L 72.98 83.97 Z" />
<path fill="#ffcd73" opacity="1.00" d=" M 48.64 85.91 C 50.76 84.46 55.59 85.90 54.08 89.12 C 53.51 89.11 52.37 89.09 51.80 89.08 C 51.08 88.99 49.63 88.82 48.90 88.73 C 48.84 88.03 48.70 86.62 48.64 85.91 Z" />
<path fill="#ffcd73" opacity="1.00" d=" M 54.98 84.91 C 57.23 83.98 60.00 86.65 59.07 88.92 L 57.83 88.90 C 57.16 88.89 55.82 88.88 55.15 88.88 C 54.57 87.58 54.52 86.26 54.98 84.91 Z" />
<path fill="#fedc76" opacity="1.00" d=" M 65.83 85.75 C 66.57 85.17 66.57 85.17 65.83 85.75 Z" />
<path fill="#fedc76" opacity="1.00" d=" M 33.81 85.87 C 33.45 86.58 33.45 86.58 33.81 85.87 Z" />
<path fill="#fedc76" opacity="1.00" d=" M 60.96 86.28 C 62.03 86.30 63.08 86.46 64.11 86.77 C 63.98 88.67 60.06 88.11 60.96 86.28 Z" />
<path fill="#fedc76" opacity="1.00" d=" M 64.10 86.05 C 64.53 85.98 65.40 85.83 65.83 85.75 C 65.40 86.01 64.54 86.52 64.11 86.77 L 64.10 86.05 Z" />
<path fill="#fedc76" opacity="1.00" d=" M 39.08 87.68 C 39.05 87.55 39.01 87.28 38.98 87.15 L 39.08 87.68 Z" />
<path fill="#fedc76" opacity="1.00" d=" M 45.34 89.03 L 45.87 89.03 C 45.74 89.03 45.47 89.03 45.34 89.03 Z" />
<path fill="#fedc76" opacity="1.00" d=" M 51.80 89.08 C 52.11 91.20 46.41 90.02 48.90 88.73 C 49.63 88.82 51.08 88.99 51.80 89.08 Z" />
<path fill="#fedc76" opacity="1.00" d=" M 55.15 88.88 C 55.82 88.88 57.16 88.89 57.83 88.90 C 58.38 90.62 54.62 90.58 55.15 88.88 Z" />
</svg>
