<?xml version="1.0" encoding="UTF-8" ?>
<!DOCTYPE svg PUBLIC "-//W3C//DTD SVG 1.1//EN" "http://www.w3.org/Graphics/SVG/1.1/DTD/svg11.dtd">
<svg width="96pt" height="96pt" viewBox="0 0 96 96" version="1.1" xmlns="http://www.w3.org/2000/svg">
<g id="#2e8659ff">
<path fill="#2e8659" opacity="1.00" d=" M 33.05 31.16 C 38.71 22.89 48.75 19.71 58.00 17.37 C 64.72 19.44 72.53 19.80 77.54 25.41 C 86.53 32.74 89.06 45.01 89.35 56.01 C 88.25 60.36 83.29 59.50 79.90 59.59 C 75.33 67.16 70.38 75.66 62.04 79.48 C 45.17 80.81 30.18 70.48 13.95 67.60 C 11.43 68.24 9.41 69.98 7.08 71.06 C 4.41 70.40 5.75 67.39 6.99 65.96 C 12.36 59.80 20.42 57.34 27.30 53.43 C 28.56 45.90 28.50 37.71 33.05 31.16 M 45.16 25.25 C 35.29 30.31 30.03 41.62 31.22 52.48 C 46.07 53.62 61.29 57.63 76.03 54.97 C 76.73 44.38 74.17 31.74 66.01 23.95 C 59.93 18.78 51.38 22.11 45.16 25.25 M 14.75 64.07 C 29.29 67.79 43.02 74.76 57.99 76.70 C 66.61 75.29 71.24 66.48 75.91 59.96 C 63.55 58.46 50.95 60.45 38.71 57.51 C 30.13 55.01 21.66 59.34 14.75 64.07 Z" />
</g>
<g id="#359e69ff">
<path fill="#359e69" opacity="1.00" d=" M 45.16 25.25 C 51.38 22.11 59.93 18.78 66.01 23.95 C 74.17 31.74 76.73 44.38 76.03 54.97 C 61.29 57.63 46.07 53.62 31.22 52.48 C 30.03 41.62 35.29 30.31 45.16 25.25 M 40.26 42.87 C 41.53 51.49 53.29 49.86 56.31 43.25 C 59.37 44.74 62.70 49.59 66.17 48.11 C 64.38 43.36 61.38 39.28 58.54 35.13 C 57.43 36.41 56.33 37.70 55.26 39.01 C 50.59 34.31 40.04 34.58 40.26 42.87 Z" />
<path fill="#359e69" opacity="1.00" d=" M 44.50 39.41 C 47.70 36.68 51.50 40.06 54.54 41.38 C 52.37 43.45 50.34 46.53 47.00 46.50 C 43.53 46.45 41.39 41.51 44.50 39.41 Z" />
<path fill="#359e69" opacity="1.00" d=" M 58.19 39.47 C 59.13 40.81 60.05 42.18 61.00 43.52 C 59.75 42.83 58.46 42.21 57.17 41.62 C 57.51 40.90 57.85 40.18 58.19 39.47 Z" />
<path fill="#359e69" opacity="1.00" d=" M 14.75 64.07 C 21.66 59.34 30.13 55.01 38.71 57.51 C 50.95 60.45 63.55 58.46 75.91 59.96 C 71.24 66.48 66.61 75.29 57.99 76.70 C 43.02 74.76 29.29 67.79 14.75 64.07 Z" />
</g>
<g id="#ffffffff">
<path fill="#ffffff" opacity="1.00" d=" M 40.26 42.87 C 40.04 34.58 50.59 34.31 55.26 39.01 C 56.33 37.70 57.43 36.41 58.54 35.13 C 61.38 39.28 64.38 43.36 66.17 48.11 C 62.70 49.59 59.37 44.74 56.31 43.25 C 53.29 49.86 41.53 51.49 40.26 42.87 M 44.50 39.41 C 41.39 41.51 43.53 46.45 47.00 46.50 C 50.34 46.53 52.37 43.45 54.54 41.38 C 51.50 40.06 47.70 36.68 44.50 39.41 M 58.19 39.47 C 57.85 40.18 57.51 40.90 57.17 41.62 C 58.46 42.21 59.75 42.83 61.00 43.52 C 60.05 42.18 59.13 40.81 58.19 39.47 Z" />
</g>
</svg>
