<?xml version="1.0" encoding="UTF-8" ?>
<!DOCTYPE svg PUBLIC "-//W3C//DTD SVG 1.1//EN" "http://www.w3.org/Graphics/SVG/1.1/DTD/svg11.dtd">
<svg width="96pt" height="96pt" viewBox="0 0 96 96" version="1.1" xmlns="http://www.w3.org/2000/svg">
<g id="#eea44fff">
<path fill="#eea44f" opacity="1.00" d=" M 29.16 9.44 C 40.51 3.77 54.38 3.69 65.86 9.07 C 64.82 11.08 64.56 13.34 64.47 15.57 L 64.44 15.56 C 64.35 13.98 64.26 12.40 64.18 10.82 C 53.63 6.14 41.37 6.50 30.83 10.99 C 30.41 10.60 29.57 9.83 29.16 9.44 Z" />
</g>
<g id="#c84e12ff">
<path fill="#c84e12" opacity="1.00" d=" M 18.47 12.67 C 18.47 7.29 26.13 5.15 29.16 9.44 C 29.57 9.83 30.41 10.60 30.83 10.99 C 30.76 13.18 30.57 15.41 29.18 17.22 C 28.48 15.18 27.88 13.06 26.67 11.25 L 25.40 11.81 C 25.76 11.32 26.49 10.35 26.86 9.86 C 23.44 8.66 21.17 11.19 18.47 12.67 Z" />
</g>
<g id="#ab4311f7">
<path fill="#ab4311" opacity="0.97" d=" M 65.86 9.07 C 69.16 5.22 75.69 6.85 76.92 11.71 L 75.99 13.01 C 74.95 11.90 73.93 10.79 72.87 9.70 C 72.01 8.56 69.93 8.39 69.12 9.66 L 68.51 10.45 C 68.02 11.09 67.56 11.74 67.13 12.40 C 66.98 13.29 66.69 15.06 66.54 15.94 C 66.02 15.85 64.99 15.66 64.47 15.57 C 64.56 13.34 64.82 11.08 65.86 9.07 Z" />
</g>
<g id="#fded78ff">
<path fill="#fded78" opacity="1.00" d=" M 30.83 10.99 C 41.37 6.50 53.63 6.14 64.18 10.82 C 64.26 12.40 64.35 13.98 64.44 15.56 C 64.14 15.49 63.56 15.34 63.26 15.27 C 62.82 14.09 62.43 12.89 62.02 11.69 C 61.58 11.54 60.68 11.25 60.24 11.10 C 60.67 14.17 61.32 17.21 62.19 20.19 C 63.92 20.82 65.64 21.46 67.39 22.02 C 62.62 22.52 57.38 24.69 55.02 29.10 C 53.15 32.66 57.16 36.72 60.80 35.43 C 60.42 35.86 59.65 36.73 59.26 37.17 C 57.49 36.74 55.75 36.19 54.02 35.63 C 51.05 39.75 48.70 44.43 44.78 47.79 C 42.44 49.81 39.91 51.61 37.27 53.23 C 32.58 56.27 26.79 56.20 21.58 57.76 C 22.06 59.75 22.41 61.78 22.41 63.84 C 21.21 62.13 20.09 60.35 19.33 58.40 C 18.87 55.32 17.99 52.31 16.62 49.51 C 19.43 48.83 22.89 48.35 24.48 45.58 C 25.72 43.42 24.42 40.73 22.38 39.61 C 19.14 37.45 15.03 38.24 11.59 39.41 C 11.22 39.57 10.49 39.89 10.13 40.05 C 9.43 41.72 8.83 43.43 8.23 45.14 C 7.99 41.77 8.65 38.46 9.02 35.14 C 9.61 35.27 10.78 35.54 11.37 35.68 C 16.97 32.64 23.56 31.88 29.75 33.28 C 32.38 34.00 34.56 35.71 37.05 36.76 C 39.83 37.57 41.79 34.01 41.22 31.60 C 40.40 27.06 35.70 24.88 31.81 23.43 C 26.49 21.32 20.69 22.72 15.17 21.91 C 14.91 21.78 14.38 21.51 14.12 21.38 C 17.70 18.01 20.87 13.96 25.40 11.81 L 26.67 11.25 C 27.88 13.06 28.48 15.18 29.18 17.22 C 30.57 15.41 30.76 13.18 30.83 10.99 Z" />
</g>
<g id="#592106ba">
<path fill="#592106" opacity="0.73" d=" M 69.12 9.66 C 69.93 8.39 72.01 8.56 72.87 9.70 C 71.60 10.58 70.35 10.57 69.12 9.66 Z" />
</g>
<g id="#ffd875ff">
<path fill="#ffd875" opacity="1.00" d=" M 60.24 11.10 C 60.68 11.25 61.58 11.54 62.02 11.69 C 62.43 12.89 62.82 14.09 63.26 15.27 C 63.56 15.34 64.14 15.49 64.44 15.56 L 64.47 15.57 C 64.99 15.66 66.02 15.85 66.54 15.94 C 66.69 15.06 66.98 13.29 67.13 12.40 C 71.58 14.95 75.64 18.18 78.79 22.25 L 76.81 22.40 C 73.67 22.22 70.53 22.18 67.39 22.02 C 65.64 21.46 63.92 20.82 62.19 20.19 C 61.32 17.21 60.67 14.17 60.24 11.10 Z" />
</g>
<g id="#efaa51ff">
<path fill="#efaa51" opacity="1.00" d=" M 67.13 12.40 C 67.56 11.74 68.02 11.09 68.51 10.45 C 74.91 14.02 80.39 19.22 84.20 25.49 C 81.85 24.21 79.35 23.23 76.81 22.40 L 78.79 22.25 C 75.64 18.18 71.58 14.95 67.13 12.40 Z" />
<path fill="#efaa51" opacity="1.00" d=" M 86.45 37.06 C 87.16 36.44 87.87 35.83 88.59 35.22 C 90.18 39.79 90.79 44.68 90.40 49.51 L 90.06 48.34 C 88.95 44.55 87.50 40.87 86.45 37.06 Z" />
<path fill="#efaa51" opacity="1.00" d=" M 8.03 63.44 C 9.13 64.03 10.25 64.59 11.39 65.09 C 13.25 69.53 16.10 73.44 19.34 76.96 C 19.82 75.29 20.27 73.63 20.80 71.98 C 19.51 75.16 20.84 78.49 23.69 80.22 C 29.72 85.73 37.91 88.29 45.94 88.78 C 61.04 89.62 76.32 81.12 83.24 67.62 C 80.65 67.44 77.90 67.63 75.56 66.30 C 79.47 67.18 83.94 67.17 87.06 64.27 L 87.58 63.90 C 82.26 77.89 69.04 88.58 54.17 90.58 C 46.97 91.43 39.48 91.01 32.69 88.28 C 21.45 84.02 12.12 74.78 8.03 63.44 Z" />
</g>
<g id="#1f1f1fff">
<path fill="#1f1f1f" opacity="1.00" d=" M 13.37 21.89 C 13.82 21.90 14.72 21.91 15.17 21.91 C 20.69 22.72 26.49 21.32 31.81 23.43 C 35.70 24.88 40.40 27.06 41.22 31.60 C 41.79 34.01 39.83 37.57 37.05 36.76 C 34.56 35.71 32.38 34.00 29.75 33.28 C 23.56 31.88 16.97 32.64 11.37 35.68 C 10.78 35.54 9.61 35.27 9.02 35.14 C 8.20 33.76 6.78 32.66 6.51 31.01 C 6.86 27.78 9.69 25.49 12.60 24.50 C 12.79 23.85 13.18 22.55 13.37 21.89 M 9.99 26.41 C 13.10 26.46 16.66 29.32 14.91 32.63 C 19.78 31.12 25.06 31.05 30.04 32.04 C 33.05 32.58 35.24 35.11 38.20 35.71 C 39.48 34.85 40.70 33.53 40.27 31.83 C 39.29 27.94 35.33 26.06 31.93 24.68 C 24.78 22.18 16.59 22.51 9.99 26.41 Z" />
<path fill="#1f1f1f" opacity="1.00" d=" M 55.02 29.10 C 57.38 24.69 62.62 22.52 67.39 22.02 C 70.53 22.18 73.67 22.22 76.81 22.40 C 79.35 23.23 81.85 24.21 84.20 25.49 C 87.58 27.41 90.22 31.27 88.59 35.22 C 87.87 35.83 87.16 36.44 86.45 37.06 C 86.40 36.84 86.29 36.40 86.24 36.18 C 88.79 34.04 88.78 30.07 86.14 28.02 C 78.29 22.21 66.88 21.33 58.38 26.29 C 61.41 26.83 64.14 29.25 63.10 32.54 C 68.52 31.00 74.30 31.10 79.74 32.44 C 79.60 32.77 79.31 33.43 79.17 33.76 C 73.19 32.17 66.15 31.78 60.80 35.43 C 57.16 36.72 53.15 32.66 55.02 29.10 Z" />
</g>
<g id="#ffffffff">
<path fill="#ffffff" opacity="1.00" d=" M 58.38 26.29 C 66.88 21.33 78.29 22.21 86.14 28.02 C 88.78 30.07 88.79 34.04 86.24 36.18 C 84.98 33.72 85.63 28.75 82.02 28.54 C 80.83 29.54 80.41 31.10 79.74 32.44 C 74.30 31.10 68.52 31.00 63.10 32.54 C 64.14 29.25 61.41 26.83 58.38 26.29 Z" />
<path fill="#ffffff" opacity="1.00" d=" M 9.99 26.41 C 16.59 22.51 24.78 22.18 31.93 24.68 C 35.33 26.06 39.29 27.94 40.27 31.83 C 40.70 33.53 39.48 34.85 38.20 35.71 C 35.24 35.11 33.05 32.58 30.04 32.04 C 25.06 31.05 19.78 31.12 14.91 32.63 C 16.66 29.32 13.10 26.46 9.99 26.41 Z" />
</g>
<g id="#24aeebfe">
<path fill="#24aeeb" opacity="1.00" d=" M 79.74 32.44 C 80.41 31.10 80.83 29.54 82.02 28.54 C 85.63 28.75 84.98 33.72 86.24 36.18 C 86.29 36.40 86.40 36.84 86.45 37.06 C 87.50 40.87 88.95 44.55 90.06 48.34 C 90.32 51.96 90.43 55.59 90.17 59.20 C 89.45 61.05 88.44 62.83 87.06 64.27 C 83.94 67.17 79.47 67.18 75.56 66.30 L 74.35 65.39 C 73.62 64.67 72.93 63.91 72.26 63.14 C 69.48 58.38 70.55 52.64 72.74 47.89 C 74.26 44.51 75.81 41.15 77.34 37.77 C 77.96 36.44 78.58 35.11 79.17 33.76 C 79.31 33.43 79.60 32.77 79.74 32.44 M 82.54 30.25 C 81.55 32.53 80.61 34.85 79.70 37.17 L 79.46 37.04 C 78.45 39.46 77.44 41.87 76.42 44.28 L 76.20 44.06 C 74.98 46.94 73.82 49.85 72.79 52.80 C 71.56 56.28 72.41 60.43 74.86 63.18 C 77.11 65.77 80.97 64.48 83.97 64.87 L 83.53 64.56 C 85.34 63.33 86.95 61.85 88.33 60.16 L 88.11 59.52 C 90.29 54.27 88.36 48.82 86.89 43.68 L 86.59 43.64 C 85.10 39.21 84.13 34.63 82.54 30.25 Z" />
</g>
<g id="#d9eaf0ff">
<path fill="#d9eaf0" opacity="1.00" d=" M 82.54 30.25 C 84.13 34.63 85.10 39.21 86.59 43.64 C 86.25 43.59 85.58 43.49 85.24 43.44 C 83.63 41.17 82.64 38.05 79.70 37.17 C 80.61 34.85 81.55 32.53 82.54 30.25 Z" />
</g>
<g id="#fedf76ff">
<path fill="#fedf76" opacity="1.00" d=" M 60.80 35.43 C 66.15 31.78 73.19 32.17 79.17 33.76 C 78.58 35.11 77.96 36.44 77.34 37.77 C 73.81 38.67 70.20 40.58 69.90 44.65 C 67.71 45.46 66.15 47.15 65.25 49.29 C 61.47 57.12 54.52 62.90 46.96 66.91 C 42.57 69.04 37.61 69.37 32.93 70.53 C 36.51 71.95 40.16 73.43 44.06 73.64 C 47.61 73.82 51.23 73.84 54.65 74.94 C 45.49 76.92 35.46 75.05 27.88 69.43 C 27.07 67.35 26.88 64.80 25.01 63.34 C 24.65 63.88 23.92 64.94 23.56 65.48 C 23.17 64.93 22.79 64.38 22.41 63.84 C 22.41 61.78 22.06 59.75 21.58 57.76 C 26.79 56.20 32.58 56.27 37.27 53.23 C 39.91 51.61 42.44 49.81 44.78 47.79 C 48.70 44.43 51.05 39.75 54.02 35.63 C 55.75 36.19 57.49 36.74 59.26 37.17 C 59.65 36.73 60.42 35.86 60.80 35.43 Z" />
</g>
<g id="#efa54fff">
<path fill="#efa54f" opacity="1.00" d=" M 7.52 34.71 C 7.89 34.82 8.64 35.03 9.02 35.14 C 8.65 38.46 7.99 41.77 8.23 45.14 C 7.31 48.12 6.13 51.06 5.96 54.21 C 5.84 54.34 5.59 54.59 5.46 54.72 C 5.39 54.52 5.25 54.13 5.19 53.94 C 5.29 47.55 4.72 40.49 7.52 34.71 Z" />
</g>
<g id="#abd9ecff">
<path fill="#abd9ec" opacity="1.00" d=" M 79.46 37.04 L 79.70 37.17 C 82.64 38.05 83.63 41.17 85.24 43.44 C 85.58 43.49 86.25 43.59 86.59 43.64 L 86.89 43.68 C 88.36 48.82 90.29 54.27 88.11 59.52 C 86.87 52.72 80.78 48.98 76.42 44.28 C 77.44 41.87 78.45 39.46 79.46 37.04 Z" />
</g>
<g id="#f3ab64ff">
<path fill="#f3ab64" opacity="1.00" d=" M 11.59 39.41 C 15.03 38.24 19.14 37.45 22.38 39.61 C 24.42 40.73 25.72 43.42 24.48 45.58 C 22.89 48.35 19.43 48.83 16.62 49.51 C 16.46 49.17 16.14 48.48 15.98 48.14 C 18.37 46.83 22.60 46.02 21.69 42.38 C 19.45 39.62 15.52 40.72 12.43 40.21 L 11.59 39.41 Z" />
</g>
<g id="#f89958ff">
<path fill="#f89958" opacity="1.00" d=" M 69.90 44.65 C 70.20 40.58 73.81 38.67 77.34 37.77 C 75.81 41.15 74.26 44.51 72.74 47.89 C 71.80 46.81 70.85 45.73 69.90 44.65 Z" />
</g>
<g id="#2bb0e3ff">
<path fill="#2bb0e3" opacity="1.00" d=" M 10.13 40.05 C 10.49 39.89 11.22 39.57 11.59 39.41 L 12.43 40.21 C 13.72 42.80 14.78 45.51 15.98 48.14 C 16.14 48.48 16.46 49.17 16.62 49.51 C 17.99 52.31 18.87 55.32 19.33 58.40 C 19.14 59.16 18.74 60.68 18.55 61.44 C 17.20 64.18 14.32 65.27 11.39 65.09 C 10.25 64.59 9.13 64.03 8.03 63.44 C 5.85 61.44 5.14 58.38 5.15 55.52 L 5.46 54.72 C 5.59 54.59 5.84 54.34 5.96 54.21 C 6.13 51.06 7.31 48.12 8.23 45.14 C 8.83 43.43 9.43 41.72 10.13 40.05 M 7.60 53.01 C 6.28 55.96 6.36 59.88 9.24 61.88 C 12.15 64.05 14.33 59.63 16.61 58.37 C 16.98 55.12 15.92 52.04 14.68 49.10 L 14.44 49.36 C 13.45 46.87 12.47 44.39 11.45 41.92 C 9.95 45.53 8.68 49.25 7.60 53.01 Z" />
</g>
<g id="#ec973bff">
<path fill="#ec973b" opacity="1.00" d=" M 12.43 40.21 C 15.52 40.72 19.45 39.62 21.69 42.38 C 22.60 46.02 18.37 46.83 15.98 48.14 C 14.78 45.51 13.72 42.80 12.43 40.21 Z" />
</g>
<g id="#b6ddedff">
<path fill="#b6dded" opacity="1.00" d=" M 7.60 53.01 C 8.68 49.25 9.95 45.53 11.45 41.92 C 12.47 44.39 13.45 46.87 14.44 49.36 C 12.24 51.71 10.02 54.05 7.72 56.32 C 7.69 55.49 7.63 53.84 7.60 53.01 Z" />
</g>
<g id="#6ec4e8ff">
<path fill="#6ec4e8" opacity="1.00" d=" M 76.20 44.06 L 76.42 44.28 C 80.78 48.98 86.87 52.72 88.11 59.52 L 88.33 60.16 C 86.95 61.85 85.34 63.33 83.53 64.56 C 79.45 61.26 74.00 58.31 72.79 52.80 C 73.82 49.85 74.98 46.94 76.20 44.06 Z" />
</g>
<g id="#ffd374ff">
<path fill="#ffd374" opacity="1.00" d=" M 65.25 49.29 C 66.15 47.15 67.71 45.46 69.90 44.65 C 70.85 45.73 71.80 46.81 72.74 47.89 C 70.55 52.64 69.48 58.38 72.26 63.14 L 72.63 64.04 C 68.26 69.76 61.65 73.49 54.65 74.94 C 51.23 73.84 47.61 73.82 44.06 73.64 C 40.16 73.43 36.51 71.95 32.93 70.53 C 37.61 69.37 42.57 69.04 46.96 66.91 C 54.52 62.90 61.47 57.12 65.25 49.29 Z" />
</g>
<g id="#74c5e8ff">
<path fill="#74c5e8" opacity="1.00" d=" M 14.44 49.36 L 14.68 49.10 C 15.92 52.04 16.98 55.12 16.61 58.37 C 14.33 59.63 12.15 64.05 9.24 61.88 C 6.36 59.88 6.28 55.96 7.60 53.01 C 7.63 53.84 7.69 55.49 7.72 56.32 C 10.02 54.05 12.24 51.71 14.44 49.36 Z" />
</g>
<g id="#134f68a8">
<path fill="#134f68" opacity="0.66" d=" M 90.06 48.34 L 90.40 49.51 C 91.36 52.68 91.19 56.07 90.17 59.20 C 90.43 55.59 90.32 51.96 90.06 48.34 Z" />
</g>
<g id="#3fb3e4ff">
<path fill="#3fb3e4" opacity="1.00" d=" M 74.86 63.18 C 72.41 60.43 71.56 56.28 72.79 52.80 C 74.00 58.31 79.45 61.26 83.53 64.56 L 83.97 64.87 C 80.97 64.48 77.11 65.77 74.86 63.18 Z" />
</g>
<g id="#6a0000ff">
<path fill="#6a0000" opacity="1.00" d=" M 19.33 58.40 C 20.09 60.35 21.21 62.13 22.41 63.84 C 22.79 64.38 23.17 64.93 23.56 65.48 C 23.16 66.26 22.80 67.06 22.44 67.87 C 21.12 65.74 19.82 63.59 18.55 61.44 C 18.74 60.68 19.14 59.16 19.33 58.40 Z" />
<path fill="#6a0000" opacity="1.00" d=" M 72.26 63.14 C 72.93 63.91 73.62 64.67 74.35 65.39 C 64.58 79.57 43.56 82.48 29.24 73.75 C 28.81 72.30 28.34 70.87 27.88 69.43 C 35.46 75.05 45.49 76.92 54.65 74.94 C 61.65 73.49 68.26 69.76 72.63 64.04 L 72.26 63.14 Z" />
</g>
<g id="#ffd575ff">
<path fill="#ffd575" opacity="1.00" d=" M 11.39 65.09 C 14.32 65.27 17.20 64.18 18.55 61.44 C 19.82 63.59 21.12 65.74 22.44 67.87 C 21.85 69.22 21.26 70.58 20.80 71.98 C 20.27 73.63 19.82 75.29 19.34 76.96 C 16.10 73.44 13.25 69.53 11.39 65.09 Z" />
</g>
<g id="#1ca9e9ff">
<path fill="#1ca9e9" opacity="1.00" d=" M 23.56 65.48 C 23.92 64.94 24.65 63.88 25.01 63.34 C 26.88 64.80 27.07 67.35 27.88 69.43 C 28.34 70.87 28.81 72.30 29.24 73.75 C 29.97 77.30 27.40 80.59 23.69 80.22 C 20.84 78.49 19.51 75.16 20.80 71.98 C 21.26 70.58 21.85 69.22 22.44 67.87 C 22.80 67.06 23.16 66.26 23.56 65.48 M 24.62 66.59 C 23.86 68.60 23.09 70.62 22.48 72.69 L 22.21 71.80 C 22.24 73.40 21.57 75.20 22.37 76.69 C 23.31 78.16 25.20 77.46 26.63 77.64 C 27.71 75.30 27.50 72.77 26.68 70.38 C 26.14 69.05 25.78 67.55 24.62 66.59 Z" />
</g>
<g id="#ffca73ff">
<path fill="#ffca73" opacity="1.00" d=" M 29.24 73.75 C 43.56 82.48 64.58 79.57 74.35 65.39 L 75.56 66.30 C 77.90 67.63 80.65 67.44 83.24 67.62 C 76.32 81.12 61.04 89.62 45.94 88.78 C 37.91 88.29 29.72 85.73 23.69 80.22 C 27.40 80.59 29.97 77.30 29.24 73.75 Z" />
</g>
<g id="#aedaedff">
<path fill="#aedaed" opacity="1.00" d=" M 24.62 66.59 C 25.78 67.55 26.14 69.05 26.68 70.38 C 25.45 71.74 24.22 73.10 22.98 74.45 C 22.85 74.01 22.60 73.13 22.48 72.69 C 23.09 70.62 23.86 68.60 24.62 66.59 Z" />
</g>
<g id="#6bc2e7ff">
<path fill="#6bc2e7" opacity="1.00" d=" M 26.68 70.38 C 27.50 72.77 27.71 75.30 26.63 77.64 C 25.20 77.46 23.31 78.16 22.37 76.69 C 21.57 75.20 22.24 73.40 22.21 71.80 L 22.48 72.69 C 22.60 73.13 22.85 74.01 22.98 74.45 C 24.22 73.10 25.45 71.74 26.68 70.38 Z" />
</g>
</svg>
