<?xml version="1.0" encoding="UTF-8" ?>
<!DOCTYPE svg PUBLIC "-//W3C//DTD SVG 1.1//EN" "http://www.w3.org/Graphics/SVG/1.1/DTD/svg11.dtd">
<svg width="96pt" height="96pt" viewBox="0 0 96 96" version="1.1" xmlns="http://www.w3.org/2000/svg">
<g id="#eea44eff">
<path fill="#eea44e" opacity="1.00" d=" M 29.45 9.37 C 40.90 3.80 54.89 3.62 66.36 9.21 C 65.77 10.12 65.21 11.05 64.62 11.96 C 62.87 9.32 59.47 9.07 56.68 8.31 C 50.06 7.15 42.83 6.69 36.54 9.48 C 34.51 10.36 32.44 11.17 30.33 11.84 C 30.11 11.22 29.67 9.99 29.45 9.37 Z" />
</g>
<g id="#a2390aff">
<path fill="#a2390a" opacity="1.00" d=" M 22.96 11.18 C 18.81 7.26 28.99 4.41 29.45 9.37 C 29.67 9.99 30.11 11.22 30.33 11.84 C 32.44 11.17 34.51 10.36 36.54 9.48 C 39.93 10.59 42.71 16.50 39.05 18.63 C 36.68 17.92 37.06 15.04 36.25 13.21 C 33.62 14.18 30.72 16.30 27.93 14.59 C 27.67 14.14 27.14 13.24 26.87 12.79 C 26.78 12.39 26.59 11.58 26.49 11.18 C 26.43 10.89 26.30 10.30 26.23 10.00 C 25.14 10.39 24.05 10.78 22.96 11.18 Z" />
</g>
<g id="#a43c0dff">
<path fill="#a43c0d" opacity="1.00" d=" M 66.36 9.21 C 67.59 7.37 70.19 6.66 72.11 7.86 C 73.46 8.59 76.12 9.86 74.97 11.78 C 73.30 13.18 71.51 10.94 69.92 10.38 C 69.80 10.55 69.57 10.89 69.45 11.06 C 69.17 11.45 68.62 12.25 68.35 12.64 C 67.33 13.97 66.38 15.44 64.92 16.33 C 63.17 16.83 61.60 15.74 60.04 15.14 C 58.92 16.12 57.54 19.00 55.97 17.03 C 54.26 15.54 56.60 13.73 57.57 12.57 C 59.17 10.71 61.59 12.09 63.48 12.54 L 64.62 11.96 C 65.21 11.05 65.77 10.12 66.36 9.21 Z" />
</g>
<g id="#fee377ff">
<path fill="#fee377" opacity="1.00" d=" M 36.54 9.48 C 42.83 6.69 50.06 7.15 56.68 8.31 C 59.47 9.07 62.87 9.32 64.62 11.96 L 63.48 12.54 C 61.59 12.09 59.17 10.71 57.57 12.57 C 56.60 13.73 54.26 15.54 55.97 17.03 C 57.54 19.00 58.92 16.12 60.04 15.14 C 61.60 15.74 63.17 16.83 64.92 16.33 C 66.38 15.44 67.33 13.97 68.35 12.64 C 76.11 17.46 82.57 24.53 85.90 33.11 C 89.60 42.28 89.65 52.77 86.23 62.04 C 84.18 59.22 79.99 59.21 78.43 62.50 C 77.95 60.81 77.43 59.14 76.87 57.48 C 76.49 49.17 75.56 40.82 72.54 33.00 C 72.95 32.74 73.77 32.22 74.17 31.96 C 70.59 28.88 65.46 28.74 61.23 26.88 C 59.16 26.46 56.22 24.07 54.99 27.09 C 57.10 28.08 59.32 28.80 61.54 29.51 C 60.08 31.66 60.84 34.25 61.09 36.61 C 62.03 43.17 61.92 49.85 61.07 56.41 C 58.07 52.75 54.05 49.18 49.03 49.20 C 43.29 48.88 38.47 52.84 35.32 57.27 C 34.58 51.88 34.04 46.45 34.30 41.01 C 34.42 37.10 35.45 33.18 34.55 29.29 C 36.45 28.24 40.87 28.55 39.38 25.35 C 33.71 27.14 28.13 29.23 22.39 30.81 C 22.84 28.64 24.86 27.22 25.10 24.99 C 25.72 21.45 26.46 17.90 27.93 14.59 C 30.72 16.30 33.62 14.18 36.25 13.21 C 37.06 15.04 36.68 17.92 39.05 18.63 C 42.71 16.50 39.93 10.59 36.54 9.48 Z" />
</g>
<g id="#efa950ff">
<path fill="#efa950" opacity="1.00" d=" M 69.45 11.06 C 80.31 16.67 87.84 27.74 90.23 39.61 C 92.22 50.84 90.33 63.25 83.19 72.39 C 82.47 73.32 81.74 74.24 81.02 75.18 C 80.53 75.74 79.56 76.88 79.07 77.45 C 78.78 77.06 78.18 76.26 77.89 75.86 C 81.14 71.56 84.43 67.18 86.23 62.04 C 89.65 52.77 89.60 42.28 85.90 33.11 C 82.57 24.53 76.11 17.46 68.35 12.64 C 68.62 12.25 69.17 11.45 69.45 11.06 Z" />
</g>
<g id="#eea950ff">
<path fill="#eea950" opacity="1.00" d=" M 5.33 44.91 C 6.23 31.15 14.25 17.76 26.49 11.18 C 26.59 11.58 26.78 12.39 26.87 12.79 C 21.62 17.19 16.14 21.61 12.84 27.77 C 3.96 42.89 6.29 63.88 18.98 76.18 C 18.47 76.80 17.95 77.41 17.41 78.00 C 8.91 69.36 4.35 57.01 5.33 44.91 Z" />
</g>
<g id="#ffca73ff">
<path fill="#ffca73" opacity="1.00" d=" M 12.84 27.77 C 16.14 21.61 21.62 17.19 26.87 12.79 C 27.14 13.24 27.67 14.14 27.93 14.59 C 26.46 17.90 25.72 21.45 25.10 24.99 C 24.86 27.22 22.84 28.64 22.39 30.81 C 22.22 31.13 21.86 31.79 21.68 32.11 C 22.01 32.40 22.66 32.97 22.99 33.25 C 22.18 36.87 20.92 40.39 20.42 44.08 C 18.89 54.71 20.13 65.52 18.98 76.18 C 6.29 63.88 3.96 42.89 12.84 27.77 Z" />
</g>
<g id="#000000ff">
<path fill="#000000" opacity="1.00" d=" M 22.39 30.81 C 28.13 29.23 33.71 27.14 39.38 25.35 C 40.87 28.55 36.45 28.24 34.55 29.29 C 34.09 29.44 33.17 29.74 32.71 29.89 C 30.38 30.61 28.05 31.32 25.78 32.19 C 24.85 32.54 23.92 32.90 22.99 33.25 C 22.66 32.97 22.01 32.40 21.68 32.11 C 21.86 31.79 22.22 31.13 22.39 30.81 Z" />
<path fill="#000000" opacity="1.00" d=" M 54.99 27.09 C 56.22 24.07 59.16 26.46 61.23 26.88 C 65.46 28.74 70.59 28.88 74.17 31.96 C 73.77 32.22 72.95 32.74 72.54 33.00 C 72.01 32.84 70.93 32.53 70.39 32.37 C 67.90 31.58 65.45 30.65 62.94 29.90 C 62.59 29.80 61.89 29.61 61.54 29.51 C 59.32 28.80 57.10 28.08 54.99 27.09 Z" />
</g>
<g id="#3eb3e4ff">
<path fill="#3eb3e4" opacity="1.00" d=" M 32.71 29.89 C 33.17 29.74 34.09 29.44 34.55 29.29 C 35.45 33.18 34.42 37.10 34.30 41.01 C 34.04 46.45 34.58 51.88 35.32 57.27 C 35.92 61.03 36.75 64.76 37.97 68.37 C 39.27 73.08 41.68 77.37 43.27 81.97 C 43.27 85.15 39.54 86.43 36.88 86.15 C 33.54 84.06 29.56 83.74 25.76 84.42 C 23.33 84.89 21.19 83.81 19.19 82.62 C 16.98 82.94 13.34 82.49 14.51 79.31 L 14.64 79.83 C 14.77 80.37 15.05 81.45 15.18 81.99 C 16.91 81.93 18.63 81.86 20.36 81.80 C 19.03 81.49 17.73 81.13 16.43 80.74 C 16.44 80.31 16.47 79.45 16.48 79.02 C 19.18 79.61 20.32 77.06 21.15 75.05 C 26.41 73.78 31.86 74.60 37.20 74.12 C 36.83 70.96 36.12 67.85 35.09 64.85 C 34.81 63.89 34.54 62.92 34.27 61.96 C 33.92 60.28 33.55 58.61 33.24 56.93 C 32.36 49.61 32.28 42.21 32.85 34.86 C 32.99 33.20 32.82 31.54 32.71 29.89 Z" />
<path fill="#3eb3e4" opacity="1.00" d=" M 81.02 75.18 C 81.74 74.24 82.47 73.32 83.19 72.39 C 84.40 73.08 86.93 74.18 85.69 75.99 C 84.61 78.27 81.72 77.15 81.02 75.18 M 83.13 74.09 C 82.63 75.43 83.11 75.94 84.55 75.64 C 85.06 74.30 84.59 73.79 83.13 74.09 Z" />
<path fill="#3eb3e4" opacity="1.00" d=" M 9.60 74.77 C 11.14 74.36 12.63 75.65 13.23 76.98 C 13.76 79.42 10.18 81.79 8.41 79.62 C 6.52 78.21 7.55 75.38 9.60 74.77 M 8.72 76.95 C 9.11 78.13 11.51 78.22 11.94 77.04 C 11.77 75.38 8.96 75.28 8.72 76.95 Z" />
<path fill="#3eb3e4" opacity="1.00" d=" M 79.93 79.31 L 81.16 78.29 C 81.55 78.72 82.34 79.57 82.73 80.00 C 82.45 80.56 81.91 81.68 81.63 82.25 L 81.08 82.18 C 79.33 81.94 77.57 81.71 75.82 81.50 C 77.47 81.15 79.12 80.79 80.78 80.43 C 80.57 80.15 80.14 79.59 79.93 79.31 Z" />
</g>
<g id="#e6eff3ff">
<path fill="#e6eff3" opacity="1.00" d=" M 25.78 32.19 C 28.05 31.32 30.38 30.61 32.71 29.89 C 32.82 31.54 32.99 33.20 32.85 34.86 C 32.50 37.70 32.05 40.53 31.89 43.40 C 31.34 41.00 30.83 38.59 30.44 36.16 C 29.08 36.20 27.70 36.11 26.36 36.37 C 25.39 37.50 25.10 39.69 23.18 39.43 C 23.80 36.94 24.53 34.45 25.78 32.19 Z" />
<path fill="#e6eff3" opacity="1.00" d=" M 83.13 74.09 C 84.59 73.79 85.06 74.30 84.55 75.64 C 83.11 75.94 82.63 75.43 83.13 74.09 Z" />
<path fill="#e6eff3" opacity="1.00" d=" M 8.72 76.95 C 8.96 75.28 11.77 75.38 11.94 77.04 C 11.51 78.22 9.11 78.13 8.72 76.95 Z" />
</g>
<g id="#24a1d8f9">
<path fill="#24a1d8" opacity="0.98" d=" M 61.09 36.61 C 60.84 34.25 60.08 31.66 61.54 29.51 C 61.89 29.61 62.59 29.80 62.94 29.90 C 61.90 32.86 62.94 35.92 63.23 38.90 C 63.43 47.48 63.49 56.17 61.42 64.55 C 61.15 65.66 60.86 66.76 60.60 67.86 C 59.99 70.02 59.32 72.16 58.54 74.26 C 57.39 77.15 56.26 80.05 55.29 83.01 C 59.15 84.95 63.12 82.61 67.00 82.07 C 69.63 82.72 72.16 83.73 74.83 84.27 C 73.50 84.30 72.17 84.36 70.85 84.30 C 66.16 83.19 61.99 85.67 57.55 86.61 C 55.91 85.59 53.26 84.43 53.80 81.99 C 55.13 77.84 57.19 73.95 58.29 69.71 C 58.45 69.19 58.75 68.14 58.91 67.62 C 59.89 63.94 60.55 60.18 61.07 56.41 C 61.92 49.85 62.03 43.17 61.09 36.61 Z" />
</g>
<g id="#ddeaf0ff">
<path fill="#ddeaf0" opacity="1.00" d=" M 63.23 38.90 C 62.94 35.92 61.90 32.86 62.94 29.90 C 65.45 30.65 67.90 31.58 70.39 32.37 C 71.61 36.38 72.95 40.36 73.64 44.51 C 71.64 44.24 71.67 41.59 70.00 40.86 C 68.52 40.55 67.02 40.96 65.53 41.03 C 65.04 42.83 64.51 44.61 64.02 46.41 C 63.87 43.89 63.57 41.39 63.23 38.90 Z" />
</g>
<g id="#23a7e2ff">
<path fill="#23a7e2" opacity="1.00" d=" M 22.99 33.25 C 23.92 32.90 24.85 32.54 25.78 32.19 C 24.53 34.45 23.80 36.94 23.18 39.43 C 22.91 40.58 22.67 41.74 22.47 42.91 C 22.24 44.18 22.04 45.45 21.88 46.73 C 20.65 56.12 21.42 65.61 21.15 75.05 C 20.32 77.06 19.18 79.61 16.48 79.02 L 17.41 78.00 C 17.95 77.41 18.47 76.80 18.98 76.18 C 20.13 65.52 18.89 54.71 20.42 44.08 C 20.92 40.39 22.18 36.87 22.99 33.25 Z" />
</g>
<g id="#3db0daff">
<path fill="#3db0da" opacity="1.00" d=" M 70.39 32.37 C 70.93 32.53 72.01 32.84 72.54 33.00 C 75.56 40.82 76.49 49.17 76.87 57.48 C 76.94 63.61 76.90 69.80 77.89 75.86 C 78.18 76.26 78.78 77.06 79.07 77.45 C 79.75 77.77 80.45 78.06 81.16 78.29 L 79.93 79.31 C 78.70 78.59 76.93 78.24 76.46 76.69 C 75.94 73.35 75.85 69.95 75.12 66.63 C 75.08 65.95 75.00 64.58 74.97 63.89 C 74.93 59.85 75.06 55.79 74.42 51.79 C 74.23 49.35 74.01 46.92 73.64 44.51 C 72.95 40.36 71.61 36.38 70.39 32.37 Z" />
</g>
<g id="#9dd4ebff">
<path fill="#9dd4eb" opacity="1.00" d=" M 31.89 43.40 C 32.05 40.53 32.50 37.70 32.85 34.86 C 32.28 42.21 32.36 49.61 33.24 56.93 C 33.13 57.42 32.91 58.39 32.80 58.87 C 31.35 54.53 26.17 56.49 22.74 56.07 C 23.09 54.23 23.30 52.36 23.49 50.49 C 26.04 50.19 28.61 49.96 31.17 50.02 C 31.28 50.56 31.50 51.64 31.61 52.18 C 32.06 49.27 32.22 46.32 31.89 43.40 Z" />
</g>
<g id="#cbe4efff">
<path fill="#cbe4ef" opacity="1.00" d=" M 26.36 36.37 C 27.70 36.11 29.08 36.20 30.44 36.16 C 30.83 38.59 31.34 41.00 31.89 43.40 C 32.22 46.32 32.06 49.27 31.61 52.18 C 31.50 51.64 31.28 50.56 31.17 50.02 C 30.96 48.07 30.85 46.11 30.73 44.14 C 28.90 44.05 27.01 43.57 25.21 44.08 C 24.43 44.94 23.76 45.88 23.05 46.80 C 22.85 45.50 22.65 44.20 22.47 42.91 C 22.67 41.74 22.91 40.58 23.18 39.43 C 25.10 39.69 25.39 37.50 26.36 36.37 Z" />
</g>
<g id="#8acdeaff">
<path fill="#8acdea" opacity="1.00" d=" M 63.23 38.90 C 63.57 41.39 63.87 43.89 64.02 46.41 C 63.78 48.78 63.79 51.16 63.96 53.54 C 63.98 54.04 64.02 55.04 64.04 55.55 C 66.82 55.11 69.65 54.94 72.46 55.19 C 72.77 55.88 73.40 57.26 73.71 57.95 C 73.88 56.42 74.06 54.89 74.23 53.36 L 74.42 51.79 C 75.06 55.79 74.93 59.85 74.97 63.89 C 70.66 61.71 65.35 61.43 61.42 64.55 C 63.49 56.17 63.43 47.48 63.23 38.90 Z" />
</g>
<g id="#bcdfeeff">
<path fill="#bcdfee" opacity="1.00" d=" M 65.53 41.03 C 67.02 40.96 68.52 40.55 70.00 40.86 C 71.67 41.59 71.64 44.24 73.64 44.51 C 74.01 46.92 74.23 49.35 74.42 51.79 L 74.23 53.36 C 73.51 51.64 72.82 49.87 71.74 48.34 C 69.77 47.71 67.68 48.08 65.66 48.17 C 65.09 49.96 64.49 51.73 63.96 53.54 C 63.79 51.16 63.78 48.78 64.02 46.41 C 64.51 44.61 65.04 42.83 65.53 41.03 Z" />
</g>
<g id="#b2dbedff">
<path fill="#b2dbed" opacity="1.00" d=" M 21.88 46.73 C 22.04 45.45 22.24 44.18 22.47 42.91 C 22.65 44.20 22.85 45.50 23.05 46.80 C 23.76 45.88 24.43 44.94 25.21 44.08 C 27.01 43.57 28.90 44.05 30.73 44.14 C 30.85 46.11 30.96 48.07 31.17 50.02 C 28.61 49.96 26.04 50.19 23.49 50.49 C 23.30 52.36 23.09 54.23 22.74 56.07 C 22.49 56.65 22.01 57.81 21.77 58.39 C 21.79 54.50 21.69 50.62 21.88 46.73 Z" />
</g>
<g id="#5cbde6ff">
<path fill="#5cbde6" opacity="1.00" d=" M 21.15 75.05 C 21.42 65.61 20.65 56.12 21.88 46.73 C 21.69 50.62 21.79 54.50 21.77 58.39 C 21.59 61.00 21.58 63.62 21.75 66.23 C 21.83 67.34 21.92 68.44 22.02 69.55 C 25.79 66.98 30.54 68.45 34.79 67.99 C 34.87 67.20 35.02 65.63 35.09 64.85 C 36.12 67.85 36.83 70.96 37.20 74.12 C 31.86 74.60 26.41 73.78 21.15 75.05 Z" />
<path fill="#5cbde6" opacity="1.00" d=" M 58.54 74.26 C 59.32 72.16 59.99 70.02 60.60 67.86 C 60.71 68.29 60.93 69.15 61.04 69.58 C 61.76 69.12 62.48 68.66 63.20 68.20 C 67.22 68.68 72.14 67.37 75.00 71.03 C 74.95 72.19 74.90 73.36 74.84 74.52 C 69.43 73.88 63.98 74.35 58.54 74.26 Z" />
</g>
<g id="#a3d6ecff">
<path fill="#a3d6ec" opacity="1.00" d=" M 65.66 48.17 C 67.68 48.08 69.77 47.71 71.74 48.34 C 72.82 49.87 73.51 51.64 74.23 53.36 C 74.06 54.89 73.88 56.42 73.71 57.95 C 73.40 57.26 72.77 55.88 72.46 55.19 C 69.65 54.94 66.82 55.11 64.04 55.55 C 64.02 55.04 63.98 54.04 63.96 53.54 C 64.49 51.73 65.09 49.96 65.66 48.17 Z" />
</g>
<g id="#7d180fff">
<path fill="#7d180f" opacity="1.00" d=" M 35.32 57.27 C 38.47 52.84 43.29 48.88 49.03 49.20 C 54.05 49.18 58.07 52.75 61.07 56.41 C 60.55 60.18 59.89 63.94 58.91 67.62 C 57.09 65.91 55.30 63.99 52.85 63.22 C 48.04 61.38 42.23 63.24 39.23 67.38 C 39.37 67.82 39.64 68.69 39.77 69.12 L 37.97 68.37 C 36.75 64.76 35.92 61.03 35.32 57.27 Z" />
</g>
<g id="#87cceaff">
<path fill="#87ccea" opacity="1.00" d=" M 22.74 56.07 C 26.17 56.49 31.35 54.53 32.80 58.87 C 32.91 58.39 33.13 57.42 33.24 56.93 C 33.55 58.61 33.92 60.28 34.27 61.96 C 34.19 62.33 34.05 63.08 33.97 63.46 C 30.02 60.87 23.59 61.26 21.75 66.23 C 21.58 63.62 21.59 61.00 21.77 58.39 C 22.01 57.81 22.49 56.65 22.74 56.07 Z" />
</g>
<g id="#ffd675ff">
<path fill="#ffd675" opacity="1.00" d=" M 76.87 57.48 C 77.43 59.14 77.95 60.81 78.43 62.50 C 79.99 59.21 84.18 59.22 86.23 62.04 C 84.43 67.18 81.14 71.56 77.89 75.86 C 76.90 69.80 76.94 63.61 76.87 57.48 Z" />
</g>
<g id="#72c5e8ff">
<path fill="#72c5e8" opacity="1.00" d=" M 21.75 66.23 C 23.59 61.26 30.02 60.87 33.97 63.46 C 34.05 63.08 34.19 62.33 34.27 61.96 C 34.54 62.92 34.81 63.89 35.09 64.85 C 35.02 65.63 34.87 67.20 34.79 67.99 C 30.54 68.45 25.79 66.98 22.02 69.55 C 21.92 68.44 21.83 67.34 21.75 66.23 Z" />
</g>
<g id="#f47461ff">
<path fill="#f47461" opacity="1.00" d=" M 39.23 67.38 C 42.23 63.24 48.04 61.38 52.85 63.22 C 55.30 63.99 57.09 65.91 58.91 67.62 C 58.75 68.14 58.45 69.19 58.29 69.71 C 57.11 69.00 56.00 68.14 54.73 67.58 C 50.10 67.12 45.39 67.25 40.87 68.34 L 39.23 67.38 Z" />
</g>
<g id="#71c5e8ff">
<path fill="#71c5e8" opacity="1.00" d=" M 61.42 64.55 C 65.35 61.43 70.66 61.71 74.97 63.89 C 75.00 64.58 75.08 65.95 75.12 66.63 C 75.09 68.10 75.05 69.57 75.00 71.03 C 72.14 67.37 67.22 68.68 63.20 68.20 C 62.48 68.66 61.76 69.12 61.04 69.58 C 60.93 69.15 60.71 68.29 60.60 67.86 C 60.86 66.76 61.15 65.66 61.42 64.55 Z" />
</g>
<g id="#ffcd73ff">
<path fill="#ffcd73" opacity="1.00" d=" M 40.87 68.34 C 45.39 67.25 50.10 67.12 54.73 67.58 C 56.00 68.14 57.11 69.00 58.29 69.71 C 57.19 73.95 55.13 77.84 53.80 81.99 C 53.26 84.43 55.91 85.59 57.55 86.61 C 55.14 88.56 51.92 88.49 48.98 88.60 C 44.84 88.64 40.42 88.58 36.88 86.15 C 39.54 86.43 43.27 85.15 43.27 81.97 C 41.68 77.37 39.27 73.08 37.97 68.37 L 39.77 69.12 C 39.64 68.69 39.37 67.82 39.23 67.38 L 40.87 68.34 Z" />
</g>
<g id="#43b4e4ff">
<path fill="#43b4e4" opacity="1.00" d=" M 75.12 66.63 C 75.85 69.95 75.94 73.35 76.46 76.69 C 76.93 78.24 78.70 78.59 79.93 79.31 C 80.14 79.59 80.57 80.15 80.78 80.43 C 79.12 80.79 77.47 81.15 75.82 81.50 C 77.57 81.71 79.33 81.94 81.08 82.18 C 79.82 82.30 78.56 82.35 77.30 82.38 C 76.68 82.85 75.45 83.80 74.83 84.27 C 72.16 83.73 69.63 82.72 67.00 82.07 C 63.12 82.61 59.15 84.95 55.29 83.01 C 56.26 80.05 57.39 77.15 58.54 74.26 C 63.98 74.35 69.43 73.88 74.84 74.52 C 74.90 73.36 74.95 72.19 75.00 71.03 C 75.05 69.57 75.09 68.10 75.12 66.63 Z" />
</g>
<g id="#31ceffff">
<path fill="#31ceff" opacity="1.00" d=" M 14.64 79.83 L 16.20 78.03 L 16.48 79.02 C 16.47 79.45 16.44 80.31 16.43 80.74 C 17.73 81.13 19.03 81.49 20.36 81.80 C 18.63 81.86 16.91 81.93 15.18 81.99 C 15.05 81.45 14.77 80.37 14.64 79.83 Z" />
</g>
<g id="#10547082">
<path fill="#105470" opacity="0.51" d=" M 84.06 81.21 C 84.02 78.65 88.34 81.42 86.98 83.02 C 85.90 85.17 82.38 83.93 82.81 81.46 L 83.71 82.12 C 84.02 84.09 87.26 83.41 85.83 81.57 C 85.39 81.48 84.50 81.30 84.06 81.21 Z" />
</g>
<g id="#7cd7f3ff">
<path fill="#7cd7f3" opacity="1.00" d=" M 84.06 81.21 C 84.50 81.30 85.39 81.48 85.83 81.57 C 87.26 83.41 84.02 84.09 83.71 82.12 L 84.06 81.21 Z" />
</g>
<g id="#efaa50ff">
<path fill="#efaa50" opacity="1.00" d=" M 25.76 84.42 C 29.56 83.74 33.54 84.06 36.88 86.15 C 40.42 88.58 44.84 88.64 48.98 88.60 C 51.92 88.49 55.14 88.56 57.55 86.61 C 61.99 85.67 66.16 83.19 70.85 84.30 C 57.59 92.98 39.01 93.21 25.76 84.42 Z" />
</g>
</svg>
