<?xml version="1.0" encoding="UTF-8" ?>
<!DOCTYPE svg PUBLIC "-//W3C//DTD SVG 1.1//EN" "http://www.w3.org/Graphics/SVG/1.1/DTD/svg11.dtd">
<svg width="96pt" height="96pt" viewBox="0 0 96 96" version="1.1" xmlns="http://www.w3.org/2000/svg">
<g id="#39805bfe">
<path fill="#39805b" opacity="1.00" d=" M 0.00 0.00 L 0.38 0.00 C 0.28 0.09 0.09 0.28 0.00 0.38 L 0.00 0.00 Z" />
<path fill="#39805b" opacity="1.00" d=" M 36.34 21.83 C 46.32 20.24 59.72 18.33 69.22 24.93 C 73.00 32.44 71.15 41.26 71.38 49.35 C 79.46 50.55 87.94 54.74 90.74 62.97 C 89.36 67.63 85.63 71.28 80.77 72.11 C 58.89 76.24 36.38 77.26 14.39 73.45 C 8.90 72.66 3.56 67.43 4.70 61.61 C 7.53 54.41 15.90 52.62 22.46 50.44 C 23.80 46.62 22.75 42.35 24.29 38.63 C 24.30 45.62 23.89 53.65 28.63 59.36 C 34.55 63.35 42.25 61.89 49.00 62.29 C 54.89 62.04 62.08 63.23 66.66 58.67 C 69.79 52.32 69.00 44.89 69.33 38.00 C 69.10 33.72 70.12 27.82 65.51 25.45 C 56.73 19.96 45.91 23.97 36.34 21.83 M 72.36 52.25 C 69.86 55.41 70.88 61.47 66.04 63.03 C 54.67 67.64 41.64 66.14 29.85 64.04 C 23.27 63.51 25.25 50.84 18.06 53.98 C 13.52 55.59 8.26 58.06 6.74 63.03 C 7.63 69.47 13.94 74.08 20.30 74.14 C 36.86 74.86 53.53 75.29 70.03 73.34 C 75.02 72.71 80.80 72.44 84.30 68.30 C 86.18 66.33 89.77 63.67 87.32 60.73 C 83.88 56.16 78.11 52.05 72.36 52.25 Z" />
</g>
<g id="#359e69ff">
<path fill="#359e69" opacity="1.00" d=" M 24.29 38.63 C 25.28 31.51 27.84 22.62 36.34 21.83 C 45.91 23.97 56.73 19.96 65.51 25.45 C 70.12 27.82 69.10 33.72 69.33 38.00 C 69.00 44.89 69.79 52.32 66.66 58.67 C 62.08 63.23 54.89 62.04 49.00 62.29 C 42.25 61.89 34.55 63.35 28.63 59.36 C 23.89 53.65 24.30 45.62 24.29 38.63 M 60.95 30.58 C 63.66 35.81 63.92 41.68 63.36 47.43 L 65.13 47.58 C 66.56 41.32 66.24 33.76 61.87 28.67 C 61.64 29.14 61.18 30.10 60.95 30.58 Z" />
<path fill="#359e69" opacity="1.00" d=" M 72.36 52.25 C 78.11 52.05 83.88 56.16 87.32 60.73 C 89.77 63.67 86.18 66.33 84.30 68.30 C 80.80 72.44 75.02 72.71 70.03 73.34 C 53.53 75.29 36.86 74.86 20.30 74.14 C 13.94 74.08 7.63 69.47 6.74 63.03 C 8.26 58.06 13.52 55.59 18.06 53.98 C 25.25 50.84 23.27 63.51 29.85 64.04 C 41.64 66.14 54.67 67.64 66.04 63.03 C 70.88 61.47 69.86 55.41 72.36 52.25 M 80.52 62.78 C 78.98 64.25 76.93 65.37 76.28 67.54 C 79.69 67.73 82.19 64.75 83.79 62.08 C 83.43 61.07 82.96 60.12 82.36 59.23 C 79.81 58.30 79.43 61.09 80.52 62.78 Z" />
</g>
<g id="#f8fbf9ff">
<path fill="#f8fbf9" opacity="1.00" d=" M 60.95 30.58 C 61.18 30.10 61.64 29.14 61.87 28.67 C 66.24 33.76 66.56 41.32 65.13 47.58 L 63.36 47.43 C 63.92 41.68 63.66 35.81 60.95 30.58 Z" />
<path fill="#f8fbf9" opacity="1.00" d=" M 80.52 62.78 C 79.43 61.09 79.81 58.30 82.36 59.23 C 82.96 60.12 83.43 61.07 83.79 62.08 C 82.19 64.75 79.69 67.73 76.28 67.54 C 76.93 65.37 78.98 64.25 80.52 62.78 Z" />
</g>
</svg>
