<?xml version="1.0" encoding="UTF-8" ?>
<!DOCTYPE svg PUBLIC "-//W3C//DTD SVG 1.1//EN" "http://www.w3.org/Graphics/SVG/1.1/DTD/svg11.dtd">
<svg width="96pt" height="96pt" viewBox="0 0 96 96" version="1.1" xmlns="http://www.w3.org/2000/svg">
<g id="#337b56ff">
<path fill="#337b56" opacity="1.00" d=" M 8.64 15.46 C 14.93 4.77 31.66 2.94 40.16 11.92 C 45.83 17.63 51.56 23.28 57.24 28.98 C 59.90 31.05 59.85 33.98 57.61 36.35 C 54.41 32.25 50.85 28.45 46.86 25.11 C 46.36 25.26 45.35 25.57 44.84 25.73 C 44.54 27.12 44.24 28.52 43.95 29.92 C 43.23 28.65 42.58 27.34 41.91 26.04 C 38.25 35.04 29.29 39.96 23.26 47.19 C 24.53 49.74 25.54 52.41 26.34 55.15 C 20.93 51.54 17.02 46.13 12.19 41.81 C 4.91 35.32 3.18 23.62 8.64 15.46 M 21.19 11.99 C 22.00 15.45 25.64 15.27 28.44 15.78 C 30.37 16.88 31.95 18.53 33.99 19.47 C 36.82 19.27 37.67 15.94 36.03 13.95 C 32.76 9.59 25.19 7.45 21.19 11.99 Z" />
</g>
<g id="#f5f5f5ff">
<path fill="#f5f5f5" opacity="1.00" d=" M 21.19 11.99 C 25.19 7.45 32.76 9.59 36.03 13.95 C 37.67 15.94 36.82 19.27 33.99 19.47 C 31.95 18.53 30.37 16.88 28.44 15.78 C 25.64 15.27 22.00 15.45 21.19 11.99 Z" />
<path fill="#f5f5f5" opacity="1.00" d=" M 39.05 58.73 C 47.25 50.94 54.82 42.50 63.14 34.84 C 70.51 42.48 78.15 49.84 85.59 57.41 C 86.97 58.90 88.58 60.43 88.88 62.56 C 88.95 63.05 89.10 64.04 89.17 64.53 C 87.87 63.78 86.71 62.60 85.21 62.29 C 80.48 63.92 75.01 62.15 70.99 65.81 C 70.31 63.69 69.62 61.54 68.37 59.67 C 65.32 54.27 57.44 54.07 53.63 58.74 C 52.49 60.72 51.70 62.87 51.02 65.05 C 50.42 59.51 45.67 58.85 41.16 60.45 C 40.63 60.02 39.58 59.16 39.05 58.73 Z" />
</g>
<g id="#589073ff">
<path fill="#589073" opacity="1.00" d=" M 44.84 25.73 C 45.35 25.57 46.36 25.26 46.86 25.11 C 50.85 28.45 54.41 32.25 57.61 36.35 C 52.46 41.90 47.58 33.14 43.95 29.92 C 44.24 28.52 44.54 27.12 44.84 25.73 Z" />
<path fill="#589073" opacity="1.00" d=" M 53.63 58.74 C 57.44 54.07 65.32 54.27 68.37 59.67 C 68.95 62.27 69.37 64.90 69.81 67.53 C 71.81 67.20 73.81 66.89 75.81 66.59 C 75.34 71.60 73.74 76.39 72.25 81.17 C 72.00 81.81 71.49 83.09 71.23 83.73 C 70.31 83.33 69.40 82.91 68.49 82.51 C 68.34 78.78 67.89 75.05 66.76 71.48 C 62.80 71.58 57.92 72.38 55.10 68.86 C 52.38 66.17 53.55 62.11 53.63 58.74 M 55.31 63.86 C 56.95 68.69 62.76 69.08 67.00 68.04 C 66.46 65.21 66.41 61.93 64.26 59.77 C 60.78 57.89 55.25 59.15 55.31 63.86 M 69.14 70.40 C 69.62 71.39 70.10 72.37 70.59 73.36 C 71.03 73.41 71.91 73.49 72.35 73.54 C 72.37 72.50 72.39 71.46 72.42 70.43 C 71.33 70.42 70.23 70.41 69.14 70.40 Z" />
</g>
<g id="#2b734eff">
<path fill="#2b734e" opacity="1.00" d=" M 23.26 47.19 C 29.29 39.96 38.25 35.04 41.91 26.04 C 42.58 27.34 43.23 28.65 43.95 29.92 C 47.58 33.14 52.46 41.90 57.61 36.35 C 59.85 33.98 59.90 31.05 57.24 28.98 C 59.28 30.85 61.28 32.78 63.14 34.84 C 54.82 42.50 47.25 50.94 39.05 58.73 C 37.64 60.10 36.26 61.51 34.89 62.92 C 35.04 63.47 35.32 64.57 35.47 65.12 C 32.55 61.71 28.71 58.95 26.34 55.15 C 25.54 52.41 24.53 49.74 23.26 47.19 Z" />
</g>
<g id="#ddddddff">
<path fill="#dddddd" opacity="1.00" d=" M 34.89 62.92 C 36.26 61.51 37.64 60.10 39.05 58.73 C 39.58 59.16 40.63 60.02 41.16 60.45 C 45.67 58.85 50.42 59.51 51.02 65.05 C 51.70 62.87 52.49 60.72 53.63 58.74 C 53.55 62.11 52.38 66.17 55.10 68.86 C 57.92 72.38 62.80 71.58 66.76 71.48 C 67.89 75.05 68.34 78.78 68.49 82.51 C 64.40 80.38 59.94 78.68 55.27 79.93 C 54.83 81.06 54.39 82.19 53.94 83.33 C 47.85 77.19 41.78 71.03 35.47 65.12 C 35.32 64.57 35.04 63.47 34.89 62.92 Z" />
<path fill="#dddddd" opacity="1.00" d=" M 68.37 59.67 C 69.62 61.54 70.31 63.69 70.99 65.81 C 75.01 62.15 80.48 63.92 85.21 62.29 C 86.71 62.60 87.87 63.78 89.17 64.53 C 89.10 64.04 88.95 63.05 88.88 62.56 C 92.61 69.32 91.59 79.40 85.82 84.94 C 86.14 83.15 86.41 81.35 86.71 79.55 C 81.87 76.60 77.46 80.47 72.72 80.72 C 72.60 80.83 72.37 81.05 72.25 81.17 C 73.74 76.39 75.34 71.60 75.81 66.59 C 73.81 66.89 71.81 67.20 69.81 67.53 C 69.37 64.90 68.95 62.27 68.37 59.67 Z" />
<path fill="#dddddd" opacity="1.00" d=" M 69.14 70.40 C 70.23 70.41 71.33 70.42 72.42 70.43 C 72.39 71.46 72.37 72.50 72.35 73.54 C 71.91 73.49 71.03 73.41 70.59 73.36 C 70.10 72.37 69.62 71.39 69.14 70.40 Z" />
</g>
<g id="#e8e8e8ff">
<path fill="#e8e8e8" opacity="1.00" d=" M 55.31 63.86 C 55.25 59.15 60.78 57.89 64.26 59.77 C 66.41 61.93 66.46 65.21 67.00 68.04 C 62.76 69.08 56.95 68.69 55.31 63.86 Z" />
</g>
<g id="#d4d4d4ff">
<path fill="#d4d4d4" opacity="1.00" d=" M 72.72 80.72 C 77.46 80.47 81.87 76.60 86.71 79.55 C 86.41 81.35 86.14 83.15 85.82 84.94 C 77.88 94.89 61.33 93.32 53.94 83.33 C 54.39 82.19 54.83 81.06 55.27 79.93 C 59.94 78.68 64.40 80.38 68.49 82.51 C 69.40 82.91 70.31 83.33 71.23 83.73 C 71.49 83.09 72.00 81.81 72.25 81.17 C 72.37 81.05 72.60 80.83 72.72 80.72 Z" />
</g>
</svg>
