<?xml version="1.0" encoding="UTF-8" ?>
<!DOCTYPE svg PUBLIC "-//W3C//DTD SVG 1.1//EN" "http://www.w3.org/Graphics/SVG/1.1/DTD/svg11.dtd">
<svg width="96pt" height="96pt" viewBox="0 0 96 96" version="1.1" xmlns="http://www.w3.org/2000/svg">
<g id="#6d151998">
<path fill="#6d1519" opacity="0.60" d=" M 44.08 5.00 C 43.09 3.24 52.88 3.20 52.94 5.01 C 50.86 5.00 48.78 5.04 46.69 5.08 C 46.04 5.06 44.73 5.02 44.08 5.00 Z" />
</g>
<g id="#fb2f37fe">
<path fill="#fb2f37" opacity="1.00" d=" M 40.06 8.03 C 40.22 6.18 42.65 5.68 44.08 5.00 C 44.73 5.02 46.04 5.06 46.69 5.08 C 47.14 8.40 51.44 8.55 52.25 11.70 C 53.11 17.49 58.77 16.85 57.34 10.74 C 55.60 22.18 63.45 31.15 65.27 41.86 C 63.52 44.53 61.68 47.21 59.24 49.30 C 55.75 49.18 52.27 49.14 48.78 49.27 C 44.37 41.21 54.06 33.22 50.02 25.00 C 48.90 18.95 43.47 15.45 39.77 11.01 C 39.84 10.27 39.99 8.77 40.06 8.03 Z" />
</g>
<g id="#f9535bfa">
<path fill="#f9535b" opacity="0.98" d=" M 46.69 5.08 C 48.78 5.04 50.86 5.00 52.94 5.01 C 54.84 5.65 56.30 7.59 57.23 9.31 L 57.30 9.91 L 57.34 10.74 C 58.77 16.85 53.11 17.49 52.25 11.70 C 51.44 8.55 47.14 8.40 46.69 5.08 Z" />
</g>
<g id="#69101376">
<path fill="#691013" opacity="0.46" d=" M 34.06 11.05 C 34.58 8.94 39.03 10.84 40.06 8.03 C 39.99 8.77 39.84 10.27 39.77 11.01 C 37.87 11.00 35.96 11.01 34.06 11.05 Z" />
</g>
<g id="#75050a86">
<path fill="#75050a" opacity="0.53" d=" M 57.23 9.31 C 58.33 8.32 61.52 8.23 61.78 9.94 C 60.29 10.01 58.79 10.03 57.30 9.91 L 57.23 9.31 Z" />
</g>
<g id="#d70b12f9">
<path fill="#d70b12" opacity="0.98" d=" M 57.30 9.91 C 58.79 10.03 60.29 10.01 61.78 9.94 C 65.19 10.63 69.43 12.34 70.03 16.25 C 69.97 17.75 69.98 19.25 70.05 20.74 C 67.79 23.88 65.12 26.96 65.94 31.19 C 65.74 32.80 65.94 34.43 66.53 35.94 C 67.08 37.38 67.06 38.81 66.47 40.23 C 66.31 40.73 66.00 41.72 65.84 42.21 L 65.27 41.86 C 63.45 31.15 55.60 22.18 57.34 10.74 L 57.30 9.91 Z" />
</g>
<g id="#eb1d25fd">
<path fill="#eb1d25" opacity="1.00" d=" M 35.20 16.81 C 32.43 16.16 30.23 11.71 34.06 11.05 C 35.96 11.01 37.87 11.00 39.77 11.01 C 43.47 15.45 48.90 18.95 50.02 25.00 C 54.06 33.22 44.37 41.21 48.78 49.27 C 43.93 48.84 38.87 49.09 34.34 47.03 C 33.82 46.03 33.37 44.99 33.01 43.91 C 32.99 40.27 32.96 36.63 33.02 32.99 C 33.42 30.33 34.77 27.92 35.27 25.28 C 35.50 22.55 37.00 19.28 35.20 16.81 Z" />
</g>
<g id="#3e010385">
<path fill="#3e0103" opacity="0.52" d=" M 70.03 16.25 C 71.88 16.26 71.89 20.72 70.05 20.74 C 69.98 19.25 69.97 17.75 70.03 16.25 Z" />
</g>
<g id="#49080b72">
<path fill="#49080b" opacity="0.45" d=" M 35.20 16.81 C 37.00 19.28 35.50 22.55 35.27 25.28 C 34.95 22.47 34.91 19.63 35.20 16.81 Z" />
</g>
<g id="#5d03078a">
<path fill="#5d0307" opacity="0.54" d=" M 65.94 31.19 C 67.95 31.31 67.57 34.80 66.53 35.94 C 65.94 34.43 65.74 32.80 65.94 31.19 Z" />
</g>
<g id="#9e1319c3">
<path fill="#9e1319" opacity="0.76" d=" M 33.01 43.91 C 31.74 44.07 30.36 33.17 33.02 32.99 C 32.96 36.63 32.99 40.27 33.01 43.91 Z" />
</g>
<g id="#29322494">
<path fill="#293224" opacity="0.58" d=" M 65.84 42.21 C 66.00 41.72 66.31 40.73 66.47 40.23 C 67.37 41.27 69.65 41.58 69.70 43.08 C 68.39 43.02 66.92 43.12 65.84 42.21 Z" />
</g>
<g id="#368d60f7">
<path fill="#368d60" opacity="0.97" d=" M 65.27 41.86 L 65.84 42.21 C 66.92 43.12 68.39 43.02 69.70 43.08 C 72.26 43.78 77.30 48.31 73.78 50.88 C 70.70 51.04 67.63 51.10 64.59 51.64 C 63.36 51.73 62.05 51.87 61.07 52.72 C 58.20 54.82 54.54 55.63 51.73 57.77 C 51.22 61.02 46.42 75.94 52.86 72.20 C 55.77 68.86 59.44 66.15 63.25 63.96 C 64.75 64.02 66.26 64.02 67.76 63.96 C 72.78 67.71 77.90 72.46 80.94 78.24 C 82.13 83.22 75.88 80.48 72.87 80.64 C 71.49 80.41 68.74 79.95 67.36 79.72 C 63.90 79.32 60.44 79.02 56.96 78.92 C 46.61 74.95 56.64 90.10 52.72 93.44 C 51.36 92.40 50.11 91.23 48.96 89.98 C 46.20 87.15 49.73 78.62 45.08 79.10 C 36.42 85.59 22.96 81.12 16.99 73.03 C 16.99 71.26 16.99 67.72 16.99 65.96 C 18.47 63.08 21.52 60.88 24.29 59.09 C 27.53 59.03 30.77 58.98 34.02 58.99 C 40.47 58.58 41.97 66.04 46.03 68.00 C 47.50 67.69 48.28 58.23 46.03 56.99 C 44.78 56.56 43.53 56.11 42.25 55.78 C 38.19 55.12 34.07 55.07 29.97 54.91 C 29.20 51.43 31.70 48.81 34.34 47.03 C 38.87 49.09 43.93 48.84 48.78 49.27 C 52.27 49.86 55.75 49.87 59.24 49.30 C 61.68 47.21 63.52 44.53 65.27 41.86 M 67.94 44.94 C 67.86 47.12 69.87 49.14 72.06 49.06 C 72.14 46.87 70.12 44.86 67.94 44.94 M 31.99 62.99 C 30.09 66.81 43.61 70.09 38.78 65.20 C 36.99 63.45 34.48 62.65 31.99 62.99 M 63.98 66.97 C 63.51 70.17 68.06 69.35 70.13 70.04 C 68.96 67.56 66.68 66.41 63.98 66.97 Z" />
</g>
<g id="#60ca94ff">
<path fill="#60ca94" opacity="1.00" d=" M 67.94 44.94 C 70.12 44.86 72.14 46.87 72.06 49.06 C 69.87 49.14 67.86 47.12 67.94 44.94 Z" />
</g>
<g id="#8d634dff">
<path fill="#8d634d" opacity="1.00" d=" M 48.78 49.27 C 52.27 49.14 55.75 49.18 59.24 49.30 C 55.75 49.87 52.27 49.86 48.78 49.27 Z" />
</g>
<g id="#1b3b2b77">
<path fill="#1b3b2b" opacity="0.47" d=" M 64.59 51.64 C 67.63 51.10 70.70 51.04 73.78 50.88 C 74.69 54.11 66.80 51.33 64.59 51.64 Z" />
</g>
<g id="#1e433085">
<path fill="#1e4330" opacity="0.52" d=" M 61.07 52.72 C 62.05 51.87 63.36 51.73 64.59 51.64 C 65.12 53.48 62.00 53.83 61.07 52.72 Z" />
</g>
<g id="#1836276d">
<path fill="#183627" opacity="0.43" d=" M 29.97 54.91 C 34.07 55.07 38.19 55.12 42.25 55.78 C 39.32 54.45 31.00 58.47 29.97 54.91 Z" />
</g>
<g id="#24513aa3">
<path fill="#24513a" opacity="0.64" d=" M 46.03 56.99 C 48.28 58.23 47.50 67.69 46.03 68.00 C 45.93 64.33 45.89 60.66 46.03 56.99 Z" />
</g>
<g id="#1b3d2b79">
<path fill="#1b3d2b" opacity="0.47" d=" M 24.29 59.09 C 27.11 57.23 30.35 57.20 34.02 58.99 C 30.77 58.98 27.53 59.03 24.29 59.09 Z" />
</g>
<g id="#234e389b">
<path fill="#234e38" opacity="0.61" d=" M 52.86 72.20 C 46.42 75.94 51.22 61.02 51.73 57.77 C 53.31 61.83 47.99 70.19 52.86 72.20 Z" />
</g>
<g id="#6dd7a1ff">
<path fill="#6dd7a1" opacity="1.00" d=" M 31.99 62.99 C 34.48 62.65 36.99 63.45 38.78 65.20 C 43.61 70.09 30.09 66.81 31.99 62.99 Z" />
</g>
<g id="#1b3b2b76">
<path fill="#1b3b2b" opacity="0.46" d=" M 63.25 63.96 C 63.28 62.11 67.73 62.12 67.76 63.96 C 66.26 64.02 64.75 64.02 63.25 63.96 Z" />
</g>
<g id="#16322464">
<path fill="#163224" opacity="0.39" d=" M 16.99 73.03 C 13.46 71.24 13.49 67.75 16.99 65.96 C 16.99 67.72 16.99 71.26 16.99 73.03 Z" />
</g>
<g id="#60cb95ff">
<path fill="#60cb95" opacity="1.00" d=" M 63.98 66.97 C 66.68 66.41 68.96 67.56 70.13 70.04 C 68.06 69.35 63.51 70.17 63.98 66.97 Z" />
</g>
<g id="#152f215e">
<path fill="#152f21" opacity="0.37" d=" M 80.94 78.24 C 87.88 81.59 73.95 84.25 72.87 80.64 C 75.88 80.48 82.13 83.22 80.94 78.24 Z" />
</g>
<g id="#15312362">
<path fill="#153123" opacity="0.38" d=" M 56.96 78.92 C 60.44 79.02 63.90 79.32 67.36 79.72 C 64.71 78.77 58.34 81.70 56.96 78.92 Z" />
</g>
<g id="#16312361">
<path fill="#163123" opacity="0.38" d=" M 67.36 79.72 C 68.74 79.95 71.49 80.41 72.87 80.64 C 71.50 81.84 67.28 82.15 67.36 79.72 Z" />
</g>
<g id="#224d3799">
<path fill="#224d37" opacity="0.60" d=" M 48.96 89.98 C 50.11 91.23 51.36 92.40 52.72 93.44 C 53.66 97.44 47.39 92.57 48.96 89.98 Z" />
</g>
</svg>
