<?xml version="1.0" encoding="UTF-8" ?>
<!DOCTYPE svg PUBLIC "-//W3C//DTD SVG 1.1//EN" "http://www.w3.org/Graphics/SVG/1.1/DTD/svg11.dtd">
<svg width="96pt" height="96pt" viewBox="0 0 96 96" version="1.1" xmlns="http://www.w3.org/2000/svg">
<g id="#8b593dff">
<path fill="#8b593d" opacity="1.00" d=" M 9.89 8.66 C 10.77 6.33 12.67 3.17 15.65 4.46 C 19.77 6.58 22.67 10.37 25.52 13.91 C 38.36 6.25 55.00 5.46 68.19 12.73 C 73.46 7.82 81.51 4.34 88.51 7.60 C 90.00 15.91 89.91 24.55 88.38 32.86 C 87.77 36.06 89.39 39.08 89.95 42.17 C 92.85 55.98 88.01 71.05 77.81 80.75 C 69.71 88.71 58.32 93.34 46.95 92.91 C 32.21 92.70 18.01 84.04 10.82 71.21 C 6.93 64.16 4.72 56.06 5.31 47.98 C 5.27 43.14 7.07 38.61 8.39 34.04 C 6.67 25.66 7.03 16.76 9.89 8.66 M 71.07 14.07 C 72.60 15.18 74.13 16.30 75.66 17.41 C 78.11 15.10 80.96 10.78 84.80 13.19 C 86.79 18.98 84.06 25.29 86.25 31.05 C 87.98 23.81 87.12 16.41 86.42 9.12 C 80.97 7.89 74.70 9.74 71.07 14.07 M 33.66 13.05 C 21.82 17.01 12.87 27.24 9.12 38.96 C 7.09 47.68 6.93 57.37 10.97 65.56 C 17.39 82.35 36.26 93.05 53.97 89.90 C 65.05 88.24 75.14 81.49 81.13 72.07 C 82.48 70.11 81.23 67.68 80.98 65.57 C 78.92 63.92 76.99 61.85 74.33 61.20 C 77.62 60.67 80.96 60.41 84.25 59.88 C 85.70 59.69 86.89 58.70 87.19 57.24 C 90.67 41.29 82.38 23.81 68.25 15.84 C 57.96 9.52 44.88 9.04 33.66 13.05 Z" />
<path fill="#8b593d" opacity="1.00" d=" M 56.38 29.30 C 63.79 24.59 74.85 27.64 78.58 35.62 C 79.99 38.37 78.41 41.26 76.89 43.57 C 74.22 46.05 70.92 47.88 67.26 48.31 C 60.80 49.69 54.59 47.06 48.27 46.20 C 48.70 43.74 49.43 41.36 50.37 39.06 C 52.10 35.65 54.07 32.35 56.38 29.30 M 53.74 37.50 C 53.09 38.93 51.98 40.39 52.34 42.06 C 53.65 43.81 55.59 44.88 57.35 46.10 C 57.88 44.40 58.19 42.58 59.10 41.03 C 62.89 35.76 72.53 35.31 75.31 41.85 C 76.06 40.06 77.25 38.01 76.16 36.09 C 73.39 30.88 66.61 28.29 60.99 29.73 C 57.27 30.74 55.53 34.45 53.74 37.50 M 61.25 43.01 C 62.69 44.69 64.08 47.95 66.86 46.95 C 69.51 46.63 70.38 44.05 70.50 41.74 C 70.44 40.91 70.32 39.27 70.27 38.44 C 69.00 38.45 67.74 38.47 66.48 38.51 L 66.46 37.85 C 64.03 38.78 62.34 40.69 61.25 43.01 Z" />
<path fill="#8b593d" opacity="1.00" d=" M 17.28 30.45 C 19.83 28.76 22.99 28.73 25.93 28.47 C 27.46 29.34 28.99 30.22 30.46 31.18 C 33.30 33.17 35.25 36.13 36.61 39.27 C 36.62 39.64 36.63 40.37 36.63 40.74 C 37.49 41.94 39.39 42.91 38.77 44.65 C 38.54 45.99 37.16 46.64 36.23 47.48 C 29.64 47.99 22.45 49.96 16.20 46.90 C 12.26 44.75 12.24 39.85 11.94 35.94 C 13.49 33.91 15.14 31.88 17.28 30.45 M 15.29 42.57 C 17.45 46.34 22.26 45.99 25.97 46.52 L 24.95 44.88 C 27.47 46.35 30.79 47.27 33.32 45.31 C 34.42 43.31 34.71 41.00 35.27 38.81 C 34.50 39.40 33.72 39.99 32.94 40.57 C 34.54 39.97 32.05 37.94 31.13 38.00 C 30.35 38.67 29.60 39.38 28.88 40.12 C 27.74 39.49 27.15 42.21 26.25 42.83 C 25.73 41.44 25.21 40.06 24.66 38.68 C 26.00 36.24 28.87 35.68 31.33 35.01 C 29.33 32.99 26.90 31.30 24.03 30.85 C 18.02 29.59 11.58 37.10 15.29 42.57 Z" />
<path fill="#8b593d" opacity="1.00" d=" M 35.66 60.56 C 36.13 60.72 37.06 61.03 37.53 61.18 C 37.87 62.36 38.20 63.54 38.59 64.71 C 39.08 65.69 39.64 66.64 40.23 67.57 C 42.17 69.06 44.45 70.47 47.01 70.24 C 50.02 69.89 52.50 67.95 55.29 66.91 C 55.69 69.75 52.21 71.09 50.02 71.86 C 45.21 73.44 40.30 71.19 37.18 67.51 C 34.18 70.71 29.90 71.68 25.66 71.65 C 25.55 71.05 25.34 69.86 25.23 69.26 C 27.99 68.82 31.11 69.18 33.53 67.56 C 35.87 66.03 35.31 62.94 35.66 60.56 Z" />
</g>
<g id="#a97642ff">
<path fill="#a97642" opacity="1.00" d=" M 71.07 14.07 C 74.70 9.74 80.97 7.89 86.42 9.12 C 87.12 16.41 87.98 23.81 86.25 31.05 C 84.06 25.29 86.79 18.98 84.80 13.19 C 80.96 10.78 78.11 15.10 75.66 17.41 C 74.13 16.30 72.60 15.18 71.07 14.07 Z" />
<path fill="#a97642" opacity="1.00" d=" M 33.66 13.05 C 44.88 9.04 57.96 9.52 68.25 15.84 C 82.38 23.81 90.67 41.29 87.19 57.24 C 86.89 58.70 85.70 59.69 84.25 59.88 C 80.96 60.41 77.62 60.67 74.33 61.20 C 72.26 60.85 70.07 60.80 68.15 59.88 C 65.29 57.37 63.63 53.82 61.62 50.64 C 64.59 51.44 67.58 52.95 70.73 52.35 C 73.78 51.84 76.83 51.33 79.92 51.06 C 78.86 48.58 77.85 46.08 76.89 43.57 C 78.41 41.26 79.99 38.37 78.58 35.62 C 74.85 27.64 63.79 24.59 56.38 29.30 C 55.40 29.81 54.41 30.31 53.43 30.82 C 52.94 28.55 52.47 26.27 52.01 24.00 C 50.98 24.63 49.96 25.29 48.96 25.95 C 48.59 26.19 47.85 26.65 47.48 26.88 C 47.13 23.08 47.00 18.98 44.30 15.97 C 42.18 19.43 40.36 23.05 38.32 26.55 C 37.49 23.67 36.88 20.74 36.41 17.78 C 35.33 18.31 34.25 18.84 33.19 19.40 C 32.96 17.27 33.08 15.12 33.66 13.05 Z" />
</g>
<g id="#894811ff">
<path fill="#894811" opacity="1.00" d=" M 9.12 38.96 C 12.87 27.24 21.82 17.01 33.66 13.05 C 33.08 15.12 32.96 17.27 33.19 19.40 C 30.68 21.56 29.62 24.75 29.36 27.97 C 28.22 28.13 27.07 28.30 25.93 28.47 C 22.99 28.73 19.83 28.76 17.28 30.45 C 15.14 31.88 13.49 33.91 11.94 35.94 C 10.23 41.68 11.82 47.90 16.55 51.69 C 13.36 52.71 11.96 55.55 11.44 58.63 C 13.00 58.51 14.56 58.37 16.12 58.22 C 15.32 59.17 14.53 60.12 13.77 61.10 C 12.71 62.50 11.84 64.03 10.97 65.56 C 6.93 57.37 7.09 47.68 9.12 38.96 Z" />
</g>
<g id="#eed9b0ff">
<path fill="#eed9b0" opacity="1.00" d=" M 38.32 26.55 C 40.36 23.05 42.18 19.43 44.30 15.97 C 47.00 18.98 47.13 23.08 47.48 26.88 C 47.85 26.65 48.59 26.19 48.96 25.95 C 48.13 26.61 47.32 27.30 46.52 27.98 C 46.28 26.88 46.04 25.78 45.79 24.68 C 40.74 26.36 35.82 28.65 30.47 29.23 C 30.47 29.71 30.46 30.69 30.46 31.18 C 28.99 30.22 27.46 29.34 25.93 28.47 C 27.07 28.30 28.22 28.13 29.36 27.97 C 29.62 24.75 30.68 21.56 33.19 19.40 C 34.25 18.84 35.33 18.31 36.41 17.78 C 36.88 20.74 37.49 23.67 38.32 26.55 Z" />
<path fill="#eed9b0" opacity="1.00" d=" M 30.99 53.57 C 33.64 53.15 36.30 52.57 38.99 52.69 C 41.49 52.66 42.97 54.99 44.73 56.41 C 42.34 58.83 38.60 60.86 38.59 64.71 C 38.20 63.54 37.87 62.36 37.53 61.18 C 37.06 61.03 36.13 60.72 35.66 60.56 C 34.23 60.00 32.60 59.62 31.55 58.41 C 31.13 56.83 31.06 55.19 30.99 53.57 Z" />
<path fill="#eed9b0" opacity="1.00" d=" M 10.97 65.56 C 11.84 64.03 12.71 62.50 13.77 61.10 C 17.48 64.48 18.80 69.49 21.73 73.43 C 29.66 83.35 43.92 87.99 56.04 83.81 C 64.71 81.44 71.78 74.79 75.64 66.79 C 76.35 64.32 79.16 65.73 80.98 65.57 C 81.23 67.68 82.48 70.11 81.13 72.07 C 75.14 81.49 65.05 88.24 53.97 89.90 C 36.26 93.05 17.39 82.35 10.97 65.56 Z" />
</g>
<g id="#f2e4c6ff">
<path fill="#f2e4c6" opacity="1.00" d=" M 30.47 29.23 C 35.82 28.65 40.74 26.36 45.79 24.68 C 46.04 25.78 46.28 26.88 46.52 27.98 C 47.32 27.30 48.13 26.61 48.96 25.95 C 49.96 25.29 50.98 24.63 52.01 24.00 C 52.47 26.27 52.94 28.55 53.43 30.82 C 54.41 30.31 55.40 29.81 56.38 29.30 C 54.07 32.35 52.10 35.65 50.37 39.06 C 50.23 38.67 49.96 37.89 49.82 37.50 C 46.20 38.01 42.66 38.92 39.13 39.84 C 38.31 38.93 37.49 38.03 36.67 37.13 C 36.66 37.67 36.63 38.74 36.61 39.27 C 35.25 36.13 33.30 33.17 30.46 31.18 C 30.46 30.69 30.47 29.71 30.47 29.23 Z" />
<path fill="#f2e4c6" opacity="1.00" d=" M 11.94 35.94 C 12.24 39.85 12.26 44.75 16.20 46.90 C 22.45 49.96 29.64 47.99 36.23 47.48 C 33.87 48.93 31.46 50.63 30.99 53.57 C 31.06 55.19 31.13 56.83 31.55 58.41 C 32.60 59.62 34.23 60.00 35.66 60.56 C 35.31 62.94 35.87 66.03 33.53 67.56 C 31.11 69.18 27.99 68.82 25.23 69.26 C 25.34 69.86 25.55 71.05 25.66 71.65 C 29.90 71.68 34.18 70.71 37.18 67.51 C 40.30 71.19 45.21 73.44 50.02 71.86 C 52.21 71.09 55.69 69.75 55.29 66.91 C 52.50 67.95 50.02 69.89 47.01 70.24 C 44.45 70.47 42.17 69.06 40.23 67.57 C 45.22 66.22 51.21 67.18 55.15 63.19 C 58.19 60.64 59.04 56.62 59.80 52.92 C 60.06 52.74 60.58 52.38 60.84 52.19 C 60.62 51.19 60.42 50.18 60.24 49.17 C 62.58 48.91 64.93 48.67 67.26 48.31 C 70.92 47.88 74.22 46.05 76.89 43.57 C 77.85 46.08 78.86 48.58 79.92 51.06 C 76.83 51.33 73.78 51.84 70.73 52.35 C 67.58 52.95 64.59 51.44 61.62 50.64 C 63.63 53.82 65.29 57.37 68.15 59.88 C 70.07 60.80 72.26 60.85 74.33 61.20 C 76.99 61.85 78.92 63.92 80.98 65.57 C 79.16 65.73 76.35 64.32 75.64 66.79 C 71.78 74.79 64.71 81.44 56.04 83.81 C 43.92 87.99 29.66 83.35 21.73 73.43 C 18.80 69.49 17.48 64.48 13.77 61.10 C 14.53 60.12 15.32 59.17 16.12 58.22 C 14.56 58.37 13.00 58.51 11.44 58.63 C 11.96 55.55 13.36 52.71 16.55 51.69 C 11.82 47.90 10.23 41.68 11.94 35.94 Z" />
<path fill="#f2e4c6" opacity="1.00" d=" M 41.47 62.54 C 43.70 61.49 45.91 60.41 48.10 59.28 C 48.96 60.35 49.82 61.41 50.68 62.48 C 48.31 65.25 44.50 64.58 41.27 64.72 C 41.32 64.17 41.42 63.09 41.47 62.54 Z" />
</g>
<g id="#fcf9f1ff">
<path fill="#fcf9f1" opacity="1.00" d=" M 53.74 37.50 C 55.53 34.45 57.27 30.74 60.99 29.73 C 66.61 28.29 73.39 30.88 76.16 36.09 C 77.25 38.01 76.06 40.06 75.31 41.85 C 72.53 35.31 62.89 35.76 59.10 41.03 C 58.19 42.58 57.88 44.40 57.35 46.10 C 55.59 44.88 53.65 43.81 52.34 42.06 C 51.98 40.39 53.09 38.93 53.74 37.50 Z" />
<path fill="#fcf9f1" opacity="1.00" d=" M 15.29 42.57 C 11.58 37.10 18.02 29.59 24.03 30.85 C 26.90 31.30 29.33 32.99 31.33 35.01 C 28.87 35.68 26.00 36.24 24.66 38.68 C 24.42 40.40 24.31 42.15 24.37 43.89 L 24.95 44.88 L 25.97 46.52 C 22.26 45.99 17.45 46.34 15.29 42.57 Z" />
<path fill="#fcf9f1" opacity="1.00" d=" M 36.67 37.13 C 37.49 38.03 38.31 38.93 39.13 39.84 C 42.66 38.92 46.20 38.01 49.82 37.50 C 49.96 37.89 50.23 38.67 50.37 39.06 C 49.43 41.36 48.70 43.74 48.27 46.20 C 54.59 47.06 60.80 49.69 67.26 48.31 C 64.93 48.67 62.58 48.91 60.24 49.17 C 60.42 50.18 60.62 51.19 60.84 52.19 C 60.58 52.38 60.06 52.74 59.80 52.92 C 59.04 56.62 58.19 60.64 55.15 63.19 C 51.21 67.18 45.22 66.22 40.23 67.57 C 39.64 66.64 39.08 65.69 38.59 64.71 C 38.60 60.86 42.34 58.83 44.73 56.41 C 42.97 54.99 41.49 52.66 38.99 52.69 C 36.30 52.57 33.64 53.15 30.99 53.57 C 31.46 50.63 33.87 48.93 36.23 47.48 C 37.16 46.64 38.54 45.99 38.77 44.65 C 39.39 42.91 37.49 41.94 36.63 40.74 C 36.63 40.37 36.62 39.64 36.61 39.27 C 36.63 38.74 36.66 37.67 36.67 37.13 M 41.47 62.54 C 41.42 63.09 41.32 64.17 41.27 64.72 C 44.50 64.58 48.31 65.25 50.68 62.48 C 49.82 61.41 48.96 60.35 48.10 59.28 C 45.91 60.41 43.70 61.49 41.47 62.54 Z" />
<path fill="#fcf9f1" opacity="1.00" d=" M 28.88 40.12 C 29.60 39.38 30.35 38.67 31.13 38.00 C 32.05 37.94 34.54 39.97 32.94 40.57 C 32.36 41.02 31.78 41.46 31.19 41.90 C 30.62 41.45 29.46 40.56 28.88 40.12 Z" />
<path fill="#fcf9f1" opacity="1.00" d=" M 66.48 38.51 C 67.74 38.47 69.00 38.45 70.27 38.44 C 70.32 39.27 70.44 40.91 70.50 41.74 C 69.20 41.72 67.90 41.68 66.60 41.62 C 66.56 40.58 66.52 39.55 66.48 38.51 Z" />
</g>
<g id="#532919f7">
<path fill="#532919" opacity="0.97" d=" M 61.25 43.01 C 62.34 40.69 64.03 38.78 66.46 37.85 L 66.48 38.51 C 66.52 39.55 66.56 40.58 66.60 41.62 C 67.90 41.68 69.20 41.72 70.50 41.74 C 70.38 44.05 69.51 46.63 66.86 46.95 C 64.08 47.95 62.69 44.69 61.25 43.01 Z" />
<path fill="#532919" opacity="0.97" d=" M 24.37 43.89 C 24.31 42.15 24.42 40.40 24.66 38.68 C 25.21 40.06 25.73 41.44 26.25 42.83 C 27.15 42.21 27.74 39.49 28.88 40.12 C 29.46 40.56 30.62 41.45 31.19 41.90 C 31.78 41.46 32.36 41.02 32.94 40.57 C 33.72 39.99 34.50 39.40 35.27 38.81 C 34.71 41.00 34.42 43.31 33.32 45.31 C 30.79 47.27 27.47 46.35 24.95 44.88 L 24.37 43.89 Z" />
</g>
</svg>
