<?xml version="1.0" encoding="UTF-8" ?>
<!DOCTYPE svg PUBLIC "-//W3C//DTD SVG 1.1//EN" "http://www.w3.org/Graphics/SVG/1.1/DTD/svg11.dtd">
<svg width="96pt" height="96pt" viewBox="0 0 96 96" version="1.1" xmlns="http://www.w3.org/2000/svg">
<path fill="#ffd074" opacity="1.00" d=" M 0.00 0.00 L 0.12 0.00 C 0.09 0.03 0.03 0.10 0.00 0.14 L 0.00 0.00 Z" />
<path fill="#eda950" opacity="1.00" d=" M 29.36 9.42 C 40.80 3.79 54.84 3.59 66.31 9.22 C 65.92 9.66 65.14 10.54 64.75 10.97 C 54.33 5.96 41.34 6.01 30.97 11.12 C 30.56 10.69 29.76 9.84 29.36 9.42 Z" />
<path fill="#af4a1c" opacity="1.00" d=" M 18.63 12.46 C 18.52 7.09 26.40 5.24 29.36 9.42 C 29.76 9.84 30.56 10.69 30.97 11.12 C 30.88 13.07 30.63 15.02 29.96 16.86 C 28.41 15.73 28.05 13.81 27.55 12.09 C 27.46 11.73 27.30 11.02 27.22 10.66 C 24.03 8.03 21.41 11.37 18.63 12.46 Z" />
<path fill="#fde877" opacity="1.00" d=" M 30.97 11.12 C 41.34 6.01 54.33 5.96 64.75 10.97 C 64.87 12.69 65.00 14.40 65.07 16.12 C 64.63 16.31 63.76 16.70 63.33 16.89 C 62.45 19.56 65.42 20.69 67.11 21.98 C 61.27 22.61 51.23 28.10 56.52 34.89 C 51.46 34.76 46.40 34.80 41.34 34.95 C 41.57 32.36 41.48 29.48 39.33 27.67 C 33.02 21.88 23.79 21.40 15.72 22.49 C 18.41 17.74 23.08 14.91 27.55 12.09 C 28.05 13.81 28.41 15.73 29.96 16.86 C 30.63 15.02 30.88 13.07 30.97 11.12 Z" />
<path fill="#af4a1c" opacity="1.00" d=" M 66.31 9.22 C 69.46 4.91 76.88 7.09 77.32 12.37 C 74.54 12.69 72.08 6.87 68.96 10.55 C 68.68 10.90 68.12 11.60 67.84 11.95 C 67.44 13.10 67.10 14.26 66.69 15.41 C 66.28 15.59 65.47 15.94 65.07 16.12 C 65.00 14.40 64.87 12.69 64.75 10.97 C 65.14 10.54 65.92 9.66 66.31 9.22 Z" />
<path fill="#eda950" opacity="1.00" d=" M 13.41 22.98 C 16.78 17.73 21.70 13.53 27.22 10.66 C 27.30 11.02 27.46 11.73 27.55 12.09 C 23.08 14.91 18.41 17.74 15.72 22.49 C 15.14 22.61 13.99 22.86 13.41 22.98 Z" />
<path fill="#eda950" opacity="1.00" d=" M 67.84 11.95 C 68.12 11.60 68.68 10.90 68.96 10.55 C 75.06 14.01 80.82 18.79 84.08 25.09 C 83.45 24.69 82.18 23.89 81.55 23.49 C 81.46 23.42 81.28 23.28 81.19 23.21 C 77.71 18.50 72.25 15.72 67.84 11.95 Z" />
<path fill="#ffd074" opacity="1.00" d=" M 66.69 15.41 C 67.10 14.26 67.44 13.10 67.84 11.95 C 72.25 15.72 77.71 18.50 81.19 23.21 C 76.53 22.53 71.85 21.66 67.11 21.98 C 65.42 20.69 62.45 19.56 63.33 16.89 C 63.76 16.70 64.63 16.31 65.07 16.12 C 65.47 15.94 66.28 15.59 66.69 15.41 Z" />
<path fill="#eda950" opacity="1.00" d=" M 13.38 23.00 C 13.39 22.99 13.40 22.99 13.41 22.98 C 13.40 22.99 13.39 22.99 13.38 23.00 Z" />
<path fill="#1f1f1f" opacity="1.00" d=" M 13.41 22.98 C 13.99 22.86 15.14 22.61 15.72 22.49 C 23.79 21.40 33.02 21.88 39.33 27.67 C 41.48 29.48 41.57 32.36 41.34 34.95 C 46.40 34.80 51.46 34.76 56.52 34.89 C 51.23 28.10 61.27 22.61 67.11 21.98 C 71.85 21.66 76.53 22.53 81.19 23.21 C 81.28 23.28 81.46 23.42 81.55 23.49 C 82.18 23.89 83.45 24.69 84.08 25.09 C 84.13 25.12 84.22 25.18 84.27 25.21 C 90.45 27.94 89.74 35.12 90.47 40.70 C 89.93 40.77 88.86 40.92 88.32 40.99 L 87.28 41.15 C 87.10 41.84 86.76 43.20 86.59 43.89 C 85.70 44.14 84.81 44.39 83.92 44.64 C 83.77 45.26 83.45 46.51 83.30 47.13 C 82.62 47.26 81.25 47.51 80.57 47.64 C 80.43 48.30 80.16 49.63 80.03 50.30 C 72.33 50.71 64.61 50.31 56.91 50.64 C 57.51 48.03 55.90 47.29 53.67 47.27 C 53.56 46.61 53.33 45.29 53.22 44.63 C 48.83 45.36 50.05 40.75 49.91 38.01 C 47.72 38.01 45.54 38.05 43.36 38.13 C 43.36 40.16 43.37 42.18 43.37 44.21 C 42.59 44.28 41.02 44.41 40.23 44.48 C 40.08 45.44 39.93 46.41 39.78 47.38 C 39.06 47.48 37.61 47.69 36.89 47.79 C 36.78 48.53 36.58 50.00 36.48 50.74 C 29.98 50.83 23.48 50.78 16.97 50.93 C 16.74 49.94 16.52 48.94 16.29 47.95 C 15.62 47.86 14.28 47.69 13.61 47.61 C 13.26 46.66 12.90 45.72 12.54 44.77 C 11.89 44.67 10.59 44.46 9.94 44.36 C 9.88 43.63 9.75 42.19 9.68 41.47 C 8.94 41.48 7.45 41.51 6.71 41.52 C 6.72 39.74 6.74 37.97 6.76 36.19 L 6.83 35.36 C 8.56 36.41 9.69 33.39 7.48 33.48 C 4.26 28.78 10.51 25.68 13.38 23.00 C 13.39 22.99 13.40 22.99 13.41 22.98 M 59.05 26.66 C 61.97 26.73 64.62 29.57 63.39 32.51 C 68.75 31.67 74.28 31.80 79.66 32.39 C 82.38 33.96 85.21 35.30 88.45 34.50 C 89.58 31.22 87.39 27.82 84.38 26.54 C 76.76 22.43 66.25 21.02 59.05 26.66 M 10.06 26.49 C 13.22 26.47 16.40 29.23 15.07 32.53 C 19.33 31.69 23.69 32.09 28.00 32.05 C 32.42 31.34 35.40 36.17 39.89 34.78 C 41.25 31.84 39.46 28.57 36.84 27.10 C 28.95 22.09 18.10 21.55 10.06 26.49 M 13.97 34.44 C 20.06 35.84 26.72 34.42 33.02 35.01 C 27.88 31.30 19.77 32.28 13.97 34.44 M 62.14 34.41 C 68.43 35.27 74.82 34.42 81.15 34.71 C 75.58 31.54 68.01 32.27 62.14 34.41 M 29.82 38.26 C 29.94 39.06 30.18 40.66 30.30 41.46 C 29.39 41.41 27.57 41.31 26.66 41.26 C 26.76 41.98 26.97 43.42 27.07 44.14 C 27.74 44.15 29.08 44.17 29.75 44.18 C 28.40 48.40 34.47 48.80 33.46 44.43 C 35.58 44.99 37.41 43.60 36.69 41.34 C 35.73 41.35 33.80 41.37 32.83 41.39 C 32.97 40.59 33.23 39.01 33.37 38.22 C 32.48 38.23 30.70 38.25 29.82 38.26 M 36.57 37.94 C 36.60 38.79 36.66 40.49 36.69 41.34 C 40.97 42.47 40.71 36.57 36.57 37.94 M 73.30 37.82 C 73.36 38.75 73.48 40.61 73.54 41.54 C 72.64 41.43 70.84 41.21 69.93 41.10 C 70.02 41.92 70.18 43.57 70.26 44.39 C 71.05 44.21 72.64 43.85 73.43 43.67 C 73.43 44.56 73.44 46.34 73.44 47.24 C 75.30 48.11 78.74 46.00 75.91 44.46 C 77.83 44.57 81.63 44.22 79.75 41.41 C 78.75 41.23 76.75 40.86 75.75 40.68 C 78.66 39.33 75.35 36.80 73.30 37.82 M 79.93 37.84 C 79.88 38.73 79.80 40.52 79.75 41.41 C 84.27 42.29 84.70 36.38 79.93 37.84 M 23.84 47.17 C 26.01 49.15 27.13 45.92 27.07 44.14 C 25.24 43.87 21.67 44.89 23.84 47.17 M 66.75 44.29 C 66.78 45.04 66.83 46.54 66.86 47.29 C 67.67 47.29 69.30 47.28 70.11 47.28 C 70.15 46.56 70.22 45.11 70.26 44.39 C 69.38 44.37 67.63 44.32 66.75 44.29 Z" />
<path fill="#ffffff" opacity="1.00" d=" M 59.05 26.66 C 66.25 21.02 76.76 22.43 84.38 26.54 C 87.39 27.82 89.58 31.22 88.45 34.50 C 85.21 35.30 82.38 33.96 79.66 32.39 C 74.28 31.80 68.75 31.67 63.39 32.51 C 64.62 29.57 61.97 26.73 59.05 26.66 Z" />
<path fill="#ffd074" opacity="1.00" d=" M 81.19 23.21 C 81.28 23.28 81.46 23.42 81.55 23.49 C 81.46 23.42 81.28 23.28 81.19 23.21 Z" />
<path fill="#ffffff" opacity="1.00" d=" M 10.06 26.49 C 18.10 21.55 28.95 22.09 36.84 27.10 C 39.46 28.57 41.25 31.84 39.89 34.78 C 35.40 36.17 32.42 31.34 28.00 32.05 C 23.69 32.09 19.33 31.69 15.07 32.53 C 16.40 29.23 13.22 26.47 10.06 26.49 Z" />
<path fill="#eda950" opacity="1.00" d=" M 84.08 25.09 C 84.13 25.12 84.22 25.18 84.27 25.21 C 84.22 25.18 84.13 25.12 84.08 25.09 Z" />
<path fill="#eda950" opacity="1.00" d=" M 7.48 33.48 C 9.69 33.39 8.56 36.41 6.83 35.36 C 7.00 34.89 7.32 33.95 7.48 33.48 Z" />
<path fill="#fde877" opacity="1.00" d=" M 13.97 34.44 C 19.77 32.28 27.88 31.30 33.02 35.01 C 26.72 34.42 20.06 35.84 13.97 34.44 Z" />
<path fill="#fde877" opacity="1.00" d=" M 62.14 34.41 C 68.01 32.27 75.58 31.54 81.15 34.71 C 74.82 34.42 68.43 35.27 62.14 34.41 Z" />
<path fill="#eda950" opacity="1.00" d=" M 22.47 82.61 C 8.25 72.38 1.71 52.89 6.76 36.19 C 6.74 37.97 6.72 39.74 6.71 41.52 C 6.51 50.64 7.62 60.39 12.75 68.15 C 18.91 77.47 28.11 85.28 39.27 87.53 C 49.69 90.38 61.01 87.64 69.98 81.95 C 83.40 73.38 90.68 56.67 88.32 40.99 C 88.86 40.92 89.93 40.77 90.47 40.70 C 93.28 56.66 86.43 73.82 73.07 83.09 C 58.44 93.83 36.88 93.65 22.47 82.61 Z" />
<path fill="#999a9d" opacity="1.00" d=" M 29.82 38.26 C 30.70 38.25 32.48 38.23 33.37 38.22 C 33.23 39.01 32.97 40.59 32.83 41.39 C 32.20 41.41 30.93 41.44 30.30 41.46 C 30.18 40.66 29.94 39.06 29.82 38.26 Z" />
<path fill="#999a9d" opacity="1.00" d=" M 36.57 37.94 C 40.71 36.57 40.97 42.47 36.69 41.34 C 36.66 40.49 36.60 38.79 36.57 37.94 Z" />
<path fill="#fde877" opacity="1.00" d=" M 43.36 38.13 C 45.54 38.05 47.72 38.01 49.91 38.01 C 50.05 40.75 48.83 45.36 53.22 44.63 C 53.33 45.29 53.56 46.61 53.67 47.27 C 55.90 47.29 57.51 48.03 56.91 50.64 C 59.72 50.92 62.55 51.09 65.38 51.23 C 60.31 59.56 52.26 66.35 42.73 68.89 C 39.55 69.78 35.89 69.99 33.63 72.74 C 25.51 69.26 19.10 61.75 17.93 52.86 C 16.15 61.07 22.27 68.60 28.47 73.24 C 27.83 73.50 26.55 74.03 25.91 74.29 C 21.80 71.71 17.47 69.43 12.75 68.15 C 7.62 60.39 6.51 50.64 6.71 41.52 C 7.45 41.51 8.94 41.48 9.68 41.47 C 9.75 42.19 9.88 43.63 9.94 44.36 C 10.59 44.46 11.89 44.67 12.54 44.77 C 12.90 45.72 13.26 46.66 13.61 47.61 C 14.28 47.69 15.62 47.86 16.29 47.95 C 16.52 48.94 16.74 49.94 16.97 50.93 C 23.48 50.78 29.98 50.83 36.48 50.74 C 36.58 50.00 36.78 48.53 36.89 47.79 C 37.61 47.69 39.06 47.48 39.78 47.38 C 39.93 46.41 40.08 45.44 40.23 44.48 C 41.02 44.41 42.59 44.28 43.37 44.21 C 43.37 42.18 43.36 40.16 43.36 38.13 Z" />
<path fill="#999a9d" opacity="1.00" d=" M 73.30 37.82 C 75.35 36.80 78.66 39.33 75.75 40.68 C 75.20 40.90 74.09 41.33 73.54 41.54 C 73.48 40.61 73.36 38.75 73.30 37.82 Z" />
<path fill="#999a9d" opacity="1.00" d=" M 79.93 37.84 C 84.70 36.38 84.27 42.29 79.75 41.41 C 79.80 40.52 79.88 38.73 79.93 37.84 Z" />
<path fill="#999a9d" opacity="1.00" d=" M 26.66 41.26 C 27.57 41.31 29.39 41.41 30.30 41.46 C 30.16 42.14 29.89 43.50 29.75 44.18 C 29.08 44.17 27.74 44.15 27.07 44.14 C 26.97 43.42 26.76 41.98 26.66 41.26 Z" />
<path fill="#1f1f1f" opacity="1.00" d=" M 30.30 41.46 C 30.93 41.44 32.20 41.41 32.83 41.39 C 32.99 42.15 33.31 43.67 33.46 44.43 C 32.53 44.37 30.68 44.24 29.75 44.18 C 29.89 43.50 30.16 42.14 30.30 41.46 Z" />
<path fill="#999a9d" opacity="1.00" d=" M 32.83 41.39 C 33.80 41.37 35.73 41.35 36.69 41.34 C 37.41 43.60 35.58 44.99 33.46 44.43 C 33.31 43.67 32.99 42.15 32.83 41.39 Z" />
<path fill="#999a9d" opacity="1.00" d=" M 69.93 41.10 C 70.84 41.21 72.64 41.43 73.54 41.54 C 73.51 42.07 73.46 43.14 73.43 43.67 C 72.64 43.85 71.05 44.21 70.26 44.39 C 70.18 43.57 70.02 41.92 69.93 41.10 Z" />
<path fill="#1f1f1f" opacity="1.00" d=" M 73.54 41.54 C 74.09 41.33 75.20 40.90 75.75 40.68 C 75.79 41.63 75.87 43.51 75.91 44.46 C 75.29 44.26 74.05 43.87 73.43 43.67 C 73.46 43.14 73.51 42.07 73.54 41.54 Z" />
<path fill="#999a9d" opacity="1.00" d=" M 75.75 40.68 C 76.75 40.86 78.75 41.23 79.75 41.41 C 81.63 44.22 77.83 44.57 75.91 44.46 C 75.87 43.51 75.79 41.63 75.75 40.68 Z" />
<path fill="#ffd074" opacity="1.00" d=" M 87.28 41.15 L 88.32 40.99 C 90.68 56.67 83.40 73.38 69.98 81.95 C 61.01 87.64 49.69 90.38 39.27 87.53 C 28.11 85.28 18.91 77.47 12.75 68.15 C 17.47 69.43 21.80 71.71 25.91 74.29 C 26.55 74.03 27.83 73.50 28.47 73.24 C 41.14 81.29 59.13 80.52 70.42 70.37 C 74.86 65.87 78.36 59.75 77.87 53.23 C 74.14 72.39 50.20 80.82 33.63 72.74 C 35.89 69.99 39.55 69.78 42.73 68.89 C 52.26 66.35 60.31 59.56 65.38 51.23 C 62.55 51.09 59.72 50.92 56.91 50.64 C 64.61 50.31 72.33 50.71 80.03 50.30 C 80.16 49.63 80.43 48.30 80.57 47.64 C 81.25 47.51 82.62 47.26 83.30 47.13 C 83.45 46.51 83.77 45.26 83.92 44.64 C 84.81 44.39 85.70 44.14 86.59 43.89 C 86.76 43.20 87.10 41.84 87.28 41.15 Z" />
<path fill="#999a9d" opacity="1.00" d=" M 23.84 47.17 C 21.67 44.89 25.24 43.87 27.07 44.14 C 27.13 45.92 26.01 49.15 23.84 47.17 Z" />
<path fill="#999a9d" opacity="1.00" d=" M 29.75 44.18 C 30.68 44.24 32.53 44.37 33.46 44.43 C 34.47 48.80 28.40 48.40 29.75 44.18 Z" />
<path fill="#999a9d" opacity="1.00" d=" M 66.75 44.29 C 67.63 44.32 69.38 44.37 70.26 44.39 C 70.22 45.11 70.15 46.56 70.11 47.28 C 69.30 47.28 67.67 47.29 66.86 47.29 C 66.83 46.54 66.78 45.04 66.75 44.29 Z" />
<path fill="#999a9d" opacity="1.00" d=" M 73.43 43.67 C 74.05 43.87 75.29 44.26 75.91 44.46 C 78.74 46.00 75.30 48.11 73.44 47.24 C 73.44 46.34 73.43 44.56 73.43 43.67 Z" />
<path fill="#690201" opacity="1.00" d=" M 28.47 73.24 C 22.27 68.60 16.15 61.07 17.93 52.86 C 19.10 61.75 25.51 69.26 33.63 72.74 C 50.20 80.82 74.14 72.39 77.87 53.23 C 78.36 59.75 74.86 65.87 70.42 70.37 C 59.13 80.52 41.14 81.29 28.47 73.24 Z" />
</svg>
