<?xml version="1.0" encoding="UTF-8" ?>
<!DOCTYPE svg PUBLIC "-//W3C//DTD SVG 1.1//EN" "http://www.w3.org/Graphics/SVG/1.1/DTD/svg11.dtd">
<svg width="96pt" height="96pt" viewBox="0 0 96 96" version="1.1" xmlns="http://www.w3.org/2000/svg">
<g id="#d53003fe">
<path fill="#d53003" opacity="1.00" d=" M 19.98 16.15 C 30.66 6.87 46.37 2.33 60.00 7.28 C 69.07 10.15 77.94 15.81 82.91 24.00 C 77.96 22.60 72.75 22.78 67.65 22.80 C 71.07 22.03 74.57 21.74 78.07 21.63 C 74.13 18.16 69.72 14.34 64.19 16.97 C 65.11 15.63 66.03 14.28 66.94 12.93 C 54.82 6.65 39.64 7.01 27.70 13.57 C 29.43 14.83 31.10 16.18 32.52 17.79 C 29.38 17.10 25.28 14.31 23.07 18.08 C 21.80 19.24 20.31 20.09 18.81 20.90 C 19.15 19.31 19.52 17.72 19.98 16.15 Z" />
<path fill="#d53003" opacity="1.00" d=" M 86.01 36.58 C 86.52 36.05 87.55 34.97 88.07 34.43 C 97.02 56.09 82.19 82.72 60.01 88.72 C 45.03 94.09 27.70 88.25 16.99 77.02 C 7.24 66.29 2.18 50.22 7.24 36.21 C 8.75 36.56 10.26 36.90 11.77 37.24 C 10.67 38.24 9.27 39.17 8.85 40.69 C 4.62 60.85 19.10 82.41 39.11 86.76 C 55.64 91.06 73.56 82.51 82.29 68.22 C 82.59 67.71 83.18 66.68 83.47 66.17 C 87.92 57.04 88.70 46.35 86.01 36.58 Z" />
</g>
<g id="#f6784bff">
<path fill="#f6784b" opacity="1.00" d=" M 27.70 13.57 C 39.64 7.01 54.82 6.65 66.94 12.93 C 66.03 14.28 65.11 15.63 64.19 16.97 C 69.72 14.34 74.13 18.16 78.07 21.63 C 74.57 21.74 71.07 22.03 67.65 22.80 C 62.44 24.16 55.86 26.40 54.38 32.25 C 53.76 34.88 56.14 36.60 57.96 37.96 C 66.09 31.45 77.04 32.65 86.01 36.58 C 88.70 46.35 87.92 57.04 83.47 66.17 C 73.45 70.39 62.46 74.30 51.46 72.02 C 58.21 68.51 68.07 68.85 72.51 62.27 C 62.37 65.28 52.62 69.64 42.16 71.64 C 36.70 67.23 30.85 62.97 27.13 56.87 C 24.67 53.45 25.94 48.83 23.83 45.26 C 21.73 41.67 20.62 37.66 19.88 33.59 C 26.61 31.69 32.97 36.13 39.36 35.49 C 45.16 30.12 36.60 23.69 31.25 22.83 C 28.16 22.28 25.02 22.19 21.89 22.04 C 22.27 20.72 22.65 19.39 23.07 18.08 C 25.28 14.31 29.38 17.10 32.52 17.79 C 31.10 16.18 29.43 14.83 27.70 13.57 M 73.51 46.60 C 73.49 48.20 73.49 49.80 73.50 51.40 C 76.16 51.74 78.84 51.76 81.50 51.39 C 81.50 49.79 81.50 48.19 81.50 46.59 C 78.85 46.26 76.16 46.25 73.51 46.60 Z" />
</g>
<g id="#ec4517ff">
<path fill="#ec4517" opacity="1.00" d=" M 11.83 25.92 C 14.03 22.27 16.76 18.95 19.98 16.15 C 19.52 17.72 19.15 19.31 18.81 20.90 C 20.31 20.09 21.80 19.24 23.07 18.08 C 22.65 19.39 22.27 20.72 21.89 22.04 C 25.02 22.19 28.16 22.28 31.25 22.83 C 24.70 22.65 17.58 22.16 11.83 25.92 Z" />
<path fill="#ec4517" opacity="1.00" d=" M 11.77 37.24 C 13.72 36.04 15.75 34.97 17.91 34.19 C 17.41 37.30 17.67 40.47 18.71 43.44 C 16.02 44.83 11.60 45.93 12.62 49.92 C 13.13 53.85 17.90 53.13 20.74 53.89 C 22.24 57.69 24.38 61.19 26.86 64.43 C 26.01 73.51 36.26 75.53 43.17 74.13 C 55.41 81.64 71.30 75.54 82.29 68.22 C 73.56 82.51 55.64 91.06 39.11 86.76 C 19.10 82.41 4.62 60.85 8.85 40.69 C 9.27 39.17 10.67 38.24 11.77 37.24 Z" />
</g>
<g id="#1f1f1fff">
<path fill="#1f1f1f" opacity="1.00" d=" M 11.83 25.92 C 17.58 22.16 24.70 22.65 31.25 22.83 C 36.60 23.69 45.16 30.12 39.36 35.49 C 32.97 36.13 26.61 31.69 19.88 33.59 C 19.39 33.74 18.40 34.04 17.91 34.19 C 15.75 34.97 13.72 36.04 11.77 37.24 C 10.26 36.90 8.75 36.56 7.24 36.21 C 6.46 32.04 8.17 28.08 11.83 25.92 M 14.55 26.31 C 14.49 26.33 14.39 26.39 14.33 26.41 C 10.02 27.38 5.80 32.83 10.00 36.50 C 16.37 31.85 24.62 30.63 32.18 32.75 C 32.48 29.91 34.37 27.91 36.63 26.38 C 29.81 22.92 21.35 22.70 14.55 26.31 Z" />
<path fill="#1f1f1f" opacity="1.00" d=" M 54.38 32.25 C 55.86 26.40 62.44 24.16 67.65 22.80 C 72.75 22.78 77.96 22.60 82.91 24.00 C 86.10 26.36 90.65 30.01 88.07 34.43 C 87.55 34.97 86.52 36.05 86.01 36.58 C 77.04 32.65 66.09 31.45 57.96 37.96 C 56.14 36.60 53.76 34.88 54.38 32.25 M 58.25 28.30 C 55.65 29.99 54.10 35.00 57.90 36.25 C 64.25 31.62 72.40 30.88 79.89 32.70 C 79.82 29.71 81.74 27.84 84.31 26.76 C 76.43 21.75 65.70 23.15 58.25 28.30 Z" />
<path fill="#1f1f1f" opacity="1.00" d=" M 42.16 71.64 C 52.62 69.64 62.37 65.28 72.51 62.27 C 68.07 68.85 58.21 68.51 51.46 72.02 C 48.68 72.65 45.93 73.42 43.17 74.13 C 36.26 75.53 26.01 73.51 26.86 64.43 C 30.40 69.30 35.66 74.09 42.16 71.64 Z" />
</g>
<g id="#ffffffff">
<path fill="#ffffff" opacity="1.00" d=" M 14.55 26.31 C 21.35 22.70 29.81 22.92 36.63 26.38 C 34.37 27.91 32.48 29.91 32.18 32.75 C 24.62 30.63 16.37 31.85 10.00 36.50 C 5.80 32.83 10.02 27.38 14.33 26.41 C 14.39 26.39 14.49 26.33 14.55 26.31 Z" />
<path fill="#ffffff" opacity="1.00" d=" M 58.25 28.30 C 65.70 23.15 76.43 21.75 84.31 26.76 C 81.74 27.84 79.82 29.71 79.89 32.70 C 72.40 30.88 64.25 31.62 57.90 36.25 C 54.10 35.00 55.65 29.99 58.25 28.30 Z" />
</g>
<g id="#f26439ff">
<path fill="#f26439" opacity="1.00" d=" M 17.91 34.19 C 18.40 34.04 19.39 33.74 19.88 33.59 C 20.62 37.66 21.73 41.67 23.83 45.26 C 25.94 48.83 24.67 53.45 27.13 56.87 C 30.85 62.97 36.70 67.23 42.16 71.64 C 35.66 74.09 30.40 69.30 26.86 64.43 C 24.38 61.19 22.24 57.69 20.74 53.89 C 25.73 50.87 23.10 45.33 18.71 43.44 C 17.67 40.47 17.41 37.30 17.91 34.19 Z" />
<path fill="#f26439" opacity="1.00" d=" M 51.46 72.02 C 62.46 74.30 73.45 70.39 83.47 66.17 C 83.18 66.68 82.59 67.71 82.29 68.22 C 71.30 75.54 55.41 81.64 43.17 74.13 C 45.93 73.42 48.68 72.65 51.46 72.02 Z" />
</g>
<g id="#ef502bff">
<path fill="#ef502b" opacity="1.00" d=" M 12.62 49.92 C 11.60 45.93 16.02 44.83 18.71 43.44 C 23.10 45.33 25.73 50.87 20.74 53.89 C 17.90 53.13 13.13 53.85 12.62 49.92 Z" />
</g>
<g id="#f1574bff">
<path fill="#f1574b" opacity="1.00" d=" M 73.51 46.60 C 76.16 46.25 78.85 46.26 81.50 46.59 C 81.50 48.19 81.50 49.79 81.50 51.39 C 78.84 51.76 76.16 51.74 73.50 51.40 C 73.49 49.80 73.49 48.20 73.51 46.60 Z" />
</g>
</svg>
