<?xml version="1.0" encoding="UTF-8" ?>
<!DOCTYPE svg PUBLIC "-//W3C//DTD SVG 1.1//EN" "http://www.w3.org/Graphics/SVG/1.1/DTD/svg11.dtd">
<svg width="96pt" height="96pt" viewBox="0 0 96 96" version="1.1" xmlns="http://www.w3.org/2000/svg">
<g id="#e4a551f2">
<path fill="#e4a551" opacity="0.95" d=" M 44.31 5.26 C 54.62 4.32 65.25 7.26 73.56 13.45 C 84.40 21.32 91.23 34.56 90.97 48.00 C 91.22 58.14 87.42 68.20 80.88 75.91 C 72.41 86.01 59.11 91.84 45.92 90.95 C 26.89 90.54 9.59 75.59 5.99 56.97 C 3.40 44.89 6.30 31.72 13.92 21.96 C 21.12 12.46 32.41 6.20 44.31 5.26 M 30.31 11.61 C 16.94 17.12 8.25 31.24 7.26 45.40 C 6.51 57.16 11.01 69.27 19.59 77.42 C 26.84 84.58 36.85 88.53 46.96 89.12 C 58.53 89.31 70.07 84.42 77.93 75.92 C 80.09 73.58 82.44 71.14 83.04 67.89 L 83.82 67.67 C 85.39 65.04 86.54 62.19 87.25 59.22 C 90.15 49.69 88.99 39.23 84.75 30.29 C 79.66 19.71 69.76 11.61 58.41 8.65 C 49.10 6.35 38.86 7.12 30.31 11.61 Z" />
</g>
<g id="#fded78ff">
<path fill="#fded78" opacity="1.00" d=" M 30.31 11.61 C 38.86 7.12 49.10 6.35 58.41 8.65 C 69.76 11.61 79.66 19.71 84.75 30.29 C 88.99 39.23 90.15 49.69 87.25 59.22 C 79.98 62.43 71.87 62.40 64.09 61.76 C 54.38 60.54 46.30 54.06 40.46 46.56 C 38.72 44.07 37.88 41.08 37.33 38.13 C 37.50 37.08 37.68 36.04 37.86 34.99 C 38.10 32.15 36.31 29.91 33.92 28.62 C 33.18 28.24 32.43 27.87 31.68 27.51 C 32.12 25.62 32.53 23.73 32.93 21.83 C 34.19 21.48 35.44 21.12 36.70 20.74 C 36.76 20.00 36.87 18.51 36.93 17.76 C 33.83 17.78 30.75 18.29 27.83 19.34 C 29.05 16.91 30.32 14.41 30.31 11.61 M 58.07 18.08 C 58.09 18.77 58.14 20.14 58.16 20.83 C 62.59 21.80 66.87 23.31 71.19 24.69 C 72.98 25.50 74.70 23.36 72.95 22.08 C 68.50 19.46 63.29 17.75 58.07 18.08 M 59.34 31.46 C 56.55 35.32 60.20 41.36 64.98 40.40 C 68.32 40.10 69.85 36.96 70.35 34.04 C 69.62 31.73 68.03 29.96 66.06 28.62 C 63.64 28.94 60.67 29.00 59.34 31.46 Z" />
</g>
<g id="#ffca73ff">
<path fill="#ffca73" opacity="1.00" d=" M 7.26 45.40 C 8.25 31.24 16.94 17.12 30.31 11.61 C 30.32 14.41 29.05 16.91 27.83 19.34 C 25.15 20.31 22.53 21.65 20.72 23.93 C 22.02 24.23 23.31 24.58 24.59 24.95 C 23.84 25.76 23.08 26.58 22.52 27.53 C 19.84 39.61 24.12 52.58 32.46 61.54 C 35.45 64.46 39.11 66.87 40.80 70.87 C 40.60 72.20 40.38 73.53 40.14 74.85 C 40.49 75.07 41.19 75.52 41.54 75.75 C 42.89 72.65 44.82 68.61 48.92 69.25 C 52.92 69.20 53.12 74.01 55.64 76.07 C 55.84 75.27 56.23 73.68 56.42 72.88 C 56.66 73.28 57.12 74.09 57.35 74.49 C 61.12 73.72 64.95 73.24 68.75 72.64 C 73.76 71.84 78.13 69.04 83.04 67.89 C 82.44 71.14 80.09 73.58 77.93 75.92 C 70.07 84.42 58.53 89.31 46.96 89.12 C 36.85 88.53 26.84 84.58 19.59 77.42 C 11.01 69.27 6.51 57.16 7.26 45.40 Z" />
</g>
<g id="#a33d0dff">
<path fill="#a33d0d" opacity="1.00" d=" M 27.83 19.34 C 30.75 18.29 33.83 17.78 36.93 17.76 C 36.87 18.51 36.76 20.00 36.70 20.74 C 35.44 21.12 34.19 21.48 32.93 21.83 C 30.08 22.65 27.21 23.52 24.59 24.95 C 23.31 24.58 22.02 24.23 20.72 23.93 C 22.53 21.65 25.15 20.31 27.83 19.34 Z" />
</g>
<g id="#a33c0cff">
<path fill="#a33c0c" opacity="1.00" d=" M 58.07 18.08 C 63.29 17.75 68.50 19.46 72.95 22.08 C 74.70 23.36 72.98 25.50 71.19 24.69 C 66.87 23.31 62.59 21.80 58.16 20.83 C 58.14 20.14 58.09 18.77 58.07 18.08 Z" />
</g>
<g id="#feda75ff">
<path fill="#feda75" opacity="1.00" d=" M 24.59 24.95 C 27.21 23.52 30.08 22.65 32.93 21.83 C 32.53 23.73 32.12 25.62 31.68 27.51 C 32.43 27.87 33.18 28.24 33.92 28.62 C 31.78 29.01 29.18 28.83 27.68 30.71 C 24.98 33.59 26.29 39.01 30.20 40.06 C 32.78 41.13 35.15 39.26 37.33 38.13 C 37.88 41.08 38.72 44.07 40.46 46.56 C 46.30 54.06 54.38 60.54 64.09 61.76 C 71.87 62.40 79.98 62.43 87.25 59.22 C 86.54 62.19 85.39 65.04 83.82 67.67 L 83.04 67.89 C 78.13 69.04 73.76 71.84 68.75 72.64 C 64.95 73.24 61.12 73.72 57.35 74.49 C 57.12 74.09 56.66 73.28 56.42 72.88 C 54.91 70.33 53.09 67.39 49.81 67.08 C 46.24 66.20 43.20 68.56 40.80 70.87 C 39.11 66.87 35.45 64.46 32.46 61.54 C 24.12 52.58 19.84 39.61 22.52 27.53 C 23.08 26.58 23.84 25.76 24.59 24.95 Z" />
</g>
<g id="#1d1d1eff">
<path fill="#1d1d1e" opacity="1.00" d=" M 27.68 30.71 C 29.18 28.83 31.78 29.01 33.92 28.62 C 32.76 30.43 30.07 32.71 32.04 34.92 C 33.49 36.93 36.00 35.38 37.86 34.99 C 37.68 36.04 37.50 37.08 37.33 38.13 C 35.15 39.26 32.78 41.13 30.20 40.06 C 26.29 39.01 24.98 33.59 27.68 30.71 Z" />
</g>
<g id="#808081ff">
<path fill="#808081" opacity="1.00" d=" M 33.92 28.62 C 36.31 29.91 38.10 32.15 37.86 34.99 C 36.00 35.38 33.49 36.93 32.04 34.92 C 30.07 32.71 32.76 30.43 33.92 28.62 Z" />
<path fill="#808081" opacity="1.00" d=" M 66.06 28.62 C 68.03 29.96 69.62 31.73 70.35 34.04 C 68.43 35.43 65.58 38.16 63.48 35.44 C 61.08 32.80 64.13 30.29 66.06 28.62 Z" />
</g>
<g id="#1c1c1dff">
<path fill="#1c1c1d" opacity="1.00" d=" M 59.34 31.46 C 60.67 29.00 63.64 28.94 66.06 28.62 C 64.13 30.29 61.08 32.80 63.48 35.44 C 65.58 38.16 68.43 35.43 70.35 34.04 C 69.85 36.96 68.32 40.10 64.98 40.40 C 60.20 41.36 56.55 35.32 59.34 31.46 Z" />
</g>
<g id="#8c301cff">
<path fill="#8c301c" opacity="1.00" d=" M 40.80 70.87 C 43.20 68.56 46.24 66.20 49.81 67.08 C 53.09 67.39 54.91 70.33 56.42 72.88 C 56.23 73.68 55.84 75.27 55.64 76.07 C 53.12 74.01 52.92 69.20 48.92 69.25 C 44.82 68.61 42.89 72.65 41.54 75.75 C 41.19 75.52 40.49 75.07 40.14 74.85 C 40.38 73.53 40.60 72.20 40.80 70.87 Z" />
</g>
</svg>
