<?xml version="1.0" encoding="UTF-8" ?>
<!DOCTYPE svg PUBLIC "-//W3C//DTD SVG 1.1//EN" "http://www.w3.org/Graphics/SVG/1.1/DTD/svg11.dtd">
<svg width="96pt" height="96pt" viewBox="0 0 96 96" version="1.1" xmlns="http://www.w3.org/2000/svg">
<g id="#171a1dfd">
<path fill="#171a1d" opacity="1.00" d=" M 30.25 18.49 C 30.27 13.54 30.06 7.09 34.62 3.95 C 35.62 7.53 35.98 12.69 40.07 14.08 C 45.09 13.01 50.09 13.64 54.93 15.16 C 58.26 13.78 60.19 10.57 61.73 7.49 C 62.13 7.53 62.93 7.61 63.33 7.65 C 63.82 11.02 63.87 14.44 63.92 17.85 C 66.88 19.28 71.76 20.69 70.95 24.95 C 70.99 27.64 67.89 28.31 66.04 29.44 C 68.59 34.19 72.11 38.29 75.91 42.06 C 80.42 46.54 83.97 52.17 89.64 55.31 C 91.12 56.29 93.37 56.96 92.99 59.18 C 88.46 57.36 84.33 54.57 81.12 50.87 C 74.13 42.79 65.74 35.57 61.47 25.52 C 63.71 25.90 66.03 27.06 68.32 26.32 C 68.83 25.35 69.07 24.32 69.06 23.23 C 66.67 20.16 62.48 20.51 59.05 19.84 C 54.73 19.31 51.51 15.49 47.05 15.49 C 41.79 15.19 36.98 17.67 32.70 20.44 C 37.19 20.81 41.30 22.76 43.82 26.58 C 45.98 24.06 48.42 20.99 52.11 21.16 C 57.51 20.43 62.79 25.51 61.63 31.00 C 61.74 35.23 58.13 38.11 54.37 39.09 C 53.02 39.22 51.67 39.31 50.32 39.43 C 48.05 37.80 45.91 36.00 43.91 34.04 C 41.76 36.07 39.40 37.87 36.81 39.31 C 34.26 38.88 31.74 38.10 29.14 38.16 C 25.51 39.09 22.67 41.75 19.73 43.93 C 20.68 40.02 24.36 38.25 27.45 36.25 C 26.49 33.71 25.78 31.08 25.39 28.40 C 23.00 28.24 19.78 29.00 18.30 26.54 C 16.23 23.38 19.27 19.44 22.49 18.73 C 25.06 18.39 27.67 18.56 30.25 18.49 M 33.03 9.54 C 32.34 12.32 32.19 15.18 32.32 18.03 C 34.00 17.17 35.64 16.24 37.24 15.25 C 35.94 13.27 34.60 11.31 33.03 9.54 M 56.85 17.86 C 58.42 17.92 60.00 17.90 61.57 17.79 C 61.81 15.86 62.08 13.93 62.28 11.99 C 60.27 13.74 57.90 15.31 56.85 17.86 M 22.26 21.02 C 20.12 21.77 18.26 25.01 21.03 26.30 C 25.53 27.61 28.76 23.82 31.41 20.85 C 28.38 20.70 25.21 20.07 22.26 21.02 M 32.44 23.52 C 28.93 24.76 26.78 29.19 28.37 32.63 C 29.90 36.66 35.38 38.48 38.88 35.83 C 42.77 33.57 42.84 27.32 39.40 24.63 C 37.56 22.91 34.74 22.91 32.44 23.52 M 50.38 23.46 C 46.25 24.78 43.97 30.56 46.94 34.05 C 49.51 38.01 56.29 37.83 58.71 33.78 C 62.25 28.53 56.37 21.09 50.38 23.46 Z" />
<path fill="#171a1d" opacity="1.00" d=" M 33.51 31.47 C 32.87 29.12 34.42 27.48 36.82 28.10 C 36.80 28.77 36.75 30.11 36.73 30.78 C 36.38 32.20 34.51 31.26 33.51 31.47 Z" />
<path fill="#171a1d" opacity="1.00" d=" M 50.81 28.80 C 52.91 27.24 54.26 29.92 53.87 31.78 C 51.84 32.67 48.82 30.92 50.81 28.80 Z" />
<path fill="#171a1d" opacity="1.00" d=" M 27.95 59.09 C 31.38 59.48 34.80 59.98 38.16 60.74 C 40.38 69.69 44.82 78.01 46.02 87.22 C 42.66 87.45 39.36 88.34 35.98 88.33 C 32.31 88.24 28.86 86.85 25.46 85.60 C 23.86 88.12 21.91 90.41 19.80 92.53 C 19.03 92.38 17.48 92.08 16.71 91.93 C 18.24 91.05 19.76 90.16 21.24 89.20 C 21.99 88.55 22.67 87.84 23.27 87.07 C 23.40 83.55 22.57 80.06 22.83 76.53 L 23.51 75.80 C 23.73 77.84 23.77 79.89 23.79 81.95 C 29.40 85.84 36.84 87.83 43.42 85.28 C 44.74 83.69 43.32 81.76 43.00 80.06 C 40.75 73.65 39.09 66.97 35.87 60.93 C 33.17 60.64 30.41 60.34 27.95 59.09 Z" />
<path fill="#171a1d" opacity="1.00" d=" M 14.45 62.54 C 17.17 62.43 21.04 61.28 22.38 64.53 C 22.78 67.69 22.17 70.87 22.08 74.03 C 21.48 72.35 21.22 70.59 21.22 68.81 C 21.20 67.04 21.53 64.95 19.90 63.73 C 18.91 62.25 16.01 62.12 15.33 63.94 C 14.02 66.20 14.39 68.83 14.60 71.30 C 11.96 72.06 8.67 72.58 7.35 75.34 C 5.57 78.80 6.82 82.79 7.80 86.29 C 8.65 88.45 9.76 90.48 10.81 92.54 C 5.29 90.41 5.09 83.15 5.31 78.12 C 5.23 73.67 9.54 71.38 13.12 69.99 C 13.17 67.45 13.51 64.91 14.45 62.54 Z" />
</g>
<g id="#fda564ff">
<path fill="#fda564" opacity="1.00" d=" M 33.03 9.54 C 34.60 11.31 35.94 13.27 37.24 15.25 C 35.64 16.24 34.00 17.17 32.32 18.03 C 32.19 15.18 32.34 12.32 33.03 9.54 Z" />
<path fill="#fda564" opacity="1.00" d=" M 56.85 17.86 C 57.90 15.31 60.27 13.74 62.28 11.99 C 62.08 13.93 61.81 15.86 61.57 17.79 C 60.00 17.90 58.42 17.92 56.85 17.86 Z" />
</g>
<g id="#d67330ff">
<path fill="#d67330" opacity="1.00" d=" M 32.70 20.44 C 36.98 17.67 41.79 15.19 47.05 15.49 C 51.51 15.49 54.73 19.31 59.05 19.84 C 62.48 20.51 66.67 20.16 69.06 23.23 C 69.07 24.32 68.83 25.35 68.32 26.32 C 66.03 27.06 63.71 25.90 61.47 25.52 C 65.74 35.57 74.13 42.79 81.12 50.87 C 84.33 54.57 88.46 57.36 92.99 59.18 C 92.77 70.23 93.07 81.28 92.84 92.33 C 86.44 92.68 80.03 92.45 73.62 92.46 C 74.01 91.17 74.39 89.88 74.78 88.59 C 75.39 88.36 76.62 87.90 77.23 87.67 C 80.83 88.53 85.78 89.92 88.40 86.35 C 91.48 81.73 92.06 75.66 90.80 70.34 C 90.19 67.78 87.57 66.73 85.62 65.37 C 82.40 63.79 82.09 59.61 79.37 57.53 C 77.95 56.96 76.41 56.83 74.92 56.55 C 69.42 51.98 60.69 51.58 54.99 56.00 C 57.43 53.94 59.69 51.24 59.91 47.91 C 60.62 43.86 56.27 42.01 54.37 39.09 C 58.13 38.11 61.74 35.23 61.63 31.00 C 62.79 25.51 57.51 20.43 52.11 21.16 C 48.42 20.99 45.98 24.06 43.82 26.58 C 41.30 22.76 37.19 20.81 32.70 20.44 Z" />
</g>
<g id="#d97530ff">
<path fill="#d97530" opacity="1.00" d=" M 22.26 21.02 C 25.21 20.07 28.38 20.70 31.41 20.85 C 28.76 23.82 25.53 27.61 21.03 26.30 C 18.26 25.01 20.12 21.77 22.26 21.02 Z" />
</g>
<g id="#ffffffff">
<path fill="#ffffff" opacity="1.00" d=" M 32.44 23.52 C 34.74 22.91 37.56 22.91 39.40 24.63 C 42.84 27.32 42.77 33.57 38.88 35.83 C 35.38 38.48 29.90 36.66 28.37 32.63 C 26.78 29.19 28.93 24.76 32.44 23.52 M 33.51 31.47 C 34.51 31.26 36.38 32.20 36.73 30.78 C 36.75 30.11 36.80 28.77 36.82 28.10 C 34.42 27.48 32.87 29.12 33.51 31.47 Z" />
<path fill="#ffffff" opacity="1.00" d=" M 50.38 23.46 C 56.37 21.09 62.25 28.53 58.71 33.78 C 56.29 37.83 49.51 38.01 46.94 34.05 C 43.97 30.56 46.25 24.78 50.38 23.46 M 50.81 28.80 C 48.82 30.92 51.84 32.67 53.87 31.78 C 54.26 29.92 52.91 27.24 50.81 28.80 Z" />
</g>
<g id="#d77430ff">
<path fill="#d77430" opacity="1.00" d=" M 36.81 39.31 C 39.40 37.87 41.76 36.07 43.91 34.04 C 45.91 36.00 48.05 37.80 50.32 39.43 C 45.83 39.84 41.27 40.14 36.81 39.31 Z" />
<path fill="#d77430" opacity="1.00" d=" M 25.46 85.60 C 28.86 86.85 32.31 88.24 35.98 88.33 C 39.36 88.34 42.66 87.45 46.02 87.22 C 48.24 87.20 50.45 87.27 52.67 87.23 C 52.70 88.70 52.76 90.16 52.77 91.63 L 52.74 92.49 C 41.76 92.53 30.78 92.44 19.80 92.53 C 21.91 90.41 23.86 88.12 25.46 85.60 Z" />
</g>
<g id="#b24a15ff">
<path fill="#b24a15" opacity="1.00" d=" M 19.73 43.93 C 22.67 41.75 25.51 39.09 29.14 38.16 C 31.74 38.10 34.26 38.88 36.81 39.31 C 41.27 40.14 45.83 39.84 50.32 39.43 C 51.67 39.31 53.02 39.22 54.37 39.09 C 56.27 42.01 60.62 43.86 59.91 47.91 C 59.69 51.24 57.43 53.94 54.99 56.00 C 54.09 56.37 53.19 56.72 52.29 57.07 C 50.35 57.68 48.40 58.29 46.47 58.92 C 43.74 59.69 41.01 60.53 38.16 60.74 C 34.80 59.98 31.38 59.48 27.95 59.09 C 21.96 56.79 18.69 50.13 19.73 43.93 M 25.33 42.51 C 22.86 42.90 21.59 45.72 21.73 48.00 C 22.24 53.43 27.41 58.10 32.92 57.79 C 39.73 57.89 46.96 57.54 52.99 54.03 C 55.91 52.33 58.66 49.07 57.53 45.47 C 55.35 41.80 50.68 42.24 47.01 42.23 C 39.79 42.46 32.53 41.86 25.33 42.51 Z" />
</g>
<g id="#f99c60ff">
<path fill="#f99c60" opacity="1.00" d=" M 25.33 42.51 C 32.53 41.86 39.79 42.46 47.01 42.23 C 50.68 42.24 55.35 41.80 57.53 45.47 C 58.66 49.07 55.91 52.33 52.99 54.03 C 46.96 57.54 39.73 57.89 32.92 57.79 C 27.41 58.10 22.24 53.43 21.73 48.00 C 21.59 45.72 22.86 42.90 25.33 42.51 M 25.86 44.92 C 27.06 47.88 30.11 49.32 33.07 49.90 C 32.94 46.32 29.16 44.14 25.86 44.92 M 44.87 49.08 C 46.01 49.22 47.21 49.86 48.35 49.37 C 50.58 48.95 50.36 46.21 51.10 44.55 C 48.56 45.34 46.43 46.94 44.87 49.08 Z" />
</g>
<g id="#b25121ff">
<path fill="#b25121" opacity="1.00" d=" M 25.86 44.92 C 29.16 44.14 32.94 46.32 33.07 49.90 C 30.11 49.32 27.06 47.88 25.86 44.92 Z" />
</g>
<g id="#b65422ff">
<path fill="#b65422" opacity="1.00" d=" M 44.87 49.08 C 46.43 46.94 48.56 45.34 51.10 44.55 C 50.36 46.21 50.58 48.95 48.35 49.37 C 47.21 49.86 46.01 49.22 44.87 49.08 Z" />
</g>
<g id="#fdfbdaff">
<path fill="#fdfbda" opacity="1.00" d=" M 54.99 56.00 C 60.69 51.58 69.42 51.98 74.92 56.55 C 75.87 57.22 76.82 57.89 77.77 58.58 C 76.74 60.42 75.76 62.30 74.81 64.19 C 73.21 60.92 72.08 57.19 69.46 54.57 C 66.60 55.10 63.72 55.63 60.99 54.20 C 58.57 56.75 54.77 59.01 55.45 63.07 C 55.88 63.29 56.76 63.72 57.20 63.93 C 57.01 60.36 59.61 57.98 61.97 55.72 C 63.08 57.08 64.15 58.47 65.19 59.88 C 65.64 58.63 66.09 57.37 66.54 56.11 C 67.84 56.45 69.75 56.06 70.40 57.57 C 71.90 60.40 73.51 64.24 71.03 67.02 C 68.89 69.15 65.76 68.58 63.25 67.54 C 65.21 66.73 67.43 66.40 69.15 65.10 C 70.33 63.68 69.81 61.67 70.01 59.98 C 68.54 61.83 67.67 64.71 65.06 65.17 C 62.26 65.74 59.35 65.64 56.54 65.33 C 54.83 64.59 53.76 62.93 52.44 61.70 C 52.72 59.59 53.65 57.64 54.99 56.00 Z" />
<path fill="#fdfbda" opacity="1.00" d=" M 52.67 63.79 C 55.60 71.79 50.59 81.36 56.00 88.57 C 54.93 89.60 53.83 90.59 52.77 91.63 C 52.76 90.16 52.70 88.70 52.67 87.23 C 52.70 79.42 52.43 71.60 52.67 63.79 Z" />
</g>
<g id="#4a281dff">
<path fill="#4a281d" opacity="1.00" d=" M 55.45 63.07 C 54.77 59.01 58.57 56.75 60.99 54.20 C 63.72 55.63 66.60 55.10 69.46 54.57 C 72.08 57.19 73.21 60.92 74.81 64.19 C 76.61 66.59 79.63 65.34 81.78 64.22 C 80.88 62.07 79.87 59.83 77.77 58.58 C 76.82 57.89 75.87 57.22 74.92 56.55 C 76.41 56.83 77.95 56.96 79.37 57.53 C 82.09 59.61 82.40 63.79 85.62 65.37 C 87.57 66.73 90.19 67.78 90.80 70.34 C 92.06 75.66 91.48 81.73 88.40 86.35 C 85.78 89.92 80.83 88.53 77.23 87.67 C 76.55 87.06 75.89 86.44 75.25 85.79 C 74.28 84.61 73.39 83.36 72.51 82.10 C 72.29 84.16 72.36 86.39 71.10 88.16 C 66.08 88.65 61.04 88.61 56.00 88.57 C 50.59 81.36 55.60 71.79 52.67 63.79 C 52.61 63.27 52.49 62.22 52.44 61.70 C 53.76 62.93 54.83 64.59 56.54 65.33 C 59.35 65.64 62.26 65.74 65.06 65.17 C 67.67 64.71 68.54 61.83 70.01 59.98 C 69.81 61.67 70.33 63.68 69.15 65.10 C 67.43 66.40 65.21 66.73 63.25 67.54 C 65.76 68.58 68.89 69.15 71.03 67.02 C 73.51 64.24 71.90 60.40 70.40 57.57 C 69.75 56.06 67.84 56.45 66.54 56.11 C 66.09 57.37 65.64 58.63 65.19 59.88 C 64.15 58.47 63.08 57.08 61.97 55.72 C 59.61 57.98 57.01 60.36 57.20 63.93 C 56.76 63.72 55.88 63.29 55.45 63.07 M 76.20 69.11 C 75.08 73.57 74.14 78.25 74.90 82.85 C 76.36 86.54 81.17 88.23 84.81 86.97 C 87.14 86.07 87.59 83.34 88.44 81.29 C 89.64 77.18 91.19 71.75 87.66 68.35 C 84.49 65.15 79.09 65.91 76.20 69.11 M 54.90 67.28 C 55.11 68.41 55.32 69.53 55.54 70.65 C 54.92 75.29 54.43 80.03 55.34 84.66 C 55.41 86.05 56.56 87.33 57.99 87.34 C 61.87 87.79 65.80 87.58 69.66 87.07 C 70.01 81.77 70.65 76.47 70.65 71.15 C 70.82 70.69 71.16 69.78 71.33 69.32 C 69.57 69.60 67.83 70.01 66.05 70.10 C 63.96 69.70 62.52 67.98 60.82 66.85 C 58.87 66.42 56.87 67.19 54.90 67.28 M 73.03 68.08 C 72.16 71.65 72.74 75.39 72.32 79.02 C 72.85 74.84 73.85 70.75 74.84 66.67 C 74.39 67.02 73.48 67.73 73.03 68.08 Z" />
</g>
<g id="#e08244ff">
<path fill="#e08244" opacity="1.00" d=" M 52.29 57.07 C 53.19 56.72 54.09 56.37 54.99 56.00 C 53.65 57.64 52.72 59.59 52.44 61.70 C 52.49 62.22 52.61 63.27 52.67 63.79 C 52.43 71.60 52.70 79.42 52.67 87.23 C 50.45 87.27 48.24 87.20 46.02 87.22 C 44.82 78.01 40.38 69.69 38.16 60.74 C 41.01 60.53 43.74 59.69 46.47 58.92 C 47.76 59.04 49.04 59.21 50.32 59.38 C 50.97 58.60 51.62 57.83 52.29 57.07 Z" />
</g>
<g id="#61311dff">
<path fill="#61311d" opacity="1.00" d=" M 46.47 58.92 C 48.40 58.29 50.35 57.68 52.29 57.07 C 51.62 57.83 50.97 58.60 50.32 59.38 C 49.04 59.21 47.76 59.04 46.47 58.92 Z" />
</g>
<g id="#fdfefeff">
<path fill="#fdfefe" opacity="1.00" d=" M 74.81 64.19 C 75.76 62.30 76.74 60.42 77.77 58.58 C 79.87 59.83 80.88 62.07 81.78 64.22 C 79.63 65.34 76.61 66.59 74.81 64.19 Z" />
</g>
<g id="#6a6a6cfd">
<path fill="#6a6a6c" opacity="1.00" d=" M 15.33 63.94 C 16.01 62.12 18.91 62.25 19.90 63.73 C 19.51 63.84 18.72 64.06 18.32 64.17 C 17.57 64.11 16.08 64.00 15.33 63.94 Z" />
</g>
<g id="#fdfdfdff">
<path fill="#fdfdfd" opacity="1.00" d=" M 15.33 63.94 C 16.08 64.00 17.57 64.11 18.32 64.17 C 18.63 65.69 18.94 67.21 19.24 68.74 C 18.27 69.92 17.30 71.09 16.32 72.27 C 17.17 72.97 18.02 73.67 18.88 74.38 C 19.27 76.23 19.65 78.08 19.96 79.94 C 18.25 81.91 16.49 83.83 14.75 85.76 C 16.40 85.78 18.06 85.79 19.71 85.83 C 18.19 87.45 16.44 89.29 14.00 89.13 C 11.71 88.77 9.79 87.36 7.80 86.29 C 6.82 82.79 5.57 78.80 7.35 75.34 C 8.67 72.58 11.96 72.06 14.60 71.30 C 14.39 68.83 14.02 66.20 15.33 63.94 Z" />
<path fill="#fdfdfd" opacity="1.00" d=" M 76.20 69.11 C 79.09 65.91 84.49 65.15 87.66 68.35 C 91.19 71.75 89.64 77.18 88.44 81.29 C 86.64 82.36 84.90 83.59 82.90 84.27 C 79.93 84.84 77.69 82.55 75.76 80.68 C 77.60 80.60 79.45 80.55 81.30 80.48 C 79.33 78.57 77.35 76.66 75.39 74.73 C 76.55 73.34 77.92 72.14 79.47 71.19 C 78.37 70.51 77.28 69.81 76.20 69.11 Z" />
</g>
<g id="#aeafb3ff">
<path fill="#aeafb3" opacity="1.00" d=" M 18.32 64.17 C 18.72 64.06 19.51 63.84 19.90 63.73 C 21.53 64.95 21.20 67.04 21.22 68.81 C 20.49 70.69 19.67 72.53 18.88 74.38 C 18.02 73.67 17.17 72.97 16.32 72.27 C 17.30 71.09 18.27 69.92 19.24 68.74 C 18.94 67.21 18.63 65.69 18.32 64.17 Z" />
</g>
<g id="#fefddcff">
<path fill="#fefddc" opacity="1.00" d=" M 54.90 67.28 C 56.87 67.19 58.87 66.42 60.82 66.85 C 62.52 67.98 63.96 69.70 66.05 70.10 C 67.83 70.01 69.57 69.60 71.33 69.32 C 71.16 69.78 70.82 70.69 70.65 71.15 C 66.71 71.34 62.76 71.22 58.82 71.46 C 58.47 75.10 57.69 78.68 56.69 82.20 C 56.53 78.33 56.43 74.44 55.54 70.65 C 55.32 69.53 55.11 68.41 54.90 67.28 Z" />
<path fill="#fefddc" opacity="1.00" d=" M 73.03 68.08 C 73.48 67.73 74.39 67.02 74.84 66.67 C 73.85 70.75 72.85 74.84 72.32 79.02 C 72.74 75.39 72.16 71.65 73.03 68.08 Z" />
<path fill="#fefddc" opacity="1.00" d=" M 72.51 82.10 C 73.39 83.36 74.28 84.61 75.25 85.79 C 74.15 87.64 73.04 89.50 71.93 91.35 C 70.99 90.96 70.05 90.57 69.12 90.18 C 69.78 89.51 70.45 88.84 71.10 88.16 C 72.36 86.39 72.29 84.16 72.51 82.10 Z" />
</g>
<g id="#7f8084ff">
<path fill="#7f8084" opacity="1.00" d=" M 18.88 74.38 C 19.67 72.53 20.49 70.69 21.22 68.81 C 21.22 70.59 21.48 72.35 22.08 74.03 C 22.27 74.66 22.65 75.91 22.83 76.53 C 22.57 80.06 23.40 83.55 23.27 87.07 C 22.67 87.84 21.99 88.55 21.24 89.20 C 20.71 86.13 20.39 83.03 19.96 79.94 C 19.65 78.08 19.27 76.23 18.88 74.38 Z" />
</g>
<g id="#a0a3a8ff">
<path fill="#a0a3a8" opacity="1.00" d=" M 74.90 82.85 C 74.14 78.25 75.08 73.57 76.20 69.11 C 77.28 69.81 78.37 70.51 79.47 71.19 C 77.92 72.14 76.55 73.34 75.39 74.73 C 77.35 76.66 79.33 78.57 81.30 80.48 C 79.45 80.55 77.60 80.60 75.76 80.68 C 77.69 82.55 79.93 84.84 82.90 84.27 C 84.90 83.59 86.64 82.36 88.44 81.29 C 87.59 83.34 87.14 86.07 84.81 86.97 C 81.17 88.23 76.36 86.54 74.90 82.85 Z" />
</g>
<g id="#e68003ff">
<path fill="#e68003" opacity="1.00" d=" M 55.54 70.65 C 56.43 74.44 56.53 78.33 56.69 82.20 C 57.69 78.68 58.47 75.10 58.82 71.46 C 62.76 71.22 66.71 71.34 70.65 71.15 C 70.65 76.47 70.01 81.77 69.66 87.07 C 65.80 87.58 61.87 87.79 57.99 87.34 C 56.56 87.33 55.41 86.05 55.34 84.66 C 54.43 80.03 54.92 75.29 55.54 70.65 Z" />
</g>
<g id="#a8a9aefe">
<path fill="#a8a9ae" opacity="1.00" d=" M 19.96 79.94 C 20.39 83.03 20.71 86.13 21.24 89.20 C 19.76 90.16 18.24 91.05 16.71 91.93 C 14.93 92.89 12.76 92.31 10.81 92.54 C 9.76 90.48 8.65 88.45 7.80 86.29 C 9.79 87.36 11.71 88.77 14.00 89.13 C 16.44 89.29 18.19 87.45 19.71 85.83 C 18.06 85.79 16.40 85.78 14.75 85.76 C 16.49 83.83 18.25 81.91 19.96 79.94 Z" />
</g>
<g id="#b5a28bfe">
<path fill="#b5a28b" opacity="1.00" d=" M 75.25 85.79 C 75.89 86.44 76.55 87.06 77.23 87.67 C 76.62 87.90 75.39 88.36 74.78 88.59 C 74.39 89.88 74.01 91.17 73.62 92.46 C 66.66 92.59 59.70 92.53 52.74 92.49 L 52.77 91.63 C 53.83 90.59 54.93 89.60 56.00 88.57 C 61.04 88.61 66.08 88.65 71.10 88.16 C 70.45 88.84 69.78 89.51 69.12 90.18 C 70.05 90.57 70.99 90.96 71.93 91.35 C 73.04 89.50 74.15 87.64 75.25 85.79 Z" />
</g>
</svg>
