<?xml version="1.0" encoding="UTF-8" ?>
<!DOCTYPE svg PUBLIC "-//W3C//DTD SVG 1.1//EN" "http://www.w3.org/Graphics/SVG/1.1/DTD/svg11.dtd">
<svg width="96pt" height="96pt" viewBox="0 0 96 96" version="1.1" xmlns="http://www.w3.org/2000/svg">
<g id="#eea851fd">
<path fill="#eea851" opacity="1.00" d=" M 40.17 3.17 C 42.75 0.41 46.94 1.12 50.22 1.89 C 56.55 4.79 59.19 11.91 60.68 18.23 C 61.62 21.44 61.45 25.04 63.19 27.98 C 64.12 22.31 63.52 15.44 68.28 11.31 C 70.87 8.74 75.18 9.01 78.01 11.06 C 82.79 14.30 84.52 20.49 84.56 26.00 C 84.92 32.94 82.89 39.67 81.10 46.29 C 80.32 49.29 78.60 52.61 80.39 55.59 C 84.32 63.42 87.91 71.87 87.80 80.79 C 87.03 81.74 85.68 81.82 84.63 82.33 C 84.62 75.07 82.90 67.84 79.60 61.38 C 77.86 57.88 75.91 54.06 76.91 50.04 C 78.55 41.60 82.50 33.38 81.51 24.59 C 80.98 20.33 79.69 15.38 75.61 13.18 C 72.53 11.57 68.64 13.78 68.08 17.12 C 65.92 26.23 65.41 35.64 63.81 44.85 C 63.12 44.87 61.74 44.92 61.05 44.94 C 60.60 33.03 59.64 20.68 54.21 9.86 C 52.42 6.01 47.89 2.98 43.62 4.59 C 39.54 6.78 39.53 12.19 40.92 16.04 C 44.15 26.78 50.23 37.72 47.03 49.25 C 44.23 43.75 42.44 37.82 39.62 32.34 C 36.60 26.34 34.12 19.60 28.61 15.36 C 25.60 13.07 21.17 11.60 17.66 13.59 C 14.88 15.44 15.17 19.55 17.14 21.89 C 20.72 26.36 26.21 28.72 30.09 32.91 C 32.94 35.68 34.87 39.22 36.15 42.95 C 31.64 43.16 26.88 42.73 22.66 44.65 C 16.81 47.16 12.24 52.73 11.16 59.02 C 10.73 61.72 13.69 63.18 15.97 63.17 C 19.04 63.61 20.66 60.40 22.70 58.71 C 27.53 53.29 37.01 54.03 41.48 59.54 C 44.01 62.45 45.30 66.82 43.51 70.44 C 42.10 73.64 38.17 74.49 35.00 74.29 C 29.53 73.96 25.38 69.58 20.00 68.97 C 17.48 68.61 15.77 70.76 14.02 72.17 C 16.69 77.65 22.16 80.72 27.02 83.98 C 30.18 85.92 33.41 88.17 37.19 88.56 C 42.14 88.54 46.88 85.76 51.86 86.92 C 54.85 87.86 56.87 90.45 59.07 92.53 C 57.97 93.28 56.93 94.12 55.92 94.99 C 54.32 93.21 53.18 90.88 50.96 89.76 C 46.51 89.07 42.46 91.90 38.02 91.63 C 32.47 91.93 27.85 88.38 23.39 85.59 C 19.11 82.50 14.47 79.51 11.57 74.99 C 10.48 71.54 12.73 68.80 14.90 66.42 C 11.39 65.60 7.15 63.20 7.65 58.98 C 9.16 50.93 15.17 43.84 22.91 41.12 C 25.56 40.26 28.37 40.14 31.10 39.64 C 27.63 32.63 19.76 29.85 14.84 24.17 C 11.52 20.53 11.34 13.58 16.07 11.02 C 21.49 7.70 28.32 10.41 32.48 14.52 C 37.51 19.14 38.99 26.19 43.36 31.29 C 40.86 24.63 37.72 18.08 36.71 10.98 C 37.10 8.12 37.83 5.08 40.17 3.17 M 21.09 65.65 C 25.99 66.91 30.19 69.94 35.07 71.26 C 38.04 71.74 41.74 69.35 41.31 66.03 C 40.07 61.64 35.86 57.60 31.03 58.23 C 26.39 57.98 23.39 62.21 21.09 65.65 Z" />
</g>
<g id="#fedd76ff">
<path fill="#fedd76" opacity="1.00" d=" M 43.62 4.59 C 47.89 2.98 52.42 6.01 54.21 9.86 C 59.64 20.68 60.60 33.03 61.05 44.94 C 61.74 44.92 63.12 44.87 63.81 44.85 C 65.41 35.64 65.92 26.23 68.08 17.12 C 68.64 13.78 72.53 11.57 75.61 13.18 C 79.69 15.38 80.98 20.33 81.51 24.59 C 82.50 33.38 78.55 41.60 76.91 50.04 C 75.91 54.06 77.86 57.88 79.60 61.38 C 82.90 67.84 84.62 75.07 84.63 82.33 C 76.08 85.64 67.67 89.34 59.07 92.53 C 56.87 90.45 54.85 87.86 51.86 86.92 C 46.88 85.76 42.14 88.54 37.19 88.56 C 33.41 88.17 30.18 85.92 27.02 83.98 C 22.16 80.72 16.69 77.65 14.02 72.17 C 15.77 70.76 17.48 68.61 20.00 68.97 C 25.38 69.58 29.53 73.96 35.00 74.29 C 38.17 74.49 42.10 73.64 43.51 70.44 C 45.30 66.82 44.01 62.45 41.48 59.54 C 37.01 54.03 27.53 53.29 22.70 58.71 C 20.66 60.40 19.04 63.61 15.97 63.17 C 13.69 63.18 10.73 61.72 11.16 59.02 C 12.24 52.73 16.81 47.16 22.66 44.65 C 26.88 42.73 31.64 43.16 36.15 42.95 C 34.87 39.22 32.94 35.68 30.09 32.91 C 26.21 28.72 20.72 26.36 17.14 21.89 C 15.17 19.55 14.88 15.44 17.66 13.59 C 21.17 11.60 25.60 13.07 28.61 15.36 C 34.12 19.60 36.60 26.34 39.62 32.34 C 42.44 37.82 44.23 43.75 47.03 49.25 C 50.23 37.72 44.15 26.78 40.92 16.04 C 39.53 12.19 39.54 6.78 43.62 4.59 Z" />
</g>
</svg>
