<?xml version="1.0" encoding="UTF-8" ?>
<!DOCTYPE svg PUBLIC "-//W3C//DTD SVG 1.1//EN" "http://www.w3.org/Graphics/SVG/1.1/DTD/svg11.dtd">
<svg width="96pt" height="96pt" viewBox="0 0 96 96" version="1.1" xmlns="http://www.w3.org/2000/svg">
<g id="#f9b20eff">
<path fill="#f9b20e" opacity="1.00" d=" M 27.95 9.64 C 35.12 6.13 43.15 4.16 51.16 4.69 C 50.45 6.34 49.75 7.99 49.04 9.64 C 43.83 9.65 38.50 10.36 33.82 12.80 C 31.89 13.65 29.95 14.47 28.01 15.31 C 27.64 15.18 26.91 14.92 26.55 14.79 C 26.96 13.06 27.46 11.35 27.95 9.64 Z" />
</g>
<g id="#f9be0fff">
<path fill="#f9be0f" opacity="1.00" d=" M 51.16 4.69 C 58.60 5.68 65.95 7.95 72.21 12.19 L 72.17 12.27 C 71.36 13.79 70.54 15.30 69.73 16.82 C 65.68 14.18 61.15 12.34 56.51 11.03 C 54.06 10.36 51.56 9.91 49.04 9.64 C 49.75 7.99 50.45 6.34 51.16 4.69 Z" />
</g>
<g id="#f8a50dff">
<path fill="#f8a50d" opacity="1.00" d=" M 4.67 49.05 C 4.31 32.93 13.56 17.03 27.95 9.64 C 27.46 11.35 26.96 13.06 26.55 14.79 C 26.91 14.92 27.64 15.18 28.01 15.31 C 21.85 19.65 16.20 25.15 13.16 32.16 C 8.93 41.42 8.54 52.57 12.79 61.89 C 14.41 66.25 16.90 70.24 19.87 73.81 C 19.09 74.32 18.32 74.82 17.55 75.33 C 17.67 76.59 17.79 77.84 17.91 79.10 C 10.02 71.13 5.10 60.29 4.67 49.05 Z" />
</g>
<g id="#f0a02dff">
<path fill="#f0a02d" opacity="1.00" d=" M 33.82 12.80 C 38.50 10.36 43.83 9.65 49.04 9.64 C 51.56 9.91 54.06 10.36 56.51 11.03 C 55.81 11.17 54.41 11.46 53.71 11.60 C 47.68 10.91 41.60 11.50 35.86 13.50 C 35.04 13.73 33.42 14.19 32.61 14.42 L 33.82 12.80 Z" />
</g>
<g id="#f9bc0eff">
<path fill="#f9bc0e" opacity="1.00" d=" M 35.86 13.50 C 41.60 11.50 47.68 10.91 53.71 11.60 L 54.47 11.73 C 55.54 18.79 51.70 25.04 50.88 31.85 C 51.52 30.99 52.15 30.13 52.78 29.26 C 52.97 30.07 53.33 31.70 53.51 32.52 C 49.41 32.88 45.29 33.09 41.18 33.16 C 41.58 34.44 41.98 35.72 42.41 36.98 C 42.64 37.05 43.10 37.18 43.33 37.25 C 46.75 38.44 50.39 38.43 53.96 38.25 C 54.01 39.46 54.06 40.67 54.09 41.88 C 50.03 41.86 45.98 42.21 41.97 42.82 C 41.97 43.67 41.98 45.38 41.98 46.23 C 43.32 46.18 44.65 46.14 45.99 46.09 C 45.29 46.70 44.60 47.31 43.90 47.92 C 47.28 47.68 50.66 47.42 54.03 47.14 C 54.02 48.37 54.01 49.60 53.99 50.83 C 49.06 51.03 44.15 51.44 39.26 52.16 C 39.56 53.19 39.86 54.22 40.15 55.25 C 42.46 55.22 44.76 55.20 47.06 55.11 C 45.05 55.43 43.12 56.10 41.21 56.81 C 45.45 57.00 49.68 56.65 53.88 56.12 C 54.15 58.66 53.94 61.44 55.35 63.68 C 60.90 64.97 66.65 64.21 72.29 64.27 C 66.60 64.88 60.87 64.78 55.16 65.18 C 54.08 71.58 53.55 78.09 51.69 84.34 L 49.52 84.80 C 44.95 83.88 40.29 83.67 35.65 83.42 C 32.07 82.19 29.92 78.60 26.21 77.57 L 25.49 76.93 C 28.62 73.08 29.12 68.07 28.72 63.29 C 30.42 63.12 32.12 62.95 33.82 62.77 C 34.02 53.90 33.40 45.01 34.19 36.16 C 35.07 28.86 36.82 21.70 37.87 14.42 C 37.37 14.19 36.36 13.73 35.86 13.50 Z" />
</g>
<g id="#f7ca64ff">
<path fill="#f7ca64" opacity="1.00" d=" M 53.71 11.60 C 54.41 11.46 55.81 11.17 56.51 11.03 C 61.15 12.34 65.68 14.18 69.73 16.82 C 80.23 24.25 86.70 37.15 85.96 50.03 C 85.15 64.71 75.07 78.45 61.19 83.38 C 57.50 84.89 53.47 85.88 49.52 84.80 L 51.69 84.34 C 60.07 82.86 68.31 79.44 74.16 73.08 C 81.74 65.18 85.44 53.76 83.91 42.92 C 82.83 33.77 77.84 25.37 70.89 19.43 C 66.18 15.52 60.49 12.87 54.47 11.73 L 53.71 11.60 Z" />
</g>
<g id="#f8b40fff">
<path fill="#f8b40f" opacity="1.00" d=" M 54.47 11.73 C 60.49 12.87 66.18 15.52 70.89 19.43 C 69.61 23.13 66.52 28.66 71.09 31.39 C 65.23 31.66 59.37 32.07 53.51 32.52 C 53.33 31.70 52.97 30.07 52.78 29.26 C 52.15 30.13 51.52 30.99 50.88 31.85 C 51.70 25.04 55.54 18.79 54.47 11.73 Z" />
</g>
<g id="#ec8c18ff">
<path fill="#ec8c18" opacity="1.00" d=" M 28.01 15.31 C 29.95 14.47 31.89 13.65 33.82 12.80 L 32.61 14.42 C 26.22 18.23 20.04 22.84 16.42 29.52 C 13.68 34.28 12.07 39.64 11.31 45.06 C 10.63 49.97 12.19 54.75 12.99 59.54 L 12.79 61.89 C 8.54 52.57 8.93 41.42 13.16 32.16 C 16.20 25.15 21.85 19.65 28.01 15.31 Z" />
</g>
<g id="#fbce10ff">
<path fill="#fbce10" opacity="1.00" d=" M 69.73 16.82 C 70.54 15.30 71.36 13.79 72.17 12.27 C 79.34 17.31 85.80 24.03 89.08 32.25 C 89.88 38.47 91.68 44.65 91.06 50.97 C 90.17 62.41 84.69 73.51 75.81 80.85 C 70.22 85.58 63.37 88.69 56.24 90.24 C 53.72 90.14 51.21 89.89 48.70 89.67 C 48.28 88.57 47.86 87.46 47.45 86.36 C 43.47 85.56 39.49 84.71 35.65 83.42 C 40.29 83.67 44.95 83.88 49.52 84.80 C 53.47 85.88 57.50 84.89 61.19 83.38 C 75.07 78.45 85.15 64.71 85.96 50.03 C 86.70 37.15 80.23 24.25 69.73 16.82 Z" />
</g>
<g id="#f9ca10ff">
<path fill="#f9ca10" opacity="1.00" d=" M 32.61 14.42 C 33.42 14.19 35.04 13.73 35.86 13.50 C 36.36 13.73 37.37 14.19 37.87 14.42 C 36.82 21.70 35.07 28.86 34.19 36.16 C 33.57 35.97 32.32 35.59 31.70 35.39 C 27.32 35.72 22.86 36.77 19.20 39.29 C 19.12 40.79 19.94 42.07 20.74 43.26 C 21.33 43.45 22.51 43.83 23.10 44.02 C 24.14 43.81 25.17 43.56 26.20 43.29 C 26.21 49.19 26.21 55.09 26.27 60.99 C 27.93 61.05 29.59 61.10 31.26 61.14 C 30.40 61.47 29.55 61.79 28.68 62.11 C 28.69 62.40 28.71 63.00 28.72 63.29 C 29.12 68.07 28.62 73.08 25.49 76.93 C 20.10 72.13 15.81 66.19 12.99 59.54 C 12.19 54.75 10.63 49.97 11.31 45.06 C 12.07 39.64 13.68 34.28 16.42 29.52 C 20.04 22.84 26.22 18.23 32.61 14.42 Z" />
</g>
<g id="#f8a80eff">
<path fill="#f8a80e" opacity="1.00" d=" M 71.09 31.39 C 66.52 28.66 69.61 23.13 70.89 19.43 C 77.84 25.37 82.83 33.77 83.91 42.92 C 85.44 53.76 81.74 65.18 74.16 73.08 C 68.31 79.44 60.07 82.86 51.69 84.34 C 53.55 78.09 54.08 71.58 55.16 65.18 C 60.87 64.78 66.60 64.88 72.29 64.27 C 74.33 61.46 75.05 58.05 74.68 54.63 C 76.27 54.36 77.83 54.01 79.41 53.68 C 78.52 52.21 77.64 50.74 76.68 49.32 C 70.85 49.21 65.02 49.60 59.21 50.07 C 60.26 48.97 60.60 46.83 62.34 46.60 C 66.98 45.85 71.70 46.01 76.38 45.69 C 75.82 44.21 75.36 42.70 74.97 41.17 C 69.82 39.83 64.44 40.61 59.23 41.04 C 60.28 39.94 60.59 37.78 62.35 37.56 C 66.64 36.81 71.03 37.00 75.37 36.68 C 74.64 34.85 74.02 32.78 72.03 31.95 C 71.79 31.81 71.33 31.53 71.09 31.39 Z" />
</g>
<g id="#f8e817ff">
<path fill="#f8e817" opacity="1.00" d=" M 71.09 31.39 C 71.33 31.53 71.79 31.81 72.03 31.95 C 72.26 32.94 72.49 33.93 72.72 34.92 C 67.78 35.39 62.84 35.78 57.89 36.15 C 57.89 37.87 57.89 39.59 57.89 41.31 C 58.22 41.24 58.89 41.11 59.23 41.04 C 64.44 40.61 69.82 39.83 74.97 41.17 C 73.83 42.25 72.98 44.04 71.15 44.00 C 66.77 44.77 62.31 44.82 57.89 45.13 C 57.89 46.86 57.89 48.58 57.90 50.31 C 58.22 50.25 58.88 50.13 59.21 50.07 C 65.02 49.60 70.85 49.21 76.68 49.32 C 76.35 50.16 75.69 51.84 75.36 52.68 C 69.48 53.12 63.61 53.72 57.73 54.16 C 57.88 56.33 58.02 58.50 58.26 60.67 C 58.71 60.72 59.62 60.81 60.08 60.86 C 63.32 61.04 66.61 61.17 69.83 60.59 C 70.62 58.80 70.93 56.85 71.40 54.96 C 72.22 54.88 73.86 54.71 74.68 54.63 C 75.05 58.05 74.33 61.46 72.29 64.27 C 66.65 64.21 60.90 64.97 55.35 63.68 C 53.94 61.44 54.15 58.66 53.88 56.12 L 53.81 54.81 C 51.56 54.93 49.31 55.01 47.06 55.11 C 44.76 55.20 42.46 55.22 40.15 55.25 C 39.86 54.22 39.56 53.19 39.26 52.16 C 44.15 51.44 49.06 51.03 53.99 50.83 C 54.01 49.60 54.02 48.37 54.03 47.14 L 54.05 45.82 C 51.36 45.91 48.68 46.00 45.99 46.09 C 44.65 46.14 43.32 46.18 41.98 46.23 C 41.98 45.38 41.97 43.67 41.97 42.82 C 45.98 42.21 50.03 41.86 54.09 41.88 C 54.06 40.67 54.01 39.46 53.96 38.25 L 53.87 36.91 C 50.35 36.79 46.84 37.06 43.33 37.25 C 43.10 37.18 42.64 37.05 42.41 36.98 C 41.98 35.72 41.58 34.44 41.18 33.16 C 45.29 33.09 49.41 32.88 53.51 32.52 C 59.37 32.07 65.23 31.66 71.09 31.39 Z" />
<path fill="#f8e817" opacity="1.00" d=" M 19.20 39.29 C 22.86 36.77 27.32 35.72 31.70 35.39 C 31.19 43.97 31.93 52.58 31.26 61.14 C 29.59 61.10 27.93 61.05 26.27 60.99 C 26.21 55.09 26.21 49.19 26.20 43.29 C 26.21 42.64 26.24 41.34 26.26 40.69 C 24.41 41.53 22.57 42.39 20.74 43.26 C 19.94 42.07 19.12 40.79 19.20 39.29 Z" />
</g>
<g id="#e39212ff">
<path fill="#e39212" opacity="1.00" d=" M 72.03 31.95 C 74.02 32.78 74.64 34.85 75.37 36.68 C 71.03 37.00 66.64 36.81 62.35 37.56 C 60.59 37.78 60.28 39.94 59.23 41.04 C 58.89 41.11 58.22 41.24 57.89 41.31 C 57.89 39.59 57.89 37.87 57.89 36.15 C 62.84 35.78 67.78 35.39 72.72 34.92 C 72.49 33.93 72.26 32.94 72.03 31.95 Z" />
<path fill="#e39212" opacity="1.00" d=" M 31.70 35.39 C 32.32 35.59 33.57 35.97 34.19 36.16 C 33.40 45.01 34.02 53.90 33.82 62.77 C 32.12 62.95 30.42 63.12 28.72 63.29 C 28.71 63.00 28.69 62.40 28.68 62.11 C 29.55 61.79 30.40 61.47 31.26 61.14 C 31.93 52.58 31.19 43.97 31.70 35.39 Z" />
</g>
<g id="#de8a11fe">
<path fill="#de8a11" opacity="1.00" d=" M 89.08 32.25 C 93.82 40.98 93.90 51.64 91.76 61.15 C 88.10 75.59 76.28 87.53 61.96 91.55 C 52.29 93.94 41.44 93.89 32.48 89.20 C 40.32 90.46 48.36 92.38 56.24 90.24 C 63.37 88.69 70.22 85.58 75.81 80.85 C 84.69 73.51 90.17 62.41 91.06 50.97 C 91.68 44.65 89.88 38.47 89.08 32.25 Z" />
</g>
<g id="#e18e12ff">
<path fill="#e18e12" opacity="1.00" d=" M 43.33 37.25 C 46.84 37.06 50.35 36.79 53.87 36.91 L 53.96 38.25 C 50.39 38.43 46.75 38.44 43.33 37.25 Z" />
</g>
<g id="#e59912ff">
<path fill="#e59912" opacity="1.00" d=" M 20.74 43.26 C 22.57 42.39 24.41 41.53 26.26 40.69 C 26.24 41.34 26.21 42.64 26.20 43.29 C 25.17 43.56 24.14 43.81 23.10 44.02 C 22.51 43.83 21.33 43.45 20.74 43.26 Z" />
</g>
<g id="#e39112ff">
<path fill="#e39112" opacity="1.00" d=" M 74.97 41.17 C 75.36 42.70 75.82 44.21 76.38 45.69 C 71.70 46.01 66.98 45.85 62.34 46.60 C 60.60 46.83 60.26 48.97 59.21 50.07 C 58.88 50.13 58.22 50.25 57.90 50.31 C 57.89 48.58 57.89 46.86 57.89 45.13 C 62.31 44.82 66.77 44.77 71.15 44.00 C 72.98 44.04 73.83 42.25 74.97 41.17 Z" />
<path fill="#e39112" opacity="1.00" d=" M 47.06 55.11 C 49.31 55.01 51.56 54.93 53.81 54.81 L 53.88 56.12 C 49.68 56.65 45.45 57.00 41.21 56.81 C 43.12 56.10 45.05 55.43 47.06 55.11 Z" />
</g>
<g id="#e59611ff">
<path fill="#e59611" opacity="1.00" d=" M 45.99 46.09 C 48.68 46.00 51.36 45.91 54.05 45.82 L 54.03 47.14 C 50.66 47.42 47.28 47.68 43.90 47.92 C 44.60 47.31 45.29 46.70 45.99 46.09 Z" />
</g>
<g id="#e39312ff">
<path fill="#e39312" opacity="1.00" d=" M 76.68 49.32 C 77.64 50.74 78.52 52.21 79.41 53.68 C 77.83 54.01 76.27 54.36 74.68 54.63 C 73.86 54.71 72.22 54.88 71.40 54.96 C 67.73 55.19 64.05 55.45 60.40 55.84 C 60.29 57.51 60.18 59.18 60.08 60.86 C 59.62 60.81 58.71 60.72 58.26 60.67 C 58.02 58.50 57.88 56.33 57.73 54.16 C 63.61 53.72 69.48 53.12 75.36 52.68 C 75.69 51.84 76.35 50.16 76.68 49.32 Z" />
</g>
<g id="#f8ac0eff">
<path fill="#f8ac0e" opacity="1.00" d=" M 60.40 55.84 C 64.05 55.45 67.73 55.19 71.40 54.96 C 70.93 56.85 70.62 58.80 69.83 60.59 C 66.61 61.17 63.32 61.04 60.08 60.86 C 60.18 59.18 60.29 57.51 60.40 55.84 Z" />
</g>
<g id="#ef9a2aff">
<path fill="#ef9a2a" opacity="1.00" d=" M 12.99 59.54 C 15.81 66.19 20.10 72.13 25.49 76.93 L 26.21 77.57 C 23.75 76.99 21.47 75.80 19.87 73.81 C 16.90 70.24 14.41 66.25 12.79 61.89 L 12.99 59.54 Z" />
</g>
<g id="#f9b40fff">
<path fill="#f9b40f" opacity="1.00" d=" M 17.55 75.33 C 18.32 74.82 19.09 74.32 19.87 73.81 C 21.47 75.80 23.75 76.99 26.21 77.57 C 29.92 78.60 32.07 82.19 35.65 83.42 C 39.49 84.71 43.47 85.56 47.45 86.36 C 47.86 87.46 48.28 88.57 48.70 89.67 C 51.21 89.89 53.72 90.14 56.24 90.24 C 48.36 92.38 40.32 90.46 32.48 89.20 C 26.84 87.17 22.20 83.17 17.91 79.10 C 17.79 77.84 17.67 76.59 17.55 75.33 Z" />
</g>
</svg>
