<?xml version="1.0" encoding="UTF-8" ?>
<!DOCTYPE svg PUBLIC "-//W3C//DTD SVG 1.1//EN" "http://www.w3.org/Graphics/SVG/1.1/DTD/svg11.dtd">
<svg width="96pt" height="96pt" viewBox="0 0 96 96" version="1.1" xmlns="http://www.w3.org/2000/svg">
<g id="#f9b10eff">
<path fill="#f9b10e" opacity="1.00" d=" M 25.05 11.18 C 32.96 6.69 42.08 4.12 51.22 4.67 C 50.72 6.34 50.23 8.02 49.73 9.69 C 44.06 9.74 38.35 10.61 33.17 12.99 C 30.98 13.82 28.88 14.87 26.90 16.10 C 26.31 14.52 25.69 12.95 25.12 11.37 L 25.05 11.18 Z" />
</g>
<g id="#fabe0fff">
<path fill="#fabe0f" opacity="1.00" d=" M 51.22 4.67 C 59.02 5.78 66.78 8.18 73.18 12.92 C 72.84 14.82 72.50 16.72 72.16 18.62 C 69.30 16.48 66.22 14.62 62.92 13.23 C 58.79 11.22 54.34 9.89 49.73 9.69 C 50.23 8.02 50.72 6.34 51.22 4.67 Z" />
</g>
<g id="#f1a434ff">
<path fill="#f1a434" opacity="1.00" d=" M 33.17 12.99 C 38.35 10.61 44.06 9.74 49.73 9.69 C 54.34 9.89 58.79 11.22 62.92 13.23 C 62.31 13.25 61.09 13.29 60.49 13.30 C 54.90 12.35 49.29 10.40 43.56 11.56 C 40.91 12.12 38.27 12.77 35.59 13.25 C 34.99 13.18 33.78 13.05 33.17 12.99 Z" />
</g>
<g id="#f8b80eff">
<path fill="#f8b80e" opacity="1.00" d=" M 43.56 11.56 C 49.29 10.40 54.90 12.35 60.49 13.30 C 64.98 15.27 69.26 17.82 72.79 21.25 C 71.14 25.53 69.74 29.90 68.64 34.35 C 67.87 33.73 67.10 33.12 66.29 32.57 C 66.06 31.15 65.84 29.73 65.62 28.30 C 64.96 27.99 63.65 27.36 62.99 27.05 C 61.92 26.56 60.82 26.15 59.73 25.73 C 59.41 27.39 59.09 29.06 58.77 30.72 C 55.73 32.55 51.99 34.19 50.78 37.83 C 48.87 42.47 52.18 47.75 56.66 49.34 C 59.67 51.18 64.97 51.60 65.14 56.02 C 65.20 59.15 62.06 60.32 59.45 60.43 C 59.15 59.01 58.85 57.59 58.55 56.17 C 57.72 55.99 56.08 55.63 55.26 55.45 C 53.27 55.07 51.26 54.88 49.25 54.65 C 49.89 57.17 49.66 60.31 51.90 62.09 C 53.80 63.64 56.15 64.48 58.35 65.50 C 59.12 67.01 59.88 68.53 60.64 70.05 C 62.82 73.60 61.88 77.81 61.48 81.68 C 51.96 85.39 41.00 85.14 31.72 80.84 C 32.70 76.11 34.06 71.45 34.55 66.64 C 36.68 66.64 38.81 66.57 40.94 66.51 C 41.29 55.29 41.27 44.06 40.82 32.85 C 41.12 25.68 43.45 18.76 43.56 11.56 Z" />
</g>
<g id="#f8a50eff">
<path fill="#f8a50e" opacity="1.00" d=" M 4.72 50.04 C 4.06 34.78 11.93 19.25 25.12 11.37 C 25.69 12.95 26.31 14.52 26.90 16.10 C 18.01 22.32 11.34 31.99 10.18 42.93 C 9.66 49.25 9.34 56.38 13.68 61.56 C 16.78 67.04 20.65 72.00 24.82 76.70 L 25.91 77.89 C 23.60 76.59 21.22 75.42 18.87 74.19 C 18.42 75.71 17.97 77.22 17.53 78.74 C 10.11 71.01 5.39 60.75 4.72 50.04 Z" />
</g>
<g id="#f9c70fff">
<path fill="#f9c70f" opacity="1.00" d=" M 35.59 13.25 C 38.27 12.77 40.91 12.12 43.56 11.56 C 43.45 18.76 41.12 25.68 40.82 32.85 C 40.20 33.17 38.96 33.82 38.34 34.14 C 38.12 33.66 37.69 32.72 37.48 32.24 C 32.80 33.22 28.38 35.08 24.02 37.00 C 23.96 38.60 23.91 40.20 23.88 41.81 C 24.61 41.68 25.33 41.56 26.05 41.44 C 26.53 41.88 27.47 42.75 27.94 43.19 C 29.38 42.89 30.80 42.49 32.20 42.05 C 32.34 49.47 32.05 56.89 32.39 64.31 C 32.93 64.58 34.00 65.12 34.54 65.39 C 34.54 65.70 34.55 66.33 34.55 66.64 C 34.06 71.45 32.70 76.11 31.72 80.84 C 29.37 79.54 27.06 78.18 24.82 76.70 C 20.65 72.00 16.78 67.04 13.68 61.56 C 12.39 56.20 10.57 50.74 11.28 45.15 C 12.32 37.55 15.11 30.03 20.16 24.16 C 24.22 19.20 29.82 15.83 35.59 13.25 Z" />
</g>
<g id="#ec8c18ff">
<path fill="#ec8c18" opacity="1.00" d=" M 26.90 16.10 C 28.88 14.87 30.98 13.82 33.17 12.99 C 33.78 13.05 34.99 13.18 35.59 13.25 C 29.82 15.83 24.22 19.20 20.16 24.16 C 15.11 30.03 12.32 37.55 11.28 45.15 C 10.57 50.74 12.39 56.20 13.68 61.56 C 9.34 56.38 9.66 49.25 10.18 42.93 C 11.34 31.99 18.01 22.32 26.90 16.10 Z" />
</g>
<g id="#f7c65eff">
<path fill="#f7c65e" opacity="1.00" d=" M 60.49 13.30 C 61.09 13.29 62.31 13.25 62.92 13.23 C 66.22 14.62 69.30 16.48 72.16 18.62 C 79.94 25.15 84.98 34.79 85.92 44.89 C 86.66 52.75 84.47 60.68 80.51 67.43 C 74.28 77.85 62.84 84.95 50.70 85.72 C 41.87 86.20 32.67 83.75 25.91 77.89 L 24.82 76.70 C 27.06 78.18 29.37 79.54 31.72 80.84 C 41.00 85.14 51.96 85.39 61.48 81.68 C 71.79 77.48 79.95 68.46 82.87 57.70 C 86.58 44.88 82.53 30.36 72.79 21.25 C 69.26 17.82 64.98 15.27 60.49 13.30 Z" />
</g>
<g id="#fbce10ff">
<path fill="#fbce10" opacity="1.00" d=" M 73.18 12.92 C 79.75 17.93 85.93 24.22 88.93 32.03 C 89.88 38.31 91.65 44.59 91.03 51.00 C 90.08 63.13 83.93 74.86 74.14 82.18 C 68.88 86.20 62.65 88.84 56.20 90.26 C 54.26 90.11 52.32 89.88 50.38 89.66 C 50.49 88.35 50.59 87.03 50.70 85.72 C 62.84 84.95 74.28 77.85 80.51 67.43 C 84.47 60.68 86.66 52.75 85.92 44.89 C 84.98 34.79 79.94 25.15 72.16 18.62 C 72.50 16.72 72.84 14.82 73.18 12.92 Z" />
</g>
<g id="#f7a70eff">
<path fill="#f7a70e" opacity="1.00" d=" M 68.64 34.35 C 69.74 29.90 71.14 25.53 72.79 21.25 C 82.53 30.36 86.58 44.88 82.87 57.70 C 79.95 68.46 71.79 77.48 61.48 81.68 C 61.88 77.81 62.82 73.60 60.64 70.05 L 61.63 70.36 C 62.37 70.55 63.10 70.74 63.84 70.92 C 65.81 67.17 69.79 65.51 72.76 62.78 C 75.35 59.18 74.45 53.72 70.83 51.14 C 67.29 48.14 63.14 46.00 58.88 44.23 C 59.97 41.47 61.27 38.78 63.09 36.42 C 63.84 38.24 64.60 40.06 65.32 41.90 C 65.70 41.99 66.44 42.19 66.82 42.28 C 69.25 42.98 71.72 43.55 74.22 43.93 C 73.95 40.93 73.35 37.82 70.65 36.06 C 69.99 35.47 69.32 34.91 68.64 34.35 Z" />
</g>
<g id="#f8e817ff">
<path fill="#f8e817" opacity="1.00" d=" M 59.73 25.73 C 60.82 26.15 61.92 26.56 62.99 27.05 C 63.01 28.41 63.02 29.77 63.04 31.13 C 63.85 31.49 65.47 32.21 66.29 32.57 C 67.10 33.12 67.87 33.73 68.64 34.35 C 69.32 34.91 69.99 35.47 70.65 36.06 C 70.87 38.01 71.09 39.96 71.32 41.90 C 70.19 42.00 67.94 42.19 66.82 42.28 C 66.44 42.19 65.70 41.99 65.32 41.90 C 64.60 40.06 63.84 38.24 63.09 36.42 C 60.99 37.15 57.75 36.48 57.08 39.24 C 56.32 41.22 57.56 42.90 58.88 44.23 C 63.14 46.00 67.29 48.14 70.83 51.14 C 70.87 54.47 71.90 58.15 70.20 61.24 C 68.62 64.07 65.15 64.59 62.37 65.60 C 62.12 67.18 61.88 68.77 61.63 70.36 L 60.64 70.05 C 59.88 68.53 59.12 67.01 58.35 65.50 C 56.15 64.48 53.80 63.64 51.90 62.09 C 49.66 60.31 49.89 57.17 49.25 54.65 C 51.26 54.88 53.27 55.07 55.26 55.45 C 56.20 57.46 57.31 59.48 59.45 60.43 C 62.06 60.32 65.20 59.15 65.14 56.02 C 64.97 51.60 59.67 51.18 56.66 49.34 C 52.18 47.75 48.87 42.47 50.78 37.83 C 51.99 34.19 55.73 32.55 58.77 30.72 C 59.09 29.06 59.41 27.39 59.73 25.73 Z" />
<path fill="#f8e817" opacity="1.00" d=" M 24.02 37.00 C 28.38 35.08 32.80 33.22 37.48 32.24 C 37.69 32.72 38.12 33.66 38.34 34.14 C 38.56 44.42 38.37 54.72 38.39 65.01 C 37.43 65.11 35.50 65.29 34.54 65.39 C 34.00 65.12 32.93 64.58 32.39 64.31 C 32.05 56.89 32.34 49.47 32.20 42.05 C 32.21 41.46 32.24 40.30 32.25 39.72 C 30.19 40.31 28.13 40.90 26.05 41.44 C 25.33 41.56 24.61 41.68 23.88 41.81 C 23.91 40.20 23.96 38.60 24.02 37.00 Z" />
</g>
<g id="#e79a12ff">
<path fill="#e79a12" opacity="1.00" d=" M 62.99 27.05 C 63.65 27.36 64.96 27.99 65.62 28.30 C 65.84 29.73 66.06 31.15 66.29 32.57 C 65.47 32.21 63.85 31.49 63.04 31.13 C 63.02 29.77 63.01 28.41 62.99 27.05 Z" />
</g>
<g id="#e08b13ff">
<path fill="#e08b13" opacity="1.00" d=" M 40.82 32.85 C 41.27 44.06 41.29 55.29 40.94 66.51 C 38.81 66.57 36.68 66.64 34.55 66.64 C 34.55 66.33 34.54 65.70 34.54 65.39 C 35.50 65.29 37.43 65.11 38.39 65.01 C 38.37 54.72 38.56 44.42 38.34 34.14 C 38.96 33.82 40.20 33.17 40.82 32.85 Z" />
<path fill="#e08b13" opacity="1.00" d=" M 70.65 36.06 C 73.35 37.82 73.95 40.93 74.22 43.93 C 71.72 43.55 69.25 42.98 66.82 42.28 C 67.94 42.19 70.19 42.00 71.32 41.90 C 71.09 39.96 70.87 38.01 70.65 36.06 Z" />
<path fill="#e08b13" opacity="1.00" d=" M 70.83 51.14 C 74.45 53.72 75.35 59.18 72.76 62.78 C 69.79 65.51 65.81 67.17 63.84 70.92 C 63.10 70.74 62.37 70.55 61.63 70.36 C 61.88 68.77 62.12 67.18 62.37 65.60 C 65.15 64.59 68.62 64.07 70.20 61.24 C 71.90 58.15 70.87 54.47 70.83 51.14 Z" />
</g>
<g id="#e08b12ff">
<path fill="#e08b12" opacity="1.00" d=" M 88.93 32.03 C 93.96 41.00 93.93 52.08 91.58 61.86 C 88.61 72.38 81.47 81.66 72.03 87.18 C 60.28 94.18 44.86 95.21 32.49 89.28 C 40.35 90.15 48.32 92.41 56.20 90.26 C 62.65 88.84 68.88 86.20 74.14 82.18 C 83.93 74.86 90.08 63.13 91.03 51.00 C 91.65 44.59 89.88 38.31 88.93 32.03 Z" />
</g>
<g id="#e39112ff">
<path fill="#e39112" opacity="1.00" d=" M 57.08 39.24 C 57.75 36.48 60.99 37.15 63.09 36.42 C 61.27 38.78 59.97 41.47 58.88 44.23 C 57.56 42.90 56.32 41.22 57.08 39.24 Z" />
</g>
<g id="#e19012ff">
<path fill="#e19012" opacity="1.00" d=" M 26.05 41.44 C 28.13 40.90 30.19 40.31 32.25 39.72 C 32.24 40.30 32.21 41.46 32.20 42.05 C 30.80 42.49 29.38 42.89 27.94 43.19 C 27.47 42.75 26.53 41.88 26.05 41.44 Z" />
</g>
<g id="#e69811ff">
<path fill="#e69811" opacity="1.00" d=" M 55.26 55.45 C 56.08 55.63 57.72 55.99 58.55 56.17 C 58.85 57.59 59.15 59.01 59.45 60.43 C 57.31 59.48 56.20 57.46 55.26 55.45 Z" />
</g>
<g id="#fab40fff">
<path fill="#fab40f" opacity="1.00" d=" M 18.87 74.19 C 21.22 75.42 23.60 76.59 25.91 77.89 C 32.67 83.75 41.87 86.20 50.70 85.72 C 50.59 87.03 50.49 88.35 50.38 89.66 C 52.32 89.88 54.26 90.11 56.20 90.26 C 48.32 92.41 40.35 90.15 32.49 89.28 L 31.99 89.22 C 26.56 86.66 21.77 82.96 17.53 78.74 C 17.97 77.22 18.42 75.71 18.87 74.19 Z" />
</g>
</svg>
