<?xml version="1.0" encoding="UTF-8" ?>
<!DOCTYPE svg PUBLIC "-//W3C//DTD SVG 1.1//EN" "http://www.w3.org/Graphics/SVG/1.1/DTD/svg11.dtd">
<svg width="96pt" height="96pt" viewBox="0 0 96 96" version="1.1" xmlns="http://www.w3.org/2000/svg">
<g id="#f9b00fff">
<path fill="#f9b00f" opacity="1.00" d=" M 26.74 10.45 C 34.21 6.00 43.23 4.17 51.88 4.76 L 51.05 5.24 C 50.10 5.78 49.15 6.33 48.20 6.89 C 48.56 8.01 48.92 9.12 49.28 10.24 C 44.52 10.34 39.75 10.87 35.33 12.75 C 31.69 13.60 28.15 14.98 25.15 17.25 C 25.64 14.97 26.12 12.69 26.74 10.45 Z" />
</g>
<g id="#fabf10ff">
<path fill="#fabf10" opacity="1.00" d=" M 48.20 6.89 C 49.15 6.33 50.10 5.78 51.05 5.24 C 58.88 5.06 66.59 8.36 72.95 12.80 C 72.49 14.62 72.03 16.43 71.58 18.25 C 66.00 14.26 59.36 10.63 52.31 11.01 C 46.61 11.22 41.02 12.49 35.33 12.75 C 39.75 10.87 44.52 10.34 49.28 10.24 C 48.92 9.12 48.56 8.01 48.20 6.89 Z" />
</g>
<g id="#f8a60eff">
<path fill="#f8a60e" opacity="1.00" d=" M 6.18 58.62 C 0.97 40.43 10.06 19.34 26.74 10.45 C 26.12 12.69 25.64 14.97 25.15 17.25 C 19.06 22.43 13.79 28.84 11.56 36.65 C 9.08 44.44 9.25 53.12 12.13 60.78 C 12.53 62.16 13.76 62.95 14.79 63.82 C 17.49 67.44 19.83 71.36 23.11 74.50 C 24.15 75.57 25.20 76.61 26.32 77.59 L 26.09 78.38 C 25.19 79.50 24.24 80.57 23.29 81.65 C 24.30 83.07 25.31 84.51 26.34 85.92 C 16.63 79.70 9.00 69.89 6.18 58.62 Z" />
</g>
<g id="#f8be0fff">
<path fill="#f8be0f" opacity="1.00" d=" M 35.33 12.75 C 41.02 12.49 46.61 11.22 52.31 11.01 C 53.28 11.29 55.24 11.85 56.22 12.14 C 55.46 18.12 54.51 24.11 52.75 29.88 C 49.16 35.74 44.38 40.72 38.97 44.92 C 41.84 48.07 46.33 49.41 50.51 49.22 C 50.24 51.98 50.21 55.02 48.30 57.25 C 46.02 59.94 42.79 61.52 40.00 63.59 C 41.01 64.47 42.02 65.35 43.07 66.19 C 43.61 66.61 44.70 67.44 45.25 67.85 C 45.70 73.37 44.69 78.85 43.99 84.31 C 37.70 83.39 31.40 81.54 26.32 77.59 C 25.20 76.61 24.15 75.57 23.11 74.50 C 24.12 70.30 25.59 66.24 26.78 62.09 C 28.98 62.54 31.20 62.92 33.43 63.22 C 33.66 56.15 33.50 49.07 33.59 41.99 C 33.78 39.72 32.87 37.64 31.88 35.66 C 30.83 29.13 33.75 22.83 34.13 16.37 C 33.98 15.61 33.75 14.88 33.44 14.18 C 34.07 13.71 34.70 13.23 35.33 12.75 Z" />
</g>
<g id="#f8c65fff">
<path fill="#f8c65f" opacity="1.00" d=" M 52.31 11.01 C 59.36 10.63 66.00 14.26 71.58 18.25 C 80.79 25.50 86.46 37.24 86.02 49.00 C 86.03 56.26 83.30 63.35 79.34 69.36 C 73.97 77.50 65.19 82.90 55.82 85.22 C 51.07 85.81 46.23 85.88 41.48 85.30 C 35.94 84.13 30.64 81.75 26.09 78.38 L 26.32 77.59 C 31.40 81.54 37.70 83.39 43.99 84.31 C 49.95 85.36 55.94 83.53 61.57 81.71 C 71.99 77.40 80.42 68.14 83.06 57.10 C 86.74 44.50 82.35 30.20 72.83 21.32 C 68.25 16.80 62.42 13.72 56.22 12.14 C 55.24 11.85 53.28 11.29 52.31 11.01 Z" />
</g>
<g id="#f8b10fff">
<path fill="#f8b10f" opacity="1.00" d=" M 56.22 12.14 C 62.42 13.72 68.25 16.80 72.83 21.32 C 71.12 25.60 70.04 30.09 68.82 34.52 C 67.35 33.37 65.85 32.25 64.34 31.15 C 63.84 30.73 63.34 30.31 62.84 29.88 C 61.79 30.29 60.73 30.71 59.68 31.14 C 61.66 36.60 65.54 40.96 69.33 45.24 C 62.77 45.48 56.21 45.30 49.65 45.31 C 52.65 41.41 55.88 37.65 58.17 33.27 C 57.65 32.94 56.62 32.29 56.10 31.97 C 54.99 31.27 53.87 30.58 52.75 29.88 C 54.51 24.11 55.46 18.12 56.22 12.14 Z" />
<path fill="#f8b10f" opacity="1.00" d=" M 57.31 51.02 C 59.95 50.84 62.59 50.72 65.24 50.64 C 65.39 54.10 65.05 57.56 64.03 60.87 C 60.84 60.87 57.65 60.90 54.46 61.02 C 55.13 62.58 55.82 64.14 56.78 65.54 C 58.51 66.39 60.42 66.75 62.35 66.77 C 63.75 71.77 61.36 76.68 61.57 81.71 C 55.94 83.53 49.95 85.36 43.99 84.31 C 44.69 78.85 45.70 73.37 45.25 67.85 C 48.61 65.44 52.60 63.45 54.67 59.70 C 56.03 56.97 56.55 53.94 57.31 51.02 Z" />
</g>
<g id="#ed8c1aff">
<path fill="#ed8c1a" opacity="1.00" d=" M 25.15 17.25 C 28.15 14.98 31.69 13.60 35.33 12.75 C 34.70 13.23 34.07 13.71 33.44 14.18 C 26.62 17.83 20.17 22.61 16.43 29.56 C 13.38 34.85 11.74 40.93 11.17 46.99 C 10.97 52.81 13.07 58.36 14.79 63.82 C 13.76 62.95 12.53 62.16 12.13 60.78 C 9.25 53.12 9.08 44.44 11.56 36.65 C 13.79 28.84 19.06 22.43 25.15 17.25 Z" />
</g>
<g id="#fbce11ff">
<path fill="#fbce11" opacity="1.00" d=" M 72.95 12.80 C 79.84 17.85 86.08 24.48 89.19 32.52 C 89.30 35.73 90.09 38.85 90.72 41.99 C 93.10 57.75 85.70 74.59 72.40 83.41 C 67.42 86.99 61.52 88.97 55.63 90.46 C 55.69 88.71 55.76 86.96 55.82 85.22 C 65.19 82.90 73.97 77.50 79.34 69.36 C 83.30 63.35 86.03 56.26 86.02 49.00 C 86.46 37.24 80.79 25.50 71.58 18.25 C 72.03 16.43 72.49 14.62 72.95 12.80 Z" />
</g>
<g id="#f9cb10ff">
<path fill="#f9cb10" opacity="1.00" d=" M 16.43 29.56 C 20.17 22.61 26.62 17.83 33.44 14.18 C 33.75 14.88 33.98 15.61 34.13 16.37 C 33.75 22.83 30.83 29.13 31.88 35.66 C 27.46 35.65 23.40 37.54 19.38 39.15 C 19.69 40.59 19.98 42.07 20.79 43.34 C 22.58 43.76 24.39 44.10 26.20 44.44 C 26.15 50.34 26.14 56.23 26.78 62.09 C 25.59 66.24 24.12 70.30 23.11 74.50 C 19.83 71.36 17.49 67.44 14.79 63.82 C 13.07 58.36 10.97 52.81 11.17 46.99 C 11.74 40.93 13.38 34.85 16.43 29.56 Z" />
</g>
<g id="#f8a70eff">
<path fill="#f8a70e" opacity="1.00" d=" M 68.82 34.52 C 70.04 30.09 71.12 25.60 72.83 21.32 C 82.35 30.20 86.74 44.50 83.06 57.10 C 80.42 68.14 71.99 77.40 61.57 81.71 C 61.36 76.68 63.75 71.77 62.35 66.77 C 65.32 66.18 69.43 66.05 70.57 62.62 C 71.70 57.43 71.09 52.04 71.77 46.78 C 72.29 47.00 73.34 47.44 73.86 47.65 C 74.72 46.67 75.58 45.68 76.44 44.69 C 71.23 41.44 66.33 37.17 64.34 31.15 C 65.85 32.25 67.35 33.37 68.82 34.52 Z" />
</g>
<g id="#f8e817ff">
<path fill="#f8e817" opacity="1.00" d=" M 38.97 44.92 C 44.38 40.72 49.16 35.74 52.75 29.88 C 53.87 30.58 54.99 31.27 56.10 31.97 C 53.24 36.99 49.39 41.33 45.30 45.38 C 46.75 45.35 48.20 45.33 49.65 45.31 C 56.21 45.30 62.77 45.48 69.33 45.24 C 65.54 40.96 61.66 36.60 59.68 31.14 C 60.73 30.71 61.79 30.29 62.84 29.88 C 63.34 30.31 63.84 30.73 64.34 31.15 C 66.33 37.17 71.23 41.44 76.44 44.69 C 75.58 45.68 74.72 46.67 73.86 47.65 C 73.34 47.44 72.29 47.00 71.77 46.78 C 71.32 46.59 70.41 46.21 69.96 46.03 C 69.00 49.98 68.98 54.05 68.95 58.09 C 69.00 60.58 67.77 63.39 65.37 64.40 C 62.57 65.14 59.64 65.15 56.78 65.54 C 55.82 64.14 55.13 62.58 54.46 61.02 C 57.65 60.90 60.84 60.87 64.03 60.87 C 65.05 57.56 65.39 54.10 65.24 50.64 L 65.22 49.48 C 61.88 49.41 58.54 49.41 55.19 49.48 C 54.39 52.46 53.88 55.57 52.47 58.34 C 50.40 62.02 46.62 64.18 43.07 66.19 C 42.02 65.35 41.01 64.47 40.00 63.59 C 42.79 61.52 46.02 59.94 48.30 57.25 C 50.21 55.02 50.24 51.98 50.51 49.22 C 46.33 49.41 41.84 48.07 38.97 44.92 Z" />
<path fill="#f8e817" opacity="1.00" d=" M 19.38 39.15 C 23.40 37.54 27.46 35.65 31.88 35.66 C 31.21 44.17 31.74 52.72 31.54 61.25 C 29.95 61.52 28.36 61.80 26.78 62.09 C 26.14 56.23 26.15 50.34 26.20 44.44 C 26.19 43.57 26.16 41.83 26.14 40.96 C 24.35 41.74 22.57 42.53 20.79 43.34 C 19.98 42.07 19.69 40.59 19.38 39.15 Z" />
</g>
<g id="#e49412ff">
<path fill="#e49412" opacity="1.00" d=" M 56.10 31.97 C 56.62 32.29 57.65 32.94 58.17 33.27 C 55.88 37.65 52.65 41.41 49.65 45.31 C 48.20 45.33 46.75 45.35 45.30 45.38 C 49.39 41.33 53.24 36.99 56.10 31.97 Z" />
<path fill="#e49412" opacity="1.00" d=" M 55.19 49.48 C 58.54 49.41 61.88 49.41 65.22 49.48 L 65.24 50.64 C 62.59 50.72 59.95 50.84 57.31 51.02 C 56.55 53.94 56.03 56.97 54.67 59.70 C 52.60 63.45 48.61 65.44 45.25 67.85 C 44.70 67.44 43.61 66.61 43.07 66.19 C 46.62 64.18 50.40 62.02 52.47 58.34 C 53.88 55.57 54.39 52.46 55.19 49.48 Z" />
</g>
<g id="#e08b13ff">
<path fill="#e08b13" opacity="1.00" d=" M 89.19 32.52 C 93.89 41.13 93.85 51.68 91.81 61.07 C 88.88 72.33 81.14 82.25 70.93 87.84 C 57.78 95.13 40.54 95.00 27.79 86.88 C 32.94 87.86 37.72 90.31 42.95 90.87 C 47.16 91.32 51.46 91.28 55.63 90.46 C 61.52 88.97 67.42 86.99 72.40 83.41 C 85.70 74.59 93.10 57.75 90.72 41.99 C 90.09 38.85 89.30 35.73 89.19 32.52 Z" />
<path fill="#e08b13" opacity="1.00" d=" M 31.88 35.66 C 32.87 37.64 33.78 39.72 33.59 41.99 C 33.50 49.07 33.66 56.15 33.43 63.22 C 31.20 62.92 28.98 62.54 26.78 62.09 C 28.36 61.80 29.95 61.52 31.54 61.25 C 31.74 52.72 31.21 44.17 31.88 35.66 Z" />
</g>
<g id="#e59a12ff">
<path fill="#e59a12" opacity="1.00" d=" M 20.79 43.34 C 22.57 42.53 24.35 41.74 26.14 40.96 C 26.16 41.83 26.19 43.57 26.20 44.44 C 24.39 44.10 22.58 43.76 20.79 43.34 Z" />
</g>
<g id="#e39212ff">
<path fill="#e39212" opacity="1.00" d=" M 69.96 46.03 C 70.41 46.21 71.32 46.59 71.77 46.78 C 71.09 52.04 71.70 57.43 70.57 62.62 C 69.43 66.05 65.32 66.18 62.35 66.77 C 60.42 66.75 58.51 66.39 56.78 65.54 C 59.64 65.15 62.57 65.14 65.37 64.40 C 67.77 63.39 69.00 60.58 68.95 58.09 C 68.98 54.05 69.00 49.98 69.96 46.03 Z" />
</g>
<g id="#faba0fff">
<path fill="#faba0f" opacity="1.00" d=" M 23.29 81.65 C 24.24 80.57 25.19 79.50 26.09 78.38 C 30.64 81.75 35.94 84.13 41.48 85.30 C 46.23 85.88 51.07 85.81 55.82 85.22 C 55.76 86.96 55.69 88.71 55.63 90.46 C 51.46 91.28 47.16 91.32 42.95 90.87 C 37.72 90.31 32.94 87.86 27.79 86.88 L 26.90 86.68 L 26.34 85.92 C 25.31 84.51 24.30 83.07 23.29 81.65 Z" />
</g>
</svg>
