<?xml version="1.0" encoding="UTF-8" ?>
<!DOCTYPE svg PUBLIC "-//W3C//DTD SVG 1.1//EN" "http://www.w3.org/Graphics/SVG/1.1/DTD/svg11.dtd">
<svg width="96pt" height="96pt" viewBox="0 0 96 96" version="1.1" xmlns="http://www.w3.org/2000/svg">
<g id="#f9b20eff">
<path fill="#f9b20e" opacity="1.00" d=" M 28.92 9.17 C 35.73 5.95 43.30 4.37 50.84 4.56 L 50.73 5.09 C 50.43 6.60 50.12 8.11 49.82 9.61 C 44.59 9.59 39.29 10.28 34.44 12.35 C 32.94 12.96 31.44 13.62 29.98 14.34 C 29.63 12.62 29.28 10.89 28.92 9.17 Z" />
</g>
<g id="#f9bf0fff">
<path fill="#f9bf0f" opacity="1.00" d=" M 50.73 5.09 C 59.01 5.12 66.96 8.55 73.70 13.21 L 73.68 13.42 C 73.50 15.44 73.31 17.46 73.13 19.48 C 68.36 15.39 62.55 12.73 56.56 11.00 C 54.35 10.36 52.10 9.91 49.82 9.61 C 50.12 8.11 50.43 6.60 50.73 5.09 Z" />
</g>
<g id="#f8a60dff">
<path fill="#f8a60d" opacity="1.00" d=" M 5.01 52.88 C 2.75 35.21 12.86 16.86 28.92 9.17 C 29.28 10.89 29.63 12.62 29.98 14.34 C 22.12 18.79 15.42 25.76 12.27 34.32 C 8.15 44.60 9.22 56.68 14.63 66.28 C 15.48 67.78 16.85 68.88 18.11 70.03 C 19.76 73.67 22.75 76.39 25.90 78.74 C 24.97 79.70 24.04 80.67 23.11 81.63 C 23.99 82.93 24.84 84.24 25.76 85.51 C 14.61 78.28 6.63 66.13 5.01 52.88 Z" />
</g>
<g id="#f0a12eff">
<path fill="#f0a12e" opacity="1.00" d=" M 34.44 12.35 C 39.29 10.28 44.59 9.59 49.82 9.61 C 52.10 9.91 54.35 10.36 56.56 11.00 C 55.86 11.15 54.45 11.46 53.75 11.62 C 50.45 11.35 47.12 11.14 43.84 11.64 C 40.79 12.08 37.81 12.87 34.89 13.81 L 34.44 12.35 Z" />
</g>
<g id="#f8b80eff">
<path fill="#f8b80e" opacity="1.00" d=" M 43.84 11.64 C 47.12 11.14 50.45 11.35 53.75 11.62 C 58.97 12.48 63.97 14.48 68.32 17.51 C 68.61 22.04 68.38 26.59 68.58 31.13 C 64.62 31.06 60.17 31.27 57.08 34.10 C 54.49 36.22 53.53 39.55 52.45 42.57 C 51.21 43.07 49.98 43.57 48.75 44.07 C 48.86 44.68 49.08 45.91 49.19 46.53 C 50.41 46.51 51.63 46.49 52.85 46.48 C 52.85 47.05 52.83 48.21 52.83 48.79 C 51.62 49.08 50.42 49.38 49.22 49.70 C 49.13 50.72 49.02 51.75 48.89 52.77 C 50.14 52.94 51.38 53.12 52.63 53.30 C 53.36 56.01 53.74 59.04 55.73 61.18 C 57.40 62.85 59.54 63.92 61.59 65.04 C 61.40 65.09 61.01 65.19 60.81 65.24 C 60.84 70.41 59.64 75.52 56.98 79.97 C 57.65 80.85 58.31 81.73 58.98 82.61 C 56.14 83.45 53.21 83.93 50.28 84.30 C 44.68 83.97 38.98 83.59 33.76 81.33 C 36.11 76.95 37.04 72.04 38.03 67.22 C 38.74 67.03 40.17 66.65 40.88 66.45 C 41.66 55.21 40.57 43.92 41.45 32.69 C 42.15 35.77 42.50 38.92 42.47 42.08 C 42.96 37.25 43.34 32.37 44.75 27.69 C 46.23 22.73 46.37 17.53 46.88 12.42 C 46.12 12.22 44.60 11.83 43.84 11.64 Z" />
</g>
<g id="#f8ca64ff">
<path fill="#f8ca64" opacity="1.00" d=" M 53.75 11.62 C 54.45 11.46 55.86 11.15 56.56 11.00 C 62.55 12.73 68.36 15.39 73.13 19.48 C 82.50 27.94 87.63 41.11 85.57 53.67 C 83.23 68.68 71.31 81.54 56.46 84.88 C 55.85 85.00 54.63 85.26 54.02 85.39 C 52.77 85.03 51.52 84.66 50.28 84.30 C 53.21 83.93 56.14 83.45 58.98 82.61 C 66.72 80.01 73.68 74.94 78.14 68.06 C 83.99 59.36 85.75 48.09 82.92 38.00 C 80.76 29.68 75.25 22.49 68.32 17.51 C 63.97 14.48 58.97 12.48 53.75 11.62 Z" />
</g>
<g id="#f9c80fff">
<path fill="#f9c80f" opacity="1.00" d=" M 34.89 13.81 C 37.81 12.87 40.79 12.08 43.84 11.64 C 44.60 11.83 46.12 12.22 46.88 12.42 C 46.37 17.53 46.23 22.73 44.75 27.69 C 43.34 32.37 42.96 37.25 42.47 42.08 C 42.50 38.92 42.15 35.77 41.45 32.69 C 40.77 32.96 39.42 33.49 38.74 33.76 C 38.69 33.14 38.59 31.92 38.53 31.30 C 34.12 33.01 29.48 34.16 25.24 36.26 C 24.59 37.94 24.64 40.01 26.04 41.30 C 26.44 41.74 27.24 42.63 27.64 43.07 C 29.17 42.80 30.69 42.46 32.19 42.08 C 32.26 49.47 32.24 56.86 32.27 64.26 C 34.45 64.14 36.64 64.11 38.82 64.06 L 38.60 64.15 C 37.06 64.77 35.49 65.31 33.94 65.90 C 35.31 66.33 36.67 66.77 38.03 67.22 C 37.04 72.04 36.11 76.95 33.76 81.33 C 27.61 79.00 23.02 74.19 18.11 70.03 C 13.50 61.22 9.26 51.08 12.06 41.02 C 14.44 28.84 23.23 18.16 34.89 13.81 Z" />
</g>
<g id="#ec8e1aff">
<path fill="#ec8e1a" opacity="1.00" d=" M 29.98 14.34 C 31.44 13.62 32.94 12.96 34.44 12.35 L 34.89 13.81 C 23.23 18.16 14.44 28.84 12.06 41.02 C 9.26 51.08 13.50 61.22 18.11 70.03 C 16.85 68.88 15.48 67.78 14.63 66.28 C 9.22 56.68 8.15 44.60 12.27 34.32 C 15.42 25.76 22.12 18.79 29.98 14.34 Z" />
</g>
<g id="#fbcf10ff">
<path fill="#fbcf10" opacity="1.00" d=" M 73.13 19.48 C 73.31 17.46 73.50 15.44 73.68 13.42 C 80.25 18.23 86.03 24.66 89.09 32.26 C 89.59 37.54 91.26 42.68 91.14 48.02 C 91.09 61.42 84.51 74.72 73.58 82.55 C 68.25 86.59 61.89 89.01 55.41 90.48 C 55.56 88.58 55.88 86.69 56.46 84.88 C 71.31 81.54 83.23 68.68 85.57 53.67 C 87.63 41.11 82.50 27.94 73.13 19.48 Z" />
</g>
<g id="#f7a80eff">
<path fill="#f7a80e" opacity="1.00" d=" M 68.32 17.51 C 75.25 22.49 80.76 29.68 82.92 38.00 C 85.75 48.09 83.99 59.36 78.14 68.06 C 73.68 74.94 66.72 80.01 58.98 82.61 C 58.31 81.73 57.65 80.85 56.98 79.97 C 59.64 75.52 60.84 70.41 60.81 65.24 C 61.01 65.19 61.40 65.09 61.59 65.04 C 65.29 67.34 69.64 67.16 73.81 66.79 C 73.79 64.94 73.77 63.09 73.76 61.24 C 73.07 61.33 72.38 61.41 71.69 61.49 C 69.68 58.54 65.87 59.70 62.88 59.36 C 62.66 57.97 62.43 56.58 62.20 55.19 C 64.80 55.07 67.40 54.95 70.00 54.83 C 69.93 53.69 69.88 52.55 69.85 51.41 C 69.37 51.19 68.41 50.75 67.93 50.52 C 66.26 49.80 64.49 49.38 62.71 49.07 C 65.10 48.75 67.48 48.29 69.85 47.84 C 69.84 47.23 69.83 46.02 69.82 45.41 C 69.41 45.21 68.59 44.82 68.18 44.63 C 66.38 43.61 64.35 43.22 62.31 43.18 C 63.49 41.48 64.33 39.11 66.57 38.54 C 68.96 37.98 71.43 38.40 73.84 38.51 C 73.71 36.24 74.30 33.35 71.70 32.27 C 70.67 31.85 69.63 31.47 68.58 31.13 C 68.38 26.59 68.61 22.04 68.32 17.51 Z" />
</g>
<g id="#f8e817ff">
<path fill="#f8e817" opacity="1.00" d=" M 25.24 36.26 C 29.48 34.16 34.12 33.01 38.53 31.30 C 38.59 31.92 38.69 33.14 38.74 33.76 C 39.04 43.85 38.92 53.96 38.82 64.06 C 36.64 64.11 34.45 64.14 32.27 64.26 C 32.24 56.86 32.26 49.47 32.19 42.08 C 32.20 41.43 32.23 40.14 32.24 39.49 C 30.18 40.12 28.12 40.75 26.04 41.30 C 24.64 40.01 24.59 37.94 25.24 36.26 Z" />
<path fill="#f8e817" opacity="1.00" d=" M 57.08 34.10 C 60.17 31.27 64.62 31.06 68.58 31.13 C 69.63 31.47 70.67 31.85 71.70 32.27 C 71.32 33.74 70.94 35.21 70.56 36.68 C 68.13 36.80 65.66 36.76 63.27 37.31 C 60.74 38.15 60.23 41.10 59.27 43.23 C 60.03 43.21 61.55 43.19 62.31 43.18 C 64.35 43.22 66.38 43.61 68.18 44.63 C 65.89 47.10 62.42 46.25 59.48 46.86 C 59.28 47.52 58.88 48.84 58.68 49.50 C 60.02 49.35 61.36 49.21 62.71 49.07 C 64.49 49.38 66.26 49.80 67.93 50.52 C 66.52 54.28 62.16 52.85 59.10 53.25 C 59.90 55.54 60.74 57.97 62.88 59.36 C 65.87 59.70 69.68 58.54 71.69 61.49 C 71.41 62.38 70.84 64.14 70.56 65.03 C 67.57 65.14 64.58 65.19 61.59 65.04 C 59.54 63.92 57.40 62.85 55.73 61.18 C 53.74 59.04 53.36 56.01 52.63 53.30 C 51.38 53.12 50.14 52.94 48.89 52.77 C 49.02 51.75 49.13 50.72 49.22 49.70 C 50.42 49.38 51.62 49.08 52.83 48.79 C 52.83 48.21 52.85 47.05 52.85 46.48 C 51.63 46.49 50.41 46.51 49.19 46.53 C 49.08 45.91 48.86 44.68 48.75 44.07 C 49.98 43.57 51.21 43.07 52.45 42.57 C 53.53 39.55 54.49 36.22 57.08 34.10 Z" />
</g>
<g id="#e18d11ff">
<path fill="#e18d11" opacity="1.00" d=" M 38.74 33.76 C 39.42 33.49 40.77 32.96 41.45 32.69 C 40.57 43.92 41.66 55.21 40.88 66.45 C 40.17 66.65 38.74 67.03 38.03 67.22 C 36.67 66.77 35.31 66.33 33.94 65.90 C 35.49 65.31 37.06 64.77 38.60 64.15 L 38.82 64.06 C 38.92 53.96 39.04 43.85 38.74 33.76 Z" />
</g>
<g id="#e08b12ff">
<path fill="#e08b12" opacity="1.00" d=" M 71.70 32.27 C 74.30 33.35 73.71 36.24 73.84 38.51 C 71.43 38.40 68.96 37.98 66.57 38.54 C 64.33 39.11 63.49 41.48 62.31 43.18 C 61.55 43.19 60.03 43.21 59.27 43.23 C 60.23 41.10 60.74 38.15 63.27 37.31 C 65.66 36.76 68.13 36.80 70.56 36.68 C 70.94 35.21 71.32 33.74 71.70 32.27 Z" />
<path fill="#e08b12" opacity="1.00" d=" M 71.69 61.49 C 72.38 61.41 73.07 61.33 73.76 61.24 C 73.77 63.09 73.79 64.94 73.81 66.79 C 69.64 67.16 65.29 67.34 61.59 65.04 C 64.58 65.19 67.57 65.14 70.56 65.03 C 70.84 64.14 71.41 62.38 71.69 61.49 Z" />
</g>
<g id="#df8a12fe">
<path fill="#df8a12" opacity="1.00" d=" M 89.09 32.26 C 93.95 41.22 93.91 52.16 91.61 61.88 C 88.32 73.26 80.24 83.24 69.59 88.50 C 59.36 93.90 47.00 94.32 36.06 90.95 C 34.81 90.49 33.64 89.82 32.48 89.17 C 40.09 90.12 47.73 92.35 55.41 90.48 C 61.89 89.01 68.25 86.59 73.58 82.55 C 84.51 74.72 91.09 61.42 91.14 48.02 C 91.26 42.68 89.59 37.54 89.09 32.26 Z" />
</g>
<g id="#e28f12ff">
<path fill="#e28f12" opacity="1.00" d=" M 26.04 41.30 C 28.12 40.75 30.18 40.12 32.24 39.49 C 32.23 40.14 32.20 41.43 32.19 42.08 C 30.69 42.46 29.17 42.80 27.64 43.07 C 27.24 42.63 26.44 41.74 26.04 41.30 Z" />
</g>
<g id="#e18e12ff">
<path fill="#e18e12" opacity="1.00" d=" M 68.18 44.63 C 68.59 44.82 69.41 45.21 69.82 45.41 C 69.83 46.02 69.84 47.23 69.85 47.84 C 67.48 48.29 65.10 48.75 62.71 49.07 C 61.36 49.21 60.02 49.35 58.68 49.50 C 58.88 48.84 59.28 47.52 59.48 46.86 C 62.42 46.25 65.89 47.10 68.18 44.63 Z" />
</g>
<g id="#e39211ff">
<path fill="#e39211" opacity="1.00" d=" M 67.93 50.52 C 68.41 50.75 69.37 51.19 69.85 51.41 C 69.88 52.55 69.93 53.69 70.00 54.83 C 67.40 54.95 64.80 55.07 62.20 55.19 C 62.43 56.58 62.66 57.97 62.88 59.36 C 60.74 57.97 59.90 55.54 59.10 53.25 C 62.16 52.85 66.52 54.28 67.93 50.52 Z" />
</g>
<g id="#f3af3fff">
<path fill="#f3af3f" opacity="1.00" d=" M 18.11 70.03 C 23.02 74.19 27.61 79.00 33.76 81.33 C 38.98 83.59 44.68 83.97 50.28 84.30 C 51.52 84.66 52.77 85.03 54.02 85.39 C 44.26 87.38 33.87 84.54 25.90 78.74 C 22.75 76.39 19.76 73.67 18.11 70.03 Z" />
</g>
<g id="#f9ba0fff">
<path fill="#f9ba0f" opacity="1.00" d=" M 23.11 81.63 C 24.04 80.67 24.97 79.70 25.90 78.74 C 33.87 84.54 44.26 87.38 54.02 85.39 C 54.63 85.26 55.85 85.00 56.46 84.88 C 55.88 86.69 55.56 88.58 55.41 90.48 C 47.73 92.35 40.09 90.12 32.48 89.17 C 30.03 88.44 27.71 87.15 25.76 85.51 C 24.84 84.24 23.99 82.93 23.11 81.63 Z" />
</g>
</svg>
