<?xml version="1.0" encoding="UTF-8" ?>
<!DOCTYPE svg PUBLIC "-//W3C//DTD SVG 1.1//EN" "http://www.w3.org/Graphics/SVG/1.1/DTD/svg11.dtd">
<svg width="96pt" height="96pt" viewBox="0 0 96 96" version="1.1" xmlns="http://www.w3.org/2000/svg">
<g id="#f9b80fff">
<path fill="#f9b80f" opacity="1.00" d=" M 37.58 6.09 C 48.10 3.02 59.65 5.15 69.15 10.32 C 67.92 11.65 66.69 12.99 65.46 14.32 C 62.55 13.03 59.53 12.01 56.50 11.08 C 49.65 8.82 42.18 9.54 35.45 11.84 C 34.88 11.84 33.75 11.85 33.19 11.85 C 34.74 10.00 36.23 8.09 37.58 6.09 Z" />
</g>
<g id="#f8a60eff">
<path fill="#f8a60e" opacity="1.00" d=" M 5.02 43.06 C 6.90 25.58 20.35 9.99 37.58 6.09 C 36.23 8.09 34.74 10.00 33.19 11.85 C 33.75 11.85 34.88 11.84 35.45 11.84 L 34.90 12.40 C 20.42 17.19 9.83 31.72 9.82 46.99 C 9.65 55.05 12.06 63.24 17.08 69.61 C 18.79 72.08 20.74 74.38 22.90 76.46 C 21.94 78.02 20.99 79.58 20.03 81.15 C 9.50 71.70 3.18 57.26 5.02 43.06 Z" />
</g>
<g id="#f0a12fff">
<path fill="#f0a12f" opacity="1.00" d=" M 35.45 11.84 C 42.18 9.54 49.65 8.82 56.50 11.08 C 55.82 11.23 54.47 11.54 53.79 11.70 C 53.47 11.67 52.81 11.62 52.48 11.60 C 46.27 10.63 40.12 12.07 34.18 13.78 L 34.90 12.40 L 35.45 11.84 Z" />
</g>
<g id="#f8bf0fff">
<path fill="#f8bf0f" opacity="1.00" d=" M 34.18 13.78 C 40.12 12.07 46.27 10.63 52.48 11.60 C 51.53 17.86 49.99 24.02 49.33 30.33 C 48.93 33.31 48.62 36.30 48.39 39.30 C 48.15 36.22 48.02 33.13 48.01 30.04 C 46.78 30.05 45.56 30.06 44.34 30.07 C 44.26 32.93 44.18 35.79 44.07 38.65 C 42.70 38.89 41.33 39.13 39.96 39.37 C 39.97 40.41 39.99 41.46 40.01 42.50 C 41.40 42.69 42.79 42.88 44.18 43.07 C 44.24 46.97 44.70 50.94 43.95 54.80 C 43.01 56.22 41.02 56.53 39.63 57.42 C 39.99 58.77 40.38 60.13 41.03 61.38 L 42.52 62.08 C 42.63 69.21 41.10 76.29 39.61 83.24 C 33.64 81.82 27.98 79.03 23.45 74.88 C 25.46 71.04 25.57 66.60 27.00 62.55 L 28.36 62.50 C 30.22 62.63 32.07 62.85 33.93 63.06 C 34.02 54.18 34.01 45.30 33.86 36.43 C 33.35 36.47 32.33 36.57 31.82 36.61 C 31.92 31.66 32.67 26.76 33.84 21.96 C 34.22 19.44 35.55 16.33 33.28 14.30 C 33.51 14.17 33.96 13.91 34.18 13.78 Z" />
</g>
<g id="#f8ca64ff">
<path fill="#f8ca64" opacity="1.00" d=" M 53.79 11.70 C 54.47 11.54 55.82 11.23 56.50 11.08 C 59.53 12.01 62.55 13.03 65.46 14.32 C 76.64 20.00 84.35 31.54 85.81 43.94 C 87.66 59.78 78.15 76.05 63.58 82.43 C 60.53 83.71 57.36 84.67 54.17 85.50 C 52.89 85.04 51.60 84.59 50.31 84.17 C 53.14 83.92 55.96 83.49 58.69 82.70 C 66.29 80.22 73.19 75.37 77.70 68.71 C 83.91 59.94 85.80 48.34 82.92 38.01 C 80.67 29.54 75.07 22.11 67.84 17.21 C 63.65 14.33 58.85 12.36 53.79 11.70 Z" />
</g>
<g id="#fbce10ff">
<path fill="#fbce10" opacity="1.00" d=" M 65.46 14.32 C 66.69 12.99 67.92 11.65 69.15 10.32 C 77.69 15.54 85.40 23.02 89.14 32.42 C 89.47 37.01 90.95 41.44 91.12 46.05 C 91.77 60.57 84.57 75.27 72.45 83.38 C 67.55 86.86 61.83 88.91 56.05 90.36 C 55.42 90.11 54.16 89.62 53.52 89.37 C 53.23 88.19 52.94 87.02 52.65 85.84 C 53.03 85.76 53.79 85.59 54.17 85.50 C 57.36 84.67 60.53 83.71 63.58 82.43 C 78.15 76.05 87.66 59.78 85.81 43.94 C 84.35 31.54 76.64 20.00 65.46 14.32 Z" />
</g>
<g id="#f8b60eff">
<path fill="#f8b60e" opacity="1.00" d=" M 52.48 11.60 C 52.81 11.62 53.47 11.67 53.79 11.70 C 58.85 12.36 63.65 14.33 67.84 17.21 C 66.38 20.65 66.20 24.39 66.23 28.08 C 65.63 28.77 65.04 29.47 64.47 30.18 C 62.76 30.15 61.06 30.12 59.35 30.10 C 59.25 31.99 59.14 33.89 59.04 35.79 C 57.26 35.96 55.48 36.13 53.70 36.30 C 53.40 36.94 52.80 38.21 52.51 38.85 C 51.97 38.91 50.91 39.02 50.38 39.08 C 50.38 36.13 50.02 33.20 49.33 30.33 C 49.99 24.02 51.53 17.86 52.48 11.60 Z" />
</g>
<g id="#ec8d19ff">
<path fill="#ec8d19" opacity="1.00" d=" M 9.82 46.99 C 9.83 31.72 20.42 17.19 34.90 12.40 L 34.18 13.78 C 33.96 13.91 33.51 14.17 33.28 14.30 C 22.79 19.17 14.66 28.80 12.27 40.19 C 9.37 49.58 12.70 59.37 16.95 67.77 L 17.08 69.61 C 12.06 63.24 9.65 55.05 9.82 46.99 Z" />
</g>
<g id="#f9cb0fff">
<path fill="#f9cb0f" opacity="1.00" d=" M 12.27 40.19 C 14.66 28.80 22.79 19.17 33.28 14.30 C 35.55 16.33 34.22 19.44 33.84 21.96 C 32.67 26.76 31.92 31.66 31.82 36.61 C 31.50 44.93 31.91 53.26 31.70 61.59 L 31.03 61.80 C 31.04 52.91 31.35 44.01 30.96 35.12 C 26.90 36.40 22.91 37.85 18.97 39.44 C 19.54 40.99 20.32 42.46 21.70 43.45 C 22.87 44.50 24.78 44.11 26.11 43.53 C 26.50 49.86 25.37 56.34 27.00 62.55 C 25.57 66.60 25.46 71.04 23.45 74.88 C 21.12 72.66 18.98 70.25 16.95 67.77 C 12.70 59.37 9.37 49.58 12.27 40.19 Z" />
</g>
<g id="#f8a90eff">
<path fill="#f8a90e" opacity="1.00" d=" M 66.23 28.08 C 66.20 24.39 66.38 20.65 67.84 17.21 C 75.07 22.11 80.67 29.54 82.92 38.01 C 85.80 48.34 83.91 59.94 77.70 68.71 C 73.19 75.37 66.29 80.22 58.69 82.70 C 54.72 76.92 59.85 70.42 58.38 64.20 C 60.22 62.28 61.87 60.18 63.38 57.99 C 66.01 61.69 70.12 63.81 74.04 65.87 C 74.64 66.19 75.82 66.85 76.41 67.17 C 77.30 65.50 78.97 63.54 76.55 62.33 C 73.25 60.68 69.71 59.25 67.16 56.48 C 67.36 55.37 67.57 54.25 67.77 53.14 C 71.39 53.19 75.01 53.07 78.61 52.74 C 78.61 51.35 78.61 49.96 78.61 48.57 C 77.78 49.62 76.95 50.67 76.13 51.71 C 75.96 50.48 75.79 49.26 75.62 48.03 C 74.62 44.18 76.27 39.32 73.21 36.26 C 70.96 36.04 68.70 35.94 66.43 35.90 C 65.91 33.99 65.30 32.09 64.44 30.30 L 64.47 30.18 C 65.04 29.47 65.63 28.77 66.23 28.08 Z" />
</g>
<g id="#f8e817ff">
<path fill="#f8e817" opacity="1.00" d=" M 44.34 30.07 C 45.56 30.06 46.78 30.05 48.01 30.04 C 48.02 33.13 48.15 36.22 48.39 39.30 L 50.38 39.08 C 50.91 39.02 51.97 38.91 52.51 38.85 C 52.80 38.21 53.40 36.94 53.70 36.30 C 55.48 36.13 57.26 35.96 59.04 35.79 C 59.14 33.89 59.25 31.99 59.35 30.10 C 61.06 30.12 62.76 30.15 64.47 30.18 L 64.44 30.30 C 64.11 32.16 63.90 34.03 63.69 35.90 C 64.38 35.90 65.75 35.90 66.43 35.90 C 68.70 35.94 70.96 36.04 73.21 36.26 C 72.85 40.11 72.80 43.98 72.89 47.84 C 73.57 47.89 74.94 47.99 75.62 48.03 C 75.79 49.26 75.96 50.48 76.13 51.71 C 72.24 51.87 68.35 51.90 64.46 51.94 C 65.34 53.46 66.22 54.99 67.16 56.48 C 69.71 59.25 73.25 60.68 76.55 62.33 C 75.92 63.21 74.67 64.98 74.04 65.87 C 70.12 63.81 66.01 61.69 63.38 57.99 C 63.04 57.51 62.36 56.55 62.02 56.06 C 59.02 60.06 55.41 63.56 51.35 66.47 C 50.36 65.45 49.43 64.37 48.48 63.31 C 49.76 62.21 51.03 61.10 52.34 60.05 C 53.46 59.24 54.57 58.41 55.65 57.55 C 56.98 55.79 58.09 53.87 59.21 51.97 C 56.48 51.87 53.74 51.79 51.00 51.73 C 51.00 50.51 51.00 49.29 51.00 48.08 C 53.71 48.03 56.42 47.98 59.14 47.94 C 59.17 45.55 59.20 43.16 59.20 40.77 L 59.20 39.74 C 56.29 39.64 53.20 39.73 51.55 42.52 C 50.78 42.69 49.23 43.05 48.46 43.22 C 48.37 46.89 48.36 50.56 48.44 54.24 L 50.10 53.89 C 50.90 53.75 51.71 53.64 52.53 53.56 C 52.84 53.70 53.46 53.97 53.77 54.11 C 53.47 54.96 52.86 56.67 52.55 57.52 C 48.59 58.41 44.71 59.65 41.03 61.38 C 40.38 60.13 39.99 58.77 39.63 57.42 C 41.02 56.53 43.01 56.22 43.95 54.80 C 44.70 50.94 44.24 46.97 44.18 43.07 C 42.79 42.88 41.40 42.69 40.01 42.50 C 39.99 41.46 39.97 40.41 39.96 39.37 C 41.33 39.13 42.70 38.89 44.07 38.65 C 44.18 35.79 44.26 32.93 44.34 30.07 M 63.93 39.82 C 63.79 42.56 63.64 45.29 63.46 48.03 C 65.30 48.02 67.13 48.01 68.97 47.99 C 69.01 45.27 69.03 42.55 69.02 39.83 C 67.33 39.83 65.63 39.82 63.93 39.82 Z" />
<path fill="#f8e817" opacity="1.00" d=" M 18.97 39.44 C 22.91 37.85 26.90 36.40 30.96 35.12 C 31.35 44.01 31.04 52.91 31.03 61.80 C 30.36 61.98 29.03 62.33 28.36 62.50 L 27.00 62.55 C 25.37 56.34 26.50 49.86 26.11 43.53 C 26.32 40.71 22.66 41.99 21.70 43.45 C 20.32 42.46 19.54 40.99 18.97 39.44 Z" />
</g>
<g id="#e18d12ff">
<path fill="#e18d12" opacity="1.00" d=" M 49.33 30.33 C 50.02 33.20 50.38 36.13 50.38 39.08 L 48.39 39.30 C 48.62 36.30 48.93 33.31 49.33 30.33 Z" />
</g>
<g id="#e49011ff">
<path fill="#e49011" opacity="1.00" d=" M 64.44 30.30 C 65.30 32.09 65.91 33.99 66.43 35.90 C 65.75 35.90 64.38 35.90 63.69 35.90 C 63.90 34.03 64.11 32.16 64.44 30.30 Z" />
</g>
<g id="#de8a12fe">
<path fill="#de8a12" opacity="1.00" d=" M 89.14 32.42 C 93.86 41.06 93.87 51.65 91.79 61.07 C 88.05 75.83 75.82 88.05 61.06 91.77 C 51.62 93.94 41.04 93.76 32.36 89.13 C 40.20 90.18 48.15 92.45 56.05 90.36 C 61.83 88.91 67.55 86.86 72.45 83.38 C 84.57 75.27 91.77 60.57 91.12 46.05 C 90.95 41.44 89.47 37.01 89.14 32.42 Z" />
</g>
<g id="#e28f12ff">
<path fill="#e28f12" opacity="1.00" d=" M 31.82 36.61 C 32.33 36.57 33.35 36.47 33.86 36.43 C 34.01 45.30 34.02 54.18 33.93 63.06 C 32.07 62.85 30.22 62.63 28.36 62.50 C 29.03 62.33 30.36 61.98 31.03 61.80 L 31.70 61.59 C 31.91 53.26 31.50 44.93 31.82 36.61 Z" />
</g>
<g id="#e18d11ff">
<path fill="#e18d11" opacity="1.00" d=" M 73.21 36.26 C 76.27 39.32 74.62 44.18 75.62 48.03 C 74.94 47.99 73.57 47.89 72.89 47.84 C 72.80 43.98 72.85 40.11 73.21 36.26 Z" />
</g>
<g id="#e39012ff">
<path fill="#e39012" opacity="1.00" d=" M 51.55 42.52 C 53.20 39.73 56.29 39.64 59.20 39.74 L 59.20 40.77 C 58.12 41.02 57.04 41.27 55.97 41.53 C 54.50 43.19 52.51 44.11 50.44 44.78 C 50.34 47.81 50.31 50.85 50.10 53.89 L 48.44 54.24 C 48.36 50.56 48.37 46.89 48.46 43.22 C 49.23 43.05 50.78 42.69 51.55 42.52 Z" />
</g>
<g id="#f7ab0eff">
<path fill="#f7ab0e" opacity="1.00" d=" M 63.93 39.82 C 65.63 39.82 67.33 39.83 69.02 39.83 C 69.03 42.55 69.01 45.27 68.97 47.99 C 67.13 48.01 65.30 48.02 63.46 48.03 C 63.64 45.29 63.79 42.56 63.93 39.82 Z" />
</g>
<g id="#f8b40eff">
<path fill="#f8b40e" opacity="1.00" d=" M 55.97 41.53 C 57.04 41.27 58.12 41.02 59.20 40.77 C 59.20 43.16 59.17 45.55 59.14 47.94 C 56.42 47.98 53.71 48.03 51.00 48.08 C 51.00 49.29 51.00 50.51 51.00 51.73 C 53.74 51.79 56.48 51.87 59.21 51.97 C 58.09 53.87 56.98 55.79 55.65 57.55 C 55.04 56.39 54.43 55.24 53.77 54.11 C 53.46 53.97 52.84 53.70 52.53 53.56 C 51.71 53.64 50.90 53.75 50.10 53.89 C 50.31 50.85 50.34 47.81 50.44 44.78 C 52.51 44.11 54.50 43.19 55.97 41.53 Z" />
<path fill="#f8b40e" opacity="1.00" d=" M 42.52 62.08 C 45.81 61.46 49.07 60.73 52.34 60.05 C 51.03 61.10 49.76 62.21 48.48 63.31 C 49.43 64.37 50.36 65.45 51.35 66.47 C 52.11 66.85 52.88 67.22 53.66 67.59 C 55.25 66.48 56.84 65.37 58.38 64.20 C 59.85 70.42 54.72 76.92 58.69 82.70 C 55.96 83.49 53.14 83.92 50.31 84.17 C 46.73 84.03 43.13 83.95 39.61 83.24 C 41.10 76.29 42.63 69.21 42.52 62.08 Z" />
</g>
<g id="#e59610ff">
<path fill="#e59610" opacity="1.00" d=" M 21.70 43.45 C 22.66 41.99 26.32 40.71 26.11 43.53 C 24.78 44.11 22.87 44.50 21.70 43.45 Z" />
</g>
<g id="#e69411ff">
<path fill="#e69411" opacity="1.00" d=" M 76.13 51.71 C 76.95 50.67 77.78 49.62 78.61 48.57 C 78.61 49.96 78.61 51.35 78.61 52.74 C 75.01 53.07 71.39 53.19 67.77 53.14 C 67.57 54.25 67.36 55.37 67.16 56.48 C 66.22 54.99 65.34 53.46 64.46 51.94 C 68.35 51.90 72.24 51.87 76.13 51.71 Z" />
</g>
<g id="#e59711ff">
<path fill="#e59711" opacity="1.00" d=" M 53.77 54.11 C 54.43 55.24 55.04 56.39 55.65 57.55 C 54.57 58.41 53.46 59.24 52.34 60.05 C 49.07 60.73 45.81 61.46 42.52 62.08 L 41.03 61.38 C 44.71 59.65 48.59 58.41 52.55 57.52 C 52.86 56.67 53.47 54.96 53.77 54.11 Z" />
</g>
<g id="#e49612ff">
<path fill="#e49612" opacity="1.00" d=" M 51.35 66.47 C 55.41 63.56 59.02 60.06 62.02 56.06 C 62.36 56.55 63.04 57.51 63.38 57.99 C 61.87 60.18 60.22 62.28 58.38 64.20 C 56.84 65.37 55.25 66.48 53.66 67.59 C 52.88 67.22 52.11 66.85 51.35 66.47 Z" />
</g>
<g id="#e28e11ff">
<path fill="#e28e11" opacity="1.00" d=" M 76.55 62.33 C 78.97 63.54 77.30 65.50 76.41 67.17 C 75.82 66.85 74.64 66.19 74.04 65.87 C 74.67 64.98 75.92 63.21 76.55 62.33 Z" />
</g>
<g id="#f3ad3eff">
<path fill="#f3ad3e" opacity="1.00" d=" M 16.95 67.77 C 18.98 70.25 21.12 72.66 23.45 74.88 C 27.98 79.03 33.64 81.82 39.61 83.24 C 43.13 83.95 46.73 84.03 50.31 84.17 C 51.60 84.59 52.89 85.04 54.17 85.50 C 53.79 85.59 53.03 85.76 52.65 85.84 C 41.98 87.11 30.99 83.46 22.90 76.46 C 20.74 74.38 18.79 72.08 17.08 69.61 L 16.95 67.77 Z" />
</g>
<g id="#fab80fff">
<path fill="#fab80f" opacity="1.00" d=" M 20.03 81.15 C 20.99 79.58 21.94 78.02 22.90 76.46 C 30.99 83.46 41.98 87.11 52.65 85.84 C 52.94 87.02 53.23 88.19 53.52 89.37 C 54.16 89.62 55.42 90.11 56.05 90.36 C 48.15 92.45 40.20 90.18 32.36 89.13 C 27.68 87.53 23.77 84.29 20.03 81.15 Z" />
</g>
</svg>
