<?xml version="1.0" encoding="UTF-8" ?>
<!DOCTYPE svg PUBLIC "-//W3C//DTD SVG 1.1//EN" "http://www.w3.org/Graphics/SVG/1.1/DTD/svg11.dtd">
<svg width="96pt" height="96pt" viewBox="0 0 96 96" version="1.1" xmlns="http://www.w3.org/2000/svg">
<g id="#f9b80fff">
<path fill="#f9b80f" opacity="1.00" d=" M 35.88 6.71 C 45.95 2.94 57.55 4.63 67.04 9.31 L 67.23 9.98 C 66.65 11.41 66.06 12.85 65.48 14.29 C 56.43 9.67 45.69 9.34 36.07 12.25 L 33.58 12.86 C 33.54 10.57 34.55 8.51 35.88 6.71 Z" />
</g>
<g id="#f9a60dff">
<path fill="#f9a60d" opacity="1.00" d=" M 5.12 42.07 C 7.40 25.72 19.65 10.72 35.88 6.71 C 34.55 8.51 33.54 10.57 33.58 12.86 C 26.99 15.15 21.58 19.91 17.27 25.26 C 8.96 36.03 7.49 51.46 13.32 63.71 C 14.50 66.11 15.63 69.05 18.47 69.87 C 18.58 70.04 18.79 70.38 18.89 70.55 C 20.07 72.66 21.23 74.83 22.90 76.60 C 21.62 77.79 20.34 78.98 19.06 80.17 C 8.80 70.61 3.02 56.06 5.12 42.07 Z" />
</g>
<g id="#f6c35cff">
<path fill="#f6c35c" opacity="1.00" d=" M 36.07 12.25 C 45.69 9.34 56.43 9.67 65.48 14.29 C 74.98 19.03 81.96 28.10 84.70 38.31 C 89.89 55.57 79.93 75.38 63.57 82.48 C 60.51 83.79 57.33 84.82 54.05 85.42 C 52.80 85.01 51.55 84.61 50.30 84.21 C 54.12 83.84 57.90 83.04 61.48 81.64 C 71.74 77.51 79.88 68.52 82.79 57.83 C 86.70 44.80 82.40 29.94 72.33 20.83 C 67.07 15.91 60.36 12.72 53.30 11.40 C 47.17 10.64 40.86 10.99 35.01 13.09 L 36.07 12.25 Z" />
</g>
<g id="#fbcd10ff">
<path fill="#fbcd10" opacity="1.00" d=" M 67.23 9.98 L 67.79 9.76 C 77.01 14.52 84.94 22.53 89.01 32.11 C 89.42 37.13 91.16 41.97 91.16 47.03 C 91.43 60.98 84.56 75.01 73.03 82.97 C 68.05 86.60 62.20 88.88 56.23 90.27 C 54.22 90.10 52.21 89.86 50.21 89.62 C 50.42 88.40 50.63 87.18 50.84 85.96 C 51.91 85.80 52.98 85.62 54.05 85.42 C 57.33 84.82 60.51 83.79 63.57 82.48 C 79.93 75.38 89.89 55.57 84.70 38.31 C 81.96 28.10 74.98 19.03 65.48 14.29 C 66.06 12.85 66.65 11.41 67.23 9.98 Z" />
</g>
<g id="#f9c00eff">
<path fill="#f9c00e" opacity="1.00" d=" M 35.01 13.09 C 40.86 10.99 47.17 10.64 53.30 11.40 C 50.78 18.91 51.65 26.98 49.37 34.52 C 46.20 35.16 42.06 35.20 40.44 38.57 C 38.17 43.01 39.03 48.26 39.08 53.05 C 39.04 56.95 41.81 60.47 45.63 61.31 C 41.09 67.93 43.21 76.26 40.30 83.39 C 34.53 82.05 28.90 79.64 24.43 75.69 C 26.54 71.03 27.00 65.91 27.73 60.92 C 28.47 61.08 29.97 61.40 30.71 61.55 C 31.13 61.65 31.95 61.84 32.36 61.94 C 32.49 55.63 32.40 49.32 32.48 43.02 C 32.61 40.58 31.95 38.22 31.20 35.93 L 31.10 35.36 C 31.42 35.27 32.07 35.09 32.40 35.00 C 33.12 28.44 35.16 22.11 35.83 15.55 C 35.09 15.29 33.61 14.77 32.88 14.51 C 33.60 14.06 34.31 13.58 35.01 13.09 Z" />
</g>
<g id="#ec8e1aff">
<path fill="#ec8e1a" opacity="1.00" d=" M 33.58 12.86 L 36.07 12.25 L 35.01 13.09 C 34.31 13.58 33.60 14.06 32.88 14.51 C 19.67 20.55 11.03 34.64 11.17 49.08 C 11.70 56.52 14.45 63.63 18.47 69.87 C 15.63 69.05 14.50 66.11 13.32 63.71 C 7.49 51.46 8.96 36.03 17.27 25.26 C 21.58 19.91 26.99 15.15 33.58 12.86 Z" />
</g>
<g id="#f8b30eff">
<path fill="#f8b30e" opacity="1.00" d=" M 53.30 11.40 C 60.36 12.72 67.07 15.91 72.33 20.83 C 71.02 25.28 69.87 29.81 69.62 34.46 C 67.30 35.14 64.65 35.20 62.68 36.73 C 60.52 39.12 59.79 42.41 58.79 45.39 C 58.09 42.75 57.22 39.90 54.89 38.24 C 53.06 36.98 51.18 35.80 49.37 34.52 C 51.65 26.98 50.78 18.91 53.30 11.40 Z" />
</g>
<g id="#f9ca0fff">
<path fill="#f9ca0f" opacity="1.00" d=" M 11.17 49.08 C 11.03 34.64 19.67 20.55 32.88 14.51 C 33.61 14.77 35.09 15.29 35.83 15.55 C 35.16 22.11 33.12 28.44 32.40 35.00 C 32.07 35.09 31.42 35.27 31.10 35.36 C 26.92 36.25 22.84 37.53 18.92 39.23 C 19.26 40.74 19.45 42.42 20.77 43.44 C 21.98 45.32 26.55 43.65 24.28 41.54 C 24.70 41.42 25.55 41.18 25.97 41.07 C 25.84 47.54 25.27 54.05 26.00 60.51 C 26.44 60.61 27.30 60.82 27.73 60.92 C 27.00 65.91 26.54 71.03 24.43 75.69 C 22.57 73.99 20.72 72.28 18.89 70.55 C 18.79 70.38 18.58 70.04 18.47 69.87 C 14.45 63.63 11.70 56.52 11.17 49.08 Z" />
</g>
<g id="#f7a80eff">
<path fill="#f7a80e" opacity="1.00" d=" M 72.33 20.83 C 82.40 29.94 86.70 44.80 82.79 57.83 C 79.88 68.52 71.74 77.51 61.48 81.64 C 61.80 74.77 63.57 68.08 64.16 61.24 C 66.54 61.28 68.91 61.38 71.28 61.40 C 70.48 61.96 69.69 62.53 68.91 63.11 C 72.72 62.76 77.13 61.51 78.40 57.41 C 79.94 51.55 80.18 44.81 77.24 39.32 C 77.15 40.26 76.96 42.12 76.87 43.05 C 76.12 39.05 73.64 35.64 69.62 34.46 C 69.87 29.81 71.02 25.28 72.33 20.83 Z" />
</g>
<g id="#de8a12fe">
<path fill="#de8a12" opacity="1.00" d=" M 89.01 32.11 C 93.85 40.85 93.88 51.56 91.80 61.12 C 87.98 75.87 75.79 88.10 60.99 91.79 C 51.57 93.92 41.04 93.77 32.38 89.15 C 40.26 90.26 48.30 92.48 56.23 90.27 C 62.20 88.88 68.05 86.60 73.03 82.97 C 84.56 75.01 91.43 60.98 91.16 47.03 C 91.16 41.97 89.42 37.13 89.01 32.11 Z" />
</g>
<g id="#f8e817ff">
<path fill="#f8e817" opacity="1.00" d=" M 18.92 39.23 C 22.84 37.53 26.92 36.25 31.10 35.36 L 31.20 35.93 C 30.33 44.45 30.98 53.02 30.71 61.55 C 29.97 61.40 28.47 61.08 27.73 60.92 C 27.30 60.82 26.44 60.61 26.00 60.51 C 25.27 54.05 25.84 47.54 25.97 41.07 C 25.55 41.18 24.70 41.42 24.28 41.54 C 22.94 41.86 21.77 42.49 20.77 43.44 C 19.45 42.42 19.26 40.74 18.92 39.23 Z" />
<path fill="#f8e817" opacity="1.00" d=" M 40.44 38.57 C 42.06 35.20 46.20 35.16 49.37 34.52 C 51.18 35.80 53.06 36.98 54.89 38.24 C 56.41 43.91 56.78 49.95 55.57 55.71 C 54.96 58.37 52.87 60.46 50.32 61.34 C 48.75 61.37 47.19 61.36 45.63 61.31 C 41.81 60.47 39.04 56.95 39.08 53.05 C 39.03 48.26 38.17 43.01 40.44 38.57 M 46.05 38.96 C 43.06 41.39 43.91 45.55 43.70 48.94 C 43.93 51.87 43.25 56.27 46.78 57.44 L 46.87 57.99 C 49.52 57.19 51.46 54.91 51.03 52.02 C 50.65 47.86 52.37 42.63 49.01 39.37 L 49.28 39.00 C 48.47 38.99 46.86 38.97 46.05 38.96 Z" />
<path fill="#f8e817" opacity="1.00" d=" M 62.68 36.73 C 64.65 35.20 67.30 35.14 69.62 34.46 C 73.64 35.64 76.12 39.05 76.87 43.05 C 77.22 49.41 78.27 58.15 71.28 61.40 C 68.91 61.38 66.54 61.28 64.16 61.24 C 61.62 58.53 59.86 55.21 58.84 51.65 C 58.80 49.57 58.78 47.48 58.79 45.39 C 59.79 42.41 60.52 39.12 62.68 36.73 M 64.90 42.00 C 64.25 45.93 64.39 49.98 64.81 53.93 C 64.77 55.70 66.19 56.74 67.47 57.67 C 68.56 57.36 69.65 57.02 70.76 56.74 C 72.38 51.27 73.41 44.36 69.93 39.44 L 70.30 38.96 C 68.04 38.68 65.36 39.46 64.90 42.00 Z" />
</g>
<g id="#e08b12ff">
<path fill="#e08b12" opacity="1.00" d=" M 31.20 35.93 C 31.95 38.22 32.61 40.58 32.48 43.02 C 32.40 49.32 32.49 55.63 32.36 61.94 C 31.95 61.84 31.13 61.65 30.71 61.55 C 30.98 53.02 30.33 44.45 31.20 35.93 Z" />
<path fill="#e08b12" opacity="1.00" d=" M 54.89 38.24 C 57.22 39.90 58.09 42.75 58.79 45.39 C 58.78 47.48 58.80 49.57 58.84 51.65 C 58.29 54.95 57.67 58.62 55.08 60.99 C 52.72 62.73 49.61 62.52 46.85 62.91 C 48.00 62.38 49.16 61.86 50.32 61.34 C 52.87 60.46 54.96 58.37 55.57 55.71 C 56.78 49.95 56.41 43.91 54.89 38.24 Z" />
</g>
<g id="#e39312ff">
<path fill="#e39312" opacity="1.00" d=" M 46.05 38.96 C 46.86 38.97 48.47 38.99 49.28 39.00 L 49.01 39.37 C 44.40 44.26 46.09 51.45 46.78 57.44 C 43.25 56.27 43.93 51.87 43.70 48.94 C 43.91 45.55 43.06 41.39 46.05 38.96 Z" />
</g>
<g id="#e28f11ff">
<path fill="#e28f11" opacity="1.00" d=" M 64.90 42.00 C 65.36 39.46 68.04 38.68 70.30 38.96 L 69.93 39.44 C 64.88 44.18 67.39 51.62 67.47 57.67 C 66.19 56.74 64.77 55.70 64.81 53.93 C 64.39 49.98 64.25 45.93 64.90 42.00 Z" />
</g>
<g id="#f7b80eff">
<path fill="#f7b80e" opacity="1.00" d=" M 49.01 39.37 C 52.37 42.63 50.65 47.86 51.03 52.02 C 51.46 54.91 49.52 57.19 46.87 57.99 L 46.78 57.44 C 46.09 51.45 44.40 44.26 49.01 39.37 Z" />
</g>
<g id="#f7aa0eff">
<path fill="#f7aa0e" opacity="1.00" d=" M 69.93 39.44 C 73.41 44.36 72.38 51.27 70.76 56.74 C 69.65 57.02 68.56 57.36 67.47 57.67 C 67.39 51.62 64.88 44.18 69.93 39.44 Z" />
</g>
<g id="#e39112ff">
<path fill="#e39112" opacity="1.00" d=" M 77.24 39.32 C 80.18 44.81 79.94 51.55 78.40 57.41 C 77.13 61.51 72.72 62.76 68.91 63.11 C 69.69 62.53 70.48 61.96 71.28 61.40 C 78.27 58.15 77.22 49.41 76.87 43.05 C 76.96 42.12 77.15 40.26 77.24 39.32 Z" />
</g>
<g id="#e59812ff">
<path fill="#e59812" opacity="1.00" d=" M 20.77 43.44 C 21.77 42.49 22.94 41.86 24.28 41.54 C 26.55 43.65 21.98 45.32 20.77 43.44 Z" />
</g>
<g id="#f8b20eff">
<path fill="#f8b20e" opacity="1.00" d=" M 58.84 51.65 C 59.86 55.21 61.62 58.53 64.16 61.24 C 63.57 68.08 61.80 74.77 61.48 81.64 C 57.90 83.04 54.12 83.84 50.30 84.21 C 46.96 84.03 43.60 83.97 40.30 83.39 C 43.21 76.26 41.09 67.93 45.63 61.31 C 47.19 61.36 48.75 61.37 50.32 61.34 C 49.16 61.86 48.00 62.38 46.85 62.91 C 49.61 62.52 52.72 62.73 55.08 60.99 C 57.67 58.62 58.29 54.95 58.84 51.65 Z" />
</g>
<g id="#f3b03fff">
<path fill="#f3b03f" opacity="1.00" d=" M 18.89 70.55 C 20.72 72.28 22.57 73.99 24.43 75.69 C 28.90 79.64 34.53 82.05 40.30 83.39 C 43.60 83.97 46.96 84.03 50.30 84.21 C 51.55 84.61 52.80 85.01 54.05 85.42 C 52.98 85.62 51.91 85.80 50.84 85.96 C 40.72 86.82 30.70 82.90 22.90 76.60 C 21.23 74.83 20.07 72.66 18.89 70.55 Z" />
</g>
<g id="#f9b50fff">
<path fill="#f9b50f" opacity="1.00" d=" M 19.06 80.17 C 20.34 78.98 21.62 77.79 22.90 76.60 C 30.70 82.90 40.72 86.82 50.84 85.96 C 50.63 87.18 50.42 88.40 50.21 89.62 C 52.21 89.86 54.22 90.10 56.23 90.27 C 48.30 92.48 40.26 90.26 32.38 89.15 C 27.30 87.32 22.97 83.82 19.06 80.17 Z" />
</g>
</svg>
