<?xml version="1.0" encoding="UTF-8" ?>
<!DOCTYPE svg PUBLIC "-//W3C//DTD SVG 1.1//EN" "http://www.w3.org/Graphics/SVG/1.1/DTD/svg11.dtd">
<svg width="96pt" height="96pt" viewBox="0 0 96 96" version="1.1" xmlns="http://www.w3.org/2000/svg">
<g id="#eea44eff">
<path fill="#eea44e" opacity="1.00" d=" M 30.68 8.91 C 41.49 3.64 54.35 4.20 65.38 8.52 C 64.88 9.27 64.39 10.02 63.86 10.75 C 53.79 5.90 42.09 7.11 31.73 10.38 C 31.47 10.01 30.94 9.27 30.68 8.91 Z" />
</g>
<g id="#a2380aff">
<path fill="#a2380a" opacity="1.00" d=" M 65.38 8.52 C 65.96 7.62 66.75 5.64 68.18 6.68 C 69.83 7.13 68.62 9.38 68.36 10.51 C 68.11 10.84 67.62 11.48 67.37 11.80 C 64.38 16.48 58.41 18.48 53.11 17.10 C 52.40 15.64 52.73 14.67 54.09 14.19 C 57.53 13.58 61.46 13.81 63.86 10.75 C 64.39 10.02 64.88 9.27 65.38 8.52 Z" />
</g>
<g id="#a13609ff">
<path fill="#a13609" opacity="1.00" d=" M 26.42 7.82 C 27.07 7.51 28.36 6.90 29.01 6.59 C 29.59 7.35 30.14 8.12 30.68 8.91 C 30.94 9.27 31.47 10.01 31.73 10.38 C 34.01 13.99 38.65 13.61 42.22 14.93 C 42.61 16.44 42.12 17.34 40.75 17.64 C 36.22 17.98 31.48 16.29 28.73 12.56 C 28.33 11.84 27.96 11.11 27.61 10.38 C 27.31 9.74 26.71 8.46 26.42 7.82 Z" />
</g>
<g id="#fded78ff">
<path fill="#fded78" opacity="1.00" d=" M 31.73 10.38 C 42.09 7.11 53.79 5.90 63.86 10.75 C 61.46 13.81 57.53 13.58 54.09 14.19 C 52.73 14.67 52.40 15.64 53.11 17.10 C 58.41 18.48 64.38 16.48 67.37 11.80 C 73.50 16.18 79.59 21.01 83.26 27.75 C 90.18 39.45 90.65 54.68 84.10 66.65 C 83.94 65.50 83.78 64.36 83.62 63.21 C 78.56 64.86 73.45 66.76 68.06 66.85 C 60.10 67.13 52.45 64.39 45.37 61.01 C 44.91 64.17 45.24 67.36 45.95 70.46 L 44.96 69.97 C 42.79 67.52 42.75 63.77 43.87 60.83 C 44.75 58.52 47.23 57.55 49.07 56.17 C 47.11 54.13 44.86 56.01 43.14 57.41 C 39.04 57.09 35.51 54.96 32.17 52.74 C 34.17 53.03 36.15 53.48 38.12 53.92 C 35.36 49.85 32.76 45.66 30.87 41.10 C 30.09 38.10 26.61 39.16 24.31 39.14 C 26.30 37.71 28.39 35.88 31.04 36.20 C 34.28 36.15 36.85 38.71 40.02 38.86 C 44.94 38.38 46.95 31.01 43.04 28.05 C 36.22 22.73 26.02 23.13 18.87 27.63 C 19.20 27.20 19.85 26.32 20.17 25.89 C 23.63 23.87 25.47 20.49 26.22 16.64 C 25.29 16.38 24.37 16.13 23.45 15.87 C 25.17 14.71 26.96 13.65 28.73 12.56 C 31.48 16.29 36.22 17.98 40.75 17.64 C 42.12 17.34 42.61 16.44 42.22 14.93 C 38.65 13.61 34.01 13.99 31.73 10.38 M 51.88 30.02 C 52.01 32.00 51.65 34.17 52.68 35.97 C 53.94 38.45 57.41 39.65 59.80 38.03 C 63.10 36.00 67.74 35.03 70.90 37.82 C 72.57 39.34 74.76 39.83 76.90 39.05 L 75.93 40.26 C 77.84 40.25 79.78 41.50 81.63 41.06 C 82.40 39.61 82.76 37.99 83.28 36.45 C 82.56 35.73 81.72 35.28 80.74 35.09 C 81.16 33.65 81.25 32.04 80.31 30.78 C 77.41 25.91 71.43 24.07 66.04 24.14 C 60.76 23.93 55.30 25.87 51.88 30.02 Z" />
</g>
<g id="#eeaa50ff">
<path fill="#eeaa50" opacity="1.00" d=" M 6.85 35.83 C 10.07 25.07 17.61 15.56 27.61 10.38 C 27.96 11.11 28.33 11.84 28.73 12.56 C 26.96 13.65 25.17 14.71 23.45 15.87 C 13.25 23.05 7.29 35.58 7.36 47.97 C 7.17 54.16 9.16 60.05 10.99 65.86 L 9.55 67.04 C 10.05 67.44 10.56 67.83 11.07 68.22 C 13.11 67.68 15.22 67.38 17.33 67.27 C 16.74 67.70 15.56 68.55 14.97 68.97 C 14.05 69.62 13.12 70.24 12.15 70.81 C 11.97 70.63 11.59 70.28 11.41 70.11 C 10.83 69.73 9.67 68.97 9.09 68.59 C 9.23 68.38 9.52 67.97 9.67 67.76 C 4.95 57.89 3.64 46.36 6.85 35.83 Z" />
<path fill="#eeaa50" opacity="1.00" d=" M 13.43 73.65 C 15.22 73.36 17.03 73.25 18.84 73.09 C 17.90 74.25 16.96 75.40 16.08 76.60 C 15.19 75.62 14.31 74.64 13.43 73.65 Z" />
</g>
<g id="#efa951ff">
<path fill="#efa951" opacity="1.00" d=" M 67.37 11.80 C 67.62 11.48 68.11 10.84 68.36 10.51 C 75.42 13.56 80.94 19.57 84.96 26.01 C 90.64 35.20 92.16 46.55 90.13 57.07 C 87.38 70.33 77.94 81.97 65.53 87.38 C 50.20 94.30 30.85 91.22 18.72 79.47 C 19.65 79.08 20.60 78.69 21.55 78.34 C 25.72 83.38 32.12 85.92 38.27 87.64 C 54.80 92.01 73.74 84.45 82.44 69.68 C 83.02 68.69 83.57 67.67 84.10 66.65 C 90.65 54.68 90.18 39.45 83.26 27.75 C 79.59 21.01 73.50 16.18 67.37 11.80 Z" />
</g>
<g id="#ffca73ff">
<path fill="#ffca73" opacity="1.00" d=" M 7.36 47.97 C 7.29 35.58 13.25 23.05 23.45 15.87 C 24.37 16.13 25.29 16.38 26.22 16.64 C 25.47 20.49 23.63 23.87 20.17 25.89 C 19.85 26.32 19.20 27.20 18.87 27.63 C 17.26 29.71 15.98 32.04 15.43 34.64 C 14.81 35.69 14.19 36.73 13.58 37.78 C 14.12 39.01 14.64 40.26 15.11 41.52 C 16.63 41.31 18.09 40.87 19.46 40.17 C 19.73 40.38 20.27 40.79 20.54 40.99 C 20.42 41.42 20.17 42.27 20.05 42.69 C 20.90 45.54 21.68 48.59 23.87 50.75 L 22.70 50.15 C 23.19 51.69 23.68 53.24 24.19 54.78 C 21.18 52.88 17.98 51.27 14.57 50.24 C 16.57 52.43 18.81 54.37 21.15 56.20 C 17.46 56.60 13.68 57.42 10.86 59.99 C 12.91 60.48 14.97 60.96 17.03 61.39 C 14.99 62.84 12.95 64.30 10.99 65.86 C 9.16 60.05 7.17 54.16 7.36 47.97 Z" />
<path fill="#ffca73" opacity="1.00" d=" M 70.38 73.44 C 74.46 72.36 78.09 69.59 82.44 69.68 C 73.74 84.45 54.80 92.01 38.27 87.64 C 32.12 85.92 25.72 83.38 21.55 78.34 C 23.54 77.59 25.58 77.01 27.62 76.41 L 28.19 76.86 C 27.94 77.47 27.43 78.69 27.18 79.31 C 29.53 77.33 31.69 75.14 34.01 73.13 C 34.24 73.60 34.70 74.55 34.93 75.02 C 37.34 73.24 40.07 71.97 42.98 71.24 C 44.46 72.93 46.14 74.47 48.02 75.72 C 48.63 75.66 49.87 75.56 50.49 75.51 C 57.11 74.67 63.98 75.71 70.38 73.44 Z" />
</g>
<g id="#2c2b24ff">
<path fill="#2c2b24" opacity="1.00" d=" M 51.88 30.02 C 55.30 25.87 60.76 23.93 66.04 24.14 C 71.43 24.07 77.41 25.91 80.31 30.78 C 81.25 32.04 81.16 33.65 80.74 35.09 C 79.75 36.09 78.76 37.09 77.81 38.11 C 77.58 38.35 77.13 38.82 76.90 39.05 C 74.76 39.83 72.57 39.34 70.90 37.82 C 67.74 35.03 63.10 36.00 59.80 38.03 C 57.41 39.65 53.94 38.45 52.68 35.97 C 51.65 34.17 52.01 32.00 51.88 30.02 M 54.09 30.19 C 53.67 31.78 53.94 33.44 53.97 35.06 C 55.23 36.05 56.85 37.50 58.55 36.50 C 61.94 34.64 66.13 33.03 69.86 34.93 C 71.85 35.72 73.63 38.54 75.91 36.95 C 77.59 35.97 79.57 34.26 78.93 32.06 C 77.29 29.10 74.19 27.16 70.90 26.52 C 65.15 25.45 58.52 25.96 54.09 30.19 Z" />
</g>
<g id="#2d2b24ff">
<path fill="#2d2b24" opacity="1.00" d=" M 18.87 27.63 C 26.02 23.13 36.22 22.73 43.04 28.05 C 46.95 31.01 44.94 38.38 40.02 38.86 C 36.85 38.71 34.28 36.15 31.04 36.20 C 28.39 35.88 26.30 37.71 24.31 39.14 C 23.22 39.36 22.13 39.61 21.05 39.87 C 20.92 40.15 20.67 40.71 20.54 40.99 C 20.27 40.79 19.73 40.38 19.46 40.17 C 19.50 39.91 19.58 39.40 19.63 39.14 C 19.68 38.96 19.79 38.61 19.85 38.43 C 18.31 37.25 16.87 35.95 15.43 34.64 C 15.98 32.04 17.26 29.71 18.87 27.63 M 25.53 26.72 C 22.48 27.44 19.56 29.27 18.02 32.06 C 17.24 34.83 20.48 37.45 22.99 37.52 C 25.49 36.07 27.89 33.85 31.01 34.20 C 33.93 34.04 36.35 35.86 38.97 36.82 C 42.98 37.71 44.77 31.22 41.61 29.29 C 37.09 25.83 30.91 25.57 25.53 26.72 Z" />
</g>
<g id="#ffffffff">
<path fill="#ffffff" opacity="1.00" d=" M 25.53 26.72 C 30.91 25.57 37.09 25.83 41.61 29.29 C 44.77 31.22 42.98 37.71 38.97 36.82 C 36.35 35.86 33.93 34.04 31.01 34.20 C 27.89 33.85 25.49 36.07 22.99 37.52 C 20.48 37.45 17.24 34.83 18.02 32.06 C 19.56 29.27 22.48 27.44 25.53 26.72 M 30.28 28.22 C 28.37 28.73 28.63 30.71 28.87 32.21 C 29.58 32.08 31.00 31.84 31.71 31.72 C 32.55 30.26 32.10 28.41 30.28 28.22 Z" />
<path fill="#ffffff" opacity="1.00" d=" M 54.09 30.19 C 58.52 25.96 65.15 25.45 70.90 26.52 C 74.19 27.16 77.29 29.10 78.93 32.06 C 79.57 34.26 77.59 35.97 75.91 36.95 C 73.63 38.54 71.85 35.72 69.86 34.93 C 66.13 33.03 61.94 34.64 58.55 36.50 C 56.85 37.50 55.23 36.05 53.97 35.06 C 53.94 33.44 53.67 31.78 54.09 30.19 M 65.45 28.39 C 63.60 29.99 65.66 33.60 67.65 31.49 C 69.58 30.16 67.18 27.25 65.45 28.39 Z" />
<path fill="#ffffff" opacity="1.00" d=" M 15.43 34.64 C 16.87 35.95 18.31 37.25 19.85 38.43 C 19.79 38.61 19.68 38.96 19.63 39.14 C 18.61 38.99 17.59 38.84 16.57 38.67 C 16.20 37.33 15.82 35.98 15.43 34.64 Z" />
<path fill="#ffffff" opacity="1.00" d=" M 77.81 38.11 C 78.76 37.09 79.75 36.09 80.74 35.09 C 81.72 35.28 82.56 35.73 83.28 36.45 C 82.85 36.39 81.98 36.28 81.54 36.22 C 80.53 37.76 79.22 39.05 77.65 40.01 L 77.81 38.11 Z" />
</g>
<g id="#585858ff">
<path fill="#585858" opacity="1.00" d=" M 30.28 28.22 C 32.10 28.41 32.55 30.26 31.71 31.72 C 31.00 31.84 29.58 32.08 28.87 32.21 C 28.63 30.71 28.37 28.73 30.28 28.22 Z" />
</g>
<g id="#606060ff">
<path fill="#606060" opacity="1.00" d=" M 65.45 28.39 C 67.18 27.25 69.58 30.16 67.65 31.49 C 65.66 33.60 63.60 29.99 65.45 28.39 Z" />
</g>
<g id="#4ca4e7ff">
<path fill="#4ca4e7" opacity="1.00" d=" M 13.58 37.78 C 14.19 36.73 14.81 35.69 15.43 34.64 C 15.82 35.98 16.20 37.33 16.57 38.67 C 17.59 38.84 18.61 38.99 19.63 39.14 C 19.58 39.40 19.50 39.91 19.46 40.17 C 18.09 40.87 16.63 41.31 15.11 41.52 C 14.64 40.26 14.12 39.01 13.58 37.78 Z" />
<path fill="#4ca4e7" opacity="1.00" d=" M 21.15 56.20 C 27.38 57.35 32.25 61.92 37.97 64.41 C 38.48 63.74 38.98 63.07 39.49 62.40 C 39.92 64.04 40.34 65.69 40.86 67.31 C 41.40 68.70 42.18 69.99 42.98 71.24 C 40.07 71.97 37.34 73.24 34.93 75.02 C 34.70 74.55 34.24 73.60 34.01 73.13 C 31.69 75.14 29.53 77.33 27.18 79.31 C 27.43 78.69 27.94 77.47 28.19 76.86 L 27.62 76.41 C 24.03 73.01 19.93 69.93 14.97 68.97 C 15.56 68.55 16.74 67.70 17.33 67.27 C 15.22 67.38 13.11 67.68 11.07 68.22 C 10.56 67.83 10.05 67.44 9.55 67.04 L 10.99 65.86 C 12.95 64.30 14.99 62.84 17.03 61.39 C 14.97 60.96 12.91 60.48 10.86 59.99 C 13.68 57.42 17.46 56.60 21.15 56.20 Z" />
</g>
<g id="#3a8edcff">
<path fill="#3a8edc" opacity="1.00" d=" M 81.54 36.22 C 81.98 36.28 82.85 36.39 83.28 36.45 C 82.76 37.99 82.40 39.61 81.63 41.06 C 79.78 41.50 77.84 40.25 75.93 40.26 L 76.90 39.05 C 77.13 38.82 77.58 38.35 77.81 38.11 L 77.65 40.01 C 79.22 39.05 80.53 37.76 81.54 36.22 Z" />
<path fill="#3a8edc" opacity="1.00" d=" M 14.57 50.24 C 17.98 51.27 21.18 52.88 24.19 54.78 C 23.68 53.24 23.19 51.69 22.70 50.15 L 23.87 50.75 C 26.39 51.95 28.68 53.56 30.86 55.31 C 30.58 54.57 30.04 53.10 29.77 52.36 C 30.37 52.46 31.57 52.65 32.17 52.74 C 35.51 54.96 39.04 57.09 43.14 57.41 C 41.18 60.32 40.56 63.86 40.86 67.31 C 40.34 65.69 39.92 64.04 39.49 62.40 C 38.98 63.07 38.48 63.74 37.97 64.41 C 32.25 61.92 27.38 57.35 21.15 56.20 C 18.81 54.37 16.57 52.43 14.57 50.24 Z" />
</g>
<g id="#fed775ff">
<path fill="#fed775" opacity="1.00" d=" M 21.05 39.87 C 22.13 39.61 23.22 39.36 24.31 39.14 C 26.61 39.16 30.09 38.10 30.87 41.10 C 32.76 45.66 35.36 49.85 38.12 53.92 C 36.15 53.48 34.17 53.03 32.17 52.74 C 31.57 52.65 30.37 52.46 29.77 52.36 C 30.04 53.10 30.58 54.57 30.86 55.31 C 28.68 53.56 26.39 51.95 23.87 50.75 C 21.68 48.59 20.90 45.54 20.05 42.69 C 20.17 42.27 20.42 41.42 20.54 40.99 C 20.67 40.71 20.92 40.15 21.05 39.87 Z" />
</g>
<g id="#7e271aff">
<path fill="#7e271a" opacity="1.00" d=" M 43.14 57.41 C 44.86 56.01 47.11 54.13 49.07 56.17 C 47.23 57.55 44.75 58.52 43.87 60.83 C 42.75 63.77 42.79 67.52 44.96 69.97 C 46.75 71.86 48.72 73.58 50.49 75.51 C 49.87 75.56 48.63 75.66 48.02 75.72 C 46.14 74.47 44.46 72.93 42.98 71.24 C 42.18 69.99 41.40 68.70 40.86 67.31 C 40.56 63.86 41.18 60.32 43.14 57.41 Z" />
</g>
<g id="#fed675ff">
<path fill="#fed675" opacity="1.00" d=" M 45.37 61.01 C 52.45 64.39 60.10 67.13 68.06 66.85 C 73.45 66.76 78.56 64.86 83.62 63.21 C 83.78 64.36 83.94 65.50 84.10 66.65 C 83.57 67.67 83.02 68.69 82.44 69.68 C 78.09 69.59 74.46 72.36 70.38 73.44 C 63.98 75.71 57.11 74.67 50.49 75.51 C 48.72 73.58 46.75 71.86 44.96 69.97 L 45.95 70.46 C 45.24 67.36 44.91 64.17 45.37 61.01 Z" />
</g>
<g id="#61bff6ff">
<path fill="#61bff6" opacity="1.00" d=" M 12.15 70.81 C 13.12 70.24 14.05 69.62 14.97 68.97 C 19.93 69.93 24.03 73.01 27.62 76.41 C 25.58 77.01 23.54 77.59 21.55 78.34 C 20.60 78.69 19.65 79.08 18.72 79.47 C 18.21 79.68 17.19 80.11 16.68 80.32 C 16.28 80.35 15.48 80.42 15.08 80.46 C 14.96 80.24 14.73 79.79 14.62 79.57 C 14.96 78.51 15.45 77.51 16.08 76.60 C 16.96 75.40 17.90 74.25 18.84 73.09 C 17.03 73.25 15.22 73.36 13.43 73.65 C 12.25 73.68 10.95 74.75 9.86 74.01 C 10.39 72.92 11.11 71.93 12.01 71.06 L 11.41 70.11 C 11.59 70.28 11.97 70.63 12.15 70.81 Z" />
</g>
<g id="#23414d7c">
<path fill="#23414d" opacity="0.49" d=" M 13.69 80.09 C 13.92 79.96 14.38 79.70 14.62 79.57 C 14.73 79.79 14.96 80.24 15.08 80.46 C 15.48 80.42 16.28 80.35 16.68 80.32 C 17.81 82.97 12.56 82.89 13.69 80.09 Z" />
</g>
</svg>
