<?xml version="1.0" encoding="UTF-8" ?>
<!DOCTYPE svg PUBLIC "-//W3C//DTD SVG 1.1//EN" "http://www.w3.org/Graphics/SVG/1.1/DTD/svg11.dtd">
<svg width="96pt" height="96pt" viewBox="0 0 96 96" version="1.1" xmlns="http://www.w3.org/2000/svg">
<g id="#eda755ff">
<path fill="#eda755" opacity="1.00" d=" M 22.52 13.49 C 31.65 6.66 43.60 3.75 54.84 5.62 C 66.78 7.41 77.73 14.62 84.23 24.78 C 92.84 37.87 93.34 55.85 85.43 69.38 C 84.64 68.76 83.85 68.14 83.05 67.53 C 84.11 67.02 85.17 66.50 86.23 65.99 C 86.06 65.17 85.88 64.37 85.71 63.56 C 88.50 56.07 89.68 47.86 87.91 39.99 C 84.74 23.26 69.95 9.51 52.99 7.77 C 43.06 6.40 32.93 9.28 24.72 14.89 C 10.36 24.32 4.02 43.63 9.09 59.91 C 13.29 74.33 26.18 85.70 40.98 88.17 C 50.52 90.09 60.29 87.68 68.88 83.48 C 68.75 83.34 68.49 83.07 68.36 82.93 C 69.05 82.16 69.74 81.40 70.44 80.64 C 71.77 81.10 73.10 81.57 74.42 82.03 C 67.00 87.97 57.47 91.22 47.96 90.98 C 34.29 91.31 20.89 84.17 13.04 73.06 C 6.63 64.16 3.85 52.72 5.52 41.88 C 7.05 30.64 13.39 20.19 22.52 13.49 Z" />
</g>
<g id="#fded78ff">
<path fill="#fded78" opacity="1.00" d=" M 24.72 14.89 C 32.93 9.28 43.06 6.40 52.99 7.77 C 69.95 9.51 84.74 23.26 87.91 39.99 C 89.68 47.86 88.50 56.07 85.71 63.56 C 83.34 62.69 80.95 61.88 78.54 61.13 C 80.31 59.90 82.12 58.68 83.53 57.03 C 80.98 55.24 78.01 57.24 75.38 57.82 C 75.09 57.16 74.51 55.84 74.22 55.19 C 72.14 56.09 70.07 57.02 68.00 57.97 C 67.56 57.69 66.67 57.14 66.22 56.87 C 61.97 58.66 57.64 60.28 53.29 61.83 C 51.72 61.17 50.14 60.55 48.54 59.95 C 48.50 59.74 48.42 59.31 48.38 59.10 C 51.32 59.15 54.25 59.15 57.19 59.07 C 49.41 55.26 43.37 48.92 38.77 41.68 C 34.51 41.87 30.25 42.14 25.98 42.14 C 25.36 41.95 24.12 41.56 23.51 41.37 L 22.86 41.01 C 28.08 40.97 33.32 41.22 38.52 40.65 C 33.96 37.92 28.38 39.34 23.35 39.27 C 23.48 38.88 23.72 38.10 23.84 37.71 C 28.61 37.28 33.55 38.38 38.19 36.99 C 38.76 34.70 38.76 32.28 38.20 30.00 C 33.67 28.52 28.78 29.85 24.13 29.05 C 23.67 28.87 22.75 28.51 22.29 28.33 C 24.97 27.72 27.66 27.14 30.39 26.83 C 34.60 26.36 39.62 28.15 43.10 25.01 C 35.43 23.99 27.66 24.61 19.94 24.45 C 20.07 24.22 20.32 23.76 20.45 23.53 C 21.78 22.99 23.14 22.55 24.50 22.10 C 25.43 20.03 26.35 17.95 27.27 15.87 C 26.42 15.55 25.57 15.22 24.72 14.89 M 52.67 26.08 C 56.28 27.58 60.21 27.13 64.01 27.15 C 68.42 27.05 72.96 27.68 77.23 26.20 C 74.03 23.63 69.72 25.05 65.98 24.72 C 61.57 25.13 56.65 23.55 52.67 26.08 M 59.45 29.58 C 57.73 29.67 57.05 31.53 57.23 33.00 C 57.18 34.65 56.97 37.24 59.14 37.62 C 63.36 37.87 67.61 37.87 71.83 37.62 C 73.95 37.19 73.74 34.64 73.71 33.00 C 73.85 31.57 73.21 29.72 71.55 29.59 C 67.53 29.33 63.47 29.34 59.45 29.58 M 58.50 39.77 L 58.37 41.03 C 63.41 41.06 68.47 41.36 73.47 40.57 C 68.60 39.15 63.49 39.96 58.50 39.77 Z" />
</g>
<g id="#ffca73ff">
<path fill="#ffca73" opacity="1.00" d=" M 9.09 59.91 C 4.02 43.63 10.36 24.32 24.72 14.89 C 25.57 15.22 26.42 15.55 27.27 15.87 C 26.35 17.95 25.43 20.03 24.50 22.10 C 23.14 22.55 21.78 22.99 20.45 23.53 C 20.32 23.76 20.07 24.22 19.94 24.45 C 19.67 25.00 19.12 26.09 18.85 26.64 C 22.69 26.77 26.54 26.84 30.39 26.83 C 27.66 27.14 24.97 27.72 22.29 28.33 C 22.75 28.51 23.67 28.87 24.13 29.05 C 23.47 29.68 22.81 30.32 22.15 30.95 C 22.16 32.64 22.17 34.33 22.17 36.02 C 22.73 36.58 23.28 37.15 23.84 37.71 C 23.72 38.10 23.48 38.88 23.35 39.27 C 23.23 39.70 22.98 40.57 22.86 41.01 L 23.51 41.37 C 24.12 41.56 25.36 41.95 25.98 42.14 C 30.17 45.82 31.72 51.44 35.30 55.61 C 38.98 60.25 43.84 63.91 49.47 65.82 C 48.94 66.52 48.42 67.23 47.89 67.94 C 48.35 68.11 49.26 68.46 49.72 68.64 C 50.94 69.27 52.13 69.94 53.31 70.65 C 51.23 71.90 49.18 73.20 47.21 74.61 C 49.85 74.36 52.47 73.91 55.11 73.66 C 57.16 75.36 59.15 77.14 61.11 78.94 C 61.89 78.68 62.67 78.43 63.45 78.17 C 65.10 79.75 66.76 81.31 68.36 82.93 C 68.49 83.07 68.75 83.34 68.88 83.48 C 60.29 87.68 50.52 90.09 40.98 88.17 C 26.18 85.70 13.29 74.33 9.09 59.91 Z" />
</g>
<g id="#9f3914ff">
<path fill="#9f3914" opacity="1.00" d=" M 18.85 26.64 C 19.12 26.09 19.67 25.00 19.94 24.45 C 27.66 24.61 35.43 23.99 43.10 25.01 C 39.62 28.15 34.60 26.36 30.39 26.83 C 26.54 26.84 22.69 26.77 18.85 26.64 Z" />
</g>
<g id="#9c310aff">
<path fill="#9c310a" opacity="1.00" d=" M 52.67 26.08 C 56.65 23.55 61.57 25.13 65.98 24.72 C 69.72 25.05 74.03 23.63 77.23 26.20 C 72.96 27.68 68.42 27.05 64.01 27.15 C 60.21 27.13 56.28 27.58 52.67 26.08 Z" />
</g>
<g id="#1f1f1fff">
<path fill="#1f1f1f" opacity="1.00" d=" M 24.13 29.05 C 28.78 29.85 33.67 28.52 38.20 30.00 C 38.76 32.28 38.76 34.70 38.19 36.99 C 33.55 38.38 28.61 37.28 23.84 37.71 C 23.28 37.15 22.73 36.58 22.17 36.02 C 22.17 34.33 22.16 32.64 22.15 30.95 C 22.81 30.32 23.47 29.68 24.13 29.05 Z" />
<path fill="#1f1f1f" opacity="1.00" d=" M 59.45 29.58 C 63.47 29.34 67.53 29.33 71.55 29.59 C 73.21 29.72 73.85 31.57 73.71 33.00 C 73.74 34.64 73.95 37.19 71.83 37.62 C 67.61 37.87 63.36 37.87 59.14 37.62 C 56.97 37.24 57.18 34.65 57.23 33.00 C 57.05 31.53 57.73 29.67 59.45 29.58 Z" />
</g>
<g id="#d79b4cff">
<path fill="#d79b4c" opacity="1.00" d=" M 23.35 39.27 C 28.38 39.34 33.96 37.92 38.52 40.65 C 33.32 41.22 28.08 40.97 22.86 41.01 C 22.98 40.57 23.23 39.70 23.35 39.27 Z" />
</g>
<g id="#c5883cff">
<path fill="#c5883c" opacity="1.00" d=" M 58.50 39.77 C 63.49 39.96 68.60 39.15 73.47 40.57 C 68.47 41.36 63.41 41.06 58.37 41.03 L 58.50 39.77 Z" />
</g>
<g id="#fedd76ff">
<path fill="#fedd76" opacity="1.00" d=" M 25.98 42.14 C 30.25 42.14 34.51 41.87 38.77 41.68 C 43.37 48.92 49.41 55.26 57.19 59.07 C 54.25 59.15 51.32 59.15 48.38 59.10 C 48.42 59.31 48.50 59.74 48.54 59.95 C 48.64 60.42 48.82 61.34 48.91 61.81 C 50.48 62.72 52.10 63.54 53.70 64.39 C 52.39 65.82 51.01 67.19 49.72 68.64 C 49.26 68.46 48.35 68.11 47.89 67.94 C 48.42 67.23 48.94 66.52 49.47 65.82 C 43.84 63.91 38.98 60.25 35.30 55.61 C 31.72 51.44 30.17 45.82 25.98 42.14 Z" />
</g>
<g id="#a3400eff">
<path fill="#a3400e" opacity="1.00" d=" M 68.00 57.97 C 70.07 57.02 72.14 56.09 74.22 55.19 C 74.51 55.84 75.09 57.16 75.38 57.82 C 78.01 57.24 80.98 55.24 83.53 57.03 C 82.12 58.68 80.31 59.90 78.54 61.13 C 80.95 61.88 83.34 62.69 85.71 63.56 C 85.88 64.37 86.06 65.17 86.23 65.99 C 85.17 66.50 84.11 67.02 83.05 67.53 C 83.85 68.14 84.64 68.76 85.43 69.38 C 86.37 70.41 89.38 72.00 87.22 73.46 C 86.37 73.41 84.67 73.32 83.82 73.27 C 85.11 74.72 87.30 75.86 87.31 78.04 C 85.47 80.42 82.38 77.56 80.07 77.49 C 81.26 80.00 84.27 82.93 81.51 85.47 C 79.22 84.20 76.92 82.89 74.42 82.03 C 73.10 81.57 71.77 81.10 70.44 80.64 C 69.74 81.40 69.05 82.16 68.36 82.93 C 66.76 81.31 65.10 79.75 63.45 78.17 C 62.67 78.43 61.89 78.68 61.11 78.94 C 59.15 77.14 57.16 75.36 55.11 73.66 C 55.02 73.20 54.85 72.26 54.76 71.79 C 59.28 73.57 63.42 76.16 67.99 77.82 C 72.11 79.37 76.39 80.47 80.53 81.99 C 78.88 80.06 77.33 78.04 75.82 75.99 C 78.38 76.06 80.94 76.04 83.50 75.95 C 81.36 74.28 79.21 72.62 77.13 70.88 C 79.47 70.79 81.81 70.74 84.15 70.69 C 81.89 69.19 79.64 67.68 77.41 66.16 C 79.03 65.67 80.66 65.17 82.29 64.69 C 79.58 63.72 76.87 62.72 74.19 61.66 C 73.48 61.52 72.78 61.38 72.08 61.24 C 71.95 60.23 71.83 59.22 71.70 58.21 C 69.86 59.38 68.01 60.56 66.16 61.73 C 65.45 61.18 64.74 60.64 64.03 60.09 C 61.26 61.18 58.47 62.29 55.51 62.71 C 54.96 62.49 53.85 62.05 53.29 61.83 C 57.64 60.28 61.97 58.66 66.22 56.87 C 66.67 57.14 67.56 57.69 68.00 57.97 Z" />
</g>
<g id="#db4100ff">
<path fill="#db4100" opacity="1.00" d=" M 66.16 61.73 C 68.01 60.56 69.86 59.38 71.70 58.21 C 71.83 59.22 71.95 60.23 72.08 61.24 C 72.78 61.38 73.48 61.52 74.19 61.66 C 76.87 62.72 79.58 63.72 82.29 64.69 C 80.66 65.17 79.03 65.67 77.41 66.16 C 79.64 67.68 81.89 69.19 84.15 70.69 C 81.81 70.74 79.47 70.79 77.13 70.88 C 79.21 72.62 81.36 74.28 83.50 75.95 C 80.94 76.04 78.38 76.06 75.82 75.99 C 77.33 78.04 78.88 80.06 80.53 81.99 C 76.39 80.47 72.11 79.37 67.99 77.82 C 63.42 76.16 59.28 73.57 54.76 71.79 C 54.49 68.74 55.07 65.72 55.51 62.71 C 58.47 62.29 61.26 61.18 64.03 60.09 C 64.74 60.64 65.45 61.18 66.16 61.73 Z" />
</g>
<g id="#7f2815ff">
<path fill="#7f2815" opacity="1.00" d=" M 48.54 59.95 C 50.14 60.55 51.72 61.17 53.29 61.83 C 53.85 62.05 54.96 62.49 55.51 62.71 C 55.07 65.72 54.49 68.74 54.76 71.79 C 54.85 72.26 55.02 73.20 55.11 73.66 C 52.47 73.91 49.85 74.36 47.21 74.61 C 49.18 73.20 51.23 71.90 53.31 70.65 C 52.13 69.94 50.94 69.27 49.72 68.64 C 51.01 67.19 52.39 65.82 53.70 64.39 C 52.10 63.54 50.48 62.72 48.91 61.81 C 48.82 61.34 48.64 60.42 48.54 59.95 Z" />
</g>
</svg>
