<?xml version="1.0" encoding="UTF-8" ?>
<!DOCTYPE svg PUBLIC "-//W3C//DTD SVG 1.1//EN" "http://www.w3.org/Graphics/SVG/1.1/DTD/svg11.dtd">
<svg width="96pt" height="96pt" viewBox="0 0 96 96" version="1.1" xmlns="http://www.w3.org/2000/svg">
<path fill="#f1a15b" opacity="1.00" d=" M 38.43 6.62 C 49.84 3.15 62.25 6.67 71.99 13.01 C 81.03 18.92 87.18 28.68 89.56 39.14 C 92.19 48.16 90.18 57.84 86.31 66.20 C 79.03 82.43 60.57 92.45 43.01 90.46 C 37.07 89.18 30.99 87.59 25.85 84.21 C 12.19 76.10 4.12 59.76 5.43 44.02 C 6.89 34.62 10.68 25.31 17.47 18.48 C 23.07 12.57 30.59 8.65 38.43 6.62 M 40.03 9.11 C 36.52 8.92 33.45 11.12 30.36 12.51 C 21.20 16.39 13.97 24.29 10.78 33.68 C 9.46 37.84 7.33 42.24 8.30 46.67 C 10.35 47.36 11.97 44.35 14.24 45.21 C 12.13 47.04 11.24 49.83 12.39 52.47 C 15.04 54.26 18.93 54.24 21.58 52.49 C 22.94 50.11 22.01 46.80 19.76 45.22 C 23.40 43.81 29.66 48.70 26.38 52.41 C 22.97 54.38 19.00 55.72 15.02 55.24 C 12.57 55.34 10.87 52.25 8.36 53.27 C 9.85 63.71 15.62 74.27 24.60 80.36 C 37.95 90.55 58.06 90.57 71.40 80.36 C 78.67 75.43 83.83 67.63 86.21 59.26 C 87.11 57.81 89.21 53.72 87.07 52.82 C 82.95 55.13 77.41 56.83 73.28 53.64 C 71.18 52.54 67.94 50.51 69.73 47.74 C 71.76 46.01 74.32 44.04 77.13 45.26 C 73.90 46.31 73.67 49.70 74.42 52.55 C 76.82 54.24 80.37 54.13 82.99 52.98 C 85.90 51.06 84.42 46.73 81.88 45.23 C 84.37 43.75 85.69 46.96 88.05 46.86 C 89.08 40.50 85.62 34.44 83.33 28.72 C 75.82 15.79 61.16 6.71 46.00 7.66 C 43.91 7.62 41.57 7.37 40.03 9.11 Z" />
<path fill="#fde877" opacity="1.00" d=" M 40.03 9.11 C 41.57 7.37 43.91 7.62 46.00 7.66 C 61.16 6.71 75.82 15.79 83.33 28.72 C 85.62 34.44 89.08 40.50 88.05 46.86 C 85.69 46.96 84.37 43.75 81.88 45.23 C 80.30 45.29 78.71 45.31 77.13 45.26 C 74.32 44.04 71.76 46.01 69.73 47.74 C 67.94 50.51 71.18 52.54 73.28 53.64 C 77.41 56.83 82.95 55.13 87.07 52.82 C 89.21 53.72 87.11 57.81 86.21 59.26 C 79.19 63.82 70.76 62.36 62.97 62.37 C 55.21 62.11 49.64 56.41 43.45 52.54 C 42.01 49.74 40.43 47.00 37.93 44.98 C 37.14 43.45 34.62 46.28 34.71 44.08 C 36.44 41.61 37.07 37.76 34.15 35.88 C 32.27 34.17 29.54 34.34 27.75 36.07 L 27.06 36.25 C 24.72 34.98 26.34 33.32 28.21 32.91 C 33.43 32.41 39.62 26.04 35.85 20.99 C 34.59 20.14 34.47 18.69 35.25 17.46 C 36.82 14.51 35.96 9.92 40.03 9.11 M 59.34 21.24 C 58.61 25.07 60.93 28.95 63.95 31.15 C 66.21 33.70 69.91 32.49 72.89 32.67 C 74.92 32.97 75.07 30.68 74.83 29.27 C 72.23 29.03 69.61 29.52 67.02 29.13 C 64.24 28.08 62.70 25.26 62.42 22.43 C 62.26 21.01 60.33 21.42 59.34 21.24 M 62.94 36.08 C 57.32 37.62 62.00 47.62 67.17 45.04 C 70.80 44.22 71.80 37.71 69.02 36.45 C 67.88 34.48 63.95 33.90 62.94 36.08 Z" />
<path fill="#ffcf74" opacity="1.00" d=" M 30.36 12.51 C 33.45 11.12 36.52 8.92 40.03 9.11 C 35.96 9.92 36.82 14.51 35.25 17.46 C 34.47 18.69 34.59 20.14 35.85 20.99 C 33.13 21.35 34.71 25.25 32.51 26.55 C 29.75 30.06 25.12 29.12 21.25 29.30 C 20.05 33.70 25.60 32.58 28.21 32.91 C 26.34 33.32 24.72 34.98 27.06 36.25 C 22.43 40.90 29.91 48.74 34.71 44.08 C 34.62 46.28 37.14 43.45 37.93 44.98 C 40.43 47.00 42.01 49.74 43.45 52.54 C 49.64 56.41 55.21 62.11 62.97 62.37 C 70.76 62.36 79.19 63.82 86.21 59.26 C 83.83 67.63 78.67 75.43 71.40 80.36 C 58.06 90.57 37.95 90.55 24.60 80.36 C 15.62 74.27 9.85 63.71 8.36 53.27 C 10.87 52.25 12.57 55.34 15.02 55.24 C 19.00 55.72 22.97 54.38 26.38 52.41 C 29.66 48.70 23.40 43.81 19.76 45.22 C 17.92 45.33 16.08 45.27 14.24 45.21 C 11.97 44.35 10.35 47.36 8.30 46.67 C 7.33 42.24 9.46 37.84 10.78 33.68 C 13.97 24.29 21.20 16.39 30.36 12.51 M 43.45 71.49 C 41.24 73.59 38.63 76.96 35.23 74.74 C 35.04 72.92 34.33 71.58 32.32 72.35 C 31.63 75.95 36.15 77.50 39.00 77.10 C 41.68 76.99 42.54 73.72 45.02 73.20 C 47.58 73.45 48.29 76.99 50.98 76.83 C 54.55 77.64 55.72 72.95 59.00 72.71 C 61.35 72.60 62.30 75.74 64.85 74.85 C 63.26 72.32 60.47 69.93 57.31 71.40 C 54.64 72.00 52.55 76.99 49.66 74.29 C 48.58 72.01 45.91 70.57 43.45 71.49 Z" />
<path fill="#a33c0d" opacity="1.00" d=" M 32.51 26.55 C 34.71 25.25 33.13 21.35 35.85 20.99 C 39.62 26.04 33.43 32.41 28.21 32.91 C 25.60 32.58 20.05 33.70 21.25 29.30 C 25.12 29.12 29.75 30.06 32.51 26.55 Z" />
<path fill="#a33c0d" opacity="1.00" d=" M 59.34 21.24 C 60.33 21.42 62.26 21.01 62.42 22.43 C 62.70 25.26 64.24 28.08 67.02 29.13 C 69.61 29.52 72.23 29.03 74.83 29.27 C 75.07 30.68 74.92 32.97 72.89 32.67 C 69.91 32.49 66.21 33.70 63.95 31.15 C 60.93 28.95 58.61 25.07 59.34 21.24 Z" />
<path fill="#7e7e7b" opacity="1.00" d=" M 27.75 36.07 C 29.54 34.34 32.27 34.17 34.15 35.88 C 33.54 39.55 28.47 39.79 27.75 36.07 Z" />
<path fill="#7e7e7b" opacity="1.00" d=" M 62.94 36.08 C 63.95 33.90 67.88 34.48 69.02 36.45 C 67.41 37.85 63.20 39.17 62.94 36.08 Z" />
<path fill="#1f1f1f" opacity="1.00" d=" M 27.06 36.25 L 27.75 36.07 C 28.47 39.79 33.54 39.55 34.15 35.88 C 37.07 37.76 36.44 41.61 34.71 44.08 C 29.91 48.74 22.43 40.90 27.06 36.25 Z" />
<path fill="#1f1f1f" opacity="1.00" d=" M 67.17 45.04 C 62.00 47.62 57.32 37.62 62.94 36.08 C 63.20 39.17 67.41 37.85 69.02 36.45 C 71.80 37.71 70.80 44.22 67.17 45.04 Z" />
<path fill="#ed8f3d" opacity="1.00" d=" M 14.24 45.21 C 16.08 45.27 17.92 45.33 19.76 45.22 C 22.01 46.80 22.94 50.11 21.58 52.49 C 18.93 54.24 15.04 54.26 12.39 52.47 C 11.24 49.83 12.13 47.04 14.24 45.21 Z" />
<path fill="#ed8f3d" opacity="1.00" d=" M 77.13 45.26 C 78.71 45.31 80.30 45.29 81.88 45.23 C 84.42 46.73 85.90 51.06 82.99 52.98 C 80.37 54.13 76.82 54.24 74.42 52.55 C 73.67 49.70 73.90 46.31 77.13 45.26 Z" />
<path fill="#a33c0d" opacity="1.00" d=" M 43.45 71.49 C 45.91 70.57 48.58 72.01 49.66 74.29 C 52.55 76.99 54.64 72.00 57.31 71.40 C 60.47 69.93 63.26 72.32 64.85 74.85 C 62.30 75.74 61.35 72.60 59.00 72.71 C 55.72 72.95 54.55 77.64 50.98 76.83 C 48.29 76.99 47.58 73.45 45.02 73.20 C 42.54 73.72 41.68 76.99 39.00 77.10 C 36.15 77.50 31.63 75.95 32.32 72.35 C 34.33 71.58 35.04 72.92 35.23 74.74 C 38.63 76.96 41.24 73.59 43.45 71.49 Z" />
</svg>
