<?xml version="1.0" encoding="UTF-8" ?>
<!DOCTYPE svg PUBLIC "-//W3C//DTD SVG 1.1//EN" "http://www.w3.org/Graphics/SVG/1.1/DTD/svg11.dtd">
<svg width="96pt" height="96pt" viewBox="0 0 96 96" version="1.1" xmlns="http://www.w3.org/2000/svg">
<path fill="#efa852" opacity="1.00" d=" M 31.62 9.40 C 42.57 4.76 55.63 4.98 66.33 10.22 C 65.58 10.80 64.82 11.39 64.08 11.98 C 54.74 7.82 43.72 8.38 34.05 11.07 C 33.24 10.51 32.43 9.96 31.62 9.40 Z" />
<path fill="#993308" opacity="0.97" d=" M 20.65 16.04 C 22.52 11.91 26.49 6.93 31.62 9.40 C 32.43 9.96 33.24 10.51 34.05 11.07 C 35.10 13.51 35.99 16.22 32.21 15.24 C 29.50 9.95 25.83 13.87 23.75 17.27 C 22.71 16.87 21.68 16.46 20.65 16.04 Z" />
<path fill="#fee774" opacity="1.00" d=" M 34.05 11.07 C 43.72 8.38 54.74 7.82 64.08 11.98 C 62.67 15.78 65.84 15.92 68.16 13.82 C 83.52 22.61 92.49 41.80 87.13 59.05 C 84.65 58.37 80.27 59.98 79.06 57.35 C 82.85 57.39 87.85 54.58 86.07 50.12 C 82.24 44.49 68.74 44.80 69.76 53.53 C 62.61 54.41 66.65 44.73 60.93 42.89 C 56.84 45.38 56.60 51.00 52.97 54.07 C 49.58 51.47 45.51 48.66 41.00 49.76 C 36.99 50.32 34.78 54.00 31.76 56.21 C 28.12 55.71 25.15 57.39 23.30 60.53 C 22.89 59.24 22.87 57.88 22.82 56.55 C 27.47 54.28 26.43 48.52 21.97 46.76 C 20.36 46.41 18.72 46.16 17.11 45.81 C 18.67 43.61 19.98 41.12 19.72 38.31 C 19.64 37.62 19.54 36.93 19.42 36.25 C 23.33 39.08 26.10 33.56 29.98 33.70 C 33.23 33.48 35.84 35.86 38.93 36.40 C 44.21 36.70 46.60 28.55 42.22 25.80 C 37.19 21.95 30.50 22.06 24.52 22.79 C 25.39 19.23 30.04 21.27 32.70 20.55 C 32.65 18.82 29.27 15.43 32.21 15.24 C 35.99 16.22 35.10 13.51 34.05 11.07 M 55.42 24.44 C 50.51 25.93 49.86 33.34 54.32 35.66 C 58.10 37.89 61.20 33.24 64.99 33.49 C 68.99 32.89 71.17 37.43 75.14 37.06 C 78.42 42.23 85.95 35.59 80.43 31.74 C 78.32 21.12 63.46 20.28 55.42 24.44 Z" />
<path fill="#993308" opacity="0.97" d=" M 66.33 10.22 C 70.67 7.38 76.15 10.64 77.91 14.86 C 77.42 15.21 76.46 15.93 75.98 16.29 C 73.61 15.09 70.92 11.71 68.16 13.82 C 65.84 15.92 62.67 15.78 64.08 11.98 C 64.82 11.39 65.58 10.80 66.33 10.22 Z" />
<path fill="#ffce74" opacity="1.00" d=" M 23.75 17.27 C 25.83 13.87 29.50 9.95 32.21 15.24 C 29.27 15.43 32.65 18.82 32.70 20.55 C 30.04 21.27 25.39 19.23 24.52 22.79 C 20.22 24.31 15.43 27.10 15.21 32.22 C 11.28 35.97 15.18 40.39 19.72 38.31 C 19.98 41.12 18.67 43.61 17.11 45.81 C 18.72 46.16 20.36 46.41 21.97 46.76 C 17.42 45.96 9.50 46.87 9.80 52.96 C 12.20 57.74 18.30 58.01 22.82 56.55 C 22.87 57.88 22.89 59.24 23.30 60.53 C 26.27 66.25 26.43 72.93 22.02 77.99 C 12.88 70.16 7.17 58.38 7.54 46.29 C 8.55 34.95 13.97 23.56 23.75 17.27 Z" />
<path fill="#efa852" opacity="1.00" d=" M 68.16 13.82 C 70.92 11.71 73.61 15.09 75.98 16.29 C 88.06 25.64 93.44 42.26 90.03 57.05 C 85.12 81.11 56.63 96.23 33.93 87.14 C 34.48 86.40 35.06 85.68 35.69 85.00 C 48.85 89.12 65.41 87.00 75.12 76.47 C 75.82 75.76 76.53 75.06 77.25 74.36 C 80.75 71.58 82.96 67.64 85.02 63.76 C 86.10 62.35 88.17 61.05 87.13 59.05 C 92.49 41.80 83.52 22.61 68.16 13.82 Z" />
<path fill="#efa852" opacity="1.00" d=" M 9.84 67.10 C 0.58 50.45 5.26 27.20 20.65 16.04 C 21.68 16.46 22.71 16.87 23.75 17.27 C 13.97 23.56 8.55 34.95 7.54 46.29 C 7.17 58.38 12.88 70.16 22.02 77.99 C 21.77 78.40 21.27 79.21 21.02 79.62 C 16.03 77.45 12.72 71.76 9.84 67.10 Z" />
<path fill="#050608" opacity="1.00" d=" M 55.42 24.44 C 63.46 20.28 78.32 21.12 80.43 31.74 L 80.46 31.89 C 78.89 33.81 77.12 35.54 75.16 37.06 L 75.14 37.06 C 71.17 37.43 68.99 32.89 64.99 33.49 C 61.20 33.24 58.10 37.89 54.32 35.66 C 49.86 33.34 50.51 25.93 55.42 24.44 M 59.51 24.58 C 56.67 25.58 51.97 27.14 53.14 31.09 C 53.26 33.84 56.71 35.55 58.89 33.69 C 62.61 31.45 67.76 30.84 71.25 33.86 C 74.16 37.38 80.82 31.76 77.50 28.46 C 73.17 23.38 65.53 23.23 59.51 24.58 Z" />
<path fill="#050608" opacity="1.00" d=" M 15.21 32.22 C 15.43 27.10 20.22 24.31 24.52 22.79 C 30.50 22.06 37.19 21.95 42.22 25.80 C 46.60 28.55 44.21 36.70 38.93 36.40 C 35.84 35.86 33.23 33.48 29.98 33.70 C 26.10 33.56 23.33 39.08 19.42 36.25 C 18.31 35.24 17.21 34.21 16.13 33.17 C 15.90 32.93 15.44 32.46 15.21 32.22 M 28.02 24.16 C 23.58 24.44 18.52 26.48 16.97 31.01 C 18.21 33.36 21.46 36.93 24.03 34.30 C 27.95 30.72 33.65 31.83 37.84 34.28 C 41.69 36.11 44.50 29.88 41.62 27.45 C 37.84 24.38 32.73 23.75 28.02 24.16 Z" />
<path fill="#ffffff" opacity="1.00" d=" M 28.02 24.16 C 32.73 23.75 37.84 24.38 41.62 27.45 C 44.50 29.88 41.69 36.11 37.84 34.28 C 33.65 31.83 27.95 30.72 24.03 34.30 C 21.46 36.93 18.21 33.36 16.97 31.01 C 18.52 26.48 23.58 24.44 28.02 24.16 M 29.46 26.40 C 27.60 27.06 28.05 30.01 30.07 29.73 C 32.11 29.94 31.68 25.51 29.46 26.40 Z" />
<path fill="#ffffff" opacity="1.00" d=" M 59.51 24.58 C 65.53 23.23 73.17 23.38 77.50 28.46 C 80.82 31.76 74.16 37.38 71.25 33.86 C 67.76 30.84 62.61 31.45 58.89 33.69 C 56.71 35.55 53.26 33.84 53.14 31.09 C 51.97 27.14 56.67 25.58 59.51 24.58 M 64.56 26.42 C 64.52 27.52 64.02 30.17 65.98 29.51 C 68.93 29.35 67.01 25.01 64.56 26.42 Z" />
<path fill="#050608" opacity="1.00" d=" M 29.46 26.40 C 31.68 25.51 32.11 29.94 30.07 29.73 C 28.05 30.01 27.60 27.06 29.46 26.40 Z" />
<path fill="#050608" opacity="1.00" d=" M 64.56 26.42 C 67.01 25.01 68.93 29.35 65.98 29.51 C 64.02 30.17 64.52 27.52 64.56 26.42 Z" />
<path fill="#09a3f1" opacity="1.00" d=" M 80.43 31.74 C 85.95 35.59 78.42 42.23 75.14 37.06 L 75.16 37.06 C 78.60 39.37 83.29 35.56 80.46 31.89 L 80.43 31.74 Z" />
<path fill="#09a3f1" opacity="1.00" d=" M 19.72 38.31 C 15.18 40.39 11.28 35.97 15.21 32.22 C 15.44 32.46 15.90 32.93 16.13 33.17 C 13.08 35.68 16.74 38.84 19.42 36.25 C 19.54 36.93 19.64 37.62 19.72 38.31 Z" />
<path fill="#aedaed" opacity="1.00" d=" M 75.16 37.06 C 77.12 35.54 78.89 33.81 80.46 31.89 C 83.29 35.56 78.60 39.37 75.16 37.06 Z" />
<path fill="#aedaed" opacity="1.00" d=" M 19.42 36.25 C 16.74 38.84 13.08 35.68 16.13 33.17 C 17.21 34.21 18.31 35.24 19.42 36.25 Z" />
<path fill="#09a3f1" opacity="1.00" d=" M 52.97 54.07 C 56.60 51.00 56.84 45.38 60.93 42.89 C 66.65 44.73 62.61 54.41 69.76 53.53 C 73.14 53.30 76.64 51.12 79.94 52.20 C 79.88 53.95 79.31 55.63 79.06 57.35 C 80.27 59.98 84.65 58.37 87.13 59.05 C 88.17 61.05 86.10 62.35 85.02 63.76 C 82.00 65.50 78.73 66.81 75.25 67.26 C 78.44 68.60 76.88 71.73 77.25 74.36 C 76.53 75.06 75.82 75.76 75.12 76.47 C 72.11 75.66 69.52 73.92 66.81 72.44 C 65.32 74.87 64.46 77.61 64.04 80.42 C 59.22 81.52 55.75 76.03 52.62 73.07 C 53.22 72.37 53.81 71.67 54.40 70.96 C 55.01 74.83 58.98 78.85 62.88 76.14 C 66.00 74.90 63.13 72.82 61.24 72.23 C 62.80 71.59 64.44 71.17 66.10 70.86 L 67.19 70.90 C 68.45 71.57 69.69 72.27 70.94 72.95 C 73.76 75.11 76.49 74.47 74.67 70.70 C 77.13 70.20 71.29 68.73 72.18 66.60 C 73.90 66.11 75.67 65.80 77.41 65.38 C 80.37 64.44 84.09 63.36 85.41 60.27 C 82.88 59.78 79.94 60.47 77.67 59.12 C 76.94 57.03 77.81 54.85 78.03 52.76 C 76.13 53.38 74.25 54.08 72.36 54.73 C 71.90 54.86 70.97 55.10 70.50 55.22 C 67.35 55.28 64.84 53.47 62.97 51.11 C 63.71 48.57 62.86 45.90 60.24 44.93 C 58.31 48.51 56.09 51.95 54.56 55.73 C 54.03 55.17 53.51 54.62 52.97 54.07 Z" />
<path fill="#60bfe6" opacity="1.00" d=" M 60.24 44.93 C 62.86 45.90 63.71 48.57 62.97 51.11 C 61.79 56.50 63.10 62.42 62.69 68.02 C 62.08 70.38 64.49 70.42 66.10 70.86 C 64.44 71.17 62.80 71.59 61.24 72.23 C 63.13 72.82 66.00 74.90 62.88 76.14 C 58.98 78.85 55.01 74.83 54.40 70.96 C 58.11 66.58 58.84 60.02 54.56 55.73 C 56.09 51.95 58.31 48.51 60.24 44.93 Z" />
<path fill="#f29456" opacity="1.00" d=" M 9.80 52.96 C 9.50 46.87 17.42 45.96 21.97 46.76 C 26.43 48.52 27.47 54.28 22.82 56.55 C 18.30 58.01 12.20 57.74 9.80 52.96 M 16.56 48.58 C 15.25 49.29 12.94 49.91 13.35 51.83 C 14.59 55.77 21.08 55.86 22.61 52.06 C 22.16 49.40 19.07 47.59 16.56 48.58 Z" />
<path fill="#efa852" opacity="1.00" d=" M 69.76 53.53 C 68.74 44.80 82.24 44.49 86.07 50.12 C 87.85 54.58 82.85 57.39 79.06 57.35 C 79.31 55.63 79.88 53.95 79.94 52.20 C 76.64 51.12 73.14 53.30 69.76 53.53 Z" />
<path fill="#ee8738" opacity="1.00" d=" M 16.56 48.58 C 19.07 47.59 22.16 49.40 22.61 52.06 C 21.08 55.86 14.59 55.77 13.35 51.83 C 12.94 49.91 15.25 49.29 16.56 48.58 Z" />
<path fill="#ee8738" opacity="1.00" d=" M 31.76 56.21 C 34.78 54.00 36.99 50.32 41.00 49.76 C 45.51 48.66 49.58 51.47 52.97 54.07 C 53.51 54.62 54.03 55.17 54.56 55.73 C 58.84 60.02 58.11 66.58 54.40 70.96 C 53.81 71.67 53.22 72.37 52.62 73.07 C 47.74 78.15 39.95 79.09 35.69 85.00 C 35.06 85.68 34.48 86.40 33.93 87.14 C 33.00 88.53 30.19 92.81 29.94 88.89 C 33.71 84.40 36.97 78.97 42.63 76.64 C 47.98 74.53 53.58 70.84 55.05 64.93 C 56.51 58.13 49.74 52.85 43.85 51.38 C 38.12 51.00 34.81 56.49 31.40 60.16 C 28.59 56.08 24.65 60.83 26.93 64.14 C 30.25 71.38 24.10 77.53 21.50 83.79 C 17.60 85.31 19.73 81.30 21.02 79.62 C 21.27 79.21 21.77 78.40 22.02 77.99 C 26.43 72.93 26.27 66.25 23.30 60.53 C 25.15 57.39 28.12 55.71 31.76 56.21 Z" />
<path fill="#fee774" opacity="1.00" d=" M 31.40 60.16 C 34.81 56.49 38.12 51.00 43.85 51.38 C 49.74 52.85 56.51 58.13 55.05 64.93 C 53.58 70.84 47.98 74.53 42.63 76.64 C 36.97 78.97 33.71 84.40 29.94 88.89 C 27.08 87.27 24.27 85.55 21.50 83.79 C 24.10 77.53 30.25 71.38 26.93 64.14 C 24.65 60.83 28.59 56.08 31.40 60.16 Z" />
<path fill="#78c7e8" opacity="1.00" d=" M 62.69 68.02 C 63.10 62.42 61.79 56.50 62.97 51.11 C 64.84 53.47 67.35 55.28 70.50 55.22 C 69.51 55.65 68.55 56.13 67.61 56.67 C 68.72 61.39 68.61 66.26 67.19 70.90 L 66.10 70.86 C 64.49 70.42 62.08 70.38 62.69 68.02 Z" />
<path fill="#aedaed" opacity="1.00" d=" M 72.36 54.73 C 74.25 54.08 76.13 53.38 78.03 52.76 C 77.81 54.85 76.94 57.03 77.67 59.12 C 79.94 60.47 82.88 59.78 85.41 60.27 C 84.09 63.36 80.37 64.44 77.41 65.38 C 70.58 66.53 73.24 58.93 72.36 54.73 Z" />
<path fill="#93d1eb" opacity="1.00" d=" M 70.50 55.22 C 70.97 55.10 71.90 54.86 72.36 54.73 C 73.24 58.93 70.58 66.53 77.41 65.38 C 75.67 65.80 73.90 66.11 72.18 66.60 C 71.29 68.73 77.13 70.20 74.67 70.70 C 72.79 69.80 72.00 71.87 70.94 72.95 C 69.69 72.27 68.45 71.57 67.19 70.90 C 68.61 66.26 68.72 61.39 67.61 56.67 C 68.55 56.13 69.51 55.65 70.50 55.22 Z" />
<path fill="#ffce74" opacity="1.00" d=" M 75.25 67.26 C 78.73 66.81 82.00 65.50 85.02 63.76 C 82.96 67.64 80.75 71.58 77.25 74.36 C 76.88 71.73 78.44 68.60 75.25 67.26 Z" />
<path fill="#aedaed" opacity="1.00" d=" M 70.94 72.95 C 72.00 71.87 72.79 69.80 74.67 70.70 C 76.49 74.47 73.76 75.11 70.94 72.95 Z" />
<path fill="#ffce74" opacity="1.00" d=" M 35.69 85.00 C 39.95 79.09 47.74 78.15 52.62 73.07 C 55.75 76.03 59.22 81.52 64.04 80.42 C 64.46 77.61 65.32 74.87 66.81 72.44 C 69.52 73.92 72.11 75.66 75.12 76.47 C 65.41 87.00 48.85 89.12 35.69 85.00 Z" />
</svg>
