<?xml version="1.0" encoding="UTF-8" ?>
<!DOCTYPE svg PUBLIC "-//W3C//DTD SVG 1.1//EN" "http://www.w3.org/Graphics/SVG/1.1/DTD/svg11.dtd">
<svg width="96pt" height="96pt" viewBox="0 0 96 96" version="1.1" xmlns="http://www.w3.org/2000/svg">
<g id="#92590fd5">
<path fill="#92590f" opacity="0.84" d=" M 22.41 18.56 C 27.56 17.38 33.53 17.86 37.59 21.55 C 41.10 24.78 43.85 28.79 45.99 33.03 C 48.87 38.61 47.72 45.90 43.29 50.34 C 37.85 56.09 28.68 56.24 23.70 62.57 C 20.36 66.38 22.99 72.13 20.17 76.17 C 17.50 79.82 12.03 79.70 8.33 77.83 C 5.42 76.41 5.27 72.82 5.04 70.03 C 4.82 57.22 5.26 44.17 8.83 31.79 C 10.65 25.42 15.54 19.51 22.41 18.56 M 20.24 20.20 C 14.82 21.84 11.41 26.94 9.83 32.11 C 6.00 44.99 6.02 58.57 6.31 71.87 C 5.84 79.54 19.54 80.28 20.40 72.91 C 20.72 69.30 20.21 65.30 22.62 62.25 C 27.56 55.25 37.55 55.40 43.01 49.03 C 46.87 44.83 47.67 38.22 44.92 33.22 C 42.75 29.18 40.20 25.21 36.71 22.19 C 32.22 18.28 25.61 18.72 20.24 20.20 Z" />
<path fill="#92590f" opacity="0.84" d=" M 53.44 19.68 C 58.24 18.19 62.86 21.98 64.74 26.17 C 66.77 29.85 66.73 34.47 69.31 37.82 C 72.25 39.23 74.10 35.51 76.41 34.35 C 82.83 30.05 92.24 36.81 90.96 44.20 C 89.72 48.70 84.80 50.33 80.83 51.62 C 71.85 54.33 65.11 61.67 60.71 69.68 C 58.86 72.73 57.42 76.63 53.79 77.97 C 51.29 78.98 47.76 79.27 46.03 76.76 C 44.53 73.42 46.67 70.06 47.97 67.05 C 51.38 59.52 55.16 51.50 54.18 43.01 C 53.75 37.51 49.66 33.25 48.71 27.92 C 48.08 24.53 49.97 20.61 53.44 19.68 M 52.38 21.30 C 49.57 23.04 49.02 26.86 50.20 29.75 C 51.96 34.45 55.22 38.73 55.35 43.92 C 56.05 54.05 50.63 63.05 46.90 72.08 C 45.83 74.10 46.56 77.04 48.98 77.60 C 52.96 78.37 56.54 75.49 58.17 72.06 C 62.54 63.64 68.62 55.45 77.62 51.67 C 81.66 49.90 86.80 49.40 89.38 45.37 C 91.81 39.88 85.97 33.48 80.32 34.23 C 76.75 34.13 74.79 37.64 71.88 39.09 C 70.08 40.01 68.01 38.65 67.38 36.93 C 65.47 32.42 65.17 27.07 61.57 23.42 C 59.42 20.82 55.42 19.35 52.38 21.30 Z" />
<path fill="#92590f" opacity="0.84" d=" M 23.43 26.62 C 27.02 25.06 30.60 27.64 33.39 29.68 C 39.37 33.78 38.91 44.91 31.67 47.43 C 28.37 48.53 23.32 49.76 21.25 46.00 C 19.20 42.82 16.51 39.04 17.95 35.08 C 19.13 31.94 20.79 28.77 23.43 26.62 M 25.23 27.08 C 20.10 29.73 16.68 37.42 20.36 42.61 C 21.68 44.72 22.95 47.74 25.94 47.51 C 29.82 47.34 34.57 45.94 35.89 41.81 C 36.79 38.29 36.64 33.84 33.64 31.33 C 31.26 29.33 28.46 27.19 25.23 27.08 Z" />
</g>
<g id="#ffcd74ff">
<path fill="#ffcd74" opacity="1.00" d=" M 20.24 20.20 C 25.61 18.72 32.22 18.28 36.71 22.19 C 40.20 25.21 42.75 29.18 44.92 33.22 C 47.67 38.22 46.87 44.83 43.01 49.03 C 37.55 55.40 27.56 55.25 22.62 62.25 C 20.21 65.30 20.72 69.30 20.40 72.91 C 19.54 80.28 5.84 79.54 6.31 71.87 C 6.02 58.57 6.00 44.99 9.83 32.11 C 11.41 26.94 14.82 21.84 20.24 20.20 M 23.43 26.62 C 20.79 28.77 19.13 31.94 17.95 35.08 C 16.51 39.04 19.20 42.82 21.25 46.00 C 23.32 49.76 28.37 48.53 31.67 47.43 C 38.91 44.91 39.37 33.78 33.39 29.68 C 30.60 27.64 27.02 25.06 23.43 26.62 Z" />
<path fill="#ffcd74" opacity="1.00" d=" M 52.38 21.30 C 55.42 19.35 59.42 20.82 61.57 23.42 C 65.17 27.07 65.47 32.42 67.38 36.93 C 68.01 38.65 70.08 40.01 71.88 39.09 C 74.79 37.64 76.75 34.13 80.32 34.23 C 85.97 33.48 91.81 39.88 89.38 45.37 C 86.80 49.40 81.66 49.90 77.62 51.67 C 68.62 55.45 62.54 63.64 58.17 72.06 C 56.54 75.49 52.96 78.37 48.98 77.60 C 46.56 77.04 45.83 74.10 46.90 72.08 C 50.63 63.05 56.05 54.05 55.35 43.92 C 55.22 38.73 51.96 34.45 50.20 29.75 C 49.02 26.86 49.57 23.04 52.38 21.30 Z" />
</g>
</svg>
