<?xml version="1.0" encoding="UTF-8" ?>
<!DOCTYPE svg PUBLIC "-//W3C//DTD SVG 1.1//EN" "http://www.w3.org/Graphics/SVG/1.1/DTD/svg11.dtd">
<svg width="96pt" height="96pt" viewBox="0 0 96 96" version="1.1" xmlns="http://www.w3.org/2000/svg">
<g id="#f0ad54ff">
<path fill="#f0ad54" opacity="1.00" d=" M 49.83 23.90 C 48.71 17.55 52.72 9.03 59.98 9.03 C 66.42 8.38 71.62 14.05 73.08 19.85 C 74.52 26.63 73.96 33.93 71.13 40.29 C 77.34 40.27 84.76 39.70 89.48 44.55 C 92.16 48.90 91.01 54.62 88.81 58.95 C 91.30 63.37 91.58 69.18 87.82 72.99 C 88.11 76.17 88.40 79.72 86.49 82.49 C 84.33 85.27 80.87 86.69 77.47 87.16 C 70.67 88.10 63.78 88.06 56.94 87.74 C 50.91 87.41 45.50 84.44 40.37 81.50 C 34.28 82.62 28.00 83.10 22.18 85.35 C 19.35 86.38 16.10 87.23 13.25 85.77 C 9.22 83.68 7.29 79.18 6.17 75.01 C 4.21 67.34 4.72 58.69 9.18 51.97 C 10.45 50.09 12.04 48.03 14.42 47.63 C 23.73 46.00 33.20 47.06 42.58 46.51 C 43.93 38.57 51.51 32.37 49.83 23.90 M 54.21 15.34 C 51.42 19.32 52.98 24.26 52.67 28.73 C 52.13 34.64 47.32 38.98 46.42 44.80 C 45.39 46.17 44.78 47.79 43.99 49.30 C 40.36 49.35 36.73 49.37 33.09 49.39 C 31.13 59.20 32.25 69.62 35.95 78.90 C 38.91 78.62 42.00 78.61 44.49 80.49 C 53.20 86.22 64.09 85.58 74.01 84.74 C 77.32 84.32 81.11 84.14 83.52 81.51 C 85.47 79.53 85.07 76.52 85.41 73.99 C 79.96 77.22 73.33 77.34 67.39 75.47 C 67.04 74.52 67.30 73.89 68.16 73.56 C 72.05 73.61 76.00 75.17 79.83 73.84 C 82.38 72.95 84.86 71.63 86.74 69.67 C 88.65 66.84 87.41 63.32 86.71 60.31 C 79.61 62.49 72.08 63.54 64.70 62.39 C 63.42 62.28 62.66 61.57 62.43 60.25 C 63.17 60.11 64.67 59.84 65.42 59.71 C 71.49 61.28 77.94 60.42 83.89 58.70 C 87.69 57.81 88.03 53.19 88.24 50.01 C 88.61 47.48 86.90 45.20 84.56 44.41 C 78.58 42.27 72.07 42.96 65.87 43.52 C 70.41 37.77 71.76 30.09 70.89 22.95 C 70.48 19.45 68.98 16.00 66.19 13.76 C 62.82 10.60 56.43 11.00 54.21 15.34 M 23.86 51.35 C 26.14 51.00 28.21 51.71 29.97 53.14 C 29.67 51.66 29.54 49.74 27.75 49.30 C 26.06 48.24 24.43 49.83 23.86 51.35 Z" />
</g>
<g id="#fde877ff">
<path fill="#fde877" opacity="1.00" d=" M 54.21 15.34 C 56.43 11.00 62.82 10.60 66.19 13.76 C 68.98 16.00 70.48 19.45 70.89 22.95 C 71.76 30.09 70.41 37.77 65.87 43.52 C 72.07 42.96 78.58 42.27 84.56 44.41 C 86.90 45.20 88.61 47.48 88.24 50.01 C 88.03 53.19 87.69 57.81 83.89 58.70 C 77.94 60.42 71.49 61.28 65.42 59.71 C 69.35 59.06 73.32 58.66 77.27 58.12 C 68.88 51.43 58.44 48.08 49.98 41.46 C 48.77 42.55 47.56 43.64 46.42 44.80 C 47.32 38.98 52.13 34.64 52.67 28.73 C 52.98 24.26 51.42 19.32 54.21 15.34 M 63.44 16.06 C 65.41 19.07 66.29 22.53 67.03 26.00 C 70.06 22.83 67.58 16.87 63.44 16.06 M 83.93 55.66 C 87.33 55.05 86.65 50.93 87.13 48.40 C 83.99 49.20 84.76 53.25 83.93 55.66 Z" />
</g>
<g id="#fffce8ff">
<path fill="#fffce8" opacity="1.00" d=" M 63.44 16.06 C 67.58 16.87 70.06 22.83 67.03 26.00 C 66.29 22.53 65.41 19.07 63.44 16.06 Z" />
</g>
<g id="#fed775ff">
<path fill="#fed775" opacity="1.00" d=" M 46.42 44.80 C 47.56 43.64 48.77 42.55 49.98 41.46 C 58.44 48.08 68.88 51.43 77.27 58.12 C 73.32 58.66 69.35 59.06 65.42 59.71 C 64.67 59.84 63.17 60.11 62.43 60.25 C 62.66 61.57 63.42 62.28 64.70 62.39 C 72.08 63.54 79.61 62.49 86.71 60.31 C 87.41 63.32 88.65 66.84 86.74 69.67 C 84.86 71.63 82.38 72.95 79.83 73.84 C 76.00 75.17 72.05 73.61 68.16 73.56 C 67.30 73.89 67.04 74.52 67.39 75.47 C 73.33 77.34 79.96 77.22 85.41 73.99 C 85.07 76.52 85.47 79.53 83.52 81.51 C 81.11 84.14 77.32 84.32 74.01 84.74 C 64.09 85.58 53.20 86.22 44.49 80.49 C 42.00 78.61 38.91 78.62 35.95 78.90 C 32.25 69.62 31.13 59.20 33.09 49.39 C 36.73 49.37 40.36 49.35 43.99 49.30 C 44.78 47.79 45.39 46.17 46.42 44.80 M 84.88 69.58 C 87.40 68.21 87.31 63.39 84.87 61.76 C 84.62 64.32 83.69 67.13 84.88 69.58 M 82.33 76.96 C 81.30 77.91 82.20 81.00 83.80 79.84 C 84.83 78.88 83.94 75.79 82.33 76.96 Z" />
</g>
<g id="#f9dfbcff">
<path fill="#f9dfbc" opacity="1.00" d=" M 23.86 51.35 C 24.43 49.83 26.06 48.24 27.75 49.30 C 29.54 49.74 29.67 51.66 29.97 53.14 C 28.21 51.71 26.14 51.00 23.86 51.35 Z" />
</g>
<g id="#fffaddff">
<path fill="#fffadd" opacity="1.00" d=" M 83.93 55.66 C 84.76 53.25 83.99 49.20 87.13 48.40 C 86.65 50.93 87.33 55.05 83.93 55.66 Z" />
</g>
<g id="#fff6d6ff">
<path fill="#fff6d6" opacity="1.00" d=" M 84.88 69.58 C 83.69 67.13 84.62 64.32 84.87 61.76 C 87.31 63.39 87.40 68.21 84.88 69.58 Z" />
</g>
<g id="#fff3ceff">
<path fill="#fff3ce" opacity="1.00" d=" M 82.33 76.96 C 83.94 75.79 84.83 78.88 83.80 79.84 C 82.20 81.00 81.30 77.91 82.33 76.96 Z" />
</g>
</svg>
