<?xml version="1.0" encoding="UTF-8" ?>
<!DOCTYPE svg PUBLIC "-//W3C//DTD SVG 1.1//EN" "http://www.w3.org/Graphics/SVG/1.1/DTD/svg11.dtd">
<svg width="96pt" height="96pt" viewBox="0 0 96 96" version="1.1" xmlns="http://www.w3.org/2000/svg">
<g id="#eea850ff">
<path fill="#eea850" opacity="1.00" d=" M 40.56 5.77 C 52.18 3.64 64.65 6.62 74.02 13.82 C 84.59 21.74 91.26 34.79 90.95 48.06 C 91.18 57.42 87.94 66.74 82.27 74.15 C 74.10 84.99 60.54 91.63 46.92 90.95 C 27.93 91.02 10.37 76.52 6.24 58.08 C 3.35 46.12 5.89 32.96 13.16 23.02 C 19.57 13.98 29.63 7.63 40.56 5.77 M 27.19 13.08 C 27.73 13.23 28.80 13.54 29.34 13.69 C 25.20 13.14 21.46 15.15 18.79 18.17 C 19.16 18.68 19.91 19.68 20.28 20.18 L 18.87 19.67 C 9.74 29.12 5.43 43.06 8.16 55.97 C 10.22 67.10 17.34 77.10 27.01 82.92 C 35.85 88.34 46.83 90.13 56.93 87.82 C 68.33 85.32 78.48 77.65 83.93 67.33 C 84.70 65.61 85.48 63.89 86.27 62.18 C 91.12 48.95 88.71 33.30 79.60 22.47 C 77.82 20.61 76.45 17.89 73.76 17.26 C 72.75 16.35 71.71 15.48 70.65 14.64 L 72.22 15.05 C 68.89 12.29 64.68 10.94 60.69 9.44 C 49.64 5.69 37.28 7.41 27.19 13.08 Z" />
</g>
<g id="#fded78ff">
<path fill="#fded78" opacity="1.00" d=" M 27.19 13.08 C 37.28 7.41 49.64 5.69 60.69 9.44 C 64.68 10.94 68.89 12.29 72.22 15.05 L 70.65 14.64 C 67.15 13.44 63.28 13.48 59.94 15.13 C 59.70 16.38 59.95 17.55 60.68 18.64 C 62.71 18.15 64.72 17.32 66.84 17.40 C 69.05 17.74 70.56 19.59 72.30 20.81 C 73.35 19.83 74.75 18.85 73.76 17.26 C 76.45 17.89 77.82 20.61 79.60 22.47 C 88.71 33.30 91.12 48.95 86.27 62.18 C 85.68 61.31 85.08 60.45 84.49 59.60 C 78.81 60.15 73.08 61.59 67.37 60.53 C 63.07 59.72 58.66 59.05 54.61 57.34 C 52.94 56.63 52.97 54.54 52.33 53.10 C 53.91 53.55 55.55 57.05 57.14 54.90 C 53.57 48.95 43.81 46.38 39.35 52.77 C 39.58 51.12 40.34 49.63 41.05 48.15 C 39.73 45.21 38.03 42.47 36.04 39.94 C 34.10 40.09 32.15 40.24 30.22 40.54 C 32.34 39.36 34.43 38.15 36.53 36.94 C 34.21 35.23 31.76 33.70 29.15 32.48 C 30.67 32.41 32.18 32.30 33.70 32.20 C 32.87 27.32 33.03 21.90 29.73 17.86 C 31.81 19.07 33.47 17.71 34.55 15.97 C 32.86 15.12 31.17 14.23 29.34 13.69 C 28.80 13.54 27.73 13.23 27.19 13.08 M 58.94 36.13 C 62.34 38.73 66.29 40.45 69.96 42.62 L 71.01 41.95 L 70.99 41.01 C 68.67 38.94 65.74 37.70 63.10 36.09 C 66.46 34.32 70.01 32.91 73.30 31.00 C 73.00 30.57 72.40 29.70 72.09 29.26 C 67.56 31.24 63.08 33.41 58.94 36.13 M 73.33 44.43 C 70.58 45.40 67.41 48.70 69.32 51.69 C 71.58 55.69 77.02 56.46 81.11 55.33 C 84.12 54.52 87.54 51.55 86.22 48.12 C 83.84 43.67 77.72 42.70 73.33 44.43 Z" />
</g>
<g id="#a2390aff">
<path fill="#a2390a" opacity="1.00" d=" M 18.79 18.17 C 21.46 15.15 25.20 13.14 29.34 13.69 C 31.17 14.23 32.86 15.12 34.55 15.97 C 33.47 17.71 31.81 19.07 29.73 17.86 C 26.47 16.28 23.72 18.86 21.14 20.49 L 20.28 20.18 C 19.91 19.68 19.16 18.68 18.79 18.17 Z" />
</g>
<g id="#a3390bff">
<path fill="#a3390b" opacity="1.00" d=" M 59.94 15.13 C 63.28 13.48 67.15 13.44 70.65 14.64 C 71.71 15.48 72.75 16.35 73.76 17.26 C 74.75 18.85 73.35 19.83 72.30 20.81 C 70.56 19.59 69.05 17.74 66.84 17.40 C 64.72 17.32 62.71 18.15 60.68 18.64 C 59.95 17.55 59.70 16.38 59.94 15.13 Z" />
</g>
<g id="#ffcd73ff">
<path fill="#ffcd73" opacity="1.00" d=" M 21.14 20.49 C 23.72 18.86 26.47 16.28 29.73 17.86 C 33.03 21.90 32.87 27.32 33.70 32.20 C 32.18 32.30 30.67 32.41 29.15 32.48 C 26.69 31.72 23.77 28.77 21.36 31.01 C 24.84 33.15 28.55 34.84 32.16 36.71 C 29.16 38.27 26.23 39.97 23.57 42.06 C 25.91 43.96 28.10 41.41 30.22 40.54 C 32.15 40.24 34.10 40.09 36.04 39.94 C 38.03 42.47 39.73 45.21 41.05 48.15 C 40.34 49.63 39.58 51.12 39.35 52.77 C 38.59 56.51 40.40 60.06 43.70 61.89 C 42.08 63.56 39.97 65.41 40.48 68.02 C 42.04 73.80 52.04 71.84 52.74 66.50 C 55.53 65.31 58.49 67.66 61.35 67.79 C 68.79 68.40 76.33 66.92 83.28 64.28 C 83.49 65.30 83.71 66.31 83.93 67.33 C 78.48 77.65 68.33 85.32 56.93 87.82 C 46.83 90.13 35.85 88.34 27.01 82.92 C 17.34 77.10 10.22 67.10 8.16 55.97 C 5.43 43.06 9.74 29.12 18.87 19.67 L 20.28 20.18 L 21.14 20.49 M 13.30 44.36 C 9.96 45.31 7.68 49.15 9.65 52.33 C 12.64 56.18 18.51 56.62 22.71 54.70 C 25.25 53.64 27.57 50.68 26.18 47.89 C 23.65 43.61 17.67 42.72 13.30 44.36 Z" />
</g>
<g id="#2f2b21ff">
<path fill="#2f2b21" opacity="1.00" d=" M 21.36 31.01 C 23.77 28.77 26.69 31.72 29.15 32.48 C 31.76 33.70 34.21 35.23 36.53 36.94 C 34.43 38.15 32.34 39.36 30.22 40.54 C 28.10 41.41 25.91 43.96 23.57 42.06 C 26.23 39.97 29.16 38.27 32.16 36.71 C 28.55 34.84 24.84 33.15 21.36 31.01 Z" />
</g>
<g id="#23221bff">
<path fill="#23221b" opacity="1.00" d=" M 58.94 36.13 C 63.08 33.41 67.56 31.24 72.09 29.26 C 72.40 29.70 73.00 30.57 73.30 31.00 C 70.01 32.91 66.46 34.32 63.10 36.09 C 65.74 37.70 68.67 38.94 70.99 41.01 L 71.01 41.95 L 69.96 42.62 C 66.29 40.45 62.34 38.73 58.94 36.13 Z" />
</g>
<g id="#f39a5fff">
<path fill="#f39a5f" opacity="1.00" d=" M 13.30 44.36 C 17.67 42.72 23.65 43.61 26.18 47.89 C 27.57 50.68 25.25 53.64 22.71 54.70 C 18.51 56.62 12.64 56.18 9.65 52.33 C 7.68 49.15 9.96 45.31 13.30 44.36 M 14.44 46.56 C 11.93 47.19 11.50 51.08 13.80 52.26 C 16.32 54.49 19.72 53.33 22.47 52.30 C 22.54 50.39 23.21 47.95 21.23 46.73 C 19.05 46.04 16.66 46.07 14.44 46.56 Z" />
</g>
<g id="#f2a861ff">
<path fill="#f2a861" opacity="1.00" d=" M 73.33 44.43 C 77.72 42.70 83.84 43.67 86.22 48.12 C 87.54 51.55 84.12 54.52 81.11 55.33 C 77.02 56.46 71.58 55.69 69.32 51.69 C 67.41 48.70 70.58 45.40 73.33 44.43 M 73.35 47.41 C 71.34 48.63 72.43 51.79 74.34 52.60 C 76.99 54.59 80.25 53.02 82.77 51.66 C 82.55 49.85 83.04 47.05 80.65 46.57 C 78.26 46.18 75.41 45.85 73.35 47.41 Z" />
</g>
<g id="#ed873aff">
<path fill="#ed873a" opacity="1.00" d=" M 14.44 46.56 C 16.66 46.07 19.05 46.04 21.23 46.73 C 23.21 47.95 22.54 50.39 22.47 52.30 C 19.72 53.33 16.32 54.49 13.80 52.26 C 11.50 51.08 11.93 47.19 14.44 46.56 Z" />
</g>
<g id="#ec973cff">
<path fill="#ec973c" opacity="1.00" d=" M 73.35 47.41 C 75.41 45.85 78.26 46.18 80.65 46.57 C 83.04 47.05 82.55 49.85 82.77 51.66 C 80.25 53.02 76.99 54.59 74.34 52.60 C 72.43 51.79 71.34 48.63 73.35 47.41 Z" />
</g>
<g id="#7b2515ff">
<path fill="#7b2515" opacity="1.00" d=" M 39.35 52.77 C 43.81 46.38 53.57 48.95 57.14 54.90 C 55.55 57.05 53.91 53.55 52.33 53.10 C 49.74 51.07 45.88 50.43 42.98 52.14 C 40.61 53.61 40.93 57.35 43.08 58.85 C 45.00 60.03 46.98 61.11 49.06 61.97 C 46.51 63.27 40.75 64.96 43.09 68.80 C 46.46 70.59 49.69 67.66 52.74 66.50 C 52.04 71.84 42.04 73.80 40.48 68.02 C 39.97 65.41 42.08 63.56 43.70 61.89 C 40.40 60.06 38.59 56.51 39.35 52.77 Z" />
</g>
<g id="#fedf76ff">
<path fill="#fedf76" opacity="1.00" d=" M 42.98 52.14 C 45.88 50.43 49.74 51.07 52.33 53.10 C 52.97 54.54 52.94 56.63 54.61 57.34 C 58.66 59.05 63.07 59.72 67.37 60.53 C 73.08 61.59 78.81 60.15 84.49 59.60 C 85.08 60.45 85.68 61.31 86.27 62.18 C 85.48 63.89 84.70 65.61 83.93 67.33 C 83.71 66.31 83.49 65.30 83.28 64.28 C 76.33 66.92 68.79 68.40 61.35 67.79 C 58.49 67.66 55.53 65.31 52.74 66.50 C 49.69 67.66 46.46 70.59 43.09 68.80 C 40.75 64.96 46.51 63.27 49.06 61.97 C 46.98 61.11 45.00 60.03 43.08 58.85 C 40.93 57.35 40.61 53.61 42.98 52.14 Z" />
</g>
</svg>
