<?xml version="1.0" encoding="UTF-8" ?>
<!DOCTYPE svg PUBLIC "-//W3C//DTD SVG 1.1//EN" "http://www.w3.org/Graphics/SVG/1.1/DTD/svg11.dtd">
<svg width="96pt" height="96pt" viewBox="0 0 96 96" version="1.1" xmlns="http://www.w3.org/2000/svg">
<g id="#eea34eff">
<path fill="#eea34e" opacity="1.00" d=" M 25.17 13.50 C 35.47 6.39 49.02 4.20 61.00 7.86 C 78.03 12.60 90.91 29.23 90.94 46.95 C 91.63 61.53 83.79 75.94 71.46 83.62 C 60.80 90.43 47.01 91.81 35.11 87.70 C 21.51 83.06 10.72 70.90 7.96 56.77 C 8.50 57.00 9.56 57.48 10.09 57.72 C 13.81 70.51 23.39 81.75 36.29 85.81 C 53.76 92.03 75.00 84.14 83.66 67.63 C 84.74 65.67 85.64 63.63 86.43 61.55 C 93.29 43.98 85.10 22.21 68.45 13.47 C 67.84 13.54 66.63 13.68 66.03 13.75 C 66.76 13.37 67.48 12.98 68.20 12.58 C 59.62 9.26 50.27 7.09 41.10 9.13 C 36.35 10.03 31.99 12.20 27.77 14.48 C 26.91 14.13 26.04 13.80 25.17 13.50 Z" />
</g>
<g id="#fde877ff">
<path fill="#fde877" opacity="1.00" d=" M 27.77 14.48 C 31.99 12.20 36.35 10.03 41.10 9.13 C 50.27 7.09 59.62 9.26 68.20 12.58 C 67.48 12.98 66.76 13.37 66.03 13.75 C 63.47 14.94 60.77 15.88 58.39 17.41 C 58.35 18.32 58.56 19.16 59.02 19.95 C 61.84 19.64 64.42 18.37 67.02 17.30 C 68.99 19.76 70.97 22.22 73.01 24.63 C 73.77 23.80 74.53 22.97 75.29 22.14 C 73.01 19.25 70.67 16.41 68.45 13.47 C 85.10 22.21 93.29 43.98 86.43 61.55 C 77.75 63.58 68.70 64.93 59.84 63.16 C 54.76 61.84 50.02 59.28 45.95 56.00 C 41.82 52.67 39.34 47.88 35.96 43.88 C 37.32 40.46 38.94 36.81 37.49 33.12 L 37.21 32.81 C 35.47 30.57 32.95 29.23 30.34 28.25 C 29.14 27.74 27.95 27.22 26.76 26.69 C 27.52 23.86 27.52 20.92 27.03 18.04 C 28.93 18.85 30.86 19.58 32.80 20.27 C 33.17 19.63 33.91 18.33 34.28 17.69 C 32.16 16.53 30.00 15.43 27.77 14.48 M 53.88 34.55 C 52.17 40.04 57.86 44.56 62.93 44.30 C 65.78 44.48 68.96 44.03 70.97 41.80 C 71.28 41.63 71.89 41.30 72.19 41.13 C 73.89 38.22 73.90 34.87 72.20 31.96 C 71.88 31.76 71.24 31.37 70.92 31.17 C 66.10 26.14 56.48 28.22 53.88 34.55 M 72.28 48.26 C 70.24 48.94 68.02 49.97 67.12 52.07 C 66.74 54.82 69.37 56.56 71.63 57.34 C 76.24 58.98 81.73 58.66 85.87 55.94 C 88.00 54.63 88.13 51.34 86.01 49.96 C 82.05 47.26 76.79 46.90 72.28 48.26 Z" />
</g>
<g id="#a33e0dff">
<path fill="#a33e0d" opacity="1.00" d=" M 22.83 14.78 C 23.47 14.21 24.17 13.24 25.17 13.50 C 26.04 13.80 26.91 14.13 27.77 14.48 C 30.00 15.43 32.16 16.53 34.28 17.69 C 33.91 18.33 33.17 19.63 32.80 20.27 C 30.86 19.58 28.93 18.85 27.03 18.04 C 26.60 17.86 25.73 17.48 25.30 17.30 C 23.24 19.64 21.49 22.28 19.04 24.25 C 18.08 23.43 17.16 22.56 16.28 21.65 C 18.40 19.30 20.63 17.05 22.83 14.78 Z" />
</g>
<g id="#a43c0dff">
<path fill="#a43c0d" opacity="1.00" d=" M 58.39 17.41 C 60.77 15.88 63.47 14.94 66.03 13.75 C 66.63 13.68 67.84 13.54 68.45 13.47 C 70.67 16.41 73.01 19.25 75.29 22.14 C 74.53 22.97 73.77 23.80 73.01 24.63 C 70.97 22.22 68.99 19.76 67.02 17.30 C 64.42 18.37 61.84 19.64 59.02 19.95 C 58.56 19.16 58.35 18.32 58.39 17.41 Z" />
</g>
<g id="#ffca73ff">
<path fill="#ffca73" opacity="1.00" d=" M 19.04 24.25 C 21.49 22.28 23.24 19.64 25.30 17.30 C 25.73 17.48 26.60 17.86 27.03 18.04 C 27.52 20.92 27.52 23.86 26.76 26.69 C 27.95 27.22 29.14 27.74 30.34 28.25 C 26.40 28.28 21.88 28.81 19.25 32.12 C 17.42 34.14 17.51 37.06 17.90 39.58 C 18.71 42.56 21.68 44.06 24.26 45.26 C 23.14 46.12 22.03 46.99 20.91 47.85 C 16.75 47.19 12.50 47.60 8.48 48.81 C 8.17 47.03 7.76 45.26 7.41 43.49 C 7.97 35.49 11.57 28.03 16.28 21.65 C 17.16 22.56 18.08 23.43 19.04 24.25 Z" />
<path fill="#ffca73" opacity="1.00" d=" M 26.09 55.30 C 26.97 55.01 27.86 54.76 28.75 54.51 C 32.23 58.68 36.20 62.47 39.10 67.10 C 38.39 67.17 36.97 67.31 36.26 67.39 C 37.33 68.80 38.81 69.45 40.57 69.08 C 39.40 69.72 38.21 70.32 37.03 70.92 C 40.27 70.59 43.58 70.40 46.78 71.21 C 54.35 72.94 62.33 73.90 69.97 72.00 C 74.71 71.08 78.88 68.35 83.66 67.63 C 75.00 84.14 53.76 92.03 36.29 85.81 C 23.39 81.75 13.81 70.51 10.09 57.72 C 15.60 59.02 21.12 57.75 26.09 55.30 Z" />
</g>
<g id="#1f1f1fff">
<path fill="#1f1f1f" opacity="1.00" d=" M 19.25 32.12 C 21.88 28.81 26.40 28.28 30.34 28.25 C 32.95 29.23 35.47 30.57 37.21 32.81 C 34.34 30.41 30.88 27.87 26.90 28.67 C 22.59 29.02 17.70 32.21 18.03 37.02 C 17.63 41.41 21.94 44.68 25.96 45.01 C 29.11 45.48 32.18 44.47 35.10 43.43 C 35.31 42.59 35.52 41.75 35.70 40.90 C 33.33 40.64 31.04 38.60 31.78 36.04 C 32.25 33.35 35.37 33.30 37.49 33.12 C 38.94 36.81 37.32 40.46 35.96 43.88 L 35.62 43.51 C 32.07 45.20 28.16 45.79 24.26 45.26 C 21.68 44.06 18.71 42.56 17.90 39.58 C 17.51 37.06 17.42 34.14 19.25 32.12 Z" />
<path fill="#1f1f1f" opacity="1.00" d=" M 53.88 34.55 C 56.48 28.22 66.10 26.14 70.92 31.17 C 65.95 27.62 57.56 28.19 54.50 33.98 C 52.51 38.72 56.84 43.51 61.54 43.82 C 64.83 44.33 68.15 43.53 70.97 41.80 C 68.96 44.03 65.78 44.48 62.93 44.30 C 57.86 44.56 52.17 40.04 53.88 34.55 Z" />
<path fill="#1f1f1f" opacity="1.00" d=" M 67.07 36.11 C 67.21 33.41 70.20 32.82 72.20 31.96 C 73.90 34.87 73.89 38.22 72.19 41.13 C 69.94 40.27 66.66 39.16 67.07 36.11 Z" />
</g>
<g id="#ffffffff">
<path fill="#ffffff" opacity="1.00" d=" M 18.03 37.02 C 17.70 32.21 22.59 29.02 26.90 28.67 C 30.88 27.87 34.34 30.41 37.21 32.81 L 37.49 33.12 C 35.37 33.30 32.25 33.35 31.78 36.04 C 31.04 38.60 33.33 40.64 35.70 40.90 C 35.52 41.75 35.31 42.59 35.10 43.43 C 32.18 44.47 29.11 45.48 25.96 45.01 C 21.94 44.68 17.63 41.41 18.03 37.02 Z" />
<path fill="#ffffff" opacity="1.00" d=" M 54.50 33.98 C 57.56 28.19 65.95 27.62 70.92 31.17 C 71.24 31.37 71.88 31.76 72.20 31.96 C 70.20 32.82 67.21 33.41 67.07 36.11 C 66.66 39.16 69.94 40.27 72.19 41.13 C 71.89 41.30 71.28 41.63 70.97 41.80 C 68.15 43.53 64.83 44.33 61.54 43.82 C 56.84 43.51 52.51 38.72 54.50 33.98 Z" />
</g>
<g id="#ed8639ff">
<path fill="#ed8639" opacity="1.00" d=" M 6.55 54.51 C 6.84 50.84 7.03 47.15 7.41 43.49 C 7.76 45.26 8.17 47.03 8.48 48.81 C 8.50 49.32 8.55 50.35 8.58 50.86 C 13.11 49.83 17.89 48.97 22.25 51.16 C 21.61 52.50 21.48 54.23 20.31 55.25 C 16.04 56.46 11.50 55.62 7.25 54.67 L 6.55 54.51 Z" />
</g>
<g id="#fed775ff">
<path fill="#fed775" opacity="1.00" d=" M 35.62 43.51 L 35.96 43.88 C 39.34 47.88 41.82 52.67 45.95 56.00 C 50.02 59.28 54.76 61.84 59.84 63.16 C 68.70 64.93 77.75 63.58 86.43 61.55 C 85.64 63.63 84.74 65.67 83.66 67.63 C 78.88 68.35 74.71 71.08 69.97 72.00 C 62.33 73.90 54.35 72.94 46.78 71.21 C 43.58 70.40 40.27 70.59 37.03 70.92 C 38.21 70.32 39.40 69.72 40.57 69.08 C 41.25 68.68 42.62 67.86 43.30 67.45 C 46.42 68.96 50.65 70.49 53.03 66.91 C 50.69 66.62 48.06 67.30 45.90 66.12 C 43.90 64.99 44.79 61.90 43.14 60.61 C 41.11 61.60 43.17 65.64 40.59 66.47 C 40.22 66.63 39.47 66.94 39.10 67.10 C 36.20 62.47 32.23 58.68 28.75 54.51 C 27.86 54.76 26.97 55.01 26.09 55.30 C 26.98 51.49 24.08 49.11 20.91 47.85 C 22.03 46.99 23.14 46.12 24.26 45.26 C 28.16 45.79 32.07 45.20 35.62 43.51 Z" />
</g>
<g id="#f4995eff">
<path fill="#f4995e" opacity="1.00" d=" M 8.48 48.81 C 12.50 47.60 16.75 47.19 20.91 47.85 C 24.08 49.11 26.98 51.49 26.09 55.30 C 21.12 57.75 15.60 59.02 10.09 57.72 C 9.56 57.48 8.50 57.00 7.96 56.77 C 7.79 56.24 7.43 55.20 7.25 54.67 C 11.50 55.62 16.04 56.46 20.31 55.25 C 21.48 54.23 21.61 52.50 22.25 51.16 C 17.89 48.97 13.11 49.83 8.58 50.86 C 8.55 50.35 8.50 49.32 8.48 48.81 Z" />
</g>
<g id="#f2a560ff">
<path fill="#f2a560" opacity="1.00" d=" M 72.28 48.26 C 76.79 46.90 82.05 47.26 86.01 49.96 C 88.13 51.34 88.00 54.63 85.87 55.94 C 81.73 58.66 76.24 58.98 71.63 57.34 C 69.37 56.56 66.74 54.82 67.12 52.07 C 68.02 49.97 70.24 48.94 72.28 48.26 M 70.61 53.00 C 73.67 56.88 81.27 57.47 83.81 52.97 C 81.50 48.14 73.40 48.83 70.61 53.00 Z" />
</g>
<g id="#ec953bff">
<path fill="#ec953b" opacity="1.00" d=" M 70.61 53.00 C 73.40 48.83 81.50 48.14 83.81 52.97 C 81.27 57.47 73.67 56.88 70.61 53.00 Z" />
</g>
<g id="#a03b11ff">
<path fill="#a03b11" opacity="1.00" d=" M 40.59 66.47 C 43.17 65.64 41.11 61.60 43.14 60.61 C 44.79 61.90 43.90 64.99 45.90 66.12 C 48.06 67.30 50.69 66.62 53.03 66.91 C 50.65 70.49 46.42 68.96 43.30 67.45 C 42.62 67.86 41.25 68.68 40.57 69.08 C 38.81 69.45 37.33 68.80 36.26 67.39 C 36.97 67.31 38.39 67.17 39.10 67.10 C 39.47 66.94 40.22 66.63 40.59 66.47 Z" />
</g>
</svg>
