<?xml version="1.0" encoding="UTF-8" ?>
<!DOCTYPE svg PUBLIC "-//W3C//DTD SVG 1.1//EN" "http://www.w3.org/Graphics/SVG/1.1/DTD/svg11.dtd">
<svg width="96pt" height="96pt" viewBox="0 0 96 96" version="1.1" xmlns="http://www.w3.org/2000/svg">
<g id="#f0ad54ff">
<path fill="#f0ad54" opacity="1.00" d=" M 18.86 10.01 C 26.66 9.08 34.60 8.58 42.39 9.87 C 47.26 10.76 51.48 13.43 55.85 15.58 C 60.43 15.13 64.97 14.25 69.48 13.33 C 73.63 12.41 77.72 9.69 82.09 11.08 C 86.95 13.02 89.13 18.37 90.24 23.13 C 91.44 29.80 91.52 37.13 88.21 43.25 C 86.59 46.50 83.96 49.87 79.99 49.94 C 71.09 50.91 62.11 50.34 53.18 50.09 C 51.81 54.77 49.73 59.15 47.27 63.34 C 44.99 67.25 45.91 71.81 46.12 76.06 C 45.51 80.01 43.80 84.14 40.28 86.34 C 37.58 88.41 33.76 88.39 30.69 87.23 C 26.55 84.96 23.55 80.69 22.87 76.01 C 21.82 69.59 22.51 62.85 25.01 56.83 C 18.77 56.84 11.14 57.57 6.55 52.42 C 3.93 48.03 5.15 42.50 7.46 38.24 C 4.80 33.87 4.67 27.93 8.46 24.15 C 8.24 21.45 7.95 18.60 8.91 15.99 C 10.81 12.33 14.97 10.58 18.86 10.01 M 12.56 15.64 C 10.54 17.56 11.06 20.59 10.89 23.10 C 16.42 19.97 22.94 19.75 28.89 21.80 C 28.81 22.32 28.66 23.36 28.59 23.88 C 22.68 22.90 16.01 22.08 11.01 26.17 C 7.11 28.30 8.23 33.34 9.47 36.73 C 14.23 35.53 19.01 34.14 23.97 34.28 C 27.47 34.40 31.46 33.70 34.36 36.19 C 32.56 37.82 30.10 36.99 27.96 36.88 C 23.29 36.33 18.55 36.90 13.99 37.97 C 11.85 38.48 9.37 39.41 8.78 41.81 C 7.56 45.17 6.86 50.32 10.64 52.29 C 16.67 55.23 23.63 54.09 30.08 53.89 C 25.43 59.92 24.49 67.95 25.51 75.31 C 26.07 79.56 28.87 83.77 33.05 85.14 C 36.89 86.28 40.63 83.44 42.14 80.07 C 44.24 76.32 42.77 71.97 43.12 67.93 C 43.28 64.54 45.09 61.58 46.65 58.67 C 48.68 55.05 49.86 51.06 51.33 47.20 C 55.32 47.36 59.32 47.44 63.32 47.39 L 63.21 46.32 C 65.15 38.65 63.70 30.55 61.99 22.97 C 61.33 21.17 61.07 17.74 58.34 18.43 C 54.49 19.14 51.51 16.26 48.24 14.81 C 40.72 11.24 32.12 11.71 24.04 12.28 C 20.11 12.76 15.59 12.69 12.56 15.64 M 77.82 13.02 C 77.96 13.36 78.24 14.03 78.38 14.36 C 81.62 15.51 83.51 18.49 86.32 20.27 C 85.84 16.10 81.98 12.92 77.82 13.02 Z" />
</g>
<g id="#fed575ff">
<path fill="#fed575" opacity="1.00" d=" M 12.56 15.64 C 15.59 12.69 20.11 12.76 24.04 12.28 C 32.12 11.71 40.72 11.24 48.24 14.81 C 51.51 16.26 54.49 19.14 58.34 18.43 C 61.07 17.74 61.33 21.17 61.99 22.97 C 63.70 30.55 65.15 38.65 63.21 46.32 C 63.06 44.93 62.91 43.53 62.78 42.14 C 61.97 43.45 61.94 45.95 59.98 46.03 C 55.65 46.12 51.44 44.56 47.82 42.26 C 44.38 40.04 40.56 38.42 37.39 35.79 C 34.52 33.31 30.60 32.72 27.52 30.57 C 24.51 28.52 21.30 26.76 18.00 25.22 C 21.46 25.00 24.93 24.98 28.40 24.89 C 28.45 24.64 28.54 24.13 28.59 23.88 C 28.66 23.36 28.81 22.32 28.89 21.80 C 22.94 19.75 16.42 19.97 10.89 23.10 C 11.06 20.59 10.54 17.56 12.56 15.64 M 53.47 23.03 C 54.60 22.55 55.72 22.06 56.85 21.57 C 57.50 21.91 58.81 22.59 59.46 22.93 C 59.10 21.84 58.62 20.82 58.02 19.86 C 55.89 19.34 53.48 20.67 53.47 23.03 Z" />
</g>
<g id="#fcf0e0ff">
<path fill="#fcf0e0" opacity="1.00" d=" M 77.82 13.02 C 81.98 12.92 85.84 16.10 86.32 20.27 C 83.51 18.49 81.62 15.51 78.38 14.36 C 78.24 14.03 77.96 13.36 77.82 13.02 Z" />
</g>
<g id="#fff2d9ff">
<path fill="#fff2d9" opacity="1.00" d=" M 53.47 23.03 C 53.48 20.67 55.89 19.34 58.02 19.86 C 58.62 20.82 59.10 21.84 59.46 22.93 C 58.81 22.59 57.50 21.91 56.85 21.57 C 55.72 22.06 54.60 22.55 53.47 23.03 Z" />
</g>
<g id="#fee477ff">
<path fill="#fee477" opacity="1.00" d=" M 11.01 26.17 C 16.01 22.08 22.68 22.90 28.59 23.88 C 28.54 24.13 28.45 24.64 28.40 24.89 C 24.93 24.98 21.46 25.00 18.00 25.22 C 21.30 26.76 24.51 28.52 27.52 30.57 C 30.60 32.72 34.52 33.31 37.39 35.79 C 40.56 38.42 44.38 40.04 47.82 42.26 C 51.44 44.56 55.65 46.12 59.98 46.03 C 61.94 45.95 61.97 43.45 62.78 42.14 C 62.91 43.53 63.06 44.93 63.21 46.32 L 63.32 47.39 C 59.32 47.44 55.32 47.36 51.33 47.20 C 49.86 51.06 48.68 55.05 46.65 58.67 C 45.09 61.58 43.28 64.54 43.12 67.93 C 42.77 71.97 44.24 76.32 42.14 80.07 C 40.63 83.44 36.89 86.28 33.05 85.14 C 28.87 83.77 26.07 79.56 25.51 75.31 C 24.49 67.95 25.43 59.92 30.08 53.89 C 23.63 54.09 16.67 55.23 10.64 52.29 C 6.86 50.32 7.56 45.17 8.78 41.81 C 9.37 39.41 11.85 38.48 13.99 37.97 C 18.55 36.90 23.29 36.33 27.96 36.88 C 30.10 36.99 32.56 37.82 34.36 36.19 C 31.46 33.70 27.47 34.40 23.97 34.28 C 19.01 34.14 14.23 35.53 9.47 36.73 C 8.23 33.34 7.11 28.30 11.01 26.17 Z" />
</g>
</svg>
