<?xml version="1.0" encoding="UTF-8" ?>
<!DOCTYPE svg PUBLIC "-//W3C//DTD SVG 1.1//EN" "http://www.w3.org/Graphics/SVG/1.1/DTD/svg11.dtd">
<svg width="96pt" height="96pt" viewBox="0 0 96 96" version="1.1" xmlns="http://www.w3.org/2000/svg">
<g id="#eca850fd">
<path fill="#eca850" opacity="1.00" d=" M 44.22 5.28 C 54.77 4.27 65.67 7.40 74.07 13.86 C 84.61 21.75 91.24 34.77 90.95 47.99 C 91.22 57.89 87.58 67.72 81.33 75.35 C 72.91 85.73 59.44 91.83 46.06 90.94 C 26.69 90.61 9.12 75.15 5.84 56.14 C 3.60 44.72 6.30 32.43 13.15 23.02 C 20.28 12.97 31.93 6.28 44.22 5.28 M 20.82 18.11 C 16.90 19.22 14.31 23.18 14.89 27.24 C 14.54 26.91 13.83 26.27 13.48 25.95 C 8.53 35.08 5.93 45.77 8.14 56.08 C 10.90 70.77 22.49 83.32 36.92 87.22 C 53.57 92.27 73.50 85.05 82.20 69.82 C 85.91 64.24 88.21 57.75 88.68 51.07 C 89.50 42.19 86.67 33.50 82.48 25.78 C 82.06 26.59 81.64 27.41 81.24 28.23 C 82.78 23.77 79.71 18.94 75.20 18.02 C 67.64 10.54 56.59 6.99 46.06 7.48 C 36.71 7.79 27.72 11.90 20.82 18.11 Z" />
</g>
<g id="#fde977ff">
<path fill="#fde977" opacity="1.00" d=" M 20.82 18.11 C 27.72 11.90 36.71 7.79 46.06 7.48 C 56.59 6.99 67.64 10.54 75.20 18.02 C 72.08 17.70 69.45 19.35 67.31 21.42 C 65.48 19.90 63.60 18.04 61.03 18.09 C 56.66 17.67 52.64 21.72 53.07 26.08 C 53.06 29.97 56.11 32.77 58.89 35.05 C 62.02 37.54 64.65 40.56 67.48 43.38 C 71.07 37.39 78.46 34.74 81.24 28.23 C 81.64 27.41 82.06 26.59 82.48 25.78 C 86.67 33.50 89.50 42.19 88.68 51.07 C 88.21 57.75 85.91 64.24 82.20 69.82 C 81.61 69.54 80.41 69.00 79.82 68.72 C 75.63 70.35 71.43 71.95 67.00 72.80 C 64.77 73.08 64.36 75.68 63.20 77.22 C 62.97 74.99 62.51 72.79 61.93 70.63 C 62.01 70.48 62.17 70.18 62.25 70.03 C 62.51 69.63 63.04 68.83 63.30 68.42 C 65.59 65.14 67.17 61.18 66.72 57.11 C 66.91 55.40 64.56 53.89 63.11 54.71 C 60.71 56.10 58.77 58.23 56.13 59.22 C 50.65 61.41 44.30 61.45 38.84 59.18 C 36.29 58.12 34.49 55.88 32.04 54.65 C 27.09 55.69 29.56 62.22 30.79 65.38 C 30.40 65.34 29.62 65.27 29.23 65.23 C 26.55 58.37 21.61 52.40 20.46 44.98 C 19.83 41.13 19.22 37.29 18.75 33.42 C 22.52 36.46 26.15 39.70 29.14 43.54 C 31.58 40.55 34.19 37.67 37.28 35.32 C 40.26 33.01 43.30 30.02 43.55 26.03 C 43.83 21.53 39.46 17.36 34.94 18.11 C 32.58 18.24 30.90 20.04 29.18 21.43 C 27.02 19.07 24.10 17.57 20.82 18.11 Z" />
</g>
<g id="#db4100ff">
<path fill="#db4100" opacity="1.00" d=" M 14.89 27.24 C 14.31 23.18 16.90 19.22 20.82 18.11 C 24.10 17.57 27.02 19.07 29.18 21.43 C 30.90 20.04 32.58 18.24 34.94 18.11 C 39.46 17.36 43.83 21.53 43.55 26.03 C 43.30 30.02 40.26 33.01 37.28 35.32 C 34.19 37.67 31.58 40.55 29.14 43.54 C 26.15 39.70 22.52 36.46 18.75 33.42 C 16.94 31.73 15.70 29.56 14.89 27.24 Z" />
<path fill="#db4100" opacity="1.00" d=" M 53.07 26.08 C 52.64 21.72 56.66 17.67 61.03 18.09 C 63.60 18.04 65.48 19.90 67.31 21.42 C 69.45 19.35 72.08 17.70 75.20 18.02 C 79.71 18.94 82.78 23.77 81.24 28.23 C 78.46 34.74 71.07 37.39 67.48 43.38 C 64.65 40.56 62.02 37.54 58.89 35.05 C 56.11 32.77 53.06 29.97 53.07 26.08 Z" />
<path fill="#db4100" opacity="1.00" d=" M 35.42 71.33 C 43.67 73.22 52.37 72.94 60.68 71.54 C 59.70 72.46 58.72 73.38 57.74 74.30 C 54.80 74.84 51.97 75.91 48.98 76.25 C 44.03 76.56 39.16 74.50 35.42 71.33 Z" />
</g>
<g id="#ffcd73ff">
<path fill="#ffcd73" opacity="1.00" d=" M 13.48 25.95 C 13.83 26.27 14.54 26.91 14.89 27.24 C 15.70 29.56 16.94 31.73 18.75 33.42 C 19.22 37.29 19.83 41.13 20.46 44.98 C 21.61 52.40 26.55 58.37 29.23 65.23 C 29.62 65.27 30.40 65.34 30.79 65.38 C 31.73 66.81 32.64 68.26 33.60 69.67 C 34.18 70.25 34.78 70.81 35.42 71.33 C 39.16 74.50 44.03 76.56 48.98 76.25 C 51.97 75.91 54.80 74.84 57.74 74.30 C 58.72 73.38 59.70 72.46 60.68 71.54 C 61.07 71.17 61.86 70.41 62.25 70.03 C 62.17 70.18 62.01 70.48 61.93 70.63 C 60.95 71.69 59.95 72.72 58.92 73.73 C 60.04 75.32 60.64 78.18 63.20 77.22 C 64.36 75.68 64.77 73.08 67.00 72.80 C 71.43 71.95 75.63 70.35 79.82 68.72 C 80.41 69.00 81.61 69.54 82.20 69.82 C 73.50 85.05 53.57 92.27 36.92 87.22 C 22.49 83.32 10.90 70.77 8.14 56.08 C 5.93 45.77 8.53 35.08 13.48 25.95 Z" />
</g>
<g id="#7d180fff">
<path fill="#7d180f" opacity="1.00" d=" M 30.79 65.38 C 29.56 62.22 27.09 55.69 32.04 54.65 C 34.49 55.88 36.29 58.12 38.84 59.18 C 44.30 61.45 50.65 61.41 56.13 59.22 C 58.77 58.23 60.71 56.10 63.11 54.71 C 64.56 53.89 66.91 55.40 66.72 57.11 C 67.17 61.18 65.59 65.14 63.30 68.42 C 62.42 67.76 61.56 67.10 60.66 66.47 C 53.84 62.68 45.01 62.65 38.12 66.28 C 36.55 67.32 35.09 68.52 33.60 69.67 C 32.64 68.26 31.73 66.81 30.79 65.38 Z" />
</g>
<g id="#eb6d59ff">
<path fill="#eb6d59" opacity="1.00" d=" M 38.12 66.28 C 45.01 62.65 53.84 62.68 60.66 66.47 L 59.68 67.16 C 54.16 66.58 48.59 66.04 43.04 66.72 C 41.41 66.73 39.53 67.49 38.12 66.28 Z" />
</g>
<g id="#e45d3aff">
<path fill="#e45d3a" opacity="1.00" d=" M 33.60 69.67 C 35.09 68.52 36.55 67.32 38.12 66.28 C 39.53 67.49 41.41 66.73 43.04 66.72 C 48.59 66.04 54.16 66.58 59.68 67.16 L 60.66 66.47 C 61.56 67.10 62.42 67.76 63.30 68.42 C 63.04 68.83 62.51 69.63 62.25 70.03 C 61.86 70.41 61.07 71.17 60.68 71.54 C 52.37 72.94 43.67 73.22 35.42 71.33 C 34.78 70.81 34.18 70.25 33.60 69.67 Z" />
<path fill="#e45d3a" opacity="1.00" d=" M 58.92 73.73 C 59.95 72.72 60.95 71.69 61.93 70.63 C 62.51 72.79 62.97 74.99 63.20 77.22 C 60.64 78.18 60.04 75.32 58.92 73.73 Z" />
</g>
</svg>
