<?xml version="1.0" encoding="UTF-8" ?>
<!DOCTYPE svg PUBLIC "-//W3C//DTD SVG 1.1//EN" "http://www.w3.org/Graphics/SVG/1.1/DTD/svg11.dtd">
<svg width="96pt" height="96pt" viewBox="0 0 96 96" version="1.1" xmlns="http://www.w3.org/2000/svg">
<g id="#f0ac53ff">
<path fill="#f0ac53" opacity="1.00" d=" M 29.87 9.63 C 37.91 5.99 47.12 3.82 55.84 6.16 C 59.55 7.21 63.53 7.96 66.77 10.15 C 67.03 10.53 67.54 11.30 67.80 11.68 C 68.67 11.74 69.54 11.76 70.41 11.75 C 71.15 12.98 72.20 13.82 73.56 14.25 C 73.21 14.65 72.50 15.43 72.15 15.82 C 61.84 8.31 48.12 6.03 35.93 9.77 C 25.69 12.91 17.04 20.60 12.24 30.12 C 7.19 39.93 6.88 51.83 10.58 62.15 C 10.35 63.11 9.88 65.03 9.64 65.99 C 5.52 57.32 3.65 47.12 6.77 37.82 C 9.77 25.61 18.43 14.91 29.87 9.63 Z" />
<path fill="#f0ac53" opacity="1.00" d=" M 84.17 30.88 C 82.97 28.01 80.18 25.36 81.27 22.01 C 88.82 31.20 92.56 44.14 89.84 55.84 C 87.32 68.08 79.56 79.25 68.46 85.18 C 60.19 89.51 50.52 92.07 41.21 90.13 C 35.02 88.58 28.63 86.68 23.65 82.50 C 25.63 82.77 27.62 83.01 29.60 83.25 C 42.50 90.66 59.59 89.05 71.52 80.43 C 78.27 75.21 83.90 68.12 86.23 59.82 C 89.15 50.37 88.58 39.78 84.17 30.88 Z" />
</g>
<g id="#fded78ff">
<path fill="#fded78" opacity="1.00" d=" M 35.93 9.77 C 48.12 6.03 61.84 8.31 72.15 15.82 C 69.95 18.51 67.92 21.33 66.08 24.28 C 67.47 26.18 70.02 25.41 72.02 25.62 C 74.67 25.50 77.43 25.94 79.99 25.12 C 80.14 24.48 80.43 23.22 80.58 22.59 C 78.14 22.52 75.68 22.35 73.27 22.84 C 72.93 20.24 74.81 18.35 76.18 16.41 C 77.95 18.15 80.20 19.76 81.27 22.01 C 80.18 25.36 82.97 28.01 84.17 30.88 C 88.58 39.78 89.15 50.37 86.23 59.82 C 82.11 60.51 78.18 62.21 74.00 62.49 C 70.24 62.38 66.49 62.21 62.73 62.24 C 56.51 61.89 51.76 57.39 46.73 54.24 C 42.37 52.16 41.45 46.53 36.77 44.85 C 30.71 43.84 24.44 44.71 18.30 44.45 L 18.45 43.39 C 24.59 42.63 30.80 42.83 36.97 42.60 C 35.45 39.27 34.10 35.83 33.61 32.18 C 32.99 27.76 31.65 23.28 32.58 18.81 C 33.17 15.62 34.55 12.68 35.93 9.77 M 57.41 20.42 L 57.32 22.16 C 58.61 22.31 59.90 22.48 61.18 22.69 C 59.58 24.95 57.50 26.99 56.78 29.75 C 59.28 29.83 61.78 29.87 64.28 29.96 C 64.28 29.31 64.28 28.66 64.27 28.02 C 63.29 28.05 61.32 28.13 60.34 28.17 C 61.23 25.30 63.91 23.42 64.60 20.46 C 62.20 20.42 59.81 20.42 57.41 20.42 M 50.09 28.09 C 50.60 28.48 51.62 29.25 52.13 29.64 C 51.44 30.63 50.74 31.63 50.06 32.63 C 51.62 32.68 53.18 32.70 54.74 32.69 C 54.09 32.31 52.80 31.54 52.15 31.16 C 52.97 30.22 53.79 29.29 54.61 28.35 C 53.10 28.26 51.60 28.18 50.09 28.09 M 51.30 44.47 C 51.31 45.00 51.35 46.08 51.37 46.61 C 57.50 46.57 63.63 46.59 69.76 46.60 C 69.71 46.06 69.62 44.99 69.58 44.45 C 63.49 44.46 57.39 44.43 51.30 44.47 Z" />
</g>
<g id="#1f1f1fff">
<path fill="#1f1f1f" opacity="1.00" d=" M 68.00 8.71 C 71.69 8.44 75.40 8.49 79.09 8.66 C 79.40 9.19 80.00 10.23 80.30 10.75 C 78.86 12.59 77.55 14.52 76.18 16.41 C 74.81 18.35 72.93 20.24 73.27 22.84 C 71.01 23.86 68.53 24.12 66.08 24.28 C 67.92 21.33 69.95 18.51 72.15 15.82 C 72.50 15.43 73.21 14.65 73.56 14.25 C 75.85 12.23 72.18 10.43 70.41 11.75 C 69.54 11.76 68.67 11.74 67.80 11.68 C 67.54 11.30 67.03 10.53 66.77 10.15 C 67.08 9.79 67.69 9.07 68.00 8.71 Z" />
</g>
<g id="#ffd374ff">
<path fill="#ffd374" opacity="1.00" d=" M 12.24 30.12 C 17.04 20.60 25.69 12.91 35.93 9.77 C 34.55 12.68 33.17 15.62 32.58 18.81 C 31.65 23.28 32.99 27.76 33.61 32.18 C 34.10 35.83 35.45 39.27 36.97 42.60 C 30.80 42.83 24.59 42.63 18.45 43.39 L 18.30 44.45 C 18.23 44.98 18.11 46.05 18.04 46.58 C 24.15 46.57 30.26 46.65 36.37 46.56 C 36.47 46.13 36.67 45.28 36.77 44.85 C 41.45 46.53 42.37 52.16 46.73 54.24 C 51.76 57.39 56.51 61.89 62.73 62.24 C 66.49 62.21 70.24 62.38 74.00 62.49 C 78.18 62.21 82.11 60.51 86.23 59.82 C 83.90 68.12 78.27 75.21 71.52 80.43 C 59.59 89.05 42.50 90.66 29.60 83.25 C 36.37 82.43 43.29 80.02 47.96 74.84 C 48.00 74.42 48.06 73.57 48.09 73.15 C 45.87 71.93 43.06 71.62 41.27 69.73 C 38.64 65.92 37.87 60.89 34.20 57.79 C 27.25 51.91 14.21 52.90 10.58 62.15 C 6.88 51.83 7.19 39.93 12.24 30.12 Z" />
</g>
<g id="#251d1277">
<path fill="#251d12" opacity="0.47" d=" M 70.41 11.75 C 72.18 10.43 75.85 12.23 73.56 14.25 C 72.20 13.82 71.15 12.98 70.41 11.75 Z" />
</g>
<g id="#0e0f18ff">
<path fill="#0e0f18" opacity="1.00" d=" M 57.41 20.42 C 59.81 20.42 62.20 20.42 64.60 20.46 C 63.91 23.42 61.23 25.30 60.34 28.17 C 61.32 28.13 63.29 28.05 64.27 28.02 C 64.28 28.66 64.28 29.31 64.28 29.96 C 61.78 29.87 59.28 29.83 56.78 29.75 C 57.50 26.99 59.58 24.95 61.18 22.69 C 59.90 22.48 58.61 22.31 57.32 22.16 L 57.41 20.42 Z" />
</g>
<g id="#0a0c17ff">
<path fill="#0a0c17" opacity="1.00" d=" M 73.27 22.84 C 75.68 22.35 78.14 22.52 80.58 22.59 C 80.43 23.22 80.14 24.48 79.99 25.12 C 77.43 25.94 74.67 25.50 72.02 25.62 C 70.02 25.41 67.47 26.18 66.08 24.28 C 68.53 24.12 71.01 23.86 73.27 22.84 Z" />
</g>
<g id="#000312ff">
<path fill="#000312" opacity="1.00" d=" M 50.09 28.09 C 51.60 28.18 53.10 28.26 54.61 28.35 C 53.79 29.29 52.97 30.22 52.15 31.16 C 52.80 31.54 54.09 32.31 54.74 32.69 C 53.18 32.70 51.62 32.68 50.06 32.63 C 50.74 31.63 51.44 30.63 52.13 29.64 C 51.62 29.25 50.60 28.48 50.09 28.09 Z" />
<path fill="#000312" opacity="1.00" d=" M 18.30 44.45 C 24.44 44.71 30.71 43.84 36.77 44.85 C 36.67 45.28 36.47 46.13 36.37 46.56 C 30.26 46.65 24.15 46.57 18.04 46.58 C 18.11 46.05 18.23 44.98 18.30 44.45 Z" />
</g>
<g id="#000011ff">
<path fill="#000011" opacity="1.00" d=" M 51.30 44.47 C 57.39 44.43 63.49 44.46 69.58 44.45 C 69.62 44.99 69.71 46.06 69.76 46.60 C 63.63 46.59 57.50 46.57 51.37 46.61 C 51.35 46.08 51.31 45.00 51.30 44.47 Z" />
</g>
<g id="#3eb3e4ff">
<path fill="#3eb3e4" opacity="1.00" d=" M 10.58 62.15 C 14.21 52.90 27.25 51.91 34.20 57.79 C 37.87 60.89 38.64 65.92 41.27 69.73 C 43.06 71.62 45.87 71.93 48.09 73.15 C 48.06 73.57 48.00 74.42 47.96 74.84 C 43.29 80.02 36.37 82.43 29.60 83.25 C 27.62 83.01 25.63 82.77 23.65 82.50 C 15.85 81.11 8.96 74.29 9.64 65.99 C 9.88 65.03 10.35 63.11 10.58 62.15 M 17.54 58.09 C 18.63 64.46 18.78 71.09 17.38 77.43 C 22.47 80.98 29.29 81.99 35.20 80.09 C 36.83 79.60 38.40 78.94 39.98 78.31 C 41.92 77.13 43.83 75.90 45.71 74.62 C 42.54 73.24 39.49 71.50 37.70 68.40 C 37.45 65.78 35.86 63.54 34.58 61.33 L 34.68 60.97 C 32.51 58.66 29.74 57.10 26.61 56.57 L 26.61 56.20 C 23.46 56.04 20.21 56.21 17.54 58.09 Z" />
</g>
<g id="#6ac2e7ff">
<path fill="#6ac2e7" opacity="1.00" d=" M 17.54 58.09 C 20.21 56.21 23.46 56.04 26.61 56.20 L 26.61 56.57 C 26.19 64.41 28.02 72.58 25.59 80.18 C 27.74 80.30 29.90 80.45 32.05 80.50 C 32.84 80.40 34.41 80.19 35.20 80.09 C 29.29 81.99 22.47 80.98 17.38 77.43 C 18.78 71.09 18.63 64.46 17.54 58.09 Z" />
</g>
<g id="#96d1ebff">
<path fill="#96d1eb" opacity="1.00" d=" M 25.59 80.18 C 28.02 72.58 26.19 64.41 26.61 56.57 C 29.74 57.10 32.51 58.66 34.68 60.97 L 34.58 61.33 C 32.06 67.50 35.80 74.74 32.05 80.50 C 29.90 80.45 27.74 80.30 25.59 80.18 Z" />
</g>
<g id="#b2dbedff">
<path fill="#b2dbed" opacity="1.00" d=" M 32.05 80.50 C 35.80 74.74 32.06 67.50 34.58 61.33 C 35.86 63.54 37.45 65.78 37.70 68.40 C 37.79 71.56 37.65 74.72 37.63 77.87 C 38.21 77.98 39.39 78.20 39.98 78.31 C 38.40 78.94 36.83 79.60 35.20 80.09 C 34.41 80.19 32.84 80.40 32.05 80.50 Z" />
</g>
<g id="#cce5efff">
<path fill="#cce5ef" opacity="1.00" d=" M 37.63 77.87 C 37.65 74.72 37.79 71.56 37.70 68.40 C 39.49 71.50 42.54 73.24 45.71 74.62 C 43.83 75.90 41.92 77.13 39.98 78.31 C 39.39 78.20 38.21 77.98 37.63 77.87 Z" />
</g>
</svg>
