<?xml version="1.0" encoding="UTF-8" ?>
<!DOCTYPE svg PUBLIC "-//W3C//DTD SVG 1.1//EN" "http://www.w3.org/Graphics/SVG/1.1/DTD/svg11.dtd">
<svg width="96pt" height="96pt" viewBox="0 0 96 96" version="1.1" xmlns="http://www.w3.org/2000/svg">
<path fill="#eeac54" opacity="1.00" d=" M 28.42 9.99 C 40.35 3.37 55.90 3.33 67.80 10.05 C 67.35 10.47 66.45 11.32 66.00 11.74 C 54.94 5.43 41.32 6.60 29.85 11.08 C 29.49 10.81 28.77 10.26 28.42 9.99 Z" />
<path fill="#fdeb78" opacity="1.00" d=" M 29.85 11.08 C 41.32 6.60 54.94 5.43 66.00 11.74 C 66.17 13.98 66.36 16.22 66.54 18.46 C 67.74 16.08 68.94 13.69 70.56 11.55 C 75.23 14.56 79.62 18.15 82.72 22.83 C 73.82 22.00 63.50 19.38 56.08 26.07 C 52.33 28.20 52.48 35.12 57.24 35.70 C 61.90 35.03 66.12 32.11 71.01 32.55 C 76.79 31.89 81.66 35.29 86.92 36.90 C 91.15 46.57 89.43 58.21 84.02 67.07 C 81.14 68.30 78.21 69.43 75.15 70.11 C 75.01 69.60 74.73 68.57 74.59 68.06 C 77.39 64.47 79.63 60.38 80.10 55.77 C 82.28 53.31 84.42 50.80 86.26 48.06 C 83.42 49.48 80.65 51.00 77.81 52.39 C 78.96 49.82 80.39 47.36 82.38 45.34 C 84.07 44.21 86.65 43.55 86.85 41.16 C 85.40 38.74 82.73 37.51 80.27 36.38 C 79.78 36.29 78.80 36.10 78.31 36.01 C 76.07 39.46 74.52 43.28 72.93 47.05 C 73.49 43.02 74.16 38.99 74.83 34.97 C 74.21 35.07 72.96 35.26 72.33 35.35 C 69.64 41.15 70.51 50.13 63.41 52.66 C 62.16 49.61 61.11 46.16 57.96 44.53 C 58.13 49.83 59.88 54.93 62.53 59.49 C 60.29 61.65 56.92 61.08 54.09 61.18 C 54.50 55.46 54.51 49.72 53.97 44.01 C 52.77 44.03 51.58 44.08 50.38 44.14 C 50.25 48.26 50.01 52.37 50.02 56.50 C 48.93 55.35 47.85 54.20 46.78 53.05 C 46.73 50.14 46.72 47.22 47.20 44.35 C 50.71 36.57 48.49 26.72 41.56 21.61 C 37.71 18.84 30.89 18.83 30.34 12.98 C 30.21 12.50 29.97 11.55 29.85 11.08 Z" />
<path fill="#a43f10" opacity="1.00" d=" M 17.35 14.84 C 15.47 8.74 24.69 5.94 28.42 9.99 C 28.77 10.26 29.49 10.81 29.85 11.08 C 29.97 11.55 30.21 12.50 30.34 12.98 C 30.21 14.53 30.03 16.09 29.78 17.63 C 29.46 17.70 28.81 17.84 28.49 17.91 C 27.74 15.71 26.92 13.50 25.57 11.58 C 22.22 9.96 19.53 12.69 17.35 14.84 Z" />
<path fill="#a43f10" opacity="1.00" d=" M 67.80 10.05 C 71.93 5.72 79.89 8.98 79.76 15.00 C 76.68 13.67 74.35 9.63 70.56 11.55 C 68.94 13.69 67.74 16.08 66.54 18.46 C 66.36 16.22 66.17 13.98 66.00 11.74 C 66.45 11.32 67.35 10.47 67.80 10.05 Z" />
<path fill="#ffcf74" opacity="1.00" d=" M 25.57 11.58 C 26.92 13.50 27.74 15.71 28.49 17.91 C 25.43 18.41 22.35 19.00 19.59 20.47 C 16.78 21.79 13.86 22.88 10.95 23.97 C 15.48 19.47 20.21 15.07 25.57 11.58 Z" />
<path fill="#eeac54" opacity="1.00" d=" M 30.34 12.98 C 30.89 18.83 37.71 18.84 41.56 21.61 C 48.49 26.72 50.71 36.57 47.20 44.35 C 46.40 44.18 44.80 43.82 44.00 43.64 C 46.21 39.57 45.98 34.64 43.87 30.58 C 38.63 22.62 28.46 20.67 19.59 20.47 C 22.35 19.00 25.43 18.41 28.49 17.91 C 28.81 17.84 29.46 17.70 29.78 17.63 C 30.03 16.09 30.21 14.53 30.34 12.98 Z" />
<path fill="#1f1f1f" opacity="1.00" d=" M 10.95 23.97 C 13.86 22.88 16.78 21.79 19.59 20.47 C 28.46 20.67 38.63 22.62 43.87 30.58 C 43.23 33.59 41.69 39.10 37.53 36.57 C 28.92 31.23 18.10 32.48 9.33 36.73 C 7.56 34.54 6.16 32.00 6.75 29.07 C 7.79 27.14 8.98 25.06 10.95 23.97 M 10.14 26.34 C 13.53 26.57 15.58 28.90 16.40 32.05 C 21.23 32.29 26.10 31.17 30.89 32.10 C 34.56 32.79 37.43 35.90 41.32 35.65 C 41.86 32.88 41.98 29.42 39.35 27.64 C 31.13 21.56 18.77 20.58 10.14 26.34 Z" />
<path fill="#1f1f1f" opacity="1.00" d=" M 56.08 26.07 C 63.50 19.38 73.82 22.00 82.72 22.83 C 86.95 26.42 91.32 30.58 89.69 36.75 C 88.77 36.81 87.85 36.87 86.92 36.90 C 81.66 35.29 76.79 31.89 71.01 32.55 C 66.12 32.11 61.90 35.03 57.24 35.70 C 52.48 35.12 52.33 28.20 56.08 26.07 M 57.85 25.92 C 60.58 27.04 62.60 29.12 63.35 32.01 C 68.44 31.34 73.71 30.85 78.71 32.33 C 81.99 33.24 84.73 35.89 88.32 35.64 C 89.04 32.66 88.80 28.94 85.84 27.25 C 77.80 21.89 66.22 20.61 57.85 25.92 Z" />
<path fill="#ffffff" opacity="1.00" d=" M 10.14 26.34 C 18.77 20.58 31.13 21.56 39.35 27.64 C 41.98 29.42 41.86 32.88 41.32 35.65 C 37.43 35.90 34.56 32.79 30.89 32.10 C 26.10 31.17 21.23 32.29 16.40 32.05 C 15.58 28.90 13.53 26.57 10.14 26.34 Z" />
<path fill="#ffffff" opacity="1.00" d=" M 57.85 25.92 C 66.22 20.61 77.80 21.89 85.84 27.25 C 88.80 28.94 89.04 32.66 88.32 35.64 C 84.73 35.89 81.99 33.24 78.71 32.33 C 73.71 30.85 68.44 31.34 63.35 32.01 C 62.60 29.12 60.58 27.04 57.85 25.92 Z" />
<path fill="#eeac54" opacity="1.00" d=" M 7.82 63.33 C 3.48 52.39 5.34 40.39 6.75 29.07 C 6.16 32.00 7.56 34.54 9.33 36.73 C 8.60 53.28 32.97 59.76 41.97 46.81 C 42.08 47.60 42.29 49.16 42.39 49.94 C 36.88 57.73 24.72 56.02 16.76 53.15 C 16.43 52.96 15.77 52.59 15.44 52.40 C 12.22 50.82 9.95 48.00 7.85 45.20 C 5.96 63.93 19.56 82.57 37.75 87.05 C 55.51 92.71 74.94 82.60 84.02 67.07 C 89.43 58.21 91.15 46.57 86.92 36.90 C 87.85 36.87 88.77 36.81 89.69 36.75 C 92.02 46.97 91.44 58.16 86.47 67.54 C 79.43 81.75 63.95 91.48 48.00 90.98 C 30.51 91.49 13.83 79.63 7.82 63.33 Z" />
<path fill="#743399" opacity="1.00" d=" M 43.87 30.58 C 45.98 34.64 46.21 39.57 44.00 43.64 C 43.36 44.72 42.69 45.78 41.97 46.81 C 32.97 59.76 8.60 53.28 9.33 36.73 C 18.10 32.48 28.92 31.23 37.53 36.57 C 41.69 39.10 43.23 33.59 43.87 30.58 Z" />
<path fill="#db4100" opacity="1.00" d=" M 72.33 35.35 C 72.96 35.26 74.21 35.07 74.83 34.97 C 74.16 38.99 73.49 43.02 72.93 47.05 C 74.52 43.28 76.07 39.46 78.31 36.01 C 78.80 36.10 79.78 36.29 80.27 36.38 C 79.22 40.41 77.72 44.30 76.16 48.16 C 78.37 44.92 80.54 41.65 83.11 38.68 C 82.98 40.91 82.76 43.14 82.38 45.34 C 80.39 47.36 78.96 49.82 77.81 52.39 C 80.65 51.00 83.42 49.48 86.26 48.06 C 84.42 50.80 82.28 53.31 80.10 55.77 C 79.43 56.53 78.77 57.29 78.13 58.07 C 75.95 60.28 74.00 63.20 70.86 64.06 C 67.48 64.22 64.81 61.67 62.53 59.49 C 59.88 54.93 58.13 49.83 57.96 44.53 C 61.11 46.16 62.16 49.61 63.41 52.66 C 70.51 50.13 69.64 41.15 72.33 35.35 Z" />
<path fill="#eeac54" opacity="1.00" d=" M 80.27 36.38 C 82.73 37.51 85.40 38.74 86.85 41.16 C 86.65 43.55 84.07 44.21 82.38 45.34 C 82.76 43.14 82.98 40.91 83.11 38.68 C 80.54 41.65 78.37 44.92 76.16 48.16 C 77.72 44.30 79.22 40.41 80.27 36.38 Z" />
<path fill="#db4100" opacity="1.00" d=" M 41.97 46.81 C 42.69 45.78 43.36 44.72 44.00 43.64 C 44.80 43.82 46.40 44.18 47.20 44.35 C 46.72 47.22 46.73 50.14 46.78 53.05 C 46.45 59.44 48.66 66.45 45.44 72.36 C 44.78 71.98 43.46 71.22 42.80 70.84 C 42.37 63.88 42.97 56.89 42.39 49.94 C 42.29 49.16 42.08 47.60 41.97 46.81 Z" />
<path fill="#db4100" opacity="1.00" d=" M 50.38 44.14 C 51.58 44.08 52.77 44.03 53.97 44.01 C 54.51 49.72 54.50 55.46 54.09 61.18 C 52.81 61.13 51.53 61.07 50.24 61.00 C 50.17 59.50 50.06 58.00 50.02 56.50 C 50.01 52.37 50.25 48.26 50.38 44.14 Z" />
<path fill="#ffcf74" opacity="1.00" d=" M 37.75 87.05 C 19.56 82.57 5.96 63.93 7.85 45.20 C 9.95 48.00 12.22 50.82 15.44 52.40 C 15.79 61.90 22.09 70.49 30.62 74.40 C 44.68 81.49 63.26 79.22 74.59 68.06 C 74.73 68.57 75.01 69.60 75.15 70.11 C 78.21 69.43 81.14 68.30 84.02 67.07 C 74.94 82.60 55.51 92.71 37.75 87.05 Z" />
<path fill="#ffcf74" opacity="1.00" d=" M 42.39 49.94 C 42.97 56.89 42.37 63.88 42.80 70.84 C 43.46 71.22 44.78 71.98 45.44 72.36 C 48.66 66.45 46.45 59.44 46.78 53.05 C 47.85 54.20 48.93 55.35 50.02 56.50 C 50.06 58.00 50.17 59.50 50.24 61.00 C 51.53 61.07 52.81 61.13 54.09 61.18 C 56.92 61.08 60.29 61.65 62.53 59.49 C 64.81 61.67 67.48 64.22 70.86 64.06 C 74.00 63.20 75.95 60.28 78.13 58.07 C 66.68 82.45 23.01 80.26 16.76 53.15 C 24.72 56.02 36.88 57.73 42.39 49.94 Z" />
<path fill="#7a130c" opacity="1.00" d=" M 15.44 52.40 C 15.77 52.59 16.43 52.96 16.76 53.15 C 23.01 80.26 66.68 82.45 78.13 58.07 C 78.77 57.29 79.43 56.53 80.10 55.77 C 79.63 60.38 77.39 64.47 74.59 68.06 C 63.26 79.22 44.68 81.49 30.62 74.40 C 22.09 70.49 15.79 61.90 15.44 52.40 Z" />
</svg>
