<?xml version="1.0" encoding="UTF-8" ?>
<!DOCTYPE svg PUBLIC "-//W3C//DTD SVG 1.1//EN" "http://www.w3.org/Graphics/SVG/1.1/DTD/svg11.dtd">
<svg width="96pt" height="96pt" viewBox="0 0 96 96" version="1.1" xmlns="http://www.w3.org/2000/svg">
<g id="#f9b20fff">
<path fill="#f9b20f" opacity="1.00" d=" M 26.09 10.70 C 33.71 6.26 42.63 4.30 51.42 4.60 L 51.27 5.17 C 50.86 6.79 50.44 8.41 50.02 10.03 C 48.56 10.08 47.10 10.13 45.64 10.19 C 39.46 10.07 33.52 12.26 28.18 15.20 C 27.48 13.70 26.79 12.20 26.09 10.70 Z" />
</g>
<g id="#fabd0fff">
<path fill="#fabd0f" opacity="1.00" d=" M 50.02 10.03 C 50.44 8.41 50.86 6.79 51.27 5.17 C 59.09 5.27 66.73 8.39 73.07 12.88 C 72.59 14.69 72.10 16.50 71.62 18.32 C 68.90 16.17 65.88 14.33 62.48 13.48 C 56.76 12.05 50.88 11.11 44.98 11.10 L 45.64 10.19 C 47.10 10.13 48.56 10.08 50.02 10.03 Z" />
</g>
<g id="#ec8f1bff">
<path fill="#ec8f1b" opacity="1.00" d=" M 28.18 15.20 C 33.52 12.26 39.46 10.07 45.64 10.19 L 44.98 11.10 C 40.93 12.06 36.82 12.86 32.99 14.53 C 21.71 19.65 13.58 30.59 11.70 42.81 C 10.02 49.26 12.65 55.58 13.39 61.94 C 9.60 56.76 9.66 50.04 9.97 43.91 C 11.02 32.10 18.38 21.59 28.18 15.20 Z" />
</g>
<g id="#f8a50eff">
<path fill="#f8a50e" opacity="1.00" d=" M 4.74 50.00 C 4.02 34.32 12.42 18.54 26.09 10.70 C 26.79 12.20 27.48 13.70 28.18 15.20 C 18.38 21.59 11.02 32.10 9.97 43.91 C 9.66 50.04 9.60 56.76 13.39 61.94 C 15.83 67.94 21.56 71.60 24.92 77.01 C 23.15 76.04 21.36 74.99 19.36 74.56 C 18.01 75.07 16.77 75.81 15.50 76.48 C 9.20 69.09 5.34 59.69 4.74 50.00 Z" />
</g>
<g id="#f8bb0eff">
<path fill="#f8bb0e" opacity="1.00" d=" M 32.99 14.53 C 36.82 12.86 40.93 12.06 44.98 11.10 C 50.88 11.11 56.76 12.05 62.48 13.48 C 66.30 16.36 70.55 18.73 73.89 22.21 C 72.40 26.08 71.69 30.18 71.34 34.30 C 70.13 34.28 68.93 34.27 67.72 34.25 C 64.65 31.37 60.01 30.57 56.11 32.09 C 52.37 33.87 49.63 37.74 49.69 41.96 C 49.57 48.60 48.77 55.60 51.72 61.79 C 49.03 69.01 47.76 76.59 47.06 84.23 C 42.54 84.08 38.06 83.17 33.84 81.56 C 36.30 77.42 36.13 72.50 36.56 67.87 C 35.54 67.17 34.53 66.48 33.51 65.79 C 33.72 65.77 34.14 65.72 34.35 65.70 C 36.60 65.90 38.84 66.17 41.08 66.38 C 41.22 55.45 41.28 44.51 41.02 33.58 C 40.19 33.61 39.37 33.63 38.54 33.64 C 38.29 33.28 37.80 32.56 37.55 32.20 C 36.36 32.47 35.18 32.80 34.01 33.12 C 33.62 33.03 32.86 32.85 32.48 32.76 C 33.71 27.01 35.48 21.35 35.88 15.45 C 35.16 15.22 33.71 14.76 32.99 14.53 Z" />
</g>
<g id="#fbce10ff">
<path fill="#fbce10" opacity="1.00" d=" M 73.07 12.88 C 79.78 17.86 85.96 24.31 89.01 32.18 C 89.44 37.16 91.17 41.95 91.15 46.97 C 91.46 60.96 84.54 74.97 73.02 82.99 C 68.04 86.61 62.20 88.85 56.24 90.26 C 53.69 90.13 51.16 89.82 48.63 89.52 C 48.05 88.30 47.48 87.08 46.90 85.85 C 55.64 86.07 64.80 83.42 71.35 77.46 C 79.52 71.53 84.54 61.91 85.79 52.00 C 87.20 39.34 81.58 26.22 71.62 18.32 C 72.10 16.50 72.59 14.69 73.07 12.88 Z" />
</g>
<g id="#f8cd67ff">
<path fill="#f8cd67" opacity="1.00" d=" M 62.48 13.48 C 65.88 14.33 68.90 16.17 71.62 18.32 C 81.58 26.22 87.20 39.34 85.79 52.00 C 84.54 61.91 79.52 71.53 71.35 77.46 C 71.28 75.52 72.91 74.34 74.07 73.05 C 82.62 64.50 86.10 51.37 83.33 39.65 C 81.93 33.08 78.48 27.08 73.89 22.21 C 70.55 18.73 66.30 16.36 62.48 13.48 Z" />
</g>
<g id="#f9c90fff">
<path fill="#f9c90f" opacity="1.00" d=" M 11.70 42.81 C 13.58 30.59 21.71 19.65 32.99 14.53 C 33.71 14.76 35.16 15.22 35.88 15.45 C 35.48 21.35 33.71 27.01 32.48 32.76 C 32.86 32.85 33.62 33.03 34.01 33.12 C 30.73 34.37 27.12 35.11 24.25 37.22 C 24.02 38.76 23.98 40.33 23.90 41.89 C 24.88 41.63 25.85 41.38 26.83 41.13 C 26.92 41.78 27.09 43.09 27.17 43.74 C 28.86 43.18 30.55 42.62 32.21 41.98 C 32.37 49.31 32.14 56.64 32.34 63.97 C 34.35 64.04 36.37 64.10 38.38 64.18 C 37.04 64.70 35.70 65.20 34.35 65.70 C 34.14 65.72 33.72 65.77 33.51 65.79 C 34.53 66.48 35.54 67.17 36.56 67.87 C 36.13 72.50 36.30 77.42 33.84 81.56 C 30.83 80.12 27.95 78.41 24.92 77.01 C 21.56 71.60 15.83 67.94 13.39 61.94 C 12.65 55.58 10.02 49.26 11.70 42.81 Z" />
</g>
<g id="#f7a50eff">
<path fill="#f7a50e" opacity="1.00" d=" M 71.34 34.30 C 71.69 30.18 72.40 26.08 73.89 22.21 C 78.48 27.08 81.93 33.08 83.33 39.65 C 86.10 51.37 82.62 64.50 74.07 73.05 C 72.91 74.34 71.28 75.52 71.35 77.46 C 68.41 76.70 66.19 79.48 63.69 80.52 C 63.94 75.98 64.87 71.52 65.89 67.10 C 68.81 65.06 72.39 63.10 73.25 59.33 C 74.51 53.45 74.47 47.28 73.52 41.36 C 73.27 39.06 71.68 37.32 69.93 35.98 C 69.20 35.39 68.46 34.82 67.72 34.25 C 68.93 34.27 70.13 34.28 71.34 34.30 Z" />
</g>
<g id="#f8e817ff">
<path fill="#f8e817" opacity="1.00" d=" M 56.11 32.09 C 60.01 30.57 64.65 31.37 67.72 34.25 C 68.46 34.82 69.20 35.39 69.93 35.98 C 71.68 42.18 71.33 48.70 71.08 55.07 C 71.02 58.95 68.76 62.71 65.21 64.37 C 62.82 65.32 60.18 65.23 57.64 65.29 C 55.58 64.29 53.68 62.99 51.72 61.79 C 48.77 55.60 49.57 48.60 49.69 41.96 C 49.63 37.74 52.37 33.87 56.11 32.09 M 56.19 40.10 C 55.36 45.34 55.32 50.75 56.14 55.99 C 56.25 57.53 57.56 58.49 58.44 59.61 L 58.42 60.12 C 59.96 59.87 61.84 60.29 62.99 58.96 C 65.46 56.75 64.72 53.02 65.14 50.06 C 64.96 45.57 65.83 40.24 62.44 36.69 C 59.99 36.66 56.73 37.23 56.19 40.10 Z" />
<path fill="#f8e817" opacity="1.00" d=" M 34.01 33.12 C 35.18 32.80 36.36 32.47 37.55 32.20 C 37.80 32.56 38.29 33.28 38.54 33.64 C 38.29 43.82 38.53 54.00 38.38 64.18 C 36.37 64.10 34.35 64.04 32.34 63.97 C 32.14 56.64 32.37 49.31 32.21 41.98 C 32.22 41.42 32.23 40.29 32.24 39.73 C 30.43 40.19 28.63 40.66 26.83 41.13 C 25.85 41.38 24.88 41.63 23.90 41.89 C 23.98 40.33 24.02 38.76 24.25 37.22 C 27.12 35.11 30.73 34.37 34.01 33.12 Z" />
</g>
<g id="#df8a12fe">
<path fill="#df8a12" opacity="1.00" d=" M 38.54 33.64 C 39.37 33.63 40.19 33.61 41.02 33.58 C 41.28 44.51 41.22 55.45 41.08 66.38 C 38.84 66.17 36.60 65.90 34.35 65.70 C 35.70 65.20 37.04 64.70 38.38 64.18 C 38.53 54.00 38.29 43.82 38.54 33.64 Z" />
<path fill="#df8a12" opacity="1.00" d=" M 89.01 32.18 C 93.90 40.86 93.86 51.61 91.79 61.13 C 88.62 73.11 80.06 83.64 68.79 88.89 C 58.74 93.94 46.74 94.22 36.09 90.96 C 34.81 90.50 33.63 89.81 32.44 89.15 C 40.30 90.33 48.33 92.45 56.24 90.26 C 62.20 88.85 68.04 86.61 73.02 82.99 C 84.54 74.97 91.46 60.96 91.15 46.97 C 91.17 41.95 89.44 37.16 89.01 32.18 Z" />
<path fill="#df8a12" opacity="1.00" d=" M 69.93 35.98 C 71.68 37.32 73.27 39.06 73.52 41.36 C 74.47 47.28 74.51 53.45 73.25 59.33 C 72.39 63.10 68.81 65.06 65.89 67.10 C 63.07 66.92 60.18 66.65 57.64 65.29 C 60.18 65.23 62.82 65.32 65.21 64.37 C 68.76 62.71 71.02 58.95 71.08 55.07 C 71.33 48.70 71.68 42.18 69.93 35.98 Z" />
</g>
<g id="#e18b12ff">
<path fill="#e18b12" opacity="1.00" d=" M 56.19 40.10 C 56.73 37.23 59.99 36.66 62.44 36.69 C 61.03 38.65 58.90 40.41 58.73 42.98 C 58.31 48.51 58.89 54.07 58.44 59.61 C 57.56 58.49 56.25 57.53 56.14 55.99 C 55.32 50.75 55.36 45.34 56.19 40.10 Z" />
</g>
<g id="#f8af0eff">
<path fill="#f8af0e" opacity="1.00" d=" M 62.44 36.69 C 65.83 40.24 64.96 45.57 65.14 50.06 C 64.72 53.02 65.46 56.75 62.99 58.96 C 61.84 60.29 59.96 59.87 58.42 60.12 L 58.44 59.61 C 58.89 54.07 58.31 48.51 58.73 42.98 C 58.90 40.41 61.03 38.65 62.44 36.69 Z" />
</g>
<g id="#e49612ff">
<path fill="#e49612" opacity="1.00" d=" M 26.83 41.13 C 28.63 40.66 30.43 40.19 32.24 39.73 C 32.23 40.29 32.22 41.42 32.21 41.98 C 30.55 42.62 28.86 43.18 27.17 43.74 C 27.09 43.09 26.92 41.78 26.83 41.13 Z" />
</g>
<g id="#f8b10eff">
<path fill="#f8b10e" opacity="1.00" d=" M 47.06 84.23 C 47.76 76.59 49.03 69.01 51.72 61.79 C 53.68 62.99 55.58 64.29 57.64 65.29 C 60.18 66.65 63.07 66.92 65.89 67.10 C 64.87 71.52 63.94 75.98 63.69 80.52 C 58.55 83.09 52.79 84.28 47.06 84.23 Z" />
</g>
<g id="#fab50fff">
<path fill="#fab50f" opacity="1.00" d=" M 19.36 74.56 C 21.36 74.99 23.15 76.04 24.92 77.01 C 30.48 83.00 38.95 85.45 46.90 85.85 C 47.48 87.08 48.05 88.30 48.63 89.52 C 51.16 89.82 53.69 90.13 56.24 90.26 C 48.33 92.45 40.30 90.33 32.44 89.15 C 25.72 86.70 20.30 81.64 15.50 76.48 C 16.77 75.81 18.01 75.07 19.36 74.56 Z" />
</g>
<g id="#f6bc51ff">
<path fill="#f6bc51" opacity="1.00" d=" M 24.92 77.01 C 27.95 78.41 30.83 80.12 33.84 81.56 C 38.06 83.17 42.54 84.08 47.06 84.23 C 52.79 84.28 58.55 83.09 63.69 80.52 C 66.19 79.48 68.41 76.70 71.35 77.46 C 64.80 83.42 55.64 86.07 46.90 85.85 C 38.95 85.45 30.48 83.00 24.92 77.01 Z" />
</g>
</svg>
