<?xml version="1.0" encoding="UTF-8" ?>
<!DOCTYPE svg PUBLIC "-//W3C//DTD SVG 1.1//EN" "http://www.w3.org/Graphics/SVG/1.1/DTD/svg11.dtd">
<svg width="96pt" height="96pt" viewBox="0 0 96 96" version="1.1" xmlns="http://www.w3.org/2000/svg">
<g id="#f0ac53ff">
<path fill="#f0ac53" opacity="1.00" d=" M 28.94 10.08 C 37.20 6.13 46.79 3.75 55.83 6.15 C 64.15 8.03 72.28 11.88 78.09 18.25 C 76.65 17.99 75.22 17.74 73.79 17.46 C 59.84 4.89 36.67 4.74 22.74 17.44 C 21.34 17.92 19.94 18.38 18.54 18.84 C 18.47 19.55 18.33 20.97 18.26 21.68 C 6.41 33.45 5.06 53.27 12.98 67.58 C 12.70 68.21 12.14 69.46 11.87 70.09 C 9.00 65.79 7.35 60.84 6.18 55.85 C 4.84 50.79 4.87 45.22 6.18 40.15 C 8.74 27.38 17.16 15.82 28.94 10.08 Z" />
<path fill="#f0ac53" opacity="1.00" d=" M 78.54 18.33 C 83.44 23.87 87.52 30.38 89.10 37.68 C 89.47 41.11 90.23 44.51 90.36 47.97 C 90.23 51.45 89.47 54.87 89.10 58.33 C 87.90 63.94 85.14 69.12 81.78 73.73 C 81.28 72.90 80.77 72.07 80.24 71.26 C 83.73 66.63 86.29 61.30 87.40 55.58 C 89.71 43.72 86.23 31.07 78.47 21.85 C 78.49 20.68 78.52 19.50 78.54 18.33 Z" />
<path fill="#f0ac53" opacity="1.00" d=" M 26.78 84.90 C 27.00 83.97 27.24 83.05 27.48 82.13 C 39.83 90.47 57.01 89.69 69.47 81.96 C 69.45 82.64 69.41 84.00 69.39 84.68 C 61.08 89.24 51.36 91.96 41.88 90.30 C 36.64 89.13 31.55 87.36 26.78 84.90 Z" />
</g>
<g id="#fded78ff">
<path fill="#fded78" opacity="1.00" d=" M 22.74 17.44 C 36.67 4.74 59.84 4.89 73.79 17.46 C 67.30 16.32 60.86 18.20 55.36 21.63 C 55.51 22.66 55.65 23.70 55.77 24.73 C 58.83 24.20 61.53 22.64 64.41 21.60 C 69.01 20.03 73.79 21.71 78.47 21.85 C 86.23 31.07 89.71 43.72 87.40 55.58 C 81.42 57.19 75.11 57.88 68.96 57.09 C 57.68 55.07 46.99 47.54 42.63 36.79 C 36.16 37.23 29.61 37.24 23.22 36.03 L 22.96 35.20 C 28.97 35.28 35.00 35.47 41.00 35.09 C 41.19 34.50 41.58 33.32 41.77 32.72 C 35.43 32.58 29.09 32.49 22.75 32.74 C 23.75 31.64 24.84 30.62 25.73 29.43 C 26.55 27.41 26.20 25.10 26.96 23.06 C 27.94 22.27 29.03 21.63 30.08 20.94 C 33.98 21.41 37.26 24.78 41.20 24.24 C 41.30 23.67 41.50 22.53 41.60 21.96 C 36.28 17.81 29.34 16.45 22.74 17.44 M 55.69 32.73 C 55.91 33.38 56.35 34.67 56.57 35.32 C 62.45 35.12 68.33 35.43 74.21 35.17 C 74.30 34.53 74.49 33.27 74.58 32.64 C 68.28 32.66 61.99 32.52 55.69 32.73 Z" />
</g>
<g id="#a1390aff">
<path fill="#a1390a" opacity="1.00" d=" M 22.74 17.44 C 29.34 16.45 36.28 17.81 41.60 21.96 C 41.50 22.53 41.30 23.67 41.20 24.24 C 37.26 24.78 33.98 21.41 30.08 20.94 C 26.12 20.69 22.23 21.78 18.26 21.68 C 18.33 20.97 18.47 19.55 18.54 18.84 C 19.94 18.38 21.34 17.92 22.74 17.44 Z" />
</g>
<g id="#a2390bff">
<path fill="#a2390b" opacity="1.00" d=" M 55.36 21.63 C 60.86 18.20 67.30 16.32 73.79 17.46 C 75.22 17.74 76.65 17.99 78.09 18.25 L 78.54 18.33 C 78.52 19.50 78.49 20.68 78.47 21.85 C 73.79 21.71 69.01 20.03 64.41 21.60 C 61.53 22.64 58.83 24.20 55.77 24.73 C 55.65 23.70 55.51 22.66 55.36 21.63 Z" />
</g>
<g id="#ffcb73ff">
<path fill="#ffcb73" opacity="1.00" d=" M 18.26 21.68 C 22.23 21.78 26.12 20.69 30.08 20.94 C 29.03 21.63 27.94 22.27 26.96 23.06 C 26.20 25.10 26.55 27.41 25.73 29.43 C 24.84 30.62 23.75 31.64 22.75 32.74 C 22.80 33.35 22.91 34.58 22.96 35.20 L 23.22 36.03 C 24.85 42.80 29.14 48.65 30.33 55.52 C 23.22 56.98 16.57 61.15 12.98 67.58 C 5.06 53.27 6.41 33.45 18.26 21.68 Z" />
</g>
<g id="#131318ff">
<path fill="#131318" opacity="1.00" d=" M 22.75 32.74 C 29.09 32.49 35.43 32.58 41.77 32.72 C 41.58 33.32 41.19 34.50 41.00 35.09 C 35.00 35.47 28.97 35.28 22.96 35.20 C 22.91 34.58 22.80 33.35 22.75 32.74 Z" />
</g>
<g id="#141318ff">
<path fill="#141318" opacity="1.00" d=" M 55.69 32.73 C 61.99 32.52 68.28 32.66 74.58 32.64 C 74.49 33.27 74.30 34.53 74.21 35.17 C 68.33 35.43 62.45 35.12 56.57 35.32 C 56.35 34.67 55.91 33.38 55.69 32.73 Z" />
</g>
<g id="#fee076ff">
<path fill="#fee076" opacity="1.00" d=" M 23.22 36.03 C 29.61 37.24 36.16 37.23 42.63 36.79 C 46.99 47.54 57.68 55.07 68.96 57.09 C 75.11 57.88 81.42 57.19 87.40 55.58 C 86.29 61.30 83.73 66.63 80.24 71.26 C 76.38 65.26 70.10 60.65 62.92 59.76 C 58.87 59.32 55.93 55.85 51.84 55.58 C 44.70 54.86 37.42 54.02 30.33 55.52 C 29.14 48.65 24.85 42.80 23.22 36.03 Z" />
</g>
<g id="#8d663197">
<path fill="#8d6631" opacity="0.59" d=" M 89.10 37.68 C 91.50 42.07 91.07 47.21 90.92 52.03 C 90.85 54.25 90.01 56.33 89.10 58.33 C 89.47 54.87 90.23 51.45 90.36 47.97 C 90.23 44.51 89.47 41.11 89.10 37.68 Z" />
</g>
<g id="#ff9f0cff">
<path fill="#ff9f0c" opacity="1.00" d=" M 30.33 55.52 C 37.42 54.02 44.70 54.86 51.84 55.58 C 55.93 55.85 58.87 59.32 62.92 59.76 C 70.10 60.65 76.38 65.26 80.24 71.26 C 80.77 72.07 81.28 72.90 81.78 73.73 C 84.16 78.26 86.67 83.06 87.28 88.16 L 85.80 88.51 C 85.62 88.20 85.25 87.60 85.07 87.29 C 82.55 79.77 79.46 71.96 73.18 66.76 C 70.15 64.06 66.28 62.68 62.44 61.59 C 62.49 64.96 63.77 69.21 60.68 71.66 C 55.83 76.17 48.88 76.57 42.61 76.66 C 47.45 81.39 54.66 81.15 60.91 80.39 C 63.88 79.99 66.58 76.17 69.52 78.61 C 72.09 80.27 71.72 83.65 71.41 86.27 L 69.88 87.70 C 69.76 86.95 69.51 85.44 69.39 84.68 C 69.41 84.00 69.45 82.64 69.47 81.96 C 67.83 78.82 64.88 81.70 62.62 82.29 C 54.64 84.40 44.77 83.41 39.33 76.50 C 36.05 76.26 32.75 76.24 29.46 76.36 C 28.75 78.26 28.05 80.18 27.48 82.13 C 27.24 83.05 27.00 83.97 26.78 84.90 C 26.63 85.47 26.34 86.61 26.20 87.17 C 25.70 86.94 24.69 86.46 24.19 86.22 L 24.31 85.72 C 25.84 81.62 25.25 74.43 30.95 73.81 C 38.57 73.50 46.46 75.60 53.88 72.92 C 56.71 71.88 60.25 70.22 60.68 66.86 C 61.35 62.90 57.65 59.99 54.47 58.51 C 49.13 56.98 43.49 57.16 37.99 57.05 C 30.19 56.96 21.84 59.57 16.89 65.88 C 12.82 71.01 12.13 77.77 11.49 84.05 L 11.40 84.95 C 9.83 85.19 9.16 84.57 9.39 83.08 C 9.76 78.69 10.35 74.25 11.87 70.09 C 12.14 69.46 12.70 68.21 12.98 67.58 C 16.57 61.15 23.22 56.98 30.33 55.52 Z" />
</g>
<g id="#ffe06eff">
<path fill="#ffe06e" opacity="1.00" d=" M 16.89 65.88 C 21.84 59.57 30.19 56.96 37.99 57.05 C 43.49 57.16 49.13 56.98 54.47 58.51 C 57.65 59.99 61.35 62.90 60.68 66.86 C 60.25 70.22 56.71 71.88 53.88 72.92 C 46.46 75.60 38.57 73.50 30.95 73.81 C 25.25 74.43 25.84 81.62 24.31 85.72 C 20.03 85.18 15.75 84.73 11.49 84.05 C 12.13 77.77 12.82 71.01 16.89 65.88 Z" />
<path fill="#ffe06e" opacity="1.00" d=" M 62.44 61.59 C 66.28 62.68 70.15 64.06 73.18 66.76 C 79.46 71.96 82.55 79.77 85.07 87.29 C 80.51 86.96 75.98 86.47 71.41 86.27 C 71.72 83.65 72.09 80.27 69.52 78.61 C 66.58 76.17 63.88 79.99 60.91 80.39 C 54.66 81.15 47.45 81.39 42.61 76.66 C 48.88 76.57 55.83 76.17 60.68 71.66 C 63.77 69.21 62.49 64.96 62.44 61.59 Z" />
</g>
<g id="#ffca73ff">
<path fill="#ffca73" opacity="1.00" d=" M 29.46 76.36 C 32.75 76.24 36.05 76.26 39.33 76.50 C 44.77 83.41 54.64 84.40 62.62 82.29 C 64.88 81.70 67.83 78.82 69.47 81.96 C 57.01 89.69 39.83 90.47 27.48 82.13 C 28.05 80.18 28.75 78.26 29.46 76.36 Z" />
</g>
</svg>
