<?xml version="1.0" encoding="UTF-8" ?>
<!DOCTYPE svg PUBLIC "-//W3C//DTD SVG 1.1//EN" "http://www.w3.org/Graphics/SVG/1.1/DTD/svg11.dtd">
<svg width="96pt" height="96pt" viewBox="0 0 96 96" version="1.1" xmlns="http://www.w3.org/2000/svg">
<g id="#eea44fff">
<path fill="#eea44f" opacity="1.00" d=" M 32.36 8.34 C 44.32 3.33 59.09 4.35 69.89 11.58 C 68.87 11.94 67.85 12.28 66.84 12.65 C 62.30 9.36 56.53 8.23 51.06 7.66 C 46.18 7.55 40.99 7.38 36.49 9.59 C 35.13 9.12 33.75 8.71 32.36 8.34 Z" />
</g>
<g id="#a23c0cff">
<path fill="#a23c0c" opacity="1.00" d=" M 22.26 12.42 C 24.56 9.41 28.73 8.44 32.36 8.34 C 33.75 8.71 35.13 9.12 36.49 9.59 C 38.44 10.53 40.49 11.40 42.02 12.99 C 41.61 14.00 40.95 14.83 40.05 15.47 C 37.14 14.08 34.35 11.81 30.93 12.12 C 28.36 12.11 26.25 13.81 24.18 15.13 C 23.76 14.82 22.90 14.20 22.47 13.89 C 22.41 13.52 22.31 12.79 22.26 12.42 Z" />
</g>
<g id="#fded78ff">
<path fill="#fded78" opacity="1.00" d=" M 36.49 9.59 C 40.99 7.38 46.18 7.55 51.06 7.66 C 56.53 8.23 62.30 9.36 66.84 12.65 C 66.17 13.05 64.81 13.84 64.13 14.24 C 64.15 15.37 64.68 17.04 66.15 16.79 C 68.96 16.01 71.78 13.57 74.76 15.22 C 74.81 15.89 74.90 17.22 74.95 17.88 C 75.12 17.35 75.47 16.29 75.64 15.76 C 76.54 16.57 77.45 17.39 78.36 18.20 C 78.32 20.01 78.77 21.71 79.98 23.10 C 85.04 29.93 87.96 38.09 88.80 46.52 C 86.15 43.90 83.03 41.09 79.02 41.35 C 75.60 41.03 71.11 42.39 70.19 46.09 C 69.20 51.22 74.99 54.36 79.34 54.58 C 82.99 55.12 86.28 53.18 88.78 50.70 C 88.59 51.76 88.41 52.83 88.22 53.90 C 82.91 55.84 77.39 57.12 72.08 59.07 C 67.41 60.74 62.25 59.83 57.64 61.60 C 57.00 65.10 57.08 68.67 56.84 72.22 C 56.10 74.43 55.32 76.68 53.88 78.55 C 53.53 78.49 52.83 78.37 52.48 78.31 C 56.49 72.72 55.30 65.36 55.28 58.89 C 57.93 59.00 61.16 58.62 62.53 56.00 C 61.92 53.47 60.01 54.89 58.79 55.92 C 55.05 57.48 51.23 55.48 48.15 53.45 C 44.31 55.41 39.04 54.59 36.77 50.70 C 35.09 51.01 34.68 52.57 35.74 53.84 C 34.76 53.55 33.90 53.08 33.15 52.42 C 34.05 51.01 34.88 49.56 35.72 48.12 C 34.86 46.06 33.23 44.51 31.52 43.15 C 30.93 44.36 30.64 45.79 29.63 46.75 L 28.98 46.18 C 30.27 41.34 25.41 38.42 21.71 36.74 C 23.85 36.16 25.83 37.32 27.79 38.03 C 26.38 34.79 24.62 31.59 24.28 28.00 C 24.00 24.87 24.32 21.71 23.95 18.58 C 22.90 18.42 21.85 18.31 20.79 18.31 C 21.94 17.27 23.06 16.20 24.18 15.13 C 26.25 13.81 28.36 12.11 30.93 12.12 C 34.35 11.81 37.14 14.08 40.05 15.47 C 40.95 14.83 41.61 14.00 42.02 12.99 C 40.49 11.40 38.44 10.53 36.49 9.59 M 31.27 23.36 C 26.97 24.92 26.35 31.46 30.38 33.72 C 33.94 36.41 39.62 33.46 39.50 29.01 C 40.00 24.97 34.79 21.46 31.27 23.36 M 65.64 27.89 C 61.29 30.06 61.44 36.92 66.06 38.69 C 71.23 41.44 76.92 33.83 72.86 29.54 C 71.21 27.39 68.07 26.67 65.64 27.89 Z" />
</g>
<g id="#a43d0dff">
<path fill="#a43d0d" opacity="1.00" d=" M 69.89 11.58 C 72.91 10.12 76.74 10.45 79.16 12.87 C 81.42 15.00 82.05 18.16 82.68 21.07 L 81.81 22.11 C 81.35 22.36 80.43 22.86 79.98 23.10 C 78.77 21.71 78.32 20.01 78.36 18.20 C 78.04 16.15 76.50 14.15 74.32 14.00 C 74.76 14.59 75.20 15.17 75.64 15.76 C 75.47 16.29 75.12 17.35 74.95 17.88 C 74.90 17.22 74.81 15.89 74.76 15.22 C 71.78 13.57 68.96 16.01 66.15 16.79 C 64.68 17.04 64.15 15.37 64.13 14.24 C 64.81 13.84 66.17 13.05 66.84 12.65 C 67.85 12.28 68.87 11.94 69.89 11.58 Z" />
</g>
<g id="#efa951ff">
<path fill="#efa951" opacity="1.00" d=" M 22.47 13.89 C 22.90 14.20 23.76 14.82 24.18 15.13 C 23.06 16.20 21.94 17.27 20.79 18.31 C 18.50 20.33 16.59 22.72 14.75 25.15 C 8.72 33.72 6.22 44.67 7.87 55.02 C 9.52 65.85 15.60 76.05 24.66 82.28 C 32.24 87.68 41.71 90.42 51.01 89.64 C 68.07 88.63 83.58 75.58 87.26 58.85 C 87.64 57.21 87.93 55.56 88.22 53.90 C 88.41 52.83 88.59 51.76 88.78 50.70 C 89.01 49.31 89.00 47.91 88.80 46.52 C 87.96 38.09 85.04 29.93 79.98 23.10 C 80.43 22.86 81.35 22.36 81.81 22.11 C 88.18 29.82 91.23 40.08 90.88 50.03 C 90.69 64.08 82.96 77.73 71.13 85.26 C 61.45 91.64 49.16 93.46 37.94 90.85 C 24.36 87.59 12.70 77.26 7.95 64.10 C 0.94 46.62 7.11 24.86 22.47 13.89 Z" />
</g>
<g id="#fed975ff">
<path fill="#fed975" opacity="1.00" d=" M 14.75 25.15 C 16.59 22.72 18.50 20.33 20.79 18.31 C 21.85 18.31 22.90 18.42 23.95 18.58 C 24.32 21.71 24.00 24.87 24.28 28.00 C 24.62 31.59 26.38 34.79 27.79 38.03 C 25.83 37.32 23.85 36.16 21.71 36.74 C 19.33 37.03 16.95 37.18 14.57 37.40 C 14.62 35.84 16.35 35.23 16.87 33.89 C 17.31 31.19 17.09 28.45 16.86 25.75 C 16.19 25.42 15.49 25.22 14.75 25.15 Z" />
</g>
<g id="#1f1f1fff">
<path fill="#1f1f1f" opacity="1.00" d=" M 31.27 23.36 C 34.79 21.46 40.00 24.97 39.50 29.01 C 39.62 33.46 33.94 36.41 30.38 33.72 C 26.35 31.46 26.97 24.92 31.27 23.36 M 31.45 23.42 C 29.17 27.32 37.44 29.12 37.21 24.66 C 35.57 23.45 33.47 22.85 31.45 23.42 Z" />
<path fill="#1f1f1f" opacity="1.00" d=" M 66.06 38.69 C 61.44 36.92 61.29 30.06 65.64 27.89 C 65.27 31.92 71.29 32.92 72.86 29.54 C 76.92 33.83 71.23 41.44 66.06 38.69 Z" />
</g>
<g id="#838385ff">
<path fill="#838385" opacity="1.00" d=" M 31.45 23.42 C 33.47 22.85 35.57 23.45 37.21 24.66 C 37.44 29.12 29.17 27.32 31.45 23.42 Z" />
</g>
<g id="#ffca73ff">
<path fill="#ffca73" opacity="1.00" d=" M 7.87 55.02 C 6.22 44.67 8.72 33.72 14.75 25.15 C 15.49 25.22 16.19 25.42 16.86 25.75 C 17.09 28.45 17.31 31.19 16.87 33.89 C 16.35 35.23 14.62 35.84 14.57 37.40 C 11.98 38.82 9.07 41.33 10.45 44.63 C 12.63 49.48 18.49 50.42 23.24 50.26 C 21.51 50.74 19.75 51.11 18.00 51.51 C 19.72 51.92 21.50 52.16 23.17 52.77 C 25.23 55.38 26.51 58.65 29.26 60.67 C 31.03 62.22 33.28 63.33 34.60 65.33 C 35.57 68.62 31.27 73.88 36.11 75.37 C 37.33 79.57 41.57 82.94 46.04 82.35 C 48.56 81.69 50.73 80.20 52.48 78.31 C 52.83 78.37 53.53 78.49 53.88 78.55 C 55.32 76.68 56.10 74.43 56.84 72.22 C 64.78 72.90 72.52 69.38 78.84 64.82 C 81.61 62.78 84.15 60.39 87.26 58.85 C 83.58 75.58 68.07 88.63 51.01 89.64 C 41.71 90.42 32.24 87.68 24.66 82.28 C 15.60 76.05 9.52 65.85 7.87 55.02 Z" />
</g>
<g id="#7f7f83ff">
<path fill="#7f7f83" opacity="1.00" d=" M 65.64 27.89 C 68.07 26.67 71.21 27.39 72.86 29.54 C 71.29 32.92 65.27 31.92 65.64 27.89 Z" />
</g>
<g id="#f39e62ff">
<path fill="#f39e62" opacity="1.00" d=" M 14.57 37.40 C 16.95 37.18 19.33 37.03 21.71 36.74 C 25.41 38.42 30.27 41.34 28.98 46.18 C 27.31 47.84 25.53 49.51 23.24 50.26 C 18.49 50.42 12.63 49.48 10.45 44.63 C 9.07 41.33 11.98 38.82 14.57 37.40 M 13.45 42.34 C 13.11 48.45 23.13 49.78 25.69 44.73 C 24.79 39.02 16.31 37.31 13.45 42.34 Z" />
</g>
<g id="#ed8b3aff">
<path fill="#ed8b3a" opacity="1.00" d=" M 13.45 42.34 C 16.31 37.31 24.79 39.02 25.69 44.73 C 23.13 49.78 13.11 48.45 13.45 42.34 Z" />
</g>
<g id="#f2a463ff">
<path fill="#f2a463" opacity="1.00" d=" M 70.19 46.09 C 71.11 42.39 75.60 41.03 79.02 41.35 C 83.03 41.09 86.15 43.90 88.80 46.52 C 89.00 47.91 89.01 49.31 88.78 50.70 C 86.28 53.18 82.99 55.12 79.34 54.58 C 74.99 54.36 69.20 51.22 70.19 46.09 M 75.27 44.46 C 72.25 46.36 73.72 50.06 76.28 51.57 C 79.05 51.89 82.16 52.27 84.62 50.66 C 84.71 48.95 85.45 46.48 83.64 45.43 C 81.27 43.59 78.03 44.13 75.27 44.46 Z" />
</g>
<g id="#fed775ff">
<path fill="#fed775" opacity="1.00" d=" M 31.52 43.15 C 33.23 44.51 34.86 46.06 35.72 48.12 C 34.88 49.56 34.05 51.01 33.15 52.42 C 33.90 53.08 34.76 53.55 35.74 53.84 C 37.12 55.18 38.81 56.07 40.58 56.76 C 38.46 62.70 34.84 68.89 36.11 75.37 C 31.27 73.88 35.57 68.62 34.60 65.33 C 33.28 63.33 31.03 62.22 29.26 60.67 C 26.51 58.65 25.23 55.38 23.17 52.77 C 21.50 52.16 19.72 51.92 18.00 51.51 C 19.75 51.11 21.51 50.74 23.24 50.26 C 25.53 49.51 27.31 47.84 28.98 46.18 L 29.63 46.75 C 30.64 45.79 30.93 44.36 31.52 43.15 Z" />
</g>
<g id="#ec963cff">
<path fill="#ec963c" opacity="1.00" d=" M 75.27 44.46 C 78.03 44.13 81.27 43.59 83.64 45.43 C 85.45 46.48 84.71 48.95 84.62 50.66 C 82.16 52.27 79.05 51.89 76.28 51.57 C 73.72 50.06 72.25 46.36 75.27 44.46 Z" />
</g>
<g id="#680000ff">
<path fill="#680000" opacity="1.00" d=" M 35.74 53.84 C 34.68 52.57 35.09 51.01 36.77 50.70 C 39.04 54.59 44.31 55.41 48.15 53.45 C 51.23 55.48 55.05 57.48 58.79 55.92 C 60.01 54.89 61.92 53.47 62.53 56.00 C 61.16 58.62 57.93 59.00 55.28 58.89 C 55.30 65.36 56.49 72.72 52.48 78.31 C 50.73 80.20 48.56 81.69 46.04 82.35 C 41.57 82.94 37.33 79.57 36.11 75.37 C 34.84 68.89 38.46 62.70 40.58 56.76 C 38.81 56.07 37.12 55.18 35.74 53.84 M 41.74 58.72 C 41.04 61.15 39.90 63.46 39.37 65.93 C 38.53 66.99 38.48 68.38 38.13 69.63 C 37.07 71.81 37.81 74.14 38.55 76.28 C 39.95 78.51 42.27 80.45 45.04 80.35 C 47.68 80.13 49.89 78.47 51.41 76.37 C 52.54 74.45 52.98 72.27 53.36 70.10 C 53.35 68.61 53.65 67.09 53.40 65.61 C 53.50 63.70 53.58 61.79 53.37 59.89 C 52.87 57.84 50.28 58.05 48.70 57.58 C 48.55 60.02 48.36 62.45 48.28 64.89 L 48.00 65.08 C 47.69 66.52 47.45 67.97 47.28 69.43 L 47.21 69.44 C 46.68 71.04 46.11 72.64 45.51 74.22 C 45.09 74.22 44.25 74.21 43.83 74.21 C 44.32 72.87 44.83 71.53 45.35 70.20 C 45.78 68.64 46.12 67.05 46.37 65.45 C 46.64 62.91 46.67 60.33 47.24 57.83 C 45.69 56.94 42.27 56.34 41.74 58.72 Z" />
</g>
<g id="#fed875ff">
<path fill="#fed875" opacity="1.00" d=" M 72.08 59.07 C 77.39 57.12 82.91 55.84 88.22 53.90 C 87.93 55.56 87.64 57.21 87.26 58.85 C 84.15 60.39 81.61 62.78 78.84 64.82 C 72.52 69.38 64.78 72.90 56.84 72.22 C 57.08 68.67 57.00 65.10 57.64 61.60 C 62.25 59.83 67.41 60.74 72.08 59.07 Z" />
</g>
<g id="#f27967ff">
<path fill="#f27967" opacity="1.00" d=" M 41.74 58.72 C 42.27 56.34 45.69 56.94 47.24 57.83 C 46.67 60.33 46.64 62.91 46.37 65.45 C 45.52 64.17 44.68 62.89 43.83 61.61 C 42.24 62.94 40.76 64.39 39.37 65.93 C 39.90 63.46 41.04 61.15 41.74 58.72 Z" />
</g>
<g id="#ef7463ff">
<path fill="#ef7463" opacity="1.00" d=" M 48.70 57.58 C 50.28 58.05 52.87 57.84 53.37 59.89 C 53.58 61.79 53.50 63.70 53.40 65.61 C 52.36 64.18 51.47 62.66 51.01 60.94 C 50.45 62.49 50.00 64.23 48.28 64.89 C 48.36 62.45 48.55 60.02 48.70 57.58 Z" />
</g>
<g id="#e86446ff">
<path fill="#e86446" opacity="1.00" d=" M 48.28 64.89 C 50.00 64.23 50.45 62.49 51.01 60.94 C 51.47 62.66 52.36 64.18 53.40 65.61 C 53.65 67.09 53.35 68.61 53.36 70.10 C 52.37 69.50 51.35 68.97 50.33 68.44 C 49.36 68.91 48.36 69.32 47.28 69.43 C 47.45 67.97 47.69 66.52 48.00 65.08 L 48.28 64.89 Z" />
</g>
<g id="#e76344ff">
<path fill="#e76344" opacity="1.00" d=" M 39.37 65.93 C 40.76 64.39 42.24 62.94 43.83 61.61 C 44.68 62.89 45.52 64.17 46.37 65.45 C 46.12 67.05 45.78 68.64 45.35 70.20 C 43.08 69.00 40.47 67.82 38.13 69.63 C 38.48 68.38 38.53 66.99 39.37 65.93 Z" />
</g>
<g id="#e35529ff">
<path fill="#e35529" opacity="1.00" d=" M 38.13 69.63 C 40.47 67.82 43.08 69.00 45.35 70.20 C 44.83 71.53 44.32 72.87 43.83 74.21 C 41.80 74.06 39.87 74.63 38.55 76.28 C 37.81 74.14 37.07 71.81 38.13 69.63 Z" />
</g>
<g id="#e3572dff">
<path fill="#e3572d" opacity="1.00" d=" M 47.28 69.43 C 48.36 69.32 49.36 68.91 50.33 68.44 C 51.35 68.97 52.37 69.50 53.36 70.10 C 52.98 72.27 52.54 74.45 51.41 76.37 C 49.75 74.94 47.73 74.03 45.51 74.22 C 46.11 72.64 46.68 71.04 47.21 69.44 L 47.28 69.43 Z" />
</g>
<g id="#df4b13ff">
<path fill="#df4b13" opacity="1.00" d=" M 38.55 76.28 C 39.87 74.63 41.80 74.06 43.83 74.21 C 44.25 74.21 45.09 74.22 45.51 74.22 C 47.73 74.03 49.75 74.94 51.41 76.37 C 49.89 78.47 47.68 80.13 45.04 80.35 C 42.27 80.45 39.95 78.51 38.55 76.28 Z" />
</g>
</svg>
