<?xml version="1.0" encoding="UTF-8" ?>
<!DOCTYPE svg PUBLIC "-//W3C//DTD SVG 1.1//EN" "http://www.w3.org/Graphics/SVG/1.1/DTD/svg11.dtd">
<svg width="96pt" height="96pt" viewBox="0 0 96 96" version="1.1" xmlns="http://www.w3.org/2000/svg">
<g id="#f9b20eff">
<path fill="#f9b20e" opacity="1.00" d=" M 28.18 9.59 C 35.34 5.90 43.53 4.27 51.57 4.64 L 51.36 5.20 C 50.83 6.68 50.24 8.14 49.62 9.58 C 44.63 9.75 39.54 10.24 34.94 12.30 C 33.37 12.92 31.80 13.53 30.26 14.22 C 29.46 12.73 28.79 11.17 28.18 9.59 Z" />
</g>
<g id="#fabf0fff">
<path fill="#fabf0f" opacity="1.00" d=" M 49.62 9.58 C 50.24 8.14 50.83 6.68 51.36 5.20 C 59.18 5.24 66.82 8.45 73.15 12.94 C 72.64 14.72 72.14 16.50 71.65 18.28 C 67.20 14.74 61.88 12.55 56.45 11.00 C 54.22 10.31 51.93 9.86 49.62 9.58 Z" />
</g>
<g id="#f8a60dff">
<path fill="#f8a60d" opacity="1.00" d=" M 4.68 48.99 C 4.36 32.85 13.63 16.81 28.18 9.59 C 28.79 11.17 29.46 12.73 30.26 14.22 C 21.98 18.68 15.04 26.11 12.00 35.10 C 7.19 47.83 10.26 63.32 19.74 73.10 C 22.55 75.85 25.50 78.48 28.81 80.62 C 27.51 81.56 26.30 82.64 24.93 83.49 C 27.51 85.07 29.99 86.83 32.14 88.96 C 26.84 87.16 22.47 83.42 18.48 79.62 C 10.20 71.64 5.12 60.49 4.68 48.99 Z" />
</g>
<g id="#f0a030ff">
<path fill="#f0a030" opacity="1.00" d=" M 34.94 12.30 C 39.54 10.24 44.63 9.75 49.62 9.58 C 51.93 9.86 54.22 10.31 56.45 11.00 C 55.79 11.14 54.46 11.43 53.79 11.58 C 50.12 11.22 46.40 11.01 42.76 11.75 C 39.91 12.26 37.13 13.03 34.36 13.84 L 34.94 12.30 Z" />
</g>
<g id="#f8b70eff">
<path fill="#f8b70e" opacity="1.00" d=" M 42.76 11.75 C 46.40 11.01 50.12 11.22 53.79 11.58 C 59.60 12.50 65.06 14.98 69.72 18.54 C 69.67 20.04 69.64 21.54 69.63 23.04 C 69.25 23.29 68.50 23.78 68.13 24.02 C 68.44 26.57 68.78 29.11 69.16 31.64 C 65.47 31.85 61.46 32.05 58.40 34.41 C 55.61 36.29 54.77 39.74 53.55 42.67 C 52.42 43.20 51.30 43.73 50.17 44.26 C 50.20 44.83 50.25 45.96 50.27 46.53 C 51.53 46.53 52.78 46.52 54.04 46.52 C 54.03 47.12 54.00 48.32 53.99 48.92 C 52.84 49.22 51.69 49.52 50.54 49.82 C 50.39 50.69 50.24 51.56 50.09 52.44 C 51.30 52.65 52.51 52.86 53.71 53.07 C 54.51 56.03 54.89 59.47 57.43 61.54 C 61.34 65.32 67.18 63.82 72.07 64.25 C 69.12 64.51 66.16 64.71 63.26 65.28 C 61.90 66.54 60.88 68.10 59.92 69.67 C 60.58 73.85 59.32 77.90 58.87 82.00 C 59.03 82.11 59.35 82.34 59.52 82.46 L 60.82 83.38 C 57.53 82.46 54.25 83.67 50.97 83.97 C 41.48 84.87 31.59 81.96 24.35 75.68 C 26.13 72.61 26.77 69.12 27.23 65.65 C 34.43 65.32 41.64 65.54 48.84 65.63 C 48.92 64.05 49.03 62.48 49.18 60.92 C 48.65 60.61 47.59 59.98 47.06 59.66 C 43.64 58.94 40.14 59.06 36.67 59.10 C 40.23 54.55 45.25 50.93 47.38 45.40 C 48.63 42.46 47.41 39.38 46.61 36.51 C 48.71 32.53 48.33 27.86 49.68 23.64 C 50.83 19.98 51.26 16.16 50.90 12.34 C 48.19 12.11 45.48 11.87 42.76 11.75 Z" />
</g>
<g id="#f8ca65ff">
<path fill="#f8ca65" opacity="1.00" d=" M 53.79 11.58 C 54.46 11.43 55.79 11.14 56.45 11.00 C 61.88 12.55 67.20 14.74 71.65 18.28 C 79.94 25.00 85.34 35.27 85.94 45.94 C 86.97 62.09 76.28 78.35 60.82 83.38 L 59.52 82.46 C 66.74 79.82 73.35 75.18 77.67 68.74 C 83.73 60.21 85.74 48.98 83.14 38.86 C 81.22 30.78 76.22 23.62 69.72 18.54 C 65.06 14.98 59.60 12.50 53.79 11.58 Z" />
</g>
<g id="#f8bf0fff">
<path fill="#f8bf0f" opacity="1.00" d=" M 34.36 13.84 C 37.13 13.03 39.91 12.26 42.76 11.75 C 45.48 11.87 48.19 12.11 50.90 12.34 C 51.26 16.16 50.83 19.98 49.68 23.64 C 48.33 27.86 48.71 32.53 46.61 36.51 C 45.70 36.12 44.81 35.70 43.93 35.27 C 41.80 33.90 39.70 32.41 37.26 31.64 C 35.88 31.18 34.48 30.77 33.08 30.35 C 34.08 25.37 35.30 20.43 35.86 15.38 C 35.12 15.19 33.64 14.81 32.90 14.62 C 33.27 14.43 34.00 14.04 34.36 13.84 Z" />
</g>
<g id="#ec8e1bff">
<path fill="#ec8e1b" opacity="1.00" d=" M 30.26 14.22 C 31.80 13.53 33.37 12.92 34.94 12.30 L 34.36 13.84 C 34.00 14.04 33.27 14.43 32.90 14.62 C 16.98 21.67 7.23 41.27 12.90 58.03 C 14.40 63.72 17.66 68.74 21.37 73.23 L 19.74 73.10 C 10.26 63.32 7.19 47.83 12.00 35.10 C 15.04 26.11 21.98 18.68 30.26 14.22 Z" />
</g>
<g id="#fbce10ff">
<path fill="#fbce10" opacity="1.00" d=" M 73.15 12.94 C 80.00 17.83 85.59 24.45 89.24 32.04 L 89.27 32.57 C 89.25 36.80 90.83 40.81 91.06 45.02 C 92.09 59.64 85.12 74.62 73.02 82.98 C 68.22 86.52 62.58 88.68 56.85 90.15 C 56.94 88.38 57.01 86.60 56.99 84.82 C 58.28 84.37 59.54 83.86 60.82 83.38 C 76.28 78.35 86.97 62.09 85.94 45.94 C 85.34 35.27 79.94 25.00 71.65 18.28 C 72.14 16.50 72.64 14.72 73.15 12.94 Z" />
</g>
<g id="#f9ca0fff">
<path fill="#f9ca0f" opacity="1.00" d=" M 12.90 58.03 C 7.23 41.27 16.98 21.67 32.90 14.62 C 33.64 14.81 35.12 15.19 35.86 15.38 C 35.30 20.43 34.08 25.37 33.08 30.35 C 34.48 30.77 35.88 31.18 37.26 31.64 C 33.85 31.90 30.00 31.90 27.25 34.25 C 25.00 36.09 24.27 39.01 23.25 41.60 C 23.75 41.86 24.77 42.37 25.28 42.63 C 27.38 43.81 29.83 43.58 32.14 43.59 C 33.32 40.92 35.16 38.66 37.27 36.68 C 38.10 38.84 39.84 41.12 38.60 43.50 C 35.66 49.87 29.14 53.46 25.07 58.98 C 23.73 60.54 24.21 62.66 24.09 64.53 C 25.20 64.54 26.32 64.54 27.43 64.54 L 27.23 65.65 C 26.77 69.12 26.13 72.61 24.35 75.68 C 23.37 74.85 22.38 74.03 21.37 73.23 C 17.66 68.74 14.40 63.72 12.90 58.03 Z" />
</g>
<g id="#f7a70eff">
<path fill="#f7a70e" opacity="1.00" d=" M 69.63 23.04 C 69.64 21.54 69.67 20.04 69.72 18.54 C 76.22 23.62 81.22 30.78 83.14 38.86 C 85.74 48.98 83.73 60.21 77.67 68.74 C 73.35 75.18 66.74 79.82 59.52 82.46 C 59.35 82.34 59.03 82.11 58.87 82.00 C 59.32 77.90 60.58 73.85 59.92 69.67 C 60.88 68.10 61.90 66.54 63.26 65.28 C 66.16 64.71 69.12 64.51 72.07 64.25 C 71.97 62.59 71.87 60.92 71.78 59.26 C 68.97 59.19 66.09 59.40 63.34 58.68 C 61.00 57.71 60.98 54.96 60.55 52.86 C 63.05 52.77 65.55 52.70 68.05 52.62 C 67.67 51.65 68.24 49.49 66.65 49.58 C 64.73 49.38 62.80 49.44 60.88 49.44 C 60.86 48.74 60.83 47.34 60.82 46.64 C 63.10 46.59 65.39 46.52 67.67 46.44 C 67.76 45.75 67.94 44.38 68.03 43.70 C 65.50 43.63 62.98 43.49 60.46 43.35 C 61.07 41.25 61.49 38.70 63.73 37.70 C 66.29 36.85 69.06 37.21 71.72 37.12 C 71.67 37.59 71.55 38.55 71.49 39.03 C 72.14 38.99 73.44 38.91 74.08 38.87 C 74.19 37.33 74.53 35.82 75.08 34.37 C 74.12 33.83 73.15 33.31 72.17 32.82 C 71.18 32.39 70.18 32.00 69.16 31.64 C 68.78 29.11 68.44 26.57 68.13 24.02 C 68.50 23.78 69.25 23.29 69.63 23.04 Z" />
</g>
<g id="#f8e817ff">
<path fill="#f8e817" opacity="1.00" d=" M 27.25 34.25 C 30.00 31.90 33.85 31.90 37.26 31.64 C 39.70 32.41 41.80 33.90 43.93 35.27 C 45.60 39.09 45.60 43.73 43.18 47.24 C 40.23 51.62 35.90 54.84 32.81 59.12 C 34.10 59.12 35.38 59.11 36.67 59.10 C 40.14 59.06 43.64 58.94 47.06 59.66 C 46.61 61.26 46.35 62.89 46.16 64.54 C 39.92 64.47 33.68 64.43 27.43 64.54 C 26.32 64.54 25.20 64.54 24.09 64.53 C 24.21 62.66 23.73 60.54 25.07 58.98 C 29.14 53.46 35.66 49.87 38.60 43.50 C 39.84 41.12 38.10 38.84 37.27 36.68 C 35.42 37.04 33.58 37.41 31.70 37.55 C 31.03 38.97 30.35 40.39 29.66 41.80 C 28.20 42.08 26.74 42.35 25.28 42.63 C 24.77 42.37 23.75 41.86 23.25 41.60 C 24.27 39.01 25.00 36.09 27.25 34.25 Z" />
<path fill="#f8e817" opacity="1.00" d=" M 58.40 34.41 C 61.46 32.05 65.47 31.85 69.16 31.64 C 70.18 32.00 71.18 32.39 72.17 32.82 C 72.03 34.25 71.88 35.68 71.72 37.12 C 69.06 37.21 66.29 36.85 63.73 37.70 C 61.49 38.70 61.07 41.25 60.46 43.35 C 62.98 43.49 65.50 43.63 68.03 43.70 C 67.94 44.38 67.76 45.75 67.67 46.44 C 65.39 46.52 63.10 46.59 60.82 46.64 C 60.83 47.34 60.86 48.74 60.88 49.44 C 62.80 49.44 64.73 49.38 66.65 49.58 C 68.24 49.49 67.67 51.65 68.05 52.62 C 65.55 52.70 63.05 52.77 60.55 52.86 C 60.98 54.96 61.00 57.71 63.34 58.68 C 66.09 59.40 68.97 59.19 71.78 59.26 C 71.87 60.92 71.97 62.59 72.07 64.25 C 67.18 63.82 61.34 65.32 57.43 61.54 C 54.89 59.47 54.51 56.03 53.71 53.07 C 52.51 52.86 51.30 52.65 50.09 52.44 C 50.24 51.56 50.39 50.69 50.54 49.82 C 51.69 49.52 52.84 49.22 53.99 48.92 C 54.00 48.32 54.03 47.12 54.04 46.52 C 52.78 46.52 51.53 46.53 50.27 46.53 C 50.25 45.96 50.20 44.83 50.17 44.26 C 51.30 43.73 52.42 43.20 53.55 42.67 C 54.77 39.74 55.61 36.29 58.40 34.41 Z" />
</g>
<g id="#e39011ff">
<path fill="#e39011" opacity="1.00" d=" M 72.17 32.82 C 73.15 33.31 74.12 33.83 75.08 34.37 C 74.53 35.82 74.19 37.33 74.08 38.87 C 73.44 38.91 72.14 38.99 71.49 39.03 C 71.55 38.55 71.67 37.59 71.72 37.12 C 71.88 35.68 72.03 34.25 72.17 32.82 Z" />
</g>
<g id="#de8a12fe">
<path fill="#de8a12" opacity="1.00" d=" M 89.27 32.57 C 93.80 41.24 93.91 51.73 91.78 61.12 C 88.00 75.83 75.83 88.06 61.09 91.75 C 51.65 93.98 41.11 93.71 32.39 89.19 C 37.03 89.21 41.40 91.04 46.02 91.13 C 49.65 91.30 53.31 91.02 56.85 90.15 C 62.58 88.68 68.22 86.52 73.02 82.98 C 85.12 74.62 92.09 59.64 91.06 45.02 C 90.83 40.81 89.25 36.80 89.27 32.57 Z" />
</g>
<g id="#e08b12ff">
<path fill="#e08b12" opacity="1.00" d=" M 43.93 35.27 C 44.81 35.70 45.70 36.12 46.61 36.51 C 47.41 39.38 48.63 42.46 47.38 45.40 C 45.25 50.93 40.23 54.55 36.67 59.10 C 35.38 59.11 34.10 59.12 32.81 59.12 C 35.90 54.84 40.23 51.62 43.18 47.24 C 45.60 43.73 45.60 39.09 43.93 35.27 Z" />
<path fill="#e08b12" opacity="1.00" d=" M 31.70 37.55 C 33.58 37.41 35.42 37.04 37.27 36.68 C 35.16 38.66 33.32 40.92 32.14 43.59 C 29.83 43.58 27.38 43.81 25.28 42.63 C 26.74 42.35 28.20 42.08 29.66 41.80 C 30.35 40.39 31.03 38.97 31.70 37.55 Z" />
<path fill="#e08b12" opacity="1.00" d=" M 47.06 59.66 C 47.59 59.98 48.65 60.61 49.18 60.92 C 49.03 62.48 48.92 64.05 48.84 65.63 C 41.64 65.54 34.43 65.32 27.23 65.65 L 27.43 64.54 C 33.68 64.43 39.92 64.47 46.16 64.54 C 46.35 62.89 46.61 61.26 47.06 59.66 Z" />
</g>
<g id="#f4b448ff">
<path fill="#f4b448" opacity="1.00" d=" M 19.74 73.10 L 21.37 73.23 C 22.38 74.03 23.37 74.85 24.35 75.68 C 31.59 81.96 41.48 84.87 50.97 83.97 C 54.25 83.67 57.53 82.46 60.82 83.38 C 59.54 83.86 58.28 84.37 56.99 84.82 C 47.55 87.36 37.19 85.53 28.81 80.62 C 25.50 78.48 22.55 75.85 19.74 73.10 Z" />
</g>
<g id="#fabc0fff">
<path fill="#fabc0f" opacity="1.00" d=" M 24.93 83.49 C 26.30 82.64 27.51 81.56 28.81 80.62 C 37.19 85.53 47.55 87.36 56.99 84.82 C 57.01 86.60 56.94 88.38 56.85 90.15 C 53.31 91.02 49.65 91.30 46.02 91.13 C 41.40 91.04 37.03 89.21 32.39 89.19 L 32.14 88.96 C 29.99 86.83 27.51 85.07 24.93 83.49 Z" />
</g>
</svg>
