<?xml version="1.0" encoding="UTF-8" ?>
<!DOCTYPE svg PUBLIC "-//W3C//DTD SVG 1.1//EN" "http://www.w3.org/Graphics/SVG/1.1/DTD/svg11.dtd">
<svg width="96pt" height="96pt" viewBox="0 0 96 96" version="1.1" xmlns="http://www.w3.org/2000/svg">
<g id="#f9b20eff">
<path fill="#f9b20e" opacity="1.00" d=" M 25.26 11.05 C 33.25 6.56 42.44 4.10 51.64 4.65 L 51.37 5.18 C 50.55 6.78 49.73 8.37 48.90 9.96 C 43.99 10.16 38.77 10.22 34.69 13.34 C 30.90 12.99 27.74 15.37 24.86 17.48 C 25.00 15.45 25.14 13.42 25.25 11.39 L 25.26 11.05 Z" />
</g>
<g id="#f9bf0fff">
<path fill="#f9bf0f" opacity="1.00" d=" M 48.90 9.96 C 49.73 8.37 50.55 6.78 51.37 5.18 C 59.45 5.24 67.18 8.71 73.75 13.25 L 73.73 13.45 C 73.51 15.44 73.29 17.43 73.08 19.42 C 68.24 15.13 62.11 12.84 56.14 10.60 C 53.80 9.89 51.33 9.84 48.90 9.96 Z" />
</g>
<g id="#f8bc0eff">
<path fill="#f8bc0e" opacity="1.00" d=" M 34.69 13.34 C 38.77 10.22 43.99 10.16 48.90 9.96 C 51.33 9.84 53.80 9.89 56.14 10.60 C 55.59 10.80 54.48 11.20 53.93 11.40 C 59.58 12.82 65.10 14.97 69.75 18.53 C 70.31 21.95 67.13 24.93 68.53 28.23 C 69.02 29.92 70.59 30.87 71.92 31.85 C 62.16 32.51 52.33 32.69 42.66 34.16 C 43.14 35.40 43.62 36.65 44.16 37.86 C 47.54 39.80 51.49 38.92 55.08 38.23 C 55.01 39.43 54.96 40.62 54.92 41.82 C 50.90 42.16 46.88 42.59 42.88 43.15 C 42.88 43.91 42.88 45.42 42.88 46.18 C 43.19 46.33 43.81 46.63 44.12 46.78 C 47.44 48.91 51.46 47.82 55.07 47.22 C 54.98 48.43 54.91 49.65 54.85 50.87 C 50.10 51.03 45.37 51.45 40.67 52.15 C 40.78 53.27 40.88 54.38 40.99 55.50 C 43.39 55.32 45.79 55.17 48.20 55.08 C 50.12 56.33 52.54 56.89 54.66 55.75 C 54.92 58.26 55.03 60.83 55.76 63.26 C 61.02 64.91 66.68 64.09 72.11 64.25 C 68.04 64.78 63.92 64.73 59.82 64.88 C 60.32 65.22 61.32 65.90 61.81 66.24 C 60.00 71.53 59.35 77.09 58.91 82.63 C 56.10 83.45 53.21 83.91 50.31 84.27 C 38.11 84.57 25.78 79.48 18.48 69.50 C 21.62 68.54 22.13 65.26 22.88 62.51 C 28.50 62.58 34.12 62.41 39.74 62.58 C 39.84 61.34 39.94 60.10 40.04 58.87 C 39.65 58.57 38.86 57.98 38.46 57.69 C 35.72 56.83 32.81 56.82 29.96 56.90 C 33.63 52.83 39.19 49.08 39.09 43.01 C 39.30 40.71 37.79 38.90 36.23 37.44 C 34.63 36.41 32.99 35.42 31.21 34.71 C 29.99 34.24 28.75 33.82 27.51 33.39 C 28.59 29.30 30.00 25.22 30.13 20.96 C 30.33 19.40 28.98 18.32 28.29 17.09 C 30.42 15.83 32.60 14.65 34.69 13.34 Z" />
</g>
<g id="#f8ca64ff">
<path fill="#f8ca64" opacity="1.00" d=" M 53.93 11.40 C 54.48 11.20 55.59 10.80 56.14 10.60 C 62.11 12.84 68.24 15.13 73.08 19.42 C 82.47 27.87 87.61 41.08 85.57 53.65 C 83.29 68.68 71.34 81.48 56.53 84.87 C 55.92 85.00 54.68 85.25 54.07 85.38 C 52.81 85.01 51.56 84.65 50.31 84.27 C 53.21 83.91 56.10 83.45 58.91 82.63 C 66.16 80.17 72.78 75.63 77.23 69.36 C 83.77 60.50 85.91 48.59 82.91 38.01 C 80.84 30.28 76.01 23.46 69.75 18.53 C 65.10 14.97 59.58 12.82 53.93 11.40 Z" />
</g>
<g id="#f8a60eff">
<path fill="#f8a60e" opacity="1.00" d=" M 4.66 47.99 C 4.84 33.43 12.47 18.74 25.25 11.39 C 25.14 13.42 25.00 15.45 24.86 17.48 C 19.54 22.13 14.60 27.57 12.27 34.36 C 8.03 45.18 9.13 58.18 15.86 67.77 C 18.96 73.15 23.73 77.34 28.82 80.80 C 27.82 81.83 26.83 82.87 25.83 83.91 C 28.23 85.29 30.68 86.74 32.34 89.02 C 27.15 87.36 22.87 83.72 18.95 80.06 C 10.15 71.85 4.82 60.04 4.66 47.99 Z" />
</g>
<g id="#ec8d19ff">
<path fill="#ec8d19" opacity="1.00" d=" M 24.86 17.48 C 27.74 15.37 30.90 12.99 34.69 13.34 C 32.60 14.65 30.42 15.83 28.29 17.09 C 19.72 22.71 13.71 31.85 11.89 41.93 C 9.85 50.06 12.66 58.31 15.81 65.75 L 15.86 67.77 C 9.13 58.18 8.03 45.18 12.27 34.36 C 14.60 27.57 19.54 22.13 24.86 17.48 Z" />
</g>
<g id="#fbcf10ff">
<path fill="#fbcf10" opacity="1.00" d=" M 73.08 19.42 C 73.29 17.43 73.51 15.44 73.73 13.45 C 80.17 18.20 85.92 24.50 88.94 31.96 C 89.52 37.31 91.29 42.51 91.17 47.93 C 91.12 61.60 84.29 75.16 73.02 82.98 C 67.81 86.77 61.68 89.00 55.46 90.50 C 55.55 88.58 55.93 86.69 56.53 84.87 C 71.34 81.48 83.29 68.68 85.57 53.65 C 87.61 41.08 82.47 27.87 73.08 19.42 Z" />
</g>
<g id="#f9cd0fff">
<path fill="#f9cd0f" opacity="1.00" d=" M 11.89 41.93 C 13.71 31.85 19.72 22.71 28.29 17.09 C 28.98 18.32 30.33 19.40 30.13 20.96 C 30.00 25.22 28.59 29.30 27.51 33.39 C 28.75 33.82 29.99 34.24 31.21 34.71 C 27.85 34.77 23.95 34.86 21.48 37.51 C 19.85 39.11 20.10 41.56 19.73 43.63 C 21.23 43.34 22.73 43.04 24.22 42.73 C 23.59 43.54 22.92 44.31 22.25 45.09 C 23.53 44.83 24.80 44.57 26.08 44.32 C 27.57 42.56 29.07 40.80 30.58 39.05 C 31.22 40.79 32.43 42.72 31.61 44.61 C 28.61 50.48 22.15 53.68 19.43 59.75 C 19.99 60.21 21.12 61.14 21.68 61.61 C 21.98 61.83 22.58 62.28 22.88 62.51 C 22.13 65.26 21.62 68.54 18.48 69.50 C 17.56 68.27 16.66 67.03 15.81 65.75 C 12.66 58.31 9.85 50.06 11.89 41.93 Z" />
</g>
<g id="#f7a80dff">
<path fill="#f7a80d" opacity="1.00" d=" M 69.75 18.53 C 76.01 23.46 80.84 30.28 82.91 38.01 C 85.91 48.59 83.77 60.50 77.23 69.36 C 72.78 75.63 66.16 80.17 58.91 82.63 C 59.35 77.09 60.00 71.53 61.81 66.24 C 66.38 65.82 71.36 66.74 75.59 64.64 C 77.23 62.49 77.43 59.65 78.14 57.12 C 77.64 56.83 76.63 56.24 76.12 55.95 C 74.66 55.52 73.17 55.20 71.68 54.87 C 71.23 56.66 70.90 58.49 70.22 60.21 C 67.34 61.41 63.98 60.77 60.90 60.87 C 60.98 59.03 61.06 57.19 61.14 55.35 C 67.24 54.88 73.33 54.36 79.41 53.71 C 78.75 52.30 78.12 50.88 77.40 49.49 C 71.87 49.17 66.35 49.79 60.84 50.14 C 60.98 48.87 61.13 47.60 61.28 46.33 C 66.40 45.91 71.84 46.83 76.64 44.58 C 76.34 43.84 75.74 42.37 75.44 41.64 C 75.16 41.91 74.61 42.47 74.33 42.74 C 73.57 42.03 72.78 41.36 71.97 40.71 C 68.24 40.47 64.52 41.14 60.79 41.20 C 60.88 40.34 61.04 38.62 61.12 37.76 C 65.85 37.19 70.60 37.00 75.35 36.79 C 74.87 35.54 74.36 34.30 73.83 33.07 C 73.35 32.77 72.39 32.16 71.92 31.85 C 70.59 30.87 69.02 29.92 68.53 28.23 C 67.13 24.93 70.31 21.95 69.75 18.53 Z" />
</g>
<g id="#f8e817ff">
<path fill="#f8e817" opacity="1.00" d=" M 42.66 34.16 C 52.33 32.69 62.16 32.51 71.92 31.85 C 72.39 32.16 73.35 32.77 73.83 33.07 C 72.68 34.12 71.64 35.65 69.90 35.66 C 66.16 36.07 62.38 36.12 58.65 36.69 C 58.61 38.22 58.58 39.75 58.54 41.28 C 59.11 41.26 60.23 41.22 60.79 41.20 C 64.52 41.14 68.24 40.47 71.97 40.71 C 72.78 41.36 73.57 42.03 74.33 42.74 L 73.37 43.66 C 68.57 44.98 63.57 45.03 58.63 45.07 C 58.60 46.80 58.57 48.54 58.55 50.28 C 59.12 50.25 60.27 50.17 60.84 50.14 C 66.35 49.79 71.87 49.17 77.40 49.49 C 77.10 50.25 76.51 51.77 76.21 52.53 C 70.28 53.09 64.36 53.67 58.43 54.16 C 58.56 56.35 58.68 58.55 58.92 60.74 C 59.42 60.77 60.41 60.83 60.90 60.87 C 63.98 60.77 67.34 61.41 70.22 60.21 C 70.90 58.49 71.23 56.66 71.68 54.87 C 73.17 55.20 74.66 55.52 76.12 55.95 C 75.10 58.81 74.78 62.37 72.11 64.25 C 66.68 64.09 61.02 64.91 55.76 63.26 C 55.03 60.83 54.92 58.26 54.66 55.75 L 54.63 55.34 C 52.58 54.45 50.33 54.78 48.20 55.08 C 45.79 55.17 43.39 55.32 40.99 55.50 C 40.88 54.38 40.78 53.27 40.67 52.15 C 45.37 51.45 50.10 51.03 54.85 50.87 C 54.91 49.65 54.98 48.43 55.07 47.22 L 55.19 45.78 C 51.48 45.80 47.77 46.09 44.12 46.78 C 43.81 46.63 43.19 46.33 42.88 46.18 C 42.88 45.42 42.88 43.91 42.88 43.15 C 46.88 42.59 50.90 42.16 54.92 41.82 C 54.96 40.62 55.01 39.43 55.08 38.23 L 55.18 36.78 C 51.48 36.80 47.78 37.09 44.16 37.86 C 43.62 36.65 43.14 35.40 42.66 34.16 Z" />
<path fill="#f8e817" opacity="1.00" d=" M 21.48 37.51 C 23.95 34.86 27.85 34.77 31.21 34.71 C 32.99 35.42 34.63 36.41 36.23 37.44 C 36.56 40.24 37.63 43.33 36.17 45.99 C 33.84 50.30 30.01 53.50 26.69 57.01 C 27.51 56.98 29.14 56.93 29.96 56.90 C 32.81 56.82 35.72 56.83 38.46 57.69 C 38.28 58.62 37.92 60.48 37.73 61.41 C 32.38 61.56 27.03 61.50 21.68 61.61 C 21.12 61.14 19.99 60.21 19.43 59.75 C 22.15 53.68 28.61 50.48 31.61 44.61 C 32.43 42.72 31.22 40.79 30.58 39.05 C 27.53 38.18 25.47 40.16 24.22 42.73 C 22.73 43.04 21.23 43.34 19.73 43.63 C 20.10 41.56 19.85 39.11 21.48 37.51 Z" />
</g>
<g id="#e28f11ff">
<path fill="#e28f11" opacity="1.00" d=" M 73.83 33.07 C 74.36 34.30 74.87 35.54 75.35 36.79 C 70.60 37.00 65.85 37.19 61.12 37.76 C 61.04 38.62 60.88 40.34 60.79 41.20 C 60.23 41.22 59.11 41.26 58.54 41.28 C 58.58 39.75 58.61 38.22 58.65 36.69 C 62.38 36.12 66.16 36.07 69.90 35.66 C 71.64 35.65 72.68 34.12 73.83 33.07 Z" />
</g>
<g id="#de8a12fe">
<path fill="#de8a12" opacity="1.00" d=" M 88.94 31.96 C 93.82 40.71 93.93 51.47 91.79 61.05 C 88.05 75.82 75.84 88.02 61.08 91.77 C 51.68 93.94 41.15 93.77 32.48 89.19 C 40.12 90.04 47.76 92.40 55.46 90.50 C 61.68 89.00 67.81 86.77 73.02 82.98 C 84.29 75.16 91.12 61.60 91.17 47.93 C 91.29 42.51 89.52 37.31 88.94 31.96 Z" />
<path fill="#de8a12" opacity="1.00" d=" M 38.46 57.69 C 38.86 57.98 39.65 58.57 40.04 58.87 C 39.94 60.10 39.84 61.34 39.74 62.58 C 34.12 62.41 28.50 62.58 22.88 62.51 C 22.58 62.28 21.98 61.83 21.68 61.61 C 27.03 61.50 32.38 61.56 37.73 61.41 C 37.92 60.48 38.28 58.62 38.46 57.69 Z" />
</g>
<g id="#eba711ff">
<path fill="#eba711" opacity="1.00" d=" M 44.16 37.86 C 47.78 37.09 51.48 36.80 55.18 36.78 L 55.08 38.23 C 51.49 38.92 47.54 39.80 44.16 37.86 Z" />
</g>
<g id="#e29212ff">
<path fill="#e29212" opacity="1.00" d=" M 36.23 37.44 C 37.79 38.90 39.30 40.71 39.09 43.01 C 39.19 49.08 33.63 52.83 29.96 56.90 C 29.14 56.93 27.51 56.98 26.69 57.01 C 30.01 53.50 33.84 50.30 36.17 45.99 C 37.63 43.33 36.56 40.24 36.23 37.44 Z" />
</g>
<g id="#e59811ff">
<path fill="#e59811" opacity="1.00" d=" M 24.22 42.73 C 25.47 40.16 27.53 38.18 30.58 39.05 C 29.07 40.80 27.57 42.56 26.08 44.32 C 24.80 44.57 23.53 44.83 22.25 45.09 C 22.92 44.31 23.59 43.54 24.22 42.73 Z" />
</g>
<g id="#e29012ff">
<path fill="#e29012" opacity="1.00" d=" M 74.33 42.74 C 74.61 42.47 75.16 41.91 75.44 41.64 C 75.74 42.37 76.34 43.84 76.64 44.58 C 71.84 46.83 66.40 45.91 61.28 46.33 C 61.13 47.60 60.98 48.87 60.84 50.14 C 60.27 50.17 59.12 50.25 58.55 50.28 C 58.57 48.54 58.60 46.80 58.63 45.07 C 63.57 45.03 68.57 44.98 73.37 43.66 L 74.33 42.74 Z" />
</g>
<g id="#eaa511ff">
<path fill="#eaa511" opacity="1.00" d=" M 44.12 46.78 C 47.77 46.09 51.48 45.80 55.19 45.78 L 55.07 47.22 C 51.46 47.82 47.44 48.91 44.12 46.78 Z" />
</g>
<g id="#e39112ff">
<path fill="#e39112" opacity="1.00" d=" M 77.40 49.49 C 78.12 50.88 78.75 52.30 79.41 53.71 C 73.33 54.36 67.24 54.88 61.14 55.35 C 61.06 57.19 60.98 59.03 60.90 60.87 C 60.41 60.83 59.42 60.77 58.92 60.74 C 58.68 58.55 58.56 56.35 58.43 54.16 C 64.36 53.67 70.28 53.09 76.21 52.53 C 76.51 51.77 77.10 50.25 77.40 49.49 Z" />
</g>
<g id="#e39111ff">
<path fill="#e39111" opacity="1.00" d=" M 48.20 55.08 C 50.33 54.78 52.58 54.45 54.63 55.34 L 54.66 55.75 C 52.54 56.89 50.12 56.33 48.20 55.08 Z" />
</g>
<g id="#e59211ff">
<path fill="#e59211" opacity="1.00" d=" M 76.12 55.95 C 76.63 56.24 77.64 56.83 78.14 57.12 C 77.43 59.65 77.23 62.49 75.59 64.64 C 71.36 66.74 66.38 65.82 61.81 66.24 C 61.32 65.90 60.32 65.22 59.82 64.88 C 63.92 64.73 68.04 64.78 72.11 64.25 C 74.78 62.37 75.10 58.81 76.12 55.95 Z" />
</g>
<g id="#f3ad3dff">
<path fill="#f3ad3d" opacity="1.00" d=" M 15.81 65.75 C 16.66 67.03 17.56 68.27 18.48 69.50 C 25.78 79.48 38.11 84.57 50.31 84.27 C 51.56 84.65 52.81 85.01 54.07 85.38 C 45.43 87.20 36.42 85.03 28.82 80.80 C 23.73 77.34 18.96 73.15 15.86 67.77 L 15.81 65.75 Z" />
</g>
<g id="#f9bc0fff">
<path fill="#f9bc0f" opacity="1.00" d=" M 25.83 83.91 C 26.83 82.87 27.82 81.83 28.82 80.80 C 36.42 85.03 45.43 87.20 54.07 85.38 C 54.68 85.25 55.92 85.00 56.53 84.87 C 55.93 86.69 55.55 88.58 55.46 90.50 C 47.76 92.40 40.12 90.04 32.48 89.19 L 32.34 89.02 C 30.68 86.74 28.23 85.29 25.83 83.91 Z" />
</g>
</svg>
