<?xml version="1.0" encoding="UTF-8" ?>
<!DOCTYPE svg PUBLIC "-//W3C//DTD SVG 1.1//EN" "http://www.w3.org/Graphics/SVG/1.1/DTD/svg11.dtd">
<svg width="96pt" height="96pt" viewBox="0 0 96 96" version="1.1" xmlns="http://www.w3.org/2000/svg">
<g id="#f9b80fff">
<path fill="#f9b80f" opacity="1.00" d=" M 37.39 6.12 C 47.47 3.18 58.52 4.94 67.78 9.62 C 66.77 10.94 65.75 12.26 64.74 13.58 C 58.33 10.80 51.31 9.32 44.32 10.04 C 41.10 10.27 37.97 11.13 34.94 12.20 C 34.46 12.02 33.49 11.65 33.01 11.46 C 34.35 9.59 35.86 7.84 37.39 6.12 Z" />
</g>
<g id="#f8a50dff">
<path fill="#f8a50d" opacity="1.00" d=" M 27.74 9.83 C 30.64 7.83 34.13 7.26 37.39 6.12 C 35.86 7.84 34.35 9.59 33.01 11.46 C 33.49 11.65 34.46 12.02 34.94 12.20 C 24.68 15.87 16.15 24.16 12.31 34.36 C 8.08 44.85 9.35 57.20 15.00 66.91 C 15.78 68.18 17.02 69.05 18.10 70.05 C 19.43 72.60 21.15 74.94 23.37 76.79 C 22.27 78.24 21.17 79.69 20.06 81.14 C 12.21 74.11 6.75 64.46 5.17 54.01 C 2.48 36.51 11.91 17.88 27.74 9.83 Z" />
</g>
<g id="#ec8f1cff">
<path fill="#ec8f1c" opacity="1.00" d=" M 34.94 12.20 C 37.97 11.13 41.10 10.27 44.32 10.04 L 44.07 11.22 C 38.98 12.48 33.75 13.62 29.27 16.47 C 20.44 21.83 14.10 30.88 12.08 41.01 C 9.15 51.10 13.69 61.17 18.10 70.05 C 17.02 69.05 15.78 68.18 15.00 66.91 C 9.35 57.20 8.08 44.85 12.31 34.36 C 16.15 24.16 24.68 15.87 34.94 12.20 Z" />
</g>
<g id="#f3b042ff">
<path fill="#f3b042" opacity="1.00" d=" M 44.32 10.04 C 51.31 9.32 58.33 10.80 64.74 13.58 C 67.50 14.99 70.06 16.80 72.35 18.89 L 70.59 19.16 C 65.68 16.05 60.54 13.14 54.78 11.98 C 51.27 11.23 47.65 11.00 44.07 11.22 L 44.32 10.04 Z" />
</g>
<g id="#fbcf10ff">
<path fill="#fbcf10" opacity="1.00" d=" M 67.78 9.62 C 77.05 14.72 85.29 22.70 89.22 32.61 C 89.25 37.15 91.08 41.43 91.11 45.97 C 91.76 60.06 85.04 74.35 73.55 82.59 C 68.46 86.44 62.42 88.75 56.27 90.26 C 54.14 90.08 52.03 89.81 49.91 89.51 C 50.40 87.94 51.47 86.68 52.82 85.77 C 53.12 85.69 53.73 85.53 54.03 85.45 C 62.66 83.61 70.94 79.50 76.62 72.60 C 85.26 62.88 88.44 48.36 83.92 36.07 C 81.79 29.39 77.62 23.47 72.35 18.89 C 70.06 16.80 67.50 14.99 64.74 13.58 C 65.75 12.26 66.77 10.94 67.78 9.62 Z" />
</g>
<g id="#f8be0fff">
<path fill="#f8be0f" opacity="1.00" d=" M 29.27 16.47 C 33.75 13.62 38.98 12.48 44.07 11.22 C 47.65 11.00 51.27 11.23 54.78 11.98 C 54.70 12.41 54.53 13.27 54.45 13.70 C 56.61 15.51 55.03 18.17 54.24 20.27 C 52.75 23.56 53.64 27.22 53.51 30.69 C 49.53 35.93 45.45 41.11 40.08 45.01 C 40.70 45.96 41.33 46.90 41.96 47.85 C 42.86 47.39 43.77 46.93 44.67 46.47 C 44.89 47.08 45.34 48.29 45.56 48.90 C 47.42 49.00 49.28 49.08 51.15 49.14 C 51.03 52.13 50.84 55.42 48.67 57.74 C 46.47 60.00 43.54 61.35 40.88 62.99 C 41.57 63.78 42.27 64.58 42.98 65.36 C 43.28 65.47 43.89 65.68 44.20 65.78 C 45.12 66.47 46.16 66.79 47.31 66.73 C 48.35 72.50 46.36 78.22 45.99 83.98 C 36.59 83.72 27.45 79.51 21.13 72.54 C 22.17 69.51 22.82 66.36 23.11 63.17 C 28.75 62.85 34.40 63.24 40.05 63.04 C 40.18 61.62 40.31 60.20 40.45 58.78 C 39.91 58.55 38.84 58.11 38.30 57.89 C 35.78 57.40 33.20 57.27 30.63 57.30 C 33.52 52.60 39.50 49.12 39.12 42.98 C 39.40 41.21 38.07 40.02 36.89 38.97 C 34.36 36.79 31.53 34.77 28.08 34.54 C 29.15 29.93 29.93 25.25 30.67 20.58 C 31.18 18.99 30.01 17.73 29.27 16.47 Z" />
</g>
<g id="#f8b20eff">
<path fill="#f8b20e" opacity="1.00" d=" M 54.78 11.98 C 60.54 13.14 65.68 16.05 70.59 19.16 C 70.92 19.44 71.57 19.99 71.90 20.26 C 68.16 23.28 69.48 28.41 68.32 32.53 C 66.99 32.20 65.66 31.88 64.34 31.51 C 64.13 31.27 63.72 30.78 63.52 30.53 C 62.37 30.86 61.23 31.19 60.08 31.52 C 61.84 37.20 66.25 41.26 69.68 45.90 C 62.77 46.09 55.86 45.69 48.95 45.90 C 52.92 42.44 56.11 38.19 58.84 33.71 C 58.07 33.35 57.31 32.97 56.55 32.58 C 55.52 31.98 54.51 31.35 53.51 30.69 C 53.64 27.22 52.75 23.56 54.24 20.27 C 55.03 18.17 56.61 15.51 54.45 13.70 C 54.53 13.27 54.70 12.41 54.78 11.98 Z" />
</g>
<g id="#f9cb0fff">
<path fill="#f9cb0f" opacity="1.00" d=" M 12.08 41.01 C 14.10 30.88 20.44 21.83 29.27 16.47 C 30.01 17.73 31.18 18.99 30.67 20.58 C 29.93 25.25 29.15 29.93 28.08 34.54 C 24.19 35.68 19.06 38.07 19.80 42.98 C 21.30 42.95 22.80 42.92 24.30 42.87 C 23.43 43.66 22.50 44.38 21.58 45.12 C 23.00 45.06 24.43 45.01 25.85 44.96 C 27.16 43.07 28.64 41.30 30.32 39.72 C 33.08 41.68 31.73 45.60 29.78 47.66 C 26.70 51.96 21.27 54.54 19.58 59.78 C 20.03 60.21 20.93 61.06 21.39 61.49 C 21.82 61.91 22.68 62.75 23.11 63.17 C 22.82 66.36 22.17 69.51 21.13 72.54 C 20.14 71.68 19.12 70.88 18.10 70.05 C 13.69 61.17 9.15 51.10 12.08 41.01 Z" />
</g>
<g id="#f8ce6aff">
<path fill="#f8ce6a" opacity="1.00" d=" M 70.59 19.16 L 72.35 18.89 C 77.62 23.47 81.79 29.39 83.92 36.07 C 88.44 48.36 85.26 62.88 76.62 72.60 C 70.94 79.50 62.66 83.61 54.03 85.45 C 52.83 84.99 51.63 84.54 50.41 84.12 C 53.66 84.01 56.87 83.36 59.94 82.30 C 70.62 78.53 79.39 69.58 82.61 58.69 C 87.07 45.19 82.47 29.62 71.90 20.26 C 71.57 19.99 70.92 19.44 70.59 19.16 Z" />
</g>
<g id="#f7a70dff">
<path fill="#f7a70d" opacity="1.00" d=" M 68.32 32.53 C 69.48 28.41 68.16 23.28 71.90 20.26 C 82.47 29.62 87.07 45.19 82.61 58.69 C 79.39 69.58 70.62 78.53 59.94 82.30 C 59.98 76.93 60.95 71.65 62.02 66.42 C 65.02 65.85 69.11 65.85 70.59 62.62 C 71.69 57.50 71.23 52.17 72.02 46.99 C 72.49 47.21 73.42 47.65 73.88 47.87 C 74.69 46.90 75.49 45.93 76.29 44.96 C 71.33 41.49 66.55 37.33 64.34 31.51 C 65.66 31.88 66.99 32.20 68.32 32.53 Z" />
</g>
<g id="#f8e817ff">
<path fill="#f8e817" opacity="1.00" d=" M 60.08 31.52 C 61.23 31.19 62.37 30.86 63.52 30.53 C 63.72 30.78 64.13 31.27 64.34 31.51 C 66.55 37.33 71.33 41.49 76.29 44.96 C 75.49 45.93 74.69 46.90 73.88 47.87 C 73.42 47.65 72.49 47.21 72.02 46.99 C 71.54 46.77 70.57 46.31 70.08 46.09 C 69.78 50.41 69.16 54.70 68.92 59.03 C 69.01 61.11 67.62 62.87 66.06 64.08 C 63.22 64.62 60.31 64.68 57.44 64.95 C 56.94 64.76 55.94 64.38 55.44 64.19 C 55.51 63.41 55.65 61.83 55.72 61.04 C 58.46 60.95 61.20 60.85 63.95 60.83 C 65.86 57.79 65.26 54.08 65.15 50.69 L 65.03 49.50 C 61.95 49.31 58.87 49.38 55.79 49.46 C 54.90 53.31 54.07 57.40 51.49 60.54 C 49.46 62.78 46.69 64.13 44.20 65.78 C 43.89 65.68 43.28 65.47 42.98 65.36 C 42.27 64.58 41.57 63.78 40.88 62.99 C 43.54 61.35 46.47 60.00 48.67 57.74 C 50.84 55.42 51.03 52.13 51.15 49.14 C 49.28 49.08 47.42 49.00 45.56 48.90 C 45.34 48.29 44.89 47.08 44.67 46.47 C 43.77 46.93 42.86 47.39 41.96 47.85 C 41.33 46.90 40.70 45.96 40.08 45.01 C 45.45 41.11 49.53 35.93 53.51 30.69 C 54.51 31.35 55.52 31.98 56.55 32.58 C 53.68 37.47 49.95 41.74 46.25 46.00 C 46.92 45.98 48.27 45.93 48.95 45.90 C 55.86 45.69 62.77 46.09 69.68 45.90 C 66.25 41.26 61.84 37.20 60.08 31.52 Z" />
<path fill="#f8e817" opacity="1.00" d=" M 19.80 42.98 C 19.06 38.07 24.19 35.68 28.08 34.54 C 31.53 34.77 34.36 36.79 36.89 38.97 C 36.82 41.14 37.15 43.39 36.56 45.50 C 34.29 50.34 29.46 53.21 26.71 57.71 C 28.02 57.57 29.32 57.41 30.63 57.30 C 33.20 57.27 35.78 57.40 38.30 57.89 C 37.93 59.03 37.55 60.18 37.18 61.32 C 31.91 61.32 26.65 61.18 21.39 61.49 C 20.93 61.06 20.03 60.21 19.58 59.78 C 21.27 54.54 26.70 51.96 29.78 47.66 C 31.73 45.60 33.08 41.68 30.32 39.72 C 29.77 39.53 28.66 39.15 28.11 38.96 C 26.47 39.88 25.34 41.35 24.30 42.87 C 22.80 42.92 21.30 42.95 19.80 42.98 Z" />
</g>
<g id="#e39412ff">
<path fill="#e39412" opacity="1.00" d=" M 56.55 32.58 C 57.31 32.97 58.07 33.35 58.84 33.71 C 56.11 38.19 52.92 42.44 48.95 45.90 C 48.27 45.93 46.92 45.98 46.25 46.00 C 49.95 41.74 53.68 37.47 56.55 32.58 Z" />
<path fill="#e39412" opacity="1.00" d=" M 36.89 38.97 C 38.07 40.02 39.40 41.21 39.12 42.98 C 39.50 49.12 33.52 52.60 30.63 57.30 C 29.32 57.41 28.02 57.57 26.71 57.71 C 29.46 53.21 34.29 50.34 36.56 45.50 C 37.15 43.39 36.82 41.14 36.89 38.97 Z" />
</g>
<g id="#df8a12fe">
<path fill="#df8a12" opacity="1.00" d=" M 89.22 32.61 C 93.90 41.16 93.83 51.69 91.80 61.02 C 88.07 75.81 75.83 88.03 61.05 91.78 C 51.68 93.92 41.18 93.78 32.55 89.21 C 40.40 90.19 48.38 92.55 56.27 90.26 C 62.42 88.75 68.46 86.44 73.55 82.59 C 85.04 74.35 91.76 60.06 91.11 45.97 C 91.08 41.43 89.25 37.15 89.22 32.61 Z" />
</g>
<g id="#e39311ff">
<path fill="#e39311" opacity="1.00" d=" M 28.11 38.96 C 28.66 39.15 29.77 39.53 30.32 39.72 C 28.64 41.30 27.16 43.07 25.85 44.96 C 24.43 45.01 23.00 45.06 21.58 45.12 C 22.50 44.38 23.43 43.66 24.30 42.87 C 25.34 41.35 26.47 39.88 28.11 38.96 Z" />
</g>
<g id="#e28f11fe">
<path fill="#e28f11" opacity="1.00" d=" M 70.08 46.09 C 70.57 46.31 71.54 46.77 72.02 46.99 C 71.23 52.17 71.69 57.50 70.59 62.62 C 69.11 65.85 65.02 65.85 62.02 66.42 C 60.47 66.02 58.94 65.51 57.44 64.95 C 60.31 64.68 63.22 64.62 66.06 64.08 C 67.62 62.87 69.01 61.11 68.92 59.03 C 69.16 54.70 69.78 50.41 70.08 46.09 Z" />
</g>
<g id="#e49411ff">
<path fill="#e49411" opacity="1.00" d=" M 55.79 49.46 C 58.87 49.38 61.95 49.31 65.03 49.50 L 65.15 50.69 C 62.63 50.69 60.11 50.80 57.61 51.02 C 56.83 54.49 56.51 58.34 54.16 61.19 C 52.21 63.41 49.68 64.99 47.31 66.73 C 46.16 66.79 45.12 66.47 44.20 65.78 C 46.69 64.13 49.46 62.78 51.49 60.54 C 54.07 57.40 54.90 53.31 55.79 49.46 Z" />
</g>
<g id="#f8b10eff">
<path fill="#f8b10e" opacity="1.00" d=" M 57.61 51.02 C 60.11 50.80 62.63 50.69 65.15 50.69 C 65.26 54.08 65.86 57.79 63.95 60.83 C 61.20 60.85 58.46 60.95 55.72 61.04 C 55.65 61.83 55.51 63.41 55.44 64.19 C 55.94 64.38 56.94 64.76 57.44 64.95 C 58.94 65.51 60.47 66.02 62.02 66.42 C 60.95 71.65 59.98 76.93 59.94 82.30 C 56.87 83.36 53.66 84.01 50.41 84.12 C 48.94 84.06 47.46 84.03 45.99 83.98 C 46.36 78.22 48.35 72.50 47.31 66.73 C 49.68 64.99 52.21 63.41 54.16 61.19 C 56.51 58.34 56.83 54.49 57.61 51.02 Z" />
</g>
<g id="#e9a512ff">
<path fill="#e9a512" opacity="1.00" d=" M 38.30 57.89 C 38.84 58.11 39.91 58.55 40.45 58.78 C 40.31 60.20 40.18 61.62 40.05 63.04 C 34.40 63.24 28.75 62.85 23.11 63.17 C 22.68 62.75 21.82 61.91 21.39 61.49 C 26.65 61.18 31.91 61.32 37.18 61.32 C 37.55 60.18 37.93 59.03 38.30 57.89 Z" />
</g>
<g id="#f3af3fff">
<path fill="#f3af3f" opacity="1.00" d=" M 18.10 70.05 C 19.12 70.88 20.14 71.68 21.13 72.54 C 27.45 79.51 36.59 83.72 45.99 83.98 C 47.46 84.03 48.94 84.06 50.41 84.12 C 51.63 84.54 52.83 84.99 54.03 85.45 C 53.73 85.53 53.12 85.69 52.82 85.77 C 42.30 87.08 31.41 83.66 23.37 76.79 C 21.15 74.94 19.43 72.60 18.10 70.05 Z" />
</g>
<g id="#f9b60fff">
<path fill="#f9b60f" opacity="1.00" d=" M 23.37 76.79 C 31.41 83.66 42.30 87.08 52.82 85.77 C 51.47 86.68 50.40 87.94 49.91 89.51 C 52.03 89.81 54.14 90.08 56.27 90.26 C 48.38 92.55 40.40 90.19 32.55 89.21 C 27.82 87.62 23.80 84.38 20.06 81.14 C 21.17 79.69 22.27 78.24 23.37 76.79 Z" />
</g>
</svg>
