<?xml version="1.0" encoding="UTF-8" ?>
<!DOCTYPE svg PUBLIC "-//W3C//DTD SVG 1.1//EN" "http://www.w3.org/Graphics/SVG/1.1/DTD/svg11.dtd">
<svg width="96pt" height="96pt" viewBox="0 0 96 96" version="1.1" xmlns="http://www.w3.org/2000/svg">
<g id="#f9b80fff">
<path fill="#f9b80f" opacity="1.00" d=" M 36.50 6.25 C 48.01 2.83 60.54 5.21 70.79 11.16 L 70.68 11.30 C 69.60 12.67 68.53 14.04 67.46 15.41 C 63.93 13.57 60.20 12.16 56.41 10.98 C 48.93 8.51 40.90 9.88 33.60 12.30 C 33.49 11.82 33.28 10.86 33.18 10.38 C 34.18 9.19 35.14 7.95 36.11 6.73 L 36.50 6.25 Z" />
<path fill="#f9b80f" opacity="1.00" d=" M 23.21 76.92 C 25.93 79.01 28.71 81.08 31.80 82.59 C 37.61 83.90 43.66 83.43 49.54 84.27 C 50.94 85.16 52.46 85.59 54.11 85.56 C 52.18 86.29 50.75 87.81 49.64 89.50 C 51.87 89.80 54.11 90.05 56.36 90.21 C 48.44 92.50 40.39 90.23 32.49 89.19 C 27.78 87.58 23.85 84.35 20.09 81.19 C 21.13 79.77 22.17 78.34 23.21 76.92 Z" />
</g>
<g id="#f9a50eff">
<path fill="#f9a50e" opacity="1.00" d=" M 4.99 43.14 C 6.90 26.35 19.38 10.57 36.11 6.73 C 35.14 7.95 34.18 9.19 33.18 10.38 C 33.28 10.86 33.49 11.82 33.60 12.30 L 33.79 13.11 C 26.92 14.82 21.67 20.06 17.25 25.31 C 9.46 35.48 7.44 50.07 12.75 61.81 C 14.83 67.67 18.63 72.77 23.21 76.92 C 22.17 78.34 21.13 79.77 20.09 81.19 C 9.56 71.75 3.21 57.34 4.99 43.14 Z" />
</g>
<g id="#f0a02eff">
<path fill="#f0a02e" opacity="1.00" d=" M 33.60 12.30 C 40.90 9.88 48.93 8.51 56.41 10.98 C 55.73 11.12 54.36 11.42 53.68 11.56 C 47.74 10.84 41.84 11.63 36.12 13.28 L 35.33 13.39 C 34.94 13.32 34.17 13.18 33.79 13.11 L 33.60 12.30 Z" />
</g>
<g id="#f8ba0eff">
<path fill="#f8ba0e" opacity="1.00" d=" M 36.12 13.28 C 41.84 11.63 47.74 10.84 53.68 11.56 C 58.37 12.36 62.89 14.04 66.91 16.59 C 65.89 20.06 64.83 23.53 64.21 27.10 C 63.00 27.14 61.79 27.18 60.58 27.23 C 60.30 28.62 60.02 30.02 59.76 31.42 C 57.04 32.94 53.51 34.07 52.32 37.24 C 51.20 40.89 51.64 45.66 55.20 47.82 C 58.56 50.51 64.23 50.59 65.98 54.99 C 66.93 58.51 63.13 60.17 60.26 59.93 C 60.24 57.41 59.29 55.14 56.77 54.26 C 54.45 54.08 52.12 54.08 49.80 54.04 C 50.67 57.17 51.46 60.73 54.27 62.74 C 55.94 63.58 57.82 63.90 59.59 64.48 L 59.64 64.70 C 59.06 64.89 57.91 65.28 57.33 65.47 C 56.62 71.43 55.18 77.42 55.98 83.45 C 53.86 83.85 51.70 84.05 49.54 84.27 C 43.66 83.43 37.61 83.90 31.80 82.59 L 33.86 82.17 C 31.48 80.36 28.92 78.81 26.41 77.18 C 27.66 73.57 28.57 69.84 29.10 66.05 C 35.90 65.96 42.69 66.00 49.49 65.99 C 49.47 63.68 49.41 61.19 47.04 60.00 C 43.92 59.07 40.64 58.95 37.41 58.94 C 40.36 55.10 44.23 51.97 46.69 47.77 C 49.21 43.54 48.58 37.22 44.00 34.67 C 42.42 33.66 40.80 32.69 39.09 31.91 C 37.77 31.30 36.44 30.73 35.11 30.15 C 35.49 24.91 37.68 19.90 37.61 14.64 C 37.24 14.30 36.49 13.62 36.12 13.28 Z" />
</g>
<g id="#f8ca64ff">
<path fill="#f8ca64" opacity="1.00" d=" M 53.68 11.56 C 54.36 11.42 55.73 11.12 56.41 10.98 C 60.20 12.16 63.93 13.57 67.46 15.41 C 75.68 20.29 81.84 28.40 84.45 37.58 C 88.99 51.68 83.43 67.90 72.06 77.13 C 67.03 81.65 60.50 83.79 54.11 85.56 C 52.46 85.59 50.94 85.16 49.54 84.27 C 51.70 84.05 53.86 83.85 55.98 83.45 C 64.13 81.42 71.72 76.79 76.75 70.01 C 83.46 61.34 85.86 49.52 83.15 38.91 C 80.94 29.72 74.84 21.65 66.91 16.59 C 62.89 14.04 58.37 12.36 53.68 11.56 Z" />
</g>
<g id="#fbcd10ff">
<path fill="#fbcd10" opacity="1.00" d=" M 67.46 15.41 C 68.53 14.04 69.60 12.67 70.68 11.30 C 78.59 16.41 85.65 23.60 89.15 32.44 C 89.60 37.67 91.29 42.75 91.17 48.04 C 91.09 61.21 84.74 74.30 74.13 82.20 C 68.95 86.25 62.72 88.70 56.36 90.21 C 54.11 90.05 51.87 89.80 49.64 89.50 C 50.75 87.81 52.18 86.29 54.11 85.56 C 60.50 83.79 67.03 81.65 72.06 77.13 C 83.43 67.90 88.99 51.68 84.45 37.58 C 81.84 28.40 75.68 20.29 67.46 15.41 Z" />
</g>
<g id="#ec8c18ff">
<path fill="#ec8c18" opacity="1.00" d=" M 17.25 25.31 C 21.67 20.06 26.92 14.82 33.79 13.11 C 34.17 13.18 34.94 13.32 35.33 13.39 C 28.55 16.44 22.19 20.81 18.00 27.07 C 14.24 32.35 12.24 38.68 11.33 45.05 C 10.58 50.00 12.20 54.82 13.11 59.63 L 12.75 61.81 C 7.44 50.07 9.46 35.48 17.25 25.31 Z" />
</g>
<g id="#f9ca0fff">
<path fill="#f9ca0f" opacity="1.00" d=" M 18.00 27.07 C 22.19 20.81 28.55 16.44 35.33 13.39 L 36.12 13.28 C 36.49 13.62 37.24 14.30 37.61 14.64 C 37.68 19.90 35.49 24.91 35.11 30.15 C 36.44 30.73 37.77 31.30 39.09 31.91 C 35.30 31.64 31.03 31.47 27.82 33.85 C 25.16 35.88 23.10 39.70 25.00 42.90 C 27.18 43.59 29.51 44.61 31.82 43.95 C 33.81 41.67 35.52 39.16 37.46 36.83 C 38.91 39.06 39.95 41.98 38.37 44.44 C 34.75 50.01 29.56 54.32 25.39 59.45 C 24.07 61.15 24.61 63.81 26.40 64.97 C 27.08 65.24 28.43 65.78 29.10 66.05 C 28.57 69.84 27.66 73.57 26.41 77.18 C 20.24 72.90 16.03 66.44 13.11 59.63 C 12.20 54.82 10.58 50.00 11.33 45.05 C 12.24 38.68 14.24 32.35 18.00 27.07 Z" />
</g>
<g id="#f7a80eff">
<path fill="#f7a80e" opacity="1.00" d=" M 66.91 16.59 C 74.84 21.65 80.94 29.72 83.15 38.91 C 85.86 49.52 83.46 61.34 76.75 70.01 C 71.72 76.79 64.13 81.42 55.98 83.45 C 55.18 77.42 56.62 71.43 57.33 65.47 C 57.91 65.28 59.06 64.89 59.64 64.70 C 59.86 66.10 60.08 67.50 60.31 68.90 C 60.77 69.11 61.69 69.53 62.15 69.73 C 63.23 70.17 64.33 70.56 65.43 70.96 C 65.74 69.48 66.05 67.99 66.36 66.51 C 68.49 65.70 70.88 65.25 72.65 63.71 C 76.37 59.94 75.85 52.47 70.76 50.15 C 67.51 47.77 63.91 45.96 60.20 44.40 C 61.04 41.71 62.09 39.10 63.29 36.55 C 64.66 38.47 65.76 40.59 67.31 42.38 C 69.65 43.90 72.49 43.86 75.17 44.00 C 74.93 40.58 74.17 36.73 70.74 35.14 C 68.55 33.72 66.17 32.63 63.82 31.51 C 63.93 30.04 64.05 28.57 64.21 27.10 C 64.83 23.53 65.89 20.06 66.91 16.59 Z" />
</g>
<g id="#f8e817ff">
<path fill="#f8e817" opacity="1.00" d=" M 60.58 27.23 C 61.79 27.18 63.00 27.14 64.21 27.10 C 64.05 28.57 63.93 30.04 63.82 31.51 C 66.17 32.63 68.55 33.72 70.74 35.14 C 71.34 37.34 71.85 39.56 72.31 41.79 C 70.65 42.00 68.98 42.20 67.31 42.38 C 65.76 40.59 64.66 38.47 63.29 36.55 C 60.26 36.31 58.42 38.46 57.31 40.99 C 58.26 42.14 59.16 43.33 60.20 44.40 C 63.91 45.96 67.51 47.77 70.76 50.15 C 72.25 53.64 73.02 58.19 70.41 61.35 C 68.99 63.35 66.53 64.02 64.38 64.93 C 63.85 66.62 63.42 68.42 62.15 69.73 C 61.69 69.53 60.77 69.11 60.31 68.90 C 60.08 67.50 59.86 66.10 59.64 64.70 L 59.59 64.48 C 57.82 63.90 55.94 63.58 54.27 62.74 C 51.46 60.73 50.67 57.17 49.80 54.04 C 52.12 54.08 54.45 54.08 56.77 54.26 C 56.97 56.67 57.82 58.99 60.26 59.93 C 63.13 60.17 66.93 58.51 65.98 54.99 C 64.23 50.59 58.56 50.51 55.20 47.82 C 51.64 45.66 51.20 40.89 52.32 37.24 C 53.51 34.07 57.04 32.94 59.76 31.42 C 60.02 30.02 60.30 28.62 60.58 27.23 Z" />
<path fill="#f8e817" opacity="1.00" d=" M 27.82 33.85 C 31.03 31.47 35.30 31.64 39.09 31.91 C 40.80 32.69 42.42 33.66 44.00 34.67 C 44.76 37.21 46.48 39.83 45.58 42.56 C 43.54 49.37 37.81 53.99 33.02 58.89 C 34.48 58.90 35.95 58.96 37.41 58.94 C 40.64 58.95 43.92 59.07 47.04 60.00 C 46.78 61.48 46.53 62.96 46.29 64.45 C 39.66 64.63 32.99 63.98 26.40 64.97 C 24.61 63.81 24.07 61.15 25.39 59.45 C 29.56 54.32 34.75 50.01 38.37 44.44 C 39.95 41.98 38.91 39.06 37.46 36.83 C 36.01 36.83 34.58 36.94 33.16 37.17 C 31.52 38.21 30.74 40.14 29.62 41.66 C 28.08 42.07 26.54 42.48 25.00 42.90 C 23.10 39.70 25.16 35.88 27.82 33.85 Z" />
</g>
<g id="#de8a13fe">
<path fill="#de8a13" opacity="1.00" d=" M 89.15 32.44 C 93.71 40.73 93.83 50.90 92.01 60.00 C 88.69 75.23 76.17 87.93 61.11 91.75 C 51.70 93.93 41.16 93.79 32.49 89.19 C 40.39 90.23 48.44 92.50 56.36 90.21 C 62.72 88.70 68.95 86.25 74.13 82.20 C 84.74 74.30 91.09 61.21 91.17 48.04 C 91.29 42.75 89.60 37.67 89.15 32.44 Z" />
</g>
<g id="#e08b12ff">
<path fill="#e08b12" opacity="1.00" d=" M 44.00 34.67 C 48.58 37.22 49.21 43.54 46.69 47.77 C 44.23 51.97 40.36 55.10 37.41 58.94 C 35.95 58.96 34.48 58.90 33.02 58.89 C 37.81 53.99 43.54 49.37 45.58 42.56 C 46.48 39.83 44.76 37.21 44.00 34.67 Z" />
<path fill="#e08b12" opacity="1.00" d=" M 70.76 50.15 C 75.85 52.47 76.37 59.94 72.65 63.71 C 70.88 65.25 68.49 65.70 66.36 66.51 C 66.05 67.99 65.74 69.48 65.43 70.96 C 64.33 70.56 63.23 70.17 62.15 69.73 C 63.42 68.42 63.85 66.62 64.38 64.93 C 66.53 64.02 68.99 63.35 70.41 61.35 C 73.02 58.19 72.25 53.64 70.76 50.15 Z" />
<path fill="#e08b12" opacity="1.00" d=" M 47.04 60.00 C 49.41 61.19 49.47 63.68 49.49 65.99 C 42.69 66.00 35.90 65.96 29.10 66.05 C 28.43 65.78 27.08 65.24 26.40 64.97 C 32.99 63.98 39.66 64.63 46.29 64.45 C 46.53 62.96 46.78 61.48 47.04 60.00 Z" />
</g>
<g id="#e59211ff">
<path fill="#e59211" opacity="1.00" d=" M 70.74 35.14 C 74.17 36.73 74.93 40.58 75.17 44.00 C 72.49 43.86 69.65 43.90 67.31 42.38 C 68.98 42.20 70.65 42.00 72.31 41.79 C 71.85 39.56 71.34 37.34 70.74 35.14 Z" />
</g>
<g id="#e49511ff">
<path fill="#e49511" opacity="1.00" d=" M 33.16 37.17 C 34.58 36.94 36.01 36.83 37.46 36.83 C 35.52 39.16 33.81 41.67 31.82 43.95 C 29.51 44.61 27.18 43.59 25.00 42.90 C 26.54 42.48 28.08 42.07 29.62 41.66 C 30.74 40.14 31.52 38.21 33.16 37.17 Z" />
</g>
<g id="#e29012ff">
<path fill="#e29012" opacity="1.00" d=" M 57.31 40.99 C 58.42 38.46 60.26 36.31 63.29 36.55 C 62.09 39.10 61.04 41.71 60.20 44.40 C 59.16 43.33 58.26 42.14 57.31 40.99 Z" />
</g>
<g id="#e99d10ff">
<path fill="#e99d10" opacity="1.00" d=" M 56.77 54.26 C 59.29 55.14 60.24 57.41 60.26 59.93 C 57.82 58.99 56.97 56.67 56.77 54.26 Z" />
</g>
<g id="#f09f2eff">
<path fill="#f09f2e" opacity="1.00" d=" M 13.11 59.63 C 16.03 66.44 20.24 72.90 26.41 77.18 C 28.92 78.81 31.48 80.36 33.86 82.17 L 31.80 82.59 C 28.71 81.08 25.93 79.01 23.21 76.92 C 18.63 72.77 14.83 67.67 12.75 61.81 L 13.11 59.63 Z" />
</g>
</svg>
