<?xml version="1.0" encoding="UTF-8" ?>
<!DOCTYPE svg PUBLIC "-//W3C//DTD SVG 1.1//EN" "http://www.w3.org/Graphics/SVG/1.1/DTD/svg11.dtd">
<svg width="96pt" height="96pt" viewBox="0 0 96 96" version="1.1" xmlns="http://www.w3.org/2000/svg">
<g id="#f9b40fff">
<path fill="#f9b40f" opacity="1.00" d=" M 32.81 7.70 C 37.05 6.26 41.46 5.46 45.89 4.86 C 47.30 4.84 48.71 4.84 50.13 4.84 C 55.13 5.43 60.06 6.43 64.86 7.99 L 64.49 9.03 C 64.01 10.36 63.58 11.70 63.15 13.05 C 62.75 12.93 61.95 12.69 61.56 12.57 C 57.18 11.07 52.54 12.08 48.04 12.03 C 43.65 12.16 39.18 11.50 34.87 12.58 C 34.12 12.79 32.62 13.22 31.86 13.44 C 31.45 11.84 31.04 10.24 30.63 8.64 C 31.18 8.41 32.26 7.94 32.81 7.70 Z" />
</g>
<g id="#f8a50eff">
<path fill="#f8a50e" opacity="1.00" d=" M 8.19 31.72 C 12.32 21.52 20.57 13.07 30.63 8.64 C 31.04 10.24 31.45 11.84 31.86 13.44 C 24.98 17.38 18.54 22.55 14.66 29.60 C 7.49 41.80 8.25 58.21 16.79 69.55 C 15.70 70.65 14.70 71.84 13.68 73.02 L 13.20 73.23 C 11.07 71.34 10.08 68.57 8.73 66.14 C 8.11 64.46 7.48 62.79 6.83 61.13 C 4.06 51.50 4.35 41.02 8.19 31.72 Z" />
</g>
<g id="#fbcd11ff">
<path fill="#fbcd11" opacity="1.00" d=" M 63.15 13.05 C 63.58 11.70 64.01 10.36 64.49 9.03 C 64.81 8.83 65.45 8.43 65.77 8.23 C 66.35 8.62 67.50 9.40 68.07 9.79 C 74.81 13.31 80.92 18.57 85.00 24.97 C 86.88 29.55 89.48 33.89 90.51 38.78 C 93.40 51.78 90.13 66.19 81.27 76.24 C 74.06 84.88 63.33 90.17 52.19 91.29 C 49.62 90.92 47.08 90.39 44.54 89.84 C 44.57 88.66 44.60 87.48 44.63 86.30 C 55.62 87.40 66.82 83.36 74.79 75.78 C 83.13 67.65 87.80 55.73 86.34 44.08 C 84.94 30.49 75.52 18.53 63.15 13.05 Z" />
</g>
<g id="#f8bb0fff">
<path fill="#f8bb0f" opacity="1.00" d=" M 34.87 12.58 C 39.18 11.50 43.65 12.16 48.04 12.03 C 52.54 12.08 57.18 11.07 61.56 12.57 L 59.90 12.64 C 63.57 14.91 67.50 16.77 70.90 19.47 C 69.88 23.10 68.73 26.69 67.47 30.24 C 66.77 30.37 65.35 30.63 64.65 30.76 C 63.40 31.00 62.16 31.25 60.91 31.49 C 60.63 33.03 60.35 34.56 60.07 36.09 C 56.45 37.44 52.81 38.75 49.33 40.44 C 49.12 37.17 48.94 33.90 48.78 30.63 C 47.70 30.74 46.63 30.85 45.55 30.97 C 45.45 33.46 45.34 35.94 45.20 38.43 C 43.35 39.43 41.66 40.69 40.09 42.08 C 41.88 42.49 43.67 42.89 45.46 43.28 C 45.54 47.08 45.46 50.88 45.19 54.67 C 43.69 56.03 42.19 57.39 40.77 58.84 C 39.82 59.79 38.83 60.71 37.80 61.58 C 37.78 60.30 37.76 59.03 37.74 57.75 C 35.49 57.62 33.25 57.49 31.00 57.45 C 33.63 53.98 36.97 50.98 38.97 47.06 C 40.52 43.96 38.80 40.68 37.70 37.75 C 37.68 38.36 37.63 39.57 37.60 40.18 C 37.06 39.61 35.96 38.46 35.41 37.89 C 34.93 30.03 37.69 22.53 38.33 14.76 C 37.57 14.27 36.81 13.77 36.05 13.28 L 34.87 12.58 M 50.05 39.25 C 53.53 38.17 51.32 33.56 51.23 30.95 C 49.27 33.30 50.18 36.49 50.05 39.25 Z" />
<path fill="#f8bb0f" opacity="1.00" d=" M 41.92 61.26 C 45.78 61.92 49.74 61.79 53.45 60.47 C 52.24 61.38 51.02 62.28 49.80 63.18 C 50.64 64.25 51.47 65.32 52.34 66.36 L 53.03 67.14 C 52.35 67.30 51.00 67.60 50.32 67.76 C 49.17 73.02 48.70 78.39 48.61 83.77 C 50.13 84.01 51.64 84.26 53.17 84.46 C 44.19 85.82 34.92 83.71 27.32 78.80 L 26.94 78.42 C 28.31 78.37 29.68 78.33 31.04 78.29 C 32.32 73.86 32.93 69.27 32.84 64.66 C 29.56 64.24 26.24 63.91 23.07 62.92 C 29.05 62.71 35.69 64.55 41.19 61.60 C 41.37 61.51 41.74 61.35 41.92 61.26 Z" />
</g>
<g id="#ee9218ff">
<path fill="#ee9218" opacity="1.00" d=" M 31.86 13.44 C 32.62 13.22 34.12 12.79 34.87 12.58 L 36.05 13.28 C 27.82 17.05 20.29 22.84 15.97 30.94 C 9.40 42.75 10.34 58.19 18.15 69.20 L 16.79 69.55 C 8.25 58.21 7.49 41.80 14.66 29.60 C 18.54 22.55 24.98 17.38 31.86 13.44 Z" />
</g>
<g id="#f8c559ff">
<path fill="#f8c559" opacity="1.00" d=" M 59.90 12.64 L 61.56 12.57 C 61.95 12.69 62.75 12.93 63.15 13.05 C 75.52 18.53 84.94 30.49 86.34 44.08 C 87.80 55.73 83.13 67.65 74.79 75.78 C 66.82 83.36 55.62 87.40 44.63 86.30 C 38.44 85.22 31.72 83.63 27.32 78.80 C 34.92 83.71 44.19 85.82 53.17 84.46 C 56.70 84.05 60.11 82.92 63.36 81.51 C 74.48 76.13 83.03 65.21 84.40 52.79 C 86.15 40.26 80.71 27.35 70.90 19.47 C 67.50 16.77 63.57 14.91 59.90 12.64 Z" />
</g>
<g id="#f9c910ff">
<path fill="#f9c910" opacity="1.00" d=" M 15.97 30.94 C 20.29 22.84 27.82 17.05 36.05 13.28 C 36.81 13.77 37.57 14.27 38.33 14.76 C 37.69 22.53 34.93 30.03 35.41 37.89 C 32.16 35.16 27.38 34.63 23.65 36.67 C 21.11 37.86 20.40 40.80 19.18 43.07 C 19.89 43.47 21.31 44.29 22.03 44.69 C 23.33 45.07 24.66 45.36 25.99 45.68 C 27.42 43.75 28.88 41.84 30.34 39.93 C 29.56 39.82 28.01 39.61 27.23 39.51 C 28.51 39.35 29.79 39.20 31.06 39.05 C 31.50 41.14 32.85 43.47 31.56 45.52 C 28.87 50.33 24.03 53.40 20.93 57.89 C 19.98 59.04 19.66 61.26 21.18 62.06 C 21.66 62.28 22.60 62.70 23.07 62.92 C 26.24 63.91 29.56 64.24 32.84 64.66 C 32.93 69.27 32.32 73.86 31.04 78.29 C 29.68 78.33 28.31 78.37 26.94 78.42 C 24.19 75.17 21.03 72.32 18.15 69.20 C 10.34 58.19 9.40 42.75 15.97 30.94 Z" />
</g>
<g id="#f8a60eff">
<path fill="#f8a60e" opacity="1.00" d=" M 67.47 30.24 C 68.73 26.69 69.88 23.10 70.90 19.47 C 80.71 27.35 86.15 40.26 84.40 52.79 C 83.03 65.21 74.48 76.13 63.36 81.51 C 64.07 75.51 64.61 69.50 65.42 63.51 C 66.62 63.19 67.82 62.86 69.02 62.54 C 70.85 63.69 72.75 64.73 74.64 65.78 C 75.38 64.56 76.12 63.33 76.85 62.11 C 72.01 59.96 67.28 57.01 65.14 51.91 C 69.04 51.78 72.93 51.72 76.83 51.67 C 76.74 50.48 76.67 49.29 76.58 48.10 C 76.33 44.88 76.03 41.66 75.41 38.49 C 74.95 38.12 74.05 37.38 73.60 37.01 C 70.53 36.59 67.42 36.64 64.32 36.71 C 64.43 34.73 64.54 32.74 64.65 30.76 C 65.35 30.63 66.77 30.37 67.47 30.24 Z" />
</g>
<g id="#df8a11fe">
<path fill="#df8a11" opacity="1.00" d=" M 85.00 24.97 L 84.58 24.02 C 87.67 27.41 89.47 31.67 91.22 35.83 C 94.94 47.06 94.30 59.74 88.83 70.29 C 81.25 85.59 63.88 95.04 46.91 93.46 C 42.44 92.81 37.55 92.57 33.74 89.89 C 39.87 90.60 45.99 92.14 52.19 91.29 C 63.33 90.17 74.06 84.88 81.27 76.24 C 90.13 66.19 93.40 51.78 90.51 38.78 C 89.48 33.89 86.88 29.55 85.00 24.97 Z" />
<path fill="#df8a11" opacity="1.00" d=" M 66.10 48.49 C 62.73 47.44 65.05 42.97 64.62 40.35 C 65.71 40.48 66.81 40.60 67.90 40.72 C 67.32 43.32 66.70 45.90 66.10 48.49 Z" />
</g>
<g id="#f8e816ff">
<path fill="#f8e816" opacity="1.00" d=" M 45.55 30.97 C 46.63 30.85 47.70 30.74 48.78 30.63 C 48.94 33.90 49.12 37.17 49.33 40.44 C 52.81 38.75 56.45 37.44 60.07 36.09 C 60.35 34.56 60.63 33.03 60.91 31.49 C 62.16 31.25 63.40 31.00 64.65 30.76 C 64.54 32.74 64.43 34.73 64.32 36.71 C 67.42 36.64 70.53 36.59 73.60 37.01 C 73.50 40.70 73.46 44.38 73.49 48.06 C 74.26 48.07 75.81 48.09 76.58 48.10 C 76.67 49.29 76.74 50.48 76.83 51.67 C 72.93 51.72 69.04 51.78 65.14 51.91 C 67.28 57.01 72.01 59.96 76.85 62.11 C 76.12 63.33 75.38 64.56 74.64 65.78 C 72.75 64.73 70.85 63.69 69.02 62.54 C 67.40 61.23 65.94 59.73 64.63 58.11 C 64.17 57.51 63.27 56.30 62.81 55.70 C 60.19 60.02 56.43 63.45 52.34 66.36 C 51.47 65.32 50.64 64.25 49.80 63.18 C 51.02 62.28 52.24 61.38 53.45 60.47 C 56.57 58.45 58.40 55.14 60.06 51.93 C 57.39 51.83 54.72 51.75 52.05 51.67 C 52.22 50.39 52.39 49.12 52.56 47.85 C 55.13 47.84 57.69 47.83 60.26 47.82 C 60.33 45.15 60.41 42.48 60.48 39.82 C 56.37 39.82 52.67 41.57 49.31 43.77 C 49.22 47.42 49.20 51.07 49.29 54.72 C 50.82 54.30 52.35 53.88 53.89 53.46 C 53.84 54.62 53.79 55.77 53.74 56.93 C 49.76 58.28 45.74 59.51 41.92 61.26 C 41.74 61.35 41.37 61.51 41.19 61.60 L 40.77 58.84 C 42.19 57.39 43.69 56.03 45.19 54.67 C 45.46 50.88 45.54 47.08 45.46 43.28 C 43.67 42.89 41.88 42.49 40.09 42.08 C 41.66 40.69 43.35 39.43 45.20 38.43 C 45.34 35.94 45.45 33.46 45.55 30.97 M 64.62 40.35 C 65.05 42.97 62.73 47.44 66.10 48.49 C 67.00 48.36 68.81 48.09 69.71 47.96 C 69.74 45.37 69.77 42.79 69.80 40.20 C 68.07 40.25 66.35 40.30 64.62 40.35 Z" />
<path fill="#f8e816" opacity="1.00" d=" M 23.65 36.67 C 27.38 34.63 32.16 35.16 35.41 37.89 C 35.96 38.46 37.06 39.61 37.60 40.18 C 38.42 47.84 31.63 52.51 27.14 57.56 C 28.42 57.52 29.71 57.45 31.00 57.45 C 33.25 57.49 35.49 57.62 37.74 57.75 C 37.76 59.03 37.78 60.30 37.80 61.58 C 32.27 61.95 26.72 61.75 21.18 62.06 C 19.66 61.26 19.98 59.04 20.93 57.89 C 24.03 53.40 28.87 50.33 31.56 45.52 C 32.85 43.47 31.50 41.14 31.06 39.05 C 29.79 39.20 28.51 39.35 27.23 39.51 C 25.56 41.30 23.83 43.03 22.03 44.69 C 21.31 44.29 19.89 43.47 19.18 43.07 C 20.40 40.80 21.11 37.86 23.65 36.67 Z" />
</g>
<g id="#e59411ff">
<path fill="#e59411" opacity="1.00" d=" M 50.05 39.25 C 50.18 36.49 49.27 33.30 51.23 30.95 C 51.32 33.56 53.53 38.17 50.05 39.25 Z" />
</g>
<g id="#e18c12ff">
<path fill="#e18c12" opacity="1.00" d=" M 37.70 37.75 C 38.80 40.68 40.52 43.96 38.97 47.06 C 36.97 50.98 33.63 53.98 31.00 57.45 C 29.71 57.45 28.42 57.52 27.14 57.56 C 31.63 52.51 38.42 47.84 37.60 40.18 C 37.63 39.57 37.68 38.36 37.70 37.75 Z" />
</g>
<g id="#e59410ff">
<path fill="#e59410" opacity="1.00" d=" M 73.60 37.01 C 74.05 37.38 74.95 38.12 75.41 38.49 C 76.03 41.66 76.33 44.88 76.58 48.10 C 75.81 48.09 74.26 48.07 73.49 48.06 C 73.46 44.38 73.50 40.70 73.60 37.01 Z" />
</g>
<g id="#e69f11fe">
<path fill="#e69f11" opacity="1.00" d=" M 22.03 44.69 C 23.83 43.03 25.56 41.30 27.23 39.51 C 28.01 39.61 29.56 39.82 30.34 39.93 C 28.88 41.84 27.42 43.75 25.99 45.68 C 24.66 45.36 23.33 45.07 22.03 44.69 Z" />
</g>
<g id="#f2aa0fff">
<path fill="#f2aa0f" opacity="1.00" d=" M 49.31 43.77 C 52.67 41.57 56.37 39.82 60.48 39.82 C 60.41 42.48 60.33 45.15 60.26 47.82 C 57.69 47.83 55.13 47.84 52.56 47.85 C 52.39 49.12 52.22 50.39 52.05 51.67 C 54.72 51.75 57.39 51.83 60.06 51.93 C 58.40 55.14 56.57 58.45 53.45 60.47 C 49.74 61.79 45.78 61.92 41.92 61.26 C 45.74 59.51 49.76 58.28 53.74 56.93 C 53.79 55.77 53.84 54.62 53.89 53.46 C 52.35 53.88 50.82 54.30 49.29 54.72 C 49.20 51.07 49.22 47.42 49.31 43.77 Z" />
</g>
<g id="#f8ac0eff">
<path fill="#f8ac0e" opacity="1.00" d=" M 64.62 40.35 C 66.35 40.30 68.07 40.25 69.80 40.20 C 69.77 42.79 69.74 45.37 69.71 47.96 C 68.81 48.09 67.00 48.36 66.10 48.49 C 66.70 45.90 67.32 43.32 67.90 40.72 C 66.81 40.60 65.71 40.48 64.62 40.35 Z" />
</g>
<g id="#e69911ff">
<path fill="#e69911" opacity="1.00" d=" M 52.34 66.36 C 56.43 63.45 60.19 60.02 62.81 55.70 C 63.27 56.30 64.17 57.51 64.63 58.11 C 61.67 62.06 58.34 66.54 53.03 67.14 L 52.34 66.36 Z" />
</g>
<g id="#f8af0eff">
<path fill="#f8af0e" opacity="1.00" d=" M 64.63 58.11 C 65.94 59.73 67.40 61.23 69.02 62.54 C 67.82 62.86 66.62 63.19 65.42 63.51 C 64.61 69.50 64.07 75.51 63.36 81.51 C 60.11 82.92 56.70 84.05 53.17 84.46 C 51.64 84.26 50.13 84.01 48.61 83.77 C 48.70 78.39 49.17 73.02 50.32 67.76 C 51.00 67.60 52.35 67.30 53.03 67.14 C 58.34 66.54 61.67 62.06 64.63 58.11 Z" />
</g>
<g id="#e59812ff">
<path fill="#e59812" opacity="1.00" d=" M 37.80 61.58 C 38.83 60.71 39.82 59.79 40.77 58.84 L 41.19 61.60 C 35.69 64.55 29.05 62.71 23.07 62.92 C 22.60 62.70 21.66 62.28 21.18 62.06 C 26.72 61.75 32.27 61.95 37.80 61.58 Z" />
</g>
<g id="#f9b10fff">
<path fill="#f9b10f" opacity="1.00" d=" M 16.79 69.55 L 18.15 69.20 C 21.03 72.32 24.19 75.17 26.94 78.42 L 27.32 78.80 C 31.72 83.63 38.44 85.22 44.63 86.30 C 44.60 87.48 44.57 88.66 44.54 89.84 C 47.08 90.39 49.62 90.92 52.19 91.29 C 45.99 92.14 39.87 90.60 33.74 89.89 C 26.29 87.84 20.59 82.01 15.44 76.51 C 14.74 75.56 13.50 74.82 13.40 73.55 L 13.68 73.02 C 14.70 71.84 15.70 70.65 16.79 69.55 Z" />
</g>
</svg>
