<?xml version="1.0" encoding="UTF-8" ?>
<!DOCTYPE svg PUBLIC "-//W3C//DTD SVG 1.1//EN" "http://www.w3.org/Graphics/SVG/1.1/DTD/svg11.dtd">
<svg width="96pt" height="96pt" viewBox="0 0 96 96" version="1.1" xmlns="http://www.w3.org/2000/svg">
<g id="#f9b20eff">
<path fill="#f9b20e" opacity="1.00" d=" M 28.11 9.64 C 35.05 6.09 43.00 4.24 50.81 4.72 C 50.69 6.40 50.60 8.08 50.54 9.76 C 45.22 9.61 39.74 10.00 34.85 12.29 C 32.15 13.37 29.45 14.49 26.97 16.01 C 27.36 13.89 27.74 11.76 28.11 9.64 Z" />
</g>
<g id="#f9bf0fff">
<path fill="#f9bf0f" opacity="1.00" d=" M 50.81 4.72 C 58.87 5.61 66.86 8.19 73.39 13.11 C 72.56 14.63 71.73 16.15 70.91 17.68 C 66.59 14.53 61.57 12.53 56.47 11.05 C 54.52 10.48 52.54 10.06 50.54 9.76 C 50.60 8.08 50.69 6.40 50.81 4.72 Z" />
</g>
<g id="#f8a50dff">
<path fill="#f8a50d" opacity="1.00" d=" M 6.94 60.99 C -0.06 41.77 9.91 18.62 28.11 9.64 C 27.74 11.76 27.36 13.89 26.97 16.01 C 20.48 20.95 14.60 27.11 12.05 35.04 C 9.08 43.54 8.81 53.39 12.73 61.64 C 14.23 66.03 16.70 70.02 19.74 73.52 C 18.45 74.81 17.50 76.37 16.85 78.08 C 12.59 73.03 8.64 67.47 6.94 60.99 Z" />
</g>
<g id="#f0a02eff">
<path fill="#f0a02e" opacity="1.00" d=" M 34.85 12.29 C 39.74 10.00 45.22 9.61 50.54 9.76 C 52.54 10.06 54.52 10.48 56.47 11.05 C 55.80 11.20 54.46 11.50 53.80 11.65 C 50.65 11.37 47.47 11.10 44.32 11.47 C 40.98 12.17 37.66 12.93 34.38 13.82 L 34.85 12.29 Z" />
</g>
<g id="#f8b70eff">
<path fill="#f8b70e" opacity="1.00" d=" M 44.32 11.47 C 47.47 11.10 50.65 11.37 53.80 11.65 C 61.44 12.81 68.53 16.68 73.85 22.25 C 72.56 25.86 71.89 29.64 71.52 33.44 C 70.83 33.67 69.44 34.13 68.75 34.36 C 64.60 30.67 57.33 30.24 53.58 34.70 C 49.84 39.23 49.95 45.51 50.18 51.06 C 50.36 55.58 51.74 60.59 55.70 63.25 C 58.62 64.59 62.01 64.34 65.15 64.16 C 63.29 64.63 61.43 65.07 59.59 65.62 C 61.55 65.93 63.52 66.19 65.50 66.34 C 65.15 71.16 63.74 75.85 63.68 80.70 C 59.30 82.82 54.49 83.90 49.67 84.34 C 43.86 83.25 37.89 83.81 32.11 82.71 L 33.84 82.07 C 30.76 79.79 27.31 78.08 24.35 75.64 C 26.02 72.55 26.93 69.14 27.46 65.69 C 34.68 65.71 41.91 65.66 49.13 65.69 C 49.15 63.94 49.15 62.19 49.13 60.44 C 47.12 60.82 46.86 62.82 46.31 64.43 C 46.28 62.67 46.21 60.92 46.13 59.17 C 43.01 59.13 39.89 59.20 36.77 59.14 C 39.91 55.48 43.58 52.24 46.25 48.21 C 49.06 44.06 48.86 37.27 44.00 34.73 C 43.17 34.17 42.33 33.63 41.48 33.10 C 42.26 25.86 46.39 18.85 44.32 11.47 Z" />
</g>
<g id="#f8ca64ff">
<path fill="#f8ca64" opacity="1.00" d=" M 53.80 11.65 C 54.46 11.50 55.80 11.20 56.47 11.05 C 61.57 12.53 66.59 14.53 70.91 17.68 C 79.36 24.20 84.99 34.33 85.87 44.99 C 86.95 57.13 81.43 69.45 72.05 77.13 C 67.01 81.53 60.62 83.94 54.19 85.46 C 53.40 85.43 51.83 85.37 51.04 85.34 L 49.67 84.34 C 54.49 83.90 59.30 82.82 63.68 80.70 C 72.89 76.21 80.14 67.78 82.83 57.85 C 86.50 45.50 82.93 31.39 73.85 22.25 C 68.53 16.68 61.44 12.81 53.80 11.65 Z" />
</g>
<g id="#f9c90fff">
<path fill="#f9c90f" opacity="1.00" d=" M 34.38 13.82 C 37.66 12.93 40.98 12.17 44.32 11.47 C 46.39 18.85 42.26 25.86 41.48 33.10 C 37.69 31.12 32.77 30.45 29.10 33.05 C 26.17 34.73 24.45 37.75 23.52 40.90 C 24.01 41.31 25.00 42.12 25.50 42.53 C 27.50 43.84 29.95 43.57 32.22 43.60 C 33.48 40.91 35.39 38.64 37.59 36.67 C 38.60 38.84 39.85 41.31 38.69 43.70 C 35.15 50.90 26.15 54.61 24.43 62.78 C 24.96 63.25 26.01 64.20 26.54 64.67 C 26.77 64.93 27.23 65.44 27.46 65.69 C 26.93 69.14 26.02 72.55 24.35 75.64 C 19.30 71.41 15.68 65.79 13.18 59.75 C 12.29 55.20 10.69 50.68 11.20 45.98 C 12.23 36.93 15.89 27.96 22.58 21.61 C 25.95 18.25 30.16 15.95 34.38 13.82 Z" />
</g>
<g id="#eb8c19ff">
<path fill="#eb8c19" opacity="1.00" d=" M 26.97 16.01 C 29.45 14.49 32.15 13.37 34.85 12.29 L 34.38 13.82 C 30.16 15.95 25.95 18.25 22.58 21.61 C 15.89 27.96 12.23 36.93 11.20 45.98 C 10.69 50.68 12.29 55.20 13.18 59.75 L 12.73 61.64 C 8.81 53.39 9.08 43.54 12.05 35.04 C 14.60 27.11 20.48 20.95 26.97 16.01 Z" />
</g>
<g id="#fbcf11ff">
<path fill="#fbcf11" opacity="1.00" d=" M 73.39 13.11 C 79.98 18.12 86.11 24.51 89.07 32.34 C 89.32 35.61 90.11 38.80 90.73 42.02 C 93.00 57.52 85.92 74.02 73.05 82.96 C 68.09 86.59 62.26 88.85 56.30 90.21 C 53.61 90.06 50.94 89.78 48.26 89.51 C 48.25 88.56 48.23 87.61 48.21 86.66 C 50.20 86.28 52.20 85.90 54.19 85.46 C 60.62 83.94 67.01 81.53 72.05 77.13 C 81.43 69.45 86.95 57.13 85.87 44.99 C 84.99 34.33 79.36 24.20 70.91 17.68 C 71.73 16.15 72.56 14.63 73.39 13.11 Z" />
</g>
<g id="#f7a50eff">
<path fill="#f7a50e" opacity="1.00" d=" M 71.52 33.44 C 71.89 29.64 72.56 25.86 73.85 22.25 C 82.93 31.39 86.50 45.50 82.83 57.85 C 80.14 67.78 72.89 76.21 63.68 80.70 C 63.74 75.85 65.15 71.16 65.50 66.34 C 69.18 65.26 73.11 63.08 74.02 59.03 C 75.34 53.40 75.23 47.45 74.25 41.77 C 73.66 39.69 73.16 36.36 70.38 36.28 C 69.85 35.63 69.30 34.99 68.75 34.36 C 69.44 34.13 70.83 33.67 71.52 33.44 Z" />
</g>
<g id="#f8e817ff">
<path fill="#f8e817" opacity="1.00" d=" M 29.10 33.05 C 32.77 30.45 37.69 31.12 41.48 33.10 C 42.33 33.63 43.17 34.17 44.00 34.73 C 44.65 37.18 46.29 39.69 45.46 42.28 C 43.64 49.26 37.29 53.45 33.08 58.91 C 34.31 58.99 35.54 59.08 36.77 59.14 C 39.89 59.20 43.01 59.13 46.13 59.17 C 46.21 60.92 46.28 62.67 46.31 64.43 C 39.72 64.65 33.12 64.30 26.54 64.67 C 26.01 64.20 24.96 63.25 24.43 62.78 C 26.15 54.61 35.15 50.90 38.69 43.70 C 39.85 41.31 38.60 38.84 37.59 36.67 C 35.87 36.94 34.01 36.72 32.40 37.44 C 31.09 38.57 30.55 40.30 29.71 41.76 C 28.30 42.02 26.90 42.27 25.50 42.53 C 25.00 42.12 24.01 41.31 23.52 40.90 C 24.45 37.75 26.17 34.73 29.10 33.05 Z" />
<path fill="#f8e817" opacity="1.00" d=" M 53.58 34.70 C 57.33 30.24 64.60 30.67 68.75 34.36 C 69.30 34.99 69.85 35.63 70.38 36.28 C 72.75 41.55 71.95 47.44 71.99 53.03 C 71.86 57.49 69.95 62.93 65.15 64.16 C 62.01 64.34 58.62 64.59 55.70 63.25 C 51.74 60.59 50.36 55.58 50.18 51.06 C 49.95 45.51 49.84 39.23 53.58 34.70 M 58.24 38.24 C 56.22 41.07 57.19 44.71 56.99 47.94 C 57.08 51.90 56.00 56.91 59.94 59.46 C 62.26 59.42 65.06 59.01 65.22 56.13 C 66.39 49.81 67.16 42.34 63.48 36.69 C 61.74 37.06 59.21 36.28 58.24 38.24 Z" />
</g>
<g id="#de8a12fe">
<path fill="#de8a12" opacity="1.00" d=" M 89.07 32.34 C 93.91 40.98 93.83 51.68 91.78 61.16 C 88.62 73.14 80.04 83.63 68.79 88.90 C 58.74 93.91 46.77 94.23 36.13 90.98 C 34.80 90.51 33.58 89.80 32.36 89.11 C 40.26 90.27 48.34 92.52 56.30 90.21 C 62.26 88.85 68.09 86.59 73.05 82.96 C 85.92 74.02 93.00 57.52 90.73 42.02 C 90.11 38.80 89.32 35.61 89.07 32.34 Z" />
<path fill="#de8a12" opacity="1.00" d=" M 46.31 64.43 C 46.86 62.82 47.12 60.82 49.13 60.44 C 49.15 62.19 49.15 63.94 49.13 65.69 C 41.91 65.66 34.68 65.71 27.46 65.69 C 27.23 65.44 26.77 64.93 26.54 64.67 C 33.12 64.30 39.72 64.65 46.31 64.43 Z" />
</g>
<g id="#e08b12ff">
<path fill="#e08b12" opacity="1.00" d=" M 44.00 34.73 C 48.86 37.27 49.06 44.06 46.25 48.21 C 43.58 52.24 39.91 55.48 36.77 59.14 C 35.54 59.08 34.31 58.99 33.08 58.91 C 37.29 53.45 43.64 49.26 45.46 42.28 C 46.29 39.69 44.65 37.18 44.00 34.73 Z" />
<path fill="#e08b12" opacity="1.00" d=" M 70.38 36.28 C 73.16 36.36 73.66 39.69 74.25 41.77 C 75.23 47.45 75.34 53.40 74.02 59.03 C 73.11 63.08 69.18 65.26 65.50 66.34 C 63.52 66.19 61.55 65.93 59.59 65.62 C 61.43 65.07 63.29 64.63 65.15 64.16 C 69.95 62.93 71.86 57.49 71.99 53.03 C 71.95 47.44 72.75 41.55 70.38 36.28 Z" />
<path fill="#e08b12" opacity="1.00" d=" M 32.40 37.44 C 34.01 36.72 35.87 36.94 37.59 36.67 C 35.39 38.64 33.48 40.91 32.22 43.60 C 29.95 43.57 27.50 43.84 25.50 42.53 C 26.90 42.27 28.30 42.02 29.71 41.76 C 30.55 40.30 31.09 38.57 32.40 37.44 Z" />
</g>
<g id="#e18c12ff">
<path fill="#e18c12" opacity="1.00" d=" M 58.24 38.24 C 59.21 36.28 61.74 37.06 63.48 36.69 C 61.90 38.70 59.77 40.61 59.51 43.31 C 58.81 48.68 59.38 54.10 59.94 59.46 C 56.00 56.91 57.08 51.90 56.99 47.94 C 57.19 44.71 56.22 41.07 58.24 38.24 Z" />
</g>
<g id="#f8af0dff">
<path fill="#f8af0d" opacity="1.00" d=" M 63.48 36.69 C 67.16 42.34 66.39 49.81 65.22 56.13 C 65.06 59.01 62.26 59.42 59.94 59.46 C 59.38 54.10 58.81 48.68 59.51 43.31 C 59.77 40.61 61.90 38.70 63.48 36.69 Z" />
</g>
<g id="#f09f2fff">
<path fill="#f09f2f" opacity="1.00" d=" M 13.18 59.75 C 15.68 65.79 19.30 71.41 24.35 75.64 C 27.31 78.08 30.76 79.79 33.84 82.07 L 32.11 82.71 C 27.54 80.34 23.23 77.34 19.74 73.52 C 16.70 70.02 14.23 66.03 12.73 61.64 L 13.18 59.75 Z" />
</g>
<g id="#f9b60fff">
<path fill="#f9b60f" opacity="1.00" d=" M 16.85 78.08 C 17.50 76.37 18.45 74.81 19.74 73.52 C 23.23 77.34 27.54 80.34 32.11 82.71 C 37.89 83.81 43.86 83.25 49.67 84.34 L 51.04 85.34 C 51.83 85.37 53.40 85.43 54.19 85.46 C 52.20 85.90 50.20 86.28 48.21 86.66 C 48.23 87.61 48.25 88.56 48.26 89.51 C 50.94 89.78 53.61 90.06 56.30 90.21 C 48.34 92.52 40.26 90.27 32.36 89.11 C 26.28 86.99 21.43 82.44 16.85 78.08 Z" />
</g>
</svg>
