<?xml version="1.0" encoding="UTF-8" ?>
<!DOCTYPE svg PUBLIC "-//W3C//DTD SVG 1.1//EN" "http://www.w3.org/Graphics/SVG/1.1/DTD/svg11.dtd">
<svg width="96pt" height="96pt" viewBox="0 0 96 96" version="1.1" xmlns="http://www.w3.org/2000/svg">
<g id="#eea850ff">
<path fill="#eea850" opacity="1.00" d=" M 40.54 5.78 C 51.52 3.75 63.24 6.29 72.42 12.65 C 80.99 18.66 87.48 27.72 89.86 37.96 C 92.36 48.97 90.77 61.03 84.68 70.64 C 78.79 80.28 68.95 87.39 57.94 89.95 C 46.72 92.40 34.48 90.64 24.83 84.26 C 14.44 77.64 7.13 66.36 5.52 54.14 C 3.80 42.65 7.08 30.53 14.33 21.46 C 20.76 13.28 30.26 7.52 40.54 5.78 M 20.98 17.95 C 10.65 26.52 5.82 40.84 7.79 54.00 C 9.35 65.65 16.45 76.33 26.38 82.55 C 35.32 88.26 46.58 90.23 56.92 87.84 C 69.47 85.09 80.63 76.03 85.45 64.07 C 91.15 51.05 89.26 35.29 80.83 23.89 C 79.90 23.80 78.98 23.69 78.06 23.56 C 78.76 23.23 80.14 22.56 80.84 22.22 C 78.60 18.02 74.22 13.74 69.07 16.02 C 70.05 15.52 71.06 15.08 72.06 14.63 C 66.28 11.81 60.54 8.55 54.01 7.89 C 42.15 5.91 29.90 10.07 20.98 17.95 Z" />
</g>
<g id="#fded78ff">
<path fill="#fded78" opacity="1.00" d=" M 20.98 17.95 C 29.90 10.07 42.15 5.91 54.01 7.89 C 60.54 8.55 66.28 11.81 72.06 14.63 C 71.06 15.08 70.05 15.52 69.07 16.02 C 67.99 16.56 66.98 17.23 66.06 18.02 C 66.54 18.57 67.49 19.66 67.97 20.21 C 69.63 19.65 71.27 19.00 73.02 18.74 C 75.47 19.31 76.60 21.79 78.06 23.56 C 78.98 23.69 79.90 23.80 80.83 23.89 C 89.26 35.29 91.15 51.05 85.45 64.07 C 84.22 63.50 83.10 62.26 81.62 62.53 C 78.45 62.56 77.26 66.24 74.30 66.77 C 75.09 65.32 75.77 63.75 75.46 62.06 C 73.83 64.35 72.08 66.62 69.55 67.98 C 69.79 65.66 71.53 64.00 72.89 62.26 C 65.91 61.06 58.47 60.60 52.51 56.34 C 45.80 52.48 42.24 45.31 36.37 40.52 C 37.25 39.96 38.14 39.41 39.03 38.87 C 39.40 38.64 40.14 38.17 40.52 37.94 C 42.31 36.23 41.86 33.79 41.20 31.66 C 42.65 31.73 44.28 31.99 45.54 31.06 C 45.31 29.62 44.48 28.99 43.05 29.17 C 36.29 29.06 29.52 29.36 22.76 29.05 L 21.65 29.01 C 22.27 28.23 22.90 27.46 23.53 26.69 C 23.20 25.71 22.87 24.72 22.49 23.76 C 22.87 23.76 23.62 23.76 24.00 23.77 C 25.17 22.40 26.06 20.74 27.51 19.65 C 29.73 18.72 32.07 19.72 34.19 20.42 C 34.54 19.57 36.16 18.66 35.29 17.69 C 30.89 13.14 22.16 16.36 21.36 22.55 C 21.13 22.29 20.66 21.77 20.43 21.51 C 20.58 20.32 20.79 19.13 20.98 17.95 M 55.13 29.21 C 53.66 29.31 53.37 31.86 55.22 31.66 C 58.54 31.59 62.01 32.12 65.24 31.21 C 64.39 33.18 63.49 35.90 65.45 37.55 C 67.43 40.07 71.39 38.96 72.74 36.31 L 70.49 36.60 C 70.46 35.59 70.43 34.58 70.39 33.57 C 71.14 32.94 71.91 32.32 72.68 31.71 C 74.58 31.86 77.10 32.35 77.16 29.58 L 75.80 30.02 L 76.47 29.21 C 69.36 29.20 62.24 29.14 55.13 29.21 M 74.27 44.23 C 71.75 45.13 69.18 47.71 70.42 50.58 C 73.56 55.98 83.30 55.83 85.72 49.91 C 86.32 44.26 78.47 42.37 74.27 44.23 Z" />
</g>
<g id="#a1390aff">
<path fill="#a1390a" opacity="1.00" d=" M 21.36 22.55 C 22.16 16.36 30.89 13.14 35.29 17.69 C 36.16 18.66 34.54 19.57 34.19 20.42 C 32.07 19.72 29.73 18.72 27.51 19.65 C 26.06 20.74 25.17 22.40 24.00 23.77 C 23.62 23.76 22.87 23.76 22.49 23.76 C 22.21 23.45 21.64 22.85 21.36 22.55 Z" />
</g>
<g id="#a03105ff">
<path fill="#a03105" opacity="1.00" d=" M 66.06 18.02 C 66.98 17.23 67.99 16.56 69.07 16.02 C 74.22 13.74 78.60 18.02 80.84 22.22 C 80.14 22.56 78.76 23.23 78.06 23.56 C 76.60 21.79 75.47 19.31 73.02 18.74 C 71.27 19.00 69.63 19.65 67.97 20.21 C 67.49 19.66 66.54 18.57 66.06 18.02 Z" />
</g>
<g id="#ffca73ff">
<path fill="#ffca73" opacity="1.00" d=" M 7.79 54.00 C 5.82 40.84 10.65 26.52 20.98 17.95 C 20.79 19.13 20.58 20.32 20.43 21.51 C 20.66 21.77 21.13 22.29 21.36 22.55 C 21.64 22.85 22.21 23.45 22.49 23.76 C 22.87 24.72 23.20 25.71 23.53 26.69 C 22.90 27.46 22.27 28.23 21.65 29.01 C 18.93 32.52 20.68 37.41 19.82 41.50 C 18.21 41.84 16.61 42.20 15.00 42.56 C 17.38 42.72 19.84 42.84 22.02 43.92 C 18.36 43.52 13.94 43.20 11.25 46.24 C 9.55 47.86 9.97 50.87 11.76 52.26 C 14.46 54.79 18.40 54.52 21.80 54.12 C 25.88 54.32 27.42 58.64 28.67 61.87 C 28.38 66.62 32.77 69.76 36.65 71.48 C 46.17 75.47 57.26 75.47 66.88 71.79 C 69.75 70.77 72.08 68.80 74.30 66.77 C 77.26 66.24 78.45 62.56 81.62 62.53 C 83.10 62.26 84.22 63.50 85.45 64.07 C 80.63 76.03 69.47 85.09 56.92 87.84 C 46.58 90.23 35.32 88.26 26.38 82.55 C 16.45 76.33 9.35 65.65 7.79 54.00 Z" />
</g>
<g id="#feda75ff">
<path fill="#feda75" opacity="1.00" d=" M 19.82 41.50 C 20.68 37.41 18.93 32.52 21.65 29.01 L 22.76 29.05 C 22.72 29.59 22.64 30.66 22.60 31.19 C 26.21 32.49 30.34 31.45 34.14 31.63 C 31.68 35.14 34.73 40.05 39.03 38.87 C 38.14 39.41 37.25 39.96 36.37 40.52 C 42.24 45.31 45.80 52.48 52.51 56.34 C 58.47 60.60 65.91 61.06 72.89 62.26 C 71.53 64.00 69.79 65.66 69.55 67.98 C 62.30 71.98 53.71 72.28 45.65 71.47 C 39.12 70.48 32.00 68.03 28.67 61.87 C 27.42 58.64 25.88 54.32 21.80 54.12 C 23.48 52.79 26.06 51.52 25.82 48.99 C 26.03 46.59 23.70 45.16 22.02 43.92 C 19.84 42.84 17.38 42.72 15.00 42.56 C 16.61 42.20 18.21 41.84 19.82 41.50 Z" />
</g>
<g id="#0c0e17ff">
<path fill="#0c0e17" opacity="1.00" d=" M 22.76 29.05 C 29.52 29.36 36.29 29.06 43.05 29.17 C 44.48 28.99 45.31 29.62 45.54 31.06 C 44.28 31.99 42.65 31.73 41.20 31.66 C 38.13 32.68 38.08 36.17 40.52 37.94 C 40.14 38.17 39.40 38.64 39.03 38.87 C 34.73 40.05 31.68 35.14 34.14 31.63 C 30.34 31.45 26.21 32.49 22.60 31.19 C 22.64 30.66 22.72 29.59 22.76 29.05 Z" />
</g>
<g id="#00000cff">
<path fill="#00000c" opacity="1.00" d=" M 55.13 29.21 C 62.24 29.14 69.36 29.20 76.47 29.21 L 75.80 30.02 C 72.42 31.41 68.59 29.56 65.24 31.21 C 62.01 32.12 58.54 31.59 55.22 31.66 C 53.37 31.86 53.66 29.31 55.13 29.21 Z" />
</g>
<g id="#1d1d1dff">
<path fill="#1d1d1d" opacity="1.00" d=" M 65.24 31.21 C 68.59 29.56 72.42 31.41 75.80 30.02 L 77.16 29.58 C 77.10 32.35 74.58 31.86 72.68 31.71 C 71.91 32.32 71.14 32.94 70.39 33.57 C 70.43 34.58 70.46 35.59 70.49 36.60 L 72.74 36.31 C 71.39 38.96 67.43 40.07 65.45 37.55 C 63.49 35.90 64.39 33.18 65.24 31.21 Z" />
</g>
<g id="#85837dff">
<path fill="#85837d" opacity="1.00" d=" M 40.52 37.94 C 38.08 36.17 38.13 32.68 41.20 31.66 C 41.86 33.79 42.31 36.23 40.52 37.94 Z" />
</g>
<g id="#f2965aff">
<path fill="#f2965a" opacity="1.00" d=" M 11.25 46.24 C 13.94 43.20 18.36 43.52 22.02 43.92 C 23.70 45.16 26.03 46.59 25.82 48.99 C 26.06 51.52 23.48 52.79 21.80 54.12 C 18.40 54.52 14.46 54.79 11.76 52.26 C 9.97 50.87 9.55 47.86 11.25 46.24 M 13.81 48.01 C 12.90 50.60 15.86 52.01 18.01 51.91 C 20.08 52.24 21.38 50.43 22.50 49.02 C 20.96 45.72 16.01 45.04 13.81 48.01 Z" />
</g>
<g id="#f3a562ff">
<path fill="#f3a562" opacity="1.00" d=" M 74.27 44.23 C 78.47 42.37 86.32 44.26 85.72 49.91 C 83.30 55.83 73.56 55.98 70.42 50.58 C 69.18 47.71 71.75 45.13 74.27 44.23 M 75.29 46.43 C 73.66 46.91 72.76 48.83 73.69 50.32 C 75.82 52.88 80.23 52.88 82.31 50.30 C 83.92 46.41 77.92 44.77 75.29 46.43 Z" />
</g>
<g id="#ed8639ff">
<path fill="#ed8639" opacity="1.00" d=" M 13.81 48.01 C 16.01 45.04 20.96 45.72 22.50 49.02 C 21.38 50.43 20.08 52.24 18.01 51.91 C 15.86 52.01 12.90 50.60 13.81 48.01 Z" />
</g>
<g id="#ec963aff">
<path fill="#ec963a" opacity="1.00" d=" M 75.29 46.43 C 77.92 44.77 83.92 46.41 82.31 50.30 C 80.23 52.88 75.82 52.88 73.69 50.32 C 72.76 48.83 73.66 46.91 75.29 46.43 Z" />
</g>
<g id="#5f0000ff">
<path fill="#5f0000" opacity="1.00" d=" M 28.67 61.87 C 32.00 68.03 39.12 70.48 45.65 71.47 C 53.71 72.28 62.30 71.98 69.55 67.98 C 72.08 66.62 73.83 64.35 75.46 62.06 C 75.77 63.75 75.09 65.32 74.30 66.77 C 72.08 68.80 69.75 70.77 66.88 71.79 C 57.26 75.47 46.17 75.47 36.65 71.48 C 32.77 69.76 28.38 66.62 28.67 61.87 Z" />
</g>
</svg>
