<?xml version="1.0" encoding="UTF-8" ?>
<!DOCTYPE svg PUBLIC "-//W3C//DTD SVG 1.1//EN" "http://www.w3.org/Graphics/SVG/1.1/DTD/svg11.dtd">
<svg width="96pt" height="96pt" viewBox="0 0 96 96" version="1.1" xmlns="http://www.w3.org/2000/svg">
<g id="#eea44eff">
<path fill="#eea44e" opacity="1.00" d=" M 30.56 8.90 C 41.29 3.96 54.47 3.63 65.14 8.86 C 64.36 9.36 63.58 9.86 62.82 10.37 C 53.55 6.31 42.56 6.47 33.25 10.34 C 32.37 9.82 31.46 9.36 30.56 8.90 Z" />
</g>
<g id="#fded78ff">
<path fill="#fded78" opacity="1.00" d=" M 33.25 10.34 C 42.56 6.47 53.55 6.31 62.82 10.37 C 61.59 11.32 60.32 12.24 59.29 13.42 C 58.72 14.71 60.23 15.48 60.86 16.34 C 62.68 14.99 64.42 13.51 66.38 12.35 C 69.11 12.22 69.37 16.10 71.00 17.69 C 71.68 17.33 73.03 16.61 73.70 16.25 C 78.54 20.90 83.07 26.07 85.59 32.39 C 87.64 36.98 88.22 42.01 89.03 46.92 C 84.26 44.44 78.54 43.47 73.43 45.52 C 71.30 46.33 68.53 48.04 69.28 50.74 C 70.48 53.72 74.10 54.57 76.96 55.10 C 80.77 55.90 84.55 54.68 88.09 53.38 C 88.16 53.81 88.30 54.65 88.37 55.08 C 87.43 58.39 86.36 61.67 85.07 64.87 C 84.32 64.24 83.58 63.62 82.83 62.99 C 76.47 64.87 69.72 64.45 63.41 66.49 C 64.62 64.22 66.50 61.77 66.02 59.07 C 65.58 58.97 64.71 58.78 64.27 58.68 C 63.42 62.83 60.81 67.85 55.96 67.86 C 52.35 68.05 50.64 64.52 48.60 62.22 C 46.53 61.05 45.49 63.84 44.14 64.86 C 44.17 62.47 45.51 60.39 48.01 60.13 C 51.21 61.37 52.12 66.36 56.03 65.96 C 58.41 66.34 59.82 64.40 61.08 62.77 C 57.13 61.71 52.96 60.89 49.60 58.40 C 45.81 55.60 42.42 52.26 39.48 48.58 C 36.31 44.70 35.41 38.57 29.82 37.31 C 29.68 37.06 29.41 36.57 29.27 36.32 C 32.54 36.85 36.35 34.56 36.43 31.04 C 36.63 29.27 35.53 27.79 34.63 26.39 C 32.46 24.91 29.54 24.86 27.38 26.42 L 27.05 26.79 C 28.89 23.97 32.05 21.67 32.07 18.00 C 32.36 16.44 30.74 15.42 30.04 14.20 C 28.73 15.02 27.41 15.83 26.07 16.60 C 26.82 14.94 27.76 13.38 28.90 11.95 C 31.15 13.30 33.24 14.89 35.20 16.62 C 35.92 15.78 36.64 14.94 37.36 14.09 C 36.03 12.79 34.68 11.52 33.25 10.34 M 62.01 25.90 C 60.54 27.55 59.06 29.64 59.88 31.97 C 60.83 35.63 65.87 37.33 68.65 34.66 C 71.29 32.69 71.04 28.73 68.98 26.43 C 66.88 24.94 64.31 24.54 62.01 25.90 Z" />
</g>
<g id="#a13b0bff">
<path fill="#a13b0b" opacity="1.00" d=" M 23.89 12.66 C 25.14 10.26 27.70 8.26 30.56 8.90 C 31.46 9.36 32.37 9.82 33.25 10.34 C 34.68 11.52 36.03 12.79 37.36 14.09 C 36.64 14.94 35.92 15.78 35.20 16.62 C 33.24 14.89 31.15 13.30 28.90 11.95 C 27.76 13.38 26.82 14.94 26.07 16.60 C 25.40 16.99 24.73 17.38 24.06 17.77 C 23.74 17.29 23.09 16.32 22.76 15.83 C 23.13 14.77 23.50 13.71 23.89 12.66 Z" />
</g>
<g id="#a63e0eff">
<path fill="#a63e0e" opacity="1.00" d=" M 65.14 8.86 L 65.33 8.75 C 68.14 8.44 71.02 9.79 72.06 12.53 C 72.62 13.76 73.12 15.03 73.70 16.25 C 73.03 16.61 71.68 17.33 71.00 17.69 C 69.37 16.10 69.11 12.22 66.38 12.35 C 64.42 13.51 62.68 14.99 60.86 16.34 C 60.23 15.48 58.72 14.71 59.29 13.42 C 60.32 12.24 61.59 11.32 62.82 10.37 C 63.58 9.86 64.36 9.36 65.14 8.86 Z" />
</g>
<g id="#efa951ff">
<path fill="#efa951" opacity="1.00" d=" M 72.06 12.53 C 83.80 20.11 91.24 34.00 90.94 47.99 C 91.19 57.12 88.13 66.21 82.72 73.54 C 74.81 84.42 61.51 91.34 47.99 90.96 C 37.15 91.22 26.43 86.78 18.58 79.38 C 10.89 72.22 6.22 62.20 5.12 51.80 C 5.75 52.11 6.99 52.73 7.62 53.04 C 9.04 64.32 15.28 74.87 24.63 81.36 C 34.95 88.78 48.86 90.83 60.89 86.75 C 69.72 83.75 77.63 77.76 82.45 69.73 C 83.42 68.16 84.30 66.54 85.07 64.87 C 86.36 61.67 87.43 58.39 88.37 55.08 C 89.26 52.45 89.58 49.66 89.03 46.92 C 88.22 42.01 87.64 36.98 85.59 32.39 C 83.07 26.07 78.54 20.90 73.70 16.25 C 73.12 15.03 72.62 13.76 72.06 12.53 Z" />
</g>
<g id="#eeaa50ff">
<path fill="#eeaa50" opacity="1.00" d=" M 5.11 50.45 C 4.26 35.75 11.48 20.72 23.89 12.66 C 23.50 13.71 23.13 14.77 22.76 15.83 C 18.18 20.36 13.63 25.14 11.04 31.14 C 8.62 36.08 8.05 41.59 7.04 46.92 C 6.52 47.90 6.00 48.86 5.47 49.82 L 5.11 50.45 Z" />
</g>
<g id="#fed975ff">
<path fill="#fed975" opacity="1.00" d=" M 26.07 16.60 C 27.41 15.83 28.73 15.02 30.04 14.20 C 30.74 15.42 32.36 16.44 32.07 18.00 C 32.05 21.67 28.89 23.97 27.05 26.79 C 24.16 29.97 25.91 34.39 29.27 36.32 C 29.41 36.57 29.68 37.06 29.82 37.31 C 35.41 38.57 36.31 44.70 39.48 48.58 C 42.42 52.26 45.81 55.60 49.60 58.40 C 52.96 60.89 57.13 61.71 61.08 62.77 C 59.82 64.40 58.41 66.34 56.03 65.96 C 52.12 66.36 51.21 61.37 48.01 60.13 C 45.51 60.39 44.17 62.47 44.14 64.86 C 42.66 66.95 39.70 68.05 37.37 66.69 C 34.19 65.03 33.20 61.39 31.93 58.32 C 31.45 58.30 30.50 58.26 30.02 58.24 C 29.10 57.09 28.29 55.79 27.07 54.93 C 25.24 54.69 23.38 55.17 21.55 55.21 C 24.02 54.03 26.35 52.43 27.76 50.01 C 26.17 45.84 21.50 44.83 17.60 44.07 C 19.36 43.58 21.09 42.98 22.82 42.40 C 22.68 38.26 21.96 34.10 22.62 29.98 C 23.13 25.92 24.40 21.90 24.06 17.77 C 24.73 17.38 25.40 16.99 26.07 16.60 Z" />
</g>
<g id="#ffcb73ff">
<path fill="#ffcb73" opacity="1.00" d=" M 11.04 31.14 C 13.63 25.14 18.18 20.36 22.76 15.83 C 23.09 16.32 23.74 17.29 24.06 17.77 C 24.40 21.90 23.13 25.92 22.62 29.98 C 21.96 34.10 22.68 38.26 22.82 42.40 C 21.09 42.98 19.36 43.58 17.60 44.07 C 13.94 44.45 10.40 45.45 7.04 46.92 C 8.05 41.59 8.62 36.08 11.04 31.14 Z" />
</g>
<g id="#818181ff">
<path fill="#818181" opacity="1.00" d=" M 27.38 26.42 C 29.54 24.86 32.46 24.91 34.63 26.39 C 33.64 27.76 32.54 29.68 30.54 29.31 C 28.82 29.35 28.27 27.53 27.38 26.42 Z" />
</g>
<g id="#8b8b8bff">
<path fill="#8b8b8b" opacity="1.00" d=" M 62.01 25.90 C 64.31 24.54 66.88 24.94 68.98 26.43 C 67.75 29.70 62.44 29.71 62.01 25.90 Z" />
</g>
<g id="#1f1f1fff">
<path fill="#1f1f1f" opacity="1.00" d=" M 27.05 26.79 L 27.38 26.42 C 28.27 27.53 28.82 29.35 30.54 29.31 C 32.54 29.68 33.64 27.76 34.63 26.39 C 35.53 27.79 36.63 29.27 36.43 31.04 C 36.35 34.56 32.54 36.85 29.27 36.32 C 25.91 34.39 24.16 29.97 27.05 26.79 Z" />
<path fill="#1f1f1f" opacity="1.00" d=" M 59.88 31.97 C 59.06 29.64 60.54 27.55 62.01 25.90 C 62.44 29.71 67.75 29.70 68.98 26.43 C 71.04 28.73 71.29 32.69 68.65 34.66 C 65.87 37.33 60.83 35.63 59.88 31.97 Z" />
</g>
<g id="#f3965cff">
<path fill="#f3965c" opacity="1.00" d=" M 7.04 46.92 C 10.40 45.45 13.94 44.45 17.60 44.07 C 21.50 44.83 26.17 45.84 27.76 50.01 C 26.35 52.43 24.02 54.03 21.55 55.21 C 16.82 55.53 11.91 55.22 7.62 53.04 C 6.99 52.73 5.75 52.11 5.12 51.80 C 5.21 51.30 5.38 50.32 5.47 49.82 C 6.00 48.86 6.52 47.90 7.04 46.92 M 10.68 50.07 C 13.32 53.84 19.83 53.93 22.43 50.06 C 20.17 45.56 12.91 45.59 10.68 50.07 Z" />
</g>
<g id="#f2a65dff">
<path fill="#f2a65d" opacity="1.00" d=" M 73.43 45.52 C 78.54 43.47 84.26 44.44 89.03 46.92 C 89.58 49.66 89.26 52.45 88.37 55.08 C 88.30 54.65 88.16 53.81 88.09 53.38 C 84.55 54.68 80.77 55.90 76.96 55.10 C 74.10 54.57 70.48 53.72 69.28 50.74 C 68.53 48.04 71.30 46.33 73.43 45.52 M 75.24 48.25 C 73.96 48.91 73.73 51.16 75.29 51.63 C 78.67 53.53 84.43 53.51 85.54 48.96 C 82.67 46.67 78.32 45.87 75.24 48.25 Z" />
</g>
<g id="#ed8639ff">
<path fill="#ed8639" opacity="1.00" d=" M 10.68 50.07 C 12.91 45.59 20.17 45.56 22.43 50.06 C 19.83 53.93 13.32 53.84 10.68 50.07 Z" />
</g>
<g id="#ec963bff">
<path fill="#ec963b" opacity="1.00" d=" M 75.24 48.25 C 78.32 45.87 82.67 46.67 85.54 48.96 C 84.43 53.51 78.67 53.53 75.29 51.63 C 73.73 51.16 73.96 48.91 75.24 48.25 Z" />
</g>
<g id="#ffca73ff">
<path fill="#ffca73" opacity="1.00" d=" M 7.62 53.04 C 11.91 55.22 16.82 55.53 21.55 55.21 C 23.38 55.17 25.24 54.69 27.07 54.93 C 28.29 55.79 29.10 57.09 30.02 58.24 C 30.56 62.70 32.97 66.80 36.83 69.16 C 37.07 69.73 37.56 70.87 37.80 71.44 C 42.18 71.91 46.42 73.09 50.60 74.42 C 57.68 75.73 65.15 75.37 71.94 72.91 C 75.43 71.81 78.65 69.52 82.45 69.73 C 77.63 77.76 69.72 83.75 60.89 86.75 C 48.86 90.83 34.95 88.78 24.63 81.36 C 15.28 74.87 9.04 64.32 7.62 53.04 Z" />
</g>
<g id="#7b2214ff">
<path fill="#7b2214" opacity="1.00" d=" M 30.02 58.24 C 30.50 58.26 31.45 58.30 31.93 58.32 C 33.20 61.39 34.19 65.03 37.37 66.69 C 39.70 68.05 42.66 66.95 44.14 64.86 C 45.49 63.84 46.53 61.05 48.60 62.22 C 50.64 64.52 52.35 68.05 55.96 67.86 C 60.81 67.85 63.42 62.83 64.27 58.68 C 64.71 58.78 65.58 58.97 66.02 59.07 C 66.50 61.77 64.62 64.22 63.41 66.49 C 60.99 68.93 57.54 71.14 53.97 69.98 C 51.05 69.30 49.21 66.79 47.67 64.42 C 45.28 67.89 41.22 70.80 36.83 69.16 C 32.97 66.80 30.56 62.70 30.02 58.24 Z" />
</g>
<g id="#fed675ff">
<path fill="#fed675" opacity="1.00" d=" M 63.41 66.49 C 69.72 64.45 76.47 64.87 82.83 62.99 C 83.58 63.62 84.32 64.24 85.07 64.87 C 84.30 66.54 83.42 68.16 82.45 69.73 C 78.65 69.52 75.43 71.81 71.94 72.91 C 65.15 75.37 57.68 75.73 50.60 74.42 C 46.42 73.09 42.18 71.91 37.80 71.44 C 37.56 70.87 37.07 69.73 36.83 69.16 C 41.22 70.80 45.28 67.89 47.67 64.42 C 49.21 66.79 51.05 69.30 53.97 69.98 C 57.54 71.14 60.99 68.93 63.41 66.49 Z" />
</g>
</svg>
