<?xml version="1.0" encoding="UTF-8" ?>
<!DOCTYPE svg PUBLIC "-//W3C//DTD SVG 1.1//EN" "http://www.w3.org/Graphics/SVG/1.1/DTD/svg11.dtd">
<svg width="96pt" height="96pt" viewBox="0 0 96 96" version="1.1" xmlns="http://www.w3.org/2000/svg">
<g id="#eea44fff">
<path fill="#eea44f" opacity="1.00" d=" M 13.57 22.45 C 20.47 13.11 31.28 6.73 42.83 5.44 C 55.73 3.72 69.25 8.40 78.41 17.62 C 86.80 26.00 91.87 38.06 90.77 49.98 L 90.23 50.14 C 89.92 49.99 89.31 49.69 89.00 49.54 C 88.91 37.65 84.29 25.69 75.19 17.81 C 63.24 6.71 44.45 4.29 29.96 11.67 C 19.14 17.04 10.86 27.46 8.39 39.31 C 7.71 42.53 7.44 45.81 7.24 49.08 C 6.82 49.59 5.98 50.62 5.56 51.13 L 5.13 51.66 C 4.45 41.33 7.28 30.73 13.57 22.45 Z" />
</g>
<g id="#fded78ff">
<path fill="#fded78" opacity="1.00" d=" M 29.96 11.67 C 44.45 4.29 63.24 6.71 75.19 17.81 C 84.29 25.69 88.91 37.65 89.00 49.54 C 85.08 47.41 80.53 46.11 76.06 47.07 C 73.15 47.65 69.67 48.85 68.63 51.95 C 68.57 54.18 70.76 55.67 72.57 56.50 C 77.53 58.68 83.10 57.57 88.08 56.06 C 86.67 61.14 84.50 65.95 81.85 70.49 C 79.33 65.85 74.55 62.00 69.04 62.30 C 66.52 62.19 64.47 63.86 62.76 65.50 C 62.88 64.42 63.00 63.34 63.13 62.26 C 52.40 60.68 43.52 53.11 37.84 44.20 C 35.85 40.84 34.75 37.06 33.38 33.43 C 31.74 33.74 30.09 34.04 28.47 34.43 C 30.59 32.16 34.79 29.39 33.09 25.88 C 29.72 25.43 28.82 30.00 26.26 31.57 C 25.52 31.42 24.03 31.11 23.28 30.96 C 25.49 29.38 28.25 28.05 29.24 25.32 C 30.61 21.71 31.08 17.84 31.73 14.05 C 31.14 13.26 30.55 12.47 29.96 11.67 M 49.40 25.94 C 50.99 30.66 55.93 34.14 60.98 33.78 C 62.89 33.79 66.39 34.04 65.53 31.06 C 64.11 29.61 61.78 30.53 59.97 30.18 C 55.96 30.36 53.75 26.59 51.45 23.96 C 50.75 24.60 50.07 25.26 49.40 25.94 M 56.43 43.54 C 54.26 45.54 55.00 48.83 56.74 50.85 C 58.36 52.64 60.83 52.17 62.91 51.78 L 62.88 51.56 C 64.47 49.84 66.22 47.47 64.96 45.04 C 63.73 41.61 58.71 40.57 56.43 43.54 Z" />
</g>
<g id="#fed575ff">
<path fill="#fed575" opacity="1.00" d=" M 8.39 39.31 C 10.86 27.46 19.14 17.04 29.96 11.67 C 30.55 12.47 31.14 13.26 31.73 14.05 C 31.08 17.84 30.61 21.71 29.24 25.32 C 28.25 28.05 25.49 29.38 23.28 30.96 C 24.03 31.11 25.52 31.42 26.26 31.57 C 23.94 31.94 21.59 32.12 19.30 32.64 C 17.86 32.82 18.37 34.79 17.94 35.74 C 21.49 35.90 25.08 35.59 28.47 34.43 C 30.09 34.04 31.74 33.74 33.38 33.43 C 34.75 37.06 35.85 40.84 37.84 44.20 C 43.52 53.11 52.40 60.68 63.13 62.26 C 63.00 63.34 62.88 64.42 62.76 65.50 C 62.10 66.21 61.46 66.93 60.84 67.66 C 58.24 67.05 55.70 65.94 52.99 66.02 C 50.99 66.40 49.64 68.14 48.05 69.25 C 47.99 69.07 47.88 68.71 47.82 68.54 C 46.31 67.27 44.91 65.52 42.85 65.24 C 40.29 65.35 37.93 66.58 35.38 66.71 C 32.93 65.05 31.14 62.16 28.02 61.70 C 21.10 60.70 14.38 66.49 13.26 73.18 C 9.36 67.98 6.96 61.81 5.70 55.47 C 10.85 57.20 16.50 58.65 21.87 56.97 C 24.31 56.37 25.83 54.22 27.38 52.42 C 27.60 52.15 28.04 51.61 28.26 51.34 C 30.73 48.91 30.85 44.46 27.61 42.65 C 24.30 40.62 20.53 43.23 19.57 46.58 C 15.35 46.69 11.02 47.05 7.24 49.08 C 7.44 45.81 7.71 42.53 8.39 39.31 Z" />
</g>
<g id="#9d2f04ff">
<path fill="#9d2f04" opacity="1.00" d=" M 49.40 25.94 C 50.07 25.26 50.75 24.60 51.45 23.96 C 53.75 26.59 55.96 30.36 59.97 30.18 C 61.78 30.53 64.11 29.61 65.53 31.06 C 66.39 34.04 62.89 33.79 60.98 33.78 C 55.93 34.14 50.99 30.66 49.40 25.94 Z" />
</g>
<g id="#9f3004ff">
<path fill="#9f3004" opacity="1.00" d=" M 26.26 31.57 C 28.82 30.00 29.72 25.43 33.09 25.88 C 34.79 29.39 30.59 32.16 28.47 34.43 C 25.08 35.59 21.49 35.90 17.94 35.74 C 18.37 34.79 17.86 32.82 19.30 32.64 C 21.59 32.12 23.94 31.94 26.26 31.57 Z" />
</g>
<g id="#1f1f1fff">
<path fill="#1f1f1f" opacity="1.00" d=" M 19.57 46.58 C 20.53 43.23 24.30 40.62 27.61 42.65 C 30.85 44.46 30.73 48.91 28.26 51.34 C 27.91 50.69 27.19 49.40 26.84 48.75 C 24.75 48.43 23.09 49.69 21.64 51.00 C 21.21 50.44 20.80 49.86 20.41 49.26 C 20.20 48.59 19.78 47.25 19.57 46.58 Z" />
<path fill="#1f1f1f" opacity="1.00" d=" M 56.43 43.54 C 58.71 40.57 63.73 41.61 64.96 45.04 C 66.22 47.47 64.47 49.84 62.88 51.56 C 62.76 50.83 62.53 49.39 62.41 48.66 C 60.23 48.43 57.59 48.31 56.74 50.85 C 55.00 48.83 54.26 45.54 56.43 43.54 Z" />
</g>
<g id="#f3945aff">
<path fill="#f3945a" opacity="1.00" d=" M 7.24 49.08 C 11.02 47.05 15.35 46.69 19.57 46.58 C 19.78 47.25 20.20 48.59 20.41 49.26 C 16.74 49.25 12.75 49.21 10.03 52.11 C 11.60 53.81 13.50 55.44 15.98 55.34 C 18.71 55.75 20.70 53.51 22.74 52.10 C 24.28 52.27 25.83 52.36 27.38 52.42 C 25.83 54.22 24.31 56.37 21.87 56.97 C 16.50 58.65 10.85 57.20 5.70 55.47 C 5.57 54.51 5.30 52.58 5.17 51.61 L 5.56 51.13 C 5.98 50.62 6.82 49.59 7.24 49.08 Z" />
</g>
<g id="#f2a861ff">
<path fill="#f2a861" opacity="1.00" d=" M 68.63 51.95 C 69.67 48.85 73.15 47.65 76.06 47.07 C 80.53 46.11 85.08 47.41 89.00 49.54 C 89.31 49.69 89.92 49.99 90.23 50.14 L 90.47 50.84 C 90.99 59.11 87.29 67.15 82.53 73.73 C 82.33 72.64 82.10 71.56 81.85 70.49 C 84.50 65.95 86.67 61.14 88.08 56.06 C 83.10 57.57 77.53 58.68 72.57 56.50 C 70.76 55.67 68.57 54.18 68.63 51.95 M 74.34 50.37 C 72.85 51.16 73.60 52.97 73.45 54.30 C 77.09 55.49 81.60 56.58 84.82 53.77 C 86.29 52.80 85.67 50.36 84.02 49.98 C 80.97 48.95 77.21 48.72 74.34 50.37 Z" />
</g>
<g id="#ed8639ff">
<path fill="#ed8639" opacity="1.00" d=" M 10.03 52.11 C 12.75 49.21 16.74 49.25 20.41 49.26 C 20.80 49.86 21.21 50.44 21.64 51.00 L 22.74 52.10 C 20.70 53.51 18.71 55.75 15.98 55.34 C 13.50 55.44 11.60 53.81 10.03 52.11 Z" />
</g>
<g id="#818180ff">
<path fill="#818180" opacity="1.00" d=" M 21.64 51.00 C 23.09 49.69 24.75 48.43 26.84 48.75 C 27.19 49.40 27.91 50.69 28.26 51.34 C 28.04 51.61 27.60 52.15 27.38 52.42 C 25.83 52.36 24.28 52.27 22.74 52.10 L 21.64 51.00 Z" />
</g>
<g id="#8b8a84ff">
<path fill="#8b8a84" opacity="1.00" d=" M 56.74 50.85 C 57.59 48.31 60.23 48.43 62.41 48.66 C 62.53 49.39 62.76 50.83 62.88 51.56 L 62.91 51.78 C 60.83 52.17 58.36 52.64 56.74 50.85 Z" />
</g>
<g id="#ec973bff">
<path fill="#ec973b" opacity="1.00" d=" M 74.34 50.37 C 77.21 48.72 80.97 48.95 84.02 49.98 C 85.67 50.36 86.29 52.80 84.82 53.77 C 81.60 56.58 77.09 55.49 73.45 54.30 C 73.60 52.97 72.85 51.16 74.34 50.37 Z" />
</g>
<g id="#ff9803ff">
<path fill="#ff9803" opacity="1.00" d=" M 13.26 73.18 C 14.38 66.49 21.10 60.70 28.02 61.70 C 31.14 62.16 32.93 65.05 35.38 66.71 C 37.93 66.58 40.29 65.35 42.85 65.24 C 44.91 65.52 46.31 67.27 47.82 68.54 C 47.46 70.61 47.64 73.28 45.52 74.49 C 42.83 75.86 39.69 75.83 36.88 76.88 C 35.13 79.51 34.53 82.78 32.81 85.47 C 31.86 85.71 30.91 85.96 29.96 86.20 C 26.92 86.24 23.89 86.07 20.85 85.96 L 22.41 84.72 C 21.90 84.85 20.88 85.12 20.37 85.25 L 19.81 85.40 C 15.24 83.13 12.44 78.31 13.26 73.18 M 19.45 66.29 C 15.66 69.40 13.79 75.23 16.30 79.67 C 19.17 84.01 25.12 85.54 29.98 84.17 C 33.49 83.27 33.30 79.00 34.36 76.23 C 32.13 75.18 27.81 75.50 27.64 72.33 C 32.91 74.91 39.30 75.30 44.58 72.60 C 47.87 70.72 44.17 65.92 41.27 67.33 C 38.58 68.18 35.78 69.20 32.97 68.22 C 31.06 67.45 27.81 67.89 27.30 65.33 C 28.49 65.56 30.88 66.03 32.08 66.27 C 29.06 62.15 22.79 63.11 19.45 66.29 Z" />
<path fill="#ff9803" opacity="1.00" d=" M 62.76 65.50 C 64.47 63.86 66.52 62.19 69.04 62.30 C 74.55 62.00 79.33 65.85 81.85 70.49 C 82.10 71.56 82.33 72.64 82.53 73.73 C 84.00 79.19 80.31 84.51 75.22 86.28 C 72.43 87.03 69.53 87.19 66.66 87.11 C 66.54 87.07 66.29 86.99 66.17 86.94 C 64.97 86.46 63.79 85.96 62.59 85.48 C 61.45 82.91 60.85 80.06 59.26 77.71 C 56.51 76.06 52.80 76.91 50.17 74.96 C 48.37 73.65 48.70 71.15 48.05 69.25 C 49.64 68.14 50.99 66.40 52.99 66.02 C 55.70 65.94 58.24 67.05 60.84 67.66 C 61.46 66.93 62.10 66.21 62.76 65.50 M 63.97 66.83 C 65.68 66.75 67.64 65.67 69.13 67.06 C 66.19 68.18 63.14 69.13 59.98 69.33 C 57.16 69.44 54.21 66.53 51.59 68.61 C 49.74 69.58 49.59 72.41 51.51 73.40 C 56.86 75.86 63.16 75.66 68.41 72.98 C 68.18 76.30 63.88 75.89 61.55 76.87 C 62.33 79.23 62.81 81.75 64.11 83.90 C 70.47 88.01 81.93 83.44 80.80 75.00 C 80.71 67.29 69.84 60.33 63.97 66.83 Z" />
</g>
<g id="#ffe06eff">
<path fill="#ffe06e" opacity="1.00" d=" M 19.45 66.29 C 22.79 63.11 29.06 62.15 32.08 66.27 C 30.88 66.03 28.49 65.56 27.30 65.33 C 27.81 67.89 31.06 67.45 32.97 68.22 C 35.78 69.20 38.58 68.18 41.27 67.33 C 44.17 65.92 47.87 70.72 44.58 72.60 C 39.30 75.30 32.91 74.91 27.64 72.33 C 27.81 75.50 32.13 75.18 34.36 76.23 C 33.30 79.00 33.49 83.27 29.98 84.17 C 25.12 85.54 19.17 84.01 16.30 79.67 C 13.79 75.23 15.66 69.40 19.45 66.29 Z" />
<path fill="#ffe06e" opacity="1.00" d=" M 63.97 66.83 C 69.84 60.33 80.71 67.29 80.80 75.00 C 81.93 83.44 70.47 88.01 64.11 83.90 C 62.81 81.75 62.33 79.23 61.55 76.87 C 63.88 75.89 68.18 76.30 68.41 72.98 C 63.16 75.66 56.86 75.86 51.51 73.40 C 49.59 72.41 49.74 69.58 51.59 68.61 C 54.21 66.53 57.16 69.44 59.98 69.33 C 63.14 69.13 66.19 68.18 69.13 67.06 C 67.64 65.67 65.68 66.75 63.97 66.83 Z" />
</g>
<g id="#ffca73ff">
<path fill="#ffca73" opacity="1.00" d=" M 47.82 68.54 C 47.88 68.71 47.99 69.07 48.05 69.25 C 48.70 71.15 48.37 73.65 50.17 74.96 C 52.80 76.91 56.51 76.06 59.26 77.71 C 60.85 80.06 61.45 82.91 62.59 85.48 C 53.57 90.35 41.97 89.75 32.81 85.47 C 34.53 82.78 35.13 79.51 36.88 76.88 C 39.69 75.83 42.83 75.86 45.52 74.49 C 47.64 73.28 47.46 70.61 47.82 68.54 Z" />
</g>
<g id="#5c3d0a92">
<path fill="#5c3d0a" opacity="0.57" d=" M 20.37 85.25 C 20.88 85.12 21.90 84.85 22.41 84.72 L 20.85 85.96 C 23.89 86.07 26.92 86.24 29.96 86.20 L 28.85 86.52 C 26.18 87.54 23.40 86.52 20.69 86.30 C 20.61 86.04 20.45 85.51 20.37 85.25 Z" />
</g>
<g id="#efaa51ff">
<path fill="#efaa51" opacity="1.00" d=" M 29.96 86.20 C 30.91 85.96 31.86 85.71 32.81 85.47 C 41.97 89.75 53.57 90.35 62.59 85.48 C 63.79 85.96 64.97 86.46 66.17 86.94 C 54.63 92.67 40.30 92.30 28.85 86.52 L 29.96 86.20 Z" />
</g>
<g id="#2e1f0362">
<path fill="#2e1f03" opacity="0.38" d=" M 66.66 87.11 C 69.53 87.19 72.43 87.03 75.22 86.28 C 72.52 87.61 69.50 88.69 66.66 87.11 Z" />
</g>
</svg>
