<?xml version="1.0" encoding="UTF-8" ?>
<!DOCTYPE svg PUBLIC "-//W3C//DTD SVG 1.1//EN" "http://www.w3.org/Graphics/SVG/1.1/DTD/svg11.dtd">
<svg width="96pt" height="96pt" viewBox="0 0 96 96" version="1.1" xmlns="http://www.w3.org/2000/svg">
<g id="#8c653195">
<path fill="#8c6531" opacity="0.58" d=" M 41.98 5.97 C 43.14 4.67 52.67 3.43 54.03 5.97 C 50.01 5.98 46.00 5.98 41.98 5.97 Z" />
</g>
<g id="#e8ad54f8">
<path fill="#e8ad54" opacity="0.97" d=" M 34.73 7.52 C 37.07 6.69 39.46 5.82 41.98 5.97 C 46.00 5.98 50.01 5.98 54.03 5.97 C 56.88 5.79 59.60 6.84 62.12 8.08 C 60.63 8.97 59.95 10.46 59.75 12.13 C 59.05 8.10 54.24 7.93 50.99 8.01 C 46.39 8.49 40.43 6.11 36.88 10.13 C 36.15 9.27 35.43 8.40 34.73 7.52 Z" />
</g>
<g id="#a24816f3">
<path fill="#a24816" opacity="0.95" d=" M 23.02 14.03 C 23.43 8.01 29.48 5.72 34.73 7.52 C 35.43 8.40 36.15 9.27 36.88 10.13 C 36.67 12.96 35.13 13.29 32.97 11.70 C 30.31 9.71 28.05 12.53 26.03 14.01 C 25.28 14.02 23.77 14.03 23.02 14.03 Z" />
</g>
<g id="#a44714f8">
<path fill="#a44714" opacity="0.97" d=" M 62.12 8.08 C 66.81 5.03 73.51 8.49 72.98 14.09 C 72.28 14.02 70.88 13.89 70.19 13.82 C 67.92 8.53 62.46 13.39 59.75 12.13 C 59.95 10.46 60.63 8.97 62.12 8.08 Z" />
</g>
<g id="#fce777ff">
<path fill="#fce777" opacity="1.00" d=" M 36.88 10.13 C 40.43 6.11 46.39 8.49 50.99 8.01 C 54.24 7.93 59.05 8.10 59.75 12.13 C 62.46 13.39 67.92 8.53 70.19 13.82 C 79.15 21.60 87.53 31.71 87.42 44.24 C 87.73 50.31 80.16 40.76 77.01 44.07 C 73.21 44.05 65.55 47.01 69.28 51.69 C 73.89 56.02 81.76 54.56 87.20 52.17 C 88.05 57.98 85.29 63.19 82.83 68.18 C 79.89 65.79 76.97 63.37 74.27 60.72 C 71.27 53.74 63.55 60.78 64.72 66.23 C 60.14 67.63 55.48 65.74 50.93 66.88 C 52.09 63.20 53.55 59.62 54.88 55.99 C 55.40 53.56 58.63 49.95 55.70 48.15 C 50.18 48.43 44.07 46.67 38.81 48.90 C 37.50 49.90 37.10 51.58 36.39 52.98 C 31.25 45.73 22.88 33.43 30.03 25.09 C 31.26 24.54 42.95 26.40 40.18 22.72 C 35.44 21.91 30.63 21.96 25.84 21.82 C 29.55 19.36 29.25 13.77 32.97 11.70 C 35.13 13.29 36.67 12.96 36.88 10.13 M 55.00 23.01 C 55.96 27.63 72.15 25.91 73.01 23.02 C 69.69 20.27 58.28 21.91 55.00 23.01 Z" />
</g>
<g id="#fccb71fe">
<path fill="#fccb71" opacity="1.00" d=" M 26.03 14.01 C 28.05 12.53 30.31 9.71 32.97 11.70 C 29.25 13.77 29.55 19.36 25.84 21.82 C 24.82 22.10 23.82 22.43 22.84 22.82 C 20.05 25.53 27.64 24.70 30.03 25.09 C 22.88 33.43 31.25 45.73 36.39 52.98 C 37.10 51.58 37.50 49.90 38.81 48.90 C 39.48 51.07 40.16 53.23 40.95 55.35 C 43.56 59.59 44.63 72.91 50.93 66.88 C 55.48 65.74 60.14 67.63 64.72 66.23 C 65.94 67.42 67.14 69.23 69.03 68.11 C 75.36 70.65 72.90 76.72 72.06 81.72 C 67.62 85.62 60.36 88.47 54.02 89.03 C 50.00 89.02 45.99 89.02 41.97 89.03 C 35.70 88.35 28.23 85.84 23.92 81.68 C 22.92 76.55 20.66 70.73 26.78 68.22 C 36.74 71.91 28.46 49.16 22.71 60.61 C 20.14 62.86 17.58 65.14 14.92 67.29 C 10.27 64.71 9.02 58.41 8.44 53.44 C 14.41 52.85 23.64 56.50 26.98 49.93 C 25.20 42.51 14.87 43.26 9.07 45.70 C 6.16 33.18 16.83 21.49 26.03 14.01 Z" />
</g>
<g id="#ec9c52fb">
<path fill="#ec9c52" opacity="1.00" d=" M 6.98 40.97 C 8.00 30.35 14.41 20.11 23.02 14.03 C 23.77 14.03 25.28 14.02 26.03 14.01 C 16.83 21.49 6.16 33.18 9.07 45.70 C 14.87 43.26 25.20 42.51 26.98 49.93 C 23.64 56.50 14.41 52.85 8.44 53.44 C 9.02 58.41 10.27 64.71 14.92 67.29 C 14.07 67.96 13.19 68.60 12.33 69.26 C 9.55 64.66 7.22 59.44 6.97 54.01 C 6.99 49.66 7.00 45.32 6.98 40.97 Z" />
</g>
<g id="#eca654fb">
<path fill="#eca654" opacity="1.00" d=" M 70.19 13.82 C 70.88 13.89 72.28 14.02 72.98 14.09 C 81.48 20.13 88.05 30.34 89.03 40.99 C 89.01 45.33 89.00 49.68 89.02 54.03 C 88.80 59.48 86.40 64.67 83.66 69.31 C 83.46 69.03 83.04 68.46 82.83 68.18 C 85.29 63.19 88.05 57.98 87.20 52.17 C 81.76 54.56 73.89 56.02 69.28 51.69 C 65.55 47.01 73.21 44.05 77.01 44.07 C 80.16 40.76 87.73 50.31 87.42 44.24 C 87.53 31.71 79.15 21.60 70.19 13.82 Z" />
</g>
<g id="#92824cff">
<path fill="#92824c" opacity="1.00" d=" M 22.84 22.82 C 23.82 22.43 24.82 22.10 25.84 21.82 C 30.63 21.96 35.44 21.91 40.18 22.72 C 34.40 22.85 28.62 22.85 22.84 22.82 Z" />
</g>
<g id="#958d4dff">
<path fill="#958d4d" opacity="1.00" d=" M 55.00 23.01 C 58.28 21.91 69.69 20.27 73.01 23.02 C 67.00 23.00 61.00 23.00 55.00 23.01 Z" />
</g>
<g id="#302e26ff">
<path fill="#302e26" opacity="1.00" d=" M 30.03 25.09 C 27.64 24.70 20.05 25.53 22.84 22.82 C 28.62 22.85 34.40 22.85 40.18 22.72 C 42.95 26.40 31.26 24.54 30.03 25.09 Z" />
</g>
<g id="#2f2e25ff">
<path fill="#2f2e25" opacity="1.00" d=" M 55.00 23.01 C 61.00 23.00 67.00 23.00 73.01 23.02 C 72.15 25.91 55.96 27.63 55.00 23.01 Z" />
</g>
<g id="#996d35a3">
<path fill="#996d35" opacity="0.64" d=" M 6.97 54.01 C 5.62 52.30 4.56 43.00 6.98 40.97 C 7.00 45.32 6.99 49.66 6.97 54.01 Z" />
</g>
<g id="#996e35a3">
<path fill="#996e35" opacity="0.64" d=" M 89.03 40.99 C 90.37 42.70 91.44 52.00 89.02 54.03 C 89.00 49.68 89.01 45.33 89.03 40.99 Z" />
</g>
<g id="#832114ff">
<path fill="#832114" opacity="1.00" d=" M 38.81 48.90 C 44.07 46.67 50.18 48.43 55.70 48.15 C 58.63 49.95 55.40 53.56 54.88 55.99 C 50.53 53.34 45.59 54.46 40.95 55.35 C 40.16 53.23 39.48 51.07 38.81 48.90 Z" />
</g>
<g id="#e16645ff">
<path fill="#e16645" opacity="1.00" d=" M 40.95 55.35 C 45.59 54.46 50.53 53.34 54.88 55.99 C 53.55 59.62 52.09 63.20 50.93 66.88 C 44.63 72.91 43.56 59.59 40.95 55.35 Z" />
</g>
<g id="#dd9746ff">
<path fill="#dd9746" opacity="1.00" d=" M 22.71 60.61 C 28.46 49.16 36.74 71.91 26.78 68.22 C 29.43 63.92 27.73 59.99 22.71 60.61 Z" />
</g>
<g id="#d59744ff">
<path fill="#d59744" opacity="1.00" d=" M 64.72 66.23 C 63.55 60.78 71.27 53.74 74.27 60.72 C 69.20 59.93 66.08 62.88 69.03 68.11 C 67.14 69.23 65.94 67.42 64.72 66.23 Z" />
</g>
<g id="#f3a31df6">
<path fill="#f3a31d" opacity="0.96" d=" M 14.92 67.29 C 17.58 65.14 20.14 62.86 22.71 60.61 C 27.73 59.99 29.43 63.92 26.78 68.22 C 20.66 70.73 22.92 76.55 23.92 81.68 C 21.05 87.56 12.89 92.26 7.69 86.30 C 5.09 80.37 9.42 74.33 12.33 69.26 C 13.19 68.60 14.07 67.96 14.92 67.29 M 22.39 63.29 C 15.71 68.67 7.64 75.06 9.15 84.70 C 14.10 92.08 25.50 81.74 20.97 75.00 C 16.40 69.18 35.61 63.00 22.39 63.29 Z" />
<path fill="#f3a31d" opacity="0.96" d=" M 69.03 68.11 C 66.08 62.88 69.20 59.93 74.27 60.72 C 76.97 63.37 79.89 65.79 82.83 68.18 C 83.04 68.46 83.46 69.03 83.66 69.31 C 87.64 74.31 93.20 85.71 84.65 88.75 C 78.96 90.91 75.18 85.49 72.06 81.72 C 72.90 76.72 75.36 70.65 69.03 68.11 M 68.85 63.03 C 69.47 66.52 73.47 67.97 74.96 71.05 C 77.77 74.16 71.38 77.82 74.59 81.37 C 76.53 87.11 84.56 89.39 87.79 83.74 C 87.56 73.86 78.66 63.33 68.85 63.03 Z" />
</g>
<g id="#ffdf6cff">
<path fill="#ffdf6c" opacity="1.00" d=" M 22.39 63.29 C 35.61 63.00 16.40 69.18 20.97 75.00 C 25.50 81.74 14.10 92.08 9.15 84.70 C 7.64 75.06 15.71 68.67 22.39 63.29 Z" />
</g>
<g id="#ffde6bff">
<path fill="#ffde6b" opacity="1.00" d=" M 68.85 63.03 C 78.66 63.33 87.56 73.86 87.79 83.74 C 84.56 89.39 76.53 87.11 74.59 81.37 C 71.38 77.82 77.77 74.16 74.96 71.05 C 73.47 67.97 69.47 66.52 68.85 63.03 Z" />
</g>
<g id="#9b6f36a5">
<path fill="#9b6f36" opacity="0.65" d=" M 41.97 89.03 C 45.99 89.02 50.00 89.02 54.02 89.03 C 52.86 90.33 43.33 91.57 41.97 89.03 Z" />
</g>
</svg>
