<?xml version="1.0" encoding="UTF-8" ?>
<!DOCTYPE svg PUBLIC "-//W3C//DTD SVG 1.1//EN" "http://www.w3.org/Graphics/SVG/1.1/DTD/svg11.dtd">
<svg width="96pt" height="96pt" viewBox="0 0 96 96" version="1.1" xmlns="http://www.w3.org/2000/svg">
<g id="#eea850ff">
<path fill="#eea850" opacity="1.00" d=" M 19.67 15.95 C 29.99 6.35 45.37 2.93 58.93 6.47 C 77.00 10.94 91.04 28.32 90.94 47.04 C 91.61 61.09 84.47 75.02 73.04 83.09 C 65.55 88.47 56.28 91.36 47.04 90.95 C 30.92 91.01 15.57 80.65 8.99 66.03 C 1.43 50.07 5.08 29.52 18.05 17.44 C 18.12 18.01 18.28 19.15 18.35 19.72 C 16.14 23.03 13.52 26.10 11.73 29.69 C 5.96 40.99 5.93 55.04 11.65 66.36 C 16.80 76.64 26.47 84.57 37.61 87.46 C 54.29 92.17 73.50 84.69 82.42 69.81 C 84.02 67.24 85.35 64.52 86.38 61.68 C 90.46 50.42 89.19 37.38 82.92 27.17 C 78.28 19.89 71.77 13.32 63.47 10.45 C 53.23 6.26 41.29 6.44 31.26 11.15 C 29.57 12.16 26.73 12.30 26.31 14.61 C 24.11 15.10 21.89 15.51 19.67 15.95 Z" />
</g>
<g id="#fded78ff">
<path fill="#fded78" opacity="1.00" d=" M 31.26 11.15 C 41.29 6.44 53.23 6.26 63.47 10.45 C 71.77 13.32 78.28 19.89 82.92 27.17 C 89.19 37.38 90.46 50.42 86.38 61.68 C 82.53 60.68 78.84 62.56 75.02 62.68 C 72.73 62.84 70.43 62.71 68.16 63.08 C 64.61 64.55 63.69 70.82 59.18 70.21 C 59.95 69.50 60.71 68.78 61.48 68.07 C 64.33 65.47 66.43 61.16 64.59 57.40 C 63.57 55.37 60.64 55.80 59.26 57.22 C 53.92 62.02 46.43 63.40 39.46 63.14 C 44.56 60.23 50.94 61.18 55.82 57.70 C 46.37 54.29 40.88 45.15 36.15 36.88 C 31.11 33.93 24.72 35.44 19.10 34.79 C 19.02 34.45 18.85 33.77 18.76 33.43 C 25.06 33.43 31.38 33.71 37.67 33.20 C 37.39 32.76 36.83 31.87 36.55 31.43 C 32.54 31.04 28.50 31.42 24.48 31.24 C 26.94 29.45 29.96 28.99 32.90 28.69 C 33.32 25.03 33.33 21.34 32.96 17.67 C 32.28 17.45 31.61 17.23 30.94 16.99 C 30.81 14.43 28.51 13.58 26.31 14.61 C 26.73 12.30 29.57 12.16 31.26 11.15 M 59.57 15.53 C 62.96 16.89 66.69 17.21 70.09 18.62 C 71.52 17.69 72.05 15.12 69.88 14.72 C 66.99 13.71 64.01 12.98 61.02 12.32 C 59.24 11.76 57.71 14.57 59.57 15.53 M 53.14 31.32 C 51.55 30.95 51.69 33.61 53.00 33.42 C 58.77 33.46 64.55 33.54 70.31 33.39 C 70.47 33.07 70.78 32.41 70.93 32.08 L 70.49 31.42 C 64.72 31.13 58.92 31.34 53.14 31.32 Z" />
</g>
<g id="#a1380aff">
<path fill="#a1380a" opacity="1.00" d=" M 59.57 15.53 C 57.71 14.57 59.24 11.76 61.02 12.32 C 64.01 12.98 66.99 13.71 69.88 14.72 C 72.05 15.12 71.52 17.69 70.09 18.62 C 66.69 17.21 62.96 16.89 59.57 15.53 Z" />
</g>
<g id="#a03507ff">
<path fill="#a03507" opacity="1.00" d=" M 26.31 14.61 C 28.51 13.58 30.81 14.43 30.94 16.99 C 27.04 18.48 22.90 19.13 18.79 19.75 L 18.35 19.72 C 18.28 19.15 18.12 18.01 18.05 17.44 L 17.96 16.88 C 18.39 16.65 19.24 16.18 19.67 15.95 C 21.89 15.51 24.11 15.10 26.31 14.61 Z" />
</g>
<g id="#fedc76ff">
<path fill="#fedc76" opacity="1.00" d=" M 18.79 19.75 C 22.90 19.13 27.04 18.48 30.94 16.99 C 31.61 17.23 32.28 17.45 32.96 17.67 C 33.33 21.34 33.32 25.03 32.90 28.69 C 29.96 28.99 26.94 29.45 24.48 31.24 C 22.42 31.27 20.37 31.30 18.31 31.37 C 18.38 31.06 18.51 30.43 18.57 30.11 C 19.92 29.30 21.58 28.90 22.68 27.75 C 23.53 25.87 23.55 23.76 23.81 21.74 C 22.13 21.08 20.48 20.37 18.79 19.75 Z" />
</g>
<g id="#ffca73ff">
<path fill="#ffca73" opacity="1.00" d=" M 18.35 19.72 L 18.79 19.75 C 20.48 20.37 22.13 21.08 23.81 21.74 C 23.55 23.76 23.53 25.87 22.68 27.75 C 21.58 28.90 19.92 29.30 18.57 30.11 C 18.51 30.43 18.38 31.06 18.31 31.37 C 18.42 31.89 18.65 32.92 18.76 33.43 C 18.85 33.77 19.02 34.45 19.10 34.79 C 20.72 43.91 22.64 53.42 28.85 60.68 C 26.59 63.95 29.98 67.16 32.31 69.22 C 32.94 69.64 33.58 70.04 34.24 70.42 C 36.59 71.68 39.11 72.60 41.71 73.21 C 41.62 73.67 41.43 74.59 41.34 75.05 C 45.02 75.44 48.77 75.51 52.38 74.56 C 58.26 73.01 64.47 73.95 70.35 72.36 C 74.36 71.39 78.13 68.52 82.42 69.81 C 73.50 84.69 54.29 92.17 37.61 87.46 C 26.47 84.57 16.80 76.64 11.65 66.36 C 5.93 55.04 5.96 40.99 11.73 29.69 C 13.52 26.10 16.14 23.03 18.35 19.72 Z" />
</g>
<g id="#000007ff">
<path fill="#000007" opacity="1.00" d=" M 18.31 31.37 C 20.37 31.30 22.42 31.27 24.48 31.24 C 28.50 31.42 32.54 31.04 36.55 31.43 C 36.83 31.87 37.39 32.76 37.67 33.20 C 31.38 33.71 25.06 33.43 18.76 33.43 C 18.65 32.92 18.42 31.89 18.31 31.37 Z" />
<path fill="#000007" opacity="1.00" d=" M 53.14 31.32 C 58.92 31.34 64.72 31.13 70.49 31.42 L 70.93 32.08 C 70.78 32.41 70.47 33.07 70.31 33.39 C 64.55 33.54 58.77 33.46 53.00 33.42 C 51.69 33.61 51.55 30.95 53.14 31.32 Z" />
</g>
<g id="#feda75ff">
<path fill="#feda75" opacity="1.00" d=" M 19.10 34.79 C 24.72 35.44 31.11 33.93 36.15 36.88 C 40.88 45.15 46.37 54.29 55.82 57.70 C 50.94 61.18 44.56 60.23 39.46 63.14 C 35.86 62.61 32.44 61.26 28.85 60.68 C 22.64 53.42 20.72 43.91 19.10 34.79 Z" />
<path fill="#feda75" opacity="1.00" d=" M 75.02 62.68 C 78.84 62.56 82.53 60.68 86.38 61.68 C 85.35 64.52 84.02 67.24 82.42 69.81 C 78.13 68.52 74.36 71.39 70.35 72.36 C 64.47 73.95 58.26 73.01 52.38 74.56 C 48.77 75.51 45.02 75.44 41.34 75.05 C 41.43 74.59 41.62 73.67 41.71 73.21 C 47.71 74.38 53.79 72.88 59.18 70.21 C 63.69 70.82 64.61 64.55 68.16 63.08 C 70.43 62.71 72.73 62.84 75.02 62.68 Z" />
</g>
<g id="#7d180fff">
<path fill="#7d180f" opacity="1.00" d=" M 59.26 57.22 C 60.64 55.80 63.57 55.37 64.59 57.40 C 66.43 61.16 64.33 65.47 61.48 68.07 C 61.06 67.89 60.23 67.52 59.81 67.33 C 52.21 63.72 42.92 63.98 35.27 67.30 C 34.26 67.90 33.29 68.57 32.31 69.22 C 29.98 67.16 26.59 63.95 28.85 60.68 C 32.44 61.26 35.86 62.61 39.46 63.14 C 46.43 63.40 53.92 62.02 59.26 57.22 Z" />
</g>
<g id="#e96e5eff">
<path fill="#e96e5e" opacity="1.00" d=" M 35.27 67.30 C 42.92 63.98 52.21 63.72 59.81 67.33 C 56.85 67.85 53.86 67.60 50.89 67.39 C 45.69 66.99 40.47 68.01 35.27 67.30 Z" />
</g>
<g id="#e66142ff">
<path fill="#e66142" opacity="1.00" d=" M 32.31 69.22 C 33.29 68.57 34.26 67.90 35.27 67.30 C 40.47 68.01 45.69 66.99 50.89 67.39 C 53.86 67.60 56.85 67.85 59.81 67.33 C 60.23 67.52 61.06 67.89 61.48 68.07 C 60.71 68.78 59.95 69.50 59.18 70.21 C 57.09 68.61 54.35 70.12 52.00 70.07 C 46.09 71.10 40.08 68.89 34.24 70.42 C 33.58 70.04 32.94 69.64 32.31 69.22 Z" />
</g>
<g id="#df4b18ff">
<path fill="#df4b18" opacity="1.00" d=" M 52.00 70.07 C 54.35 70.12 57.09 68.61 59.18 70.21 C 53.79 72.88 47.71 74.38 41.71 73.21 C 39.11 72.60 36.59 71.68 34.24 70.42 C 40.08 68.89 46.09 71.10 52.00 70.07 Z" />
</g>
</svg>
