<?xml version="1.0" encoding="UTF-8" ?>
<!DOCTYPE svg PUBLIC "-//W3C//DTD SVG 1.1//EN" "http://www.w3.org/Graphics/SVG/1.1/DTD/svg11.dtd">
<svg width="96pt" height="96pt" viewBox="0 0 96 96" version="1.1" xmlns="http://www.w3.org/2000/svg">
<g id="#eea34eff">
<path fill="#eea34e" opacity="1.00" d=" M 37.44 7.64 C 45.60 5.21 54.54 5.65 62.49 8.68 C 75.21 13.44 84.96 25.14 87.39 38.49 C 88.76 47.34 87.89 56.85 83.32 64.70 C 82.99 63.80 82.64 62.90 82.26 62.02 C 86.41 53.65 86.96 43.70 84.29 34.80 C 80.86 23.51 71.84 14.13 60.69 10.28 C 51.53 7.00 41.15 7.68 32.37 11.83 C 17.23 18.61 8.14 36.38 11.34 52.65 C 11.89 56.45 13.50 59.95 15.04 63.43 C 14.70 63.87 14.04 64.73 13.70 65.17 L 13.64 65.03 C 7.31 54.00 7.15 39.84 12.72 28.48 C 17.54 18.47 26.73 10.65 37.44 7.64 Z" />
</g>
<g id="#fded78ff">
<path fill="#fded78" opacity="1.00" d=" M 32.37 11.83 C 41.15 7.68 51.53 7.00 60.69 10.28 C 71.84 14.13 80.86 23.51 84.29 34.80 C 86.96 43.70 86.41 53.65 82.26 62.02 C 80.00 57.81 76.94 53.86 75.98 49.09 C 75.14 45.29 77.87 41.88 77.78 38.13 C 77.16 34.74 73.54 32.86 70.31 33.59 C 67.56 30.24 64.57 26.36 60.01 25.63 C 54.07 25.02 48.60 29.06 45.43 33.78 C 40.07 32.57 34.81 30.96 29.43 29.80 C 29.83 26.28 30.82 22.72 29.89 19.19 C 28.81 15.39 33.85 14.62 36.25 13.07 C 34.96 12.66 33.66 12.24 32.37 11.83 M 30.76 18.98 C 34.44 21.06 38.86 21.44 43.01 21.23 C 45.44 20.81 48.44 21.21 50.09 18.99 C 49.70 18.61 48.90 17.86 48.51 17.48 C 43.66 17.65 38.68 18.45 33.95 16.93 C 32.09 15.84 31.32 17.53 30.76 18.98 M 64.30 24.50 C 67.16 28.03 70.61 31.36 75.03 32.79 C 76.72 33.26 78.84 34.45 80.40 33.04 C 81.60 30.73 78.34 30.42 76.92 29.88 C 72.27 28.86 69.26 24.99 65.95 21.91 C 65.40 22.74 64.16 23.36 64.30 24.50 Z" />
</g>
<g id="#ffcc74ff">
<path fill="#ffcc74" opacity="1.00" d=" M 11.34 52.65 C 8.14 36.38 17.23 18.61 32.37 11.83 C 33.66 12.24 34.96 12.66 36.25 13.07 C 33.85 14.62 28.81 15.39 29.89 19.19 C 30.82 22.72 29.83 26.28 29.43 29.80 C 29.40 30.31 29.34 31.31 29.30 31.81 C 30.30 32.13 31.31 32.44 32.32 32.71 C 30.82 35.92 29.99 39.40 28.62 42.67 C 25.42 50.35 20.83 57.45 15.04 63.43 C 13.50 59.95 11.89 56.45 11.34 52.65 Z" />
</g>
<g id="#9f3004ff">
<path fill="#9f3004" opacity="1.00" d=" M 30.76 18.98 C 31.32 17.53 32.09 15.84 33.95 16.93 C 38.68 18.45 43.66 17.65 48.51 17.48 C 48.90 17.86 49.70 18.61 50.09 18.99 C 48.44 21.21 45.44 20.81 43.01 21.23 C 38.86 21.44 34.44 21.06 30.76 18.98 Z" />
</g>
<g id="#a2380aff">
<path fill="#a2380a" opacity="1.00" d=" M 64.30 24.50 C 64.16 23.36 65.40 22.74 65.95 21.91 C 69.26 24.99 72.27 28.86 76.92 29.88 C 78.34 30.42 81.60 30.73 80.40 33.04 C 78.84 34.45 76.72 33.26 75.03 32.79 C 70.61 31.36 67.16 28.03 64.30 24.50 Z" />
</g>
<g id="#fca114ff">
<path fill="#fca114" opacity="1.00" d=" M 45.43 33.78 C 48.60 29.06 54.07 25.02 60.01 25.63 C 64.57 26.36 67.56 30.24 70.31 33.59 C 73.54 32.86 77.16 34.74 77.78 38.13 C 77.87 41.88 75.14 45.29 75.98 49.09 C 76.94 53.86 80.00 57.81 82.26 62.02 C 82.64 62.90 82.99 63.80 83.32 64.70 L 82.84 65.91 C 82.50 65.56 81.84 64.85 81.51 64.50 C 78.75 59.82 75.48 55.25 74.11 49.93 C 72.89 45.85 75.32 42.07 75.92 38.14 C 75.17 36.77 73.84 35.87 72.71 34.83 C 72.08 35.97 71.46 37.12 70.83 38.26 C 67.88 33.83 64.89 28.06 58.97 27.41 C 53.81 27.69 49.02 31.21 46.48 35.62 C 44.07 40.00 46.52 45.14 49.55 48.52 C 52.95 52.71 58.73 53.69 62.35 57.62 C 66.13 61.54 69.03 66.19 72.12 70.65 C 71.79 70.97 71.13 71.62 70.80 71.94 C 69.47 70.24 68.16 68.53 66.94 66.74 C 66.39 65.81 65.81 64.89 65.20 63.99 C 63.01 61.02 60.46 58.31 57.51 56.10 C 56.35 55.81 55.18 55.55 54.01 55.33 C 53.37 54.84 52.73 54.36 52.08 53.88 C 47.06 49.49 41.77 43.06 44.16 35.92 C 44.56 35.20 44.98 34.48 45.43 33.78 Z" />
</g>
<g id="#ffe06eff">
<path fill="#ffe06e" opacity="1.00" d=" M 46.48 35.62 C 49.02 31.21 53.81 27.69 58.97 27.41 C 64.89 28.06 67.88 33.83 70.83 38.26 C 71.46 37.12 72.08 35.97 72.71 34.83 C 73.84 35.87 75.17 36.77 75.92 38.14 C 75.32 42.07 72.89 45.85 74.11 49.93 C 75.48 55.25 78.75 59.82 81.51 64.50 C 78.56 66.83 75.15 68.45 72.12 70.65 C 69.03 66.19 66.13 61.54 62.35 57.62 C 58.73 53.69 52.95 52.71 49.55 48.52 C 46.52 45.14 44.07 40.00 46.48 35.62 Z" />
</g>
<g id="#332f1fff">
<path fill="#332f1f" opacity="1.00" d=" M 29.43 29.80 C 34.81 30.96 40.07 32.57 45.43 33.78 C 44.98 34.48 44.56 35.20 44.16 35.92 C 43.08 35.60 42.01 35.28 40.94 34.97 C 39.97 34.69 38.99 34.42 38.01 34.14 C 36.65 33.76 35.28 33.42 33.91 33.09 L 32.32 32.71 C 31.31 32.44 30.30 32.13 29.30 31.81 C 29.34 31.31 29.40 30.31 29.43 29.80 Z" />
</g>
<g id="#28aae6ff">
<path fill="#28aae6" opacity="1.00" d=" M 28.62 42.67 C 29.99 39.40 30.82 35.92 32.32 32.71 L 33.91 33.09 C 32.18 37.09 31.26 41.39 29.30 45.30 C 27.90 48.26 26.41 51.18 24.64 53.94 C 23.70 55.39 22.69 56.80 21.67 58.20 C 20.66 59.55 19.60 60.88 18.51 62.18 C 17.29 63.60 15.95 64.93 14.45 66.05 L 13.88 66.47 C 13.83 66.15 13.75 65.50 13.70 65.17 C 14.04 64.73 14.70 63.87 15.04 63.43 C 20.83 57.45 25.42 50.35 28.62 42.67 Z" />
</g>
<g id="#d8e9f0ff">
<path fill="#d8e9f0" opacity="1.00" d=" M 33.91 33.09 C 35.28 33.42 36.65 33.76 38.01 34.14 C 38.79 34.93 39.17 35.88 39.16 36.97 C 39.24 41.52 38.07 45.97 36.89 50.32 C 35.94 48.35 35.72 45.46 33.38 44.59 C 31.99 44.48 30.64 45.00 29.30 45.30 C 31.26 41.39 32.18 37.09 33.91 33.09 Z" />
</g>
<g id="#2fa8d9ff">
<path fill="#2fa8d9" opacity="1.00" d=" M 38.01 34.14 C 38.99 34.42 39.97 34.69 40.94 34.97 C 41.14 39.88 40.35 44.78 38.92 49.47 C 38.87 49.67 38.75 50.05 38.69 50.24 C 38.33 51.33 37.95 52.42 37.56 53.51 C 36.85 55.44 36.09 57.36 35.32 59.27 C 35.26 59.43 35.13 59.74 35.07 59.90 C 34.40 61.63 33.70 63.36 33.00 65.09 C 32.78 65.64 32.34 66.74 32.12 67.29 C 31.33 69.30 30.75 71.39 30.32 73.50 C 29.86 73.14 28.94 72.41 28.47 72.04 C 29.03 70.74 29.54 69.42 30.03 68.10 C 30.63 66.42 31.27 64.75 31.94 63.10 C 32.64 61.40 33.35 59.70 34.04 58.00 C 35.05 55.46 36.05 52.92 36.89 50.32 C 38.07 45.97 39.24 41.52 39.16 36.97 C 39.17 35.88 38.79 34.93 38.01 34.14 Z" />
</g>
<g id="#ffe376ff">
<path fill="#ffe376" opacity="1.00" d=" M 40.94 34.97 C 42.01 35.28 43.08 35.60 44.16 35.92 C 41.77 43.06 47.06 49.49 52.08 53.88 C 47.59 52.76 43.16 51.36 38.92 49.47 C 40.35 44.78 41.14 39.88 40.94 34.97 Z" />
</g>
<g id="#a3d6ecff">
<path fill="#a3d6ec" opacity="1.00" d=" M 29.30 45.30 C 30.64 45.00 31.99 44.48 33.38 44.59 C 35.72 45.46 35.94 48.35 36.89 50.32 C 36.05 52.92 35.05 55.46 34.04 58.00 C 31.13 56.18 27.99 54.75 24.64 53.94 C 26.41 51.18 27.90 48.26 29.30 45.30 Z" />
</g>
<g id="#7d180fff">
<path fill="#7d180f" opacity="1.00" d=" M 38.92 49.47 C 43.16 51.36 47.59 52.76 52.08 53.88 C 52.73 54.36 53.37 54.84 54.01 55.33 C 48.90 53.65 43.78 51.98 38.69 50.24 C 38.75 50.05 38.87 49.67 38.92 49.47 Z" />
<path fill="#7d180f" opacity="1.00" d=" M 35.32 59.27 C 36.09 57.36 36.85 55.44 37.56 53.51 C 43.27 55.51 49.00 57.45 54.72 59.42 C 54.06 61.69 53.41 63.97 52.80 66.26 C 51.82 65.29 50.84 64.31 49.79 63.41 C 45.73 60.20 40.44 58.88 35.32 59.27 Z" />
</g>
<g id="#ffffffff">
<path fill="#ffffff" opacity="1.00" d=" M 37.56 53.51 C 37.95 52.42 38.33 51.33 38.69 50.24 C 43.78 51.98 48.90 53.65 54.01 55.33 C 54.53 55.67 55.06 56.01 55.59 56.35 C 55.37 57.12 54.94 58.65 54.72 59.42 C 49.00 57.45 43.27 55.51 37.56 53.51 Z" />
</g>
<g id="#81cae9ff">
<path fill="#81cae9" opacity="1.00" d=" M 21.67 58.20 C 22.69 56.80 23.70 55.39 24.64 53.94 C 27.99 54.75 31.13 56.18 34.04 58.00 C 33.35 59.70 32.64 61.40 31.94 63.10 C 28.62 61.26 25.19 59.63 21.67 58.20 Z" />
</g>
<g id="#32adddfe">
<path fill="#32addd" opacity="1.00" d=" M 54.01 55.33 C 55.18 55.55 56.35 55.81 57.51 56.10 C 56.38 59.52 55.30 62.96 54.42 66.46 C 53.87 68.66 53.33 70.87 52.69 73.04 C 52.15 74.89 51.56 76.73 50.98 78.57 C 49.46 79.26 47.95 79.94 46.44 80.63 C 49.19 82.31 51.96 84.05 55.08 84.95 C 58.84 85.98 62.13 88.21 65.90 89.20 C 66.67 86.35 66.35 83.46 65.24 80.75 C 64.97 77.79 64.80 74.82 64.80 71.85 C 64.85 70.15 64.86 68.45 64.92 66.76 C 64.99 66.07 65.13 64.68 65.20 63.99 C 65.81 64.89 66.39 65.81 66.94 66.74 C 66.31 71.46 66.50 76.24 66.97 80.97 C 66.73 83.90 69.24 87.42 66.74 89.83 C 64.01 91.37 61.24 89.49 59.11 87.85 C 57.08 86.12 54.31 86.20 51.81 86.03 L 51.66 85.73 C 51.54 85.46 51.31 84.92 51.19 84.65 L 50.50 85.34 C 49.32 84.09 47.91 83.14 46.20 82.87 C 45.66 82.40 44.58 81.45 44.04 80.98 C 44.70 78.76 47.16 78.85 48.90 77.99 C 49.85 76.44 50.33 74.67 50.89 72.96 C 51.53 70.73 52.15 68.49 52.80 66.26 C 53.41 63.97 54.06 61.69 54.72 59.42 C 54.94 58.65 55.37 57.12 55.59 56.35 C 55.06 56.01 54.53 55.67 54.01 55.33 Z" />
</g>
<g id="#92d0eaff">
<path fill="#92d0ea" opacity="1.00" d=" M 57.51 56.10 C 60.46 58.31 63.01 61.02 65.20 63.99 C 65.13 64.68 64.99 66.07 64.92 66.76 C 64.62 68.05 64.27 69.32 63.93 70.61 C 63.03 69.61 62.12 68.62 61.22 67.64 C 58.92 67.48 56.49 67.61 54.42 66.46 C 55.30 62.96 56.38 59.52 57.51 56.10 Z" />
</g>
<g id="#6ac2e7ff">
<path fill="#6ac2e7" opacity="1.00" d=" M 18.51 62.18 C 19.60 60.88 20.66 59.55 21.67 58.20 C 25.19 59.63 28.62 61.26 31.94 63.10 C 31.27 64.75 30.63 66.42 30.03 68.10 C 26.18 66.14 22.33 64.20 18.51 62.18 Z" />
</g>
<g id="#e36d62ff">
<path fill="#e36d62" opacity="1.00" d=" M 35.07 59.90 C 35.13 59.74 35.26 59.43 35.32 59.27 C 40.44 58.88 45.73 60.20 49.79 63.41 C 44.91 63.54 40.53 60.69 35.59 60.82 C 35.46 60.59 35.20 60.13 35.07 59.90 Z" />
</g>
<g id="#e3582fff">
<path fill="#e3582f" opacity="1.00" d=" M 35.07 59.90 C 35.20 60.13 35.46 60.59 35.59 60.82 C 36.16 62.14 37.10 63.28 38.55 63.62 C 42.02 64.84 45.49 66.08 49.00 67.17 C 50.35 67.76 51.58 66.68 52.80 66.26 C 52.15 68.49 51.53 70.73 50.89 72.96 L 50.70 72.92 C 44.65 70.70 37.04 70.99 33.00 65.09 C 33.70 63.36 34.40 61.63 35.07 59.90 Z" />
</g>
<g id="#ea6a55ff">
<path fill="#ea6a55" opacity="1.00" d=" M 35.59 60.82 C 40.53 60.69 44.91 63.54 49.79 63.41 C 50.84 64.31 51.82 65.29 52.80 66.26 C 51.58 66.68 50.35 67.76 49.00 67.17 C 45.49 66.08 42.02 64.84 38.55 63.62 C 37.10 63.28 36.16 62.14 35.59 60.82 Z" />
</g>
<g id="#53bae5ff">
<path fill="#53bae5" opacity="1.00" d=" M 14.45 66.05 C 15.95 64.93 17.29 63.60 18.51 62.18 C 22.33 64.20 26.18 66.14 30.03 68.10 C 29.54 69.42 29.03 70.74 28.47 72.04 C 28.32 72.39 28.01 73.07 27.86 73.42 C 23.54 70.70 18.93 68.48 14.45 66.05 Z" />
</g>
<g id="#2cb0dff0">
<path fill="#2cb0df" opacity="0.94" d=" M 13.64 65.03 L 13.70 65.17 C 13.75 65.50 13.83 66.15 13.88 66.47 C 12.51 67.70 11.03 69.10 10.64 70.97 C 12.14 73.98 16.17 73.13 18.94 73.53 C 16.61 73.66 14.28 73.87 11.96 74.16 C 10.60 73.21 8.70 71.95 9.08 70.02 C 9.95 67.86 12.02 66.57 13.64 65.03 Z" />
</g>
<g id="#ffca73ff">
<path fill="#ffca73" opacity="1.00" d=" M 81.51 64.50 C 81.84 64.85 82.50 65.56 82.84 65.91 C 78.87 72.08 73.71 77.81 66.97 80.97 C 66.50 76.24 66.31 71.46 66.94 66.74 C 68.16 68.53 69.47 70.24 70.80 71.94 C 71.13 71.62 71.79 70.97 72.12 70.65 C 75.15 68.45 78.56 66.83 81.51 64.50 Z" />
<path fill="#ffca73" opacity="1.00" d=" M 30.32 73.50 C 30.75 71.39 31.33 69.30 32.12 67.29 C 36.86 72.24 43.97 74.71 50.70 72.92 L 50.89 72.96 C 50.33 74.67 49.85 76.44 48.90 77.99 C 47.16 78.85 44.70 78.76 44.04 80.98 C 44.58 81.45 45.66 82.40 46.20 82.87 C 40.93 84.02 35.59 81.86 31.22 79.03 C 34.32 77.41 32.27 74.90 30.32 73.50 Z" />
</g>
<g id="#dd3b07ff">
<path fill="#dd3b07" opacity="1.00" d=" M 33.00 65.09 C 37.04 70.99 44.65 70.70 50.70 72.92 C 43.97 74.71 36.86 72.24 32.12 67.29 C 32.34 66.74 32.78 65.64 33.00 65.09 Z" />
</g>
<g id="#3cb2e4ff">
<path fill="#3cb2e4" opacity="1.00" d=" M 13.88 66.47 L 14.45 66.05 C 18.93 68.48 23.54 70.70 27.86 73.42 C 28.01 73.07 28.32 72.39 28.47 72.04 C 28.94 72.41 29.86 73.14 30.32 73.50 C 32.27 74.90 34.32 77.41 31.22 79.03 C 30.70 78.75 29.66 78.19 29.13 77.91 C 27.55 76.50 25.41 76.65 23.46 76.94 C 21.10 76.75 19.38 74.38 16.92 74.43 C 15.27 74.32 13.61 74.27 11.96 74.16 C 14.28 73.87 16.61 73.66 18.94 73.53 C 16.17 73.13 12.14 73.98 10.64 70.97 C 11.03 69.10 12.51 67.70 13.88 66.47 Z" />
</g>
<g id="#73c5e8ff">
<path fill="#73c5e8" opacity="1.00" d=" M 52.69 73.04 C 53.33 70.87 53.87 68.66 54.42 66.46 C 56.49 67.61 58.92 67.48 61.22 67.64 C 62.12 68.62 63.03 69.61 63.93 70.61 C 64.27 69.32 64.62 68.05 64.92 66.76 C 64.86 68.45 64.85 70.15 64.80 71.85 C 64.53 73.09 64.22 74.32 63.91 75.54 C 60.27 74.30 56.53 73.38 52.69 73.04 Z" />
</g>
<g id="#59bce6ff">
<path fill="#59bce6" opacity="1.00" d=" M 63.91 75.54 C 64.22 74.32 64.53 73.09 64.80 71.85 C 64.80 74.82 64.97 77.79 65.24 80.75 C 65.16 81.16 65.01 81.96 64.94 82.36 C 60.51 80.35 55.71 79.53 50.98 78.57 C 51.56 76.73 52.15 74.89 52.69 73.04 C 56.53 73.38 60.27 74.30 63.91 75.54 Z" />
</g>
<g id="#587f7dd3">
<path fill="#587f7d" opacity="0.83" d=" M 23.46 76.94 C 25.41 76.65 27.55 76.50 29.13 77.91 C 27.95 78.15 26.77 78.36 25.58 78.54 C 24.77 78.46 23.21 78.02 23.46 76.94 Z" />
</g>
<g id="#ffac50ff">
<path fill="#ffac50" opacity="1.00" d=" M 25.58 78.54 C 26.77 78.36 27.95 78.15 29.13 77.91 C 29.66 78.19 30.70 78.75 31.22 79.03 C 35.59 81.86 40.93 84.02 46.20 82.87 C 47.91 83.14 49.32 84.09 50.50 85.34 L 51.19 84.65 C 51.31 84.92 51.54 85.46 51.66 85.73 C 42.48 86.41 33.08 83.91 25.58 78.54 Z" />
</g>
<g id="#3fb3e4ff">
<path fill="#3fb3e4" opacity="1.00" d=" M 46.44 80.63 C 47.95 79.94 49.46 79.26 50.98 78.57 C 55.71 79.53 60.51 80.35 64.94 82.36 C 65.01 81.96 65.16 81.16 65.24 80.75 C 66.35 83.46 66.67 86.35 65.90 89.20 C 62.13 88.21 58.84 85.98 55.08 84.95 C 51.96 84.05 49.19 82.31 46.44 80.63 Z" />
</g>
</svg>
