<?xml version="1.0" encoding="UTF-8" ?>
<!DOCTYPE svg PUBLIC "-//W3C//DTD SVG 1.1//EN" "http://www.w3.org/Graphics/SVG/1.1/DTD/svg11.dtd">
<svg width="96pt" height="96pt" viewBox="0 0 96 96" version="1.1" xmlns="http://www.w3.org/2000/svg">
<g id="#eea24eff">
<path fill="#eea24e" opacity="1.00" d=" M 30.01 10.43 C 41.58 4.51 55.90 4.78 67.51 10.49 C 66.89 10.91 66.29 11.35 65.71 11.81 C 59.73 9.60 53.43 8.03 47.01 8.41 C 41.76 8.35 36.83 10.25 31.78 11.37 C 31.34 11.13 30.45 10.66 30.01 10.43 Z" />
</g>
<g id="#fded78ff">
<path fill="#fded78" opacity="1.00" d=" M 31.78 11.37 C 36.83 10.25 41.76 8.35 47.01 8.41 C 53.43 8.03 59.73 9.60 65.71 11.81 C 65.07 12.41 63.78 13.61 63.14 14.21 C 64.14 15.06 65.01 17.03 66.51 15.70 C 67.50 15.10 68.41 14.39 69.30 13.66 C 77.04 18.99 83.68 26.31 86.64 35.37 C 89.70 43.91 89.44 53.52 86.26 61.98 C 84.96 60.85 83.35 60.05 81.64 60.76 C 75.11 62.70 68.15 62.86 61.55 61.15 C 61.95 62.48 62.24 63.85 62.56 65.21 C 62.00 65.41 60.89 65.82 60.33 66.03 C 61.35 64.50 60.75 63.37 59.30 62.56 C 57.95 65.37 55.94 67.79 53.11 69.19 C 54.68 65.99 56.03 62.20 54.12 58.82 C 50.85 52.38 42.61 46.78 35.43 50.61 C 35.84 49.15 36.79 47.97 37.81 46.87 C 35.67 42.93 33.72 38.86 32.46 34.54 C 31.07 34.47 29.68 34.47 28.29 34.39 C 28.75 30.56 33.77 29.12 36.47 31.58 C 37.34 32.07 38.97 33.91 39.55 31.96 C 37.40 26.74 29.35 26.96 26.53 31.44 C 26.47 30.90 26.36 29.81 26.30 29.27 C 27.87 28.13 29.45 27.00 31.03 25.88 C 31.22 23.64 31.64 21.38 31.39 19.12 C 30.68 16.93 29.05 15.18 27.75 13.32 C 30.03 14.10 32.65 18.64 34.94 15.86 C 35.42 13.74 32.98 12.68 31.78 11.37 M 57.62 32.13 L 59.11 32.40 C 61.35 29.74 65.55 29.50 68.17 31.75 C 68.33 32.41 68.65 33.72 68.81 34.38 C 70.92 34.57 71.00 31.34 69.83 30.26 C 66.71 26.35 59.07 26.93 57.62 32.13 Z" />
</g>
<g id="#a74310ff">
<path fill="#a74310" opacity="1.00" d=" M 67.51 10.49 C 69.78 8.82 73.31 8.28 75.41 10.49 C 77.19 12.43 78.80 15.23 77.68 17.90 C 76.78 17.65 75.87 17.43 74.95 17.23 C 74.81 16.60 74.51 15.34 74.37 14.71 C 74.34 13.12 72.50 10.73 70.92 12.28 C 70.52 12.62 69.70 13.31 69.30 13.66 C 68.41 14.39 67.50 15.10 66.51 15.70 C 65.01 17.03 64.14 15.06 63.14 14.21 C 63.78 13.61 65.07 12.41 65.71 11.81 C 66.29 11.35 66.89 10.91 67.51 10.49 Z" />
</g>
<g id="#a4400fff">
<path fill="#a4400f" opacity="1.00" d=" M 23.70 10.66 C 25.47 9.21 28.10 9.29 30.01 10.43 C 30.45 10.66 31.34 11.13 31.78 11.37 C 32.98 12.68 35.42 13.74 34.94 15.86 C 32.65 18.64 30.03 14.10 27.75 13.32 C 25.54 12.84 25.04 15.40 23.98 16.71 C 23.58 17.11 22.79 17.89 22.39 18.28 C 21.61 17.85 20.83 17.41 20.06 16.96 C 21.04 14.76 21.75 12.25 23.70 10.66 Z" />
</g>
<g id="#000007ff">
<path fill="#000007" opacity="1.00" d=" M 70.92 12.28 C 72.50 10.73 74.34 13.12 74.37 14.71 C 72.96 14.36 71.72 13.50 70.92 12.28 Z" />
<path fill="#000007" opacity="1.00" d=" M 26.53 31.44 C 29.35 26.96 37.40 26.74 39.55 31.96 C 38.97 33.91 37.34 32.07 36.47 31.58 C 33.77 29.12 28.75 30.56 28.29 34.39 C 26.76 34.24 26.65 32.70 26.53 31.44 Z" />
<path fill="#000007" opacity="1.00" d=" M 57.62 32.13 C 59.07 26.93 66.71 26.35 69.83 30.26 C 71.00 31.34 70.92 34.57 68.81 34.38 C 68.65 33.72 68.33 32.41 68.17 31.75 C 65.55 29.50 61.35 29.74 59.11 32.40 L 57.62 32.13 Z" />
</g>
<g id="#eea84fff">
<path fill="#eea84f" opacity="1.00" d=" M 69.30 13.66 C 69.70 13.31 70.52 12.62 70.92 12.28 C 71.72 13.50 72.96 14.36 74.37 14.71 C 74.51 15.34 74.81 16.60 74.95 17.23 C 75.87 17.43 76.78 17.65 77.68 17.90 C 90.11 28.27 93.97 46.89 88.72 61.95 C 84.37 74.39 73.83 84.46 61.21 88.25 C 51.69 91.14 41.13 90.70 31.96 86.78 C 32.45 86.10 32.96 85.44 33.49 84.79 C 40.21 87.98 47.90 88.39 55.18 87.38 C 69.02 85.14 81.51 75.27 86.26 61.98 C 89.44 53.52 89.70 43.91 86.64 35.37 C 83.68 26.31 77.04 18.99 69.30 13.66 Z" />
<path fill="#eea84f" opacity="1.00" d=" M 20.06 16.96 C 20.83 17.41 21.61 17.85 22.39 18.28 C 4.40 31.95 3.61 62.08 20.85 76.69 C 20.45 77.40 20.03 78.11 19.61 78.82 C 9.72 69.92 4.61 56.05 6.43 42.88 C 7.59 32.95 12.62 23.60 20.06 16.96 Z" />
</g>
<g id="#fed775ff">
<path fill="#fed775" opacity="1.00" d=" M 23.98 16.71 C 25.04 15.40 25.54 12.84 27.75 13.32 C 29.05 15.18 30.68 16.93 31.39 19.12 C 31.64 21.38 31.22 23.64 31.03 25.88 C 29.45 27.00 27.87 28.13 26.30 29.27 C 26.36 29.81 26.47 30.90 26.53 31.44 C 26.65 32.70 26.76 34.24 28.29 34.39 C 29.68 34.47 31.07 34.47 32.46 34.54 C 33.72 38.86 35.67 42.93 37.81 46.87 C 36.79 47.97 35.84 49.15 35.43 50.61 C 33.39 52.48 31.36 54.36 29.58 56.47 C 27.46 56.24 25.35 56.49 23.36 57.27 C 24.04 55.75 25.38 54.70 26.55 53.58 C 21.35 46.52 21.40 37.41 22.13 29.07 C 22.58 24.92 25.47 20.95 23.98 16.71 Z" />
</g>
<g id="#ffca73ff">
<path fill="#ffca73" opacity="1.00" d=" M 22.39 18.28 C 22.79 17.89 23.58 17.11 23.98 16.71 C 25.47 20.95 22.58 24.92 22.13 29.07 C 21.40 37.41 21.35 46.52 26.55 53.58 C 25.38 54.70 24.04 55.75 23.36 57.27 C 21.99 60.09 22.27 63.18 23.24 66.07 C 24.57 69.80 22.64 73.50 20.85 76.69 C 3.61 62.08 4.40 31.95 22.39 18.28 Z" />
</g>
<g id="#ff9400ff">
<path fill="#ff9400" opacity="1.00" d=" M 35.43 50.61 C 42.61 46.78 50.85 52.38 54.12 58.82 C 56.03 62.20 54.68 65.99 53.11 69.19 C 52.23 70.32 51.39 71.47 50.54 72.62 C 45.36 77.44 37.64 78.70 33.49 84.79 C 32.96 85.44 32.45 86.10 31.96 86.78 C 31.07 88.19 28.33 92.60 27.71 88.91 C 31.93 84.18 35.48 78.30 41.70 75.95 C 46.74 74.04 51.13 70.10 52.82 64.89 C 54.13 61.42 51.77 57.94 49.46 55.53 C 46.54 52.87 42.51 50.15 38.39 51.55 C 33.94 53.03 31.45 57.28 28.91 60.89 C 28.53 60.09 27.77 58.48 27.39 57.68 C 26.05 58.47 24.03 59.11 24.08 61.01 C 24.35 64.22 26.12 67.30 25.39 70.56 C 24.34 75.33 21.36 79.32 18.84 83.40 L 18.12 84.45 C 15.41 82.88 18.84 80.53 19.61 78.82 C 20.03 78.11 20.45 77.40 20.85 76.69 C 22.64 73.50 24.57 69.80 23.24 66.07 C 22.27 63.18 21.99 60.09 23.36 57.27 C 25.35 56.49 27.46 56.24 29.58 56.47 C 31.36 54.36 33.39 52.48 35.43 50.61 Z" />
</g>
<g id="#ffe06eff">
<path fill="#ffe06e" opacity="1.00" d=" M 38.39 51.55 C 42.51 50.15 46.54 52.87 49.46 55.53 C 51.77 57.94 54.13 61.42 52.82 64.89 C 51.13 70.10 46.74 74.04 41.70 75.95 C 35.48 78.30 31.93 84.18 27.71 88.91 C 24.72 87.13 21.76 85.30 18.84 83.40 C 21.36 79.32 24.34 75.33 25.39 70.56 C 26.12 67.30 24.35 64.22 24.08 61.01 C 24.03 59.11 26.05 58.47 27.39 57.68 C 27.77 58.48 28.53 60.09 28.91 60.89 C 31.45 57.28 33.94 53.03 38.39 51.55 Z" />
</g>
<g id="#ffce74ff">
<path fill="#ffce74" opacity="1.00" d=" M 81.64 60.76 C 83.35 60.05 84.96 60.85 86.26 61.98 C 81.51 75.27 69.02 85.14 55.18 87.38 C 47.90 88.39 40.21 87.98 33.49 84.79 C 37.64 78.70 45.36 77.44 50.54 72.62 C 54.39 71.41 57.89 69.30 60.33 66.03 C 60.89 65.82 62.00 65.41 62.56 65.21 C 62.24 63.85 61.95 62.48 61.55 61.15 C 68.15 62.86 75.11 62.70 81.64 60.76 Z" />
</g>
<g id="#7d2917ff">
<path fill="#7d2917" opacity="1.00" d=" M 59.30 62.56 C 60.75 63.37 61.35 64.50 60.33 66.03 C 57.89 69.30 54.39 71.41 50.54 72.62 C 51.39 71.47 52.23 70.32 53.11 69.19 C 55.94 67.79 57.95 65.37 59.30 62.56 Z" />
</g>
</svg>
