<?xml version="1.0" encoding="UTF-8" ?>
<!DOCTYPE svg PUBLIC "-//W3C//DTD SVG 1.1//EN" "http://www.w3.org/Graphics/SVG/1.1/DTD/svg11.dtd">
<svg width="96pt" height="96pt" viewBox="0 0 96 96" version="1.1" xmlns="http://www.w3.org/2000/svg">
<g id="#eea251ff">
<path fill="#eea251" opacity="1.00" d=" M 36.92 6.08 C 44.67 3.36 53.34 3.37 61.07 6.13 C 74.72 10.26 85.56 22.18 88.59 36.09 C 90.88 45.55 89.28 55.70 84.86 64.31 C 84.65 64.64 84.23 65.30 84.01 65.63 C 79.80 72.64 73.52 78.25 66.22 81.90 C 58.80 85.84 50.10 86.34 41.91 85.31 L 41.44 84.82 C 41.16 84.49 40.60 83.84 40.33 83.52 C 47.10 83.17 54.08 83.79 60.64 81.70 C 71.34 78.22 80.41 69.89 84.40 59.31 C 85.49 56.14 86.14 52.84 86.77 49.55 C 82.21 50.73 77.18 52.41 72.62 50.31 C 70.39 49.43 67.92 46.49 70.49 44.51 C 75.35 40.86 81.78 42.79 87.23 43.70 C 86.59 35.06 83.72 26.45 77.66 20.09 C 76.94 19.29 76.21 18.51 75.46 17.74 C 65.03 6.40 47.49 4.06 33.56 9.75 C 20.67 15.79 9.88 29.39 11.36 44.18 C 11.54 46.03 11.74 47.87 11.88 49.71 C 11.15 55.26 13.75 60.36 15.81 65.33 C 15.22 65.26 14.03 65.12 13.43 65.05 C 8.07 55.35 6.76 43.51 10.12 32.92 C 13.95 20.32 24.28 9.86 36.92 6.08 Z" />
</g>
<g id="#fded78ff">
<path fill="#fded78" opacity="1.00" d=" M 33.56 9.75 C 47.49 4.06 65.03 6.40 75.46 17.74 C 73.32 18.38 71.05 20.29 68.76 19.17 C 66.78 18.23 64.71 17.50 62.50 17.44 C 63.86 19.86 64.95 23.55 68.23 23.80 C 71.87 24.53 74.99 22.21 77.66 20.09 C 83.72 26.45 86.59 35.06 87.23 43.70 C 81.78 42.79 75.35 40.86 70.49 44.51 C 67.92 46.49 70.39 49.43 72.62 50.31 C 77.18 52.41 82.21 50.73 86.77 49.55 C 86.14 52.84 85.49 56.14 84.40 59.31 C 76.37 62.12 67.94 63.41 59.48 64.06 C 59.95 63.22 60.41 62.36 60.85 61.50 C 61.50 60.17 62.14 58.83 62.77 57.50 C 56.96 56.51 51.06 56.67 45.19 56.79 C 40.80 52.07 35.84 47.78 32.40 42.25 C 32.46 41.90 32.58 41.19 32.63 40.84 C 35.44 41.09 38.27 40.80 40.81 39.53 C 40.43 37.26 41.21 34.32 39.18 32.68 C 37.12 30.55 33.27 31.30 31.84 33.78 C 31.31 35.51 31.20 37.34 30.88 39.12 C 30.50 39.31 29.74 39.71 29.36 39.90 C 29.68 34.20 29.67 28.47 28.69 22.83 C 31.26 23.64 33.87 24.95 36.64 24.55 C 39.64 23.83 41.73 20.81 41.38 17.73 C 38.00 18.43 34.82 21.57 31.34 19.31 C 31.80 16.06 32.56 12.87 33.56 9.75 M 64.28 34.35 C 64.11 35.94 64.20 37.54 64.21 39.14 C 65.74 39.92 67.20 41.06 68.96 41.22 C 70.58 40.81 72.05 39.99 73.52 39.22 C 73.29 37.07 74.27 34.31 72.28 32.77 C 70.10 30.36 65.24 31.09 64.28 34.35 Z" />
</g>
<g id="#ffcc73ff">
<path fill="#ffcc73" opacity="1.00" d=" M 11.36 44.18 C 9.88 29.39 20.67 15.79 33.56 9.75 C 32.56 12.87 31.80 16.06 31.34 19.31 C 30.30 18.93 29.26 18.54 28.22 18.15 C 28.34 19.71 28.49 21.27 28.69 22.83 C 29.67 28.47 29.68 34.20 29.36 39.90 C 29.74 39.71 30.50 39.31 30.88 39.12 C 31.37 39.29 32.36 39.64 32.86 39.81 L 32.63 40.84 C 32.58 41.19 32.46 41.90 32.40 42.25 C 35.84 47.78 40.80 52.07 45.19 56.79 C 45.65 58.55 46.17 60.31 46.87 61.99 C 47.67 63.62 48.56 65.20 49.52 66.73 C 50.70 68.60 52.12 70.34 53.90 71.66 C 55.44 70.22 56.72 68.52 57.87 66.75 C 58.44 65.87 58.97 64.97 59.48 64.06 C 67.94 63.41 76.37 62.12 84.40 59.31 C 80.41 69.89 71.34 78.22 60.64 81.70 C 54.08 83.79 47.10 83.17 40.33 83.52 C 33.66 75.72 24.91 69.90 15.81 65.33 C 13.75 60.36 11.15 55.26 11.88 49.71 C 15.50 50.44 19.21 51.50 22.94 50.91 C 25.80 50.52 27.62 48.04 29.56 46.17 C 26.80 44.58 24.04 42.58 20.76 42.37 C 17.53 42.24 14.43 43.34 11.36 44.18 Z" />
</g>
<g id="#a13709ff">
<path fill="#a13709" opacity="1.00" d=" M 62.50 17.44 C 64.71 17.50 66.78 18.23 68.76 19.17 C 71.05 20.29 73.32 18.38 75.46 17.74 C 76.21 18.51 76.94 19.29 77.66 20.09 C 74.99 22.21 71.87 24.53 68.23 23.80 C 64.95 23.55 63.86 19.86 62.50 17.44 Z" />
</g>
<g id="#a03709ff">
<path fill="#a03709" opacity="1.00" d=" M 28.22 18.15 C 29.26 18.54 30.30 18.93 31.34 19.31 C 34.82 21.57 38.00 18.43 41.38 17.73 C 41.73 20.81 39.64 23.83 36.64 24.55 C 33.87 24.95 31.26 23.64 28.69 22.83 C 28.49 21.27 28.34 19.71 28.22 18.15 Z" />
</g>
<g id="#1b1b1dff">
<path fill="#1b1b1d" opacity="1.00" d=" M 64.28 34.35 C 65.24 31.09 70.10 30.36 72.28 32.77 C 74.27 34.31 73.29 37.07 73.52 39.22 C 70.52 37.65 67.22 37.46 64.21 39.14 C 64.20 37.54 64.11 35.94 64.28 34.35 Z" />
</g>
<g id="#1a1b1cff">
<path fill="#1a1b1c" opacity="1.00" d=" M 31.84 33.78 C 33.27 31.30 37.12 30.55 39.18 32.68 C 41.21 34.32 40.43 37.26 40.81 39.53 C 38.12 38.61 34.75 36.53 32.86 39.81 C 32.36 39.64 31.37 39.29 30.88 39.12 C 31.20 37.34 31.31 35.51 31.84 33.78 Z" />
</g>
<g id="#7d7e82ff">
<path fill="#7d7e82" opacity="1.00" d=" M 64.21 39.14 C 67.22 37.46 70.52 37.65 73.52 39.22 C 72.05 39.99 70.58 40.81 68.96 41.22 C 67.20 41.06 65.74 39.92 64.21 39.14 Z" />
</g>
<g id="#7a7974ff">
<path fill="#7a7974" opacity="1.00" d=" M 32.86 39.81 C 34.75 36.53 38.12 38.61 40.81 39.53 C 38.27 40.80 35.44 41.09 32.63 40.84 L 32.86 39.81 Z" />
</g>
<g id="#ef8c46ff">
<path fill="#ef8c46" opacity="1.00" d=" M 11.36 44.18 C 14.43 43.34 17.53 42.24 20.76 42.37 C 24.04 42.58 26.80 44.58 29.56 46.17 C 27.62 48.04 25.80 50.52 22.94 50.91 C 19.21 51.50 15.50 50.44 11.88 49.71 C 11.74 47.87 11.54 46.03 11.36 44.18 Z" />
</g>
<g id="#760f09ff">
<path fill="#760f09" opacity="1.00" d=" M 46.87 61.99 C 46.17 60.31 45.65 58.55 45.19 56.79 C 51.06 56.67 56.96 56.51 62.77 57.50 C 62.14 58.83 61.50 60.17 60.85 61.50 C 56.19 60.82 51.45 60.72 46.87 61.99 Z" />
</g>
<g id="#ea6b55ff">
<path fill="#ea6b55" opacity="1.00" d=" M 46.87 61.99 C 51.45 60.72 56.19 60.82 60.85 61.50 C 60.41 62.36 59.95 63.22 59.48 64.06 C 58.97 64.97 58.44 65.87 57.87 66.75 C 55.22 65.35 52.26 66.02 49.52 66.73 C 48.56 65.20 47.67 63.62 46.87 61.99 Z" />
</g>
<g id="#f99707fa">
<path fill="#f99707" opacity="0.98" d=" M 10.44 66.49 C 11.20 65.52 12.20 65.04 13.43 65.05 C 14.03 65.12 15.22 65.26 15.81 65.33 C 24.91 69.90 33.66 75.72 40.33 83.52 C 40.60 83.84 41.16 84.49 41.44 84.82 C 41.00 84.80 40.12 84.76 39.68 84.74 C 31.93 78.58 24.75 71.19 15.31 67.63 C 13.14 66.57 11.23 68.34 9.64 69.61 C 7.50 71.50 5.29 73.63 4.50 76.46 C 3.78 79.45 6.22 82.30 9.01 83.03 C 13.66 84.27 18.60 83.74 23.25 84.98 C 26.47 85.92 29.01 88.24 31.37 90.52 L 32.01 91.16 C 31.51 91.17 30.49 91.21 29.98 91.23 C 26.87 89.23 24.06 86.59 20.34 85.73 C 15.84 85.11 11.25 85.23 6.77 84.38 C 5.09 83.28 3.79 81.73 2.50 80.22 C 2.87 77.77 3.21 75.32 3.79 72.92 C 5.75 70.51 8.36 68.77 10.44 66.49 Z" />
<path fill="#f99707" opacity="0.98" d=" M 84.01 65.63 C 84.23 65.30 84.65 64.64 84.86 64.31 C 87.76 64.02 91.21 64.39 92.97 67.03 C 95.51 69.62 95.50 74.31 92.81 76.80 C 88.81 81.11 82.23 80.43 77.43 83.42 C 74.78 84.37 72.15 88.40 69.39 85.62 C 73.57 83.28 77.81 80.98 82.41 79.57 C 85.30 78.53 88.46 77.88 90.92 75.93 C 93.03 73.80 92.81 70.16 91.31 67.75 C 89.12 66.38 86.48 66.17 84.01 65.63 Z" />
</g>
<g id="#e15327ff">
<path fill="#e15327" opacity="1.00" d=" M 49.52 66.73 C 52.26 66.02 55.22 65.35 57.87 66.75 C 56.72 68.52 55.44 70.22 53.90 71.66 C 52.12 70.34 50.70 68.60 49.52 66.73 Z" />
</g>
<g id="#ffe06eff">
<path fill="#ffe06e" opacity="1.00" d=" M 84.01 65.63 C 86.48 66.17 89.12 66.38 91.31 67.75 C 92.81 70.16 93.03 73.80 90.92 75.93 C 88.46 77.88 85.30 78.53 82.41 79.57 C 77.81 80.98 73.57 83.28 69.39 85.62 C 68.39 84.34 67.33 83.10 66.22 81.90 C 73.52 78.25 79.80 72.64 84.01 65.63 Z" />
<path fill="#ffe06e" opacity="1.00" d=" M 9.64 69.61 C 11.23 68.34 13.14 66.57 15.31 67.63 C 24.75 71.19 31.93 78.58 39.68 84.74 C 37.08 86.90 34.24 88.74 31.37 90.52 C 29.01 88.24 26.47 85.92 23.25 84.98 C 18.60 83.74 13.66 84.27 9.01 83.03 C 6.22 82.30 3.78 79.45 4.50 76.46 C 5.29 73.63 7.50 71.50 9.64 69.61 Z" />
</g>
<g id="#402a056c">
<path fill="#402a05" opacity="0.42" d=" M 2.50 80.22 C 2.01 77.66 2.31 75.09 3.79 72.92 C 3.21 75.32 2.87 77.77 2.50 80.22 Z" />
</g>
<g id="#67450390">
<path fill="#674503" opacity="0.56" d=" M 6.77 84.38 C 11.25 85.23 15.84 85.11 20.34 85.73 C 15.81 85.54 10.94 86.74 6.77 84.38 Z" />
</g>
</svg>
