<?xml version="1.0" encoding="UTF-8" ?>
<!DOCTYPE svg PUBLIC "-//W3C//DTD SVG 1.1//EN" "http://www.w3.org/Graphics/SVG/1.1/DTD/svg11.dtd">
<svg width="96pt" height="96pt" viewBox="0 0 96 96" version="1.1" xmlns="http://www.w3.org/2000/svg">
<path fill="#f19f58" opacity="1.00" d=" M 28.38 10.07 C 40.25 3.48 55.74 3.34 67.61 10.02 C 66.49 10.47 65.38 10.94 64.26 11.40 C 54.55 5.64 41.21 5.53 31.59 11.53 C 30.52 11.04 29.45 10.55 28.38 10.07 Z" />
<path fill="#fdea78" opacity="1.00" d=" M 31.59 11.53 C 41.21 5.53 54.55 5.64 64.26 11.40 C 62.28 13.23 59.84 15.13 59.98 18.15 C 63.09 16.90 65.77 14.78 68.90 13.58 C 71.17 15.59 72.32 19.37 75.86 19.38 C 84.69 25.24 88.04 36.51 89.15 46.53 C 82.96 45.40 75.92 43.79 70.19 47.27 C 67.88 49.31 70.47 52.34 72.41 53.52 C 77.43 56.20 83.18 54.16 88.43 53.43 C 88.23 57.22 87.06 60.89 85.32 64.25 C 78.75 66.99 71.72 68.25 64.89 70.15 C 66.43 66.73 67.80 63.13 67.90 59.33 L 67.90 57.92 C 67.70 54.88 64.23 55.37 62.04 55.19 C 53.91 55.16 45.78 55.57 37.66 54.85 C 38.98 54.13 40.28 53.39 41.49 52.50 C 39.23 47.83 35.16 44.08 33.83 38.96 C 34.48 37.08 35.65 35.45 36.73 33.80 C 36.99 33.37 37.53 32.53 37.80 32.10 C 35.04 30.00 31.90 28.50 28.91 26.78 C 29.85 24.23 32.93 20.49 29.09 18.81 C 27.18 17.92 29.64 16.47 30.08 15.36 C 31.92 16.64 33.90 17.75 36.15 18.06 C 35.66 15.29 33.56 13.34 31.59 11.53 M 69.41 26.37 C 65.70 27.90 62.07 29.74 58.86 32.17 C 61.46 35.78 66.41 37.04 70.27 39.09 C 70.83 35.19 65.39 34.67 63.07 32.49 C 66.10 29.75 71.29 29.62 73.19 25.75 C 71.88 25.70 70.62 25.90 69.41 26.37 Z" />
<path fill="#a43e0e" opacity="1.00" d=" M 20.48 15.50 C 22.04 12.58 24.89 10.04 28.38 10.07 C 29.45 10.55 30.52 11.04 31.59 11.53 C 33.56 13.34 35.66 15.29 36.15 18.06 C 33.90 17.75 31.92 16.64 30.08 15.36 C 28.93 14.76 27.73 13.48 26.33 14.02 C 24.19 16.01 23.33 20.34 19.57 19.17 C 19.87 17.94 20.16 16.72 20.48 15.50 Z" />
<path fill="#a43e0e" opacity="1.00" d=" M 67.61 10.02 C 70.73 10.13 73.33 12.32 74.95 14.84 C 75.27 16.35 75.55 17.87 75.86 19.38 C 72.32 19.37 71.17 15.59 68.90 13.58 C 65.77 14.78 63.09 16.90 59.98 18.15 C 59.84 15.13 62.28 13.23 64.26 11.40 C 65.38 10.94 66.49 10.47 67.61 10.02 Z" />
<path fill="#ffce74" opacity="1.00" d=" M 26.33 14.02 C 27.73 13.48 28.93 14.76 30.08 15.36 C 29.64 16.47 27.18 17.92 29.09 18.81 C 32.93 20.49 29.85 24.23 28.91 26.78 C 27.12 26.39 25.32 26.09 23.50 25.89 C 26.09 29.23 30.39 30.23 33.81 32.44 C 31.06 34.48 27.02 35.45 25.83 39.03 C 29.71 37.88 33.26 35.86 36.73 33.80 C 35.65 35.45 34.48 37.08 33.83 38.96 C 35.16 44.08 39.23 47.83 41.49 52.50 C 40.28 53.39 38.98 54.13 37.66 54.85 C 34.99 54.91 31.97 54.30 29.70 56.08 C 29.39 56.39 28.77 57.01 28.46 57.32 C 28.00 61.98 29.30 66.71 32.07 70.49 C 33.06 71.68 34.26 72.68 35.56 73.52 C 42.65 79.27 53.37 79.40 60.39 73.46 C 61.33 72.84 62.22 72.15 63.11 71.47 C 63.56 71.14 64.44 70.48 64.89 70.15 C 71.72 68.25 78.75 66.99 85.32 64.25 C 77.98 82.26 56.29 93.04 37.58 87.40 C 22.08 83.55 9.60 69.53 7.83 53.62 C 14.02 55.44 21.82 56.83 26.76 51.56 C 28.35 48.28 24.56 45.86 21.90 45.01 C 17.22 42.93 12.30 45.01 7.61 45.86 C 7.67 35.78 12.36 26.09 19.57 19.17 C 23.33 20.34 24.19 16.01 26.33 14.02 Z" />
<path fill="#f19f58" opacity="1.00" d=" M 74.95 14.84 C 85.49 22.61 91.41 36.02 90.92 49.02 C 91.01 65.38 80.39 81.01 65.42 87.41 C 57.83 90.95 49.21 91.57 40.99 90.49 C 26.37 88.20 13.44 77.68 8.09 63.90 C 1.37 47.39 6.15 26.45 20.48 15.50 C 20.16 16.72 19.87 17.94 19.57 19.17 C 12.36 26.09 7.67 35.78 7.61 45.86 C 12.30 45.01 17.22 42.93 21.90 45.01 C 24.56 45.86 28.35 48.28 26.76 51.56 C 21.82 56.83 14.02 55.44 7.83 53.62 C 9.60 69.53 22.08 83.55 37.58 87.40 C 56.29 93.04 77.98 82.26 85.32 64.25 C 87.06 60.89 88.23 57.22 88.43 53.43 C 83.18 54.16 77.43 56.20 72.41 53.52 C 70.47 52.34 67.88 49.31 70.19 47.27 C 75.92 43.79 82.96 45.40 89.15 46.53 C 88.04 36.51 84.69 25.24 75.86 19.38 C 75.55 17.87 75.27 16.35 74.95 14.84 M 14.28 46.11 C 12.28 46.77 10.73 48.30 9.57 50.01 C 12.30 55.41 22.04 55.28 23.44 49.02 C 21.08 46.80 17.55 44.91 14.28 46.11 M 76.30 47.14 C 75.26 47.54 74.38 48.17 73.66 49.03 C 74.39 54.97 84.94 54.89 85.80 49.15 C 83.72 46.07 79.48 46.16 76.30 47.14 Z" />
<path fill="#232221" opacity="1.00" d=" M 23.50 25.89 C 25.32 26.09 27.12 26.39 28.91 26.78 C 31.90 28.50 35.04 30.00 37.80 32.10 C 37.53 32.53 36.99 33.37 36.73 33.80 C 33.26 35.86 29.71 37.88 25.83 39.03 C 27.02 35.45 31.06 34.48 33.81 32.44 C 30.39 30.23 26.09 29.23 23.50 25.89 Z" />
<path fill="#232221" opacity="1.00" d=" M 69.41 26.37 C 70.62 25.90 71.88 25.70 73.19 25.75 C 71.29 29.62 66.10 29.75 63.07 32.49 C 65.39 34.67 70.83 35.19 70.27 39.09 C 66.41 37.04 61.46 35.78 58.86 32.17 C 62.07 29.74 65.70 27.90 69.41 26.37 Z" />
<path fill="#ed903e" opacity="1.00" d=" M 14.28 46.11 C 17.55 44.91 21.08 46.80 23.44 49.02 C 22.04 55.28 12.30 55.41 9.57 50.01 C 10.73 48.30 12.28 46.77 14.28 46.11 Z" />
<path fill="#ed903e" opacity="1.00" d=" M 76.30 47.14 C 79.48 46.16 83.72 46.07 85.80 49.15 C 84.94 54.89 74.39 54.97 73.66 49.03 C 74.38 48.17 75.26 47.54 76.30 47.14 Z" />
<path fill="#ae7f44" opacity="0.87" d=" M 29.70 56.08 C 31.97 54.30 34.99 54.91 37.66 54.85 C 45.78 55.57 53.91 55.16 62.04 55.19 C 64.23 55.37 67.70 54.88 67.90 57.92 C 65.82 56.68 63.47 55.98 61.04 56.11 C 50.59 56.19 40.14 56.35 29.70 56.08 Z" />
<path fill="#f7f1f2" opacity="1.00" d=" M 29.70 56.08 C 40.14 56.35 50.59 56.19 61.04 56.11 C 63.47 55.98 65.82 56.68 67.90 57.92 L 67.90 59.33 C 61.01 60.65 53.97 59.78 47.00 59.95 C 41.20 59.81 35.35 60.46 29.58 59.71 C 29.30 59.11 28.74 57.91 28.46 57.32 C 28.77 57.01 29.39 56.39 29.70 56.08 Z" />
<path fill="#7d180f" opacity="1.00" d=" M 32.07 70.49 C 29.30 66.71 28.00 61.98 28.46 57.32 C 28.74 57.91 29.30 59.11 29.58 59.71 C 35.35 60.46 41.20 59.81 47.00 59.95 C 53.97 59.78 61.01 60.65 67.90 59.33 C 67.80 63.13 66.43 66.73 64.89 70.15 C 64.44 70.48 63.56 71.14 63.11 71.47 C 61.90 70.42 60.72 69.34 59.46 68.35 C 52.94 62.12 42.19 62.57 35.62 68.48 C 34.44 69.15 33.25 69.82 32.07 70.49 Z" />
<path fill="#e96850" opacity="1.00" d=" M 35.62 68.48 C 42.19 62.57 52.94 62.12 59.46 68.35 C 51.59 69.78 43.51 69.57 35.62 68.48 Z" />
<path fill="#e45c38" opacity="1.00" d=" M 32.07 70.49 C 33.25 69.82 34.44 69.15 35.62 68.48 C 43.51 69.57 51.59 69.78 59.46 68.35 C 60.72 69.34 61.90 70.42 63.11 71.47 C 62.22 72.15 61.33 72.84 60.39 73.46 C 52.12 73.24 43.83 73.13 35.56 73.52 C 34.26 72.68 33.06 71.68 32.07 70.49 Z" />
<path fill="#e0501f" opacity="1.00" d=" M 35.56 73.52 C 43.83 73.13 52.12 73.24 60.39 73.46 C 53.37 79.40 42.65 79.27 35.56 73.52 Z" />
</svg>
