<?xml version="1.0" encoding="UTF-8" ?>
<!DOCTYPE svg PUBLIC "-//W3C//DTD SVG 1.1//EN" "http://www.w3.org/Graphics/SVG/1.1/DTD/svg11.dtd">
<svg width="96pt" height="96pt" viewBox="0 0 96 96" version="1.1" xmlns="http://www.w3.org/2000/svg">
<g id="#eea34eff">
<path fill="#eea34e" opacity="1.00" d=" M 17.53 19.25 C 24.65 10.55 35.83 5.60 46.97 5.11 C 58.69 4.70 70.70 9.35 78.60 18.11 C 77.68 18.39 76.76 18.66 75.83 18.92 C 64.51 6.27 43.94 3.98 29.48 12.49 C 26.03 14.38 23.22 17.15 19.99 19.36 C 19.38 19.33 18.15 19.27 17.53 19.25 Z" />
</g>
<g id="#fded78ff">
<path fill="#fded78" opacity="1.00" d=" M 29.48 12.49 C 43.94 3.98 64.51 6.27 75.83 18.92 C 70.48 20.86 65.98 16.74 62.93 12.90 C 62.25 13.65 60.00 14.55 61.19 15.79 C 64.73 22.02 72.83 24.58 79.33 21.52 C 84.30 29.30 88.94 38.07 88.21 47.60 C 84.23 43.12 78.76 40.40 74.54 36.19 C 72.15 30.61 63.14 29.78 60.24 35.26 C 59.09 36.57 60.95 37.57 61.71 38.35 C 63.81 35.94 66.96 34.84 69.96 36.35 C 71.06 42.16 71.81 48.03 73.09 53.81 C 70.04 51.88 66.37 52.52 62.97 52.46 C 51.52 52.47 40.07 52.51 28.62 52.50 C 32.14 49.68 37.09 51.46 41.21 50.36 C 39.28 47.39 37.56 44.29 35.87 41.17 C 34.50 38.17 30.98 37.45 28.43 35.78 C 31.37 34.68 34.40 35.63 36.18 38.16 C 37.25 37.53 39.06 36.70 38.07 35.14 C 35.33 29.61 26.34 30.11 23.73 35.56 C 23.49 35.83 23.02 36.36 22.79 36.63 C 21.57 31.73 29.46 30.96 28.05 26.10 C 25.18 25.95 22.22 25.89 19.57 24.63 C 25.38 25.03 30.78 21.50 33.63 16.61 C 34.48 15.17 32.83 13.35 31.33 14.21 C 29.27 16.19 27.72 18.87 24.95 19.97 C 22.31 21.23 19.33 20.42 16.57 20.08 C 16.81 19.87 17.29 19.45 17.53 19.25 C 18.15 19.27 19.38 19.33 19.99 19.36 C 23.22 17.15 26.03 14.38 29.48 12.49 Z" />
</g>
<g id="#9f2e04ff">
<path fill="#9f2e04" opacity="1.00" d=" M 61.19 15.79 C 60.00 14.55 62.25 13.65 62.93 12.90 C 65.98 16.74 70.48 20.86 75.83 18.92 C 76.76 18.66 77.68 18.39 78.60 18.11 C 80.41 17.19 81.69 18.31 82.10 20.10 L 80.84 20.77 C 80.47 20.96 79.71 21.33 79.33 21.52 C 72.83 24.58 64.73 22.02 61.19 15.79 Z" />
</g>
<g id="#a33b0bff">
<path fill="#a33b0b" opacity="1.00" d=" M 31.33 14.21 C 32.83 13.35 34.48 15.17 33.63 16.61 C 30.78 21.50 25.38 25.03 19.57 24.63 C 18.42 24.26 17.25 23.93 16.08 23.64 C 15.59 23.58 14.62 23.46 14.14 23.40 C 12.27 21.51 14.22 19.02 16.57 20.08 C 19.33 20.42 22.31 21.23 24.95 19.97 C 27.72 18.87 29.27 16.19 31.33 14.21 Z" />
</g>
<g id="#eea350ff">
<path fill="#eea350" opacity="1.00" d=" M 79.33 21.52 C 79.71 21.33 80.47 20.96 80.84 20.77 C 88.03 28.95 91.63 40.46 90.31 51.26 L 90.13 51.01 C 89.49 49.88 88.87 48.73 88.21 47.60 C 88.94 38.07 84.30 29.30 79.33 21.52 Z" />
</g>
<g id="#eea950ff">
<path fill="#eea950" opacity="1.00" d=" M 7.81 58.99 C 4.76 46.97 6.76 33.49 14.14 23.40 C 14.62 23.46 15.59 23.58 16.08 23.64 C 11.87 31.54 7.61 40.19 8.99 49.42 C 7.45 52.37 7.12 55.75 7.81 58.99 Z" />
<path fill="#eea950" opacity="1.00" d=" M 7.91 59.30 C 10.23 62.68 13.96 65.54 18.31 64.53 C 16.37 65.28 14.28 65.27 12.24 65.34 C 15.75 72.50 21.08 78.90 27.99 83.00 C 37.04 88.58 48.37 90.30 58.65 87.51 C 68.61 84.73 77.66 78.17 82.67 69.03 C 83.55 67.37 84.26 65.63 84.95 63.89 C 86.23 62.92 87.49 61.92 88.69 60.85 C 85.25 73.26 75.52 83.67 63.52 88.28 C 56.71 91.06 49.14 91.45 41.91 90.53 C 25.70 88.12 11.75 75.19 7.91 59.30 Z" />
</g>
<g id="#ffcb73ff">
<path fill="#ffcb73" opacity="1.00" d=" M 16.08 23.64 C 17.25 23.93 18.42 24.26 19.57 24.63 C 22.22 25.89 25.18 25.95 28.05 26.10 C 29.46 30.96 21.57 31.73 22.79 36.63 C 18.43 41.16 12.71 44.25 8.99 49.42 C 7.61 40.19 11.87 31.54 16.08 23.64 Z" />
</g>
<g id="#0d131bff">
<path fill="#0d131b" opacity="1.00" d=" M 23.73 35.56 C 26.34 30.11 35.33 29.61 38.07 35.14 C 39.06 36.70 37.25 37.53 36.18 38.16 C 34.40 35.63 31.37 34.68 28.43 35.78 C 27.98 36.82 27.59 37.90 27.18 38.96 C 28.14 36.53 26.40 33.52 23.73 35.56 Z" />
</g>
<g id="#13161aff">
<path fill="#13161a" opacity="1.00" d=" M 60.24 35.26 C 63.14 29.78 72.15 30.61 74.54 36.19 C 72.91 35.45 70.71 33.62 69.96 36.35 C 66.96 34.84 63.81 35.94 61.71 38.35 C 60.95 37.57 59.09 36.57 60.24 35.26 Z" />
</g>
<g id="#1daaecff">
<path fill="#1daaec" opacity="1.00" d=" M 23.73 35.56 C 26.40 33.52 28.14 36.53 27.18 38.96 C 26.68 41.62 26.33 44.29 25.90 46.96 C 25.13 50.54 25.23 54.27 24.17 57.80 C 23.02 60.63 21.04 63.10 18.31 64.53 C 13.96 65.54 10.23 62.68 7.91 59.30 L 7.81 58.99 C 7.12 55.75 7.45 52.37 8.99 49.42 C 12.71 44.25 18.43 41.16 22.79 36.63 C 23.02 36.36 23.49 35.83 23.73 35.56 M 17.55 43.62 L 17.22 43.68 C 14.69 45.60 12.31 47.77 10.59 50.48 L 10.09 50.48 C 10.02 51.02 9.86 52.09 9.78 52.63 L 9.31 51.95 C 8.84 54.30 9.04 56.69 9.68 58.98 C 11.70 61.42 14.96 63.70 18.20 62.16 C 21.21 61.08 22.22 57.90 23.20 55.19 C 23.22 54.65 23.27 53.58 23.30 53.04 C 23.62 50.99 23.91 48.93 24.27 46.88 C 24.28 46.46 24.30 45.62 24.31 45.20 C 24.48 42.38 25.04 39.62 25.76 36.90 C 22.63 38.59 20.55 41.70 17.55 43.62 Z" />
</g>
<g id="#3ab0e4ff">
<path fill="#3ab0e4" opacity="1.00" d=" M 69.96 36.35 C 70.71 33.62 72.91 35.45 74.54 36.19 C 78.76 40.40 84.23 43.12 88.21 47.60 C 88.87 48.73 89.49 49.88 90.13 51.01 C 89.87 53.27 89.95 55.54 90.14 57.80 C 90.02 58.98 89.54 60.00 88.69 60.85 C 87.49 61.92 86.23 62.92 84.95 63.89 C 80.04 65.63 75.57 61.71 73.93 57.35 C 73.65 56.17 73.36 54.99 73.09 53.81 C 71.81 48.03 71.06 42.16 69.96 36.35 M 71.89 36.61 C 72.13 38.30 72.46 39.98 72.86 41.65 C 73.06 43.32 73.33 45.00 73.72 46.64 C 74.06 48.41 74.40 50.18 74.80 51.93 C 74.83 52.51 74.90 53.66 74.94 54.23 C 75.52 55.60 76.11 56.96 76.72 58.32 C 80.05 58.48 83.27 59.42 86.58 59.71 C 87.94 59.17 88.48 57.73 89.23 56.61 C 89.13 55.26 89.04 53.92 88.95 52.59 L 88.61 52.54 C 88.00 50.67 87.03 48.95 85.67 47.54 C 83.77 45.82 81.78 44.19 79.68 42.71 L 79.40 42.73 C 76.87 40.72 74.46 38.57 71.89 36.61 Z" />
</g>
<g id="#fedb75ff">
<path fill="#fedb75" opacity="1.00" d=" M 27.18 38.96 C 27.59 37.90 27.98 36.82 28.43 35.78 C 30.98 37.45 34.50 38.17 35.87 41.17 C 37.56 44.29 39.28 47.39 41.21 50.36 C 37.09 51.46 32.14 49.68 28.62 52.50 C 28.17 52.85 27.25 53.55 26.79 53.89 C 25.76 51.74 25.59 49.30 25.90 46.96 C 26.33 44.29 26.68 41.62 27.18 38.96 Z" />
<path fill="#fedb75" opacity="1.00" d=" M 73.93 57.35 C 75.57 61.71 80.04 65.63 84.95 63.89 C 84.26 65.63 83.55 67.37 82.67 69.03 C 78.78 67.79 75.36 70.94 71.48 70.93 C 69.12 73.30 67.19 76.43 64.03 77.79 C 63.68 77.69 62.97 77.49 62.61 77.39 C 64.45 75.96 66.26 74.48 67.83 72.75 C 71.55 68.46 73.31 62.92 73.93 57.35 Z" />
</g>
<g id="#ffffffff">
<path fill="#ffffff" opacity="1.00" d=" M 17.55 43.62 C 20.55 41.70 22.63 38.59 25.76 36.90 C 25.04 39.62 24.48 42.38 24.31 45.20 C 23.77 43.91 23.15 42.66 22.54 41.41 C 20.99 42.38 19.44 43.50 17.55 43.62 Z" />
<path fill="#ffffff" opacity="1.00" d=" M 25.69 54.68 C 29.52 52.73 33.90 53.75 38.01 53.53 C 49.39 53.74 60.80 53.09 72.17 53.79 C 72.70 55.25 73.18 56.72 73.52 58.24 C 71.10 59.09 68.51 58.83 66.00 58.85 C 54.65 58.83 43.31 58.84 31.97 58.85 C 29.44 58.81 26.85 59.10 24.39 58.35 C 24.85 57.13 25.28 55.91 25.69 54.68 Z" />
</g>
<g id="#deecf0ff">
<path fill="#deecf0" opacity="1.00" d=" M 71.89 36.61 C 74.46 38.57 76.87 40.72 79.40 42.73 C 79.07 42.75 78.40 42.78 78.07 42.80 C 76.39 42.17 74.69 41.51 72.86 41.65 C 72.46 39.98 72.13 38.30 71.89 36.61 Z" />
</g>
<g id="#b6ddedff">
<path fill="#b6dded" opacity="1.00" d=" M 72.86 41.65 C 74.69 41.51 76.39 42.17 78.07 42.80 C 78.40 42.78 79.07 42.75 79.40 42.73 L 79.68 42.71 C 81.78 44.19 83.77 45.82 85.67 47.54 C 81.68 48.12 77.81 45.60 73.72 46.64 C 73.33 45.00 73.06 43.32 72.86 41.65 Z" />
</g>
<g id="#b2dcedff">
<path fill="#b2dced" opacity="1.00" d=" M 17.55 43.62 C 19.44 43.50 20.99 42.38 22.54 41.41 C 23.15 42.66 23.77 43.91 24.31 45.20 C 24.30 45.62 24.28 46.46 24.27 46.88 C 19.92 47.30 15.35 47.68 11.76 50.44 C 11.47 50.45 10.88 50.47 10.59 50.48 C 12.31 47.77 14.69 45.60 17.22 43.68 L 17.55 43.62 Z" />
</g>
<g id="#98d2ebff">
<path fill="#98d2eb" opacity="1.00" d=" M 73.72 46.64 C 77.81 45.60 81.68 48.12 85.67 47.54 C 87.03 48.95 88.00 50.67 88.61 52.54 C 84.90 52.14 81.34 50.90 77.65 50.43 C 76.49 50.25 75.71 51.43 74.80 51.93 C 74.40 50.18 74.06 48.41 73.72 46.64 Z" />
</g>
<g id="#93d0eaff">
<path fill="#93d0ea" opacity="1.00" d=" M 11.76 50.44 C 15.35 47.68 19.92 47.30 24.27 46.88 C 23.91 48.93 23.62 50.99 23.30 53.04 C 22.47 52.51 21.78 51.42 20.66 51.59 C 16.98 51.76 13.50 53.09 10.13 54.50 C 10.04 54.03 9.87 53.10 9.78 52.63 C 9.86 52.09 10.02 51.02 10.09 50.48 L 10.59 50.48 C 10.88 50.47 11.47 50.45 11.76 50.44 Z" />
</g>
<g id="#7d180fff">
<path fill="#7d180f" opacity="1.00" d=" M 24.17 57.80 C 25.23 54.27 25.13 50.54 25.90 46.96 C 25.59 49.30 25.76 51.74 26.79 53.89 C 27.25 53.55 28.17 52.85 28.62 52.50 C 40.07 52.51 51.52 52.47 62.97 52.46 C 66.37 52.52 70.04 51.88 73.09 53.81 C 73.36 54.99 73.65 56.17 73.93 57.35 C 73.31 62.92 71.55 68.46 67.83 72.75 C 66.79 71.73 65.76 70.69 64.68 69.72 C 55.05 61.67 38.90 62.20 30.56 71.88 L 30.00 72.21 C 26.58 68.12 25.18 62.92 24.17 57.80 M 25.69 54.68 C 25.28 55.91 24.85 57.13 24.39 58.35 C 26.85 59.10 29.44 58.81 31.97 58.85 C 43.31 58.84 54.65 58.83 66.00 58.85 C 68.51 58.83 71.10 59.09 73.52 58.24 C 73.18 56.72 72.70 55.25 72.17 53.79 C 60.80 53.09 49.39 53.74 38.01 53.53 C 33.90 53.75 29.52 52.73 25.69 54.68 Z" />
</g>
<g id="#79c7e8ff">
<path fill="#79c7e8" opacity="1.00" d=" M 74.80 51.93 C 75.71 51.43 76.49 50.25 77.65 50.43 C 81.34 50.90 84.90 52.14 88.61 52.54 L 88.95 52.59 C 89.04 53.92 89.13 55.26 89.23 56.61 C 84.50 55.65 79.80 54.33 74.94 54.23 C 74.90 53.66 74.83 52.51 74.80 51.93 Z" />
</g>
<g id="#73c6e8ff">
<path fill="#73c6e8" opacity="1.00" d=" M 20.66 51.59 C 21.78 51.42 22.47 52.51 23.30 53.04 C 23.27 53.58 23.22 54.65 23.20 55.19 C 18.59 55.99 13.55 56.01 9.68 58.98 C 9.04 56.69 8.84 54.30 9.31 51.95 L 9.78 52.63 C 9.87 53.10 10.04 54.03 10.13 54.50 C 13.50 53.09 16.98 51.76 20.66 51.59 Z" />
</g>
<g id="#14536dad">
<path fill="#14536d" opacity="0.68" d=" M 90.13 51.01 L 90.31 51.26 C 91.45 52.84 92.15 57.05 90.14 57.80 C 89.95 55.54 89.87 53.27 90.13 51.01 Z" />
</g>
<g id="#5bbde6ff">
<path fill="#5bbde6" opacity="1.00" d=" M 74.94 54.23 C 79.80 54.33 84.50 55.65 89.23 56.61 C 88.48 57.73 87.94 59.17 86.58 59.71 C 83.27 59.42 80.05 58.48 76.72 58.32 C 76.11 56.96 75.52 55.60 74.94 54.23 Z" />
</g>
<g id="#50b9e5ff">
<path fill="#50b9e5" opacity="1.00" d=" M 9.68 58.98 C 13.55 56.01 18.59 55.99 23.20 55.19 C 22.22 57.90 21.21 61.08 18.20 62.16 C 14.96 63.70 11.70 61.42 9.68 58.98 Z" />
</g>
<g id="#ffca73ff">
<path fill="#ffca73" opacity="1.00" d=" M 18.31 64.53 C 21.04 63.10 23.02 60.63 24.17 57.80 C 25.18 62.92 26.58 68.12 30.00 72.21 C 31.32 73.72 32.74 75.15 34.32 76.40 C 39.32 80.08 45.67 82.32 51.92 81.34 C 55.74 80.86 59.27 79.22 62.61 77.39 C 62.97 77.49 63.68 77.69 64.03 77.79 C 67.19 76.43 69.12 73.30 71.48 70.93 C 75.36 70.94 78.78 67.79 82.67 69.03 C 77.66 78.17 68.61 84.73 58.65 87.51 C 48.37 90.30 37.04 88.58 27.99 83.00 C 21.08 78.90 15.75 72.50 12.24 65.34 C 14.28 65.27 16.37 65.28 18.31 64.53 Z" />
</g>
<g id="#eb7162ff">
<path fill="#eb7162" opacity="1.00" d=" M 30.56 71.88 C 38.90 62.20 55.05 61.67 64.68 69.72 C 56.45 69.07 48.19 69.41 39.94 69.25 C 36.58 68.99 33.57 70.67 30.56 71.88 Z" />
</g>
<g id="#e55d3aff">
<path fill="#e55d3a" opacity="1.00" d=" M 30.56 71.88 C 33.57 70.67 36.58 68.99 39.94 69.25 C 48.19 69.41 56.45 69.07 64.68 69.72 C 65.76 70.69 66.79 71.73 67.83 72.75 C 66.26 74.48 64.45 75.96 62.61 77.39 L 63.32 75.82 C 56.60 77.06 49.75 76.39 42.96 76.61 C 40.07 76.80 37.16 75.60 34.32 76.40 C 32.74 75.15 31.32 73.72 30.00 72.21 L 30.56 71.88 Z" />
</g>
<g id="#de4b13ff">
<path fill="#de4b13" opacity="1.00" d=" M 34.32 76.40 C 37.16 75.60 40.07 76.80 42.96 76.61 C 49.75 76.39 56.60 77.06 63.32 75.82 L 62.61 77.39 C 59.27 79.22 55.74 80.86 51.92 81.34 C 45.67 82.32 39.32 80.08 34.32 76.40 Z" />
</g>
</svg>
