<?xml version="1.0" encoding="UTF-8" ?>
<!DOCTYPE svg PUBLIC "-//W3C//DTD SVG 1.1//EN" "http://www.w3.org/Graphics/SVG/1.1/DTD/svg11.dtd">
<svg width="96pt" height="96pt" viewBox="0 0 96 96" version="1.1" xmlns="http://www.w3.org/2000/svg">
<g id="#db4100ff">
<path fill="#db4100" opacity="1.00" d=" M 4.46 30.09 C 6.65 21.11 15.73 14.36 24.99 15.13 C 31.62 14.86 37.47 18.88 41.58 23.76 C 41.59 27.70 41.56 31.64 41.39 35.58 C 43.30 34.50 45.19 33.38 47.10 32.29 C 45.88 40.80 43.42 49.07 41.51 57.43 C 41.86 57.39 42.55 57.31 42.90 57.27 C 44.05 56.45 45.25 55.71 46.49 55.03 C 47.29 63.54 45.31 71.91 45.13 80.38 C 42.87 79.26 40.87 77.71 38.98 76.05 C 32.60 70.40 25.93 65.10 19.51 59.50 C 14.76 55.35 9.39 51.53 6.40 45.81 C 3.99 41.02 2.80 35.31 4.46 30.09 Z" />
<path fill="#db4100" opacity="1.00" d=" M 54.80 23.10 C 59.53 17.34 67.57 14.44 74.86 16.11 C 85.12 17.99 92.83 28.70 91.05 39.02 C 89.98 45.69 85.51 51.18 80.52 55.45 C 72.12 62.48 63.36 69.05 54.80 75.88 C 52.08 77.97 49.43 80.17 46.41 81.82 C 47.31 72.99 51.77 64.89 52.82 56.03 C 51.06 56.45 49.30 56.88 47.56 57.33 C 50.38 49.30 54.47 41.80 57.79 33.97 C 55.59 34.47 53.45 35.16 51.27 35.74 C 52.70 31.60 53.22 27.18 54.80 23.10 M 69.19 25.36 C 72.56 26.57 76.45 27.23 78.88 30.13 C 81.66 33.00 81.76 37.15 82.52 40.83 C 83.88 40.75 85.24 40.65 86.59 40.53 C 86.63 37.48 86.89 34.25 85.51 31.42 C 82.99 25.19 76.31 21.24 69.67 21.44 C 69.49 22.75 69.33 24.05 69.19 25.36 Z" />
</g>
<g id="#ffffffff">
<path fill="#ffffff" opacity="1.00" d=" M 69.19 25.36 C 69.33 24.05 69.49 22.75 69.67 21.44 C 76.31 21.24 82.99 25.19 85.51 31.42 C 86.89 34.25 86.63 37.48 86.59 40.53 C 85.24 40.65 83.88 40.75 82.52 40.83 C 81.76 37.15 81.66 33.00 78.88 30.13 C 76.45 27.23 72.56 26.57 69.19 25.36 Z" />
</g>
</svg>
