<?xml version="1.0" encoding="UTF-8" ?>
<!DOCTYPE svg PUBLIC "-//W3C//DTD SVG 1.1//EN" "http://www.w3.org/Graphics/SVG/1.1/DTD/svg11.dtd">
<svg width="96pt" height="96pt" viewBox="0 0 96 96" version="1.1" xmlns="http://www.w3.org/2000/svg">
<g id="#eea553ff">
<path fill="#eea553" opacity="1.00" d=" M 22.50 13.43 C 34.01 4.84 49.87 2.74 63.29 7.80 C 80.11 13.89 92.17 31.40 90.90 49.39 L 90.63 48.94 C 90.09 48.07 89.57 47.19 89.05 46.31 C 88.02 39.63 86.76 32.80 82.98 27.05 C 80.98 24.31 79.59 20.67 76.30 19.24 C 74.57 16.55 72.26 14.16 68.92 13.75 C 66.22 10.66 61.99 9.89 58.26 8.67 C 48.18 5.84 37.49 7.91 28.21 12.35 C 28.34 12.72 28.59 13.46 28.72 13.83 C 23.38 12.89 20.70 17.72 17.86 21.17 C 11.19 27.58 8.26 36.92 7.44 45.94 C 6.71 47.12 5.88 48.23 5.08 49.37 C 4.53 35.48 11.21 21.55 22.50 13.43 Z" />
</g>
<g id="#fded78ff">
<path fill="#fded78" opacity="1.00" d=" M 28.21 12.35 C 37.49 7.91 48.18 5.84 58.26 8.67 C 61.99 9.89 66.22 10.66 68.92 13.75 C 66.34 13.98 63.84 14.73 61.66 16.13 C 61.96 16.69 62.55 17.81 62.84 18.36 C 65.33 18.89 67.81 16.49 70.32 17.71 C 72.66 19.29 73.73 22.09 75.33 24.32 C 76.18 23.59 77.02 22.87 77.87 22.14 C 77.48 21.42 76.69 19.96 76.30 19.24 C 79.59 20.67 80.98 24.31 82.98 27.05 C 86.76 32.80 88.02 39.63 89.05 46.31 C 83.84 44.09 77.72 43.01 72.39 45.45 C 70.71 46.28 68.57 47.73 69.09 49.90 C 69.61 52.63 72.78 53.47 75.08 54.17 C 74.39 55.09 73.72 56.01 73.08 56.95 C 71.59 55.56 70.31 53.43 68.07 53.25 C 62.67 56.26 58.10 60.83 52.08 62.70 C 48.62 63.86 44.89 63.79 41.39 62.91 C 45.97 61.31 51.25 62.21 55.32 59.12 C 51.59 56.39 47.47 54.12 44.28 50.72 C 41.12 47.46 38.87 43.48 36.46 39.67 C 34.07 39.90 31.67 39.94 29.27 39.86 C 29.39 39.54 29.63 38.90 29.75 38.57 C 32.36 38.72 35.44 38.24 36.70 35.61 C 38.35 33.25 36.92 30.55 35.59 28.45 C 33.64 27.21 31.32 27.28 29.11 27.50 C 30.82 26.06 34.38 25.04 33.03 22.12 C 31.28 19.09 27.41 19.03 24.43 18.20 C 26.98 16.65 29.87 17.72 32.36 18.80 C 33.04 18.06 33.55 17.22 33.89 16.29 C 32.79 14.53 30.51 14.41 28.72 13.83 C 28.59 13.46 28.34 12.72 28.21 12.35 M 60.23 28.35 L 60.33 28.45 C 58.43 30.82 57.71 34.44 60.30 36.62 C 63.06 39.96 68.88 38.05 69.63 33.96 C 70.20 32.01 69.10 30.22 68.21 28.59 C 65.80 26.78 62.79 26.88 60.23 28.35 Z" />
</g>
<g id="#a13709ff">
<path fill="#a13709" opacity="1.00" d=" M 17.86 21.17 C 20.70 17.72 23.38 12.89 28.72 13.83 C 30.51 14.41 32.79 14.53 33.89 16.29 C 33.55 17.22 33.04 18.06 32.36 18.80 C 29.87 17.72 26.98 16.65 24.43 18.20 C 23.32 19.79 22.31 21.44 21.30 23.09 C 20.91 23.34 20.13 23.84 19.74 24.09 C 19.02 23.18 18.43 22.18 17.86 21.17 Z" />
</g>
<g id="#a1370aff">
<path fill="#a1370a" opacity="1.00" d=" M 61.66 16.13 C 63.84 14.73 66.34 13.98 68.92 13.75 C 72.26 14.16 74.57 16.55 76.30 19.24 C 76.69 19.96 77.48 21.42 77.87 22.14 C 77.02 22.87 76.18 23.59 75.33 24.32 C 73.73 22.09 72.66 19.29 70.32 17.71 C 67.81 16.49 65.33 18.89 62.84 18.36 C 62.55 17.81 61.96 16.69 61.66 16.13 Z" />
</g>
<g id="#fedb75ff">
<path fill="#fedb75" opacity="1.00" d=" M 21.30 23.09 C 22.31 21.44 23.32 19.79 24.43 18.20 C 27.41 19.03 31.28 19.09 33.03 22.12 C 34.38 25.04 30.82 26.06 29.11 27.50 C 28.86 27.74 28.36 28.20 28.11 28.44 C 27.15 29.80 25.90 31.24 26.07 33.04 C 25.88 35.56 28.16 37.04 29.75 38.57 C 29.63 38.90 29.39 39.54 29.27 39.86 C 31.67 39.94 34.07 39.90 36.46 39.67 C 38.87 43.48 41.12 47.46 44.28 50.72 C 47.47 54.12 51.59 56.39 55.32 59.12 C 51.25 62.21 45.97 61.31 41.39 62.91 C 35.59 61.54 30.96 57.63 25.64 55.20 C 24.71 54.80 23.76 54.44 22.81 54.08 C 24.68 52.78 27.37 51.60 27.47 48.97 C 26.73 47.08 24.93 46.02 23.25 45.07 C 25.47 42.92 23.93 39.94 23.56 37.37 C 22.29 32.85 23.92 28.28 23.96 23.73 C 23.07 23.52 22.18 23.31 21.30 23.09 Z" />
</g>
<g id="#ffcc73ff">
<path fill="#ffcc73" opacity="1.00" d=" M 7.44 45.94 C 8.26 36.92 11.19 27.58 17.86 21.17 C 18.43 22.18 19.02 23.18 19.74 24.09 C 20.13 23.84 20.91 23.34 21.30 23.09 C 22.18 23.31 23.07 23.52 23.96 23.73 C 23.92 28.28 22.29 32.85 23.56 37.37 C 23.93 39.94 25.47 42.92 23.25 45.07 C 18.04 43.32 12.48 43.98 7.44 45.94 Z" />
</g>
<g id="#808080ff">
<path fill="#808080" opacity="1.00" d=" M 29.11 27.50 C 31.32 27.28 33.64 27.21 35.59 28.45 C 34.59 29.73 33.71 31.69 31.76 31.51 C 29.82 31.73 29.02 29.74 28.11 28.44 C 28.36 28.20 28.86 27.74 29.11 27.50 Z" />
</g>
<g id="#868686ff">
<path fill="#868686" opacity="1.00" d=" M 60.23 28.35 C 62.79 26.88 65.80 26.78 68.21 28.59 C 67.22 29.47 66.50 31.03 64.98 31.06 C 62.88 31.64 61.67 29.63 60.33 28.45 L 60.23 28.35 Z" />
</g>
<g id="#1f1f1fff">
<path fill="#1f1f1f" opacity="1.00" d=" M 26.07 33.04 C 25.90 31.24 27.15 29.80 28.11 28.44 C 29.02 29.74 29.82 31.73 31.76 31.51 C 33.71 31.69 34.59 29.73 35.59 28.45 C 36.92 30.55 38.35 33.25 36.70 35.61 C 35.44 38.24 32.36 38.72 29.75 38.57 C 28.16 37.04 25.88 35.56 26.07 33.04 Z" />
<path fill="#1f1f1f" opacity="1.00" d=" M 60.33 28.45 C 61.67 29.63 62.88 31.64 64.98 31.06 C 66.50 31.03 67.22 29.47 68.21 28.59 C 69.10 30.22 70.20 32.01 69.63 33.96 C 68.88 38.05 63.06 39.96 60.30 36.62 C 57.71 34.44 58.43 30.82 60.33 28.45 Z" />
</g>
<g id="#f3995eff">
<path fill="#f3995e" opacity="1.00" d=" M 7.44 45.94 C 12.48 43.98 18.04 43.32 23.25 45.07 C 24.93 46.02 26.73 47.08 27.47 48.97 C 27.37 51.60 24.68 52.78 22.81 54.08 C 22.40 54.15 21.58 54.29 21.17 54.37 C 16.75 55.09 12.16 54.73 8.06 52.82 C 7.37 52.54 5.99 51.98 5.30 51.70 C 5.24 51.12 5.14 49.95 5.08 49.37 C 5.88 48.23 6.71 47.12 7.44 45.94 M 13.26 46.52 C 12.04 46.86 10.11 47.57 10.27 49.12 C 9.88 51.22 12.24 52.46 14.02 52.59 C 16.96 52.80 20.59 53.20 22.69 50.64 C 23.58 45.62 16.49 45.88 13.26 46.52 Z" />
</g>
<g id="#f2a960ff">
<path fill="#f2a960" opacity="1.00" d=" M 72.39 45.45 C 77.72 43.01 83.84 44.09 89.05 46.31 C 89.57 47.19 90.09 48.07 90.63 48.94 C 91.30 53.69 89.77 58.58 88.16 63.04 C 87.78 61.95 87.43 60.85 87.11 59.74 C 87.41 57.42 87.89 55.13 88.34 52.84 C 85.34 53.84 82.27 54.78 79.07 54.76 C 77.73 54.63 76.40 54.42 75.08 54.17 C 72.78 53.47 69.61 52.63 69.09 49.90 C 68.57 47.73 70.71 46.28 72.39 45.45 M 76.30 46.51 C 74.10 46.74 72.11 49.26 73.85 51.15 C 76.83 52.97 80.77 53.15 84.02 52.03 C 85.91 51.44 86.20 49.34 85.27 47.81 C 82.81 45.72 79.27 46.17 76.30 46.51 Z" />
</g>
<g id="#ed863aff">
<path fill="#ed863a" opacity="1.00" d=" M 13.26 46.52 C 16.49 45.88 23.58 45.62 22.69 50.64 C 20.59 53.20 16.96 52.80 14.02 52.59 C 12.24 52.46 9.88 51.22 10.27 49.12 C 10.11 47.57 12.04 46.86 13.26 46.52 Z" />
</g>
<g id="#ec973cff">
<path fill="#ec973c" opacity="1.00" d=" M 76.30 46.51 C 79.27 46.17 82.81 45.72 85.27 47.81 C 86.20 49.34 85.91 51.44 84.02 52.03 C 80.77 53.15 76.83 52.97 73.85 51.15 C 72.11 49.26 74.10 46.74 76.30 46.51 Z" />
</g>
<g id="#efae60ff">
<path fill="#efae60" opacity="1.00" d=" M 5.30 51.70 C 5.99 51.98 7.37 52.54 8.06 52.82 C 8.64 56.24 8.99 59.87 11.06 62.79 C 11.71 63.80 12.38 64.81 13.05 65.82 C 12.45 66.93 11.85 68.04 11.24 69.15 C 7.63 64.07 6.03 57.82 5.30 51.70 Z" />
</g>
<g id="#ffcc74ff">
<path fill="#ffcc74" opacity="1.00" d=" M 8.06 52.82 C 12.16 54.73 16.75 55.09 21.17 54.37 C 20.47 55.23 19.77 56.11 19.25 57.10 C 19.33 59.25 20.92 60.82 22.14 62.42 C 22.23 62.69 22.42 63.22 22.51 63.49 C 21.91 63.47 21.32 63.47 20.72 63.51 C 19.25 61.55 17.93 59.36 15.84 57.99 C 13.86 56.87 12.25 58.74 10.90 59.91 C 10.94 60.63 11.02 62.07 11.06 62.79 C 8.99 59.87 8.64 56.24 8.06 52.82 Z" />
</g>
<g id="#fde978ff">
<path fill="#fde978" opacity="1.00" d=" M 79.07 54.76 C 82.27 54.78 85.34 53.84 88.34 52.84 C 87.89 55.13 87.41 57.42 87.11 59.74 C 82.51 57.20 79.85 62.61 76.26 64.36 C 77.72 61.29 81.62 58.34 79.07 54.76 Z" />
</g>
<g id="#ff9d0dff">
<path fill="#ff9d0d" opacity="1.00" d=" M 21.17 54.37 C 21.58 54.29 22.40 54.15 22.81 54.08 C 23.76 54.44 24.71 54.80 25.64 55.20 C 25.81 55.71 26.15 56.72 26.33 57.22 C 27.34 60.18 28.37 63.15 29.77 65.96 C 30.34 67.15 31.00 68.31 31.72 69.42 C 32.58 70.76 33.50 72.08 34.38 73.41 C 34.76 74.06 35.54 75.34 35.93 75.99 C 36.40 79.17 35.87 82.42 34.32 85.25 C 33.78 85.95 33.22 86.63 32.65 87.31 C 28.44 90.55 22.57 91.72 17.43 90.42 C 11.22 88.27 9.60 81.23 7.09 75.92 C 5.72 72.68 10.53 71.88 11.24 69.15 C 11.85 68.04 12.45 66.93 13.05 65.82 C 12.38 64.81 11.71 63.80 11.06 62.79 C 11.02 62.07 10.94 60.63 10.90 59.91 C 12.25 58.74 13.86 56.87 15.84 57.99 C 17.93 59.36 19.25 61.55 20.72 63.51 C 21.32 63.47 21.91 63.47 22.51 63.49 C 22.77 64.72 22.98 65.96 23.16 67.20 C 20.33 64.92 18.36 61.72 15.41 59.59 C 13.92 58.42 11.88 60.27 12.53 61.92 C 13.94 65.34 16.43 68.79 19.96 70.17 C 23.43 70.49 26.91 70.88 30.27 71.87 C 29.34 66.95 26.72 62.58 25.34 57.78 C 25.22 55.65 21.69 54.94 21.08 57.12 C 20.87 58.95 21.70 60.69 22.14 62.42 C 20.92 60.82 19.33 59.25 19.25 57.10 C 19.77 56.11 20.47 55.23 21.17 54.37 M 12.17 70.91 C 13.15 73.68 15.77 75.38 17.89 77.25 C 18.74 78.30 20.02 77.37 21.01 77.15 C 19.45 74.27 19.01 70.59 16.01 68.72 C 14.55 67.13 11.25 68.75 12.17 70.91 M 20.89 71.99 C 19.93 76.63 27.18 75.83 28.66 79.34 C 26.77 78.82 24.93 78.13 23.01 77.76 C 21.31 78.18 19.70 78.88 18.07 79.51 C 15.47 76.97 13.53 73.52 9.95 72.21 C 6.33 75.24 10.06 79.83 13.70 80.31 C 15.01 80.82 17.09 80.18 17.57 81.96 C 15.23 82.26 12.98 81.55 10.79 80.84 C 12.34 86.01 17.38 90.32 22.96 89.88 C 28.59 89.96 33.79 85.50 34.48 79.90 C 35.20 77.35 33.39 74.59 30.88 73.95 C 27.67 72.94 24.33 71.35 20.89 71.99 Z" />
<path fill="#ff9d0d" opacity="1.00" d=" M 75.08 54.17 C 76.40 54.42 77.73 54.63 79.07 54.76 C 81.62 58.34 77.72 61.29 76.26 64.36 C 79.85 62.61 82.51 57.20 87.11 59.74 C 87.43 60.85 87.78 61.95 88.16 63.04 C 87.36 64.97 86.48 66.86 85.53 68.71 C 85.85 72.06 88.86 73.95 89.91 76.85 C 87.53 81.03 85.16 85.43 81.56 88.69 C 76.36 92.89 68.87 90.62 63.93 87.11 C 63.54 86.76 62.76 86.04 62.37 85.68 C 60.42 82.78 59.71 79.27 60.13 75.82 C 60.37 75.22 60.87 74.04 61.11 73.44 C 61.97 72.31 62.89 71.23 63.87 70.21 C 64.30 69.75 65.17 68.83 65.60 68.38 C 68.05 65.57 70.09 62.42 71.82 59.13 L 71.58 58.40 C 71.91 58.44 72.57 58.51 72.90 58.55 C 71.90 62.99 68.50 66.33 66.93 70.55 C 71.54 69.13 76.92 72.22 80.92 68.94 C 83.09 67.38 85.21 65.51 86.31 63.02 C 86.94 60.58 83.97 60.01 82.48 61.31 C 79.82 63.17 77.49 65.49 74.66 67.12 C 75.35 63.35 79.04 59.99 77.92 56.12 C 75.94 54.99 74.43 56.91 73.03 58.05 C 73.04 57.78 73.07 57.23 73.08 56.95 C 73.72 56.01 74.39 55.09 75.08 54.17 M 82.30 69.27 C 78.94 70.89 76.20 74.41 75.82 78.10 C 80.01 77.90 83.91 74.76 85.69 71.03 C 84.66 70.30 83.80 68.68 82.30 69.27 M 61.71 77.04 C 61.01 82.80 65.39 88.36 71.00 89.44 C 76.60 90.92 82.40 87.46 84.87 82.46 C 82.92 82.66 80.97 82.86 79.02 83.00 C 78.77 82.57 78.28 81.69 78.03 81.25 C 81.36 81.77 85.50 81.72 87.53 78.53 C 89.13 77.04 87.64 73.68 85.43 74.36 C 82.57 75.68 80.43 78.13 77.95 80.02 C 76.33 79.10 74.74 78.07 72.95 77.47 C 71.11 77.61 69.30 78.00 67.48 78.25 C 69.37 74.83 76.91 76.92 76.13 72.01 C 73.09 71.15 69.92 71.97 66.87 72.32 C 64.39 72.50 61.59 74.28 61.71 77.04 Z" />
</g>
<g id="#79211bff">
<path fill="#79211b" opacity="1.00" d=" M 52.08 62.70 C 58.10 60.83 62.67 56.26 68.07 53.25 C 70.31 53.43 71.59 55.56 73.08 56.95 C 73.07 57.23 73.04 57.78 73.03 58.05 L 72.90 58.55 C 72.57 58.51 71.91 58.44 71.58 58.40 C 71.08 57.78 70.08 56.54 69.58 55.92 C 68.39 54.09 66.71 56.43 65.50 56.96 C 65.68 60.76 65.63 64.57 65.60 68.38 C 65.17 68.83 64.30 69.75 63.87 70.21 C 63.77 66.18 63.78 62.15 63.99 58.12 C 60.98 60.24 57.87 62.22 54.54 63.78 C 54.52 67.58 54.55 71.38 54.54 75.18 C 56.75 74.66 58.94 74.09 61.11 73.44 C 60.87 74.04 60.37 75.22 60.13 75.82 C 52.28 78.21 43.78 78.58 35.93 75.99 C 35.54 75.34 34.76 74.06 34.38 73.41 C 36.57 74.06 38.76 74.71 40.97 75.31 C 40.88 71.81 40.86 68.32 40.97 64.82 C 37.66 63.71 34.47 62.27 31.42 60.57 C 31.66 63.52 31.77 66.47 31.72 69.42 C 31.00 68.31 30.34 67.15 29.77 65.96 C 29.84 63.94 30.06 61.92 29.86 59.90 C 28.94 58.71 27.50 58.10 26.33 57.22 C 26.15 56.72 25.81 55.71 25.64 55.20 C 30.96 57.63 35.59 61.54 41.39 62.91 C 44.89 63.79 48.62 63.86 52.08 62.70 M 42.44 65.18 C 42.56 68.62 42.58 72.06 42.50 75.51 C 45.99 75.90 49.56 76.13 53.00 75.28 C 52.73 71.68 52.74 68.07 52.98 64.47 C 49.54 65.39 45.97 65.46 42.44 65.18 Z" />
</g>
<g id="#ffe06eff">
<path fill="#ffe06e" opacity="1.00" d=" M 21.08 57.12 C 21.69 54.94 25.22 55.65 25.34 57.78 C 26.72 62.58 29.34 66.95 30.27 71.87 C 26.91 70.88 23.43 70.49 19.96 70.17 C 16.43 68.79 13.94 65.34 12.53 61.92 C 11.88 60.27 13.92 58.42 15.41 59.59 C 18.36 61.72 20.33 64.92 23.16 67.20 C 22.98 65.96 22.77 64.72 22.51 63.49 C 22.42 63.22 22.23 62.69 22.14 62.42 C 21.70 60.69 20.87 58.95 21.08 57.12 Z" />
<path fill="#ffe06e" opacity="1.00" d=" M 73.03 58.05 C 74.43 56.91 75.94 54.99 77.92 56.12 C 79.04 59.99 75.35 63.35 74.66 67.12 C 77.49 65.49 79.82 63.17 82.48 61.31 C 83.97 60.01 86.94 60.58 86.31 63.02 C 85.21 65.51 83.09 67.38 80.92 68.94 C 76.92 72.22 71.54 69.13 66.93 70.55 C 68.50 66.33 71.90 62.99 72.90 58.55 L 73.03 58.05 Z" />
<path fill="#ffe06e" opacity="1.00" d=" M 12.17 70.91 C 11.25 68.75 14.55 67.13 16.01 68.72 C 19.01 70.59 19.45 74.27 21.01 77.15 C 20.02 77.37 18.74 78.30 17.89 77.25 C 15.77 75.38 13.15 73.68 12.17 70.91 Z" />
<path fill="#ffe06e" opacity="1.00" d=" M 20.89 71.99 C 24.33 71.35 27.67 72.94 30.88 73.95 C 33.39 74.59 35.20 77.35 34.48 79.90 C 33.79 85.50 28.59 89.96 22.96 89.88 C 17.38 90.32 12.34 86.01 10.79 80.84 C 12.98 81.55 15.23 82.26 17.57 81.96 C 17.09 80.18 15.01 80.82 13.70 80.31 C 10.06 79.83 6.33 75.24 9.95 72.21 C 13.53 73.52 15.47 76.97 18.07 79.51 C 19.70 78.88 21.31 78.18 23.01 77.76 C 24.93 78.13 26.77 78.82 28.66 79.34 C 27.18 75.83 19.93 76.63 20.89 71.99 Z" />
<path fill="#ffe06e" opacity="1.00" d=" M 61.71 77.04 C 61.59 74.28 64.39 72.50 66.87 72.32 C 69.92 71.97 73.09 71.15 76.13 72.01 C 76.91 76.92 69.37 74.83 67.48 78.25 C 69.30 78.00 71.11 77.61 72.95 77.47 C 74.74 78.07 76.33 79.10 77.95 80.02 C 80.43 78.13 82.57 75.68 85.43 74.36 C 87.64 73.68 89.13 77.04 87.53 78.53 C 85.50 81.72 81.36 81.77 78.03 81.25 C 78.28 81.69 78.77 82.57 79.02 83.00 C 80.97 82.86 82.92 82.66 84.87 82.46 C 82.40 87.46 76.60 90.92 71.00 89.44 C 65.39 88.36 61.01 82.80 61.71 77.04 Z" />
</g>
<g id="#ffffffff">
<path fill="#ffffff" opacity="1.00" d=" M 65.50 56.96 C 66.71 56.43 68.39 54.09 69.58 55.92 C 70.08 56.54 71.08 57.78 71.58 58.40 L 71.82 59.13 C 70.09 62.42 68.05 65.57 65.60 68.38 C 65.63 64.57 65.68 60.76 65.50 56.96 Z" />
<path fill="#ffffff" opacity="1.00" d=" M 26.33 57.22 C 27.50 58.10 28.94 58.71 29.86 59.90 C 30.06 61.92 29.84 63.94 29.77 65.96 C 28.37 63.15 27.34 60.18 26.33 57.22 Z" />
<path fill="#ffffff" opacity="1.00" d=" M 54.54 63.78 C 57.87 62.22 60.98 60.24 63.99 58.12 C 63.78 62.15 63.77 66.18 63.87 70.21 C 62.89 71.23 61.97 72.31 61.11 73.44 C 58.94 74.09 56.75 74.66 54.54 75.18 C 54.55 71.38 54.52 67.58 54.54 63.78 Z" />
<path fill="#ffffff" opacity="1.00" d=" M 31.42 60.57 C 34.47 62.27 37.66 63.71 40.97 64.82 C 40.86 68.32 40.88 71.81 40.97 75.31 C 38.76 74.71 36.57 74.06 34.38 73.41 C 33.50 72.08 32.58 70.76 31.72 69.42 C 31.77 66.47 31.66 63.52 31.42 60.57 Z" />
<path fill="#ffffff" opacity="1.00" d=" M 42.44 65.18 C 45.97 65.46 49.54 65.39 52.98 64.47 C 52.74 68.07 52.73 71.68 53.00 75.28 C 49.56 76.13 45.99 75.90 42.50 75.51 C 42.58 72.06 42.56 68.62 42.44 65.18 Z" />
</g>
<g id="#ffe06dff">
<path fill="#ffe06d" opacity="1.00" d=" M 82.30 69.27 C 83.80 68.68 84.66 70.30 85.69 71.03 C 83.91 74.76 80.01 77.90 75.82 78.10 C 76.20 74.41 78.94 70.89 82.30 69.27 Z" />
</g>
<g id="#ffca73ff">
<path fill="#ffca73" opacity="1.00" d=" M 35.93 75.99 C 43.78 78.58 52.28 78.21 60.13 75.82 C 59.71 79.27 60.42 82.78 62.37 85.68 C 53.25 88.18 43.20 89.17 34.32 85.25 C 35.87 82.42 36.40 79.17 35.93 75.99 Z" />
</g>
<g id="#efac59ff">
<path fill="#efac59" opacity="1.00" d=" M 32.65 87.31 C 33.22 86.63 33.78 85.95 34.32 85.25 C 43.20 89.17 53.25 88.18 62.37 85.68 C 62.76 86.04 63.54 86.76 63.93 87.11 C 54.12 91.29 42.53 91.29 32.65 87.31 Z" />
</g>
</svg>
