<?xml version="1.0" encoding="UTF-8" ?>
<!DOCTYPE svg PUBLIC "-//W3C//DTD SVG 1.1//EN" "http://www.w3.org/Graphics/SVG/1.1/DTD/svg11.dtd">
<svg width="96pt" height="96pt" viewBox="0 0 96 96" version="1.1" xmlns="http://www.w3.org/2000/svg">
<g id="#86602e8e">
<path fill="#86602e" opacity="0.56" d=" M 37.66 7.10 C 44.04 4.11 51.75 4.29 58.22 6.91 C 54.78 6.73 51.40 5.92 47.96 5.79 C 44.50 6.00 41.11 6.75 37.66 7.10 Z" />
</g>
<g id="#1f1f1fff">
<path fill="#1f1f1f" opacity="1.00" d=" M 81.50 5.51 C 85.38 5.70 89.85 7.25 91.34 11.18 C 91.20 16.29 85.13 16.87 82.85 20.48 C 82.07 20.39 80.52 20.23 79.75 20.14 C 79.61 20.00 79.34 19.72 79.20 19.58 C 80.12 15.53 84.88 15.22 86.58 11.95 C 85.87 9.13 82.29 9.87 80.10 9.68 C 80.39 8.24 80.86 6.84 81.50 5.51 Z" />
</g>
<g id="#f0ac53ff">
<path fill="#f0ac53" opacity="1.00" d=" M 37.66 7.10 C 41.11 6.75 44.50 6.00 47.96 5.79 C 51.40 5.92 54.78 6.73 58.22 6.91 L 59.71 7.04 C 59.56 7.56 59.24 8.60 59.09 9.12 L 58.80 10.00 C 56.94 9.40 55.09 8.74 53.23 8.10 C 52.99 9.23 52.74 10.35 52.48 11.47 L 52.31 11.54 C 52.21 10.44 52.11 9.35 52.01 8.25 C 51.13 8.35 50.26 8.44 49.38 8.53 C 40.15 7.33 30.67 10.83 23.63 16.75 C 22.65 16.38 21.68 16.02 20.70 15.66 C 25.60 11.60 31.39 8.39 37.66 7.10 Z" />
<path fill="#f0ac53" opacity="1.00" d=" M 82.13 25.09 C 82.38 24.85 82.88 24.36 83.13 24.11 C 89.04 33.09 91.74 44.23 89.91 54.88 C 87.88 68.35 78.80 80.49 66.52 86.33 C 57.59 90.55 47.06 92.69 37.51 89.30 C 25.03 86.09 14.17 77.01 9.12 65.12 C 5.59 56.56 3.46 46.62 7.03 37.72 C 7.47 39.70 8.01 41.65 8.67 43.57 C 5.51 59.83 15.51 76.77 30.03 83.99 C 42.69 90.38 58.73 89.36 70.47 81.41 C 78.10 76.01 84.31 68.20 86.45 58.97 C 87.33 56.03 87.86 52.99 87.95 49.92 C 88.10 44.90 87.61 39.81 85.88 35.08 C 84.56 31.56 83.37 27.30 79.37 26.05 C 80.54 26.40 81.46 26.08 82.13 25.09 Z" />
</g>
<g id="#fdec78ff">
<path fill="#fdec78" opacity="1.00" d=" M 23.63 16.75 C 30.67 10.83 40.15 7.33 49.38 8.53 C 46.31 9.42 43.06 10.41 40.91 12.95 C 39.76 14.39 37.65 15.75 38.23 17.87 C 38.82 18.76 39.62 19.03 40.63 18.67 C 42.54 17.27 43.98 15.32 45.93 13.97 C 47.95 12.90 50.20 12.37 52.31 11.54 L 52.48 11.47 C 52.74 10.35 52.99 9.23 53.23 8.10 C 55.09 8.74 56.94 9.40 58.80 10.00 L 59.49 10.20 C 60.89 10.96 64.27 10.33 63.67 12.69 C 61.92 14.30 59.91 15.62 58.14 17.22 C 51.05 15.27 42.73 19.64 41.02 26.94 C 38.80 34.64 44.99 43.11 52.88 43.70 C 60.13 44.44 67.52 38.47 67.54 31.01 C 68.04 25.82 64.90 21.32 61.16 18.08 C 64.21 16.56 68.59 14.46 67.24 10.25 C 69.08 11.37 70.90 12.50 72.67 13.73 C 71.35 15.17 67.55 18.02 70.92 19.24 C 72.65 18.26 74.29 17.13 76.03 16.15 C 77.08 17.30 78.14 18.44 79.20 19.58 C 79.34 19.72 79.61 20.00 79.75 20.14 C 80.12 20.56 80.87 21.38 81.25 21.80 C 80.68 21.76 79.53 21.68 78.96 21.64 C 78.54 22.28 77.69 23.55 77.26 24.18 C 77.79 24.65 78.84 25.58 79.37 26.05 C 83.37 27.30 84.56 31.56 85.88 35.08 C 87.61 39.81 88.10 44.90 87.95 49.92 C 86.98 51.57 85.79 53.15 84.08 54.08 C 77.71 57.63 70.62 60.23 63.23 60.12 C 63.03 61.36 62.82 62.61 62.62 63.86 C 62.07 62.11 61.53 60.35 60.98 58.60 C 60.53 57.35 60.08 54.48 58.08 55.59 C 54.88 57.27 52.00 59.53 48.62 60.87 C 48.71 60.49 48.90 59.72 48.99 59.34 C 51.26 57.58 53.83 56.21 56.08 54.42 C 53.61 53.88 51.03 53.48 48.80 52.20 C 43.91 49.65 40.89 44.81 36.51 41.58 C 35.69 41.94 34.87 42.30 34.05 42.64 L 33.72 41.87 C 33.58 38.72 34.01 35.51 33.38 32.40 C 31.31 27.56 26.43 23.67 21.02 23.68 C 17.50 23.53 14.38 25.35 11.30 26.81 C 12.57 24.96 13.65 22.92 15.38 21.45 C 19.56 18.99 23.89 21.18 28.03 22.36 C 30.72 19.08 26.03 17.57 23.63 16.75 M 67.63 20.87 C 67.91 21.59 68.48 23.04 68.76 23.76 C 69.77 23.30 72.12 23.93 71.69 22.05 C 72.22 19.53 68.99 19.47 67.63 20.87 Z" />
</g>
<g id="#a43d0dff">
<path fill="#a43d0d" opacity="1.00" d=" M 49.38 8.53 C 50.26 8.44 51.13 8.35 52.01 8.25 C 52.11 9.35 52.21 10.44 52.31 11.54 C 50.20 12.37 47.95 12.90 45.93 13.97 C 43.98 15.32 42.54 17.27 40.63 18.67 C 39.62 19.03 38.82 18.76 38.23 17.87 C 37.65 15.75 39.76 14.39 40.91 12.95 C 43.06 10.41 46.31 9.42 49.38 8.53 Z" />
</g>
<g id="#18191dff">
<path fill="#18191d" opacity="1.00" d=" M 59.68 7.39 C 62.42 7.59 65.37 8.00 67.24 10.25 C 68.59 14.46 64.21 16.56 61.16 18.08 C 64.90 21.32 68.04 25.82 67.54 31.01 C 67.52 38.47 60.13 44.44 52.88 43.70 C 44.99 43.11 38.80 34.64 41.02 26.94 C 42.73 19.64 51.05 15.27 58.14 17.22 C 59.91 15.62 61.92 14.30 63.67 12.69 C 64.27 10.33 60.89 10.96 59.49 10.20 L 58.80 10.00 L 59.09 9.12 C 59.24 8.69 59.53 7.82 59.68 7.39 M 41.69 27.85 C 40.98 33.69 44.39 39.84 50.01 41.86 C 57.66 44.81 67.13 38.29 66.60 29.97 C 66.78 25.57 63.74 22.10 60.87 19.16 C 60.79 20.66 60.67 22.15 60.50 23.63 C 58.42 23.84 56.73 22.81 57.05 20.50 C 58.30 20.14 59.56 19.74 60.74 19.16 C 57.62 18.24 54.26 16.86 51.02 18.18 C 46.33 19.35 43.23 23.49 41.69 27.85 Z" />
</g>
<g id="#16181dff">
<path fill="#16181d" opacity="1.00" d=" M 69.47 10.45 C 69.90 5.83 75.98 7.63 77.72 10.30 C 79.13 12.38 77.44 14.63 76.03 16.15 C 74.29 17.13 72.65 18.26 70.92 19.24 C 67.55 18.02 71.35 15.17 72.67 13.73 C 73.27 13.73 73.86 13.73 74.46 13.72 C 74.50 13.12 74.56 11.91 74.60 11.30 C 72.92 10.85 71.20 10.60 69.47 10.45 Z" />
<path fill="#16181d" opacity="1.00" d=" M 67.63 20.87 C 68.99 19.47 72.22 19.53 71.69 22.05 C 72.12 23.93 69.77 23.30 68.76 23.76 C 68.48 23.04 67.91 21.59 67.63 20.87 Z" />
</g>
<g id="#a33d0dff">
<path fill="#a33d0d" opacity="1.00" d=" M 12.25 20.08 C 12.37 15.78 17.92 17.09 20.70 15.66 C 21.68 16.02 22.65 16.38 23.63 16.75 C 26.03 17.57 30.72 19.08 28.03 22.36 C 23.89 21.18 19.56 18.99 15.38 21.45 C 14.60 21.11 13.04 20.42 12.25 20.08 Z" />
</g>
<g id="#ffffffff">
<path fill="#ffffff" opacity="1.00" d=" M 41.69 27.85 C 43.23 23.49 46.33 19.35 51.02 18.18 C 54.26 16.86 57.62 18.24 60.74 19.16 C 59.56 19.74 58.30 20.14 57.05 20.50 C 56.73 22.81 58.42 23.84 60.50 23.63 C 60.67 22.15 60.79 20.66 60.87 19.16 C 63.74 22.10 66.78 25.57 66.60 29.97 C 67.13 38.29 57.66 44.81 50.01 41.86 C 44.39 39.84 40.98 33.69 41.69 27.85 M 54.68 28.63 C 54.39 29.23 53.81 30.43 53.53 31.03 C 54.50 33.51 58.08 34.79 59.59 32.05 C 60.53 29.94 58.75 28.42 57.12 27.48 C 56.51 27.77 55.29 28.34 54.68 28.63 Z" />
<path fill="#ffffff" opacity="1.00" d=" M 17.27 25.39 C 21.25 23.63 25.87 25.38 29.01 28.02 C 35.26 33.38 33.89 45.08 26.10 48.33 C 18.98 52.27 9.23 47.00 8.44 38.97 C 7.32 32.97 11.55 27.04 17.27 25.39 M 22.57 35.52 C 19.77 37.99 24.30 42.31 26.70 39.60 C 29.73 37.11 25.05 32.24 22.57 35.52 Z" />
</g>
<g id="#1e1e1fff">
<path fill="#1e1e1f" opacity="1.00" d=" M 77.26 24.18 C 77.69 23.55 78.54 22.28 78.96 21.64 C 79.53 21.68 80.68 21.76 81.25 21.80 L 82.32 21.89 C 82.27 22.69 82.17 24.29 82.13 25.09 C 81.46 26.08 80.54 26.40 79.37 26.05 C 78.84 25.58 77.79 24.65 77.26 24.18 Z" />
</g>
<g id="#1d1d1dff">
<path fill="#1d1d1d" opacity="1.00" d=" M 11.30 26.81 C 14.38 25.35 17.50 23.53 21.02 23.68 C 26.43 23.67 31.31 27.56 33.38 32.40 C 34.01 35.51 33.58 38.72 33.72 41.87 C 31.01 48.36 23.74 51.89 16.92 50.50 C 13.61 48.95 10.46 46.86 8.67 43.57 C 8.01 41.65 7.47 39.70 7.03 37.72 C 7.16 33.68 9.21 30.13 11.30 26.81 M 17.27 25.39 C 11.55 27.04 7.32 32.97 8.44 38.97 C 9.23 47.00 18.98 52.27 26.10 48.33 C 33.89 45.08 35.26 33.38 29.01 28.02 C 25.87 25.38 21.25 23.63 17.27 25.39 Z" />
<path fill="#1d1d1d" opacity="1.00" d=" M 54.68 28.63 C 55.29 28.34 56.51 27.77 57.12 27.48 C 58.75 28.42 60.53 29.94 59.59 32.05 C 58.08 34.79 54.50 33.51 53.53 31.03 C 53.81 30.43 54.39 29.23 54.68 28.63 Z" />
</g>
<g id="#191919ff">
<path fill="#191919" opacity="1.00" d=" M 22.57 35.52 C 25.05 32.24 29.73 37.11 26.70 39.60 C 24.30 42.31 19.77 37.99 22.57 35.52 Z" />
</g>
<g id="#feda75ff">
<path fill="#feda75" opacity="1.00" d=" M 36.51 41.58 C 40.89 44.81 43.91 49.65 48.80 52.20 C 51.03 53.48 53.61 53.88 56.08 54.42 C 53.83 56.21 51.26 57.58 48.99 59.34 C 48.90 59.72 48.71 60.49 48.62 60.87 C 43.43 63.28 37.71 64.11 32.05 64.43 C 29.99 64.20 29.60 66.54 29.60 68.09 C 29.16 68.23 28.28 68.50 27.84 68.63 C 28.29 66.63 28.91 64.67 29.70 62.77 C 27.61 61.07 25.41 59.31 24.40 56.73 C 23.13 53.50 19.54 52.37 16.92 50.50 C 23.74 51.89 31.01 48.36 33.72 41.87 L 34.05 42.64 C 34.87 42.30 35.69 41.94 36.51 41.58 Z" />
</g>
<g id="#ffca73ff">
<path fill="#ffca73" opacity="1.00" d=" M 30.03 83.99 C 15.51 76.77 5.51 59.83 8.67 43.57 C 10.46 46.86 13.61 48.95 16.92 50.50 C 19.54 52.37 23.13 53.50 24.40 56.73 C 25.41 59.31 27.61 61.07 29.70 62.77 C 28.91 64.67 28.29 66.63 27.84 68.63 C 28.28 68.50 29.16 68.23 29.60 68.09 C 32.49 71.42 35.93 74.59 40.33 75.67 C 44.44 75.64 48.42 74.48 52.27 73.12 C 53.88 73.56 55.57 73.75 57.19 73.23 C 63.07 71.68 69.29 70.87 74.56 67.65 C 78.96 65.37 82.51 61.89 86.45 58.97 C 84.31 68.20 78.10 76.01 70.47 81.41 C 58.73 89.36 42.69 90.38 30.03 83.99 Z" />
</g>
<g id="#fed875ff">
<path fill="#fed875" opacity="1.00" d=" M 84.08 54.08 C 85.79 53.15 86.98 51.57 87.95 49.92 C 87.86 52.99 87.33 56.03 86.45 58.97 C 82.51 61.89 78.96 65.37 74.56 67.65 C 69.29 70.87 63.07 71.68 57.19 73.23 C 55.57 73.75 53.88 73.56 52.27 73.12 C 52.95 72.81 54.31 72.19 54.99 71.88 C 56.71 70.96 58.27 69.76 59.66 68.39 C 60.91 65.28 60.97 61.90 60.98 58.60 C 61.53 60.35 62.07 62.11 62.62 63.86 C 62.82 62.61 63.03 61.36 63.23 60.12 C 70.62 60.23 77.71 57.63 84.08 54.08 Z" />
</g>
<g id="#7d180fff">
<path fill="#7d180f" opacity="1.00" d=" M 48.62 60.87 C 52.00 59.53 54.88 57.27 58.08 55.59 C 60.08 54.48 60.53 57.35 60.98 58.60 C 60.97 61.90 60.91 65.28 59.66 68.39 C 57.20 67.38 54.69 65.84 51.92 66.35 C 48.26 66.90 45.02 68.92 42.21 71.23 C 41.48 72.66 40.92 74.17 40.33 75.67 C 35.93 74.59 32.49 71.42 29.60 68.09 C 29.60 66.54 29.99 64.20 32.05 64.43 C 37.71 64.11 43.43 63.28 48.62 60.87 Z" />
</g>
<g id="#eb6d5aff">
<path fill="#eb6d5a" opacity="1.00" d=" M 42.21 71.23 C 45.02 68.92 48.26 66.90 51.92 66.35 C 54.69 65.84 57.20 67.38 59.66 68.39 C 58.27 69.76 56.71 70.96 54.99 71.88 C 51.04 69.56 46.48 71.23 42.21 71.23 Z" />
</g>
<g id="#e24f1fff">
<path fill="#e24f1f" opacity="1.00" d=" M 40.33 75.67 C 40.92 74.17 41.48 72.66 42.21 71.23 C 46.48 71.23 51.04 69.56 54.99 71.88 C 54.31 72.19 52.95 72.81 52.27 73.12 C 48.42 74.48 44.44 75.64 40.33 75.67 Z" />
</g>
</svg>
