<?xml version="1.0" encoding="UTF-8" ?>
<!DOCTYPE svg PUBLIC "-//W3C//DTD SVG 1.1//EN" "http://www.w3.org/Graphics/SVG/1.1/DTD/svg11.dtd">
<svg width="96pt" height="96pt" viewBox="0 0 96 96" version="1.1" xmlns="http://www.w3.org/2000/svg">
<path fill="#eea951" opacity="1.00" d=" M 15.96 20.24 C 28.97 3.05 56.58 0.21 73.31 13.55 C 72.77 13.75 71.69 14.15 71.15 14.34 C 58.08 5.01 39.23 5.00 25.90 13.84 C 23.37 15.27 21.21 17.29 19.87 19.89 L 19.40 20.07 C 18.54 20.11 16.82 20.20 15.96 20.24 Z" />
<path fill="#beaf6f" opacity="1.00" d=" M 25.90 13.84 C 39.23 5.00 58.08 5.01 71.15 14.34 L 70.35 14.66 C 66.95 15.46 64.95 18.47 62.23 20.36 C 59.50 22.24 55.31 21.68 53.57 24.93 C 48.01 26.87 41.97 26.59 36.16 26.71 C 31.69 22.64 26.07 19.65 19.87 19.89 C 21.21 17.29 23.37 15.27 25.90 13.84 Z" />
<path fill="#a63f0f" opacity="1.00" d=" M 73.31 13.55 C 76.34 13.35 83.51 15.13 79.52 19.09 C 78.92 19.06 77.72 19.02 77.12 18.99 C 76.60 18.71 75.56 18.13 75.04 17.85 C 73.43 16.85 71.89 15.75 70.35 14.66 L 71.15 14.34 C 71.69 14.15 72.77 13.75 73.31 13.55 Z" />
<path fill="#875239" opacity="1.00" d=" M 62.23 20.36 C 64.95 18.47 66.95 15.46 70.35 14.66 C 71.89 15.75 73.43 16.85 75.04 17.85 C 68.56 16.69 65.44 23.61 60.29 26.08 C 58.05 25.68 55.81 25.31 53.57 24.93 C 55.31 21.68 59.50 22.24 62.23 20.36 Z" />
<path fill="#beaf6f" opacity="1.00" d=" M 60.29 26.08 C 65.44 23.61 68.56 16.69 75.04 17.85 C 75.56 18.13 76.60 18.71 77.12 18.99 C 83.07 25.29 87.93 33.37 88.21 42.22 C 83.90 39.11 80.28 35.05 75.45 32.67 C 70.66 29.86 65.07 28.89 60.29 26.08 Z" />
<path fill="#eea951" opacity="1.00" d=" M 77.12 18.99 C 77.72 19.02 78.92 19.06 79.52 19.09 C 88.05 27.58 91.87 40.17 90.77 52.05 C 89.45 72.37 71.47 90.06 51.08 90.85 C 36.61 92.12 21.97 85.23 13.53 73.45 C 3.23 59.71 2.18 38.90 12.43 24.91 C 12.86 25.02 13.73 25.23 14.16 25.33 C 10.11 31.84 7.21 39.33 7.62 47.11 C 7.27 49.25 7.36 51.42 7.95 53.51 C 10.34 68.64 21.25 82.45 36.24 86.62 C 54.82 93.26 77.03 82.72 84.76 64.81 C 87.10 59.59 88.56 53.90 88.85 48.19 C 88.71 46.19 88.45 44.21 88.21 42.22 C 87.93 33.37 83.07 25.29 77.12 18.99 Z" />
<path fill="#a63f0f" opacity="1.00" d=" M 12.43 24.91 C 8.79 22.31 13.13 20.03 15.96 20.24 C 16.82 20.20 18.54 20.11 19.40 20.07 C 18.36 21.44 17.33 22.82 16.22 24.13 C 15.70 24.43 14.67 25.03 14.16 25.33 C 13.73 25.23 12.86 25.02 12.43 24.91 Z" />
<path fill="#875239" opacity="1.00" d=" M 19.40 20.07 L 19.87 19.89 C 26.07 19.65 31.69 22.64 36.16 26.71 C 35.13 28.70 33.08 29.20 31.32 27.74 C 27.18 24.09 21.58 22.68 16.22 24.13 C 17.33 22.82 18.36 21.44 19.40 20.07 Z" />
<path fill="#c09a6c" opacity="1.00" d=" M 14.16 25.33 C 14.67 25.03 15.70 24.43 16.22 24.13 C 21.58 22.68 27.18 24.09 31.32 27.74 C 27.87 31.05 23.96 34.18 19.01 34.67 C 21.22 34.87 23.44 34.75 25.63 34.41 C 29.15 34.87 33.16 33.84 36.30 35.83 C 33.83 35.91 31.35 36.00 28.88 35.99 C 24.54 35.76 20.18 35.40 15.85 35.93 C 15.84 36.46 15.83 37.53 15.83 38.06 C 18.95 38.26 22.09 38.32 25.18 38.86 C 25.17 40.33 25.19 41.80 25.23 43.27 C 24.38 40.52 22.43 38.43 19.34 39.19 C 13.37 37.96 12.20 45.24 7.62 47.11 C 7.21 39.33 10.11 31.84 14.16 25.33 Z" />
<path fill="#e0ca6e" opacity="1.00" d=" M 36.16 26.71 C 41.97 26.59 48.01 26.87 53.57 24.93 C 55.81 25.31 58.05 25.68 60.29 26.08 C 65.07 28.89 70.66 29.86 75.45 32.67 C 80.28 35.05 83.90 39.11 88.21 42.22 C 88.45 44.21 88.71 46.19 88.85 48.19 C 86.12 41.58 78.78 39.13 73.10 35.70 C 65.43 32.68 57.39 29.83 49.00 30.61 C 40.87 29.80 33.68 34.26 25.63 34.41 C 23.44 34.75 21.22 34.87 19.01 34.67 C 23.96 34.18 27.87 31.05 31.32 27.74 C 33.08 29.20 35.13 28.70 36.16 26.71 Z" />
<path fill="#fde677" opacity="1.00" d=" M 25.63 34.41 C 33.68 34.26 40.87 29.80 49.00 30.61 C 57.39 29.83 65.43 32.68 73.10 35.70 C 78.78 39.13 86.12 41.58 88.85 48.19 C 88.56 53.90 87.10 59.59 84.76 64.81 C 79.29 66.43 73.85 68.48 68.05 68.45 C 64.74 68.07 63.65 74.32 60.46 72.38 C 61.80 69.28 63.26 65.96 62.60 62.49 C 59.62 61.20 56.56 62.93 53.64 63.55 C 44.47 66.29 34.91 64.16 25.56 64.00 C 30.59 61.00 37.15 63.44 42.80 62.76 C 40.19 58.58 35.80 55.85 33.50 51.44 C 32.15 47.19 25.45 49.13 25.50 43.87 C 27.80 45.68 31.64 44.65 31.74 41.50 C 31.84 40.65 32.04 38.95 32.14 38.10 C 33.93 37.72 38.50 38.77 36.30 35.83 C 33.16 33.84 29.15 34.87 25.63 34.41 M 49.01 36.23 C 48.83 41.07 55.84 37.45 58.93 38.75 C 58.50 40.41 57.52 42.42 59.28 43.69 C 61.23 46.33 65.97 44.19 65.94 41.48 C 65.80 40.19 65.56 38.93 65.22 37.69 C 66.71 37.77 70.48 38.95 69.85 36.35 C 62.94 35.68 55.95 36.20 49.01 36.23 Z" />
<path fill="#4a4a3a" opacity="1.00" d=" M 15.85 35.93 C 20.18 35.40 24.54 35.76 28.88 35.99 L 28.86 37.00 C 28.84 37.49 28.80 38.48 28.78 38.97 C 27.91 37.13 26.46 38.18 25.18 38.86 C 22.09 38.32 18.95 38.26 15.83 38.06 C 15.83 37.53 15.84 36.46 15.85 35.93 Z" />
<path fill="#1c1c1d" opacity="1.00" d=" M 28.88 35.99 C 31.35 36.00 33.83 35.91 36.30 35.83 C 38.50 38.77 33.93 37.72 32.14 38.10 C 31.05 37.73 29.95 37.37 28.86 37.00 L 28.88 35.99 Z" />
<path fill="#1c1c1d" opacity="1.00" d=" M 49.01 36.23 C 55.95 36.20 62.94 35.68 69.85 36.35 C 70.48 38.95 66.71 37.77 65.22 37.69 C 63.93 37.26 62.02 37.12 61.79 38.93 C 62.32 40.82 64.31 41.09 65.94 41.48 C 65.97 44.19 61.23 46.33 59.28 43.69 C 57.52 42.42 58.50 40.41 58.93 38.75 C 55.84 37.45 48.83 41.07 49.01 36.23 Z" />
<path fill="#1c1c1d" opacity="1.00" d=" M 25.18 38.86 C 26.46 38.18 27.91 37.13 28.78 38.97 C 29.66 39.93 30.70 40.72 31.74 41.50 C 31.64 44.65 27.80 45.68 25.50 43.87 C 25.44 43.72 25.30 43.42 25.23 43.27 C 25.19 41.80 25.17 40.33 25.18 38.86 Z" />
<path fill="#8b8d92" opacity="1.00" d=" M 28.86 37.00 C 29.95 37.37 31.05 37.73 32.14 38.10 C 32.04 38.95 31.84 40.65 31.74 41.50 C 30.70 40.72 29.66 39.93 28.78 38.97 C 28.80 38.48 28.84 37.49 28.86 37.00 Z" />
<path fill="#8b8d92" opacity="1.00" d=" M 61.79 38.93 C 62.02 37.12 63.93 37.26 65.22 37.69 C 65.56 38.93 65.80 40.19 65.94 41.48 C 64.31 41.09 62.32 40.82 61.79 38.93 Z" />
<path fill="#e0ca6e" opacity="1.00" d=" M 7.62 47.11 C 12.20 45.24 13.37 37.96 19.34 39.19 C 18.51 45.56 11.29 48.41 7.95 53.51 C 7.36 51.42 7.27 49.25 7.62 47.11 Z" />
<path fill="#ffcf74" opacity="1.00" d=" M 19.34 39.19 C 22.43 38.43 24.38 40.52 25.23 43.27 C 25.30 43.42 25.44 43.72 25.50 43.87 C 25.45 49.13 32.15 47.19 33.50 51.44 C 35.80 55.85 40.19 58.58 42.80 62.76 C 37.15 63.44 30.59 61.00 25.56 64.00 C 23.90 65.31 22.14 66.80 21.73 69.00 C 27.79 83.81 52.11 85.91 60.46 72.38 C 63.65 74.32 64.74 68.07 68.05 68.45 C 73.85 68.48 79.29 66.43 84.76 64.81 C 77.03 82.72 54.82 93.26 36.24 86.62 C 21.25 82.45 10.34 68.64 7.95 53.51 C 11.29 48.41 18.51 45.56 19.34 39.19 Z" />
<path fill="#fde677" opacity="1.00" d=" M 25.23 43.27 C 25.30 43.42 25.44 43.72 25.50 43.87 C 25.44 43.72 25.30 43.42 25.23 43.27 Z" />
<path fill="#7f2116" opacity="1.00" d=" M 53.64 63.55 C 56.56 62.93 59.62 61.20 62.60 62.49 C 63.26 65.96 61.80 69.28 60.46 72.38 C 52.11 85.91 27.79 83.81 21.73 69.00 C 22.14 66.80 23.90 65.31 25.56 64.00 C 34.91 64.16 44.47 66.29 53.64 63.55 M 57.30 64.28 C 52.91 65.38 55.80 71.73 55.17 75.14 C 58.94 72.73 61.23 68.18 61.04 63.72 C 59.76 63.74 58.52 63.92 57.30 64.28 M 52.36 65.46 C 50.68 65.74 49.01 66.06 47.37 66.52 C 47.00 70.61 47.21 74.75 47.36 78.85 C 49.84 78.14 54.10 77.52 53.42 73.99 C 52.97 71.46 54.36 66.49 52.36 65.46 M 26.21 66.33 C 21.60 68.48 26.32 73.54 29.11 75.05 C 28.65 72.11 31.27 64.44 26.21 66.33 M 30.98 66.08 C 30.92 69.57 30.40 73.23 31.25 76.63 C 33.16 77.54 35.23 78.05 37.32 78.33 C 37.44 74.33 37.54 70.29 37.08 66.30 C 35.06 66.06 33.01 65.98 30.98 66.08 M 39.13 66.79 C 39.02 70.83 38.98 74.89 39.21 78.93 C 41.39 79.31 43.63 79.35 45.81 79.01 C 46.00 74.96 45.89 70.89 45.71 66.85 C 43.53 66.50 41.31 66.52 39.13 66.79 Z" />
<path fill="#ffffff" opacity="1.00" d=" M 57.30 64.28 C 58.52 63.92 59.76 63.74 61.04 63.72 C 61.23 68.18 58.94 72.73 55.17 75.14 C 55.80 71.73 52.91 65.38 57.30 64.28 Z" />
<path fill="#ffffff" opacity="1.00" d=" M 52.36 65.46 C 54.36 66.49 52.97 71.46 53.42 73.99 C 54.10 77.52 49.84 78.14 47.36 78.85 C 47.21 74.75 47.00 70.61 47.37 66.52 C 49.01 66.06 50.68 65.74 52.36 65.46 Z" />
<path fill="#ffffff" opacity="1.00" d=" M 26.21 66.33 C 31.27 64.44 28.65 72.11 29.11 75.05 C 26.32 73.54 21.60 68.48 26.21 66.33 Z" />
<path fill="#ffffff" opacity="1.00" d=" M 30.98 66.08 C 33.01 65.98 35.06 66.06 37.08 66.30 C 37.54 70.29 37.44 74.33 37.32 78.33 C 35.23 78.05 33.16 77.54 31.25 76.63 C 30.40 73.23 30.92 69.57 30.98 66.08 Z" />
<path fill="#ffffff" opacity="1.00" d=" M 39.13 66.79 C 41.31 66.52 43.53 66.50 45.71 66.85 C 45.89 70.89 46.00 74.96 45.81 79.01 C 43.63 79.35 41.39 79.31 39.21 78.93 C 38.98 74.89 39.02 70.83 39.13 66.79 Z" />
</svg>
