<?xml version="1.0" encoding="UTF-8" ?>
<!DOCTYPE svg PUBLIC "-//W3C//DTD SVG 1.1//EN" "http://www.w3.org/Graphics/SVG/1.1/DTD/svg11.dtd">
<svg width="96pt" height="96pt" viewBox="0 0 96 96" version="1.1" xmlns="http://www.w3.org/2000/svg">
<g id="#eea24eff">
<path fill="#eea24e" opacity="1.00" d=" M 30.70 8.84 C 41.12 3.91 53.61 3.97 64.26 8.20 C 63.41 8.62 62.57 9.06 61.75 9.53 C 52.50 6.65 42.09 6.28 33.16 10.42 C 32.35 9.88 31.53 9.35 30.70 8.84 Z" />
</g>
<g id="#a23b0bff">
<path fill="#a23b0b" opacity="1.00" d=" M 20.13 15.48 C 20.82 10.80 25.89 5.88 30.70 8.84 C 31.53 9.35 32.35 9.88 33.16 10.42 C 34.73 11.74 36.53 13.10 37.03 15.21 C 36.50 15.44 35.45 15.90 34.92 16.12 C 32.18 14.54 29.86 12.26 26.85 11.11 C 25.37 13.11 23.98 15.19 22.70 17.33 C 22.08 17.47 20.83 17.74 20.21 17.88 C 20.19 17.28 20.15 16.08 20.13 15.48 Z" />
</g>
<g id="#fded78ff">
<path fill="#fded78" opacity="1.00" d=" M 33.16 10.42 C 42.09 6.28 52.50 6.65 61.75 9.53 C 60.04 10.82 58.41 12.24 57.15 13.99 C 57.79 14.74 59.04 16.44 60.14 15.34 C 62.54 14.11 64.47 10.73 67.49 11.58 C 69.64 12.89 70.33 15.55 71.82 17.46 C 72.98 17.70 73.99 16.79 75.06 16.51 C 74.63 15.51 74.19 14.52 73.73 13.53 C 74.08 13.83 74.79 14.42 75.15 14.72 C 75.20 15.44 75.30 16.89 75.36 17.62 C 86.62 27.97 91.72 44.62 87.01 59.34 C 86.47 57.99 85.92 56.65 85.38 55.30 C 75.43 57.41 64.57 55.88 56.29 49.74 C 49.49 45.05 44.88 37.95 41.43 30.59 C 39.42 25.63 38.71 20.27 37.03 15.21 C 36.53 13.10 34.73 11.74 33.16 10.42 M 59.31 27.38 C 58.04 29.30 58.95 31.57 59.77 33.46 C 62.15 35.24 65.27 35.16 67.79 33.72 C 68.85 31.63 69.88 28.93 68.09 26.92 C 66.04 23.87 61.03 24.12 59.31 27.38 Z" />
</g>
<g id="#a3400fff">
<path fill="#a3400f" opacity="1.00" d=" M 64.26 8.20 C 68.45 6.14 72.28 9.88 73.73 13.53 C 74.19 14.52 74.63 15.51 75.06 16.51 C 73.99 16.79 72.98 17.70 71.82 17.46 C 70.33 15.55 69.64 12.89 67.49 11.58 C 64.47 10.73 62.54 14.11 60.14 15.34 C 59.04 16.44 57.79 14.74 57.15 13.99 C 58.41 12.24 60.04 10.82 61.75 9.53 C 62.57 9.06 63.41 8.62 64.26 8.20 Z" />
</g>
<g id="#fedf76ff">
<path fill="#fedf76" opacity="1.00" d=" M 22.70 17.33 C 23.98 15.19 25.37 13.11 26.85 11.11 C 29.86 12.26 32.18 14.54 34.92 16.12 C 35.45 15.90 36.50 15.44 37.03 15.21 C 38.71 20.27 39.42 25.63 41.43 30.59 C 44.88 37.95 49.49 45.05 56.29 49.74 C 64.57 55.88 75.43 57.41 85.38 55.30 C 85.92 56.65 86.47 57.99 87.01 59.34 C 85.98 62.65 84.45 65.78 82.65 68.73 C 80.94 68.73 79.20 68.77 77.60 69.45 C 71.44 71.85 65.24 74.15 58.88 75.98 C 52.77 77.71 46.33 77.28 40.07 76.80 C 40.38 76.42 41.01 75.67 41.32 75.29 C 49.92 76.05 59.22 75.54 66.64 70.65 C 69.32 69.01 70.91 66.16 71.53 63.13 C 67.63 68.55 61.37 71.57 54.86 72.41 C 48.27 73.23 41.45 73.12 35.06 71.18 C 36.91 69.11 40.10 67.23 39.61 64.01 C 39.59 61.31 36.98 60.05 35.07 58.73 C 34.21 53.41 31.86 47.48 26.21 45.77 C 23.82 45.10 21.35 44.79 18.90 44.49 C 20.47 44.22 22.03 43.93 23.60 43.64 C 21.48 34.65 22.42 25.07 25.99 16.59 C 24.90 16.83 23.80 17.08 22.70 17.33 M 27.92 33.76 C 30.23 35.08 32.98 35.12 35.28 33.76 C 38.50 30.33 35.92 23.96 30.97 24.73 C 26.58 25.19 25.24 30.62 27.92 33.76 Z" />
</g>
<g id="#efa950ff">
<path fill="#efa950" opacity="1.00" d=" M 75.15 14.72 C 85.23 22.51 91.32 35.27 90.95 48.02 C 91.17 60.48 85.09 72.66 75.50 80.49 C 63.67 90.44 46.30 93.08 32.03 87.19 C 32.03 86.50 32.04 85.12 32.05 84.43 C 49.59 93.21 72.87 85.54 82.65 68.73 C 84.45 65.78 85.98 62.65 87.01 59.34 C 91.72 44.62 86.62 27.97 75.36 17.62 C 75.30 16.89 75.20 15.44 75.15 14.72 Z" />
</g>
<g id="#eea84fff">
<path fill="#eea84f" opacity="1.00" d=" M 7.83 62.37 C 1.34 46.28 6.60 26.32 20.13 15.48 C 20.15 16.08 20.19 17.28 20.21 17.88 C 11.12 27.09 5.27 40.38 8.17 53.42 C 8.04 56.40 7.82 59.38 7.83 62.37 Z" />
</g>
<g id="#ffcb73ff">
<path fill="#ffcb73" opacity="1.00" d=" M 22.70 17.33 C 23.80 17.08 24.90 16.83 25.99 16.59 C 22.42 25.07 21.48 34.65 23.60 43.64 C 22.03 43.93 20.47 44.22 18.90 44.49 C 21.35 44.79 23.82 45.10 26.21 45.77 C 19.39 44.89 11.48 46.80 8.17 53.42 C 5.27 40.38 11.12 27.09 20.21 17.88 C 20.83 17.74 22.08 17.47 22.70 17.33 Z" />
</g>
<g id="#1f1f1fff">
<path fill="#1f1f1f" opacity="1.00" d=" M 27.92 33.76 C 25.24 30.62 26.58 25.19 30.97 24.73 C 35.92 23.96 38.50 30.33 35.28 33.76 C 34.03 32.85 33.04 30.85 31.20 31.32 C 29.89 31.78 29.00 32.95 27.92 33.76 Z" />
<path fill="#1f1f1f" opacity="1.00" d=" M 59.31 27.38 C 61.03 24.12 66.04 23.87 68.09 26.92 C 69.88 28.93 68.85 31.63 67.79 33.72 C 66.33 32.81 65.06 31.00 63.14 31.34 C 61.82 31.67 60.87 32.75 59.77 33.46 C 58.95 31.57 58.04 29.30 59.31 27.38 Z" />
</g>
<g id="#72788aff">
<path fill="#72788a" opacity="1.00" d=" M 27.92 33.76 C 29.00 32.95 29.89 31.78 31.20 31.32 C 33.04 30.85 34.03 32.85 35.28 33.76 C 32.98 35.12 30.23 35.08 27.92 33.76 Z" />
</g>
<g id="#737584ff">
<path fill="#737584" opacity="1.00" d=" M 59.77 33.46 C 60.87 32.75 61.82 31.67 63.14 31.34 C 65.06 31.00 66.33 32.81 67.79 33.72 C 65.27 35.16 62.15 35.24 59.77 33.46 Z" />
</g>
<g id="#faa414fd">
<path fill="#faa414" opacity="1.00" d=" M 8.17 53.42 C 11.48 46.80 19.39 44.89 26.21 45.77 C 31.86 47.48 34.21 53.41 35.07 58.73 C 36.98 60.05 39.59 61.31 39.61 64.01 C 40.10 67.23 36.91 69.11 35.06 71.18 C 34.41 71.83 33.78 72.51 33.18 73.21 C 32.16 76.86 32.10 80.67 32.05 84.43 C 32.04 85.12 32.03 86.50 32.03 87.19 C 32.02 87.71 32.01 88.75 32.00 89.28 L 30.10 88.94 L 29.98 88.19 L 29.93 87.74 L 29.87 86.89 C 29.88 82.29 29.50 77.49 31.21 73.12 C 32.46 69.75 36.08 68.01 37.54 64.80 C 37.28 63.63 36.83 62.52 36.43 61.40 C 35.28 62.01 34.12 62.63 32.97 63.25 C 32.65 57.92 32.44 50.81 26.72 48.32 C 21.35 46.73 14.05 47.96 10.94 53.06 C 8.29 58.65 10.65 65.13 14.17 69.77 C 18.22 75.07 18.97 81.96 19.25 88.41 L 18.08 89.90 C 17.13 87.93 16.95 85.73 17.06 83.58 C 17.22 82.04 16.94 80.52 16.33 79.11 C 14.77 72.90 9.41 68.59 7.83 62.37 C 7.82 59.38 8.04 56.40 8.17 53.42 Z" />
</g>
<g id="#ffe06eff">
<path fill="#ffe06e" opacity="1.00" d=" M 10.94 53.06 C 14.05 47.96 21.35 46.73 26.72 48.32 C 32.44 50.81 32.65 57.92 32.97 63.25 C 34.12 62.63 35.28 62.01 36.43 61.40 C 36.83 62.52 37.28 63.63 37.54 64.80 C 36.08 68.01 32.46 69.75 31.21 73.12 C 29.50 77.49 29.88 82.29 29.87 86.89 C 26.37 86.79 22.82 86.66 19.39 87.52 C 22.89 87.93 26.41 87.88 29.93 87.74 L 29.98 88.19 C 26.40 88.23 22.82 88.22 19.25 88.41 C 18.97 81.96 18.22 75.07 14.17 69.77 C 10.65 65.13 8.29 58.65 10.94 53.06 Z" />
</g>
<g id="#670000ff">
<path fill="#670000" opacity="1.00" d=" M 54.86 72.41 C 61.37 71.57 67.63 68.55 71.53 63.13 C 70.91 66.16 69.32 69.01 66.64 70.65 C 59.22 75.54 49.92 76.05 41.32 75.29 C 38.59 74.68 35.89 73.92 33.18 73.21 C 33.78 72.51 34.41 71.83 35.06 71.18 C 41.45 73.12 48.27 73.23 54.86 72.41 Z" />
</g>
<g id="#ffca73ff">
<path fill="#ffca73" opacity="1.00" d=" M 77.60 69.45 C 79.20 68.77 80.94 68.73 82.65 68.73 C 72.87 85.54 49.59 93.21 32.05 84.43 C 32.10 80.67 32.16 76.86 33.18 73.21 C 35.89 73.92 38.59 74.68 41.32 75.29 C 41.01 75.67 40.38 76.42 40.07 76.80 C 46.33 77.28 52.77 77.71 58.88 75.98 C 65.24 74.15 71.44 71.85 77.60 69.45 Z" />
</g>
<g id="#5637068b">
<path fill="#563706" opacity="0.55" d=" M 16.33 79.11 C 16.94 80.52 17.22 82.04 17.06 83.58 C 15.06 83.78 15.16 80.14 16.33 79.11 Z" />
</g>
<g id="#fffe80ff">
<path fill="#fffe80" opacity="1.00" d=" M 19.39 87.52 C 22.82 86.66 26.37 86.79 29.87 86.89 L 29.93 87.74 C 26.41 87.88 22.89 87.93 19.39 87.52 Z" />
</g>
</svg>
