<?xml version="1.0" encoding="UTF-8" ?>
<!DOCTYPE svg PUBLIC "-//W3C//DTD SVG 1.1//EN" "http://www.w3.org/Graphics/SVG/1.1/DTD/svg11.dtd">
<svg width="96pt" height="96pt" viewBox="0 0 96 96" version="1.1" xmlns="http://www.w3.org/2000/svg">
<path fill="#f2a25c" opacity="1.00" d=" M 43.39 5.56 C 62.58 3.77 82.30 16.19 88.11 34.77 C 95.33 53.66 85.47 76.56 67.69 85.69 C 58.50 90.35 47.48 92.86 37.50 89.33 C 14.94 84.22 -0.77 58.01 7.17 35.95 C 11.73 19.61 26.89 7.93 43.39 5.56 M 35.96 9.98 C 20.38 14.88 7.09 30.07 8.25 46.99 C 10.63 46.48 12.65 44.47 15.23 45.21 C 10.80 47.15 11.18 54.11 16.34 54.67 C 13.28 56.01 10.93 53.59 8.08 53.05 C 10.06 72.52 28.17 89.38 47.99 87.84 C 63.53 88.89 78.41 78.42 84.37 64.28 C 86.58 61.00 88.03 56.83 86.98 52.88 C 81.78 56.34 74.01 55.91 69.42 51.63 C 67.84 47.25 73.86 44.96 77.22 45.34 C 73.62 46.45 74.03 50.40 74.65 53.37 C 77.46 53.78 80.36 53.97 83.16 53.32 C 85.85 50.36 83.76 46.90 80.85 45.21 C 83.88 43.64 87.75 50.22 88.32 45.03 C 86.75 35.23 82.66 25.55 75.28 18.71 C 64.92 9.41 49.15 4.43 35.96 9.98 Z" />
<path fill="#fde877" opacity="1.00" d=" M 35.96 9.98 C 49.15 4.43 64.92 9.41 75.28 18.71 C 82.66 25.55 86.75 35.23 88.32 45.03 C 87.75 50.22 83.88 43.64 80.85 45.21 C 79.64 45.26 78.43 45.30 77.22 45.34 C 73.86 44.96 67.84 47.25 69.42 51.63 C 74.01 55.91 81.78 56.34 86.98 52.88 C 88.03 56.83 86.58 61.00 84.37 64.28 C 75.76 67.29 64.83 71.95 56.54 67.95 C 57.87 63.20 54.62 65.87 53.21 68.26 C 50.18 69.19 46.87 68.77 43.74 68.54 C 45.13 68.06 48.82 67.10 47.14 65.03 C 40.25 62.05 35.40 55.79 31.22 49.78 C 29.75 48.93 25.34 45.43 29.18 45.48 C 34.28 46.56 37.75 40.89 34.98 36.64 C 33.34 35.13 31.09 35.08 29.00 35.29 C 25.58 35.90 26.96 34.04 29.05 32.84 C 33.90 32.09 37.96 26.75 36.84 21.97 C 32.96 20.54 33.78 26.01 31.39 27.59 C 30.21 25.12 30.34 22.31 31.99 20.11 C 34.33 17.06 33.00 12.71 35.96 9.98 M 59.10 22.01 C 57.49 30.59 68.75 35.60 74.90 31.93 C 76.21 26.64 68.94 30.68 66.25 28.79 C 62.09 27.87 63.81 20.30 59.10 22.01 M 60.88 36.77 C 58.32 41.13 62.88 47.36 67.68 44.63 C 70.89 43.84 71.54 37.28 68.84 37.05 C 68.71 34.34 62.75 34.61 60.88 36.77 Z" />
<path fill="#ffcf74" opacity="1.00" d=" M 8.25 46.99 C 7.09 30.07 20.38 14.88 35.96 9.98 C 33.00 12.71 34.33 17.06 31.99 20.11 C 30.34 22.31 30.21 25.12 31.39 27.59 C 28.79 30.55 24.43 28.84 21.03 29.15 C 19.91 34.21 26.01 32.63 29.05 32.84 C 26.96 34.04 25.58 35.90 29.00 35.29 C 28.49 35.60 27.47 36.22 26.96 36.53 C 24.45 39.51 25.85 43.85 29.18 45.48 C 25.34 45.43 29.75 48.93 31.22 49.78 C 35.40 55.79 40.25 62.05 47.14 65.03 C 48.82 67.10 45.13 68.06 43.74 68.54 C 42.85 67.36 42.19 65.26 40.39 66.61 C 41.05 72.07 47.21 70.63 51.05 70.76 C 53.42 71.25 55.04 69.47 56.54 67.95 C 64.83 71.95 75.76 67.29 84.37 64.28 C 78.41 78.42 63.53 88.89 47.99 87.84 C 28.17 89.38 10.06 72.52 8.08 53.05 C 10.93 53.59 13.28 56.01 16.34 54.67 C 16.93 54.71 18.12 54.79 18.72 54.83 C 21.90 55.52 25.79 53.39 26.11 50.00 C 25.78 46.63 21.92 44.45 18.76 45.21 C 17.58 45.25 16.40 45.25 15.23 45.21 C 12.65 44.47 10.63 46.48 8.25 46.99 Z" />
<path fill="#a33c0d" opacity="1.00" d=" M 31.39 27.59 C 33.78 26.01 32.96 20.54 36.84 21.97 C 37.96 26.75 33.90 32.09 29.05 32.84 C 26.01 32.63 19.91 34.21 21.03 29.15 C 24.43 28.84 28.79 30.55 31.39 27.59 Z" />
<path fill="#a33c0d" opacity="1.00" d=" M 59.10 22.01 C 63.81 20.30 62.09 27.87 66.25 28.79 C 68.94 30.68 76.21 26.64 74.90 31.93 C 68.75 35.60 57.49 30.59 59.10 22.01 Z" />
<path fill="#838281" opacity="1.00" d=" M 29.00 35.29 C 31.09 35.08 33.34 35.13 34.98 36.64 C 32.61 39.37 29.11 39.94 26.96 36.53 C 27.47 36.22 28.49 35.60 29.00 35.29 Z" />
<path fill="#838281" opacity="1.00" d=" M 60.88 36.77 C 62.75 34.61 68.71 34.34 68.84 37.05 C 66.37 38.54 63.34 37.98 60.88 36.77 Z" />
<path fill="#1f1f1f" opacity="1.00" d=" M 29.18 45.48 C 25.85 43.85 24.45 39.51 26.96 36.53 C 29.11 39.94 32.61 39.37 34.98 36.64 C 37.75 40.89 34.28 46.56 29.18 45.48 Z" />
<path fill="#1f1f1f" opacity="1.00" d=" M 60.88 36.77 C 63.34 37.98 66.37 38.54 68.84 37.05 C 71.54 37.28 70.89 43.84 67.68 44.63 C 62.88 47.36 58.32 41.13 60.88 36.77 Z" />
<path fill="#ed8f3d" opacity="1.00" d=" M 15.23 45.21 C 16.40 45.25 17.58 45.25 18.76 45.21 C 22.91 46.93 22.85 53.10 18.72 54.83 C 18.12 54.79 16.93 54.71 16.34 54.67 C 11.18 54.11 10.80 47.15 15.23 45.21 Z" />
<path fill="#f2a25c" opacity="1.00" d=" M 18.76 45.21 C 21.92 44.45 25.78 46.63 26.11 50.00 C 25.79 53.39 21.90 55.52 18.72 54.83 C 22.85 53.10 22.91 46.93 18.76 45.21 Z" />
<path fill="#ed8f3d" opacity="1.00" d=" M 77.22 45.34 C 78.43 45.30 79.64 45.26 80.85 45.21 C 83.76 46.90 85.85 50.36 83.16 53.32 C 80.36 53.97 77.46 53.78 74.65 53.37 C 74.03 50.40 73.62 46.45 77.22 45.34 Z" />
<path fill="#a33c0d" opacity="1.00" d=" M 53.21 68.26 C 54.62 65.87 57.87 63.20 56.54 67.95 C 55.04 69.47 53.42 71.25 51.05 70.76 C 47.21 70.63 41.05 72.07 40.39 66.61 C 42.19 65.26 42.85 67.36 43.74 68.54 C 46.87 68.77 50.18 69.19 53.21 68.26 Z" />
</svg>
